<svg xmlns="http://www.w3.org/2000/svg" width="1240" height="720" viewBox="0 0 1240 720">
<rect width="100%" height="100%" fill="white"/>
<text x="620.0" y="30" text-anchor="middle" font-size="18" font-family="Arial, sans-serif">Matched RMMSE NMSE, 24 PRB</text>
<line x1="84" y1="638" x2="990" y2="638" stroke="#333" stroke-width="1.2"/>
<line x1="84" y1="56" x2="84" y2="638" stroke="#333" stroke-width="1.2"/>
<line x1="117.56" y1="56" x2="117.56" y2="638" stroke="#e6e8eb"/><text x="117.56" y="662" font-size="12" text-anchor="middle">0</text><line x1="257.37" y1="56" x2="257.37" y2="638" stroke="#e6e8eb"/><text x="257.37" y="662" font-size="12" text-anchor="middle">4</text><line x1="397.19" y1="56" x2="397.19" y2="638" stroke="#e6e8eb"/><text x="397.19" y="662" font-size="12" text-anchor="middle">8</text><line x1="537.00" y1="56" x2="537.00" y2="638" stroke="#e6e8eb"/><text x="537.00" y="662" font-size="12" text-anchor="middle">12</text><line x1="676.81" y1="56" x2="676.81" y2="638" stroke="#e6e8eb"/><text x="676.81" y="662" font-size="12" text-anchor="middle">16</text><line x1="816.63" y1="56" x2="816.63" y2="638" stroke="#e6e8eb"/><text x="816.63" y="662" font-size="12" text-anchor="middle">20</text><line x1="956.44" y1="56" x2="956.44" y2="638" stroke="#e6e8eb"/><text x="956.44" y="662" font-size="12" text-anchor="middle">24</text><line x1="84" y1="617.69" x2="990" y2="617.69" stroke="#d9dde2"/><text x="76" y="621.69" font-size="12" text-anchor="end">1e-3</text><line x1="84" y1="407.05" x2="990" y2="407.05" stroke="#d9dde2"/><text x="76" y="411.05" font-size="12" text-anchor="end">1e-2</text><line x1="84" y1="196.40" x2="990" y2="196.40" stroke="#d9dde2"/><text x="76" y="200.40" font-size="12" text-anchor="end">1e-1</text><line x1="84" y1="554.28" x2="990" y2="554.28" stroke="#eef0f2"/><line x1="84" y1="470.46" x2="990" y2="470.46" stroke="#eef0f2"/><line x1="84" y1="343.64" x2="990" y2="343.64" stroke="#eef0f2"/><line x1="84" y1="259.81" x2="990" y2="259.81" stroke="#eef0f2"/><line x1="84" y1="132.99" x2="990" y2="132.99" stroke="#eef0f2"/>
<g><title>C0 CDD step=1</title><circle cx="117.56" cy="139.70" r="4" stroke="#0072B2" stroke-width="1.6" fill="white"/></g><g><title>C0 CDD step=1</title><circle cx="257.37" cy="210.61" r="4" stroke="#0072B2" stroke-width="1.6" fill="white"/></g><g><title>C0 CDD step=1</title><circle cx="397.19" cy="284.88" r="4" stroke="#0072B2" stroke-width="1.6" fill="white"/></g><g><title>C0 CDD step=1</title><circle cx="537.00" cy="359.36" r="4" stroke="#0072B2" stroke-width="1.6" fill="white"/></g><g><title>C0 CDD step=1</title><circle cx="676.81" cy="434.09" r="4" stroke="#0072B2" stroke-width="1.6" fill="white"/></g><g><title>C0 CDD step=1</title><circle cx="816.63" cy="510.92" r="4" stroke="#0072B2" stroke-width="1.6" fill="white"/></g><g><title>C0 CDD step=1</title><circle cx="956.44" cy="589.69" r="4" stroke="#0072B2" stroke-width="1.6" fill="white"/></g><polyline points="117.56,139.70 257.37,210.61 397.19,284.88 537.00,359.36 676.81,434.09 816.63,510.92 956.44,589.69" fill="none" stroke="#0072B2" stroke-width="2.1" stroke-dasharray="5 3"/><g><title>C1 CDD step=2</title><rect x="113.76" y="147.09" width="7.6" height="7.6" stroke="#D55E00" stroke-width="1.6" fill="white"/></g><g><title>C1 CDD step=2</title><rect x="253.57" y="215.78" width="7.6" height="7.6" stroke="#D55E00" stroke-width="1.6" fill="white"/></g><g><title>C1 CDD step=2</title><rect x="393.39" y="288.73" width="7.6" height="7.6" stroke="#D55E00" stroke-width="1.6" fill="white"/></g><g><title>C1 CDD step=2</title><rect x="533.20" y="364.28" width="7.6" height="7.6" stroke="#D55E00" stroke-width="1.6" fill="white"/></g><g><title>C1 CDD step=2</title><rect x="673.01" y="440.19" width="7.6" height="7.6" stroke="#D55E00" stroke-width="1.6" fill="white"/></g><g><title>C1 CDD step=2</title><rect x="812.83" y="515.70" width="7.6" height="7.6" stroke="#D55E00" stroke-width="1.6" fill="white"/></g><g><title>C1 CDD step=2</title><rect x="952.64" y="592.29" width="7.6" height="7.6" stroke="#D55E00" stroke-width="1.6" fill="white"/></g><polyline points="117.56,150.89 257.37,219.58 397.19,292.53 537.00,368.08 676.81,443.99 816.63,519.50 956.44,596.09" fill="none" stroke="#D55E00" stroke-width="2.1" stroke-dasharray="5 3"/><g><title>C2 CDD step=3</title><polygon points="117.56,147.55 113.26,155.75 121.86,155.75" stroke="#009E73" stroke-width="1.6" fill="white"/></g><g><title>C2 CDD step=3</title><polygon points="257.37,216.37 253.07,224.57 261.67,224.57" stroke="#009E73" stroke-width="1.6" fill="white"/></g><g><title>C2 CDD step=3</title><polygon points="397.19,288.86 392.89,297.06 401.49,297.06" stroke="#009E73" stroke-width="1.6" fill="white"/></g><g><title>C2 CDD step=3</title><polygon points="537.00,363.41 532.70,371.61 541.30,371.61" stroke="#009E73" stroke-width="1.6" fill="white"/></g><g><title>C2 CDD step=3</title><polygon points="676.81,439.92 672.51,448.12 681.11,448.12" stroke="#009E73" stroke-width="1.6" fill="white"/></g><g><title>C2 CDD step=3</title><polygon points="816.63,517.12 812.33,525.32 820.93,525.32" stroke="#009E73" stroke-width="1.6" fill="white"/></g><g><title>C2 CDD step=3</title><polygon points="956.44,593.26 952.14,601.46 960.74,601.46" stroke="#009E73" stroke-width="1.6" fill="white"/></g><polyline points="117.56,152.15 257.37,220.97 397.19,293.46 537.00,368.01 676.81,444.52 816.63,521.72 956.44,597.86" fill="none" stroke="#009E73" stroke-width="2.1" stroke-dasharray="5 3"/><g><title>C3 CDD step=4</title><polygon points="117.56,143.61 113.06,148.11 117.56,152.61 122.06,148.11" stroke="#CC79A7" stroke-width="1.6" fill="white"/></g><g><title>C3 CDD step=4</title><polygon points="257.37,211.92 252.87,216.42 257.37,220.92 261.87,216.42" stroke="#CC79A7" stroke-width="1.6" fill="white"/></g><g><title>C3 CDD step=4</title><polygon points="397.19,284.66 392.69,289.16 397.19,293.66 401.69,289.16" stroke="#CC79A7" stroke-width="1.6" fill="white"/></g><g><title>C3 CDD step=4</title><polygon points="537.00,359.18 532.50,363.68 537.00,368.18 541.50,363.68" stroke="#CC79A7" stroke-width="1.6" fill="white"/></g><g><title>C3 CDD step=4</title><polygon points="676.81,433.60 672.31,438.10 676.81,442.60 681.31,438.10" stroke="#CC79A7" stroke-width="1.6" fill="white"/></g><g><title>C3 CDD step=4</title><polygon points="816.63,508.41 812.13,512.91 816.63,517.41 821.13,512.91" stroke="#CC79A7" stroke-width="1.6" fill="white"/></g><g><title>C3 CDD step=4</title><polygon points="956.44,584.35 951.94,588.85 956.44,593.35 960.94,588.85" stroke="#CC79A7" stroke-width="1.6" fill="white"/></g><polyline points="117.56,148.11 257.37,216.42 397.19,289.16 537.00,363.68 676.81,438.10 816.63,512.91 956.44,588.85" fill="none" stroke="#CC79A7" stroke-width="2.1" stroke-dasharray="5 3"/><g><title>C4 CDD step=5</title><polygon points="113.26,136.44 121.86,136.44 117.56,144.64" stroke="#E69F00" stroke-width="1.6" fill="white"/></g><g><title>C4 CDD step=5</title><polygon points="253.07,203.77 261.67,203.77 257.37,211.97" stroke="#E69F00" stroke-width="1.6" fill="white"/></g><g><title>C4 CDD step=5</title><polygon points="392.89,275.15 401.49,275.15 397.19,283.35" stroke="#E69F00" stroke-width="1.6" fill="white"/></g><g><title>C4 CDD step=5</title><polygon points="532.70,348.85 541.30,348.85 537.00,357.05" stroke="#E69F00" stroke-width="1.6" fill="white"/></g><g><title>C4 CDD step=5</title><polygon points="672.51,424.13 681.11,424.13 676.81,432.33" stroke="#E69F00" stroke-width="1.6" fill="white"/></g><g><title>C4 CDD step=5</title><polygon points="812.33,499.07 820.93,499.07 816.63,507.27" stroke="#E69F00" stroke-width="1.6" fill="white"/></g><g><title>C4 CDD step=5</title><polygon points="952.14,572.87 960.74,572.87 956.44,581.07" stroke="#E69F00" stroke-width="1.6" fill="white"/></g><polyline points="117.56,140.04 257.37,207.37 397.19,278.75 537.00,352.45 676.81,427.73 816.63,502.67 956.44,576.47" fill="none" stroke="#E69F00" stroke-width="2.1" stroke-dasharray="5 3"/><g><title>C5 CDD step=6</title><path d="M 113.56 130.83 H 121.56 M 117.56 126.83 V 134.83" stroke="#56B4E9" stroke-width="2" fill="none"/></g><g><title>C5 CDD step=6</title><path d="M 253.37 197.71 H 261.37 M 257.37 193.71 V 201.71" stroke="#56B4E9" stroke-width="2" fill="none"/></g><g><title>C5 CDD step=6</title><path d="M 393.19 269.75 H 401.19 M 397.19 265.75 V 273.75" stroke="#56B4E9" stroke-width="2" fill="none"/></g><g><title>C5 CDD step=6</title><path d="M 533.00 343.46 H 541.00 M 537.00 339.46 V 347.46" stroke="#56B4E9" stroke-width="2" fill="none"/></g><g><title>C5 CDD step=6</title><path d="M 672.81 417.06 H 680.81 M 676.81 413.06 V 421.06" stroke="#56B4E9" stroke-width="2" fill="none"/></g><g><title>C5 CDD step=6</title><path d="M 812.63 491.48 H 820.63 M 816.63 487.48 V 495.48" stroke="#56B4E9" stroke-width="2" fill="none"/></g><g><title>C5 CDD step=6</title><path d="M 952.44 566.84 H 960.44 M 956.44 562.84 V 570.84" stroke="#56B4E9" stroke-width="2" fill="none"/></g><polyline points="117.56,130.83 257.37,197.71 397.19,269.75 537.00,343.46 676.81,417.06 816.63,491.48 956.44,566.84" fill="none" stroke="#56B4E9" stroke-width="2.1" stroke-dasharray="5 3"/><g><title>C6 CDD step=7</title><path d="M 114.06 121.05 L 121.06 128.05 M 121.06 121.05 L 114.06 128.05" stroke="#6F4E7C" stroke-width="2" fill="none"/></g><g><title>C6 CDD step=7</title><path d="M 253.87 187.58 L 260.87 194.58 M 260.87 187.58 L 253.87 194.58" stroke="#6F4E7C" stroke-width="2" fill="none"/></g><g><title>C6 CDD step=7</title><path d="M 393.69 258.64 L 400.69 265.64 M 400.69 258.64 L 393.69 265.64" stroke="#6F4E7C" stroke-width="2" fill="none"/></g><g><title>C6 CDD step=7</title><path d="M 533.50 332.09 L 540.50 339.09 M 540.50 332.09 L 533.50 339.09" stroke="#6F4E7C" stroke-width="2" fill="none"/></g><g><title>C6 CDD step=7</title><path d="M 673.31 407.02 L 680.31 414.02 M 680.31 407.02 L 673.31 414.02" stroke="#6F4E7C" stroke-width="2" fill="none"/></g><g><title>C6 CDD step=7</title><path d="M 813.13 481.19 L 820.13 488.19 M 820.13 481.19 L 813.13 488.19" stroke="#6F4E7C" stroke-width="2" fill="none"/></g><g><title>C6 CDD step=7</title><path d="M 952.94 553.55 L 959.94 560.55 M 959.94 553.55 L 952.94 560.55" stroke="#6F4E7C" stroke-width="2" fill="none"/></g><polyline points="117.56,124.55 257.37,191.08 397.19,262.14 537.00,335.59 676.81,410.52 816.63,484.69 956.44,557.05" fill="none" stroke="#6F4E7C" stroke-width="2.1" stroke-dasharray="5 3"/><g><title>C7 CDD step=64</title><polygon points="113.36,96.14 115.46,92.44 119.66,92.44 121.76,96.14 119.66,99.84 115.46,99.84" stroke="#222222" stroke-width="1.6" fill="white"/></g><g><title>C7 CDD step=64</title><polygon points="253.17,159.91 255.27,156.21 259.47,156.21 261.57,159.91 259.47,163.61 255.27,163.61" stroke="#222222" stroke-width="1.6" fill="white"/></g><g><title>C7 CDD step=64</title><polygon points="392.99,231.25 395.09,227.55 399.29,227.55 401.39,231.25 399.29,234.95 395.09,234.95" stroke="#222222" stroke-width="1.6" fill="white"/></g><g><title>C7 CDD step=64</title><polygon points="532.80,303.05 534.90,299.35 539.10,299.35 541.20,303.05 539.10,306.75 534.90,306.75" stroke="#222222" stroke-width="1.6" fill="white"/></g><g><title>C7 CDD step=64</title><polygon points="672.61,369.83 674.71,366.13 678.91,366.13 681.01,369.83 678.91,373.53 674.71,373.53" stroke="#222222" stroke-width="1.6" fill="white"/></g><g><title>C7 CDD step=64</title><polygon points="812.43,427.08 814.53,423.38 818.73,423.38 820.83,427.08 818.73,430.78 814.53,430.78" stroke="#222222" stroke-width="1.6" fill="white"/></g><g><title>C7 CDD step=64</title><polygon points="952.24,469.91 954.34,466.21 958.54,466.21 960.64,469.91 958.54,473.61 954.34,473.61" stroke="#222222" stroke-width="1.6" fill="white"/></g><polyline points="117.56,96.14 257.37,159.91 397.19,231.25 537.00,303.05 676.81,369.83 816.63,427.08 956.44,469.91" fill="none" stroke="#222222" stroke-width="2.1" stroke-dasharray="5 3"/><g><title>N3 NS-A0503-M1_2_3_64-LR00-S537649365</title><circle cx="117.56" cy="106.31" r="4" stroke="#A0006D" stroke-width="1.6" fill="#A0006D"/></g><g><title>N3 NS-A0503-M1_2_3_64-LR00-S537649365</title><circle cx="257.37" cy="165.77" r="4" stroke="#A0006D" stroke-width="1.6" fill="#A0006D"/></g><g><title>N3 NS-A0503-M1_2_3_64-LR00-S537649365</title><circle cx="397.19" cy="232.60" r="4" stroke="#A0006D" stroke-width="1.6" fill="#A0006D"/></g><g><title>N3 NS-A0503-M1_2_3_64-LR00-S537649365</title><circle cx="537.00" cy="302.65" r="4" stroke="#A0006D" stroke-width="1.6" fill="#A0006D"/></g><g><title>N3 NS-A0503-M1_2_3_64-LR00-S537649365</title><circle cx="676.81" cy="371.74" r="4" stroke="#A0006D" stroke-width="1.6" fill="#A0006D"/></g><g><title>N3 NS-A0503-M1_2_3_64-LR00-S537649365</title><circle cx="816.63" cy="437.88" r="4" stroke="#A0006D" stroke-width="1.6" fill="#A0006D"/></g><g><title>N3 NS-A0503-M1_2_3_64-LR00-S537649365</title><circle cx="956.44" cy="500.34" r="4" stroke="#A0006D" stroke-width="1.6" fill="#A0006D"/></g><polyline points="117.56,106.31 257.37,165.77 397.19,232.60 537.00,302.65 676.81,371.74 816.63,437.88 956.44,500.34" fill="none" stroke="#A0006D" stroke-width="2.1"/><g><title>N6 NS-A0501-M1_3_4_64-LR00-S537649103</title><rect x="113.76" y="113.25" width="7.6" height="7.6" stroke="#7A3E00" stroke-width="1.6" fill="#7A3E00"/></g><g><title>N6 NS-A0501-M1_3_4_64-LR00-S537649103</title><rect x="253.57" y="172.44" width="7.6" height="7.6" stroke="#7A3E00" stroke-width="1.6" fill="#7A3E00"/></g><g><title>N6 NS-A0501-M1_3_4_64-LR00-S537649103</title><rect x="393.39" y="238.65" width="7.6" height="7.6" stroke="#7A3E00" stroke-width="1.6" fill="#7A3E00"/></g><g><title>N6 NS-A0501-M1_3_4_64-LR00-S537649103</title><rect x="533.20" y="308.08" width="7.6" height="7.6" stroke="#7A3E00" stroke-width="1.6" fill="#7A3E00"/></g><g><title>N6 NS-A0501-M1_3_4_64-LR00-S537649103</title><rect x="673.01" y="376.40" width="7.6" height="7.6" stroke="#7A3E00" stroke-width="1.6" fill="#7A3E00"/></g><g><title>N6 NS-A0501-M1_3_4_64-LR00-S537649103</title><rect x="812.83" y="440.89" width="7.6" height="7.6" stroke="#7A3E00" stroke-width="1.6" fill="#7A3E00"/></g><g><title>N6 NS-A0501-M1_3_4_64-LR00-S537649103</title><rect x="952.64" y="500.72" width="7.6" height="7.6" stroke="#7A3E00" stroke-width="1.6" fill="#7A3E00"/></g><polyline points="117.56,117.05 257.37,176.24 397.19,242.45 537.00,311.88 676.81,380.20 816.63,444.69 956.44,504.52" fill="none" stroke="#7A3E00" stroke-width="2.1"/><g><title>N8 NS-A0494-M3_4_6_64-LR00-S535555854</title><polygon points="117.56,105.87 113.26,114.07 121.86,114.07" stroke="#117733" stroke-width="1.6" fill="#117733"/></g><g><title>N8 NS-A0494-M3_4_6_64-LR00-S535555854</title><polygon points="257.37,160.76 253.07,168.96 261.67,168.96" stroke="#117733" stroke-width="1.6" fill="#117733"/></g><g><title>N8 NS-A0494-M3_4_6_64-LR00-S535555854</title><polygon points="397.19,214.37 392.89,222.57 401.49,222.57" stroke="#117733" stroke-width="1.6" fill="#117733"/></g><g><title>N8 NS-A0494-M3_4_6_64-LR00-S535555854</title><polygon points="537.00,258.91 532.70,267.11 541.30,267.11" stroke="#117733" stroke-width="1.6" fill="#117733"/></g><g><title>N8 NS-A0494-M3_4_6_64-LR00-S535555854</title><polygon points="676.81,290.34 672.51,298.54 681.11,298.54" stroke="#117733" stroke-width="1.6" fill="#117733"/></g><g><title>N8 NS-A0494-M3_4_6_64-LR00-S535555854</title><polygon points="816.63,310.72 812.33,318.92 820.93,318.92" stroke="#117733" stroke-width="1.6" fill="#117733"/></g><g><title>N8 NS-A0494-M3_4_6_64-LR00-S535555854</title><polygon points="956.44,325.76 952.14,333.96 960.74,333.96" stroke="#117733" stroke-width="1.6" fill="#117733"/></g><polyline points="117.56,110.47 257.37,165.36 397.19,218.97 537.00,263.51 676.81,294.94 816.63,315.32 956.44,330.36" fill="none" stroke="#117733" stroke-width="2.1"/><g><title>N23 NS-A0330-M1_4_6_48-LC</title><polygon points="117.56,102.30 113.06,106.80 117.56,111.30 122.06,106.80" stroke="#332288" stroke-width="1.6" fill="#332288"/></g><g><title>N23 NS-A0330-M1_4_6_48-LC</title><polygon points="257.37,161.43 252.87,165.93 257.37,170.43 261.87,165.93" stroke="#332288" stroke-width="1.6" fill="#332288"/></g><g><title>N23 NS-A0330-M1_4_6_48-LC</title><polygon points="397.19,230.31 392.69,234.81 397.19,239.31 401.69,234.81" stroke="#332288" stroke-width="1.6" fill="#332288"/></g><g><title>N23 NS-A0330-M1_4_6_48-LC</title><polygon points="537.00,303.75 532.50,308.25 537.00,312.75 541.50,308.25" stroke="#332288" stroke-width="1.6" fill="#332288"/></g><g><title>N23 NS-A0330-M1_4_6_48-LC</title><polygon points="676.81,376.73 672.31,381.23 676.81,385.73 681.31,381.23" stroke="#332288" stroke-width="1.6" fill="#332288"/></g><g><title>N23 NS-A0330-M1_4_6_48-LC</title><polygon points="816.63,447.04 812.13,451.54 816.63,456.04 821.13,451.54" stroke="#332288" stroke-width="1.6" fill="#332288"/></g><g><title>N23 NS-A0330-M1_4_6_48-LC</title><polygon points="956.44,515.60 951.94,520.10 956.44,524.60 960.94,520.10" stroke="#332288" stroke-width="1.6" fill="#332288"/></g><polyline points="117.56,106.80 257.37,165.93 397.19,234.81 537.00,308.25 676.81,381.23 816.63,451.54 956.44,520.10" fill="none" stroke="#332288" stroke-width="2.1"/>
<line x1="1016" y1="74.00" x2="1034" y2="74.00" stroke="#0072B2" stroke-width="2" stroke-dasharray="5 3"/><g><title>C0</title><circle cx="1025.00" cy="74.00" r="4" stroke="#0072B2" stroke-width="1.6" fill="white"/></g><text x="1040" y="78.00" font-size="11">C0</text><line x1="1016" y1="92.00" x2="1034" y2="92.00" stroke="#D55E00" stroke-width="2" stroke-dasharray="5 3"/><g><title>C1</title><rect x="1021.20" y="88.20" width="7.6" height="7.6" stroke="#D55E00" stroke-width="1.6" fill="white"/></g><text x="1040" y="96.00" font-size="11">C1</text><line x1="1016" y1="110.00" x2="1034" y2="110.00" stroke="#009E73" stroke-width="2" stroke-dasharray="5 3"/><g><title>C2</title><polygon points="1025.00,105.40 1020.70,113.60 1029.30,113.60" stroke="#009E73" stroke-width="1.6" fill="white"/></g><text x="1040" y="114.00" font-size="11">C2</text><line x1="1016" y1="128.00" x2="1034" y2="128.00" stroke="#CC79A7" stroke-width="2" stroke-dasharray="5 3"/><g><title>C3</title><polygon points="1025.00,123.50 1020.50,128.00 1025.00,132.50 1029.50,128.00" stroke="#CC79A7" stroke-width="1.6" fill="white"/></g><text x="1040" y="132.00" font-size="11">C3</text><line x1="1016" y1="146.00" x2="1034" y2="146.00" stroke="#E69F00" stroke-width="2" stroke-dasharray="5 3"/><g><title>C4</title><polygon points="1020.70,142.40 1029.30,142.40 1025.00,150.60" stroke="#E69F00" stroke-width="1.6" fill="white"/></g><text x="1040" y="150.00" font-size="11">C4</text><line x1="1016" y1="164.00" x2="1034" y2="164.00" stroke="#56B4E9" stroke-width="2" stroke-dasharray="5 3"/><g><title>C5</title><path d="M 1021.00 164.00 H 1029.00 M 1025.00 160.00 V 168.00" stroke="#56B4E9" stroke-width="2" fill="none"/></g><text x="1040" y="168.00" font-size="11">C5</text><line x1="1016" y1="182.00" x2="1034" y2="182.00" stroke="#6F4E7C" stroke-width="2" stroke-dasharray="5 3"/><g><title>C6</title><path d="M 1021.50 178.50 L 1028.50 185.50 M 1028.50 178.50 L 1021.50 185.50" stroke="#6F4E7C" stroke-width="2" fill="none"/></g><text x="1040" y="186.00" font-size="11">C6</text><line x1="1016" y1="200.00" x2="1034" y2="200.00" stroke="#222222" stroke-width="2" stroke-dasharray="5 3"/><g><title>C7</title><polygon points="1020.80,200.00 1022.90,196.30 1027.10,196.30 1029.20,200.00 1027.10,203.70 1022.90,203.70" stroke="#222222" stroke-width="1.6" fill="white"/></g><text x="1040" y="204.00" font-size="11">C7</text><line x1="1016" y1="218.00" x2="1034" y2="218.00" stroke="#A0006D" stroke-width="2"/><g><title>N3</title><circle cx="1025.00" cy="218.00" r="4" stroke="#A0006D" stroke-width="1.6" fill="#A0006D"/></g><text x="1040" y="222.00" font-size="11">N3</text><line x1="1016" y1="236.00" x2="1034" y2="236.00" stroke="#7A3E00" stroke-width="2"/><g><title>N6</title><rect x="1021.20" y="232.20" width="7.6" height="7.6" stroke="#7A3E00" stroke-width="1.6" fill="#7A3E00"/></g><text x="1040" y="240.00" font-size="11">N6</text><line x1="1016" y1="254.00" x2="1034" y2="254.00" stroke="#117733" stroke-width="2"/><g><title>N8</title><polygon points="1025.00,249.40 1020.70,257.60 1029.30,257.60" stroke="#117733" stroke-width="1.6" fill="#117733"/></g><text x="1040" y="258.00" font-size="11">N8</text><line x1="1016" y1="272.00" x2="1034" y2="272.00" stroke="#332288" stroke-width="2"/><g><title>N23</title><polygon points="1025.00,267.50 1020.50,272.00 1025.00,276.50 1029.50,272.00" stroke="#332288" stroke-width="1.6" fill="#332288"/></g><text x="1040" y="276.00" font-size="11">N23</text>
<text x="537.0" y="694" text-anchor="middle" font-size="14">SNR (dB)</text>
<text x="22" y="347.0" text-anchor="middle" font-size="14" transform="rotate(-90 22 347.0)">NMSE (log scale)</text>
<text x="1016" y="692" font-size="11" fill="#555">dashed: CDD, solid: piecewise</text>
</svg>
