<svg xmlns="http://www.w3.org/2000/svg" width="1060" height="660" viewBox="0 0 1060 660">
<rect width="100%" height="100%" fill="white"/>
<text x="530.0" y="28" text-anchor="middle" font-size="18" font-family="Arial, sans-serif">Piecewise-linear Pareto Alg1 NMSE</text>
<line x1="78" y1="582" x2="934" y2="582" stroke="#333" stroke-width="1.2"/>
<line x1="78" y1="54" x2="78" y2="582" stroke="#333" stroke-width="1.2"/>
<line x1="78.00" y1="54" x2="78.00" y2="582" stroke="#e6e8eb"/><text x="78.00" y="606" font-size="12" text-anchor="middle">12.9</text><line x1="249.20" y1="54" x2="249.20" y2="582" stroke="#e6e8eb"/><text x="249.20" y="606" font-size="12" text-anchor="middle">13.4</text><line x1="420.40" y1="54" x2="420.40" y2="582" stroke="#e6e8eb"/><text x="420.40" y="606" font-size="12" text-anchor="middle">13.8</text><line x1="591.60" y1="54" x2="591.60" y2="582" stroke="#e6e8eb"/><text x="591.60" y="606" font-size="12" text-anchor="middle">14.2</text><line x1="762.80" y1="54" x2="762.80" y2="582" stroke="#e6e8eb"/><text x="762.80" y="606" font-size="12" text-anchor="middle">14.6</text><line x1="934.00" y1="54" x2="934.00" y2="582" stroke="#e6e8eb"/><text x="934.00" y="606" font-size="12" text-anchor="middle">15.1</text><line x1="78" y1="582.00" x2="934" y2="582.00" stroke="#e6e8eb"/><text x="70" y="586.00" font-size="12" text-anchor="end">0.000266</text><line x1="78" y1="476.40" x2="934" y2="476.40" stroke="#e6e8eb"/><text x="70" y="480.40" font-size="12" text-anchor="end">0.000449</text><line x1="78" y1="370.80" x2="934" y2="370.80" stroke="#e6e8eb"/><text x="70" y="374.80" font-size="12" text-anchor="end">0.000761</text><line x1="78" y1="265.20" x2="934" y2="265.20" stroke="#e6e8eb"/><text x="70" y="269.20" font-size="12" text-anchor="end">0.00129</text><line x1="78" y1="159.60" x2="934" y2="159.60" stroke="#e6e8eb"/><text x="70" y="163.60" font-size="12" text-anchor="end">0.00218</text><line x1="78" y1="54.00" x2="934" y2="54.00" stroke="#e6e8eb"/><text x="70" y="58.00" font-size="12" text-anchor="end">0.00369</text>
<circle cx="506.00" cy="482.41" r="3.6" fill="#26547c"><title>P1 PW cont random slope=4 #938</title></circle><polyline points="506.00,482.41" fill="none" stroke="#26547c" stroke-width="1.7"/><text x="511.00" y="486.41" font-size="10" fill="#26547c" font-weight="700">P1</text><circle cx="506.00" cy="534.09" r="3.6" fill="#ef476f"><title>P2 PW cont random slope=4 #939</title></circle><polyline points="506.00,534.09" fill="none" stroke="#ef476f" stroke-width="1.7"/><text x="511.00" y="538.09" font-size="10" fill="#ef476f" font-weight="700">P2</text><circle cx="506.00" cy="545.59" r="3.6" fill="#06a77d"><title>P3 PW cont random slope=4 #940</title></circle><polyline points="506.00,545.59" fill="none" stroke="#06a77d" stroke-width="1.7"/><text x="511.00" y="549.59" font-size="10" fill="#06a77d" font-weight="700">P3</text><circle cx="506.00" cy="434.05" r="3.6" fill="#7b2cbf"><title>P4 PW cont cyclic slope=4</title></circle><polyline points="506.00,434.05" fill="none" stroke="#7b2cbf" stroke-width="1.7"/><text x="511.00" y="438.05" font-size="10" fill="#7b2cbf" font-weight="700">P4</text><circle cx="506.00" cy="306.17" r="3.6" fill="#f77f00"><title>P5 PW cont random slope=6 #201</title></circle><polyline points="506.00,306.17" fill="none" stroke="#f77f00" stroke-width="1.7"/><text x="511.00" y="310.17" font-size="10" fill="#f77f00" font-weight="700">P5</text><circle cx="506.00" cy="393.78" r="3.6" fill="#118ab2"><title>P6 PW cont cyclic slope=6</title></circle><polyline points="506.00,393.78" fill="none" stroke="#118ab2" stroke-width="1.7"/><text x="511.00" y="397.78" font-size="10" fill="#118ab2" font-weight="700">P6</text><circle cx="506.00" cy="310.11" r="3.6" fill="#9d4edd"><title>P7 PW cont cyclic slope=8</title></circle><polyline points="506.00,310.11" fill="none" stroke="#9d4edd" stroke-width="1.7"/><text x="511.00" y="314.11" font-size="10" fill="#9d4edd" font-weight="700">P7</text><circle cx="506.00" cy="231.84" r="3.6" fill="#2a9d8f"><title>P8 PW cont cyclic slope=16</title></circle><polyline points="506.00,231.84" fill="none" stroke="#2a9d8f" stroke-width="1.7"/><text x="511.00" y="235.84" font-size="10" fill="#2a9d8f" font-weight="700">P8</text><circle cx="506.00" cy="215.99" r="3.6" fill="#d62828"><title>P9 PW cont cyclic slope=24</title></circle><polyline points="506.00,215.99" fill="none" stroke="#d62828" stroke-width="1.7"/><text x="511.00" y="219.99" font-size="10" fill="#d62828" font-weight="700">P9</text><circle cx="506.00" cy="159.28" r="3.6" fill="#6a994e"><title>P10 PW cont cyclic slope=32</title></circle><polyline points="506.00,159.28" fill="none" stroke="#6a994e" stroke-width="1.7"/><text x="511.00" y="163.28" font-size="10" fill="#6a994e" font-weight="700">P10</text><circle cx="506.00" cy="187.14" r="3.6" fill="#003049"><title>P11 PW cont cyclic slope=48</title></circle><polyline points="506.00,187.14" fill="none" stroke="#003049" stroke-width="1.7"/><text x="511.00" y="191.14" font-size="10" fill="#003049" font-weight="700">P11</text><circle cx="506.00" cy="90.41" r="3.6" fill="#bc6c25"><title>P12 PW cont cyclic slope=64</title></circle><polyline points="506.00,90.41" fill="none" stroke="#bc6c25" stroke-width="1.7"/><text x="511.00" y="94.41" font-size="10" fill="#bc6c25" font-weight="700">P12</text>
<line x1="952" y1="72.00" x2="968" y2="72.00" stroke="#26547c" stroke-width="2"/><text x="972" y="76.00" font-size="11">P1</text><line x1="952" y1="90.00" x2="968" y2="90.00" stroke="#ef476f" stroke-width="2"/><text x="972" y="94.00" font-size="11">P2</text><line x1="952" y1="108.00" x2="968" y2="108.00" stroke="#06a77d" stroke-width="2"/><text x="972" y="112.00" font-size="11">P3</text><line x1="952" y1="126.00" x2="968" y2="126.00" stroke="#7b2cbf" stroke-width="2"/><text x="972" y="130.00" font-size="11">P4</text><line x1="952" y1="144.00" x2="968" y2="144.00" stroke="#f77f00" stroke-width="2"/><text x="972" y="148.00" font-size="11">P5</text><line x1="952" y1="162.00" x2="968" y2="162.00" stroke="#118ab2" stroke-width="2"/><text x="972" y="166.00" font-size="11">P6</text><line x1="952" y1="180.00" x2="968" y2="180.00" stroke="#9d4edd" stroke-width="2"/><text x="972" y="184.00" font-size="11">P7</text><line x1="952" y1="198.00" x2="968" y2="198.00" stroke="#2a9d8f" stroke-width="2"/><text x="972" y="202.00" font-size="11">P8</text><line x1="952" y1="216.00" x2="968" y2="216.00" stroke="#d62828" stroke-width="2"/><text x="972" y="220.00" font-size="11">P9</text><line x1="952" y1="234.00" x2="968" y2="234.00" stroke="#6a994e" stroke-width="2"/><text x="972" y="238.00" font-size="11">P10</text><line x1="952" y1="252.00" x2="968" y2="252.00" stroke="#003049" stroke-width="2"/><text x="972" y="256.00" font-size="11">P11</text><line x1="952" y1="270.00" x2="968" y2="270.00" stroke="#bc6c25" stroke-width="2"/><text x="972" y="274.00" font-size="11">P12</text>
<text x="506.0" y="636" text-anchor="middle" font-size="14">SNR (dB)</text>
<text x="20" y="318.0" text-anchor="middle" font-size="14" transform="rotate(-90 20 318.0)">NMSE</text>
</svg>
