<svg xmlns="http://www.w3.org/2000/svg" width="1060" height="660" viewBox="0 0 1060 660">
<rect width="100%" height="100%" fill="white"/>
<text x="530.0" y="28" text-anchor="middle" font-size="18" font-family="Arial, sans-serif">CDD Pareto Alg1 NMSE</text>
<line x1="78" y1="582" x2="934" y2="582" stroke="#333" stroke-width="1.2"/>
<line x1="78" y1="54" x2="78" y2="582" stroke="#333" stroke-width="1.2"/>
<line x1="78.00" y1="54" x2="78.00" y2="582" stroke="#e6e8eb"/><text x="78.00" y="606" font-size="12" text-anchor="middle">12.9</text><line x1="249.20" y1="54" x2="249.20" y2="582" stroke="#e6e8eb"/><text x="249.20" y="606" font-size="12" text-anchor="middle">13.4</text><line x1="420.40" y1="54" x2="420.40" y2="582" stroke="#e6e8eb"/><text x="420.40" y="606" font-size="12" text-anchor="middle">13.8</text><line x1="591.60" y1="54" x2="591.60" y2="582" stroke="#e6e8eb"/><text x="591.60" y="606" font-size="12" text-anchor="middle">14.2</text><line x1="762.80" y1="54" x2="762.80" y2="582" stroke="#e6e8eb"/><text x="762.80" y="606" font-size="12" text-anchor="middle">14.6</text><line x1="934.00" y1="54" x2="934.00" y2="582" stroke="#e6e8eb"/><text x="934.00" y="606" font-size="12" text-anchor="middle">15.1</text><line x1="78" y1="582.00" x2="934" y2="582.00" stroke="#e6e8eb"/><text x="70" y="586.00" font-size="12" text-anchor="end">0.000138</text><line x1="78" y1="476.40" x2="934" y2="476.40" stroke="#e6e8eb"/><text x="70" y="480.40" font-size="12" text-anchor="end">0.000263</text><line x1="78" y1="370.80" x2="934" y2="370.80" stroke="#e6e8eb"/><text x="70" y="374.80" font-size="12" text-anchor="end">0.000501</text><line x1="78" y1="265.20" x2="934" y2="265.20" stroke="#e6e8eb"/><text x="70" y="269.20" font-size="12" text-anchor="end">0.000953</text><line x1="78" y1="159.60" x2="934" y2="159.60" stroke="#e6e8eb"/><text x="70" y="163.60" font-size="12" text-anchor="end">0.00181</text><line x1="78" y1="54.00" x2="934" y2="54.00" stroke="#e6e8eb"/><text x="70" y="58.00" font-size="12" text-anchor="end">0.00345</text>
<circle cx="506.00" cy="545.59" r="3.6" fill="#26547c"><title>C1 CDD step=2</title></circle><polyline points="506.00,545.59" fill="none" stroke="#26547c" stroke-width="1.7"/><text x="511.00" y="549.59" font-size="10" fill="#26547c" font-weight="700">C1</text><circle cx="506.00" cy="484.08" r="3.6" fill="#ef476f"><title>C2 CDD step=3</title></circle><polyline points="506.00,484.08" fill="none" stroke="#ef476f" stroke-width="1.7"/><text x="511.00" y="488.08" font-size="10" fill="#ef476f" font-weight="700">C2</text><circle cx="506.00" cy="405.37" r="3.6" fill="#06a77d"><title>C3 CDD step=4</title></circle><polyline points="506.00,405.37" fill="none" stroke="#06a77d" stroke-width="1.7"/><text x="511.00" y="409.37" font-size="10" fill="#06a77d" font-weight="700">C3</text><circle cx="506.00" cy="305.74" r="3.6" fill="#7b2cbf"><title>C4 CDD step=5</title></circle><polyline points="506.00,305.74" fill="none" stroke="#7b2cbf" stroke-width="1.7"/><text x="511.00" y="309.74" font-size="10" fill="#7b2cbf" font-weight="700">C4</text><circle cx="506.00" cy="322.71" r="3.6" fill="#f77f00"><title>C5 CDD step=6</title></circle><polyline points="506.00,322.71" fill="none" stroke="#f77f00" stroke-width="1.7"/><text x="511.00" y="326.71" font-size="10" fill="#f77f00" font-weight="700">C5</text><circle cx="506.00" cy="282.32" r="3.6" fill="#118ab2"><title>C6 CDD step=7</title></circle><polyline points="506.00,282.32" fill="none" stroke="#118ab2" stroke-width="1.7"/><text x="511.00" y="286.32" font-size="10" fill="#118ab2" font-weight="700">C6</text><circle cx="506.00" cy="90.41" r="3.6" fill="#9d4edd"><title>C7 CDD step=64</title></circle><polyline points="506.00,90.41" fill="none" stroke="#9d4edd" stroke-width="1.7"/><text x="511.00" y="94.41" font-size="10" fill="#9d4edd" font-weight="700">C7</text>
<line x1="952" y1="72.00" x2="968" y2="72.00" stroke="#26547c" stroke-width="2"/><text x="972" y="76.00" font-size="11">C1</text><line x1="952" y1="90.00" x2="968" y2="90.00" stroke="#ef476f" stroke-width="2"/><text x="972" y="94.00" font-size="11">C2</text><line x1="952" y1="108.00" x2="968" y2="108.00" stroke="#06a77d" stroke-width="2"/><text x="972" y="112.00" font-size="11">C3</text><line x1="952" y1="126.00" x2="968" y2="126.00" stroke="#7b2cbf" stroke-width="2"/><text x="972" y="130.00" font-size="11">C4</text><line x1="952" y1="144.00" x2="968" y2="144.00" stroke="#f77f00" stroke-width="2"/><text x="972" y="148.00" font-size="11">C5</text><line x1="952" y1="162.00" x2="968" y2="162.00" stroke="#118ab2" stroke-width="2"/><text x="972" y="166.00" font-size="11">C6</text><line x1="952" y1="180.00" x2="968" y2="180.00" stroke="#9d4edd" stroke-width="2"/><text x="972" y="184.00" font-size="11">C7</text>
<text x="506.0" y="636" text-anchor="middle" font-size="14">SNR (dB)</text>
<text x="20" y="318.0" text-anchor="middle" font-size="14" transform="rotate(-90 20 318.0)">NMSE</text>
</svg>
