<svg xmlns="http://www.w3.org/2000/svg" width="1240" height="720" viewBox="0 0 1240 720">
<rect width="100%" height="100%" fill="white"/>
<text x="620.0" y="30" text-anchor="middle" font-size="18" font-family="Arial, sans-serif">Ideal-CSI BLER, 24 PRB, interleaver=none</text>
<line x1="84" y1="638" x2="990" y2="638" stroke="#333" stroke-width="1.2"/>
<line x1="84" y1="56" x2="84" y2="638" stroke="#333" stroke-width="1.2"/>
<line x1="117.56" y1="56" x2="117.56" y2="638" stroke="#e6e8eb"/><text x="117.56" y="662" font-size="12" text-anchor="middle">22</text><line x1="285.33" y1="56" x2="285.33" y2="638" stroke="#e6e8eb"/><text x="285.33" y="662" font-size="12" text-anchor="middle">24</text><line x1="453.11" y1="56" x2="453.11" y2="638" stroke="#e6e8eb"/><text x="453.11" y="662" font-size="12" text-anchor="middle">26</text><line x1="620.89" y1="56" x2="620.89" y2="638" stroke="#e6e8eb"/><text x="620.89" y="662" font-size="12" text-anchor="middle">28</text><line x1="788.67" y1="56" x2="788.67" y2="638" stroke="#e6e8eb"/><text x="788.67" y="662" font-size="12" text-anchor="middle">30</text><line x1="956.44" y1="56" x2="956.44" y2="638" stroke="#e6e8eb"/><text x="956.44" y="662" font-size="12" text-anchor="middle">32</text><line x1="84" y1="623.41" x2="990" y2="623.41" stroke="#d9dde2"/><text x="76" y="627.41" font-size="12" text-anchor="end">1e-3</text><line x1="84" y1="359.77" x2="990" y2="359.77" stroke="#d9dde2"/><text x="76" y="363.77" font-size="12" text-anchor="end">1e-2</text><line x1="84" y1="96.14" x2="990" y2="96.14" stroke="#d9dde2"/><text x="76" y="100.14" font-size="12" text-anchor="end">1e-1</text><line x1="84" y1="544.05" x2="990" y2="544.05" stroke="#eef0f2"/><line x1="84" y1="439.14" x2="990" y2="439.14" stroke="#eef0f2"/><line x1="84" y1="280.41" x2="990" y2="280.41" stroke="#eef0f2"/><line x1="84" y1="175.50" x2="990" y2="175.50" stroke="#eef0f2"/>
<line x1="84" y1="96.14" x2="990" y2="96.14" stroke="#111" stroke-width="1" stroke-dasharray="5 4"/><text x="998" y="100.14" font-size="11" fill="#111">0.1</text><line x1="84" y1="359.77" x2="990" y2="359.77" stroke="#111" stroke-width="1" stroke-dasharray="5 4"/><text x="998" y="363.77" font-size="11" fill="#111">0.01</text><g><title>C0 CDD step=1</title><circle cx="117.56" cy="243.95" r="4" stroke="#0072B2" stroke-width="1.6" fill="white"/></g><g><title>C0 CDD step=1</title><circle cx="285.33" cy="313.35" r="4" stroke="#0072B2" stroke-width="1.6" fill="white"/></g><g><title>C0 CDD step=1</title><circle cx="453.11" cy="439.14" r="4" stroke="#0072B2" stroke-width="1.6" fill="white"/></g><g><title>C0 CDD step=1</title><circle cx="620.89" cy="518.50" r="4" stroke="#0072B2" stroke-width="1.6" fill="white"/></g><g><title>C0 CDD step=1</title><circle cx="788.67" cy="518.50" r="4" stroke="#0072B2" stroke-width="1.6" fill="white"/></g><g><title>C0 CDD step=1</title><circle cx="956.44" cy="597.86" r="4" stroke="#0072B2" stroke-width="1.6" fill="white"/></g><polyline points="117.56,243.95 285.33,313.35 453.11,439.14 620.89,518.50 788.67,518.50 956.44,597.86" fill="none" stroke="#0072B2" stroke-width="2.1" stroke-dasharray="5 3"/><g><title>C1 CDD step=2</title><rect x="113.76" y="291.90" width="7.6" height="7.6" stroke="#D55E00" stroke-width="1.6" fill="white"/></g><g><title>C1 CDD step=2</title><rect x="281.53" y="355.97" width="7.6" height="7.6" stroke="#D55E00" stroke-width="1.6" fill="white"/></g><g><title>C1 CDD step=2</title><rect x="449.31" y="435.34" width="7.6" height="7.6" stroke="#D55E00" stroke-width="1.6" fill="white"/></g><g><title>C1 CDD step=2</title><rect x="617.09" y="514.70" width="7.6" height="7.6" stroke="#D55E00" stroke-width="1.6" fill="white"/></g><g><title>C1 CDD step=2</title><rect x="784.87" y="594.06" width="7.6" height="7.6" stroke="#D55E00" stroke-width="1.6" fill="white"/></g><g><title>C1 CDD step=2</title><rect x="952.64" y="594.06" width="7.6" height="7.6" stroke="#D55E00" stroke-width="1.6" fill="white"/></g><polyline points="117.56,295.70 285.33,359.77 453.11,439.14 620.89,518.50 788.67,597.86 956.44,597.86" fill="none" stroke="#D55E00" stroke-width="2.1" stroke-dasharray="5 3"/><g><title>C2 CDD step=3</title><polygon points="117.56,308.75 113.26,316.95 121.86,316.95" stroke="#009E73" stroke-width="1.6" fill="white"/></g><g><title>C2 CDD step=3</title><polygon points="285.33,434.54 281.03,442.74 289.63,442.74" stroke="#009E73" stroke-width="1.6" fill="white"/></g><g><title>C2 CDD step=3</title><polygon points="453.11,593.26 448.81,601.46 457.41,601.46" stroke="#009E73" stroke-width="1.6" fill="white"/></g><g><title>C2 CDD step=3</title><polygon points="620.89,593.26 616.59,601.46 625.19,601.46" stroke="#009E73" stroke-width="1.6" fill="white"/></g><g><title>C2 CDD step=3</title><polygon points="788.67,593.26 784.37,601.46 792.97,601.46" stroke="#009E73" stroke-width="1.6" fill="white"/></g><g><title>C2 CDD step=3</title><polygon points="956.44,593.26 952.14,601.46 960.74,601.46" stroke="#009E73" stroke-width="1.6" fill="white"/></g><polyline points="117.56,313.35 285.33,439.14 453.11,597.86 620.89,597.86 788.67,597.86 956.44,597.86" fill="none" stroke="#009E73" stroke-width="2.1" stroke-dasharray="5 3"/><g><title>C3 CDD step=4</title><polygon points="117.56,434.64 113.06,439.14 117.56,443.64 122.06,439.14" stroke="#CC79A7" stroke-width="1.6" fill="white"/></g><g><title>C3 CDD step=4</title><polygon points="285.33,593.36 280.83,597.86 285.33,602.36 289.83,597.86" stroke="#CC79A7" stroke-width="1.6" fill="white"/></g><g><title>C3 CDD step=4</title><polygon points="453.11,593.36 448.61,597.86 453.11,602.36 457.61,597.86" stroke="#CC79A7" stroke-width="1.6" fill="white"/></g><g><title>C3 CDD step=4</title><polygon points="620.89,593.36 616.39,597.86 620.89,602.36 625.39,597.86" stroke="#CC79A7" stroke-width="1.6" fill="white"/></g><g><title>C3 CDD step=4</title><polygon points="788.67,593.36 784.17,597.86 788.67,602.36 793.17,597.86" stroke="#CC79A7" stroke-width="1.6" fill="white"/></g><g><title>C3 CDD step=4</title><polygon points="956.44,593.36 951.94,597.86 956.44,602.36 960.94,597.86" stroke="#CC79A7" stroke-width="1.6" fill="white"/></g><polyline points="117.56,439.14 285.33,597.86 453.11,597.86 620.89,597.86 788.67,597.86 956.44,597.86" fill="none" stroke="#CC79A7" stroke-width="2.1" stroke-dasharray="5 3"/><g><title>C4 CDD step=5</title><polygon points="113.26,514.90 121.86,514.90 117.56,523.10" stroke="#E69F00" stroke-width="1.6" fill="white"/></g><g><title>C4 CDD step=5</title><polygon points="281.03,594.26 289.63,594.26 285.33,602.46" stroke="#E69F00" stroke-width="1.6" fill="white"/></g><g><title>C4 CDD step=5</title><polygon points="448.81,594.26 457.41,594.26 453.11,602.46" stroke="#E69F00" stroke-width="1.6" fill="white"/></g><g><title>C4 CDD step=5</title><polygon points="616.59,594.26 625.19,594.26 620.89,602.46" stroke="#E69F00" stroke-width="1.6" fill="white"/></g><g><title>C4 CDD step=5</title><polygon points="784.37,594.26 792.97,594.26 788.67,602.46" stroke="#E69F00" stroke-width="1.6" fill="white"/></g><g><title>C4 CDD step=5</title><polygon points="952.14,594.26 960.74,594.26 956.44,602.46" stroke="#E69F00" stroke-width="1.6" fill="white"/></g><polyline points="117.56,518.50 285.33,597.86 453.11,597.86 620.89,597.86 788.67,597.86 956.44,597.86" fill="none" stroke="#E69F00" stroke-width="2.1" stroke-dasharray="5 3"/><line x1="117.56" y1="243.95" x2="163.57" y2="241.30" stroke="#0072B2" stroke-width="1.2"/><polygon points="169.56,240.95 163.74,244.29 163.39,238.30" fill="#0072B2"/><text x="175.56" y="243.95" font-size="11" fill="#0072B2" font-weight="700" paint-order="stroke" stroke="white" stroke-width="3">C0</text><line x1="117.56" y1="295.70" x2="163.57" y2="293.05" stroke="#D55E00" stroke-width="1.2"/><polygon points="169.56,292.70 163.74,296.04 163.39,290.05" fill="#D55E00"/><text x="175.56" y="295.70" font-size="11" fill="#D55E00" font-weight="700" paint-order="stroke" stroke="white" stroke-width="3">C1</text><line x1="117.56" y1="313.35" x2="163.57" y2="310.70" stroke="#009E73" stroke-width="1.2"/><polygon points="169.56,310.35 163.74,313.69 163.39,307.70" fill="#009E73"/><text x="175.56" y="313.35" font-size="11" fill="#009E73" font-weight="700" paint-order="stroke" stroke="white" stroke-width="3">C2</text><line x1="117.56" y1="439.14" x2="163.57" y2="436.48" stroke="#CC79A7" stroke-width="1.2"/><polygon points="169.56,436.14 163.74,439.48 163.39,433.49" fill="#CC79A7"/><text x="175.56" y="439.14" font-size="11" fill="#CC79A7" font-weight="700" paint-order="stroke" stroke="white" stroke-width="3">C3</text><line x1="117.56" y1="518.50" x2="163.57" y2="515.85" stroke="#E69F00" stroke-width="1.2"/><polygon points="169.56,515.50 163.74,518.84 163.39,512.85" fill="#E69F00"/><text x="175.56" y="518.50" font-size="11" fill="#E69F00" font-weight="700" paint-order="stroke" stroke="white" stroke-width="3">C4</text>
<line x1="1016" y1="74.00" x2="1034" y2="74.00" stroke="#0072B2" stroke-width="2" stroke-dasharray="5 3"/><g><title>C0</title><circle cx="1025.00" cy="74.00" r="4" stroke="#0072B2" stroke-width="1.6" fill="white"/></g><text x="1040" y="78.00" font-size="11">C0</text><line x1="1016" y1="92.00" x2="1034" y2="92.00" stroke="#D55E00" stroke-width="2" stroke-dasharray="5 3"/><g><title>C1</title><rect x="1021.20" y="88.20" width="7.6" height="7.6" stroke="#D55E00" stroke-width="1.6" fill="white"/></g><text x="1040" y="96.00" font-size="11">C1</text><line x1="1016" y1="110.00" x2="1034" y2="110.00" stroke="#009E73" stroke-width="2" stroke-dasharray="5 3"/><g><title>C2</title><polygon points="1025.00,105.40 1020.70,113.60 1029.30,113.60" stroke="#009E73" stroke-width="1.6" fill="white"/></g><text x="1040" y="114.00" font-size="11">C2</text><line x1="1016" y1="128.00" x2="1034" y2="128.00" stroke="#CC79A7" stroke-width="2" stroke-dasharray="5 3"/><g><title>C3</title><polygon points="1025.00,123.50 1020.50,128.00 1025.00,132.50 1029.50,128.00" stroke="#CC79A7" stroke-width="1.6" fill="white"/></g><text x="1040" y="132.00" font-size="11">C3</text><line x1="1016" y1="146.00" x2="1034" y2="146.00" stroke="#E69F00" stroke-width="2" stroke-dasharray="5 3"/><g><title>C4</title><polygon points="1020.70,142.40 1029.30,142.40 1025.00,150.60" stroke="#E69F00" stroke-width="1.6" fill="white"/></g><text x="1040" y="150.00" font-size="11">C4</text>
<text x="537.0" y="694" text-anchor="middle" font-size="14">SNR (dB)</text>
<text x="22" y="347.0" text-anchor="middle" font-size="14" transform="rotate(-90 22 347.0)">BLER</text>
<text x="1016" y="692" font-size="11" fill="#555">dashed: CDD, solid: piecewise</text>
</svg>
