<svg xmlns="http://www.w3.org/2000/svg" width="1240" height="720" viewBox="0 0 1240 720">
<rect width="100%" height="100%" fill="white"/>
<text x="620.0" y="30" text-anchor="middle" font-size="18" font-family="Arial, sans-serif">Matched RMMSE NMSE, 36 PRB</text>
<line x1="84" y1="638" x2="990" y2="638" stroke="#333" stroke-width="1.2"/>
<line x1="84" y1="56" x2="84" y2="638" stroke="#333" stroke-width="1.2"/>
<line x1="84.00" y1="56" x2="84.00" y2="638" stroke="#e6e8eb"/><text x="84.00" y="662" font-size="12" text-anchor="middle">-0.96</text><line x1="265.20" y1="56" x2="265.20" y2="638" stroke="#e6e8eb"/><text x="265.20" y="662" font-size="12" text-anchor="middle">4.22</text><line x1="446.40" y1="56" x2="446.40" y2="638" stroke="#e6e8eb"/><text x="446.40" y="662" font-size="12" text-anchor="middle">9.41</text><line x1="627.60" y1="56" x2="627.60" y2="638" stroke="#e6e8eb"/><text x="627.60" y="662" font-size="12" text-anchor="middle">14.6</text><line x1="808.80" y1="56" x2="808.80" y2="638" stroke="#e6e8eb"/><text x="808.80" y="662" font-size="12" text-anchor="middle">19.8</text><line x1="990.00" y1="56" x2="990.00" y2="638" stroke="#e6e8eb"/><text x="990.00" y="662" font-size="12" text-anchor="middle">25</text><line x1="84" y1="453.19" x2="990" y2="453.19" stroke="#d9dde2"/><text x="76" y="457.19" font-size="12" text-anchor="end">1e-2</text><line x1="84" y1="191.86" x2="990" y2="191.86" stroke="#d9dde2"/><text x="76" y="195.86" font-size="12" text-anchor="end">1e-1</text><line x1="84" y1="635.85" x2="990" y2="635.85" stroke="#eef0f2"/><line x1="84" y1="531.86" x2="990" y2="531.86" stroke="#eef0f2"/><line x1="84" y1="374.52" x2="990" y2="374.52" stroke="#eef0f2"/><line x1="84" y1="270.53" x2="990" y2="270.53" stroke="#eef0f2"/><line x1="84" y1="113.20" x2="990" y2="113.20" stroke="#eef0f2"/>
<circle cx="117.56" cy="96.14" r="3.2" fill="#0b3c5d"><title>C7 CDD step=64</title></circle><circle cx="257.37" cy="178.22" r="3.2" fill="#0b3c5d"><title>C7 CDD step=64</title></circle><circle cx="397.19" cy="262.70" r="3.2" fill="#0b3c5d"><title>C7 CDD step=64</title></circle><circle cx="537.00" cy="343.82" r="3.2" fill="#0b3c5d"><title>C7 CDD step=64</title></circle><circle cx="676.81" cy="423.58" r="3.2" fill="#0b3c5d"><title>C7 CDD step=64</title></circle><circle cx="816.63" cy="507.85" r="3.2" fill="#0b3c5d"><title>C7 CDD step=64</title></circle><circle cx="956.44" cy="597.86" r="3.2" fill="#0b3c5d"><title>C7 CDD step=64</title></circle><polyline points="117.56,96.14 257.37,178.22 397.19,262.70 537.00,343.82 676.81,423.58 816.63,507.85 956.44,597.86" fill="none" stroke="#0b3c5d" stroke-width="1.7" stroke-dasharray="5 3"/>
<line x1="1016" y1="74.00" x2="1034" y2="74.00" stroke="#0b3c5d" stroke-width="2" stroke-dasharray="5 3"/><text x="1040" y="78.00" font-size="11">C7</text>
<text x="537.0" y="694" text-anchor="middle" font-size="14">SNR (dB)</text>
<text x="22" y="347.0" text-anchor="middle" font-size="14" transform="rotate(-90 22 347.0)">NMSE (log scale)</text>
<text x="1016" y="692" font-size="11" fill="#555">dashed: CDD, solid: piecewise</text>
</svg>
