<svg xmlns="http://www.w3.org/2000/svg" width="1040" height="640" viewBox="0 0 1040 640">
<rect width="100%" height="100%" fill="white"/>
<text x="520.00" y="28" font-size="18" font-family="Arial, sans-serif" text-anchor="middle" fill="#111">8TX/1RX V-matrix diversity vs CE-coherence tradeoff</text>
<line x1="86" y1="558" x2="1012" y2="558" stroke="#333" stroke-width="1.2"/>
<line x1="86" y1="58" x2="86" y2="558" stroke="#333" stroke-width="1.2"/>
<line x1="86.00" y1="58" x2="86.00" y2="558" stroke="#e6e8eb" stroke-width="1"/>
<text x="86.00" y="582" font-size="12" text-anchor="middle" fill="#333">-7.18</text>
<line x1="271.20" y1="58" x2="271.20" y2="558" stroke="#e6e8eb" stroke-width="1"/>
<text x="271.20" y="582" font-size="12" text-anchor="middle" fill="#333">27.1</text>
<line x1="456.40" y1="58" x2="456.40" y2="558" stroke="#e6e8eb" stroke-width="1"/>
<text x="456.40" y="582" font-size="12" text-anchor="middle" fill="#333">61.4</text>
<line x1="641.60" y1="58" x2="641.60" y2="558" stroke="#e6e8eb" stroke-width="1"/>
<text x="641.60" y="582" font-size="12" text-anchor="middle" fill="#333">95.6</text>
<line x1="826.80" y1="58" x2="826.80" y2="558" stroke="#e6e8eb" stroke-width="1"/>
<text x="826.80" y="582" font-size="12" text-anchor="middle" fill="#333">130</text>
<line x1="1012.00" y1="58" x2="1012.00" y2="558" stroke="#e6e8eb" stroke-width="1"/>
<text x="1012.00" y="582" font-size="12" text-anchor="middle" fill="#333">164</text>
<line x1="86" y1="558.00" x2="1012" y2="558.00" stroke="#e6e8eb" stroke-width="1"/>
<text x="76" y="562.00" font-size="12" text-anchor="end" fill="#333">-27.7</text>
<line x1="86" y1="458.00" x2="1012" y2="458.00" stroke="#e6e8eb" stroke-width="1"/>
<text x="76" y="462.00" font-size="12" text-anchor="end" fill="#333">-21.9</text>
<line x1="86" y1="358.00" x2="1012" y2="358.00" stroke="#e6e8eb" stroke-width="1"/>
<text x="76" y="362.00" font-size="12" text-anchor="end" fill="#333">-16</text>
<line x1="86" y1="258.00" x2="1012" y2="258.00" stroke="#e6e8eb" stroke-width="1"/>
<text x="76" y="262.00" font-size="12" text-anchor="end" fill="#333">-10.2</text>
<line x1="86" y1="158.00" x2="1012" y2="158.00" stroke="#e6e8eb" stroke-width="1"/>
<text x="76" y="162.00" font-size="12" text-anchor="end" fill="#333">-4.29</text>
<line x1="86" y1="58.00" x2="1012" y2="58.00" stroke="#e6e8eb" stroke-width="1"/>
<text x="76" y="62.00" font-size="12" text-anchor="end" fill="#333">1.57</text>
<circle cx="962.39" cy="419.44" r="5.20" fill="#26547c" opacity="0.72"><title>CDD step=2</title></circle>
<circle cx="686.80" cy="270.64" r="5.20" fill="#26547c" opacity="0.72"><title>CDD step=3</title></circle>
<circle cx="546.30" cy="179.03" r="5.20" fill="#26547c" opacity="0.72"><title>CDD step=4</title></circle>
<circle cx="465.24" cy="123.06" r="5.20" fill="#26547c" opacity="0.72"><title>CDD step=5</title></circle>
<circle cx="405.80" cy="93.56" r="5.20" fill="#26547c" opacity="0.72"><title>CDD step=6</title></circle>
<circle cx="367.97" cy="84.84" r="5.20" fill="#26547c" opacity="0.72"><title>CDD step=7</title></circle>
<circle cx="335.55" cy="86.02" r="5.20" fill="#26547c" opacity="0.72"><title>CDD step=8</title></circle>
<circle cx="297.72" cy="87.53" r="5.20" fill="#26547c" opacity="0.72"><title>CDD step=10</title></circle>
<circle cx="265.30" cy="86.81" r="5.20" fill="#26547c" opacity="0.72"><title>CDD step=12</title></circle>
<circle cx="232.88" cy="85.51" r="5.20" fill="#26547c" opacity="0.72"><title>CDD step=16</title></circle>
<circle cx="195.05" cy="85.24" r="5.20" fill="#26547c" opacity="0.72"><title>CDD step=24</title></circle>
<circle cx="178.84" cy="85.07" r="5.20" fill="#26547c" opacity="0.72"><title>CDD step=32</title></circle>
<circle cx="162.63" cy="84.88" r="5.20" fill="#26547c" opacity="0.72"><title>CDD step=48</title></circle>
<circle cx="151.82" cy="84.79" r="5.20" fill="#26547c" opacity="0.72"><title>CDD step=64</title></circle>
<circle cx="146.41" cy="84.82" r="5.20" fill="#26547c" opacity="0.72"><title>CDD step=96</title></circle>
<circle cx="141.01" cy="84.79" r="5.20" fill="#26547c" opacity="0.72"><title>CDD step=128</title></circle>
<circle cx="135.61" cy="84.79" r="5.20" fill="#26547c" opacity="0.72"><title>CDD step=192</title></circle>
<circle cx="135.61" cy="84.79" r="5.20" fill="#26547c" opacity="0.72"><title>CDD step=256</title></circle>
<polygon points="621.95,123.71 616.75,134.11 627.15,134.11" fill="#06a77d" opacity="0.72"><title>PW cont cyclic slope=4</title></polygon>
<polygon points="767.86,156.29 762.66,166.69 773.06,166.69" fill="#06a77d" opacity="0.72"><title>PW cont random slope=4 #938</title></polygon>
<polygon points="730.03,148.74 724.83,159.14 735.23,159.14" fill="#06a77d" opacity="0.72"><title>PW cont random slope=4 #939</title></polygon>
<polygon points="692.20,145.94 687.00,156.34 697.40,156.34" fill="#06a77d" opacity="0.72"><title>PW cont random slope=4 #940</title></polygon>
<polygon points="438.22,93.14 433.02,103.54 443.42,103.54" fill="#06a77d" opacity="0.72"><title>PW cont cyclic slope=6</title></polygon>
<polygon points="459.84,118.91 454.64,129.31 465.04,129.31" fill="#06a77d" opacity="0.72"><title>PW cont random slope=6 #200</title></polygon>
<polygon points="470.64,118.84 465.44,129.24 475.84,129.24" fill="#06a77d" opacity="0.72"><title>PW cont random slope=6 #201</title></polygon>
<polygon points="438.22,120.32 433.02,130.72 443.42,130.72" fill="#06a77d" opacity="0.72"><title>PW cont random slope=6 #202</title></polygon>
<polygon points="351.76,81.40 346.56,91.80 356.96,91.80" fill="#06a77d" opacity="0.72"><title>PW cont cyclic slope=8</title></polygon>
<polygon points="357.16,103.68 351.96,114.08 362.36,114.08" fill="#06a77d" opacity="0.72"><title>PW cont random slope=8 #462</title></polygon>
<polygon points="357.16,105.15 351.96,115.55 362.36,115.55" fill="#06a77d" opacity="0.72"><title>PW cont random slope=8 #463</title></polygon>
<polygon points="367.97,110.45 362.77,120.85 373.17,120.85" fill="#06a77d" opacity="0.72"><title>PW cont random slope=8 #464</title></polygon>
<polygon points="270.70,83.39 265.50,93.79 275.90,93.79" fill="#06a77d" opacity="0.72"><title>PW cont cyclic slope=12</title></polygon>
<polygon points="297.72,526.01 292.52,536.41 302.92,536.41" fill="#06a77d" opacity="0.72"><title>PW cont zigzag slope=12</title></polygon>
<polygon points="276.11,95.97 270.91,106.37 281.31,106.37" fill="#06a77d" opacity="0.72"><title>PW cont random slope=12 #409</title></polygon>
<polygon points="276.11,97.27 270.91,107.67 281.31,107.67" fill="#06a77d" opacity="0.72"><title>PW cont random slope=12 #410</title></polygon>
<polygon points="276.11,91.84 270.91,102.24 281.31,102.24" fill="#06a77d" opacity="0.72"><title>PW cont random slope=12 #411</title></polygon>
<polygon points="238.28,80.31 233.08,90.71 243.48,90.71" fill="#06a77d" opacity="0.72"><title>PW cont cyclic slope=16</title></polygon>
<polygon points="243.68,413.43 238.48,423.83 248.88,423.83" fill="#06a77d" opacity="0.72"><title>PW cont zigzag slope=16</title></polygon>
<polygon points="238.28,88.10 233.08,98.50 243.48,98.50" fill="#06a77d" opacity="0.72"><title>PW cont random slope=16 #933</title></polygon>
<polygon points="238.28,88.57 233.08,98.97 243.48,98.97" fill="#06a77d" opacity="0.72"><title>PW cont random slope=16 #934</title></polygon>
<polygon points="238.28,86.05 233.08,96.45 243.48,96.45" fill="#06a77d" opacity="0.72"><title>PW cont random slope=16 #935</title></polygon>
<polygon points="200.45,79.75 195.25,90.15 205.65,90.15" fill="#06a77d" opacity="0.72"><title>PW cont cyclic slope=24</title></polygon>
<polygon points="200.45,264.77 195.25,275.17 205.65,275.17" fill="#06a77d" opacity="0.72"><title>PW cont zigzag slope=24</title></polygon>
<polygon points="200.45,83.07 195.25,93.47 205.65,93.47" fill="#06a77d" opacity="0.72"><title>PW cont random slope=24 #832</title></polygon>
<polygon points="200.45,83.80 195.25,94.20 205.65,94.20" fill="#06a77d" opacity="0.72"><title>PW cont random slope=24 #833</title></polygon>
<polygon points="200.45,84.44 195.25,94.84 205.65,94.84" fill="#06a77d" opacity="0.72"><title>PW cont random slope=24 #834</title></polygon>
<polygon points="178.84,79.75 173.64,90.15 184.04,90.15" fill="#06a77d" opacity="0.72"><title>PW cont cyclic slope=32</title></polygon>
<polygon points="184.24,173.34 179.04,183.74 189.44,183.74" fill="#06a77d" opacity="0.72"><title>PW cont zigzag slope=32</title></polygon>
<polygon points="178.84,81.81 173.64,92.21 184.04,92.21" fill="#06a77d" opacity="0.72"><title>PW cont random slope=32 #731</title></polygon>
<polygon points="178.84,82.02 173.64,92.42 184.04,92.42" fill="#06a77d" opacity="0.72"><title>PW cont random slope=32 #732</title></polygon>
<polygon points="178.84,82.15 173.64,92.55 184.04,92.55" fill="#06a77d" opacity="0.72"><title>PW cont random slope=32 #733</title></polygon>
<polygon points="162.63,79.65 157.43,90.05 167.83,90.05" fill="#06a77d" opacity="0.72"><title>PW cont cyclic slope=48</title></polygon>
<polygon points="162.63,88.26 157.43,98.66 167.83,98.66" fill="#06a77d" opacity="0.72"><title>PW cont zigzag slope=48</title></polygon>
<polygon points="162.63,80.21 157.43,90.61 167.83,90.61" fill="#06a77d" opacity="0.72"><title>PW cont random slope=48 #678</title></polygon>
<polygon points="162.63,80.23 157.43,90.63 167.83,90.63" fill="#06a77d" opacity="0.72"><title>PW cont random slope=48 #679</title></polygon>
<polygon points="162.63,80.22 157.43,90.62 167.83,90.62" fill="#06a77d" opacity="0.72"><title>PW cont random slope=48 #680</title></polygon>
<polygon points="151.82,79.64 146.62,90.04 157.02,90.04" fill="#06a77d" opacity="0.72"><title>PW cont cyclic slope=64</title></polygon>
<polygon points="151.82,80.81 146.62,91.21 157.02,91.21" fill="#06a77d" opacity="0.72"><title>PW cont zigzag slope=64</title></polygon>
<polygon points="151.82,79.84 146.62,90.24 157.02,90.24" fill="#06a77d" opacity="0.72"><title>PW cont random slope=64 #476</title></polygon>
<polygon points="151.82,79.95 146.62,90.35 157.02,90.35" fill="#06a77d" opacity="0.72"><title>PW cont random slope=64 #477</title></polygon>
<polygon points="151.82,79.81 146.62,90.21 157.02,90.21" fill="#06a77d" opacity="0.72"><title>PW cont random slope=64 #478</title></polygon>
<rect x="330.35" y="79.59" width="10.40" height="10.40" fill="#ef476f" opacity="0.72"><title>PW reset DFTseg slope=0</title></rect>
<rect x="341.16" y="79.59" width="10.40" height="10.40" fill="#ef476f" opacity="0.72"><title>PW reset DFTseg slope=1</title></rect>
<rect x="346.56" y="79.59" width="10.40" height="10.40" fill="#ef476f" opacity="0.72"><title>PW reset DFTseg slope=2</title></rect>
<rect x="341.16" y="79.59" width="10.40" height="10.40" fill="#ef476f" opacity="0.72"><title>PW reset DFTseg slope=4</title></rect>
<rect x="314.14" y="79.59" width="10.40" height="10.40" fill="#ef476f" opacity="0.72"><title>PW reset DFTseg slope=6</title></rect>
<rect x="281.71" y="79.59" width="10.40" height="10.40" fill="#ef476f" opacity="0.72"><title>PW reset DFTseg slope=8</title></rect>
<rect x="238.48" y="79.59" width="10.40" height="10.40" fill="#ef476f" opacity="0.72"><title>PW reset DFTseg slope=12</title></rect>
<rect x="211.46" y="79.59" width="10.40" height="10.40" fill="#ef476f" opacity="0.72"><title>PW reset DFTseg slope=16</title></rect>
<rect x="184.45" y="79.59" width="10.40" height="10.40" fill="#ef476f" opacity="0.72"><title>PW reset DFTseg slope=24</title></rect>
<rect x="173.64" y="79.59" width="10.40" height="10.40" fill="#ef476f" opacity="0.72"><title>PW reset DFTseg slope=32</title></rect>
<rect x="157.43" y="79.59" width="10.40" height="10.40" fill="#ef476f" opacity="0.72"><title>PW reset DFTseg slope=48</title></rect>
<rect x="146.62" y="79.59" width="10.40" height="10.40" fill="#ef476f" opacity="0.72"><title>PW reset DFTseg slope=64</title></rect>
<polyline points="151.82,84.79 367.97,84.84 405.80,93.56 465.24,123.06 546.30,179.03 686.80,270.64 962.39,419.44" fill="none" stroke="#102a43" stroke-width="2.2"/>
<text x="157.82" y="78.79" font-size="11" font-family="Arial, sans-serif" fill="#102a43" font-weight="700">C7</text>
<text x="373.97" y="78.84" font-size="11" font-family="Arial, sans-serif" fill="#102a43" font-weight="700">C6</text>
<text x="411.80" y="87.56" font-size="11" font-family="Arial, sans-serif" fill="#102a43" font-weight="700">C5</text>
<text x="471.24" y="117.06" font-size="11" font-family="Arial, sans-serif" fill="#102a43" font-weight="700">C4</text>
<text x="552.30" y="173.03" font-size="11" font-family="Arial, sans-serif" fill="#102a43" font-weight="700">C3</text>
<text x="692.80" y="264.64" font-size="11" font-family="Arial, sans-serif" fill="#102a43" font-weight="700">C2</text>
<text x="968.39" y="413.44" font-size="11" font-family="Arial, sans-serif" fill="#102a43" font-weight="700">C1</text>
<polyline points="189.65,84.79 216.66,84.79 243.68,84.79 351.76,84.79" fill="none" stroke="#c9184a" stroke-width="2.2"/>
<text x="195.65" y="78.79" font-size="11" font-family="Arial, sans-serif" fill="#c9184a" font-weight="700">R4</text>
<text x="222.66" y="78.79" font-size="11" font-family="Arial, sans-serif" fill="#c9184a" font-weight="700">R3</text>
<text x="249.68" y="78.79" font-size="11" font-family="Arial, sans-serif" fill="#c9184a" font-weight="700">R2</text>
<text x="357.76" y="78.79" font-size="11" font-family="Arial, sans-serif" fill="#c9184a" font-weight="700">R1</text>
<polyline points="151.82,84.84 162.63,84.85 178.84,84.95 200.45,84.95 238.28,85.51 351.76,86.60 438.22,98.34 470.64,124.04 621.95,128.91 692.20,151.14 730.03,153.94 767.86,161.49" fill="none" stroke="#007f5f" stroke-width="2.2"/>
<text x="157.82" y="78.84" font-size="11" font-family="Arial, sans-serif" fill="#007f5f" font-weight="700">P12</text>
<text x="168.63" y="78.85" font-size="11" font-family="Arial, sans-serif" fill="#007f5f" font-weight="700">P11</text>
<text x="184.84" y="78.95" font-size="11" font-family="Arial, sans-serif" fill="#007f5f" font-weight="700">P10</text>
<text x="206.45" y="78.95" font-size="11" font-family="Arial, sans-serif" fill="#007f5f" font-weight="700">P9</text>
<text x="244.28" y="79.51" font-size="11" font-family="Arial, sans-serif" fill="#007f5f" font-weight="700">P8</text>
<text x="357.76" y="80.60" font-size="11" font-family="Arial, sans-serif" fill="#007f5f" font-weight="700">P7</text>
<text x="444.22" y="92.34" font-size="11" font-family="Arial, sans-serif" fill="#007f5f" font-weight="700">P6</text>
<text x="476.64" y="118.04" font-size="11" font-family="Arial, sans-serif" fill="#007f5f" font-weight="700">P5</text>
<text x="627.95" y="122.91" font-size="11" font-family="Arial, sans-serif" fill="#007f5f" font-weight="700">P4</text>
<text x="698.20" y="145.14" font-size="11" font-family="Arial, sans-serif" fill="#007f5f" font-weight="700">P3</text>
<text x="736.03" y="147.94" font-size="11" font-family="Arial, sans-serif" fill="#007f5f" font-weight="700">P2</text>
<text x="773.86" y="155.49" font-size="11" font-family="Arial, sans-serif" fill="#007f5f" font-weight="700">P1</text>
<circle cx="96.00" cy="66.00" r="4.20" fill="#26547c" opacity="0.72"><title>cdd_linear_phase</title></circle>
<text x="108" y="70.00" font-size="12" fill="#333">cdd_linear_phase</text>
<g opacity="0.8"><title>constant_rank1</title><line x1="401.80" y1="61.80" x2="410.20" y2="70.20" stroke="#8d99ae" stroke-width="1.7"/><line x1="401.80" y1="70.20" x2="410.20" y2="61.80" stroke="#8d99ae" stroke-width="1.7"/></g>
<text x="418" y="70.00" font-size="12" fill="#333">constant_rank1</text>
<polygon points="96.00,81.80 91.80,90.20 100.20,90.20" fill="#06a77d" opacity="0.72"><title>piecewise_linear_continuous</title></polygon>
<text x="108" y="90.00" font-size="12" fill="#333">piecewise_linear_continuous</text>
<rect x="401.80" y="81.80" width="8.40" height="8.40" fill="#ef476f" opacity="0.72"><title>piecewise_linear_reset</title></rect>
<text x="418" y="90.00" font-size="12" fill="#333">piecewise_linear_reset</text>
<text x="549.00" y="616" font-size="14" font-family="Arial, sans-serif" text-anchor="middle" fill="#111">CE gain proxy: coherence BW at mean |rho| &lt;= 0.5 (subcarriers)</text>
<text x="20" y="308.00" font-size="14" font-family="Arial, sans-serif" text-anchor="middle" fill="#111" transform="rotate(-90 20 308.00)">Diversity gain: log10 det((V^H V)/K)</text>
</svg>
