<svg xmlns="http://www.w3.org/2000/svg" width="1060" height="660" viewBox="0 0 1060 660">
<rect width="100%" height="100%" fill="white"/>
<text x="530.0" y="28" text-anchor="middle" font-size="18" font-family="Arial, sans-serif">Piecewise-linear Pareto Alg1 NMSE</text>
<line x1="78" y1="582" x2="934" y2="582" stroke="#333" stroke-width="1.2"/>
<line x1="78" y1="54" x2="78" y2="582" stroke="#333" stroke-width="1.2"/>
<line x1="78.00" y1="54" x2="78.00" y2="582" stroke="#e6e8eb"/><text x="78.00" y="606" font-size="12" text-anchor="middle">9.6</text><line x1="249.20" y1="54" x2="249.20" y2="582" stroke="#e6e8eb"/><text x="249.20" y="606" font-size="12" text-anchor="middle">11.8</text><line x1="420.40" y1="54" x2="420.40" y2="582" stroke="#e6e8eb"/><text x="420.40" y="606" font-size="12" text-anchor="middle">13.9</text><line x1="591.60" y1="54" x2="591.60" y2="582" stroke="#e6e8eb"/><text x="591.60" y="606" font-size="12" text-anchor="middle">16.1</text><line x1="762.80" y1="54" x2="762.80" y2="582" stroke="#e6e8eb"/><text x="762.80" y="606" font-size="12" text-anchor="middle">18.2</text><line x1="934.00" y1="54" x2="934.00" y2="582" stroke="#e6e8eb"/><text x="934.00" y="606" font-size="12" text-anchor="middle">20.4</text><line x1="78" y1="582.00" x2="934" y2="582.00" stroke="#e6e8eb"/><text x="70" y="586.00" font-size="12" text-anchor="end">0.00234</text><line x1="78" y1="476.40" x2="934" y2="476.40" stroke="#e6e8eb"/><text x="70" y="480.40" font-size="12" text-anchor="end">0.00459</text><line x1="78" y1="370.80" x2="934" y2="370.80" stroke="#e6e8eb"/><text x="70" y="374.80" font-size="12" text-anchor="end">0.00898</text><line x1="78" y1="265.20" x2="934" y2="265.20" stroke="#e6e8eb"/><text x="70" y="269.20" font-size="12" text-anchor="end">0.0176</text><line x1="78" y1="159.60" x2="934" y2="159.60" stroke="#e6e8eb"/><text x="70" y="163.60" font-size="12" text-anchor="end">0.0345</text><line x1="78" y1="54.00" x2="934" y2="54.00" stroke="#e6e8eb"/><text x="70" y="58.00" font-size="12" text-anchor="end">0.0675</text>
<circle cx="109.70" cy="206.64" r="3.6" fill="#26547c"><title>P1 PW cont random slope=4 #938</title></circle><circle cx="268.22" cy="260.41" r="3.6" fill="#26547c"><title>P1 PW cont random slope=4 #938</title></circle><circle cx="426.74" cy="341.58" r="3.6" fill="#26547c"><title>P1 PW cont random slope=4 #938</title></circle><circle cx="506.00" cy="372.42" r="3.6" fill="#26547c"><title>P1 PW cont random slope=4 #938</title></circle><circle cx="585.26" cy="391.41" r="3.6" fill="#26547c"><title>P1 PW cont random slope=4 #938</title></circle><circle cx="664.52" cy="429.93" r="3.6" fill="#26547c"><title>P1 PW cont random slope=4 #938</title></circle><circle cx="743.78" cy="459.57" r="3.6" fill="#26547c"><title>P1 PW cont random slope=4 #938</title></circle><circle cx="902.30" cy="526.23" r="3.6" fill="#26547c"><title>P1 PW cont random slope=4 #938</title></circle><polyline points="109.70,206.64 268.22,260.41 426.74,341.58 506.00,372.42 585.26,391.41 664.52,429.93 743.78,459.57 902.30,526.23" fill="none" stroke="#26547c" stroke-width="1.7"/><text x="907.30" y="530.23" font-size="10" fill="#26547c" font-weight="700">P1</text><circle cx="109.70" cy="213.53" r="3.6" fill="#ef476f"><title>P2 PW cont random slope=4 #939</title></circle><circle cx="268.22" cy="282.80" r="3.6" fill="#ef476f"><title>P2 PW cont random slope=4 #939</title></circle><circle cx="426.74" cy="368.00" r="3.6" fill="#ef476f"><title>P2 PW cont random slope=4 #939</title></circle><circle cx="506.00" cy="392.05" r="3.6" fill="#ef476f"><title>P2 PW cont random slope=4 #939</title></circle><circle cx="585.26" cy="413.50" r="3.6" fill="#ef476f"><title>P2 PW cont random slope=4 #939</title></circle><circle cx="664.52" cy="442.90" r="3.6" fill="#ef476f"><title>P2 PW cont random slope=4 #939</title></circle><circle cx="743.78" cy="469.70" r="3.6" fill="#ef476f"><title>P2 PW cont random slope=4 #939</title></circle><circle cx="902.30" cy="545.59" r="3.6" fill="#ef476f"><title>P2 PW cont random slope=4 #939</title></circle><polyline points="109.70,213.53 268.22,282.80 426.74,368.00 506.00,392.05 585.26,413.50 664.52,442.90 743.78,469.70 902.30,545.59" fill="none" stroke="#ef476f" stroke-width="1.7"/><text x="907.30" y="549.59" font-size="10" fill="#ef476f" font-weight="700">P2</text><circle cx="109.70" cy="224.51" r="3.6" fill="#06a77d"><title>P3 PW cont random slope=4 #940</title></circle><circle cx="268.22" cy="273.03" r="3.6" fill="#06a77d"><title>P3 PW cont random slope=4 #940</title></circle><circle cx="426.74" cy="353.35" r="3.6" fill="#06a77d"><title>P3 PW cont random slope=4 #940</title></circle><circle cx="506.00" cy="378.89" r="3.6" fill="#06a77d"><title>P3 PW cont random slope=4 #940</title></circle><circle cx="585.26" cy="409.42" r="3.6" fill="#06a77d"><title>P3 PW cont random slope=4 #940</title></circle><circle cx="664.52" cy="439.00" r="3.6" fill="#06a77d"><title>P3 PW cont random slope=4 #940</title></circle><circle cx="743.78" cy="470.94" r="3.6" fill="#06a77d"><title>P3 PW cont random slope=4 #940</title></circle><circle cx="902.30" cy="536.78" r="3.6" fill="#06a77d"><title>P3 PW cont random slope=4 #940</title></circle><polyline points="109.70,224.51 268.22,273.03 426.74,353.35 506.00,378.89 585.26,409.42 664.52,439.00 743.78,470.94 902.30,536.78" fill="none" stroke="#06a77d" stroke-width="1.7"/><text x="907.30" y="540.78" font-size="10" fill="#06a77d" font-weight="700">P3</text><circle cx="109.70" cy="215.39" r="3.6" fill="#7b2cbf"><title>P4 PW cont cyclic slope=4</title></circle><circle cx="268.22" cy="285.35" r="3.6" fill="#7b2cbf"><title>P4 PW cont cyclic slope=4</title></circle><circle cx="426.74" cy="360.27" r="3.6" fill="#7b2cbf"><title>P4 PW cont cyclic slope=4</title></circle><circle cx="506.00" cy="395.78" r="3.6" fill="#7b2cbf"><title>P4 PW cont cyclic slope=4</title></circle><circle cx="585.26" cy="419.91" r="3.6" fill="#7b2cbf"><title>P4 PW cont cyclic slope=4</title></circle><circle cx="664.52" cy="453.25" r="3.6" fill="#7b2cbf"><title>P4 PW cont cyclic slope=4</title></circle><circle cx="743.78" cy="491.08" r="3.6" fill="#7b2cbf"><title>P4 PW cont cyclic slope=4</title></circle><circle cx="902.30" cy="540.28" r="3.6" fill="#7b2cbf"><title>P4 PW cont cyclic slope=4</title></circle><polyline points="109.70,215.39 268.22,285.35 426.74,360.27 506.00,395.78 585.26,419.91 664.52,453.25 743.78,491.08 902.30,540.28" fill="none" stroke="#7b2cbf" stroke-width="1.7"/><text x="907.30" y="544.28" font-size="10" fill="#7b2cbf" font-weight="700">P4</text><circle cx="109.70" cy="195.83" r="3.6" fill="#f77f00"><title>P5 PW cont random slope=6 #201</title></circle><circle cx="268.22" cy="269.77" r="3.6" fill="#f77f00"><title>P5 PW cont random slope=6 #201</title></circle><circle cx="426.74" cy="339.65" r="3.6" fill="#f77f00"><title>P5 PW cont random slope=6 #201</title></circle><circle cx="506.00" cy="366.13" r="3.6" fill="#f77f00"><title>P5 PW cont random slope=6 #201</title></circle><circle cx="585.26" cy="391.69" r="3.6" fill="#f77f00"><title>P5 PW cont random slope=6 #201</title></circle><circle cx="664.52" cy="415.30" r="3.6" fill="#f77f00"><title>P5 PW cont random slope=6 #201</title></circle><circle cx="743.78" cy="454.95" r="3.6" fill="#f77f00"><title>P5 PW cont random slope=6 #201</title></circle><circle cx="902.30" cy="502.06" r="3.6" fill="#f77f00"><title>P5 PW cont random slope=6 #201</title></circle><polyline points="109.70,195.83 268.22,269.77 426.74,339.65 506.00,366.13 585.26,391.69 664.52,415.30 743.78,454.95 902.30,502.06" fill="none" stroke="#f77f00" stroke-width="1.7"/><text x="907.30" y="506.06" font-size="10" fill="#f77f00" font-weight="700">P5</text><circle cx="109.70" cy="218.33" r="3.6" fill="#118ab2"><title>P6 PW cont cyclic slope=6</title></circle><circle cx="268.22" cy="280.42" r="3.6" fill="#118ab2"><title>P6 PW cont cyclic slope=6</title></circle><circle cx="426.74" cy="353.22" r="3.6" fill="#118ab2"><title>P6 PW cont cyclic slope=6</title></circle><circle cx="506.00" cy="383.87" r="3.6" fill="#118ab2"><title>P6 PW cont cyclic slope=6</title></circle><circle cx="585.26" cy="402.98" r="3.6" fill="#118ab2"><title>P6 PW cont cyclic slope=6</title></circle><circle cx="664.52" cy="432.06" r="3.6" fill="#118ab2"><title>P6 PW cont cyclic slope=6</title></circle><circle cx="743.78" cy="468.51" r="3.6" fill="#118ab2"><title>P6 PW cont cyclic slope=6</title></circle><circle cx="902.30" cy="521.66" r="3.6" fill="#118ab2"><title>P6 PW cont cyclic slope=6</title></circle><polyline points="109.70,218.33 268.22,280.42 426.74,353.22 506.00,383.87 585.26,402.98 664.52,432.06 743.78,468.51 902.30,521.66" fill="none" stroke="#118ab2" stroke-width="1.7"/><text x="907.30" y="525.66" font-size="10" fill="#118ab2" font-weight="700">P6</text><circle cx="109.70" cy="203.34" r="3.6" fill="#9d4edd"><title>P7 PW cont cyclic slope=8</title></circle><circle cx="268.22" cy="262.62" r="3.6" fill="#9d4edd"><title>P7 PW cont cyclic slope=8</title></circle><circle cx="426.74" cy="334.57" r="3.6" fill="#9d4edd"><title>P7 PW cont cyclic slope=8</title></circle><circle cx="506.00" cy="360.02" r="3.6" fill="#9d4edd"><title>P7 PW cont cyclic slope=8</title></circle><circle cx="585.26" cy="384.79" r="3.6" fill="#9d4edd"><title>P7 PW cont cyclic slope=8</title></circle><circle cx="664.52" cy="412.66" r="3.6" fill="#9d4edd"><title>P7 PW cont cyclic slope=8</title></circle><circle cx="743.78" cy="443.60" r="3.6" fill="#9d4edd"><title>P7 PW cont cyclic slope=8</title></circle><circle cx="902.30" cy="506.20" r="3.6" fill="#9d4edd"><title>P7 PW cont cyclic slope=8</title></circle><polyline points="109.70,203.34 268.22,262.62 426.74,334.57 506.00,360.02 585.26,384.79 664.52,412.66 743.78,443.60 902.30,506.20" fill="none" stroke="#9d4edd" stroke-width="1.7"/><text x="907.30" y="510.20" font-size="10" fill="#9d4edd" font-weight="700">P7</text><circle cx="109.70" cy="154.35" r="3.6" fill="#2a9d8f"><title>P8 PW cont cyclic slope=16</title></circle><circle cx="268.22" cy="215.39" r="3.6" fill="#2a9d8f"><title>P8 PW cont cyclic slope=16</title></circle><circle cx="426.74" cy="288.89" r="3.6" fill="#2a9d8f"><title>P8 PW cont cyclic slope=16</title></circle><circle cx="506.00" cy="314.73" r="3.6" fill="#2a9d8f"><title>P8 PW cont cyclic slope=16</title></circle><circle cx="585.26" cy="342.30" r="3.6" fill="#2a9d8f"><title>P8 PW cont cyclic slope=16</title></circle><circle cx="664.52" cy="371.41" r="3.6" fill="#2a9d8f"><title>P8 PW cont cyclic slope=16</title></circle><circle cx="743.78" cy="401.43" r="3.6" fill="#2a9d8f"><title>P8 PW cont cyclic slope=16</title></circle><circle cx="902.30" cy="462.76" r="3.6" fill="#2a9d8f"><title>P8 PW cont cyclic slope=16</title></circle><polyline points="109.70,154.35 268.22,215.39 426.74,288.89 506.00,314.73 585.26,342.30 664.52,371.41 743.78,401.43 902.30,462.76" fill="none" stroke="#2a9d8f" stroke-width="1.7"/><text x="907.30" y="466.76" font-size="10" fill="#2a9d8f" font-weight="700">P8</text><circle cx="109.70" cy="128.83" r="3.6" fill="#d62828"><title>P9 PW cont cyclic slope=24</title></circle><circle cx="268.22" cy="184.72" r="3.6" fill="#d62828"><title>P9 PW cont cyclic slope=24</title></circle><circle cx="426.74" cy="254.86" r="3.6" fill="#d62828"><title>P9 PW cont cyclic slope=24</title></circle><circle cx="506.00" cy="279.30" r="3.6" fill="#d62828"><title>P9 PW cont cyclic slope=24</title></circle><circle cx="585.26" cy="302.17" r="3.6" fill="#d62828"><title>P9 PW cont cyclic slope=24</title></circle><circle cx="664.52" cy="329.73" r="3.6" fill="#d62828"><title>P9 PW cont cyclic slope=24</title></circle><circle cx="743.78" cy="355.50" r="3.6" fill="#d62828"><title>P9 PW cont cyclic slope=24</title></circle><circle cx="902.30" cy="411.88" r="3.6" fill="#d62828"><title>P9 PW cont cyclic slope=24</title></circle><polyline points="109.70,128.83 268.22,184.72 426.74,254.86 506.00,279.30 585.26,302.17 664.52,329.73 743.78,355.50 902.30,411.88" fill="none" stroke="#d62828" stroke-width="1.7"/><text x="907.30" y="415.88" font-size="10" fill="#d62828" font-weight="700">P9</text><circle cx="109.70" cy="90.41" r="3.6" fill="#6a994e"><title>P10 PW cont cyclic slope=32</title></circle><circle cx="268.22" cy="135.21" r="3.6" fill="#6a994e"><title>P10 PW cont cyclic slope=32</title></circle><circle cx="426.74" cy="194.21" r="3.6" fill="#6a994e"><title>P10 PW cont cyclic slope=32</title></circle><circle cx="506.00" cy="216.89" r="3.6" fill="#6a994e"><title>P10 PW cont cyclic slope=32</title></circle><circle cx="585.26" cy="235.67" r="3.6" fill="#6a994e"><title>P10 PW cont cyclic slope=32</title></circle><circle cx="664.52" cy="261.92" r="3.6" fill="#6a994e"><title>P10 PW cont cyclic slope=32</title></circle><circle cx="743.78" cy="283.41" r="3.6" fill="#6a994e"><title>P10 PW cont cyclic slope=32</title></circle><circle cx="902.30" cy="328.67" r="3.6" fill="#6a994e"><title>P10 PW cont cyclic slope=32</title></circle><polyline points="109.70,90.41 268.22,135.21 426.74,194.21 506.00,216.89 585.26,235.67 664.52,261.92 743.78,283.41 902.30,328.67" fill="none" stroke="#6a994e" stroke-width="1.7"/><text x="907.30" y="332.67" font-size="10" fill="#6a994e" font-weight="700">P10</text><circle cx="109.70" cy="115.18" r="3.6" fill="#003049"><title>P11 PW cont cyclic slope=48</title></circle><circle cx="268.22" cy="171.72" r="3.6" fill="#003049"><title>P11 PW cont cyclic slope=48</title></circle><circle cx="426.74" cy="229.95" r="3.6" fill="#003049"><title>P11 PW cont cyclic slope=48</title></circle><circle cx="506.00" cy="257.70" r="3.6" fill="#003049"><title>P11 PW cont cyclic slope=48</title></circle><circle cx="585.26" cy="277.65" r="3.6" fill="#003049"><title>P11 PW cont cyclic slope=48</title></circle><circle cx="664.52" cy="302.93" r="3.6" fill="#003049"><title>P11 PW cont cyclic slope=48</title></circle><circle cx="743.78" cy="329.03" r="3.6" fill="#003049"><title>P11 PW cont cyclic slope=48</title></circle><circle cx="902.30" cy="377.95" r="3.6" fill="#003049"><title>P11 PW cont cyclic slope=48</title></circle><polyline points="109.70,115.18 268.22,171.72 426.74,229.95 506.00,257.70 585.26,277.65 664.52,302.93 743.78,329.03 902.30,377.95" fill="none" stroke="#003049" stroke-width="1.7"/><text x="907.30" y="381.95" font-size="10" fill="#003049" font-weight="700">P11</text><circle cx="109.70" cy="132.92" r="3.6" fill="#bc6c25"><title>P12 PW cont cyclic slope=64</title></circle><circle cx="268.22" cy="186.77" r="3.6" fill="#bc6c25"><title>P12 PW cont cyclic slope=64</title></circle><circle cx="426.74" cy="250.39" r="3.6" fill="#bc6c25"><title>P12 PW cont cyclic slope=64</title></circle><circle cx="506.00" cy="275.26" r="3.6" fill="#bc6c25"><title>P12 PW cont cyclic slope=64</title></circle><circle cx="585.26" cy="302.83" r="3.6" fill="#bc6c25"><title>P12 PW cont cyclic slope=64</title></circle><circle cx="664.52" cy="325.27" r="3.6" fill="#bc6c25"><title>P12 PW cont cyclic slope=64</title></circle><circle cx="743.78" cy="354.07" r="3.6" fill="#bc6c25"><title>P12 PW cont cyclic slope=64</title></circle><circle cx="902.30" cy="409.79" r="3.6" fill="#bc6c25"><title>P12 PW cont cyclic slope=64</title></circle><polyline points="109.70,132.92 268.22,186.77 426.74,250.39 506.00,275.26 585.26,302.83 664.52,325.27 743.78,354.07 902.30,409.79" fill="none" stroke="#bc6c25" stroke-width="1.7"/><text x="907.30" y="413.79" font-size="10" fill="#bc6c25" font-weight="700">P12</text>
<line x1="952" y1="72.00" x2="968" y2="72.00" stroke="#26547c" stroke-width="2"/><text x="972" y="76.00" font-size="11">P1</text><line x1="952" y1="90.00" x2="968" y2="90.00" stroke="#ef476f" stroke-width="2"/><text x="972" y="94.00" font-size="11">P2</text><line x1="952" y1="108.00" x2="968" y2="108.00" stroke="#06a77d" stroke-width="2"/><text x="972" y="112.00" font-size="11">P3</text><line x1="952" y1="126.00" x2="968" y2="126.00" stroke="#7b2cbf" stroke-width="2"/><text x="972" y="130.00" font-size="11">P4</text><line x1="952" y1="144.00" x2="968" y2="144.00" stroke="#f77f00" stroke-width="2"/><text x="972" y="148.00" font-size="11">P5</text><line x1="952" y1="162.00" x2="968" y2="162.00" stroke="#118ab2" stroke-width="2"/><text x="972" y="166.00" font-size="11">P6</text><line x1="952" y1="180.00" x2="968" y2="180.00" stroke="#9d4edd" stroke-width="2"/><text x="972" y="184.00" font-size="11">P7</text><line x1="952" y1="198.00" x2="968" y2="198.00" stroke="#2a9d8f" stroke-width="2"/><text x="972" y="202.00" font-size="11">P8</text><line x1="952" y1="216.00" x2="968" y2="216.00" stroke="#d62828" stroke-width="2"/><text x="972" y="220.00" font-size="11">P9</text><line x1="952" y1="234.00" x2="968" y2="234.00" stroke="#6a994e" stroke-width="2"/><text x="972" y="238.00" font-size="11">P10</text><line x1="952" y1="252.00" x2="968" y2="252.00" stroke="#003049" stroke-width="2"/><text x="972" y="256.00" font-size="11">P11</text><line x1="952" y1="270.00" x2="968" y2="270.00" stroke="#bc6c25" stroke-width="2"/><text x="972" y="274.00" font-size="11">P12</text>
<text x="506.0" y="636" text-anchor="middle" font-size="14">SNR (dB)</text>
<text x="20" y="318.0" text-anchor="middle" font-size="14" transform="rotate(-90 20 318.0)">NMSE</text>
</svg>
