<svg xmlns="http://www.w3.org/2000/svg" width="1240" height="720" viewBox="0 0 1240 720">
<rect width="100%" height="100%" fill="white"/>
<text x="620.0" y="30" text-anchor="middle" font-size="18" font-family="Arial, sans-serif">Ideal-CSI BLER, 36 PRB, none interleaver</text>
<line x1="84" y1="638" x2="990" y2="638" stroke="#333" stroke-width="1.2"/>
<line x1="84" y1="56" x2="84" y2="638" stroke="#333" stroke-width="1.2"/>
<line x1="84.00" y1="56" x2="84.00" y2="638" stroke="#e6e8eb"/><text x="84.00" y="662" font-size="12" text-anchor="middle">11.4</text><line x1="265.20" y1="56" x2="265.20" y2="638" stroke="#e6e8eb"/><text x="265.20" y="662" font-size="12" text-anchor="middle">14.8</text><line x1="446.40" y1="56" x2="446.40" y2="638" stroke="#e6e8eb"/><text x="446.40" y="662" font-size="12" text-anchor="middle">18.3</text><line x1="627.60" y1="56" x2="627.60" y2="638" stroke="#e6e8eb"/><text x="627.60" y="662" font-size="12" text-anchor="middle">21.7</text><line x1="808.80" y1="56" x2="808.80" y2="638" stroke="#e6e8eb"/><text x="808.80" y="662" font-size="12" text-anchor="middle">25.2</text><line x1="990.00" y1="56" x2="990.00" y2="638" stroke="#e6e8eb"/><text x="990.00" y="662" font-size="12" text-anchor="middle">28.6</text><line x1="84" y1="616.69" x2="990" y2="616.69" stroke="#d9dde2"/><text x="76" y="620.69" font-size="12" text-anchor="end">1e-3</text><line x1="84" y1="422.38" x2="990" y2="422.38" stroke="#d9dde2"/><text x="76" y="426.38" font-size="12" text-anchor="end">1e-2</text><line x1="84" y1="228.07" x2="990" y2="228.07" stroke="#d9dde2"/><text x="76" y="232.07" font-size="12" text-anchor="end">1e-1</text><line x1="84" y1="558.20" x2="990" y2="558.20" stroke="#eef0f2"/><line x1="84" y1="480.87" x2="990" y2="480.87" stroke="#eef0f2"/><line x1="84" y1="363.89" x2="990" y2="363.89" stroke="#eef0f2"/><line x1="84" y1="286.56" x2="990" y2="286.56" stroke="#eef0f2"/><line x1="84" y1="169.58" x2="990" y2="169.58" stroke="#eef0f2"/><line x1="84" y1="92.25" x2="990" y2="92.25" stroke="#eef0f2"/>
<line x1="84" y1="228.07" x2="990" y2="228.07" stroke="#111" stroke-width="1" stroke-dasharray="5 4"/><text x="998" y="232.07" font-size="11" fill="#111">0.1</text><line x1="84" y1="422.38" x2="990" y2="422.38" stroke="#111" stroke-width="1" stroke-dasharray="5 4"/><text x="998" y="426.38" font-size="11" fill="#111">0.01</text><g><title>C0 CDD step=1</title><circle cx="117.56" cy="107.47" r="4" stroke="#0072B2" stroke-width="1.6" fill="white"/></g><g><title>C0 CDD step=1</title><circle cx="222.42" cy="141.94" r="4" stroke="#0072B2" stroke-width="1.6" fill="white"/></g><g><title>C0 CDD step=1</title><circle cx="274.85" cy="164.46" r="4" stroke="#0072B2" stroke-width="1.6" fill="white"/></g><g><title>C0 CDD step=1</title><circle cx="327.28" cy="188.41" r="4" stroke="#0072B2" stroke-width="1.6" fill="white"/></g><g><title>C0 CDD step=1</title><circle cx="379.71" cy="207.57" r="4" stroke="#0072B2" stroke-width="1.6" fill="white"/></g><g><title>C0 CDD step=1</title><circle cx="432.14" cy="241.78" r="4" stroke="#0072B2" stroke-width="1.6" fill="white"/></g><g><title>C0 CDD step=1</title><circle cx="537.00" cy="267.73" r="4" stroke="#0072B2" stroke-width="1.6" fill="white"/></g><g><title>C0 CDD step=1</title><circle cx="641.86" cy="322.92" r="4" stroke="#0072B2" stroke-width="1.6" fill="white"/></g><g><title>C0 CDD step=1</title><circle cx="746.72" cy="363.89" r="4" stroke="#0072B2" stroke-width="1.6" fill="white"/></g><g><title>C0 CDD step=1</title><circle cx="851.58" cy="597.86" r="4" stroke="#0072B2" stroke-width="1.6" fill="white"/></g><g><title>C0 CDD step=1</title><circle cx="956.44" cy="597.86" r="4" stroke="#0072B2" stroke-width="1.6" fill="white"/></g><polyline points="117.56,107.47 222.42,141.94 274.85,164.46 327.28,188.41 379.71,207.57 432.14,241.78 537.00,267.73 641.86,322.92 746.72,363.89 851.58,597.86 956.44,597.86" fill="none" stroke="#0072B2" stroke-width="2.1" stroke-dasharray="5 3"/><g><title>C1 CDD step=2</title><rect x="113.76" y="98.29" width="7.6" height="7.6" stroke="#D55E00" stroke-width="1.6" fill="white"/></g><g><title>C1 CDD step=2</title><rect x="218.62" y="143.64" width="7.6" height="7.6" stroke="#D55E00" stroke-width="1.6" fill="white"/></g><g><title>C1 CDD step=2</title><rect x="271.05" y="178.26" width="7.6" height="7.6" stroke="#D55E00" stroke-width="1.6" fill="white"/></g><g><title>C1 CDD step=2</title><rect x="323.48" y="200.52" width="7.6" height="7.6" stroke="#D55E00" stroke-width="1.6" fill="white"/></g><g><title>C1 CDD step=2</title><rect x="375.91" y="224.27" width="7.6" height="7.6" stroke="#D55E00" stroke-width="1.6" fill="white"/></g><g><title>C1 CDD step=2</title><rect x="428.34" y="254.37" width="7.6" height="7.6" stroke="#D55E00" stroke-width="1.6" fill="white"/></g><g><title>C1 CDD step=2</title><rect x="533.20" y="301.59" width="7.6" height="7.6" stroke="#D55E00" stroke-width="1.6" fill="white"/></g><g><title>C1 CDD step=2</title><rect x="638.06" y="350.15" width="7.6" height="7.6" stroke="#D55E00" stroke-width="1.6" fill="white"/></g><g><title>C1 CDD step=2</title><rect x="742.92" y="535.57" width="7.6" height="7.6" stroke="#D55E00" stroke-width="1.6" fill="white"/></g><g><title>C1 CDD step=2</title><rect x="847.78" y="594.06" width="7.6" height="7.6" stroke="#D55E00" stroke-width="1.6" fill="white"/></g><g><title>C1 CDD step=2</title><rect x="952.64" y="594.06" width="7.6" height="7.6" stroke="#D55E00" stroke-width="1.6" fill="white"/></g><polyline points="117.56,102.09 222.42,147.44 274.85,182.06 327.28,204.32 379.71,228.07 432.14,258.17 537.00,305.39 641.86,353.95 746.72,539.37 851.58,597.86 956.44,597.86" fill="none" stroke="#D55E00" stroke-width="2.1" stroke-dasharray="5 3"/><g><title>C2 CDD step=3</title><polygon points="117.56,97.01 113.26,105.21 121.86,105.21" stroke="#009E73" stroke-width="1.6" fill="white"/></g><g><title>C2 CDD step=3</title><polygon points="222.42,153.18 218.12,161.38 226.72,161.38" stroke="#009E73" stroke-width="1.6" fill="white"/></g><g><title>C2 CDD step=3</title><polygon points="274.85,187.86 270.55,196.06 279.15,196.06" stroke="#009E73" stroke-width="1.6" fill="white"/></g><g><title>C2 CDD step=3</title><polygon points="327.28,209.86 322.98,218.06 331.58,218.06" stroke="#009E73" stroke-width="1.6" fill="white"/></g><g><title>C2 CDD step=3</title><polygon points="379.71,242.30 375.41,250.50 384.01,250.50" stroke="#009E73" stroke-width="1.6" fill="white"/></g><g><title>C2 CDD step=3</title><polygon points="432.14,290.85 427.84,299.05 436.44,299.05" stroke="#009E73" stroke-width="1.6" fill="white"/></g><g><title>C2 CDD step=3</title><polygon points="537.00,332.41 532.70,340.61 541.30,340.61" stroke="#009E73" stroke-width="1.6" fill="white"/></g><g><title>C2 CDD step=3</title><polygon points="641.86,417.78 637.56,425.98 646.16,425.98" stroke="#009E73" stroke-width="1.6" fill="white"/></g><g><title>C2 CDD step=3</title><polygon points="746.72,593.26 742.42,601.46 751.02,601.46" stroke="#009E73" stroke-width="1.6" fill="white"/></g><g><title>C2 CDD step=3</title><polygon points="851.58,593.26 847.28,601.46 855.88,601.46" stroke="#009E73" stroke-width="1.6" fill="white"/></g><g><title>C2 CDD step=3</title><polygon points="956.44,593.26 952.14,601.46 960.74,601.46" stroke="#009E73" stroke-width="1.6" fill="white"/></g><polyline points="117.56,101.61 222.42,157.78 274.85,192.46 327.28,214.46 379.71,246.90 432.14,295.45 537.00,337.01 641.86,422.38 746.72,597.86 851.58,597.86 956.44,597.86" fill="none" stroke="#009E73" stroke-width="2.1" stroke-dasharray="5 3"/><g><title>C3 CDD step=4</title><polygon points="117.56,100.97 113.06,105.47 117.56,109.97 122.06,105.47" stroke="#CC79A7" stroke-width="1.6" fill="white"/></g><g><title>C3 CDD step=4</title><polygon points="222.42,159.96 217.92,164.46 222.42,168.96 226.92,164.46" stroke="#CC79A7" stroke-width="1.6" fill="white"/></g><g><title>C3 CDD step=4</title><polygon points="274.85,189.35 270.35,193.85 274.85,198.35 279.35,193.85" stroke="#CC79A7" stroke-width="1.6" fill="white"/></g><g><title>C3 CDD step=4</title><polygon points="327.28,253.67 322.78,258.17 327.28,262.67 331.78,258.17" stroke="#CC79A7" stroke-width="1.6" fill="white"/></g><g><title>C3 CDD step=4</title><polygon points="379.71,290.95 375.21,295.45 379.71,299.95 384.21,295.45" stroke="#CC79A7" stroke-width="1.6" fill="white"/></g><g><title>C3 CDD step=4</title><polygon points="432.14,332.51 427.64,337.01 432.14,341.51 436.64,337.01" stroke="#CC79A7" stroke-width="1.6" fill="white"/></g><g><title>C3 CDD step=4</title><polygon points="537.00,442.16 532.50,446.66 537.00,451.16 541.50,446.66" stroke="#CC79A7" stroke-width="1.6" fill="white"/></g><g><title>C3 CDD step=4</title><polygon points="641.86,534.87 637.36,539.37 641.86,543.87 646.36,539.37" stroke="#CC79A7" stroke-width="1.6" fill="white"/></g><g><title>C3 CDD step=4</title><polygon points="746.72,593.36 742.22,597.86 746.72,602.36 751.22,597.86" stroke="#CC79A7" stroke-width="1.6" fill="white"/></g><polyline points="117.56,105.47 222.42,164.46 274.85,193.85 327.28,258.17 379.71,295.45 432.14,337.01 537.00,446.66 641.86,539.37 746.72,597.86" fill="none" stroke="#CC79A7" stroke-width="2.1" stroke-dasharray="5 3"/><g><title>C4 CDD step=5</title><polygon points="113.26,97.08 121.86,97.08 117.56,105.28" stroke="#E69F00" stroke-width="1.6" fill="white"/></g><g><title>C4 CDD step=5</title><polygon points="218.12,174.87 226.72,174.87 222.42,183.07" stroke="#E69F00" stroke-width="1.6" fill="white"/></g><g><title>C4 CDD step=5</title><polygon points="270.55,218.37 279.15,218.37 274.85,226.57" stroke="#E69F00" stroke-width="1.6" fill="white"/></g><g><title>C4 CDD step=5</title><polygon points="322.98,287.29 331.58,287.29 327.28,295.49" stroke="#E69F00" stroke-width="1.6" fill="white"/></g><g><title>C4 CDD step=5</title><polygon points="375.41,341.46 384.01,341.46 379.71,349.66" stroke="#E69F00" stroke-width="1.6" fill="white"/></g><g><title>C4 CDD step=5</title><polygon points="427.84,399.95 436.44,399.95 432.14,408.15" stroke="#E69F00" stroke-width="1.6" fill="white"/></g><g><title>C4 CDD step=5</title><polygon points="532.70,535.77 541.30,535.77 537.00,543.97" stroke="#E69F00" stroke-width="1.6" fill="white"/></g><g><title>C4 CDD step=5</title><polygon points="637.56,594.26 646.16,594.26 641.86,602.46" stroke="#E69F00" stroke-width="1.6" fill="white"/></g><g><title>C4 CDD step=5</title><polygon points="742.42,594.26 751.02,594.26 746.72,602.46" stroke="#E69F00" stroke-width="1.6" fill="white"/></g><polyline points="117.56,100.68 222.42,178.47 274.85,221.97 327.28,290.89 379.71,345.06 432.14,403.55 537.00,539.37 641.86,597.86 746.72,597.86" fill="none" stroke="#E69F00" stroke-width="2.1" stroke-dasharray="5 3"/><g><title>C5 CDD step=6</title><path d="M 113.56 103.52 H 121.56 M 117.56 99.52 V 107.52" stroke="#56B4E9" stroke-width="2" fill="none"/></g><g><title>C5 CDD step=6</title><path d="M 218.42 188.41 H 226.42 M 222.42 184.41 V 192.41" stroke="#56B4E9" stroke-width="2" fill="none"/></g><g><title>C5 CDD step=6</title><path d="M 270.85 236.96 H 278.85 M 274.85 232.96 V 240.96" stroke="#56B4E9" stroke-width="2" fill="none"/></g><g><title>C5 CDD step=6</title><path d="M 323.28 310.84 H 331.28 M 327.28 306.84 V 314.84" stroke="#56B4E9" stroke-width="2" fill="none"/></g><g><title>C5 CDD step=6</title><path d="M 375.71 403.55 H 383.71 M 379.71 399.55 V 407.55" stroke="#56B4E9" stroke-width="2" fill="none"/></g><g><title>C5 CDD step=6</title><path d="M 428.14 446.66 H 436.14 M 432.14 442.66 V 450.66" stroke="#56B4E9" stroke-width="2" fill="none"/></g><g><title>C5 CDD step=6</title><path d="M 533.00 539.37 H 541.00 M 537.00 535.37 V 543.37" stroke="#56B4E9" stroke-width="2" fill="none"/></g><g><title>C5 CDD step=6</title><path d="M 637.86 597.86 H 645.86 M 641.86 593.86 V 601.86" stroke="#56B4E9" stroke-width="2" fill="none"/></g><g><title>C5 CDD step=6</title><path d="M 742.72 597.86 H 750.72 M 746.72 593.86 V 601.86" stroke="#56B4E9" stroke-width="2" fill="none"/></g><polyline points="117.56,103.52 222.42,188.41 274.85,236.96 327.28,310.84 379.71,403.55 432.14,446.66 537.00,539.37 641.86,597.86 746.72,597.86" fill="none" stroke="#56B4E9" stroke-width="2.1" stroke-dasharray="5 3"/><g><title>C6 CDD step=7</title><path d="M 114.06 102.47 L 121.06 109.47 M 121.06 102.47 L 114.06 109.47" stroke="#6F4E7C" stroke-width="2" fill="none"/></g><g><title>C6 CDD step=7</title><path d="M 218.92 200.82 L 225.92 207.82 M 225.92 200.82 L 218.92 207.82" stroke="#6F4E7C" stroke-width="2" fill="none"/></g><g><title>C6 CDD step=7</title><path d="M 271.35 248.85 L 278.35 255.85 M 278.35 248.85 L 271.35 255.85" stroke="#6F4E7C" stroke-width="2" fill="none"/></g><g><title>C6 CDD step=7</title><path d="M 323.78 341.56 L 330.78 348.56 M 330.78 341.56 L 323.78 348.56" stroke="#6F4E7C" stroke-width="2" fill="none"/></g><g><title>C6 CDD step=7</title><path d="M 376.21 384.66 L 383.21 391.66 M 383.21 384.66 L 376.21 391.66" stroke="#6F4E7C" stroke-width="2" fill="none"/></g><g><title>C6 CDD step=7</title><path d="M 428.64 535.87 L 435.64 542.87 M 435.64 535.87 L 428.64 542.87" stroke="#6F4E7C" stroke-width="2" fill="none"/></g><g><title>C6 CDD step=7</title><path d="M 533.50 594.36 L 540.50 601.36 M 540.50 594.36 L 533.50 601.36" stroke="#6F4E7C" stroke-width="2" fill="none"/></g><g><title>C6 CDD step=7</title><path d="M 638.36 594.36 L 645.36 601.36 M 645.36 594.36 L 638.36 601.36" stroke="#6F4E7C" stroke-width="2" fill="none"/></g><g><title>C6 CDD step=7</title><path d="M 743.22 594.36 L 750.22 601.36 M 750.22 594.36 L 743.22 601.36" stroke="#6F4E7C" stroke-width="2" fill="none"/></g><polyline points="117.56,105.97 222.42,204.32 274.85,252.35 327.28,345.06 379.71,388.16 432.14,539.37 537.00,597.86 641.86,597.86 746.72,597.86" fill="none" stroke="#6F4E7C" stroke-width="2.1" stroke-dasharray="5 3"/><g><title>C7 CDD step=64</title><polygon points="113.36,111.61 115.46,107.91 119.66,107.91 121.76,111.61 119.66,115.31 115.46,115.31" stroke="#222222" stroke-width="1.6" fill="white"/></g><g><title>C7 CDD step=64</title><polygon points="218.22,234.65 220.32,230.95 224.52,230.95 226.62,234.65 224.52,238.35 220.32,238.35" stroke="#222222" stroke-width="1.6" fill="white"/></g><g><title>C7 CDD step=64</title><polygon points="270.65,305.39 272.75,301.69 276.95,301.69 279.05,305.39 276.95,309.09 272.75,309.09" stroke="#222222" stroke-width="1.6" fill="white"/></g><g><title>C7 CDD step=64</title><polygon points="323.08,375.16 325.18,371.46 329.38,371.46 331.48,375.16 329.38,378.86 325.18,378.86" stroke="#222222" stroke-width="1.6" fill="white"/></g><g><title>C7 CDD step=64</title><polygon points="375.51,446.66 377.61,442.96 381.81,442.96 383.91,446.66 381.81,450.36 377.61,450.36" stroke="#222222" stroke-width="1.6" fill="white"/></g><g><title>C7 CDD step=64</title><polygon points="427.94,597.86 430.04,594.16 434.24,594.16 436.34,597.86 434.24,601.56 430.04,601.56" stroke="#222222" stroke-width="1.6" fill="white"/></g><polyline points="117.56,111.61 222.42,234.65 274.85,305.39 327.28,375.16 379.71,446.66 432.14,597.86" fill="none" stroke="#222222" stroke-width="2.1" stroke-dasharray="5 3"/><g><title>N3 NS-A0503-M1_2_3_64-LR00-S537649365</title><circle cx="117.56" cy="96.14" r="4" stroke="#A0006D" stroke-width="1.6" fill="#A0006D"/></g><g><title>N3 NS-A0503-M1_2_3_64-LR00-S537649365</title><circle cx="222.42" cy="172.80" r="4" stroke="#A0006D" stroke-width="1.6" fill="#A0006D"/></g><g><title>N3 NS-A0503-M1_2_3_64-LR00-S537649365</title><circle cx="274.85" cy="236.96" r="4" stroke="#A0006D" stroke-width="1.6" fill="#A0006D"/></g><g><title>N3 NS-A0503-M1_2_3_64-LR00-S537649365</title><circle cx="327.28" cy="322.92" r="4" stroke="#A0006D" stroke-width="1.6" fill="#A0006D"/></g><g><title>N3 NS-A0503-M1_2_3_64-LR00-S537649365</title><circle cx="379.71" cy="480.87" r="4" stroke="#A0006D" stroke-width="1.6" fill="#A0006D"/></g><g><title>N3 NS-A0503-M1_2_3_64-LR00-S537649365</title><circle cx="432.14" cy="539.37" r="4" stroke="#A0006D" stroke-width="1.6" fill="#A0006D"/></g><g><title>N3 NS-A0503-M1_2_3_64-LR00-S537649365</title><circle cx="537.00" cy="597.86" r="4" stroke="#A0006D" stroke-width="1.6" fill="#A0006D"/></g><g><title>N3 NS-A0503-M1_2_3_64-LR00-S537649365</title><circle cx="641.86" cy="597.86" r="4" stroke="#A0006D" stroke-width="1.6" fill="#A0006D"/></g><g><title>N3 NS-A0503-M1_2_3_64-LR00-S537649365</title><circle cx="746.72" cy="597.86" r="4" stroke="#A0006D" stroke-width="1.6" fill="#A0006D"/></g><g><title>N3 NS-A0503-M1_2_3_64-LR00-S537649365</title><circle cx="851.58" cy="597.86" r="4" stroke="#A0006D" stroke-width="1.6" fill="#A0006D"/></g><g><title>N3 NS-A0503-M1_2_3_64-LR00-S537649365</title><circle cx="956.44" cy="597.86" r="4" stroke="#A0006D" stroke-width="1.6" fill="#A0006D"/></g><polyline points="117.56,96.14 222.42,172.80 274.85,236.96 327.28,322.92 379.71,480.87 432.14,539.37 537.00,597.86 641.86,597.86 746.72,597.86 851.58,597.86 956.44,597.86" fill="none" stroke="#A0006D" stroke-width="2.1"/><g><title>N6 NS-A0501-M1_3_4_64-LR00-S537649103</title><rect x="113.76" y="101.18" width="7.6" height="7.6" stroke="#7A3E00" stroke-width="1.6" fill="#7A3E00"/></g><g><title>N6 NS-A0501-M1_3_4_64-LR00-S537649103</title><rect x="218.62" y="172.36" width="7.6" height="7.6" stroke="#7A3E00" stroke-width="1.6" fill="#7A3E00"/></g><g><title>N6 NS-A0501-M1_3_4_64-LR00-S537649103</title><rect x="271.05" y="228.60" width="7.6" height="7.6" stroke="#7A3E00" stroke-width="1.6" fill="#7A3E00"/></g><g><title>N6 NS-A0501-M1_3_4_64-LR00-S537649103</title><rect x="323.48" y="307.04" width="7.6" height="7.6" stroke="#7A3E00" stroke-width="1.6" fill="#7A3E00"/></g><g><title>N6 NS-A0501-M1_3_4_64-LR00-S537649103</title><rect x="375.91" y="384.36" width="7.6" height="7.6" stroke="#7A3E00" stroke-width="1.6" fill="#7A3E00"/></g><g><title>N6 NS-A0501-M1_3_4_64-LR00-S537649103</title><rect x="428.34" y="535.57" width="7.6" height="7.6" stroke="#7A3E00" stroke-width="1.6" fill="#7A3E00"/></g><g><title>N6 NS-A0501-M1_3_4_64-LR00-S537649103</title><rect x="533.20" y="594.06" width="7.6" height="7.6" stroke="#7A3E00" stroke-width="1.6" fill="#7A3E00"/></g><g><title>N6 NS-A0501-M1_3_4_64-LR00-S537649103</title><rect x="638.06" y="594.06" width="7.6" height="7.6" stroke="#7A3E00" stroke-width="1.6" fill="#7A3E00"/></g><g><title>N6 NS-A0501-M1_3_4_64-LR00-S537649103</title><rect x="742.92" y="594.06" width="7.6" height="7.6" stroke="#7A3E00" stroke-width="1.6" fill="#7A3E00"/></g><g><title>N6 NS-A0501-M1_3_4_64-LR00-S537649103</title><rect x="847.78" y="594.06" width="7.6" height="7.6" stroke="#7A3E00" stroke-width="1.6" fill="#7A3E00"/></g><g><title>N6 NS-A0501-M1_3_4_64-LR00-S537649103</title><rect x="952.64" y="594.06" width="7.6" height="7.6" stroke="#7A3E00" stroke-width="1.6" fill="#7A3E00"/></g><polyline points="117.56,104.98 222.42,176.16 274.85,232.40 327.28,310.84 379.71,388.16 432.14,539.37 537.00,597.86 641.86,597.86 746.72,597.86 851.58,597.86 956.44,597.86" fill="none" stroke="#7A3E00" stroke-width="2.1"/><g><title>N8 NS-A0494-M3_4_6_64-LR00-S535555854</title><polygon points="117.56,108.62 113.26,116.82 121.86,116.82" stroke="#117733" stroke-width="1.6" fill="#117733"/></g><g><title>N8 NS-A0494-M3_4_6_64-LR00-S535555854</title><polygon points="222.42,208.08 218.12,216.28 226.72,216.28" stroke="#117733" stroke-width="1.6" fill="#117733"/></g><g><title>N8 NS-A0494-M3_4_6_64-LR00-S535555854</title><polygon points="274.85,273.92 270.55,282.12 279.15,282.12" stroke="#117733" stroke-width="1.6" fill="#117733"/></g><g><title>N8 NS-A0494-M3_4_6_64-LR00-S535555854</title><polygon points="327.28,340.46 322.98,348.66 331.58,348.66" stroke="#117733" stroke-width="1.6" fill="#117733"/></g><g><title>N8 NS-A0494-M3_4_6_64-LR00-S535555854</title><polygon points="379.71,398.95 375.41,407.15 384.01,407.15" stroke="#117733" stroke-width="1.6" fill="#117733"/></g><g><title>N8 NS-A0494-M3_4_6_64-LR00-S535555854</title><polygon points="432.14,442.06 427.84,450.26 436.44,450.26" stroke="#117733" stroke-width="1.6" fill="#117733"/></g><g><title>N8 NS-A0494-M3_4_6_64-LR00-S535555854</title><polygon points="537.00,593.26 532.70,601.46 541.30,601.46" stroke="#117733" stroke-width="1.6" fill="#117733"/></g><g><title>N8 NS-A0494-M3_4_6_64-LR00-S535555854</title><polygon points="641.86,593.26 637.56,601.46 646.16,601.46" stroke="#117733" stroke-width="1.6" fill="#117733"/></g><g><title>N8 NS-A0494-M3_4_6_64-LR00-S535555854</title><polygon points="746.72,593.26 742.42,601.46 751.02,601.46" stroke="#117733" stroke-width="1.6" fill="#117733"/></g><g><title>N8 NS-A0494-M3_4_6_64-LR00-S535555854</title><polygon points="851.58,593.26 847.28,601.46 855.88,601.46" stroke="#117733" stroke-width="1.6" fill="#117733"/></g><g><title>N8 NS-A0494-M3_4_6_64-LR00-S535555854</title><polygon points="956.44,593.26 952.14,601.46 960.74,601.46" stroke="#117733" stroke-width="1.6" fill="#117733"/></g><polyline points="117.56,113.22 222.42,212.68 274.85,278.52 327.28,345.06 379.71,403.55 432.14,446.66 537.00,597.86 641.86,597.86 746.72,597.86 851.58,597.86 956.44,597.86" fill="none" stroke="#117733" stroke-width="2.1"/><g><title>N23 NS-A0330-M1_4_6_48-LC</title><polygon points="117.56,100.97 113.06,105.47 117.56,109.97 122.06,105.47" stroke="#332288" stroke-width="1.6" fill="#332288"/></g><g><title>N23 NS-A0330-M1_4_6_48-LC</title><polygon points="222.42,198.24 217.92,202.74 222.42,207.24 226.92,202.74" stroke="#332288" stroke-width="1.6" fill="#332288"/></g><g><title>N23 NS-A0330-M1_4_6_48-LC</title><polygon points="274.85,237.28 270.35,241.78 274.85,246.28 279.35,241.78" stroke="#332288" stroke-width="1.6" fill="#332288"/></g><g><title>N23 NS-A0330-M1_4_6_48-LC</title><polygon points="327.28,306.34 322.78,310.84 327.28,315.34 331.78,310.84" stroke="#332288" stroke-width="1.6" fill="#332288"/></g><g><title>N23 NS-A0330-M1_4_6_48-LC</title><polygon points="379.71,359.39 375.21,363.89 379.71,368.39 384.21,363.89" stroke="#332288" stroke-width="1.6" fill="#332288"/></g><g><title>N23 NS-A0330-M1_4_6_48-LC</title><polygon points="432.14,442.16 427.64,446.66 432.14,451.16 436.64,446.66" stroke="#332288" stroke-width="1.6" fill="#332288"/></g><g><title>N23 NS-A0330-M1_4_6_48-LC</title><polygon points="537.00,593.36 532.50,597.86 537.00,602.36 541.50,597.86" stroke="#332288" stroke-width="1.6" fill="#332288"/></g><g><title>N23 NS-A0330-M1_4_6_48-LC</title><polygon points="641.86,593.36 637.36,597.86 641.86,602.36 646.36,597.86" stroke="#332288" stroke-width="1.6" fill="#332288"/></g><g><title>N23 NS-A0330-M1_4_6_48-LC</title><polygon points="746.72,593.36 742.22,597.86 746.72,602.36 751.22,597.86" stroke="#332288" stroke-width="1.6" fill="#332288"/></g><g><title>N23 NS-A0330-M1_4_6_48-LC</title><polygon points="851.58,593.36 847.08,597.86 851.58,602.36 856.08,597.86" stroke="#332288" stroke-width="1.6" fill="#332288"/></g><g><title>N23 NS-A0330-M1_4_6_48-LC</title><polygon points="956.44,593.36 951.94,597.86 956.44,602.36 960.94,597.86" stroke="#332288" stroke-width="1.6" fill="#332288"/></g><polyline points="117.56,105.47 222.42,202.74 274.85,241.78 327.28,310.84 379.71,363.89 432.14,446.66 537.00,597.86 641.86,597.86 746.72,597.86 851.58,597.86 956.44,597.86" fill="none" stroke="#332288" stroke-width="2.1"/><line x1="274.85" y1="305.39" x2="320.86" y2="302.74" stroke="#222222" stroke-width="1.2"/><polygon points="326.85,302.39 321.03,305.73 320.68,299.74" fill="#222222"/><text x="332.85" y="305.39" font-size="11" fill="#222222" font-weight="700" paint-order="stroke" stroke="white" stroke-width="3">C7</text><line x1="327.28" y1="310.84" x2="373.32" y2="316.64" stroke="#56B4E9" stroke-width="1.2"/><polygon points="379.28,317.39 372.95,319.62 373.70,313.67" fill="#56B4E9"/><text x="385.28" y="320.39" font-size="11" fill="#56B4E9" font-weight="700" paint-order="stroke" stroke="white" stroke-width="3">C5</text><line x1="327.28" y1="310.84" x2="373.74" y2="330.10" stroke="#7A3E00" stroke-width="1.2"/><polygon points="379.28,332.39 372.59,332.87 374.88,327.33" fill="#7A3E00"/><text x="385.28" y="335.39" font-size="11" fill="#7A3E00" font-weight="700" paint-order="stroke" stroke="white" stroke-width="3">N6</text><line x1="327.28" y1="310.84" x2="374.37" y2="343.94" stroke="#332288" stroke-width="1.2"/><polygon points="379.28,347.39 372.64,346.40 376.09,341.49" fill="#332288"/><text x="385.28" y="350.39" font-size="11" fill="#332288" font-weight="700" paint-order="stroke" stroke="white" stroke-width="3">N23</text><line x1="641.86" y1="322.92" x2="689.08" y2="358.77" stroke="#0072B2" stroke-width="1.2"/><polygon points="693.86,362.39 687.27,361.16 690.90,356.38" fill="#0072B2"/><text x="699.86" y="365.39" font-size="11" fill="#0072B2" font-weight="700" paint-order="stroke" stroke="white" stroke-width="3">C0</text><line x1="327.28" y1="322.92" x2="375.13" y2="373.05" stroke="#A0006D" stroke-width="1.2"/><polygon points="379.28,377.39 372.96,375.13 377.31,370.98" fill="#A0006D"/><text x="385.28" y="380.39" font-size="11" fill="#A0006D" font-weight="700" paint-order="stroke" stroke="white" stroke-width="3">N3</text><line x1="537.00" y1="337.01" x2="584.89" y2="388.02" stroke="#009E73" stroke-width="1.2"/><polygon points="589.00,392.39 582.71,390.07 587.08,385.97" fill="#009E73"/><text x="595.00" y="395.39" font-size="11" fill="#009E73" font-weight="700" paint-order="stroke" stroke="white" stroke-width="3">C2</text><line x1="432.14" y1="337.01" x2="480.57" y2="402.57" stroke="#CC79A7" stroke-width="1.2"/><polygon points="484.14,407.39 478.16,404.35 482.99,400.79" fill="#CC79A7"/><text x="490.14" y="410.39" font-size="11" fill="#CC79A7" font-weight="700" paint-order="stroke" stroke="white" stroke-width="3">C3</text><line x1="379.71" y1="345.06" x2="428.36" y2="417.42" stroke="#E69F00" stroke-width="1.2"/><polygon points="431.71,422.39 425.87,419.09 430.85,415.74" fill="#E69F00"/><text x="437.71" y="425.39" font-size="11" fill="#E69F00" font-weight="700" paint-order="stroke" stroke="white" stroke-width="3">C4</text><line x1="327.28" y1="345.06" x2="376.33" y2="432.17" stroke="#6F4E7C" stroke-width="1.2"/><polygon points="379.28,437.39 373.72,433.64 378.95,430.69" fill="#6F4E7C"/><text x="385.28" y="440.39" font-size="11" fill="#6F4E7C" font-weight="700" paint-order="stroke" stroke="white" stroke-width="3">C6</text><line x1="327.28" y1="345.06" x2="376.66" y2="446.99" stroke="#117733" stroke-width="1.2"/><polygon points="379.28,452.39 373.96,448.30 379.36,445.69" fill="#117733"/><text x="385.28" y="455.39" font-size="11" fill="#117733" font-weight="700" paint-order="stroke" stroke="white" stroke-width="3">N8</text><line x1="641.86" y1="353.95" x2="691.36" y2="461.94" stroke="#D55E00" stroke-width="1.2"/><polygon points="693.86,467.39 688.63,463.19 694.09,460.69" fill="#D55E00"/><text x="699.86" y="470.39" font-size="11" fill="#D55E00" font-weight="700" paint-order="stroke" stroke="white" stroke-width="3">C1</text>
<line x1="1016" y1="74.00" x2="1034" y2="74.00" stroke="#0072B2" stroke-width="2" stroke-dasharray="5 3"/><g><title>C0</title><circle cx="1025.00" cy="74.00" r="4" stroke="#0072B2" stroke-width="1.6" fill="white"/></g><text x="1040" y="78.00" font-size="11">C0</text><line x1="1016" y1="92.00" x2="1034" y2="92.00" stroke="#D55E00" stroke-width="2" stroke-dasharray="5 3"/><g><title>C1</title><rect x="1021.20" y="88.20" width="7.6" height="7.6" stroke="#D55E00" stroke-width="1.6" fill="white"/></g><text x="1040" y="96.00" font-size="11">C1</text><line x1="1016" y1="110.00" x2="1034" y2="110.00" stroke="#009E73" stroke-width="2" stroke-dasharray="5 3"/><g><title>C2</title><polygon points="1025.00,105.40 1020.70,113.60 1029.30,113.60" stroke="#009E73" stroke-width="1.6" fill="white"/></g><text x="1040" y="114.00" font-size="11">C2</text><line x1="1016" y1="128.00" x2="1034" y2="128.00" stroke="#CC79A7" stroke-width="2" stroke-dasharray="5 3"/><g><title>C3</title><polygon points="1025.00,123.50 1020.50,128.00 1025.00,132.50 1029.50,128.00" stroke="#CC79A7" stroke-width="1.6" fill="white"/></g><text x="1040" y="132.00" font-size="11">C3</text><line x1="1016" y1="146.00" x2="1034" y2="146.00" stroke="#E69F00" stroke-width="2" stroke-dasharray="5 3"/><g><title>C4</title><polygon points="1020.70,142.40 1029.30,142.40 1025.00,150.60" stroke="#E69F00" stroke-width="1.6" fill="white"/></g><text x="1040" y="150.00" font-size="11">C4</text><line x1="1016" y1="164.00" x2="1034" y2="164.00" stroke="#56B4E9" stroke-width="2" stroke-dasharray="5 3"/><g><title>C5</title><path d="M 1021.00 164.00 H 1029.00 M 1025.00 160.00 V 168.00" stroke="#56B4E9" stroke-width="2" fill="none"/></g><text x="1040" y="168.00" font-size="11">C5</text><line x1="1016" y1="182.00" x2="1034" y2="182.00" stroke="#6F4E7C" stroke-width="2" stroke-dasharray="5 3"/><g><title>C6</title><path d="M 1021.50 178.50 L 1028.50 185.50 M 1028.50 178.50 L 1021.50 185.50" stroke="#6F4E7C" stroke-width="2" fill="none"/></g><text x="1040" y="186.00" font-size="11">C6</text><line x1="1016" y1="200.00" x2="1034" y2="200.00" stroke="#222222" stroke-width="2" stroke-dasharray="5 3"/><g><title>C7</title><polygon points="1020.80,200.00 1022.90,196.30 1027.10,196.30 1029.20,200.00 1027.10,203.70 1022.90,203.70" stroke="#222222" stroke-width="1.6" fill="white"/></g><text x="1040" y="204.00" font-size="11">C7</text><line x1="1016" y1="218.00" x2="1034" y2="218.00" stroke="#A0006D" stroke-width="2"/><g><title>N3</title><circle cx="1025.00" cy="218.00" r="4" stroke="#A0006D" stroke-width="1.6" fill="#A0006D"/></g><text x="1040" y="222.00" font-size="11">N3</text><line x1="1016" y1="236.00" x2="1034" y2="236.00" stroke="#7A3E00" stroke-width="2"/><g><title>N6</title><rect x="1021.20" y="232.20" width="7.6" height="7.6" stroke="#7A3E00" stroke-width="1.6" fill="#7A3E00"/></g><text x="1040" y="240.00" font-size="11">N6</text><line x1="1016" y1="254.00" x2="1034" y2="254.00" stroke="#117733" stroke-width="2"/><g><title>N8</title><polygon points="1025.00,249.40 1020.70,257.60 1029.30,257.60" stroke="#117733" stroke-width="1.6" fill="#117733"/></g><text x="1040" y="258.00" font-size="11">N8</text><line x1="1016" y1="272.00" x2="1034" y2="272.00" stroke="#332288" stroke-width="2"/><g><title>N23</title><polygon points="1025.00,267.50 1020.50,272.00 1025.00,276.50 1029.50,272.00" stroke="#332288" stroke-width="1.6" fill="#332288"/></g><text x="1040" y="276.00" font-size="11">N23</text>
<text x="537.0" y="694" text-anchor="middle" font-size="14">SNR (dB)</text>
<text x="22" y="347.0" text-anchor="middle" font-size="14" transform="rotate(-90 22 347.0)">BLER</text>
<text x="1016" y="692" font-size="11" fill="#555">dashed: CDD, solid: piecewise</text>
</svg>
