<svg xmlns="http://www.w3.org/2000/svg" width="1240" height="720" viewBox="0 0 1240 720">
<rect width="100%" height="100%" fill="white"/>
<text x="620.0" y="30" text-anchor="middle" font-size="18" font-family="Arial, sans-serif">Matched RMMSE NMSE, 48 PRB</text>
<line x1="84" y1="638" x2="990" y2="638" stroke="#333" stroke-width="1.2"/>
<line x1="84" y1="56" x2="84" y2="638" stroke="#333" stroke-width="1.2"/>
<line x1="117.56" y1="56" x2="117.56" y2="638" stroke="#e6e8eb"/><text x="117.56" y="662" font-size="12" text-anchor="middle">0</text><line x1="257.37" y1="56" x2="257.37" y2="638" stroke="#e6e8eb"/><text x="257.37" y="662" font-size="12" text-anchor="middle">4</text><line x1="397.19" y1="56" x2="397.19" y2="638" stroke="#e6e8eb"/><text x="397.19" y="662" font-size="12" text-anchor="middle">8</text><line x1="537.00" y1="56" x2="537.00" y2="638" stroke="#e6e8eb"/><text x="537.00" y="662" font-size="12" text-anchor="middle">12</text><line x1="676.81" y1="56" x2="676.81" y2="638" stroke="#e6e8eb"/><text x="676.81" y="662" font-size="12" text-anchor="middle">16</text><line x1="816.63" y1="56" x2="816.63" y2="638" stroke="#e6e8eb"/><text x="816.63" y="662" font-size="12" text-anchor="middle">20</text><line x1="956.44" y1="56" x2="956.44" y2="638" stroke="#e6e8eb"/><text x="956.44" y="662" font-size="12" text-anchor="middle">24</text><line x1="84" y1="580.03" x2="990" y2="580.03" stroke="#d9dde2"/><text x="76" y="584.03" font-size="12" text-anchor="end">1e-3</text><line x1="84" y1="366.93" x2="990" y2="366.93" stroke="#d9dde2"/><text x="76" y="370.93" font-size="12" text-anchor="end">1e-2</text><line x1="84" y1="153.84" x2="990" y2="153.84" stroke="#d9dde2"/><text x="76" y="157.84" font-size="12" text-anchor="end">1e-1</text><line x1="84" y1="515.88" x2="990" y2="515.88" stroke="#eef0f2"/><line x1="84" y1="431.08" x2="990" y2="431.08" stroke="#eef0f2"/><line x1="84" y1="302.78" x2="990" y2="302.78" stroke="#eef0f2"/><line x1="84" y1="217.98" x2="990" y2="217.98" stroke="#eef0f2"/><line x1="84" y1="89.69" x2="990" y2="89.69" stroke="#eef0f2"/>
<g><title>C0 CDD step=1</title><circle cx="117.56" cy="136.05" r="4" stroke="#0072B2" stroke-width="1.6" fill="white"/></g><g><title>C0 CDD step=1</title><circle cx="257.37" cy="205.73" r="4" stroke="#0072B2" stroke-width="1.6" fill="white"/></g><g><title>C0 CDD step=1</title><circle cx="397.19" cy="279.19" r="4" stroke="#0072B2" stroke-width="1.6" fill="white"/></g><g><title>C0 CDD step=1</title><circle cx="537.00" cy="354.40" r="4" stroke="#0072B2" stroke-width="1.6" fill="white"/></g><g><title>C0 CDD step=1</title><circle cx="676.81" cy="430.06" r="4" stroke="#0072B2" stroke-width="1.6" fill="white"/></g><g><title>C0 CDD step=1</title><circle cx="816.63" cy="506.94" r="4" stroke="#0072B2" stroke-width="1.6" fill="white"/></g><g><title>C0 CDD step=1</title><circle cx="956.44" cy="585.10" r="4" stroke="#0072B2" stroke-width="1.6" fill="white"/></g><polyline points="117.56,136.05 257.37,205.73 397.19,279.19 537.00,354.40 676.81,430.06 816.63,506.94 956.44,585.10" fill="none" stroke="#0072B2" stroke-width="2.1" stroke-dasharray="5 3"/><g><title>C1 CDD step=2</title><rect x="113.76" y="127.45" width="7.6" height="7.6" stroke="#D55E00" stroke-width="1.6" fill="white"/></g><g><title>C1 CDD step=2</title><rect x="253.57" y="200.81" width="7.6" height="7.6" stroke="#D55E00" stroke-width="1.6" fill="white"/></g><g><title>C1 CDD step=2</title><rect x="393.39" y="277.23" width="7.6" height="7.6" stroke="#D55E00" stroke-width="1.6" fill="white"/></g><g><title>C1 CDD step=2</title><rect x="533.20" y="354.90" width="7.6" height="7.6" stroke="#D55E00" stroke-width="1.6" fill="white"/></g><g><title>C1 CDD step=2</title><rect x="673.01" y="433.67" width="7.6" height="7.6" stroke="#D55E00" stroke-width="1.6" fill="white"/></g><g><title>C1 CDD step=2</title><rect x="812.83" y="513.36" width="7.6" height="7.6" stroke="#D55E00" stroke-width="1.6" fill="white"/></g><g><title>C1 CDD step=2</title><rect x="952.64" y="593.03" width="7.6" height="7.6" stroke="#D55E00" stroke-width="1.6" fill="white"/></g><polyline points="117.56,131.25 257.37,204.61 397.19,281.03 537.00,358.70 676.81,437.47 816.63,517.16 956.44,596.83" fill="none" stroke="#D55E00" stroke-width="2.1" stroke-dasharray="5 3"/><g><title>C2 CDD step=3</title><polygon points="117.56,126.98 113.26,135.18 121.86,135.18" stroke="#009E73" stroke-width="1.6" fill="white"/></g><g><title>C2 CDD step=3</title><polygon points="257.37,200.10 253.07,208.30 261.67,208.30" stroke="#009E73" stroke-width="1.6" fill="white"/></g><g><title>C2 CDD step=3</title><polygon points="397.19,276.82 392.89,285.02 401.49,285.02" stroke="#009E73" stroke-width="1.6" fill="white"/></g><g><title>C2 CDD step=3</title><polygon points="537.00,355.05 532.70,363.25 541.30,363.25" stroke="#009E73" stroke-width="1.6" fill="white"/></g><g><title>C2 CDD step=3</title><polygon points="676.81,434.20 672.51,442.40 681.11,442.40" stroke="#009E73" stroke-width="1.6" fill="white"/></g><g><title>C2 CDD step=3</title><polygon points="816.63,513.79 812.33,521.99 820.93,521.99" stroke="#009E73" stroke-width="1.6" fill="white"/></g><g><title>C2 CDD step=3</title><polygon points="956.44,593.26 952.14,601.46 960.74,601.46" stroke="#009E73" stroke-width="1.6" fill="white"/></g><polyline points="117.56,131.58 257.37,204.70 397.19,281.42 537.00,359.65 676.81,438.80 816.63,518.39 956.44,597.86" fill="none" stroke="#009E73" stroke-width="2.1" stroke-dasharray="5 3"/><g><title>C4 CDD step=5</title><polygon points="113.26,112.86 121.86,112.86 117.56,121.06" stroke="#E69F00" stroke-width="1.6" fill="white"/></g><g><title>C4 CDD step=5</title><polygon points="253.07,185.21 261.67,185.21 257.37,193.41" stroke="#E69F00" stroke-width="1.6" fill="white"/></g><g><title>C4 CDD step=5</title><polygon points="392.89,262.11 401.49,262.11 397.19,270.31" stroke="#E69F00" stroke-width="1.6" fill="white"/></g><g><title>C4 CDD step=5</title><polygon points="532.70,340.86 541.30,340.86 537.00,349.06" stroke="#E69F00" stroke-width="1.6" fill="white"/></g><g><title>C4 CDD step=5</title><polygon points="672.51,420.41 681.11,420.41 676.81,428.61" stroke="#E69F00" stroke-width="1.6" fill="white"/></g><g><title>C4 CDD step=5</title><polygon points="812.33,500.20 820.93,500.20 816.63,508.40" stroke="#E69F00" stroke-width="1.6" fill="white"/></g><g><title>C4 CDD step=5</title><polygon points="952.14,579.66 960.74,579.66 956.44,587.86" stroke="#E69F00" stroke-width="1.6" fill="white"/></g><polyline points="117.56,116.46 257.37,188.81 397.19,265.71 537.00,344.46 676.81,424.01 816.63,503.80 956.44,583.26" fill="none" stroke="#E69F00" stroke-width="2.1" stroke-dasharray="5 3"/><g><title>C5 CDD step=6</title><path d="M 113.56 108.23 H 121.56 M 117.56 104.23 V 112.23" stroke="#56B4E9" stroke-width="2" fill="none"/></g><g><title>C5 CDD step=6</title><path d="M 253.37 181.52 H 261.37 M 257.37 177.52 V 185.52" stroke="#56B4E9" stroke-width="2" fill="none"/></g><g><title>C5 CDD step=6</title><path d="M 393.19 259.69 H 401.19 M 397.19 255.69 V 263.69" stroke="#56B4E9" stroke-width="2" fill="none"/></g><g><title>C5 CDD step=6</title><path d="M 533.00 339.66 H 541.00 M 537.00 335.66 V 343.66" stroke="#56B4E9" stroke-width="2" fill="none"/></g><g><title>C5 CDD step=6</title><path d="M 672.81 419.78 H 680.81 M 676.81 415.78 V 423.78" stroke="#56B4E9" stroke-width="2" fill="none"/></g><g><title>C5 CDD step=6</title><path d="M 812.63 499.44 H 820.63 M 816.63 495.44 V 503.44" stroke="#56B4E9" stroke-width="2" fill="none"/></g><g><title>C5 CDD step=6</title><path d="M 952.44 578.38 H 960.44 M 956.44 574.38 V 582.38" stroke="#56B4E9" stroke-width="2" fill="none"/></g><polyline points="117.56,108.23 257.37,181.52 397.19,259.69 537.00,339.66 676.81,419.78 816.63,499.44 956.44,578.38" fill="none" stroke="#56B4E9" stroke-width="2.1" stroke-dasharray="5 3"/><g><title>C6 CDD step=7</title><path d="M 114.06 103.30 L 121.06 110.30 M 121.06 103.30 L 114.06 110.30" stroke="#6F4E7C" stroke-width="2" fill="none"/></g><g><title>C6 CDD step=7</title><path d="M 253.87 176.55 L 260.87 183.55 M 260.87 176.55 L 253.87 183.55" stroke="#6F4E7C" stroke-width="2" fill="none"/></g><g><title>C6 CDD step=7</title><path d="M 393.69 253.78 L 400.69 260.78 M 400.69 253.78 L 393.69 260.78" stroke="#6F4E7C" stroke-width="2" fill="none"/></g><g><title>C6 CDD step=7</title><path d="M 533.50 332.14 L 540.50 339.14 M 540.50 332.14 L 533.50 339.14" stroke="#6F4E7C" stroke-width="2" fill="none"/></g><g><title>C6 CDD step=7</title><path d="M 673.31 410.56 L 680.31 417.56 M 680.31 410.56 L 673.31 417.56" stroke="#6F4E7C" stroke-width="2" fill="none"/></g><g><title>C6 CDD step=7</title><path d="M 813.13 488.75 L 820.13 495.75 M 820.13 488.75 L 813.13 495.75" stroke="#6F4E7C" stroke-width="2" fill="none"/></g><g><title>C6 CDD step=7</title><path d="M 952.94 566.54 L 959.94 573.54 M 959.94 566.54 L 952.94 573.54" stroke="#6F4E7C" stroke-width="2" fill="none"/></g><polyline points="117.56,106.80 257.37,180.05 397.19,257.28 537.00,335.64 676.81,414.06 816.63,492.25 956.44,570.04" fill="none" stroke="#6F4E7C" stroke-width="2.1" stroke-dasharray="5 3"/><g><title>C7 CDD step=64</title><polygon points="113.36,100.93 115.46,97.23 119.66,97.23 121.76,100.93 119.66,104.63 115.46,104.63" stroke="#222222" stroke-width="1.6" fill="white"/></g><g><title>C7 CDD step=64</title><polygon points="253.17,166.31 255.27,162.61 259.47,162.61 261.57,166.31 259.47,170.01 255.27,170.01" stroke="#222222" stroke-width="1.6" fill="white"/></g><g><title>C7 CDD step=64</title><polygon points="392.99,231.66 395.09,227.96 399.29,227.96 401.39,231.66 399.29,235.36 395.09,235.36" stroke="#222222" stroke-width="1.6" fill="white"/></g><g><title>C7 CDD step=64</title><polygon points="532.80,298.11 534.90,294.41 539.10,294.41 541.20,298.11 539.10,301.81 534.90,301.81" stroke="#222222" stroke-width="1.6" fill="white"/></g><g><title>C7 CDD step=64</title><polygon points="672.61,368.77 674.71,365.07 678.91,365.07 681.01,368.77 678.91,372.47 674.71,372.47" stroke="#222222" stroke-width="1.6" fill="white"/></g><g><title>C7 CDD step=64</title><polygon points="812.43,442.44 814.53,438.74 818.73,438.74 820.83,442.44 818.73,446.14 814.53,446.14" stroke="#222222" stroke-width="1.6" fill="white"/></g><g><title>C7 CDD step=64</title><polygon points="952.24,514.83 954.34,511.13 958.54,511.13 960.64,514.83 958.54,518.53 954.34,518.53" stroke="#222222" stroke-width="1.6" fill="white"/></g><polyline points="117.56,100.93 257.37,166.31 397.19,231.66 537.00,298.11 676.81,368.77 816.63,442.44 956.44,514.83" fill="none" stroke="#222222" stroke-width="2.1" stroke-dasharray="5 3"/><g><title>N3 NS-A0503-M1_2_3_64-LR00-S537649365</title><circle cx="117.56" cy="101.05" r="4" stroke="#A0006D" stroke-width="1.6" fill="#A0006D"/></g><g><title>N3 NS-A0503-M1_2_3_64-LR00-S537649365</title><circle cx="257.37" cy="166.93" r="4" stroke="#A0006D" stroke-width="1.6" fill="#A0006D"/></g><g><title>N3 NS-A0503-M1_2_3_64-LR00-S537649365</title><circle cx="397.19" cy="237.34" r="4" stroke="#A0006D" stroke-width="1.6" fill="#A0006D"/></g><g><title>N3 NS-A0503-M1_2_3_64-LR00-S537649365</title><circle cx="537.00" cy="308.65" r="4" stroke="#A0006D" stroke-width="1.6" fill="#A0006D"/></g><g><title>N3 NS-A0503-M1_2_3_64-LR00-S537649365</title><circle cx="676.81" cy="379.89" r="4" stroke="#A0006D" stroke-width="1.6" fill="#A0006D"/></g><g><title>N3 NS-A0503-M1_2_3_64-LR00-S537649365</title><circle cx="816.63" cy="452.08" r="4" stroke="#A0006D" stroke-width="1.6" fill="#A0006D"/></g><g><title>N3 NS-A0503-M1_2_3_64-LR00-S537649365</title><circle cx="956.44" cy="526.14" r="4" stroke="#A0006D" stroke-width="1.6" fill="#A0006D"/></g><polyline points="117.56,101.05 257.37,166.93 397.19,237.34 537.00,308.65 676.81,379.89 816.63,452.08 956.44,526.14" fill="none" stroke="#A0006D" stroke-width="2.1"/><g><title>N6 NS-A0501-M1_3_4_64-LR00-S537649103</title><rect x="113.76" y="99.92" width="7.6" height="7.6" stroke="#7A3E00" stroke-width="1.6" fill="#7A3E00"/></g><g><title>N6 NS-A0501-M1_3_4_64-LR00-S537649103</title><rect x="253.57" y="165.58" width="7.6" height="7.6" stroke="#7A3E00" stroke-width="1.6" fill="#7A3E00"/></g><g><title>N6 NS-A0501-M1_3_4_64-LR00-S537649103</title><rect x="393.39" y="235.56" width="7.6" height="7.6" stroke="#7A3E00" stroke-width="1.6" fill="#7A3E00"/></g><g><title>N6 NS-A0501-M1_3_4_64-LR00-S537649103</title><rect x="533.20" y="306.78" width="7.6" height="7.6" stroke="#7A3E00" stroke-width="1.6" fill="#7A3E00"/></g><g><title>N6 NS-A0501-M1_3_4_64-LR00-S537649103</title><rect x="673.01" y="378.12" width="7.6" height="7.6" stroke="#7A3E00" stroke-width="1.6" fill="#7A3E00"/></g><g><title>N6 NS-A0501-M1_3_4_64-LR00-S537649103</title><rect x="812.83" y="450.12" width="7.6" height="7.6" stroke="#7A3E00" stroke-width="1.6" fill="#7A3E00"/></g><g><title>N6 NS-A0501-M1_3_4_64-LR00-S537649103</title><rect x="952.64" y="523.66" width="7.6" height="7.6" stroke="#7A3E00" stroke-width="1.6" fill="#7A3E00"/></g><polyline points="117.56,103.72 257.37,169.38 397.19,239.36 537.00,310.58 676.81,381.92 816.63,453.92 956.44,527.46" fill="none" stroke="#7A3E00" stroke-width="2.1"/><g><title>N8 NS-A0494-M3_4_6_64-LR00-S535555854</title><polygon points="117.56,92.14 113.26,100.34 121.86,100.34" stroke="#117733" stroke-width="1.6" fill="#117733"/></g><g><title>N8 NS-A0494-M3_4_6_64-LR00-S535555854</title><polygon points="257.37,157.75 253.07,165.95 261.67,165.95" stroke="#117733" stroke-width="1.6" fill="#117733"/></g><g><title>N8 NS-A0494-M3_4_6_64-LR00-S535555854</title><polygon points="397.19,227.97 392.89,236.17 401.49,236.17" stroke="#117733" stroke-width="1.6" fill="#117733"/></g><g><title>N8 NS-A0494-M3_4_6_64-LR00-S535555854</title><polygon points="537.00,298.98 532.70,307.18 541.30,307.18" stroke="#117733" stroke-width="1.6" fill="#117733"/></g><g><title>N8 NS-A0494-M3_4_6_64-LR00-S535555854</title><polygon points="676.81,370.18 672.51,378.38 681.11,378.38" stroke="#117733" stroke-width="1.6" fill="#117733"/></g><g><title>N8 NS-A0494-M3_4_6_64-LR00-S535555854</title><polygon points="816.63,443.07 812.33,451.27 820.93,451.27" stroke="#117733" stroke-width="1.6" fill="#117733"/></g><g><title>N8 NS-A0494-M3_4_6_64-LR00-S535555854</title><polygon points="956.44,518.31 952.14,526.51 960.74,526.51" stroke="#117733" stroke-width="1.6" fill="#117733"/></g><polyline points="117.56,96.74 257.37,162.35 397.19,232.57 537.00,303.58 676.81,374.78 816.63,447.67 956.44,522.91" fill="none" stroke="#117733" stroke-width="2.1"/><g><title>N23 NS-A0330-M1_4_6_48-LC</title><polygon points="117.56,91.64 113.06,96.14 117.56,100.64 122.06,96.14" stroke="#332288" stroke-width="1.6" fill="#332288"/></g><g><title>N23 NS-A0330-M1_4_6_48-LC</title><polygon points="257.37,159.26 252.87,163.76 257.37,168.26 261.87,163.76" stroke="#332288" stroke-width="1.6" fill="#332288"/></g><g><title>N23 NS-A0330-M1_4_6_48-LC</title><polygon points="397.19,231.88 392.69,236.38 397.19,240.88 401.69,236.38" stroke="#332288" stroke-width="1.6" fill="#332288"/></g><g><title>N23 NS-A0330-M1_4_6_48-LC</title><polygon points="537.00,306.03 532.50,310.53 537.00,315.03 541.50,310.53" stroke="#332288" stroke-width="1.6" fill="#332288"/></g><g><title>N23 NS-A0330-M1_4_6_48-LC</title><polygon points="676.81,380.29 672.31,384.79 676.81,389.29 681.31,384.79" stroke="#332288" stroke-width="1.6" fill="#332288"/></g><g><title>N23 NS-A0330-M1_4_6_48-LC</title><polygon points="816.63,454.36 812.13,458.86 816.63,463.36 821.13,458.86" stroke="#332288" stroke-width="1.6" fill="#332288"/></g><g><title>N23 NS-A0330-M1_4_6_48-LC</title><polygon points="956.44,528.79 951.94,533.29 956.44,537.79 960.94,533.29" stroke="#332288" stroke-width="1.6" fill="#332288"/></g><polyline points="117.56,96.14 257.37,163.76 397.19,236.38 537.00,310.53 676.81,384.79 816.63,458.86 956.44,533.29" fill="none" stroke="#332288" stroke-width="2.1"/>
<line x1="1016" y1="74.00" x2="1034" y2="74.00" stroke="#0072B2" stroke-width="2" stroke-dasharray="5 3"/><g><title>C0</title><circle cx="1025.00" cy="74.00" r="4" stroke="#0072B2" stroke-width="1.6" fill="white"/></g><text x="1040" y="78.00" font-size="11">C0</text><line x1="1016" y1="92.00" x2="1034" y2="92.00" stroke="#D55E00" stroke-width="2" stroke-dasharray="5 3"/><g><title>C1</title><rect x="1021.20" y="88.20" width="7.6" height="7.6" stroke="#D55E00" stroke-width="1.6" fill="white"/></g><text x="1040" y="96.00" font-size="11">C1</text><line x1="1016" y1="110.00" x2="1034" y2="110.00" stroke="#009E73" stroke-width="2" stroke-dasharray="5 3"/><g><title>C2</title><polygon points="1025.00,105.40 1020.70,113.60 1029.30,113.60" stroke="#009E73" stroke-width="1.6" fill="white"/></g><text x="1040" y="114.00" font-size="11">C2</text><line x1="1016" y1="128.00" x2="1034" y2="128.00" stroke="#E69F00" stroke-width="2" stroke-dasharray="5 3"/><g><title>C4</title><polygon points="1020.70,124.40 1029.30,124.40 1025.00,132.60" stroke="#E69F00" stroke-width="1.6" fill="white"/></g><text x="1040" y="132.00" font-size="11">C4</text><line x1="1016" y1="146.00" x2="1034" y2="146.00" stroke="#56B4E9" stroke-width="2" stroke-dasharray="5 3"/><g><title>C5</title><path d="M 1021.00 146.00 H 1029.00 M 1025.00 142.00 V 150.00" stroke="#56B4E9" stroke-width="2" fill="none"/></g><text x="1040" y="150.00" font-size="11">C5</text><line x1="1016" y1="164.00" x2="1034" y2="164.00" stroke="#6F4E7C" stroke-width="2" stroke-dasharray="5 3"/><g><title>C6</title><path d="M 1021.50 160.50 L 1028.50 167.50 M 1028.50 160.50 L 1021.50 167.50" stroke="#6F4E7C" stroke-width="2" fill="none"/></g><text x="1040" y="168.00" font-size="11">C6</text><line x1="1016" y1="182.00" x2="1034" y2="182.00" stroke="#222222" stroke-width="2" stroke-dasharray="5 3"/><g><title>C7</title><polygon points="1020.80,182.00 1022.90,178.30 1027.10,178.30 1029.20,182.00 1027.10,185.70 1022.90,185.70" stroke="#222222" stroke-width="1.6" fill="white"/></g><text x="1040" y="186.00" font-size="11">C7</text><line x1="1016" y1="200.00" x2="1034" y2="200.00" stroke="#A0006D" stroke-width="2"/><g><title>N3</title><circle cx="1025.00" cy="200.00" r="4" stroke="#A0006D" stroke-width="1.6" fill="#A0006D"/></g><text x="1040" y="204.00" font-size="11">N3</text><line x1="1016" y1="218.00" x2="1034" y2="218.00" stroke="#7A3E00" stroke-width="2"/><g><title>N6</title><rect x="1021.20" y="214.20" width="7.6" height="7.6" stroke="#7A3E00" stroke-width="1.6" fill="#7A3E00"/></g><text x="1040" y="222.00" font-size="11">N6</text><line x1="1016" y1="236.00" x2="1034" y2="236.00" stroke="#117733" stroke-width="2"/><g><title>N8</title><polygon points="1025.00,231.40 1020.70,239.60 1029.30,239.60" stroke="#117733" stroke-width="1.6" fill="#117733"/></g><text x="1040" y="240.00" font-size="11">N8</text><line x1="1016" y1="254.00" x2="1034" y2="254.00" stroke="#332288" stroke-width="2"/><g><title>N23</title><polygon points="1025.00,249.50 1020.50,254.00 1025.00,258.50 1029.50,254.00" stroke="#332288" stroke-width="1.6" fill="#332288"/></g><text x="1040" y="258.00" font-size="11">N23</text>
<text x="537.0" y="694" text-anchor="middle" font-size="14">SNR (dB)</text>
<text x="22" y="347.0" text-anchor="middle" font-size="14" transform="rotate(-90 22 347.0)">NMSE (log scale)</text>
<text x="1016" y="692" font-size="11" fill="#555">dashed: CDD, solid: piecewise</text>
</svg>
