<svg xmlns="http://www.w3.org/2000/svg" width="1240" height="720" viewBox="0 0 1240 720">
<rect width="100%" height="100%" fill="white"/>
<text x="620.0" y="30" text-anchor="middle" font-size="18" font-family="Arial, sans-serif">All Pareto BLER</text>
<line x1="84" y1="638" x2="990" y2="638" stroke="#333" stroke-width="1.2"/>
<line x1="84" y1="56" x2="84" y2="638" stroke="#333" stroke-width="1.2"/>
<line x1="84.00" y1="56" x2="84.00" y2="638" stroke="#e6e8eb"/><text x="84.00" y="662" font-size="12" text-anchor="middle">9.6</text><line x1="265.20" y1="56" x2="265.20" y2="638" stroke="#e6e8eb"/><text x="265.20" y="662" font-size="12" text-anchor="middle">11.8</text><line x1="446.40" y1="56" x2="446.40" y2="638" stroke="#e6e8eb"/><text x="446.40" y="662" font-size="12" text-anchor="middle">13.9</text><line x1="627.60" y1="56" x2="627.60" y2="638" stroke="#e6e8eb"/><text x="627.60" y="662" font-size="12" text-anchor="middle">16.1</text><line x1="808.80" y1="56" x2="808.80" y2="638" stroke="#e6e8eb"/><text x="808.80" y="662" font-size="12" text-anchor="middle">18.2</text><line x1="990.00" y1="56" x2="990.00" y2="638" stroke="#e6e8eb"/><text x="990.00" y="662" font-size="12" text-anchor="middle">20.4</text><line x1="84" y1="638.00" x2="990" y2="638.00" stroke="#e6e8eb"/><text x="76" y="642.00" font-size="12" text-anchor="end">4.79e-05</text><line x1="84" y1="521.60" x2="990" y2="521.60" stroke="#e6e8eb"/><text x="76" y="525.60" font-size="12" text-anchor="end">0.000405</text><line x1="84" y1="405.20" x2="990" y2="405.20" stroke="#e6e8eb"/><text x="76" y="409.20" font-size="12" text-anchor="end">0.00343</text><line x1="84" y1="288.80" x2="990" y2="288.80" stroke="#e6e8eb"/><text x="76" y="292.80" font-size="12" text-anchor="end">0.029</text><line x1="84" y1="172.40" x2="990" y2="172.40" stroke="#e6e8eb"/><text x="76" y="176.40" font-size="12" text-anchor="end">0.245</text><line x1="84" y1="56.00" x2="990" y2="56.00" stroke="#e6e8eb"/><text x="76" y="60.00" font-size="12" text-anchor="end">2.07</text>
<line x1="84" y1="221.30" x2="990" y2="221.30" stroke="#111" stroke-width="1" stroke-dasharray="5 4"/><text x="998" y="225.30" font-size="11" fill="#111">0.1</text><line x1="84" y1="346.82" x2="990" y2="346.82" stroke="#111" stroke-width="1" stroke-dasharray="5 4"/><text x="998" y="350.82" font-size="11" fill="#111">0.01</text><circle cx="117.56" cy="111.70" r="3.2" fill="#0b3c5d"><title>C1 CDD step=2</title></circle><circle cx="285.33" cy="129.36" r="3.2" fill="#0b3c5d"><title>C1 CDD step=2</title></circle><circle cx="453.11" cy="170.62" r="3.2" fill="#0b3c5d"><title>C1 CDD step=2</title></circle><circle cx="537.00" cy="180.85" r="3.2" fill="#0b3c5d"><title>C1 CDD step=2</title></circle><circle cx="620.89" cy="189.25" r="3.2" fill="#0b3c5d"><title>C1 CDD step=2</title></circle><circle cx="704.78" cy="227.04" r="3.2" fill="#0b3c5d"><title>C1 CDD step=2</title></circle><circle cx="788.67" cy="240.74" r="3.2" fill="#0b3c5d"><title>C1 CDD step=2</title></circle><circle cx="956.44" cy="293.35" r="3.2" fill="#0b3c5d"><title>C1 CDD step=2</title></circle><polyline points="117.56,111.70 285.33,129.36 453.11,170.62 537.00,180.85 620.89,189.25 704.78,227.04 788.67,240.74 956.44,293.35" fill="none" stroke="#0b3c5d" stroke-width="1.7" stroke-dasharray="5 3"/><text x="961.44" y="297.35" font-size="10" fill="#0b3c5d" font-weight="700">C1</text><circle cx="117.56" cy="106.81" r="3.2" fill="#1d5f8a"><title>C2 CDD step=3</title></circle><circle cx="285.33" cy="128.69" r="3.2" fill="#1d5f8a"><title>C2 CDD step=3</title></circle><circle cx="453.11" cy="169.21" r="3.2" fill="#1d5f8a"><title>C2 CDD step=3</title></circle><circle cx="537.00" cy="189.25" r="3.2" fill="#1d5f8a"><title>C2 CDD step=3</title></circle><circle cx="620.89" cy="206.99" r="3.2" fill="#1d5f8a"><title>C2 CDD step=3</title></circle><circle cx="704.78" cy="246.20" r="3.2" fill="#1d5f8a"><title>C2 CDD step=3</title></circle><circle cx="788.67" cy="259.08" r="3.2" fill="#1d5f8a"><title>C2 CDD step=3</title></circle><circle cx="956.44" cy="331.14" r="3.2" fill="#1d5f8a"><title>C2 CDD step=3</title></circle><polyline points="117.56,106.81 285.33,128.69 453.11,169.21 537.00,189.25 620.89,206.99 704.78,246.20 788.67,259.08 956.44,331.14" fill="none" stroke="#1d5f8a" stroke-width="1.7" stroke-dasharray="5 3"/><text x="961.44" y="335.14" font-size="10" fill="#1d5f8a" font-weight="700">C2</text><circle cx="117.56" cy="104.63" r="3.2" fill="#2f7fb0"><title>C3 CDD step=4</title></circle><circle cx="285.33" cy="125.16" r="3.2" fill="#2f7fb0"><title>C3 CDD step=4</title></circle><circle cx="453.11" cy="174.33" r="3.2" fill="#2f7fb0"><title>C3 CDD step=4</title></circle><circle cx="537.00" cy="201.67" r="3.2" fill="#2f7fb0"><title>C3 CDD step=4</title></circle><circle cx="620.89" cy="217.78" r="3.2" fill="#2f7fb0"><title>C3 CDD step=4</title></circle><circle cx="704.78" cy="259.08" r="3.2" fill="#2f7fb0"><title>C3 CDD step=4</title></circle><circle cx="788.67" cy="286.93" r="3.2" fill="#2f7fb0"><title>C3 CDD step=4</title></circle><circle cx="956.44" cy="331.14" r="3.2" fill="#2f7fb0"><title>C3 CDD step=4</title></circle><polyline points="117.56,104.63 285.33,125.16 453.11,174.33 537.00,201.67 620.89,217.78 704.78,259.08 788.67,286.93 956.44,331.14" fill="none" stroke="#2f7fb0" stroke-width="1.7" stroke-dasharray="5 3"/><text x="961.44" y="335.14" font-size="10" fill="#2f7fb0" font-weight="700">C3</text><circle cx="117.56" cy="103.78" r="3.2" fill="#5398c6"><title>C4 CDD step=5</title></circle><circle cx="285.33" cy="122.42" r="3.2" fill="#5398c6"><title>C4 CDD step=5</title></circle><circle cx="453.11" cy="174.33" r="3.2" fill="#5398c6"><title>C4 CDD step=5</title></circle><circle cx="537.00" cy="209.86" r="3.2" fill="#5398c6"><title>C4 CDD step=5</title></circle><circle cx="620.89" cy="229.10" r="3.2" fill="#5398c6"><title>C4 CDD step=5</title></circle><circle cx="704.78" cy="281.18" r="3.2" fill="#5398c6"><title>C4 CDD step=5</title></circle><circle cx="788.67" cy="309.03" r="3.2" fill="#5398c6"><title>C4 CDD step=5</title></circle><circle cx="956.44" cy="346.82" r="3.2" fill="#5398c6"><title>C4 CDD step=5</title></circle><polyline points="117.56,103.78 285.33,122.42 453.11,174.33 537.00,209.86 620.89,229.10 704.78,281.18 788.67,309.03 956.44,346.82" fill="none" stroke="#5398c6" stroke-width="1.7" stroke-dasharray="5 3"/><text x="961.44" y="350.82" font-size="10" fill="#5398c6" font-weight="700">C4</text><circle cx="117.56" cy="100.72" r="3.2" fill="#83b7d8"><title>C5 CDD step=6</title></circle><circle cx="285.33" cy="122.42" r="3.2" fill="#83b7d8"><title>C5 CDD step=6</title></circle><circle cx="453.11" cy="184.43" r="3.2" fill="#83b7d8"><title>C5 CDD step=6</title></circle><circle cx="537.00" cy="208.41" r="3.2" fill="#83b7d8"><title>C5 CDD step=6</title></circle><circle cx="620.89" cy="240.74" r="3.2" fill="#83b7d8"><title>C5 CDD step=6</title></circle><circle cx="704.78" cy="331.14" r="3.2" fill="#83b7d8"><title>C5 CDD step=6</title></circle><circle cx="788.67" cy="318.97" r="3.2" fill="#83b7d8"><title>C5 CDD step=6</title></circle><circle cx="956.44" cy="406.71" r="3.2" fill="#83b7d8"><title>C5 CDD step=6</title></circle><polyline points="117.56,100.72 285.33,122.42 453.11,184.43 537.00,208.41 620.89,240.74 704.78,331.14 788.67,318.97 956.44,406.71" fill="none" stroke="#83b7d8" stroke-width="1.7" stroke-dasharray="5 3"/><text x="961.44" y="410.71" font-size="10" fill="#83b7d8" font-weight="700">C5</text><circle cx="117.56" cy="100.32" r="3.2" fill="#b6d3e8"><title>C6 CDD step=7</title></circle><circle cx="285.33" cy="120.96" r="3.2" fill="#b6d3e8"><title>C6 CDD step=7</title></circle><circle cx="453.11" cy="179.15" r="3.2" fill="#b6d3e8"><title>C6 CDD step=7</title></circle><circle cx="537.00" cy="216.10" r="3.2" fill="#b6d3e8"><title>C6 CDD step=7</title></circle><circle cx="620.89" cy="235.78" r="3.2" fill="#b6d3e8"><title>C6 CDD step=7</title></circle><circle cx="704.78" cy="331.14" r="3.2" fill="#b6d3e8"><title>C6 CDD step=7</title></circle><circle cx="788.67" cy="331.14" r="3.2" fill="#b6d3e8"><title>C6 CDD step=7</title></circle><circle cx="956.44" cy="406.71" r="3.2" fill="#b6d3e8"><title>C6 CDD step=7</title></circle><polyline points="117.56,100.32 285.33,120.96 453.11,179.15 537.00,216.10 620.89,235.78 704.78,331.14 788.67,331.14 956.44,406.71" fill="none" stroke="#b6d3e8" stroke-width="1.7" stroke-dasharray="5 3"/><text x="961.44" y="410.71" font-size="10" fill="#b6d3e8" font-weight="700">C6</text><circle cx="117.56" cy="97.43" r="3.2" fill="#5a6f82"><title>C7 CDD step=64</title></circle><circle cx="285.33" cy="110.97" r="3.2" fill="#5a6f82"><title>C7 CDD step=64</title></circle><circle cx="453.11" cy="160.80" r="3.2" fill="#5a6f82"><title>C7 CDD step=64</title></circle><circle cx="537.00" cy="192.37" r="3.2" fill="#5a6f82"><title>C7 CDD step=64</title></circle><circle cx="620.89" cy="225.06" r="3.2" fill="#5a6f82"><title>C7 CDD step=64</title></circle><circle cx="704.78" cy="300.63" r="3.2" fill="#5a6f82"><title>C7 CDD step=64</title></circle><circle cx="788.67" cy="331.14" r="3.2" fill="#5a6f82"><title>C7 CDD step=64</title></circle><circle cx="956.44" cy="406.71" r="3.2" fill="#5a6f82"><title>C7 CDD step=64</title></circle><polyline points="117.56,97.43 285.33,110.97 453.11,160.80 537.00,192.37 620.89,225.06 704.78,300.63 788.67,331.14 956.44,406.71" fill="none" stroke="#5a6f82" stroke-width="1.7" stroke-dasharray="5 3"/><text x="961.44" y="410.71" font-size="10" fill="#5a6f82" font-weight="700">C7</text><circle cx="117.56" cy="111.94" r="3.2" fill="#8a1c7c"><title>P1 PW cont random slope=4 #938</title></circle><circle cx="285.33" cy="126.74" r="3.2" fill="#8a1c7c"><title>P1 PW cont random slope=4 #938</title></circle><circle cx="453.11" cy="163.25" r="3.2" fill="#8a1c7c"><title>P1 PW cont random slope=4 #938</title></circle><circle cx="537.00" cy="175.11" r="3.2" fill="#8a1c7c"><title>P1 PW cont random slope=4 #938</title></circle><circle cx="620.89" cy="194.55" r="3.2" fill="#8a1c7c"><title>P1 PW cont random slope=4 #938</title></circle><circle cx="704.78" cy="238.20" r="3.2" fill="#8a1c7c"><title>P1 PW cont random slope=4 #938</title></circle><circle cx="788.67" cy="246.20" r="3.2" fill="#8a1c7c"><title>P1 PW cont random slope=4 #938</title></circle><circle cx="956.44" cy="346.82" r="3.2" fill="#8a1c7c"><title>P1 PW cont random slope=4 #938</title></circle><polyline points="117.56,111.94 285.33,126.74 453.11,163.25 537.00,175.11 620.89,194.55 704.78,238.20 788.67,246.20 956.44,346.82" fill="none" stroke="#8a1c7c" stroke-width="1.7"/><text x="961.44" y="350.82" font-size="10" fill="#8a1c7c" font-weight="700">P1</text><circle cx="117.56" cy="107.49" r="3.2" fill="#b12a90"><title>P2 PW cont random slope=4 #939</title></circle><circle cx="285.33" cy="126.74" r="3.2" fill="#b12a90"><title>P2 PW cont random slope=4 #939</title></circle><circle cx="453.11" cy="171.35" r="3.2" fill="#b12a90"><title>P2 PW cont random slope=4 #939</title></circle><circle cx="537.00" cy="193.45" r="3.2" fill="#b12a90"><title>P2 PW cont random slope=4 #939</title></circle><circle cx="620.89" cy="209.86" r="3.2" fill="#b12a90"><title>P2 PW cont random slope=4 #939</title></circle><circle cx="704.78" cy="243.40" r="3.2" fill="#b12a90"><title>P2 PW cont random slope=4 #939</title></circle><circle cx="788.67" cy="271.25" r="3.2" fill="#b12a90"><title>P2 PW cont random slope=4 #939</title></circle><circle cx="956.44" cy="597.86" r="3.2" fill="#b12a90"><title>P2 PW cont random slope=4 #939</title></circle><polyline points="117.56,107.49 285.33,126.74 453.11,171.35 537.00,193.45 620.89,209.86 704.78,243.40 788.67,271.25 956.44,597.86" fill="none" stroke="#b12a90" stroke-width="1.7"/><text x="961.44" y="601.86" font-size="10" fill="#b12a90" font-weight="700">P2</text><circle cx="117.56" cy="107.71" r="3.2" fill="#d34c8f"><title>P3 PW cont random slope=4 #940</title></circle><circle cx="285.33" cy="123.62" r="3.2" fill="#d34c8f"><title>P3 PW cont random slope=4 #940</title></circle><circle cx="453.11" cy="162.02" r="3.2" fill="#d34c8f"><title>P3 PW cont random slope=4 #940</title></circle><circle cx="537.00" cy="183.51" r="3.2" fill="#d34c8f"><title>P3 PW cont random slope=4 #940</title></circle><circle cx="620.89" cy="202.95" r="3.2" fill="#d34c8f"><title>P3 PW cont random slope=4 #940</title></circle><circle cx="704.78" cy="249.14" r="3.2" fill="#d34c8f"><title>P3 PW cont random slope=4 #940</title></circle><circle cx="788.67" cy="259.08" r="3.2" fill="#d34c8f"><title>P3 PW cont random slope=4 #940</title></circle><circle cx="956.44" cy="318.97" r="3.2" fill="#d34c8f"><title>P3 PW cont random slope=4 #940</title></circle><polyline points="117.56,107.71 285.33,123.62 453.11,162.02 537.00,183.51 620.89,202.95 704.78,249.14 788.67,259.08 956.44,318.97" fill="none" stroke="#d34c8f" stroke-width="1.7"/><text x="961.44" y="322.97" font-size="10" fill="#d34c8f" font-weight="700">P3</text><circle cx="117.56" cy="107.71" r="3.2" fill="#e76f51"><title>P4 PW cont cyclic slope=4</title></circle><circle cx="285.33" cy="126.74" r="3.2" fill="#e76f51"><title>P4 PW cont cyclic slope=4</title></circle><circle cx="453.11" cy="171.35" r="3.2" fill="#e76f51"><title>P4 PW cont cyclic slope=4</title></circle><circle cx="537.00" cy="195.67" r="3.2" fill="#e76f51"><title>P4 PW cont cyclic slope=4</title></circle><circle cx="620.89" cy="214.47" r="3.2" fill="#e76f51"><title>P4 PW cont cyclic slope=4</title></circle><circle cx="704.78" cy="271.25" r="3.2" fill="#e76f51"><title>P4 PW cont cyclic slope=4</title></circle><circle cx="788.67" cy="262.84" r="3.2" fill="#e76f51"><title>P4 PW cont cyclic slope=4</title></circle><circle cx="956.44" cy="368.92" r="3.2" fill="#e76f51"><title>P4 PW cont cyclic slope=4</title></circle><polyline points="117.56,107.71 285.33,126.74 453.11,171.35 537.00,195.67 620.89,214.47 704.78,271.25 788.67,262.84 956.44,368.92" fill="none" stroke="#e76f51" stroke-width="1.7"/><text x="961.44" y="372.92" font-size="10" fill="#e76f51" font-weight="700">P4</text><circle cx="117.56" cy="103.16" r="3.2" fill="#f4a261"><title>P5 PW cont random slope=6 #201</title></circle><circle cx="285.33" cy="125.78" r="3.2" fill="#f4a261"><title>P5 PW cont random slope=6 #201</title></circle><circle cx="453.11" cy="179.15" r="3.2" fill="#f4a261"><title>P5 PW cont random slope=6 #201</title></circle><circle cx="537.00" cy="195.67" r="3.2" fill="#f4a261"><title>P5 PW cont random slope=6 #201</title></circle><circle cx="620.89" cy="233.46" r="3.2" fill="#f4a261"><title>P5 PW cont random slope=6 #201</title></circle><circle cx="704.78" cy="252.26" r="3.2" fill="#f4a261"><title>P5 PW cont random slope=6 #201</title></circle><circle cx="788.67" cy="271.25" r="3.2" fill="#f4a261"><title>P5 PW cont random slope=6 #201</title></circle><circle cx="956.44" cy="318.97" r="3.2" fill="#f4a261"><title>P5 PW cont random slope=6 #201</title></circle><polyline points="117.56,103.16 285.33,125.78 453.11,179.15 537.00,195.67 620.89,233.46 704.78,252.26 788.67,271.25 956.44,318.97" fill="none" stroke="#f4a261" stroke-width="1.7"/><text x="961.44" y="322.97" font-size="10" fill="#f4a261" font-weight="700">P5</text><circle cx="117.56" cy="102.95" r="3.2" fill="#2a9d8f"><title>P6 PW cont cyclic slope=6</title></circle><circle cx="285.33" cy="124.85" r="3.2" fill="#2a9d8f"><title>P6 PW cont cyclic slope=6</title></circle><circle cx="453.11" cy="173.57" r="3.2" fill="#2a9d8f"><title>P6 PW cont cyclic slope=6</title></circle><circle cx="537.00" cy="223.14" r="3.2" fill="#2a9d8f"><title>P6 PW cont cyclic slope=6</title></circle><circle cx="620.89" cy="216.10" r="3.2" fill="#2a9d8f"><title>P6 PW cont cyclic slope=6</title></circle><circle cx="704.78" cy="293.35" r="3.2" fill="#2a9d8f"><title>P6 PW cont cyclic slope=6</title></circle><circle cx="788.67" cy="346.82" r="3.2" fill="#2a9d8f"><title>P6 PW cont cyclic slope=6</title></circle><circle cx="956.44" cy="406.71" r="3.2" fill="#2a9d8f"><title>P6 PW cont cyclic slope=6</title></circle><polyline points="117.56,102.95 285.33,124.85 453.11,173.57 537.00,223.14 620.89,216.10 704.78,293.35 788.67,346.82 956.44,406.71" fill="none" stroke="#2a9d8f" stroke-width="1.7"/><text x="961.44" y="410.71" font-size="10" fill="#2a9d8f" font-weight="700">P6</text><circle cx="117.56" cy="101.32" r="3.2" fill="#168aad"><title>P7 PW cont cyclic slope=8</title></circle><circle cx="285.33" cy="121.54" r="3.2" fill="#168aad"><title>P7 PW cont cyclic slope=8</title></circle><circle cx="453.11" cy="180.85" r="3.2" fill="#168aad"><title>P7 PW cont cyclic slope=8</title></circle><circle cx="537.00" cy="211.36" r="3.2" fill="#168aad"><title>P7 PW cont cyclic slope=8</title></circle><circle cx="620.89" cy="231.23" r="3.2" fill="#168aad"><title>P7 PW cont cyclic slope=8</title></circle><circle cx="704.78" cy="300.63" r="3.2" fill="#168aad"><title>P7 PW cont cyclic slope=8</title></circle><circle cx="788.67" cy="318.97" r="3.2" fill="#168aad"><title>P7 PW cont cyclic slope=8</title></circle><circle cx="956.44" cy="597.86" r="3.2" fill="#168aad"><title>P7 PW cont cyclic slope=8</title></circle><polyline points="117.56,101.32 285.33,121.54 453.11,180.85 537.00,211.36 620.89,231.23 704.78,300.63 788.67,318.97 956.44,597.86" fill="none" stroke="#168aad" stroke-width="1.7"/><text x="961.44" y="601.86" font-size="10" fill="#168aad" font-weight="700">P7</text><circle cx="117.56" cy="98.38" r="3.2" fill="#4361ee"><title>P8 PW cont cyclic slope=16</title></circle><circle cx="285.33" cy="117.33" r="3.2" fill="#4361ee"><title>P8 PW cont cyclic slope=16</title></circle><circle cx="453.11" cy="174.33" r="3.2" fill="#4361ee"><title>P8 PW cont cyclic slope=16</title></circle><circle cx="537.00" cy="205.61" r="3.2" fill="#4361ee"><title>P8 PW cont cyclic slope=16</title></circle><circle cx="620.89" cy="275.99" r="3.2" fill="#4361ee"><title>P8 PW cont cyclic slope=16</title></circle><circle cx="704.78" cy="331.14" r="3.2" fill="#4361ee"><title>P8 PW cont cyclic slope=16</title></circle><circle cx="788.67" cy="368.92" r="3.2" fill="#4361ee"><title>P8 PW cont cyclic slope=16</title></circle><circle cx="956.44" cy="368.92" r="3.2" fill="#4361ee"><title>P8 PW cont cyclic slope=16</title></circle><polyline points="117.56,98.38 285.33,117.33 453.11,174.33 537.00,205.61 620.89,275.99 704.78,331.14 788.67,368.92 956.44,368.92" fill="none" stroke="#4361ee" stroke-width="1.7"/><text x="961.44" y="372.92" font-size="10" fill="#4361ee" font-weight="700">P8</text><circle cx="117.56" cy="96.51" r="3.2" fill="#6a4c93"><title>P9 PW cont cyclic slope=24</title></circle><circle cx="285.33" cy="110.73" r="3.2" fill="#6a4c93"><title>P9 PW cont cyclic slope=24</title></circle><circle cx="453.11" cy="169.21" r="3.2" fill="#6a4c93"><title>P9 PW cont cyclic slope=24</title></circle><circle cx="537.00" cy="204.27" r="3.2" fill="#6a4c93"><title>P9 PW cont cyclic slope=24</title></circle><circle cx="620.89" cy="246.20" r="3.2" fill="#6a4c93"><title>P9 PW cont cyclic slope=24</title></circle><circle cx="704.78" cy="286.93" r="3.2" fill="#6a4c93"><title>P9 PW cont cyclic slope=24</title></circle><circle cx="788.67" cy="368.92" r="3.2" fill="#6a4c93"><title>P9 PW cont cyclic slope=24</title></circle><circle cx="956.44" cy="406.71" r="3.2" fill="#6a4c93"><title>P9 PW cont cyclic slope=24</title></circle><polyline points="117.56,96.51 285.33,110.73 453.11,169.21 537.00,204.27 620.89,246.20 704.78,286.93 788.67,368.92 956.44,406.71" fill="none" stroke="#6a4c93" stroke-width="1.7"/><text x="961.44" y="410.71" font-size="10" fill="#6a4c93" font-weight="700">P9</text><circle cx="117.56" cy="96.14" r="3.2" fill="#7cb342"><title>P10 PW cont cyclic slope=32</title></circle><circle cx="285.33" cy="105.49" r="3.2" fill="#7cb342"><title>P10 PW cont cyclic slope=32</title></circle><circle cx="453.11" cy="148.04" r="3.2" fill="#7cb342"><title>P10 PW cont cyclic slope=32</title></circle><circle cx="537.00" cy="171.35" r="3.2" fill="#7cb342"><title>P10 PW cont cyclic slope=32</title></circle><circle cx="620.89" cy="200.42" r="3.2" fill="#7cb342"><title>P10 PW cont cyclic slope=32</title></circle><circle cx="704.78" cy="266.88" r="3.2" fill="#7cb342"><title>P10 PW cont cyclic slope=32</title></circle><circle cx="788.67" cy="286.93" r="3.2" fill="#7cb342"><title>P10 PW cont cyclic slope=32</title></circle><circle cx="956.44" cy="406.71" r="3.2" fill="#7cb342"><title>P10 PW cont cyclic slope=32</title></circle><polyline points="117.56,96.14 285.33,105.49 453.11,148.04 537.00,171.35 620.89,200.42 704.78,266.88 788.67,286.93 956.44,406.71" fill="none" stroke="#7cb342" stroke-width="1.7"/><text x="961.44" y="410.71" font-size="10" fill="#7cb342" font-weight="700">P10</text><circle cx="117.56" cy="97.62" r="3.2" fill="#455a64"><title>P11 PW cont cyclic slope=48</title></circle><circle cx="285.33" cy="107.94" r="3.2" fill="#455a64"><title>P11 PW cont cyclic slope=48</title></circle><circle cx="453.11" cy="156.76" r="3.2" fill="#455a64"><title>P11 PW cont cyclic slope=48</title></circle><circle cx="537.00" cy="188.25" r="3.2" fill="#455a64"><title>P11 PW cont cyclic slope=48</title></circle><circle cx="620.89" cy="225.06" r="3.2" fill="#455a64"><title>P11 PW cont cyclic slope=48</title></circle><circle cx="704.78" cy="275.99" r="3.2" fill="#455a64"><title>P11 PW cont cyclic slope=48</title></circle><circle cx="788.67" cy="346.82" r="3.2" fill="#455a64"><title>P11 PW cont cyclic slope=48</title></circle><circle cx="956.44" cy="406.71" r="3.2" fill="#455a64"><title>P11 PW cont cyclic slope=48</title></circle><polyline points="117.56,97.62 285.33,107.94 453.11,156.76 537.00,188.25 620.89,225.06 704.78,275.99 788.67,346.82 956.44,406.71" fill="none" stroke="#455a64" stroke-width="1.7"/><text x="961.44" y="410.71" font-size="10" fill="#455a64" font-weight="700">P11</text><circle cx="117.56" cy="96.87" r="3.2" fill="#bf6f1d"><title>P12 PW cont cyclic slope=64</title></circle><circle cx="285.33" cy="112.68" r="3.2" fill="#bf6f1d"><title>P12 PW cont cyclic slope=64</title></circle><circle cx="453.11" cy="169.91" r="3.2" fill="#bf6f1d"><title>P12 PW cont cyclic slope=64</title></circle><circle cx="537.00" cy="202.95" r="3.2" fill="#bf6f1d"><title>P12 PW cont cyclic slope=64</title></circle><circle cx="620.89" cy="223.14" r="3.2" fill="#bf6f1d"><title>P12 PW cont cyclic slope=64</title></circle><circle cx="704.78" cy="309.03" r="3.2" fill="#bf6f1d"><title>P12 PW cont cyclic slope=64</title></circle><circle cx="788.67" cy="368.92" r="3.2" fill="#bf6f1d"><title>P12 PW cont cyclic slope=64</title></circle><circle cx="956.44" cy="368.92" r="3.2" fill="#bf6f1d"><title>P12 PW cont cyclic slope=64</title></circle><polyline points="117.56,96.87 285.33,112.68 453.11,169.91 537.00,202.95 620.89,223.14 704.78,309.03 788.67,368.92 956.44,368.92" fill="none" stroke="#bf6f1d" stroke-width="1.7"/><text x="961.44" y="372.92" font-size="10" fill="#bf6f1d" font-weight="700">P12</text>
<line x1="1016" y1="74.00" x2="1034" y2="74.00" stroke="#0b3c5d" stroke-width="2" stroke-dasharray="5 3"/><text x="1040" y="78.00" font-size="11">C1</text><line x1="1016" y1="92.00" x2="1034" y2="92.00" stroke="#1d5f8a" stroke-width="2" stroke-dasharray="5 3"/><text x="1040" y="96.00" font-size="11">C2</text><line x1="1016" y1="110.00" x2="1034" y2="110.00" stroke="#2f7fb0" stroke-width="2" stroke-dasharray="5 3"/><text x="1040" y="114.00" font-size="11">C3</text><line x1="1016" y1="128.00" x2="1034" y2="128.00" stroke="#5398c6" stroke-width="2" stroke-dasharray="5 3"/><text x="1040" y="132.00" font-size="11">C4</text><line x1="1016" y1="146.00" x2="1034" y2="146.00" stroke="#83b7d8" stroke-width="2" stroke-dasharray="5 3"/><text x="1040" y="150.00" font-size="11">C5</text><line x1="1016" y1="164.00" x2="1034" y2="164.00" stroke="#b6d3e8" stroke-width="2" stroke-dasharray="5 3"/><text x="1040" y="168.00" font-size="11">C6</text><line x1="1016" y1="182.00" x2="1034" y2="182.00" stroke="#5a6f82" stroke-width="2" stroke-dasharray="5 3"/><text x="1040" y="186.00" font-size="11">C7</text><line x1="1016" y1="200.00" x2="1034" y2="200.00" stroke="#8a1c7c" stroke-width="2"/><text x="1040" y="204.00" font-size="11">P1</text><line x1="1016" y1="218.00" x2="1034" y2="218.00" stroke="#b12a90" stroke-width="2"/><text x="1040" y="222.00" font-size="11">P2</text><line x1="1016" y1="236.00" x2="1034" y2="236.00" stroke="#d34c8f" stroke-width="2"/><text x="1040" y="240.00" font-size="11">P3</text><line x1="1016" y1="254.00" x2="1034" y2="254.00" stroke="#e76f51" stroke-width="2"/><text x="1040" y="258.00" font-size="11">P4</text><line x1="1016" y1="272.00" x2="1034" y2="272.00" stroke="#f4a261" stroke-width="2"/><text x="1040" y="276.00" font-size="11">P5</text><line x1="1016" y1="290.00" x2="1034" y2="290.00" stroke="#2a9d8f" stroke-width="2"/><text x="1040" y="294.00" font-size="11">P6</text><line x1="1016" y1="308.00" x2="1034" y2="308.00" stroke="#168aad" stroke-width="2"/><text x="1040" y="312.00" font-size="11">P7</text><line x1="1016" y1="326.00" x2="1034" y2="326.00" stroke="#4361ee" stroke-width="2"/><text x="1040" y="330.00" font-size="11">P8</text><line x1="1016" y1="344.00" x2="1034" y2="344.00" stroke="#6a4c93" stroke-width="2"/><text x="1040" y="348.00" font-size="11">P9</text><line x1="1016" y1="362.00" x2="1034" y2="362.00" stroke="#7cb342" stroke-width="2"/><text x="1040" y="366.00" font-size="11">P10</text><line x1="1016" y1="380.00" x2="1034" y2="380.00" stroke="#455a64" stroke-width="2"/><text x="1040" y="384.00" font-size="11">P11</text><line x1="1016" y1="398.00" x2="1034" y2="398.00" stroke="#bf6f1d" stroke-width="2"/><text x="1040" y="402.00" font-size="11">P12</text>
<text x="537.0" y="694" text-anchor="middle" font-size="14">SNR (dB)</text>
<text x="22" y="347.0" text-anchor="middle" font-size="14" transform="rotate(-90 22 347.0)">BLER</text>
<text x="1016" y="692" font-size="11" fill="#555">dashed: CDD, solid: piecewise</text>
</svg>
