<svg xmlns="http://www.w3.org/2000/svg" width="1060" height="660" viewBox="0 0 1060 660">
<rect width="100%" height="100%" fill="white"/>
<text x="530.0" y="28" text-anchor="middle" font-size="18" font-family="Arial, sans-serif">CDD Pareto Alg1 NMSE</text>
<line x1="78" y1="582" x2="934" y2="582" stroke="#333" stroke-width="1.2"/>
<line x1="78" y1="54" x2="78" y2="582" stroke="#333" stroke-width="1.2"/>
<line x1="78.00" y1="54" x2="78.00" y2="582" stroke="#e6e8eb"/><text x="78.00" y="606" font-size="12" text-anchor="middle">9.6</text><line x1="249.20" y1="54" x2="249.20" y2="582" stroke="#e6e8eb"/><text x="249.20" y="606" font-size="12" text-anchor="middle">11.8</text><line x1="420.40" y1="54" x2="420.40" y2="582" stroke="#e6e8eb"/><text x="420.40" y="606" font-size="12" text-anchor="middle">13.9</text><line x1="591.60" y1="54" x2="591.60" y2="582" stroke="#e6e8eb"/><text x="591.60" y="606" font-size="12" text-anchor="middle">16.1</text><line x1="762.80" y1="54" x2="762.80" y2="582" stroke="#e6e8eb"/><text x="762.80" y="606" font-size="12" text-anchor="middle">18.2</text><line x1="934.00" y1="54" x2="934.00" y2="582" stroke="#e6e8eb"/><text x="934.00" y="606" font-size="12" text-anchor="middle">20.4</text><line x1="78" y1="582.00" x2="934" y2="582.00" stroke="#e6e8eb"/><text x="70" y="586.00" font-size="12" text-anchor="end">0.00148</text><line x1="78" y1="476.40" x2="934" y2="476.40" stroke="#e6e8eb"/><text x="70" y="480.40" font-size="12" text-anchor="end">0.00303</text><line x1="78" y1="370.80" x2="934" y2="370.80" stroke="#e6e8eb"/><text x="70" y="374.80" font-size="12" text-anchor="end">0.00619</text><line x1="78" y1="265.20" x2="934" y2="265.20" stroke="#e6e8eb"/><text x="70" y="269.20" font-size="12" text-anchor="end">0.0127</text><line x1="78" y1="159.60" x2="934" y2="159.60" stroke="#e6e8eb"/><text x="70" y="163.60" font-size="12" text-anchor="end">0.0259</text><line x1="78" y1="54.00" x2="934" y2="54.00" stroke="#e6e8eb"/><text x="70" y="58.00" font-size="12" text-anchor="end">0.0529</text>
<circle cx="109.70" cy="225.02" r="3.6" fill="#26547c"><title>C1 CDD step=2</title></circle><circle cx="268.22" cy="292.33" r="3.6" fill="#26547c"><title>C1 CDD step=2</title></circle><circle cx="426.74" cy="366.48" r="3.6" fill="#26547c"><title>C1 CDD step=2</title></circle><circle cx="506.00" cy="395.60" r="3.6" fill="#26547c"><title>C1 CDD step=2</title></circle><circle cx="585.26" cy="417.06" r="3.6" fill="#26547c"><title>C1 CDD step=2</title></circle><circle cx="664.52" cy="457.69" r="3.6" fill="#26547c"><title>C1 CDD step=2</title></circle><circle cx="743.78" cy="474.24" r="3.6" fill="#26547c"><title>C1 CDD step=2</title></circle><circle cx="902.30" cy="545.59" r="3.6" fill="#26547c"><title>C1 CDD step=2</title></circle><polyline points="109.70,225.02 268.22,292.33 426.74,366.48 506.00,395.60 585.26,417.06 664.52,457.69 743.78,474.24 902.30,545.59" fill="none" stroke="#26547c" stroke-width="1.7"/><text x="907.30" y="549.59" font-size="10" fill="#26547c" font-weight="700">C1</text><circle cx="109.70" cy="224.70" r="3.6" fill="#ef476f"><title>C2 CDD step=3</title></circle><circle cx="268.22" cy="281.88" r="3.6" fill="#ef476f"><title>C2 CDD step=3</title></circle><circle cx="426.74" cy="354.17" r="3.6" fill="#ef476f"><title>C2 CDD step=3</title></circle><circle cx="506.00" cy="390.53" r="3.6" fill="#ef476f"><title>C2 CDD step=3</title></circle><circle cx="585.26" cy="409.82" r="3.6" fill="#ef476f"><title>C2 CDD step=3</title></circle><circle cx="664.52" cy="441.24" r="3.6" fill="#ef476f"><title>C2 CDD step=3</title></circle><circle cx="743.78" cy="467.37" r="3.6" fill="#ef476f"><title>C2 CDD step=3</title></circle><circle cx="902.30" cy="533.11" r="3.6" fill="#ef476f"><title>C2 CDD step=3</title></circle><polyline points="109.70,224.70 268.22,281.88 426.74,354.17 506.00,390.53 585.26,409.82 664.52,441.24 743.78,467.37 902.30,533.11" fill="none" stroke="#ef476f" stroke-width="1.7"/><text x="907.30" y="537.11" font-size="10" fill="#ef476f" font-weight="700">C2</text><circle cx="109.70" cy="211.42" r="3.6" fill="#06a77d"><title>C3 CDD step=4</title></circle><circle cx="268.22" cy="267.36" r="3.6" fill="#06a77d"><title>C3 CDD step=4</title></circle><circle cx="426.74" cy="343.15" r="3.6" fill="#06a77d"><title>C3 CDD step=4</title></circle><circle cx="506.00" cy="375.66" r="3.6" fill="#06a77d"><title>C3 CDD step=4</title></circle><circle cx="585.26" cy="394.95" r="3.6" fill="#06a77d"><title>C3 CDD step=4</title></circle><circle cx="664.52" cy="425.50" r="3.6" fill="#06a77d"><title>C3 CDD step=4</title></circle><circle cx="743.78" cy="457.04" r="3.6" fill="#06a77d"><title>C3 CDD step=4</title></circle><circle cx="902.30" cy="516.85" r="3.6" fill="#06a77d"><title>C3 CDD step=4</title></circle><polyline points="109.70,211.42 268.22,267.36 426.74,343.15 506.00,375.66 585.26,394.95 664.52,425.50 743.78,457.04 902.30,516.85" fill="none" stroke="#06a77d" stroke-width="1.7"/><text x="907.30" y="520.85" font-size="10" fill="#06a77d" font-weight="700">C3</text><circle cx="109.70" cy="193.12" r="3.6" fill="#7b2cbf"><title>C4 CDD step=5</title></circle><circle cx="268.22" cy="255.71" r="3.6" fill="#7b2cbf"><title>C4 CDD step=5</title></circle><circle cx="426.74" cy="329.38" r="3.6" fill="#7b2cbf"><title>C4 CDD step=5</title></circle><circle cx="506.00" cy="358.99" r="3.6" fill="#7b2cbf"><title>C4 CDD step=5</title></circle><circle cx="585.26" cy="381.17" r="3.6" fill="#7b2cbf"><title>C4 CDD step=5</title></circle><circle cx="664.52" cy="407.95" r="3.6" fill="#7b2cbf"><title>C4 CDD step=5</title></circle><circle cx="743.78" cy="446.67" r="3.6" fill="#7b2cbf"><title>C4 CDD step=5</title></circle><circle cx="902.30" cy="501.45" r="3.6" fill="#7b2cbf"><title>C4 CDD step=5</title></circle><polyline points="109.70,193.12 268.22,255.71 426.74,329.38 506.00,358.99 585.26,381.17 664.52,407.95 743.78,446.67 902.30,501.45" fill="none" stroke="#7b2cbf" stroke-width="1.7"/><text x="907.30" y="505.45" font-size="10" fill="#7b2cbf" font-weight="700">C4</text><circle cx="109.70" cy="181.75" r="3.6" fill="#f77f00"><title>C5 CDD step=6</title></circle><circle cx="268.22" cy="242.81" r="3.6" fill="#f77f00"><title>C5 CDD step=6</title></circle><circle cx="426.74" cy="316.40" r="3.6" fill="#f77f00"><title>C5 CDD step=6</title></circle><circle cx="506.00" cy="346.56" r="3.6" fill="#f77f00"><title>C5 CDD step=6</title></circle><circle cx="585.26" cy="370.52" r="3.6" fill="#f77f00"><title>C5 CDD step=6</title></circle><circle cx="664.52" cy="398.53" r="3.6" fill="#f77f00"><title>C5 CDD step=6</title></circle><circle cx="743.78" cy="433.08" r="3.6" fill="#f77f00"><title>C5 CDD step=6</title></circle><circle cx="902.30" cy="489.84" r="3.6" fill="#f77f00"><title>C5 CDD step=6</title></circle><polyline points="109.70,181.75 268.22,242.81 426.74,316.40 506.00,346.56 585.26,370.52 664.52,398.53 743.78,433.08 902.30,489.84" fill="none" stroke="#f77f00" stroke-width="1.7"/><text x="907.30" y="493.84" font-size="10" fill="#f77f00" font-weight="700">C5</text><circle cx="109.70" cy="172.91" r="3.6" fill="#118ab2"><title>C6 CDD step=7</title></circle><circle cx="268.22" cy="231.84" r="3.6" fill="#118ab2"><title>C6 CDD step=7</title></circle><circle cx="426.74" cy="303.11" r="3.6" fill="#118ab2"><title>C6 CDD step=7</title></circle><circle cx="506.00" cy="333.57" r="3.6" fill="#118ab2"><title>C6 CDD step=7</title></circle><circle cx="585.26" cy="361.67" r="3.6" fill="#118ab2"><title>C6 CDD step=7</title></circle><circle cx="664.52" cy="386.31" r="3.6" fill="#118ab2"><title>C6 CDD step=7</title></circle><circle cx="743.78" cy="420.43" r="3.6" fill="#118ab2"><title>C6 CDD step=7</title></circle><circle cx="902.30" cy="475.27" r="3.6" fill="#118ab2"><title>C6 CDD step=7</title></circle><polyline points="109.70,172.91 268.22,231.84 426.74,303.11 506.00,333.57 585.26,361.67 664.52,386.31 743.78,420.43 902.30,475.27" fill="none" stroke="#118ab2" stroke-width="1.7"/><text x="907.30" y="479.27" font-size="10" fill="#118ab2" font-weight="700">C6</text><circle cx="109.70" cy="90.41" r="3.6" fill="#9d4edd"><title>C7 CDD step=64</title></circle><circle cx="268.22" cy="141.60" r="3.6" fill="#9d4edd"><title>C7 CDD step=64</title></circle><circle cx="426.74" cy="206.19" r="3.6" fill="#9d4edd"><title>C7 CDD step=64</title></circle><circle cx="506.00" cy="229.37" r="3.6" fill="#9d4edd"><title>C7 CDD step=64</title></circle><circle cx="585.26" cy="248.94" r="3.6" fill="#9d4edd"><title>C7 CDD step=64</title></circle><circle cx="664.52" cy="270.45" r="3.6" fill="#9d4edd"><title>C7 CDD step=64</title></circle><circle cx="743.78" cy="301.30" r="3.6" fill="#9d4edd"><title>C7 CDD step=64</title></circle><circle cx="902.30" cy="351.04" r="3.6" fill="#9d4edd"><title>C7 CDD step=64</title></circle><polyline points="109.70,90.41 268.22,141.60 426.74,206.19 506.00,229.37 585.26,248.94 664.52,270.45 743.78,301.30 902.30,351.04" fill="none" stroke="#9d4edd" stroke-width="1.7"/><text x="907.30" y="355.04" font-size="10" fill="#9d4edd" font-weight="700">C7</text>
<line x1="952" y1="72.00" x2="968" y2="72.00" stroke="#26547c" stroke-width="2"/><text x="972" y="76.00" font-size="11">C1</text><line x1="952" y1="90.00" x2="968" y2="90.00" stroke="#ef476f" stroke-width="2"/><text x="972" y="94.00" font-size="11">C2</text><line x1="952" y1="108.00" x2="968" y2="108.00" stroke="#06a77d" stroke-width="2"/><text x="972" y="112.00" font-size="11">C3</text><line x1="952" y1="126.00" x2="968" y2="126.00" stroke="#7b2cbf" stroke-width="2"/><text x="972" y="130.00" font-size="11">C4</text><line x1="952" y1="144.00" x2="968" y2="144.00" stroke="#f77f00" stroke-width="2"/><text x="972" y="148.00" font-size="11">C5</text><line x1="952" y1="162.00" x2="968" y2="162.00" stroke="#118ab2" stroke-width="2"/><text x="972" y="166.00" font-size="11">C6</text><line x1="952" y1="180.00" x2="968" y2="180.00" stroke="#9d4edd" stroke-width="2"/><text x="972" y="184.00" font-size="11">C7</text>
<text x="506.0" y="636" text-anchor="middle" font-size="14">SNR (dB)</text>
<text x="20" y="318.0" text-anchor="middle" font-size="14" transform="rotate(-90 20 318.0)">NMSE</text>
</svg>
