<svg xmlns="http://www.w3.org/2000/svg" width="1240" height="720" viewBox="0 0 1240 720">
<rect width="100%" height="100%" fill="white"/>
<text x="620.0" y="30" text-anchor="middle" font-size="18" font-family="Arial, sans-serif">Ideal-CSI BLER, 24 PRB, none interleaver</text>
<line x1="84" y1="638" x2="990" y2="638" stroke="#333" stroke-width="1.2"/>
<line x1="84" y1="56" x2="84" y2="638" stroke="#333" stroke-width="1.2"/>
<line x1="84.00" y1="56" x2="84.00" y2="638" stroke="#e6e8eb"/><text x="84.00" y="662" font-size="12" text-anchor="middle">11.2</text><line x1="265.20" y1="56" x2="265.20" y2="638" stroke="#e6e8eb"/><text x="265.20" y="662" font-size="12" text-anchor="middle">15.5</text><line x1="446.40" y1="56" x2="446.40" y2="638" stroke="#e6e8eb"/><text x="446.40" y="662" font-size="12" text-anchor="middle">19.8</text><line x1="627.60" y1="56" x2="627.60" y2="638" stroke="#e6e8eb"/><text x="627.60" y="662" font-size="12" text-anchor="middle">24.2</text><line x1="808.80" y1="56" x2="808.80" y2="638" stroke="#e6e8eb"/><text x="808.80" y="662" font-size="12" text-anchor="middle">28.5</text><line x1="990.00" y1="56" x2="990.00" y2="638" stroke="#e6e8eb"/><text x="990.00" y="662" font-size="12" text-anchor="middle">32.8</text><line x1="84" y1="616.97" x2="990" y2="616.97" stroke="#d9dde2"/><text x="76" y="620.97" font-size="12" text-anchor="end">1e-3</text><line x1="84" y1="419.76" x2="990" y2="419.76" stroke="#d9dde2"/><text x="76" y="423.76" font-size="12" text-anchor="end">1e-2</text><line x1="84" y1="222.55" x2="990" y2="222.55" stroke="#d9dde2"/><text x="76" y="226.55" font-size="12" text-anchor="end">1e-1</text><line x1="84" y1="557.61" x2="990" y2="557.61" stroke="#eef0f2"/><line x1="84" y1="479.13" x2="990" y2="479.13" stroke="#eef0f2"/><line x1="84" y1="360.39" x2="990" y2="360.39" stroke="#eef0f2"/><line x1="84" y1="281.91" x2="990" y2="281.91" stroke="#eef0f2"/><line x1="84" y1="163.18" x2="990" y2="163.18" stroke="#eef0f2"/><line x1="84" y1="84.70" x2="990" y2="84.70" stroke="#eef0f2"/>
<line x1="84" y1="222.55" x2="990" y2="222.55" stroke="#111" stroke-width="1" stroke-dasharray="5 4"/><text x="998" y="226.55" font-size="11" fill="#111">0.1</text><line x1="84" y1="419.76" x2="990" y2="419.76" stroke="#111" stroke-width="1" stroke-dasharray="5 4"/><text x="998" y="423.76" font-size="11" fill="#111">0.01</text><g><title>C0 CDD step=1</title><circle cx="117.56" cy="100.15" r="4" stroke="#0072B2" stroke-width="1.6" fill="white"/></g><g><title>C0 CDD step=1</title><circle cx="201.44" cy="129.17" r="4" stroke="#0072B2" stroke-width="1.6" fill="white"/></g><g><title>C0 CDD step=1</title><circle cx="243.39" cy="143.22" r="4" stroke="#0072B2" stroke-width="1.6" fill="white"/></g><g><title>C0 CDD step=1</title><circle cx="285.33" cy="163.18" r="4" stroke="#0072B2" stroke-width="1.6" fill="white"/></g><g><title>C0 CDD step=1</title><circle cx="327.28" cy="187.82" r="4" stroke="#0072B2" stroke-width="1.6" fill="white"/></g><g><title>C0 CDD step=1</title><circle cx="369.22" cy="220.43" r="4" stroke="#0072B2" stroke-width="1.6" fill="white"/></g><g><title>C0 CDD step=1</title><circle cx="453.11" cy="281.91" r="4" stroke="#0072B2" stroke-width="1.6" fill="white"/></g><g><title>C0 CDD step=1</title><circle cx="537.00" cy="333.12" r="4" stroke="#0072B2" stroke-width="1.6" fill="white"/></g><g><title>C0 CDD step=1</title><circle cx="620.89" cy="385.03" r="4" stroke="#0072B2" stroke-width="1.6" fill="white"/></g><g><title>C0 CDD step=1</title><circle cx="704.78" cy="479.13" r="4" stroke="#0072B2" stroke-width="1.6" fill="white"/></g><g><title>C0 CDD step=1</title><circle cx="788.67" cy="538.49" r="4" stroke="#0072B2" stroke-width="1.6" fill="white"/></g><g><title>C0 CDD step=1</title><circle cx="872.56" cy="538.49" r="4" stroke="#0072B2" stroke-width="1.6" fill="white"/></g><g><title>C0 CDD step=1</title><circle cx="956.44" cy="597.86" r="4" stroke="#0072B2" stroke-width="1.6" fill="white"/></g><polyline points="117.56,100.15 201.44,129.17 243.39,143.22 285.33,163.18 327.28,187.82 369.22,220.43 453.11,281.91 537.00,333.12 620.89,385.03 704.78,479.13 788.67,538.49 872.56,538.49 956.44,597.86" fill="none" stroke="#0072B2" stroke-width="2.1" stroke-dasharray="5 3"/><g><title>C1 CDD step=2</title><rect x="113.76" y="92.34" width="7.6" height="7.6" stroke="#D55E00" stroke-width="1.6" fill="white"/></g><g><title>C1 CDD step=2</title><rect x="197.64" y="144.66" width="7.6" height="7.6" stroke="#D55E00" stroke-width="1.6" fill="white"/></g><g><title>C1 CDD step=2</title><rect x="239.59" y="166.06" width="7.6" height="7.6" stroke="#D55E00" stroke-width="1.6" fill="white"/></g><g><title>C1 CDD step=2</title><rect x="281.53" y="196.28" width="7.6" height="7.6" stroke="#D55E00" stroke-width="1.6" fill="white"/></g><g><title>C1 CDD step=2</title><rect x="323.48" y="232.67" width="7.6" height="7.6" stroke="#D55E00" stroke-width="1.6" fill="white"/></g><g><title>C1 CDD step=2</title><rect x="365.42" y="269.95" width="7.6" height="7.6" stroke="#D55E00" stroke-width="1.6" fill="white"/></g><g><title>C1 CDD step=2</title><rect x="449.31" y="321.87" width="7.6" height="7.6" stroke="#D55E00" stroke-width="1.6" fill="white"/></g><g><title>C1 CDD step=2</title><rect x="533.20" y="368.03" width="7.6" height="7.6" stroke="#D55E00" stroke-width="1.6" fill="white"/></g><g><title>C1 CDD step=2</title><rect x="617.09" y="415.96" width="7.6" height="7.6" stroke="#D55E00" stroke-width="1.6" fill="white"/></g><g><title>C1 CDD step=2</title><rect x="700.98" y="475.33" width="7.6" height="7.6" stroke="#D55E00" stroke-width="1.6" fill="white"/></g><g><title>C1 CDD step=2</title><rect x="784.87" y="534.69" width="7.6" height="7.6" stroke="#D55E00" stroke-width="1.6" fill="white"/></g><g><title>C1 CDD step=2</title><rect x="868.76" y="594.06" width="7.6" height="7.6" stroke="#D55E00" stroke-width="1.6" fill="white"/></g><g><title>C1 CDD step=2</title><rect x="952.64" y="594.06" width="7.6" height="7.6" stroke="#D55E00" stroke-width="1.6" fill="white"/></g><polyline points="117.56,96.14 201.44,148.46 243.39,169.86 285.33,200.08 327.28,236.47 369.22,273.75 453.11,325.67 537.00,371.83 620.89,419.76 704.78,479.13 788.67,538.49 872.56,597.86 956.44,597.86" fill="none" stroke="#D55E00" stroke-width="2.1" stroke-dasharray="5 3"/><g><title>C2 CDD step=3</title><polygon points="117.56,98.15 113.26,106.35 121.86,106.35" stroke="#009E73" stroke-width="1.6" fill="white"/></g><g><title>C2 CDD step=3</title><polygon points="201.44,148.49 197.14,156.69 205.74,156.69" stroke="#009E73" stroke-width="1.6" fill="white"/></g><g><title>C2 CDD step=3</title><polygon points="243.39,184.66 239.09,192.86 247.69,192.86" stroke="#009E73" stroke-width="1.6" fill="white"/></g><g><title>C2 CDD step=3</title><polygon points="285.33,229.38 281.03,237.58 289.63,237.58" stroke="#009E73" stroke-width="1.6" fill="white"/></g><g><title>C2 CDD step=3</title><polygon points="327.28,261.70 322.98,269.90 331.58,269.90" stroke="#009E73" stroke-width="1.6" fill="white"/></g><g><title>C2 CDD step=3</title><polygon points="369.22,291.23 364.92,299.43 373.52,299.43" stroke="#009E73" stroke-width="1.6" fill="white"/></g><g><title>C2 CDD step=3</title><polygon points="453.11,345.71 448.81,353.91 457.41,353.91" stroke="#009E73" stroke-width="1.6" fill="white"/></g><g><title>C2 CDD step=3</title><polygon points="537.00,380.43 532.70,388.63 541.30,388.63" stroke="#009E73" stroke-width="1.6" fill="white"/></g><g><title>C2 CDD step=3</title><polygon points="620.89,474.53 616.59,482.73 625.19,482.73" stroke="#009E73" stroke-width="1.6" fill="white"/></g><g><title>C2 CDD step=3</title><polygon points="704.78,593.26 700.48,601.46 709.08,601.46" stroke="#009E73" stroke-width="1.6" fill="white"/></g><g><title>C2 CDD step=3</title><polygon points="788.67,593.26 784.37,601.46 792.97,601.46" stroke="#009E73" stroke-width="1.6" fill="white"/></g><g><title>C2 CDD step=3</title><polygon points="872.56,593.26 868.26,601.46 876.86,601.46" stroke="#009E73" stroke-width="1.6" fill="white"/></g><g><title>C2 CDD step=3</title><polygon points="956.44,593.26 952.14,601.46 960.74,601.46" stroke="#009E73" stroke-width="1.6" fill="white"/></g><polyline points="117.56,102.75 201.44,153.09 243.39,189.26 285.33,233.98 327.28,266.30 369.22,295.83 453.11,350.31 537.00,385.03 620.89,479.13 704.78,597.86 788.67,597.86 872.56,597.86 956.44,597.86" fill="none" stroke="#009E73" stroke-width="2.1" stroke-dasharray="5 3"/><g><title>C3 CDD step=4</title><polygon points="117.56,96.16 113.06,100.66 117.56,105.16 122.06,100.66" stroke="#CC79A7" stroke-width="1.6" fill="white"/></g><g><title>C3 CDD step=4</title><polygon points="201.44,160.85 196.94,165.35 201.44,169.85 205.94,165.35" stroke="#CC79A7" stroke-width="1.6" fill="white"/></g><g><title>C3 CDD step=4</title><polygon points="243.39,195.58 238.89,200.08 243.39,204.58 247.89,200.08" stroke="#CC79A7" stroke-width="1.6" fill="white"/></g><g><title>C3 CDD step=4</title><polygon points="285.33,234.52 280.83,239.02 285.33,243.52 289.83,239.02" stroke="#CC79A7" stroke-width="1.6" fill="white"/></g><g><title>C3 CDD step=4</title><polygon points="327.28,269.25 322.78,273.75 327.28,278.25 331.78,273.75" stroke="#CC79A7" stroke-width="1.6" fill="white"/></g><g><title>C3 CDD step=4</title><polygon points="369.22,321.17 364.72,325.67 369.22,330.17 373.72,325.67" stroke="#CC79A7" stroke-width="1.6" fill="white"/></g><g><title>C3 CDD step=4</title><polygon points="453.11,396.15 448.61,400.65 453.11,405.15 457.61,400.65" stroke="#CC79A7" stroke-width="1.6" fill="white"/></g><g><title>C3 CDD step=4</title><polygon points="537.00,474.63 532.50,479.13 537.00,483.63 541.50,479.13" stroke="#CC79A7" stroke-width="1.6" fill="white"/></g><g><title>C3 CDD step=4</title><polygon points="620.89,593.36 616.39,597.86 620.89,602.36 625.39,597.86" stroke="#CC79A7" stroke-width="1.6" fill="white"/></g><g><title>C3 CDD step=4</title><polygon points="704.78,593.36 700.28,597.86 704.78,602.36 709.28,597.86" stroke="#CC79A7" stroke-width="1.6" fill="white"/></g><g><title>C3 CDD step=4</title><polygon points="788.67,593.36 784.17,597.86 788.67,602.36 793.17,597.86" stroke="#CC79A7" stroke-width="1.6" fill="white"/></g><g><title>C3 CDD step=4</title><polygon points="872.56,593.36 868.06,597.86 872.56,602.36 877.06,597.86" stroke="#CC79A7" stroke-width="1.6" fill="white"/></g><g><title>C3 CDD step=4</title><polygon points="956.44,593.36 951.94,597.86 956.44,602.36 960.94,597.86" stroke="#CC79A7" stroke-width="1.6" fill="white"/></g><polyline points="117.56,100.66 201.44,165.35 243.39,200.08 285.33,239.02 327.28,273.75 369.22,325.67 453.11,400.65 537.00,479.13 620.89,597.86 704.78,597.86 788.67,597.86 872.56,597.86 956.44,597.86" fill="none" stroke="#CC79A7" stroke-width="2.1" stroke-dasharray="5 3"/><g><title>C4 CDD step=5</title><polygon points="113.26,102.93 121.86,102.93 117.56,111.13" stroke="#E69F00" stroke-width="1.6" fill="white"/></g><g><title>C4 CDD step=5</title><polygon points="197.14,163.97 205.74,163.97 201.44,172.17" stroke="#E69F00" stroke-width="1.6" fill="white"/></g><g><title>C4 CDD step=5</title><polygon points="239.09,210.78 247.69,210.78 243.39,218.98" stroke="#E69F00" stroke-width="1.6" fill="white"/></g><g><title>C4 CDD step=5</title><polygon points="281.03,252.61 289.63,252.61 285.33,260.81" stroke="#E69F00" stroke-width="1.6" fill="white"/></g><g><title>C4 CDD step=5</title><polygon points="322.98,297.43 331.58,297.43 327.28,305.63" stroke="#E69F00" stroke-width="1.6" fill="white"/></g><g><title>C4 CDD step=5</title><polygon points="364.92,346.71 373.52,346.71 369.22,354.91" stroke="#E69F00" stroke-width="1.6" fill="white"/></g><g><title>C4 CDD step=5</title><polygon points="448.81,440.80 457.41,440.80 453.11,449.00" stroke="#E69F00" stroke-width="1.6" fill="white"/></g><g><title>C4 CDD step=5</title><polygon points="532.70,534.89 541.30,534.89 537.00,543.09" stroke="#E69F00" stroke-width="1.6" fill="white"/></g><g><title>C4 CDD step=5</title><polygon points="616.59,594.26 625.19,594.26 620.89,602.46" stroke="#E69F00" stroke-width="1.6" fill="white"/></g><g><title>C4 CDD step=5</title><polygon points="700.48,594.26 709.08,594.26 704.78,602.46" stroke="#E69F00" stroke-width="1.6" fill="white"/></g><g><title>C4 CDD step=5</title><polygon points="784.37,594.26 792.97,594.26 788.67,602.46" stroke="#E69F00" stroke-width="1.6" fill="white"/></g><g><title>C4 CDD step=5</title><polygon points="868.26,594.26 876.86,594.26 872.56,602.46" stroke="#E69F00" stroke-width="1.6" fill="white"/></g><g><title>C4 CDD step=5</title><polygon points="952.14,594.26 960.74,594.26 956.44,602.46" stroke="#E69F00" stroke-width="1.6" fill="white"/></g><polyline points="117.56,106.53 201.44,167.57 243.39,214.38 285.33,256.21 327.28,301.03 369.22,350.31 453.11,444.40 537.00,538.49 620.89,597.86 704.78,597.86 788.67,597.86 872.56,597.86 956.44,597.86" fill="none" stroke="#E69F00" stroke-width="2.1" stroke-dasharray="5 3"/><g><title>C5 CDD step=6</title><path d="M 113.56 109.34 H 121.56 M 117.56 105.34 V 113.34" stroke="#56B4E9" stroke-width="2" fill="none"/></g><g><title>C5 CDD step=6</title><path d="M 197.44 172.20 H 205.44 M 201.44 168.20 V 176.20" stroke="#56B4E9" stroke-width="2" fill="none"/></g><g><title>C5 CDD step=6</title><path d="M 239.39 226.94 H 247.39 M 243.39 222.94 V 230.94" stroke="#56B4E9" stroke-width="2" fill="none"/></g><g><title>C5 CDD step=6</title><path d="M 281.33 277.74 H 289.33 M 285.33 273.74 V 281.74" stroke="#56B4E9" stroke-width="2" fill="none"/></g><g><title>C5 CDD step=6</title><path d="M 323.28 360.39 H 331.28 M 327.28 356.39 V 364.39" stroke="#56B4E9" stroke-width="2" fill="none"/></g><g><title>C5 CDD step=6</title><path d="M 365.22 419.76 H 373.22 M 369.22 415.76 V 423.76" stroke="#56B4E9" stroke-width="2" fill="none"/></g><g><title>C5 CDD step=6</title><path d="M 449.11 597.86 H 457.11 M 453.11 593.86 V 601.86" stroke="#56B4E9" stroke-width="2" fill="none"/></g><polyline points="117.56,109.34 201.44,172.20 243.39,226.94 285.33,277.74 327.28,360.39 369.22,419.76 453.11,597.86" fill="none" stroke="#56B4E9" stroke-width="2.1" stroke-dasharray="5 3"/><g><title>C6 CDD step=7</title><path d="M 114.06 108.74 L 121.06 115.74 M 121.06 108.74 L 114.06 115.74" stroke="#6F4E7C" stroke-width="2" fill="none"/></g><g><title>C6 CDD step=7</title><path d="M 197.94 180.14 L 204.94 187.14 M 204.94 180.14 L 197.94 187.14" stroke="#6F4E7C" stroke-width="2" fill="none"/></g><g><title>C6 CDD step=7</title><path d="M 239.89 228.07 L 246.89 235.07 M 246.89 228.07 L 239.89 235.07" stroke="#6F4E7C" stroke-width="2" fill="none"/></g><g><title>C6 CDD step=7</title><path d="M 281.83 297.53 L 288.83 304.53 M 288.83 297.53 L 281.83 304.53" stroke="#6F4E7C" stroke-width="2" fill="none"/></g><g><title>C6 CDD step=7</title><path d="M 323.78 381.53 L 330.78 388.53 M 330.78 381.53 L 323.78 388.53" stroke="#6F4E7C" stroke-width="2" fill="none"/></g><g><title>C6 CDD step=7</title><path d="M 365.72 416.26 L 372.72 423.26 M 372.72 416.26 L 365.72 423.26" stroke="#6F4E7C" stroke-width="2" fill="none"/></g><g><title>C6 CDD step=7</title><path d="M 449.61 594.36 L 456.61 601.36 M 456.61 594.36 L 449.61 601.36" stroke="#6F4E7C" stroke-width="2" fill="none"/></g><polyline points="117.56,112.24 201.44,183.64 243.39,231.57 285.33,301.03 327.28,385.03 369.22,419.76 453.11,597.86" fill="none" stroke="#6F4E7C" stroke-width="2.1" stroke-dasharray="5 3"/><g><title>C7 CDD step=64</title><polygon points="113.36,118.36 115.46,114.66 119.66,114.66 121.76,118.36 119.66,122.06 115.46,122.06" stroke="#222222" stroke-width="1.6" fill="white"/></g><g><title>C7 CDD step=64</title><polygon points="197.24,222.55 199.34,218.85 203.54,218.85 205.64,222.55 203.54,226.25 199.34,226.25" stroke="#222222" stroke-width="1.6" fill="white"/></g><g><title>C7 CDD step=64</title><polygon points="239.19,312.46 241.29,308.76 245.49,308.76 247.59,312.46 245.49,316.16 241.29,316.16" stroke="#222222" stroke-width="1.6" fill="white"/></g><g><title>C7 CDD step=64</title><polygon points="281.13,444.40 283.23,440.70 287.43,440.70 289.53,444.40 287.43,448.10 283.23,448.10" stroke="#222222" stroke-width="1.6" fill="white"/></g><g><title>C7 CDD step=64</title><polygon points="323.08,538.49 325.18,534.79 329.38,534.79 331.48,538.49 329.38,542.19 325.18,542.19" stroke="#222222" stroke-width="1.6" fill="white"/></g><g><title>C7 CDD step=64</title><polygon points="365.02,597.86 367.12,594.16 371.32,594.16 373.42,597.86 371.32,601.56 367.12,601.56" stroke="#222222" stroke-width="1.6" fill="white"/></g><g><title>C7 CDD step=64</title><polygon points="448.91,597.86 451.01,594.16 455.21,594.16 457.31,597.86 455.21,601.56 451.01,601.56" stroke="#222222" stroke-width="1.6" fill="white"/></g><polyline points="117.56,118.36 201.44,222.55 243.39,312.46 285.33,444.40 327.28,538.49 369.22,597.86 453.11,597.86" fill="none" stroke="#222222" stroke-width="2.1" stroke-dasharray="5 3"/><g><title>N3 NS-A0503-M1_2_3_64-LR00-S537649365</title><circle cx="117.56" cy="104.89" r="4" stroke="#A0006D" stroke-width="1.6" fill="#A0006D"/></g><g><title>N3 NS-A0503-M1_2_3_64-LR00-S537649365</title><circle cx="201.44" cy="187.82" r="4" stroke="#A0006D" stroke-width="1.6" fill="#A0006D"/></g><g><title>N3 NS-A0503-M1_2_3_64-LR00-S537649365</title><circle cx="243.39" cy="250.09" r="4" stroke="#A0006D" stroke-width="1.6" fill="#A0006D"/></g><g><title>N3 NS-A0503-M1_2_3_64-LR00-S537649365</title><circle cx="285.33" cy="318.81" r="4" stroke="#A0006D" stroke-width="1.6" fill="#A0006D"/></g><g><title>N3 NS-A0503-M1_2_3_64-LR00-S537649365</title><circle cx="327.28" cy="479.13" r="4" stroke="#A0006D" stroke-width="1.6" fill="#A0006D"/></g><g><title>N3 NS-A0503-M1_2_3_64-LR00-S537649365</title><circle cx="369.22" cy="597.86" r="4" stroke="#A0006D" stroke-width="1.6" fill="#A0006D"/></g><g><title>N3 NS-A0503-M1_2_3_64-LR00-S537649365</title><circle cx="453.11" cy="597.86" r="4" stroke="#A0006D" stroke-width="1.6" fill="#A0006D"/></g><polyline points="117.56,104.89 201.44,187.82 243.39,250.09 285.33,318.81 327.28,479.13 369.22,597.86 453.11,597.86" fill="none" stroke="#A0006D" stroke-width="2.1"/><g><title>N6 NS-A0501-M1_3_4_64-LR00-S537649103</title><rect x="113.76" y="101.63" width="7.6" height="7.6" stroke="#7A3E00" stroke-width="1.6" fill="#7A3E00"/></g><g><title>N6 NS-A0501-M1_3_4_64-LR00-S537649103</title><rect x="197.64" y="191.47" width="7.6" height="7.6" stroke="#7A3E00" stroke-width="1.6" fill="#7A3E00"/></g><g><title>N6 NS-A0501-M1_3_4_64-LR00-S537649103</title><rect x="239.59" y="252.41" width="7.6" height="7.6" stroke="#7A3E00" stroke-width="1.6" fill="#7A3E00"/></g><g><title>N6 NS-A0501-M1_3_4_64-LR00-S537649103</title><rect x="281.53" y="302.75" width="7.6" height="7.6" stroke="#7A3E00" stroke-width="1.6" fill="#7A3E00"/></g><g><title>N6 NS-A0501-M1_3_4_64-LR00-S537649103</title><rect x="323.48" y="368.03" width="7.6" height="7.6" stroke="#7A3E00" stroke-width="1.6" fill="#7A3E00"/></g><g><title>N6 NS-A0501-M1_3_4_64-LR00-S537649103</title><rect x="365.42" y="415.96" width="7.6" height="7.6" stroke="#7A3E00" stroke-width="1.6" fill="#7A3E00"/></g><g><title>N6 NS-A0501-M1_3_4_64-LR00-S537649103</title><rect x="449.31" y="594.06" width="7.6" height="7.6" stroke="#7A3E00" stroke-width="1.6" fill="#7A3E00"/></g><polyline points="117.56,105.43 201.44,195.27 243.39,256.21 285.33,306.55 327.28,371.83 369.22,419.76 453.11,597.86" fill="none" stroke="#7A3E00" stroke-width="2.1"/><g><title>N8 NS-A0494-M3_4_6_64-LR00-S535555854</title><polygon points="117.56,108.83 113.26,117.03 121.86,117.03" stroke="#117733" stroke-width="1.6" fill="#117733"/></g><g><title>N8 NS-A0494-M3_4_6_64-LR00-S535555854</title><polygon points="201.44,189.13 197.14,197.33 205.74,197.33" stroke="#117733" stroke-width="1.6" fill="#117733"/></g><g><title>N8 NS-A0494-M3_4_6_64-LR00-S535555854</title><polygon points="243.39,226.97 239.09,235.17 247.69,235.17" stroke="#117733" stroke-width="1.6" fill="#117733"/></g><g><title>N8 NS-A0494-M3_4_6_64-LR00-S535555854</title><polygon points="285.33,286.34 281.03,294.54 289.63,294.54" stroke="#117733" stroke-width="1.6" fill="#117733"/></g><g><title>N8 NS-A0494-M3_4_6_64-LR00-S535555854</title><polygon points="327.28,367.23 322.98,375.43 331.58,375.43" stroke="#117733" stroke-width="1.6" fill="#117733"/></g><g><title>N8 NS-A0494-M3_4_6_64-LR00-S535555854</title><polygon points="369.22,474.53 364.92,482.73 373.52,482.73" stroke="#117733" stroke-width="1.6" fill="#117733"/></g><g><title>N8 NS-A0494-M3_4_6_64-LR00-S535555854</title><polygon points="453.11,593.26 448.81,601.46 457.41,601.46" stroke="#117733" stroke-width="1.6" fill="#117733"/></g><polyline points="117.56,113.43 201.44,193.73 243.39,231.57 285.33,290.94 327.28,371.83 369.22,479.13 453.11,597.86" fill="none" stroke="#117733" stroke-width="2.1"/><g><title>N23 NS-A0330-M1_4_6_48-LC</title><polygon points="117.56,94.12 113.06,98.62 117.56,103.12 122.06,98.62" stroke="#332288" stroke-width="1.6" fill="#332288"/></g><g><title>N23 NS-A0330-M1_4_6_48-LC</title><polygon points="201.44,166.52 196.94,171.02 201.44,175.52 205.94,171.02" stroke="#332288" stroke-width="1.6" fill="#332288"/></g><g><title>N23 NS-A0330-M1_4_6_48-LC</title><polygon points="243.39,229.48 238.89,233.98 243.39,238.48 247.89,233.98" stroke="#332288" stroke-width="1.6" fill="#332288"/></g><g><title>N23 NS-A0330-M1_4_6_48-LC</title><polygon points="285.33,296.53 280.83,301.03 285.33,305.53 289.83,301.03" stroke="#332288" stroke-width="1.6" fill="#332288"/></g><g><title>N23 NS-A0330-M1_4_6_48-LC</title><polygon points="327.28,396.15 322.78,400.65 327.28,405.15 331.78,400.65" stroke="#332288" stroke-width="1.6" fill="#332288"/></g><g><title>N23 NS-A0330-M1_4_6_48-LC</title><polygon points="369.22,533.99 364.72,538.49 369.22,542.99 373.72,538.49" stroke="#332288" stroke-width="1.6" fill="#332288"/></g><g><title>N23 NS-A0330-M1_4_6_48-LC</title><polygon points="453.11,593.36 448.61,597.86 453.11,602.36 457.61,597.86" stroke="#332288" stroke-width="1.6" fill="#332288"/></g><polyline points="117.56,98.62 201.44,171.02 243.39,233.98 285.33,301.03 327.28,400.65 369.22,538.49 453.11,597.86" fill="none" stroke="#332288" stroke-width="2.1"/><line x1="285.33" y1="290.94" x2="331.34" y2="288.28" stroke="#117733" stroke-width="1.2"/><polygon points="337.33,287.94 331.52,291.28 331.17,285.29" fill="#117733"/><text x="343.33" y="290.94" font-size="11" fill="#117733" font-weight="700" paint-order="stroke" stroke="white" stroke-width="3">N8</text><line x1="285.33" y1="301.03" x2="331.34" y2="302.72" stroke="#6F4E7C" stroke-width="1.2"/><polygon points="337.33,302.94 331.23,305.72 331.45,299.72" fill="#6F4E7C"/><text x="343.33" y="305.94" font-size="11" fill="#6F4E7C" font-weight="700" paint-order="stroke" stroke="white" stroke-width="3">C6</text><line x1="285.33" y1="301.03" x2="331.63" y2="316.08" stroke="#332288" stroke-width="1.2"/><polygon points="337.33,317.94 330.70,318.94 332.56,313.23" fill="#332288"/><text x="343.33" y="320.94" font-size="11" fill="#332288" font-weight="700" paint-order="stroke" stroke="white" stroke-width="3">N23</text><line x1="285.33" y1="306.55" x2="331.98" y2="330.22" stroke="#7A3E00" stroke-width="1.2"/><polygon points="337.33,332.94 330.63,332.90 333.34,327.55" fill="#7A3E00"/><text x="343.33" y="335.94" font-size="11" fill="#7A3E00" font-weight="700" paint-order="stroke" stroke="white" stroke-width="3">N6</text><line x1="243.39" y1="312.46" x2="290.43" y2="344.56" stroke="#222222" stroke-width="1.2"/><polygon points="295.39,347.94 288.74,347.04 292.12,342.08" fill="#222222"/><text x="301.39" y="350.94" font-size="11" fill="#222222" font-weight="700" paint-order="stroke" stroke="white" stroke-width="3">C7</text><line x1="285.33" y1="318.81" x2="332.76" y2="359.06" stroke="#A0006D" stroke-width="1.2"/><polygon points="337.33,362.94 330.82,361.34 334.70,356.77" fill="#A0006D"/><text x="343.33" y="365.94" font-size="11" fill="#A0006D" font-weight="700" paint-order="stroke" stroke="white" stroke-width="3">N3</text><line x1="453.11" y1="325.67" x2="500.88" y2="373.68" stroke="#D55E00" stroke-width="1.2"/><polygon points="505.11,377.94 498.75,375.80 503.01,371.57" fill="#D55E00"/><text x="511.11" y="380.94" font-size="11" fill="#D55E00" font-weight="700" paint-order="stroke" stroke="white" stroke-width="3">C1</text><line x1="369.22" y1="325.67" x2="417.55" y2="388.19" stroke="#CC79A7" stroke-width="1.2"/><polygon points="421.22,392.94 415.18,390.03 419.93,386.36" fill="#CC79A7"/><text x="427.22" y="395.94" font-size="11" fill="#CC79A7" font-weight="700" paint-order="stroke" stroke="white" stroke-width="3">C3</text><line x1="537.00" y1="333.12" x2="585.58" y2="403.01" stroke="#0072B2" stroke-width="1.2"/><polygon points="589.00,407.94 583.11,404.72 588.04,401.30" fill="#0072B2"/><text x="595.00" y="410.94" font-size="11" fill="#0072B2" font-weight="700" paint-order="stroke" stroke="white" stroke-width="3">C0</text><line x1="453.11" y1="350.31" x2="501.62" y2="418.06" stroke="#009E73" stroke-width="1.2"/><polygon points="505.11,422.94 499.18,419.81 504.06,416.31" fill="#009E73"/><text x="511.11" y="425.94" font-size="11" fill="#009E73" font-weight="700" paint-order="stroke" stroke="white" stroke-width="3">C2</text><line x1="369.22" y1="350.31" x2="418.16" y2="432.78" stroke="#E69F00" stroke-width="1.2"/><polygon points="421.22,437.94 415.58,434.31 420.74,431.25" fill="#E69F00"/><text x="427.22" y="440.94" font-size="11" fill="#E69F00" font-weight="700" paint-order="stroke" stroke="white" stroke-width="3">C4</text><line x1="327.28" y1="360.39" x2="376.34" y2="447.71" stroke="#56B4E9" stroke-width="1.2"/><polygon points="379.28,452.94 373.72,449.18 378.95,446.24" fill="#56B4E9"/><text x="385.28" y="455.94" font-size="11" fill="#56B4E9" font-weight="700" paint-order="stroke" stroke="white" stroke-width="3">C5</text>
<line x1="1016" y1="74.00" x2="1034" y2="74.00" stroke="#0072B2" stroke-width="2" stroke-dasharray="5 3"/><g><title>C0</title><circle cx="1025.00" cy="74.00" r="4" stroke="#0072B2" stroke-width="1.6" fill="white"/></g><text x="1040" y="78.00" font-size="11">C0</text><line x1="1016" y1="92.00" x2="1034" y2="92.00" stroke="#D55E00" stroke-width="2" stroke-dasharray="5 3"/><g><title>C1</title><rect x="1021.20" y="88.20" width="7.6" height="7.6" stroke="#D55E00" stroke-width="1.6" fill="white"/></g><text x="1040" y="96.00" font-size="11">C1</text><line x1="1016" y1="110.00" x2="1034" y2="110.00" stroke="#009E73" stroke-width="2" stroke-dasharray="5 3"/><g><title>C2</title><polygon points="1025.00,105.40 1020.70,113.60 1029.30,113.60" stroke="#009E73" stroke-width="1.6" fill="white"/></g><text x="1040" y="114.00" font-size="11">C2</text><line x1="1016" y1="128.00" x2="1034" y2="128.00" stroke="#CC79A7" stroke-width="2" stroke-dasharray="5 3"/><g><title>C3</title><polygon points="1025.00,123.50 1020.50,128.00 1025.00,132.50 1029.50,128.00" stroke="#CC79A7" stroke-width="1.6" fill="white"/></g><text x="1040" y="132.00" font-size="11">C3</text><line x1="1016" y1="146.00" x2="1034" y2="146.00" stroke="#E69F00" stroke-width="2" stroke-dasharray="5 3"/><g><title>C4</title><polygon points="1020.70,142.40 1029.30,142.40 1025.00,150.60" stroke="#E69F00" stroke-width="1.6" fill="white"/></g><text x="1040" y="150.00" font-size="11">C4</text><line x1="1016" y1="164.00" x2="1034" y2="164.00" stroke="#56B4E9" stroke-width="2" stroke-dasharray="5 3"/><g><title>C5</title><path d="M 1021.00 164.00 H 1029.00 M 1025.00 160.00 V 168.00" stroke="#56B4E9" stroke-width="2" fill="none"/></g><text x="1040" y="168.00" font-size="11">C5</text><line x1="1016" y1="182.00" x2="1034" y2="182.00" stroke="#6F4E7C" stroke-width="2" stroke-dasharray="5 3"/><g><title>C6</title><path d="M 1021.50 178.50 L 1028.50 185.50 M 1028.50 178.50 L 1021.50 185.50" stroke="#6F4E7C" stroke-width="2" fill="none"/></g><text x="1040" y="186.00" font-size="11">C6</text><line x1="1016" y1="200.00" x2="1034" y2="200.00" stroke="#222222" stroke-width="2" stroke-dasharray="5 3"/><g><title>C7</title><polygon points="1020.80,200.00 1022.90,196.30 1027.10,196.30 1029.20,200.00 1027.10,203.70 1022.90,203.70" stroke="#222222" stroke-width="1.6" fill="white"/></g><text x="1040" y="204.00" font-size="11">C7</text><line x1="1016" y1="218.00" x2="1034" y2="218.00" stroke="#A0006D" stroke-width="2"/><g><title>N3</title><circle cx="1025.00" cy="218.00" r="4" stroke="#A0006D" stroke-width="1.6" fill="#A0006D"/></g><text x="1040" y="222.00" font-size="11">N3</text><line x1="1016" y1="236.00" x2="1034" y2="236.00" stroke="#7A3E00" stroke-width="2"/><g><title>N6</title><rect x="1021.20" y="232.20" width="7.6" height="7.6" stroke="#7A3E00" stroke-width="1.6" fill="#7A3E00"/></g><text x="1040" y="240.00" font-size="11">N6</text><line x1="1016" y1="254.00" x2="1034" y2="254.00" stroke="#117733" stroke-width="2"/><g><title>N8</title><polygon points="1025.00,249.40 1020.70,257.60 1029.30,257.60" stroke="#117733" stroke-width="1.6" fill="#117733"/></g><text x="1040" y="258.00" font-size="11">N8</text><line x1="1016" y1="272.00" x2="1034" y2="272.00" stroke="#332288" stroke-width="2"/><g><title>N23</title><polygon points="1025.00,267.50 1020.50,272.00 1025.00,276.50 1029.50,272.00" stroke="#332288" stroke-width="1.6" fill="#332288"/></g><text x="1040" y="276.00" font-size="11">N23</text>
<text x="537.0" y="694" text-anchor="middle" font-size="14">SNR (dB)</text>
<text x="22" y="347.0" text-anchor="middle" font-size="14" transform="rotate(-90 22 347.0)">BLER</text>
<text x="1016" y="692" font-size="11" fill="#555">dashed: CDD, solid: piecewise</text>
</svg>
