<svg xmlns="http://www.w3.org/2000/svg" width="1060" height="660" viewBox="0 0 1060 660">
<rect width="100%" height="100%" fill="white"/>
<text x="530.0" y="28" text-anchor="middle" font-size="18" font-family="Arial, sans-serif">Piecewise-linear Pareto Alg1 NMSE</text>
<line x1="78" y1="582" x2="934" y2="582" stroke="#333" stroke-width="1.2"/>
<line x1="78" y1="54" x2="78" y2="582" stroke="#333" stroke-width="1.2"/>
<line x1="78.00" y1="54" x2="78.00" y2="582" stroke="#e6e8eb"/><text x="78.00" y="606" font-size="12" text-anchor="middle">9.6</text><line x1="249.20" y1="54" x2="249.20" y2="582" stroke="#e6e8eb"/><text x="249.20" y="606" font-size="12" text-anchor="middle">11.8</text><line x1="420.40" y1="54" x2="420.40" y2="582" stroke="#e6e8eb"/><text x="420.40" y="606" font-size="12" text-anchor="middle">13.9</text><line x1="591.60" y1="54" x2="591.60" y2="582" stroke="#e6e8eb"/><text x="591.60" y="606" font-size="12" text-anchor="middle">16.1</text><line x1="762.80" y1="54" x2="762.80" y2="582" stroke="#e6e8eb"/><text x="762.80" y="606" font-size="12" text-anchor="middle">18.2</text><line x1="934.00" y1="54" x2="934.00" y2="582" stroke="#e6e8eb"/><text x="934.00" y="606" font-size="12" text-anchor="middle">20.4</text><line x1="78" y1="582.00" x2="934" y2="582.00" stroke="#e6e8eb"/><text x="70" y="586.00" font-size="12" text-anchor="end">0.00224</text><line x1="78" y1="476.40" x2="934" y2="476.40" stroke="#e6e8eb"/><text x="70" y="480.40" font-size="12" text-anchor="end">0.00442</text><line x1="78" y1="370.80" x2="934" y2="370.80" stroke="#e6e8eb"/><text x="70" y="374.80" font-size="12" text-anchor="end">0.00872</text><line x1="78" y1="265.20" x2="934" y2="265.20" stroke="#e6e8eb"/><text x="70" y="269.20" font-size="12" text-anchor="end">0.0172</text><line x1="78" y1="159.60" x2="934" y2="159.60" stroke="#e6e8eb"/><text x="70" y="163.60" font-size="12" text-anchor="end">0.0339</text><line x1="78" y1="54.00" x2="934" y2="54.00" stroke="#e6e8eb"/><text x="70" y="58.00" font-size="12" text-anchor="end">0.0669</text>
<circle cx="109.70" cy="211.18" r="3.6" fill="#26547c"><title>P1 PW cont random slope=4 #938</title></circle><circle cx="268.22" cy="266.67" r="3.6" fill="#26547c"><title>P1 PW cont random slope=4 #938</title></circle><circle cx="426.74" cy="332.58" r="3.6" fill="#26547c"><title>P1 PW cont random slope=4 #938</title></circle><circle cx="506.00" cy="372.75" r="3.6" fill="#26547c"><title>P1 PW cont random slope=4 #938</title></circle><circle cx="585.26" cy="392.63" r="3.6" fill="#26547c"><title>P1 PW cont random slope=4 #938</title></circle><circle cx="664.52" cy="432.75" r="3.6" fill="#26547c"><title>P1 PW cont random slope=4 #938</title></circle><circle cx="743.78" cy="454.48" r="3.6" fill="#26547c"><title>P1 PW cont random slope=4 #938</title></circle><circle cx="902.30" cy="531.14" r="3.6" fill="#26547c"><title>P1 PW cont random slope=4 #938</title></circle><polyline points="109.70,211.18 268.22,266.67 426.74,332.58 506.00,372.75 585.26,392.63 664.52,432.75 743.78,454.48 902.30,531.14" fill="none" stroke="#26547c" stroke-width="1.7"/><text x="907.30" y="535.14" font-size="10" fill="#26547c" font-weight="700">P1</text><circle cx="109.70" cy="222.73" r="3.6" fill="#ef476f"><title>P2 PW cont random slope=4 #939</title></circle><circle cx="268.22" cy="287.90" r="3.6" fill="#ef476f"><title>P2 PW cont random slope=4 #939</title></circle><circle cx="426.74" cy="356.95" r="3.6" fill="#ef476f"><title>P2 PW cont random slope=4 #939</title></circle><circle cx="506.00" cy="391.29" r="3.6" fill="#ef476f"><title>P2 PW cont random slope=4 #939</title></circle><circle cx="585.26" cy="409.84" r="3.6" fill="#ef476f"><title>P2 PW cont random slope=4 #939</title></circle><circle cx="664.52" cy="445.31" r="3.6" fill="#ef476f"><title>P2 PW cont random slope=4 #939</title></circle><circle cx="743.78" cy="472.64" r="3.6" fill="#ef476f"><title>P2 PW cont random slope=4 #939</title></circle><circle cx="902.30" cy="540.66" r="3.6" fill="#ef476f"><title>P2 PW cont random slope=4 #939</title></circle><polyline points="109.70,222.73 268.22,287.90 426.74,356.95 506.00,391.29 585.26,409.84 664.52,445.31 743.78,472.64 902.30,540.66" fill="none" stroke="#ef476f" stroke-width="1.7"/><text x="907.30" y="544.66" font-size="10" fill="#ef476f" font-weight="700">P2</text><circle cx="109.70" cy="224.71" r="3.6" fill="#06a77d"><title>P3 PW cont random slope=4 #940</title></circle><circle cx="268.22" cy="278.22" r="3.6" fill="#06a77d"><title>P3 PW cont random slope=4 #940</title></circle><circle cx="426.74" cy="337.91" r="3.6" fill="#06a77d"><title>P3 PW cont random slope=4 #940</title></circle><circle cx="506.00" cy="382.79" r="3.6" fill="#06a77d"><title>P3 PW cont random slope=4 #940</title></circle><circle cx="585.26" cy="408.06" r="3.6" fill="#06a77d"><title>P3 PW cont random slope=4 #940</title></circle><circle cx="664.52" cy="440.80" r="3.6" fill="#06a77d"><title>P3 PW cont random slope=4 #940</title></circle><circle cx="743.78" cy="469.70" r="3.6" fill="#06a77d"><title>P3 PW cont random slope=4 #940</title></circle><circle cx="902.30" cy="533.51" r="3.6" fill="#06a77d"><title>P3 PW cont random slope=4 #940</title></circle><polyline points="109.70,224.71 268.22,278.22 426.74,337.91 506.00,382.79 585.26,408.06 664.52,440.80 743.78,469.70 902.30,533.51" fill="none" stroke="#06a77d" stroke-width="1.7"/><text x="907.30" y="537.51" font-size="10" fill="#06a77d" font-weight="700">P3</text><circle cx="109.70" cy="223.79" r="3.6" fill="#7b2cbf"><title>P4 PW cont cyclic slope=4</title></circle><circle cx="268.22" cy="286.71" r="3.6" fill="#7b2cbf"><title>P4 PW cont cyclic slope=4</title></circle><circle cx="426.74" cy="350.84" r="3.6" fill="#7b2cbf"><title>P4 PW cont cyclic slope=4</title></circle><circle cx="506.00" cy="395.99" r="3.6" fill="#7b2cbf"><title>P4 PW cont cyclic slope=4</title></circle><circle cx="585.26" cy="420.22" r="3.6" fill="#7b2cbf"><title>P4 PW cont cyclic slope=4</title></circle><circle cx="664.52" cy="454.55" r="3.6" fill="#7b2cbf"><title>P4 PW cont cyclic slope=4</title></circle><circle cx="743.78" cy="477.53" r="3.6" fill="#7b2cbf"><title>P4 PW cont cyclic slope=4</title></circle><circle cx="902.30" cy="545.59" r="3.6" fill="#7b2cbf"><title>P4 PW cont cyclic slope=4</title></circle><polyline points="109.70,223.79 268.22,286.71 426.74,350.84 506.00,395.99 585.26,420.22 664.52,454.55 743.78,477.53 902.30,545.59" fill="none" stroke="#7b2cbf" stroke-width="1.7"/><text x="907.30" y="549.59" font-size="10" fill="#7b2cbf" font-weight="700">P4</text><circle cx="109.70" cy="197.63" r="3.6" fill="#f77f00"><title>P5 PW cont random slope=6 #201</title></circle><circle cx="268.22" cy="265.75" r="3.6" fill="#f77f00"><title>P5 PW cont random slope=6 #201</title></circle><circle cx="426.74" cy="335.26" r="3.6" fill="#f77f00"><title>P5 PW cont random slope=6 #201</title></circle><circle cx="506.00" cy="369.87" r="3.6" fill="#f77f00"><title>P5 PW cont random slope=6 #201</title></circle><circle cx="585.26" cy="385.91" r="3.6" fill="#f77f00"><title>P5 PW cont random slope=6 #201</title></circle><circle cx="664.52" cy="419.00" r="3.6" fill="#f77f00"><title>P5 PW cont random slope=6 #201</title></circle><circle cx="743.78" cy="451.37" r="3.6" fill="#f77f00"><title>P5 PW cont random slope=6 #201</title></circle><circle cx="902.30" cy="507.69" r="3.6" fill="#f77f00"><title>P5 PW cont random slope=6 #201</title></circle><polyline points="109.70,197.63 268.22,265.75 426.74,335.26 506.00,369.87 585.26,385.91 664.52,419.00 743.78,451.37 902.30,507.69" fill="none" stroke="#f77f00" stroke-width="1.7"/><text x="907.30" y="511.69" font-size="10" fill="#f77f00" font-weight="700">P5</text><circle cx="109.70" cy="219.39" r="3.6" fill="#118ab2"><title>P6 PW cont cyclic slope=6</title></circle><circle cx="268.22" cy="278.78" r="3.6" fill="#118ab2"><title>P6 PW cont cyclic slope=6</title></circle><circle cx="426.74" cy="342.49" r="3.6" fill="#118ab2"><title>P6 PW cont cyclic slope=6</title></circle><circle cx="506.00" cy="379.75" r="3.6" fill="#118ab2"><title>P6 PW cont cyclic slope=6</title></circle><circle cx="585.26" cy="401.93" r="3.6" fill="#118ab2"><title>P6 PW cont cyclic slope=6</title></circle><circle cx="664.52" cy="433.33" r="3.6" fill="#118ab2"><title>P6 PW cont cyclic slope=6</title></circle><circle cx="743.78" cy="462.00" r="3.6" fill="#118ab2"><title>P6 PW cont cyclic slope=6</title></circle><circle cx="902.30" cy="521.53" r="3.6" fill="#118ab2"><title>P6 PW cont cyclic slope=6</title></circle><polyline points="109.70,219.39 268.22,278.78 426.74,342.49 506.00,379.75 585.26,401.93 664.52,433.33 743.78,462.00 902.30,521.53" fill="none" stroke="#118ab2" stroke-width="1.7"/><text x="907.30" y="525.53" font-size="10" fill="#118ab2" font-weight="700">P6</text><circle cx="109.70" cy="204.43" r="3.6" fill="#9d4edd"><title>P7 PW cont cyclic slope=8</title></circle><circle cx="268.22" cy="260.00" r="3.6" fill="#9d4edd"><title>P7 PW cont cyclic slope=8</title></circle><circle cx="426.74" cy="327.03" r="3.6" fill="#9d4edd"><title>P7 PW cont cyclic slope=8</title></circle><circle cx="506.00" cy="357.90" r="3.6" fill="#9d4edd"><title>P7 PW cont cyclic slope=8</title></circle><circle cx="585.26" cy="379.61" r="3.6" fill="#9d4edd"><title>P7 PW cont cyclic slope=8</title></circle><circle cx="664.52" cy="415.00" r="3.6" fill="#9d4edd"><title>P7 PW cont cyclic slope=8</title></circle><circle cx="743.78" cy="440.41" r="3.6" fill="#9d4edd"><title>P7 PW cont cyclic slope=8</title></circle><circle cx="902.30" cy="505.58" r="3.6" fill="#9d4edd"><title>P7 PW cont cyclic slope=8</title></circle><polyline points="109.70,204.43 268.22,260.00 426.74,327.03 506.00,357.90 585.26,379.61 664.52,415.00 743.78,440.41 902.30,505.58" fill="none" stroke="#9d4edd" stroke-width="1.7"/><text x="907.30" y="509.58" font-size="10" fill="#9d4edd" font-weight="700">P7</text><circle cx="109.70" cy="150.69" r="3.6" fill="#2a9d8f"><title>P8 PW cont cyclic slope=16</title></circle><circle cx="268.22" cy="213.58" r="3.6" fill="#2a9d8f"><title>P8 PW cont cyclic slope=16</title></circle><circle cx="426.74" cy="280.53" r="3.6" fill="#2a9d8f"><title>P8 PW cont cyclic slope=16</title></circle><circle cx="506.00" cy="314.46" r="3.6" fill="#2a9d8f"><title>P8 PW cont cyclic slope=16</title></circle><circle cx="585.26" cy="336.10" r="3.6" fill="#2a9d8f"><title>P8 PW cont cyclic slope=16</title></circle><circle cx="664.52" cy="369.77" r="3.6" fill="#2a9d8f"><title>P8 PW cont cyclic slope=16</title></circle><circle cx="743.78" cy="397.81" r="3.6" fill="#2a9d8f"><title>P8 PW cont cyclic slope=16</title></circle><circle cx="902.30" cy="462.60" r="3.6" fill="#2a9d8f"><title>P8 PW cont cyclic slope=16</title></circle><polyline points="109.70,150.69 268.22,213.58 426.74,280.53 506.00,314.46 585.26,336.10 664.52,369.77 743.78,397.81 902.30,462.60" fill="none" stroke="#2a9d8f" stroke-width="1.7"/><text x="907.30" y="466.60" font-size="10" fill="#2a9d8f" font-weight="700">P8</text><circle cx="109.70" cy="130.59" r="3.6" fill="#d62828"><title>P9 PW cont cyclic slope=24</title></circle><circle cx="268.22" cy="186.81" r="3.6" fill="#d62828"><title>P9 PW cont cyclic slope=24</title></circle><circle cx="426.74" cy="246.90" r="3.6" fill="#d62828"><title>P9 PW cont cyclic slope=24</title></circle><circle cx="506.00" cy="278.35" r="3.6" fill="#d62828"><title>P9 PW cont cyclic slope=24</title></circle><circle cx="585.26" cy="298.64" r="3.6" fill="#d62828"><title>P9 PW cont cyclic slope=24</title></circle><circle cx="664.52" cy="329.66" r="3.6" fill="#d62828"><title>P9 PW cont cyclic slope=24</title></circle><circle cx="743.78" cy="356.55" r="3.6" fill="#d62828"><title>P9 PW cont cyclic slope=24</title></circle><circle cx="902.30" cy="409.00" r="3.6" fill="#d62828"><title>P9 PW cont cyclic slope=24</title></circle><polyline points="109.70,130.59 268.22,186.81 426.74,246.90 506.00,278.35 585.26,298.64 664.52,329.66 743.78,356.55 902.30,409.00" fill="none" stroke="#d62828" stroke-width="1.7"/><text x="907.30" y="413.00" font-size="10" fill="#d62828" font-weight="700">P9</text><circle cx="109.70" cy="90.41" r="3.6" fill="#6a994e"><title>P10 PW cont cyclic slope=32</title></circle><circle cx="268.22" cy="134.55" r="3.6" fill="#6a994e"><title>P10 PW cont cyclic slope=32</title></circle><circle cx="426.74" cy="188.13" r="3.6" fill="#6a994e"><title>P10 PW cont cyclic slope=32</title></circle><circle cx="506.00" cy="215.52" r="3.6" fill="#6a994e"><title>P10 PW cont cyclic slope=32</title></circle><circle cx="585.26" cy="229.16" r="3.6" fill="#6a994e"><title>P10 PW cont cyclic slope=32</title></circle><circle cx="664.52" cy="254.81" r="3.6" fill="#6a994e"><title>P10 PW cont cyclic slope=32</title></circle><circle cx="743.78" cy="277.39" r="3.6" fill="#6a994e"><title>P10 PW cont cyclic slope=32</title></circle><circle cx="902.30" cy="321.19" r="3.6" fill="#6a994e"><title>P10 PW cont cyclic slope=32</title></circle><polyline points="109.70,90.41 268.22,134.55 426.74,188.13 506.00,215.52 585.26,229.16 664.52,254.81 743.78,277.39 902.30,321.19" fill="none" stroke="#6a994e" stroke-width="1.7"/><text x="907.30" y="325.19" font-size="10" fill="#6a994e" font-weight="700">P10</text><circle cx="109.70" cy="115.17" r="3.6" fill="#003049"><title>P11 PW cont cyclic slope=48</title></circle><circle cx="268.22" cy="170.12" r="3.6" fill="#003049"><title>P11 PW cont cyclic slope=48</title></circle><circle cx="426.74" cy="228.12" r="3.6" fill="#003049"><title>P11 PW cont cyclic slope=48</title></circle><circle cx="506.00" cy="257.28" r="3.6" fill="#003049"><title>P11 PW cont cyclic slope=48</title></circle><circle cx="585.26" cy="276.57" r="3.6" fill="#003049"><title>P11 PW cont cyclic slope=48</title></circle><circle cx="664.52" cy="302.98" r="3.6" fill="#003049"><title>P11 PW cont cyclic slope=48</title></circle><circle cx="743.78" cy="327.23" r="3.6" fill="#003049"><title>P11 PW cont cyclic slope=48</title></circle><circle cx="902.30" cy="375.56" r="3.6" fill="#003049"><title>P11 PW cont cyclic slope=48</title></circle><polyline points="109.70,115.17 268.22,170.12 426.74,228.12 506.00,257.28 585.26,276.57 664.52,302.98 743.78,327.23 902.30,375.56" fill="none" stroke="#003049" stroke-width="1.7"/><text x="907.30" y="379.56" font-size="10" fill="#003049" font-weight="700">P11</text><circle cx="109.70" cy="132.38" r="3.6" fill="#bc6c25"><title>P12 PW cont cyclic slope=64</title></circle><circle cx="268.22" cy="185.41" r="3.6" fill="#bc6c25"><title>P12 PW cont cyclic slope=64</title></circle><circle cx="426.74" cy="248.12" r="3.6" fill="#bc6c25"><title>P12 PW cont cyclic slope=64</title></circle><circle cx="506.00" cy="275.50" r="3.6" fill="#bc6c25"><title>P12 PW cont cyclic slope=64</title></circle><circle cx="585.26" cy="296.07" r="3.6" fill="#bc6c25"><title>P12 PW cont cyclic slope=64</title></circle><circle cx="664.52" cy="323.65" r="3.6" fill="#bc6c25"><title>P12 PW cont cyclic slope=64</title></circle><circle cx="743.78" cy="351.05" r="3.6" fill="#bc6c25"><title>P12 PW cont cyclic slope=64</title></circle><circle cx="902.30" cy="404.63" r="3.6" fill="#bc6c25"><title>P12 PW cont cyclic slope=64</title></circle><polyline points="109.70,132.38 268.22,185.41 426.74,248.12 506.00,275.50 585.26,296.07 664.52,323.65 743.78,351.05 902.30,404.63" fill="none" stroke="#bc6c25" stroke-width="1.7"/><text x="907.30" y="408.63" font-size="10" fill="#bc6c25" font-weight="700">P12</text>
<line x1="952" y1="72.00" x2="968" y2="72.00" stroke="#26547c" stroke-width="2"/><text x="972" y="76.00" font-size="11">P1</text><line x1="952" y1="90.00" x2="968" y2="90.00" stroke="#ef476f" stroke-width="2"/><text x="972" y="94.00" font-size="11">P2</text><line x1="952" y1="108.00" x2="968" y2="108.00" stroke="#06a77d" stroke-width="2"/><text x="972" y="112.00" font-size="11">P3</text><line x1="952" y1="126.00" x2="968" y2="126.00" stroke="#7b2cbf" stroke-width="2"/><text x="972" y="130.00" font-size="11">P4</text><line x1="952" y1="144.00" x2="968" y2="144.00" stroke="#f77f00" stroke-width="2"/><text x="972" y="148.00" font-size="11">P5</text><line x1="952" y1="162.00" x2="968" y2="162.00" stroke="#118ab2" stroke-width="2"/><text x="972" y="166.00" font-size="11">P6</text><line x1="952" y1="180.00" x2="968" y2="180.00" stroke="#9d4edd" stroke-width="2"/><text x="972" y="184.00" font-size="11">P7</text><line x1="952" y1="198.00" x2="968" y2="198.00" stroke="#2a9d8f" stroke-width="2"/><text x="972" y="202.00" font-size="11">P8</text><line x1="952" y1="216.00" x2="968" y2="216.00" stroke="#d62828" stroke-width="2"/><text x="972" y="220.00" font-size="11">P9</text><line x1="952" y1="234.00" x2="968" y2="234.00" stroke="#6a994e" stroke-width="2"/><text x="972" y="238.00" font-size="11">P10</text><line x1="952" y1="252.00" x2="968" y2="252.00" stroke="#003049" stroke-width="2"/><text x="972" y="256.00" font-size="11">P11</text><line x1="952" y1="270.00" x2="968" y2="270.00" stroke="#bc6c25" stroke-width="2"/><text x="972" y="274.00" font-size="11">P12</text>
<text x="506.0" y="636" text-anchor="middle" font-size="14">SNR (dB)</text>
<text x="20" y="318.0" text-anchor="middle" font-size="14" transform="rotate(-90 20 318.0)">NMSE</text>
</svg>
