<svg xmlns="http://www.w3.org/2000/svg" width="1240" height="720" viewBox="0 0 1240 720">
<rect width="100%" height="100%" fill="white"/>
<text x="620.0" y="30" text-anchor="middle" font-size="18" font-family="Arial, sans-serif">Ideal-CSI BLER, 48 PRB, full interleaver</text>
<line x1="84" y1="638" x2="990" y2="638" stroke="#333" stroke-width="1.2"/>
<line x1="84" y1="56" x2="84" y2="638" stroke="#333" stroke-width="1.2"/>
<line x1="84.00" y1="56" x2="84.00" y2="638" stroke="#e6e8eb"/><text x="84.00" y="662" font-size="12" text-anchor="middle">11.5</text><line x1="265.20" y1="56" x2="265.20" y2="638" stroke="#e6e8eb"/><text x="265.20" y="662" font-size="12" text-anchor="middle">14.1</text><line x1="446.40" y1="56" x2="446.40" y2="638" stroke="#e6e8eb"/><text x="446.40" y="662" font-size="12" text-anchor="middle">16.7</text><line x1="627.60" y1="56" x2="627.60" y2="638" stroke="#e6e8eb"/><text x="627.60" y="662" font-size="12" text-anchor="middle">19.3</text><line x1="808.80" y1="56" x2="808.80" y2="638" stroke="#e6e8eb"/><text x="808.80" y="662" font-size="12" text-anchor="middle">21.9</text><line x1="990.00" y1="56" x2="990.00" y2="638" stroke="#e6e8eb"/><text x="990.00" y="662" font-size="12" text-anchor="middle">24.5</text><line x1="84" y1="616.97" x2="990" y2="616.97" stroke="#d9dde2"/><text x="76" y="620.97" font-size="12" text-anchor="end">1e-3</text><line x1="84" y1="419.76" x2="990" y2="419.76" stroke="#d9dde2"/><text x="76" y="423.76" font-size="12" text-anchor="end">1e-2</text><line x1="84" y1="222.55" x2="990" y2="222.55" stroke="#d9dde2"/><text x="76" y="226.55" font-size="12" text-anchor="end">1e-1</text><line x1="84" y1="557.61" x2="990" y2="557.61" stroke="#eef0f2"/><line x1="84" y1="479.13" x2="990" y2="479.13" stroke="#eef0f2"/><line x1="84" y1="360.39" x2="990" y2="360.39" stroke="#eef0f2"/><line x1="84" y1="281.91" x2="990" y2="281.91" stroke="#eef0f2"/><line x1="84" y1="163.18" x2="990" y2="163.18" stroke="#eef0f2"/><line x1="84" y1="84.70" x2="990" y2="84.70" stroke="#eef0f2"/>
<line x1="84" y1="222.55" x2="990" y2="222.55" stroke="#111" stroke-width="1" stroke-dasharray="5 4"/><text x="998" y="226.55" font-size="11" fill="#111">0.1</text><line x1="84" y1="419.76" x2="990" y2="419.76" stroke="#111" stroke-width="1" stroke-dasharray="5 4"/><text x="998" y="423.76" font-size="11" fill="#111">0.01</text><g><title>C0 CDD step=1</title><circle cx="117.56" cy="105.43" r="4" stroke="#0072B2" stroke-width="1.6" fill="white"/></g><g><title>C0 CDD step=1</title><circle cx="257.37" cy="151.21" r="4" stroke="#0072B2" stroke-width="1.6" fill="white"/></g><g><title>C0 CDD step=1</title><circle cx="327.28" cy="180.96" r="4" stroke="#0072B2" stroke-width="1.6" fill="white"/></g><g><title>C0 CDD step=1</title><circle cx="397.19" cy="210.58" r="4" stroke="#0072B2" stroke-width="1.6" fill="white"/></g><g><title>C0 CDD step=1</title><circle cx="467.09" cy="247.19" r="4" stroke="#0072B2" stroke-width="1.6" fill="white"/></g><g><title>C0 CDD step=1</title><circle cx="537.00" cy="286.31" r="4" stroke="#0072B2" stroke-width="1.6" fill="white"/></g><g><title>C0 CDD step=1</title><circle cx="676.81" cy="419.76" r="4" stroke="#0072B2" stroke-width="1.6" fill="white"/></g><g><title>C0 CDD step=1</title><circle cx="816.63" cy="479.13" r="4" stroke="#0072B2" stroke-width="1.6" fill="white"/></g><g><title>C0 CDD step=1</title><circle cx="956.44" cy="538.49" r="4" stroke="#0072B2" stroke-width="1.6" fill="white"/></g><polyline points="117.56,105.43 257.37,151.21 327.28,180.96 397.19,210.58 467.09,247.19 537.00,286.31 676.81,419.76 816.63,479.13 956.44,538.49" fill="none" stroke="#0072B2" stroke-width="2.1" stroke-dasharray="5 3"/><g><title>C1 CDD step=2</title><rect x="113.76" y="99.48" width="7.6" height="7.6" stroke="#D55E00" stroke-width="1.6" fill="white"/></g><g><title>C1 CDD step=2</title><rect x="253.57" y="164.91" width="7.6" height="7.6" stroke="#D55E00" stroke-width="1.6" fill="white"/></g><g><title>C1 CDD step=2</title><rect x="323.48" y="196.28" width="7.6" height="7.6" stroke="#D55E00" stroke-width="1.6" fill="white"/></g><g><title>C1 CDD step=2</title><rect x="393.39" y="237.86" width="7.6" height="7.6" stroke="#D55E00" stroke-width="1.6" fill="white"/></g><g><title>C1 CDD step=2</title><rect x="463.29" y="278.11" width="7.6" height="7.6" stroke="#D55E00" stroke-width="1.6" fill="white"/></g><g><title>C1 CDD step=2</title><rect x="533.20" y="346.51" width="7.6" height="7.6" stroke="#D55E00" stroke-width="1.6" fill="white"/></g><g><title>C1 CDD step=2</title><rect x="673.01" y="594.06" width="7.6" height="7.6" stroke="#D55E00" stroke-width="1.6" fill="white"/></g><g><title>C1 CDD step=2</title><rect x="812.83" y="594.06" width="7.6" height="7.6" stroke="#D55E00" stroke-width="1.6" fill="white"/></g><g><title>C1 CDD step=2</title><rect x="952.64" y="594.06" width="7.6" height="7.6" stroke="#D55E00" stroke-width="1.6" fill="white"/></g><polyline points="117.56,103.28 257.37,168.71 327.28,200.08 397.19,241.66 467.09,281.91 537.00,350.31 676.81,597.86 816.63,597.86 956.44,597.86" fill="none" stroke="#D55E00" stroke-width="2.1" stroke-dasharray="5 3"/><g><title>C2 CDD step=3</title><polygon points="117.56,95.03 113.26,103.23 121.86,103.23" stroke="#009E73" stroke-width="1.6" fill="white"/></g><g><title>C2 CDD step=3</title><polygon points="257.37,172.50 253.07,180.70 261.67,180.70" stroke="#009E73" stroke-width="1.6" fill="white"/></g><g><title>C2 CDD step=3</title><polygon points="327.28,215.83 322.98,224.03 331.58,224.03" stroke="#009E73" stroke-width="1.6" fill="white"/></g><g><title>C2 CDD step=3</title><polygon points="397.19,258.20 392.89,266.40 401.49,266.40" stroke="#009E73" stroke-width="1.6" fill="white"/></g><g><title>C2 CDD step=3</title><polygon points="467.09,336.68 462.79,344.88 471.39,344.88" stroke="#009E73" stroke-width="1.6" fill="white"/></g><g><title>C2 CDD step=3</title><polygon points="537.00,439.80 532.70,448.00 541.30,448.00" stroke="#009E73" stroke-width="1.6" fill="white"/></g><g><title>C2 CDD step=3</title><polygon points="676.81,533.89 672.51,542.09 681.11,542.09" stroke="#009E73" stroke-width="1.6" fill="white"/></g><g><title>C2 CDD step=3</title><polygon points="816.63,593.26 812.33,601.46 820.93,601.46" stroke="#009E73" stroke-width="1.6" fill="white"/></g><g><title>C2 CDD step=3</title><polygon points="956.44,593.26 952.14,601.46 960.74,601.46" stroke="#009E73" stroke-width="1.6" fill="white"/></g><polyline points="117.56,99.63 257.37,177.10 327.28,220.43 397.19,262.80 467.09,341.28 537.00,444.40 676.81,538.49 816.63,597.86 956.44,597.86" fill="none" stroke="#009E73" stroke-width="2.1" stroke-dasharray="5 3"/><g><title>C4 CDD step=5</title><polygon points="113.26,106.31 121.86,106.31 117.56,114.51" stroke="#E69F00" stroke-width="1.6" fill="white"/></g><g><title>C4 CDD step=5</title><polygon points="253.07,210.78 261.67,210.78 257.37,218.98" stroke="#E69F00" stroke-width="1.6" fill="white"/></g><g><title>C4 CDD step=5</title><polygon points="322.98,274.14 331.58,274.14 327.28,282.34" stroke="#E69F00" stroke-width="1.6" fill="white"/></g><g><title>C4 CDD step=5</title><polygon points="392.89,356.79 401.49,356.79 397.19,364.99" stroke="#E69F00" stroke-width="1.6" fill="white"/></g><g><title>C4 CDD step=5</title><polygon points="462.79,475.53 471.39,475.53 467.09,483.73" stroke="#E69F00" stroke-width="1.6" fill="white"/></g><g><title>C4 CDD step=5</title><polygon points="532.70,475.53 541.30,475.53 537.00,483.73" stroke="#E69F00" stroke-width="1.6" fill="white"/></g><polyline points="117.56,109.91 257.37,214.38 327.28,277.74 397.19,360.39 467.09,479.13 537.00,479.13" fill="none" stroke="#E69F00" stroke-width="2.1" stroke-dasharray="5 3"/><g><title>C5 CDD step=6</title><path d="M 113.56 109.91 H 121.56 M 117.56 105.91 V 113.91" stroke="#56B4E9" stroke-width="2" fill="none"/></g><g><title>C5 CDD step=6</title><path d="M 253.37 220.43 H 261.37 M 257.37 216.43 V 224.43" stroke="#56B4E9" stroke-width="2" fill="none"/></g><g><title>C5 CDD step=6</title><path d="M 323.28 318.81 H 331.28 M 327.28 314.81 V 322.81" stroke="#56B4E9" stroke-width="2" fill="none"/></g><g><title>C5 CDD step=6</title><path d="M 393.19 400.65 H 401.19 M 397.19 396.65 V 404.65" stroke="#56B4E9" stroke-width="2" fill="none"/></g><g><title>C5 CDD step=6</title><path d="M 463.09 444.40 H 471.09 M 467.09 440.40 V 448.40" stroke="#56B4E9" stroke-width="2" fill="none"/></g><g><title>C5 CDD step=6</title><path d="M 533.00 538.49 H 541.00 M 537.00 534.49 V 542.49" stroke="#56B4E9" stroke-width="2" fill="none"/></g><polyline points="117.56,109.91 257.37,220.43 327.28,318.81 397.19,400.65 467.09,444.40 537.00,538.49" fill="none" stroke="#56B4E9" stroke-width="2.1" stroke-dasharray="5 3"/><g><title>C6 CDD step=7</title><path d="M 114.06 109.93 L 121.06 116.93 M 121.06 109.93 L 114.06 116.93" stroke="#6F4E7C" stroke-width="2" fill="none"/></g><g><title>C6 CDD step=7</title><path d="M 253.87 240.88 L 260.87 247.88 M 260.87 240.88 L 253.87 247.88" stroke="#6F4E7C" stroke-width="2" fill="none"/></g><g><title>C6 CDD step=7</title><path d="M 323.78 322.17 L 330.78 329.17 M 330.78 322.17 L 323.78 329.17" stroke="#6F4E7C" stroke-width="2" fill="none"/></g><g><title>C6 CDD step=7</title><path d="M 393.69 416.26 L 400.69 423.26 M 400.69 416.26 L 393.69 423.26" stroke="#6F4E7C" stroke-width="2" fill="none"/></g><g><title>C6 CDD step=7</title><path d="M 463.59 440.90 L 470.59 447.90 M 470.59 440.90 L 463.59 447.90" stroke="#6F4E7C" stroke-width="2" fill="none"/></g><g><title>C6 CDD step=7</title><path d="M 533.50 534.99 L 540.50 541.99 M 540.50 534.99 L 533.50 541.99" stroke="#6F4E7C" stroke-width="2" fill="none"/></g><polyline points="117.56,113.43 257.37,244.38 327.28,325.67 397.19,419.76 467.09,444.40 537.00,538.49" fill="none" stroke="#6F4E7C" stroke-width="2.1" stroke-dasharray="5 3"/><g><title>C7 CDD step=64</title><polygon points="113.36,109.34 115.46,105.64 119.66,105.64 121.76,109.34 119.66,113.04 115.46,113.04" stroke="#222222" stroke-width="1.6" fill="white"/></g><g><title>C7 CDD step=64</title><polygon points="253.17,250.09 255.27,246.39 259.47,246.39 261.57,250.09 259.47,253.79 255.27,253.79" stroke="#222222" stroke-width="1.6" fill="white"/></g><g><title>C7 CDD step=64</title><polygon points="323.08,360.39 325.18,356.69 329.38,356.69 331.48,360.39 329.38,364.09 325.18,364.09" stroke="#222222" stroke-width="1.6" fill="white"/></g><g><title>C7 CDD step=64</title><polygon points="392.99,419.76 395.09,416.06 399.29,416.06 401.39,419.76 399.29,423.46 395.09,423.46" stroke="#222222" stroke-width="1.6" fill="white"/></g><g><title>C7 CDD step=64</title><polygon points="462.89,479.13 464.99,475.43 469.19,475.43 471.29,479.13 469.19,482.83 464.99,482.83" stroke="#222222" stroke-width="1.6" fill="white"/></g><g><title>C7 CDD step=64</title><polygon points="532.80,538.49 534.90,534.79 539.10,534.79 541.20,538.49 539.10,542.19 534.90,542.19" stroke="#222222" stroke-width="1.6" fill="white"/></g><polyline points="117.56,109.34 257.37,250.09 327.28,360.39 397.19,419.76 467.09,479.13 537.00,538.49" fill="none" stroke="#222222" stroke-width="2.1" stroke-dasharray="5 3"/><g><title>N3 NS-A0503-M1_2_3_64-LR00-S537649365</title><circle cx="117.56" cy="104.35" r="4" stroke="#A0006D" stroke-width="1.6" fill="#A0006D"/></g><g><title>N3 NS-A0503-M1_2_3_64-LR00-S537649365</title><circle cx="257.37" cy="169.86" r="4" stroke="#A0006D" stroke-width="1.6" fill="#A0006D"/></g><g><title>N3 NS-A0503-M1_2_3_64-LR00-S537649365</title><circle cx="327.28" cy="205.17" r="4" stroke="#A0006D" stroke-width="1.6" fill="#A0006D"/></g><g><title>N3 NS-A0503-M1_2_3_64-LR00-S537649365</title><circle cx="397.19" cy="269.94" r="4" stroke="#A0006D" stroke-width="1.6" fill="#A0006D"/></g><g><title>N3 NS-A0503-M1_2_3_64-LR00-S537649365</title><circle cx="467.09" cy="419.76" r="4" stroke="#A0006D" stroke-width="1.6" fill="#A0006D"/></g><g><title>N3 NS-A0503-M1_2_3_64-LR00-S537649365</title><circle cx="537.00" cy="597.86" r="4" stroke="#A0006D" stroke-width="1.6" fill="#A0006D"/></g><g><title>N3 NS-A0503-M1_2_3_64-LR00-S537649365</title><circle cx="676.81" cy="597.86" r="4" stroke="#A0006D" stroke-width="1.6" fill="#A0006D"/></g><g><title>N3 NS-A0503-M1_2_3_64-LR00-S537649365</title><circle cx="816.63" cy="597.86" r="4" stroke="#A0006D" stroke-width="1.6" fill="#A0006D"/></g><g><title>N3 NS-A0503-M1_2_3_64-LR00-S537649365</title><circle cx="956.44" cy="597.86" r="4" stroke="#A0006D" stroke-width="1.6" fill="#A0006D"/></g><polyline points="117.56,104.35 257.37,169.86 327.28,205.17 397.19,269.94 467.09,419.76 537.00,597.86 676.81,597.86 816.63,597.86 956.44,597.86" fill="none" stroke="#A0006D" stroke-width="2.1"/><g><title>N6 NS-A0501-M1_3_4_64-LR00-S537649103</title><rect x="113.76" y="93.82" width="7.6" height="7.6" stroke="#7A3E00" stroke-width="1.6" fill="#7A3E00"/></g><g><title>N6 NS-A0501-M1_3_4_64-LR00-S537649103</title><rect x="253.57" y="173.30" width="7.6" height="7.6" stroke="#7A3E00" stroke-width="1.6" fill="#7A3E00"/></g><g><title>N6 NS-A0501-M1_3_4_64-LR00-S537649103</title><rect x="323.48" y="232.67" width="7.6" height="7.6" stroke="#7A3E00" stroke-width="1.6" fill="#7A3E00"/></g><g><title>N6 NS-A0501-M1_3_4_64-LR00-S537649103</title><rect x="393.39" y="308.66" width="7.6" height="7.6" stroke="#7A3E00" stroke-width="1.6" fill="#7A3E00"/></g><g><title>N6 NS-A0501-M1_3_4_64-LR00-S537649103</title><rect x="463.29" y="356.59" width="7.6" height="7.6" stroke="#7A3E00" stroke-width="1.6" fill="#7A3E00"/></g><g><title>N6 NS-A0501-M1_3_4_64-LR00-S537649103</title><rect x="533.20" y="396.85" width="7.6" height="7.6" stroke="#7A3E00" stroke-width="1.6" fill="#7A3E00"/></g><g><title>N6 NS-A0501-M1_3_4_64-LR00-S537649103</title><rect x="673.01" y="594.06" width="7.6" height="7.6" stroke="#7A3E00" stroke-width="1.6" fill="#7A3E00"/></g><g><title>N6 NS-A0501-M1_3_4_64-LR00-S537649103</title><rect x="812.83" y="594.06" width="7.6" height="7.6" stroke="#7A3E00" stroke-width="1.6" fill="#7A3E00"/></g><g><title>N6 NS-A0501-M1_3_4_64-LR00-S537649103</title><rect x="952.64" y="594.06" width="7.6" height="7.6" stroke="#7A3E00" stroke-width="1.6" fill="#7A3E00"/></g><polyline points="117.56,97.62 257.37,177.10 327.28,236.47 397.19,312.46 467.09,360.39 537.00,400.65 676.81,597.86 816.63,597.86 956.44,597.86" fill="none" stroke="#7A3E00" stroke-width="2.1"/><g><title>N8 NS-A0494-M3_4_6_64-LR00-S535555854</title><polygon points="117.56,92.03 113.26,100.23 121.86,100.23" stroke="#117733" stroke-width="1.6" fill="#117733"/></g><g><title>N8 NS-A0494-M3_4_6_64-LR00-S535555854</title><polygon points="257.37,157.52 253.07,165.72 261.67,165.72" stroke="#117733" stroke-width="1.6" fill="#117733"/></g><g><title>N8 NS-A0494-M3_4_6_64-LR00-S535555854</title><polygon points="327.28,207.86 322.98,216.06 331.58,216.06" stroke="#117733" stroke-width="1.6" fill="#117733"/></g><g><title>N8 NS-A0494-M3_4_6_64-LR00-S535555854</title><polygon points="397.19,261.70 392.89,269.90 401.49,269.90" stroke="#117733" stroke-width="1.6" fill="#117733"/></g><g><title>N8 NS-A0494-M3_4_6_64-LR00-S535555854</title><polygon points="467.09,355.79 462.79,363.99 471.39,363.99" stroke="#117733" stroke-width="1.6" fill="#117733"/></g><g><title>N8 NS-A0494-M3_4_6_64-LR00-S535555854</title><polygon points="537.00,474.53 532.70,482.73 541.30,482.73" stroke="#117733" stroke-width="1.6" fill="#117733"/></g><g><title>N8 NS-A0494-M3_4_6_64-LR00-S535555854</title><polygon points="676.81,593.26 672.51,601.46 681.11,601.46" stroke="#117733" stroke-width="1.6" fill="#117733"/></g><g><title>N8 NS-A0494-M3_4_6_64-LR00-S535555854</title><polygon points="816.63,593.26 812.33,601.46 820.93,601.46" stroke="#117733" stroke-width="1.6" fill="#117733"/></g><g><title>N8 NS-A0494-M3_4_6_64-LR00-S535555854</title><polygon points="956.44,593.26 952.14,601.46 960.74,601.46" stroke="#117733" stroke-width="1.6" fill="#117733"/></g><polyline points="117.56,96.63 257.37,162.12 327.28,212.46 397.19,266.30 467.09,360.39 537.00,479.13 676.81,597.86 816.63,597.86 956.44,597.86" fill="none" stroke="#117733" stroke-width="2.1"/><g><title>N23 NS-A0330-M1_4_6_48-LC</title><polygon points="117.56,91.64 113.06,96.14 117.56,100.64 122.06,96.14" stroke="#332288" stroke-width="1.6" fill="#332288"/></g><g><title>N23 NS-A0330-M1_4_6_48-LC</title><polygon points="257.37,195.58 252.87,200.08 257.37,204.58 261.87,200.08" stroke="#332288" stroke-width="1.6" fill="#332288"/></g><g><title>N23 NS-A0330-M1_4_6_48-LC</title><polygon points="327.28,258.30 322.78,262.80 327.28,267.30 331.78,262.80" stroke="#332288" stroke-width="1.6" fill="#332288"/></g><g><title>N23 NS-A0330-M1_4_6_48-LC</title><polygon points="397.19,336.78 392.69,341.28 397.19,345.78 401.69,341.28" stroke="#332288" stroke-width="1.6" fill="#332288"/></g><g><title>N23 NS-A0330-M1_4_6_48-LC</title><polygon points="467.09,439.90 462.59,444.40 467.09,448.90 471.59,444.40" stroke="#332288" stroke-width="1.6" fill="#332288"/></g><g><title>N23 NS-A0330-M1_4_6_48-LC</title><polygon points="537.00,439.90 532.50,444.40 537.00,448.90 541.50,444.40" stroke="#332288" stroke-width="1.6" fill="#332288"/></g><g><title>N23 NS-A0330-M1_4_6_48-LC</title><polygon points="676.81,593.36 672.31,597.86 676.81,602.36 681.31,597.86" stroke="#332288" stroke-width="1.6" fill="#332288"/></g><g><title>N23 NS-A0330-M1_4_6_48-LC</title><polygon points="816.63,593.36 812.13,597.86 816.63,602.36 821.13,597.86" stroke="#332288" stroke-width="1.6" fill="#332288"/></g><g><title>N23 NS-A0330-M1_4_6_48-LC</title><polygon points="956.44,593.36 951.94,597.86 956.44,602.36 960.94,597.86" stroke="#332288" stroke-width="1.6" fill="#332288"/></g><polyline points="117.56,96.14 257.37,200.08 327.28,262.80 397.19,341.28 467.09,444.40 537.00,444.40 676.81,597.86 816.63,597.86 956.44,597.86" fill="none" stroke="#332288" stroke-width="2.1"/><line x1="397.19" y1="269.94" x2="443.20" y2="267.29" stroke="#A0006D" stroke-width="1.2"/><polygon points="449.19,266.94 443.37,270.28 443.02,264.29" fill="#A0006D"/><text x="455.19" y="269.94" font-size="11" fill="#A0006D" font-weight="700" paint-order="stroke" stroke="white" stroke-width="3">N3</text><line x1="537.00" y1="286.31" x2="583.01" y2="283.65" stroke="#0072B2" stroke-width="1.2"/><polygon points="589.00,283.31 583.18,286.65 582.84,280.66" fill="#0072B2"/><text x="595.00" y="286.31" font-size="11" fill="#0072B2" font-weight="700" paint-order="stroke" stroke="white" stroke-width="3">C0</text><line x1="397.19" y1="312.46" x2="443.20" y2="309.81" stroke="#7A3E00" stroke-width="1.2"/><polygon points="449.19,309.46 443.37,312.80 443.02,306.81" fill="#7A3E00"/><text x="455.19" y="312.46" font-size="11" fill="#7A3E00" font-weight="700" paint-order="stroke" stroke="white" stroke-width="3">N6</text><line x1="327.28" y1="318.81" x2="373.31" y2="323.81" stroke="#56B4E9" stroke-width="1.2"/><polygon points="379.28,324.46 372.99,326.80 373.64,320.83" fill="#56B4E9"/><text x="385.28" y="327.46" font-size="11" fill="#56B4E9" font-weight="700" paint-order="stroke" stroke="white" stroke-width="3">C5</text><line x1="327.28" y1="325.67" x2="373.48" y2="337.92" stroke="#6F4E7C" stroke-width="1.2"/><polygon points="379.28,339.46 372.71,340.82 374.25,335.02" fill="#6F4E7C"/><text x="385.28" y="342.46" font-size="11" fill="#6F4E7C" font-weight="700" paint-order="stroke" stroke="white" stroke-width="3">C6</text><line x1="467.09" y1="341.28" x2="513.28" y2="352.99" stroke="#009E73" stroke-width="1.2"/><polygon points="519.09,354.46 512.54,355.90 514.01,350.08" fill="#009E73"/><text x="525.09" y="357.46" font-size="11" fill="#009E73" font-weight="700" paint-order="stroke" stroke="white" stroke-width="3">C2</text><line x1="397.19" y1="341.28" x2="443.91" y2="366.60" stroke="#332288" stroke-width="1.2"/><polygon points="449.19,369.46 442.48,369.24 445.34,363.97" fill="#332288"/><text x="455.19" y="372.46" font-size="11" fill="#332288" font-weight="700" paint-order="stroke" stroke="white" stroke-width="3">N23</text><line x1="537.00" y1="350.31" x2="583.99" y2="381.17" stroke="#D55E00" stroke-width="1.2"/><polygon points="589.00,384.46 582.34,383.68 585.63,378.66" fill="#D55E00"/><text x="595.00" y="387.46" font-size="11" fill="#D55E00" font-weight="700" paint-order="stroke" stroke="white" stroke-width="3">C1</text><line x1="397.19" y1="360.39" x2="444.39" y2="395.86" stroke="#E69F00" stroke-width="1.2"/><polygon points="449.19,399.46 442.59,398.26 446.19,393.46" fill="#E69F00"/><text x="455.19" y="402.46" font-size="11" fill="#E69F00" font-weight="700" paint-order="stroke" stroke="white" stroke-width="3">C4</text><line x1="327.28" y1="360.39" x2="375.12" y2="410.14" stroke="#222222" stroke-width="1.2"/><polygon points="379.28,414.46 372.96,412.22 377.28,408.06" fill="#222222"/><text x="385.28" y="417.46" font-size="11" fill="#222222" font-weight="700" paint-order="stroke" stroke="white" stroke-width="3">C7</text><line x1="467.09" y1="360.39" x2="515.48" y2="424.67" stroke="#117733" stroke-width="1.2"/><polygon points="519.09,429.46 513.09,426.47 517.88,422.87" fill="#117733"/><text x="525.09" y="432.46" font-size="11" fill="#117733" font-weight="700" paint-order="stroke" stroke="white" stroke-width="3">N8</text>
<line x1="1016" y1="74.00" x2="1034" y2="74.00" stroke="#0072B2" stroke-width="2" stroke-dasharray="5 3"/><g><title>C0</title><circle cx="1025.00" cy="74.00" r="4" stroke="#0072B2" stroke-width="1.6" fill="white"/></g><text x="1040" y="78.00" font-size="11">C0</text><line x1="1016" y1="92.00" x2="1034" y2="92.00" stroke="#D55E00" stroke-width="2" stroke-dasharray="5 3"/><g><title>C1</title><rect x="1021.20" y="88.20" width="7.6" height="7.6" stroke="#D55E00" stroke-width="1.6" fill="white"/></g><text x="1040" y="96.00" font-size="11">C1</text><line x1="1016" y1="110.00" x2="1034" y2="110.00" stroke="#009E73" stroke-width="2" stroke-dasharray="5 3"/><g><title>C2</title><polygon points="1025.00,105.40 1020.70,113.60 1029.30,113.60" stroke="#009E73" stroke-width="1.6" fill="white"/></g><text x="1040" y="114.00" font-size="11">C2</text><line x1="1016" y1="128.00" x2="1034" y2="128.00" stroke="#E69F00" stroke-width="2" stroke-dasharray="5 3"/><g><title>C4</title><polygon points="1020.70,124.40 1029.30,124.40 1025.00,132.60" stroke="#E69F00" stroke-width="1.6" fill="white"/></g><text x="1040" y="132.00" font-size="11">C4</text><line x1="1016" y1="146.00" x2="1034" y2="146.00" stroke="#56B4E9" stroke-width="2" stroke-dasharray="5 3"/><g><title>C5</title><path d="M 1021.00 146.00 H 1029.00 M 1025.00 142.00 V 150.00" stroke="#56B4E9" stroke-width="2" fill="none"/></g><text x="1040" y="150.00" font-size="11">C5</text><line x1="1016" y1="164.00" x2="1034" y2="164.00" stroke="#6F4E7C" stroke-width="2" stroke-dasharray="5 3"/><g><title>C6</title><path d="M 1021.50 160.50 L 1028.50 167.50 M 1028.50 160.50 L 1021.50 167.50" stroke="#6F4E7C" stroke-width="2" fill="none"/></g><text x="1040" y="168.00" font-size="11">C6</text><line x1="1016" y1="182.00" x2="1034" y2="182.00" stroke="#222222" stroke-width="2" stroke-dasharray="5 3"/><g><title>C7</title><polygon points="1020.80,182.00 1022.90,178.30 1027.10,178.30 1029.20,182.00 1027.10,185.70 1022.90,185.70" stroke="#222222" stroke-width="1.6" fill="white"/></g><text x="1040" y="186.00" font-size="11">C7</text><line x1="1016" y1="200.00" x2="1034" y2="200.00" stroke="#A0006D" stroke-width="2"/><g><title>N3</title><circle cx="1025.00" cy="200.00" r="4" stroke="#A0006D" stroke-width="1.6" fill="#A0006D"/></g><text x="1040" y="204.00" font-size="11">N3</text><line x1="1016" y1="218.00" x2="1034" y2="218.00" stroke="#7A3E00" stroke-width="2"/><g><title>N6</title><rect x="1021.20" y="214.20" width="7.6" height="7.6" stroke="#7A3E00" stroke-width="1.6" fill="#7A3E00"/></g><text x="1040" y="222.00" font-size="11">N6</text><line x1="1016" y1="236.00" x2="1034" y2="236.00" stroke="#117733" stroke-width="2"/><g><title>N8</title><polygon points="1025.00,231.40 1020.70,239.60 1029.30,239.60" stroke="#117733" stroke-width="1.6" fill="#117733"/></g><text x="1040" y="240.00" font-size="11">N8</text><line x1="1016" y1="254.00" x2="1034" y2="254.00" stroke="#332288" stroke-width="2"/><g><title>N23</title><polygon points="1025.00,249.50 1020.50,254.00 1025.00,258.50 1029.50,254.00" stroke="#332288" stroke-width="1.6" fill="#332288"/></g><text x="1040" y="258.00" font-size="11">N23</text>
<text x="537.0" y="694" text-anchor="middle" font-size="14">SNR (dB)</text>
<text x="22" y="347.0" text-anchor="middle" font-size="14" transform="rotate(-90 22 347.0)">BLER</text>
<text x="1016" y="692" font-size="11" fill="#555">dashed: CDD, solid: piecewise</text>
</svg>
