<svg xmlns="http://www.w3.org/2000/svg" width="1240" height="720" viewBox="0 0 1240 720">
<rect width="100%" height="100%" fill="white"/>
<text x="620.0" y="30" text-anchor="middle" font-size="18" font-family="Arial, sans-serif">Matched RMMSE NMSE, 36 PRB</text>
<line x1="84" y1="638" x2="990" y2="638" stroke="#333" stroke-width="1.2"/>
<line x1="84" y1="56" x2="84" y2="638" stroke="#333" stroke-width="1.2"/>
<line x1="117.56" y1="56" x2="117.56" y2="638" stroke="#e6e8eb"/><text x="117.56" y="662" font-size="12" text-anchor="middle">0</text><line x1="257.37" y1="56" x2="257.37" y2="638" stroke="#e6e8eb"/><text x="257.37" y="662" font-size="12" text-anchor="middle">4</text><line x1="397.19" y1="56" x2="397.19" y2="638" stroke="#e6e8eb"/><text x="397.19" y="662" font-size="12" text-anchor="middle">8</text><line x1="537.00" y1="56" x2="537.00" y2="638" stroke="#e6e8eb"/><text x="537.00" y="662" font-size="12" text-anchor="middle">12</text><line x1="676.81" y1="56" x2="676.81" y2="638" stroke="#e6e8eb"/><text x="676.81" y="662" font-size="12" text-anchor="middle">16</text><line x1="816.63" y1="56" x2="816.63" y2="638" stroke="#e6e8eb"/><text x="816.63" y="662" font-size="12" text-anchor="middle">20</text><line x1="956.44" y1="56" x2="956.44" y2="638" stroke="#e6e8eb"/><text x="956.44" y="662" font-size="12" text-anchor="middle">24</text><line x1="84" y1="592.13" x2="990" y2="592.13" stroke="#d9dde2"/><text x="76" y="596.13" font-size="12" text-anchor="end">1e-3</text><line x1="84" y1="382.52" x2="990" y2="382.52" stroke="#d9dde2"/><text x="76" y="386.52" font-size="12" text-anchor="end">1e-2</text><line x1="84" y1="172.92" x2="990" y2="172.92" stroke="#d9dde2"/><text x="76" y="176.92" font-size="12" text-anchor="end">1e-1</text><line x1="84" y1="529.03" x2="990" y2="529.03" stroke="#eef0f2"/><line x1="84" y1="445.62" x2="990" y2="445.62" stroke="#eef0f2"/><line x1="84" y1="319.43" x2="990" y2="319.43" stroke="#eef0f2"/><line x1="84" y1="236.02" x2="990" y2="236.02" stroke="#eef0f2"/><line x1="84" y1="109.82" x2="990" y2="109.82" stroke="#eef0f2"/>
<g><title>C0 CDD step=1</title><circle cx="117.56" cy="148.25" r="4" stroke="#0072B2" stroke-width="1.6" fill="white"/></g><g><title>C0 CDD step=1</title><circle cx="257.37" cy="216.88" r="4" stroke="#0072B2" stroke-width="1.6" fill="white"/></g><g><title>C0 CDD step=1</title><circle cx="397.19" cy="288.54" r="4" stroke="#0072B2" stroke-width="1.6" fill="white"/></g><g><title>C0 CDD step=1</title><circle cx="537.00" cy="363.85" r="4" stroke="#0072B2" stroke-width="1.6" fill="white"/></g><g><title>C0 CDD step=1</title><circle cx="676.81" cy="441.47" r="4" stroke="#0072B2" stroke-width="1.6" fill="white"/></g><g><title>C0 CDD step=1</title><circle cx="816.63" cy="518.87" r="4" stroke="#0072B2" stroke-width="1.6" fill="white"/></g><g><title>C0 CDD step=1</title><circle cx="956.44" cy="595.52" r="4" stroke="#0072B2" stroke-width="1.6" fill="white"/></g><polyline points="117.56,148.25 257.37,216.88 397.19,288.54 537.00,363.85 676.81,441.47 816.63,518.87 956.44,595.52" fill="none" stroke="#0072B2" stroke-width="2.1" stroke-dasharray="5 3"/><g><title>C1 CDD step=2</title><rect x="113.76" y="142.45" width="7.6" height="7.6" stroke="#D55E00" stroke-width="1.6" fill="white"/></g><g><title>C1 CDD step=2</title><rect x="253.57" y="212.60" width="7.6" height="7.6" stroke="#D55E00" stroke-width="1.6" fill="white"/></g><g><title>C1 CDD step=2</title><rect x="393.39" y="286.01" width="7.6" height="7.6" stroke="#D55E00" stroke-width="1.6" fill="white"/></g><g><title>C1 CDD step=2</title><rect x="533.20" y="361.68" width="7.6" height="7.6" stroke="#D55E00" stroke-width="1.6" fill="white"/></g><g><title>C1 CDD step=2</title><rect x="673.01" y="439.18" width="7.6" height="7.6" stroke="#D55E00" stroke-width="1.6" fill="white"/></g><g><title>C1 CDD step=2</title><rect x="812.83" y="516.95" width="7.6" height="7.6" stroke="#D55E00" stroke-width="1.6" fill="white"/></g><g><title>C1 CDD step=2</title><rect x="952.64" y="594.06" width="7.6" height="7.6" stroke="#D55E00" stroke-width="1.6" fill="white"/></g><polyline points="117.56,146.25 257.37,216.40 397.19,289.81 537.00,365.48 676.81,442.98 816.63,520.75 956.44,597.86" fill="none" stroke="#D55E00" stroke-width="2.1" stroke-dasharray="5 3"/><g><title>C2 CDD step=3</title><polygon points="117.56,131.99 113.26,140.19 121.86,140.19" stroke="#009E73" stroke-width="1.6" fill="white"/></g><g><title>C2 CDD step=3</title><polygon points="257.37,202.52 253.07,210.72 261.67,210.72" stroke="#009E73" stroke-width="1.6" fill="white"/></g><g><title>C2 CDD step=3</title><polygon points="397.19,276.83 392.89,285.03 401.49,285.03" stroke="#009E73" stroke-width="1.6" fill="white"/></g><g><title>C2 CDD step=3</title><polygon points="537.00,352.78 532.70,360.98 541.30,360.98" stroke="#009E73" stroke-width="1.6" fill="white"/></g><g><title>C2 CDD step=3</title><polygon points="676.81,429.81 672.51,438.01 681.11,438.01" stroke="#009E73" stroke-width="1.6" fill="white"/></g><g><title>C2 CDD step=3</title><polygon points="816.63,507.24 812.33,515.44 820.93,515.44" stroke="#009E73" stroke-width="1.6" fill="white"/></g><g><title>C2 CDD step=3</title><polygon points="956.44,584.22 952.14,592.42 960.74,592.42" stroke="#009E73" stroke-width="1.6" fill="white"/></g><polyline points="117.56,136.59 257.37,207.12 397.19,281.43 537.00,357.38 676.81,434.41 816.63,511.84 956.44,588.82" fill="none" stroke="#009E73" stroke-width="2.1" stroke-dasharray="5 3"/><g><title>C3 CDD step=4</title><polygon points="117.56,124.32 113.06,128.82 117.56,133.32 122.06,128.82" stroke="#CC79A7" stroke-width="1.6" fill="white"/></g><g><title>C3 CDD step=4</title><polygon points="257.37,194.36 252.87,198.86 257.37,203.36 261.87,198.86" stroke="#CC79A7" stroke-width="1.6" fill="white"/></g><g><title>C3 CDD step=4</title><polygon points="397.19,268.50 392.69,273.00 397.19,277.50 401.69,273.00" stroke="#CC79A7" stroke-width="1.6" fill="white"/></g><g><title>C3 CDD step=4</title><polygon points="537.00,344.24 532.50,348.74 537.00,353.24 541.50,348.74" stroke="#CC79A7" stroke-width="1.6" fill="white"/></g><g><title>C3 CDD step=4</title><polygon points="676.81,420.77 672.31,425.27 676.81,429.77 681.31,425.27" stroke="#CC79A7" stroke-width="1.6" fill="white"/></g><g><title>C3 CDD step=4</title><polygon points="816.63,498.01 812.13,502.51 816.63,507.01 821.13,502.51" stroke="#CC79A7" stroke-width="1.6" fill="white"/></g><g><title>C3 CDD step=4</title><polygon points="956.44,575.14 951.94,579.64 956.44,584.14 960.94,579.64" stroke="#CC79A7" stroke-width="1.6" fill="white"/></g><polyline points="117.56,128.82 257.37,198.86 397.19,273.00 537.00,348.74 676.81,425.27 816.63,502.51 956.44,579.64" fill="none" stroke="#CC79A7" stroke-width="2.1" stroke-dasharray="5 3"/><g><title>C4 CDD step=5</title><polygon points="113.26,119.00 121.86,119.00 117.56,127.20" stroke="#E69F00" stroke-width="1.6" fill="white"/></g><g><title>C4 CDD step=5</title><polygon points="253.07,188.82 261.67,188.82 257.37,197.02" stroke="#E69F00" stroke-width="1.6" fill="white"/></g><g><title>C4 CDD step=5</title><polygon points="392.89,263.42 401.49,263.42 397.19,271.62" stroke="#E69F00" stroke-width="1.6" fill="white"/></g><g><title>C4 CDD step=5</title><polygon points="532.70,339.89 541.30,339.89 537.00,348.09" stroke="#E69F00" stroke-width="1.6" fill="white"/></g><g><title>C4 CDD step=5</title><polygon points="672.51,416.26 681.11,416.26 676.81,424.46" stroke="#E69F00" stroke-width="1.6" fill="white"/></g><g><title>C4 CDD step=5</title><polygon points="812.33,492.55 820.93,492.55 816.63,500.75" stroke="#E69F00" stroke-width="1.6" fill="white"/></g><g><title>C4 CDD step=5</title><polygon points="952.14,569.30 960.74,569.30 956.44,577.50" stroke="#E69F00" stroke-width="1.6" fill="white"/></g><polyline points="117.56,122.60 257.37,192.42 397.19,267.02 537.00,343.49 676.81,419.86 816.63,496.15 956.44,572.90" fill="none" stroke="#E69F00" stroke-width="2.1" stroke-dasharray="5 3"/><g><title>C5 CDD step=6</title><path d="M 113.56 115.59 H 121.56 M 117.56 111.59 V 119.59" stroke="#56B4E9" stroke-width="2" fill="none"/></g><g><title>C5 CDD step=6</title><path d="M 253.37 185.62 H 261.37 M 257.37 181.62 V 189.62" stroke="#56B4E9" stroke-width="2" fill="none"/></g><g><title>C5 CDD step=6</title><path d="M 393.19 259.84 H 401.19 M 397.19 255.84 V 263.84" stroke="#56B4E9" stroke-width="2" fill="none"/></g><g><title>C5 CDD step=6</title><path d="M 533.00 335.93 H 541.00 M 537.00 331.93 V 339.93" stroke="#56B4E9" stroke-width="2" fill="none"/></g><g><title>C5 CDD step=6</title><path d="M 672.81 412.68 H 680.81 M 676.81 408.68 V 416.68" stroke="#56B4E9" stroke-width="2" fill="none"/></g><g><title>C5 CDD step=6</title><path d="M 812.63 489.13 H 820.63 M 816.63 485.13 V 493.13" stroke="#56B4E9" stroke-width="2" fill="none"/></g><g><title>C5 CDD step=6</title><path d="M 952.44 565.35 H 960.44 M 956.44 561.35 V 569.35" stroke="#56B4E9" stroke-width="2" fill="none"/></g><polyline points="117.56,115.59 257.37,185.62 397.19,259.84 537.00,335.93 676.81,412.68 816.63,489.13 956.44,565.35" fill="none" stroke="#56B4E9" stroke-width="2.1" stroke-dasharray="5 3"/><g><title>C6 CDD step=7</title><path d="M 114.06 105.37 L 121.06 112.37 M 121.06 105.37 L 114.06 112.37" stroke="#6F4E7C" stroke-width="2" fill="none"/></g><g><title>C6 CDD step=7</title><path d="M 253.87 175.02 L 260.87 182.02 M 260.87 175.02 L 253.87 182.02" stroke="#6F4E7C" stroke-width="2" fill="none"/></g><g><title>C6 CDD step=7</title><path d="M 393.69 249.12 L 400.69 256.12 M 400.69 249.12 L 393.69 256.12" stroke="#6F4E7C" stroke-width="2" fill="none"/></g><g><title>C6 CDD step=7</title><path d="M 533.50 324.90 L 540.50 331.90 M 540.50 324.90 L 533.50 331.90" stroke="#6F4E7C" stroke-width="2" fill="none"/></g><g><title>C6 CDD step=7</title><path d="M 673.31 402.03 L 680.31 409.03 M 680.31 402.03 L 673.31 409.03" stroke="#6F4E7C" stroke-width="2" fill="none"/></g><g><title>C6 CDD step=7</title><path d="M 813.13 479.86 L 820.13 486.86 M 820.13 479.86 L 813.13 486.86" stroke="#6F4E7C" stroke-width="2" fill="none"/></g><g><title>C6 CDD step=7</title><path d="M 952.94 556.58 L 959.94 563.58 M 959.94 556.58 L 952.94 563.58" stroke="#6F4E7C" stroke-width="2" fill="none"/></g><polyline points="117.56,108.87 257.37,178.52 397.19,252.62 537.00,328.40 676.81,405.53 816.63,483.36 956.44,560.08" fill="none" stroke="#6F4E7C" stroke-width="2.1" stroke-dasharray="5 3"/><g><title>C7 CDD step=64</title><polygon points="113.36,96.14 115.46,92.44 119.66,92.44 121.76,96.14 119.66,99.84 115.46,99.84" stroke="#222222" stroke-width="1.6" fill="white"/></g><g><title>C7 CDD step=64</title><polygon points="253.17,161.98 255.27,158.28 259.47,158.28 261.57,161.98 259.47,165.68 255.27,165.68" stroke="#222222" stroke-width="1.6" fill="white"/></g><g><title>C7 CDD step=64</title><polygon points="392.99,229.73 395.09,226.03 399.29,226.03 401.39,229.73 399.29,233.43 395.09,233.43" stroke="#222222" stroke-width="1.6" fill="white"/></g><g><title>C7 CDD step=64</title><polygon points="532.80,294.80 534.90,291.10 539.10,291.10 541.20,294.80 539.10,298.50 534.90,298.50" stroke="#222222" stroke-width="1.6" fill="white"/></g><g><title>C7 CDD step=64</title><polygon points="672.61,358.77 674.71,355.07 678.91,355.07 681.01,358.77 678.91,362.47 674.71,362.47" stroke="#222222" stroke-width="1.6" fill="white"/></g><g><title>C7 CDD step=64</title><polygon points="812.43,426.37 814.53,422.67 818.73,422.67 820.83,426.37 818.73,430.07 814.53,430.07" stroke="#222222" stroke-width="1.6" fill="white"/></g><g><title>C7 CDD step=64</title><polygon points="952.24,498.56 954.34,494.86 958.54,494.86 960.64,498.56 958.54,502.26 954.34,502.26" stroke="#222222" stroke-width="1.6" fill="white"/></g><polyline points="117.56,96.14 257.37,161.98 397.19,229.73 537.00,294.80 676.81,358.77 816.63,426.37 956.44,498.56" fill="none" stroke="#222222" stroke-width="2.1" stroke-dasharray="5 3"/><g><title>N3 NS-A0503-M1_2_3_64-LR00-S537649365</title><circle cx="117.56" cy="101.48" r="4" stroke="#A0006D" stroke-width="1.6" fill="#A0006D"/></g><g><title>N3 NS-A0503-M1_2_3_64-LR00-S537649365</title><circle cx="257.37" cy="165.08" r="4" stroke="#A0006D" stroke-width="1.6" fill="#A0006D"/></g><g><title>N3 NS-A0503-M1_2_3_64-LR00-S537649365</title><circle cx="397.19" cy="234.98" r="4" stroke="#A0006D" stroke-width="1.6" fill="#A0006D"/></g><g><title>N3 NS-A0503-M1_2_3_64-LR00-S537649365</title><circle cx="537.00" cy="306.65" r="4" stroke="#A0006D" stroke-width="1.6" fill="#A0006D"/></g><g><title>N3 NS-A0503-M1_2_3_64-LR00-S537649365</title><circle cx="676.81" cy="378.00" r="4" stroke="#A0006D" stroke-width="1.6" fill="#A0006D"/></g><g><title>N3 NS-A0503-M1_2_3_64-LR00-S537649365</title><circle cx="816.63" cy="448.80" r="4" stroke="#A0006D" stroke-width="1.6" fill="#A0006D"/></g><g><title>N3 NS-A0503-M1_2_3_64-LR00-S537649365</title><circle cx="956.44" cy="519.70" r="4" stroke="#A0006D" stroke-width="1.6" fill="#A0006D"/></g><polyline points="117.56,101.48 257.37,165.08 397.19,234.98 537.00,306.65 676.81,378.00 816.63,448.80 956.44,519.70" fill="none" stroke="#A0006D" stroke-width="2.1"/><g><title>N6 NS-A0501-M1_3_4_64-LR00-S537649103</title><rect x="113.76" y="97.37" width="7.6" height="7.6" stroke="#7A3E00" stroke-width="1.6" fill="#7A3E00"/></g><g><title>N6 NS-A0501-M1_3_4_64-LR00-S537649103</title><rect x="253.57" y="159.54" width="7.6" height="7.6" stroke="#7A3E00" stroke-width="1.6" fill="#7A3E00"/></g><g><title>N6 NS-A0501-M1_3_4_64-LR00-S537649103</title><rect x="393.39" y="228.55" width="7.6" height="7.6" stroke="#7A3E00" stroke-width="1.6" fill="#7A3E00"/></g><g><title>N6 NS-A0501-M1_3_4_64-LR00-S537649103</title><rect x="533.20" y="299.77" width="7.6" height="7.6" stroke="#7A3E00" stroke-width="1.6" fill="#7A3E00"/></g><g><title>N6 NS-A0501-M1_3_4_64-LR00-S537649103</title><rect x="673.01" y="370.89" width="7.6" height="7.6" stroke="#7A3E00" stroke-width="1.6" fill="#7A3E00"/></g><g><title>N6 NS-A0501-M1_3_4_64-LR00-S537649103</title><rect x="812.83" y="441.51" width="7.6" height="7.6" stroke="#7A3E00" stroke-width="1.6" fill="#7A3E00"/></g><g><title>N6 NS-A0501-M1_3_4_64-LR00-S537649103</title><rect x="952.64" y="512.05" width="7.6" height="7.6" stroke="#7A3E00" stroke-width="1.6" fill="#7A3E00"/></g><polyline points="117.56,101.17 257.37,163.34 397.19,232.35 537.00,303.57 676.81,374.69 816.63,445.31 956.44,515.85" fill="none" stroke="#7A3E00" stroke-width="2.1"/><g><title>N8 NS-A0494-M3_4_6_64-LR00-S535555854</title><polygon points="117.56,96.45 113.26,104.65 121.86,104.65" stroke="#117733" stroke-width="1.6" fill="#117733"/></g><g><title>N8 NS-A0494-M3_4_6_64-LR00-S535555854</title><polygon points="257.37,158.97 253.07,167.17 261.67,167.17" stroke="#117733" stroke-width="1.6" fill="#117733"/></g><g><title>N8 NS-A0494-M3_4_6_64-LR00-S535555854</title><polygon points="397.19,228.21 392.89,236.41 401.49,236.41" stroke="#117733" stroke-width="1.6" fill="#117733"/></g><g><title>N8 NS-A0494-M3_4_6_64-LR00-S535555854</title><polygon points="537.00,299.71 532.70,307.91 541.30,307.91" stroke="#117733" stroke-width="1.6" fill="#117733"/></g><g><title>N8 NS-A0494-M3_4_6_64-LR00-S535555854</title><polygon points="676.81,371.33 672.51,379.53 681.11,379.53" stroke="#117733" stroke-width="1.6" fill="#117733"/></g><g><title>N8 NS-A0494-M3_4_6_64-LR00-S535555854</title><polygon points="816.63,443.00 812.33,451.20 820.93,451.20" stroke="#117733" stroke-width="1.6" fill="#117733"/></g><g><title>N8 NS-A0494-M3_4_6_64-LR00-S535555854</title><polygon points="956.44,515.00 952.14,523.20 960.74,523.20" stroke="#117733" stroke-width="1.6" fill="#117733"/></g><polyline points="117.56,101.05 257.37,163.57 397.19,232.81 537.00,304.31 676.81,375.93 816.63,447.60 956.44,519.60" fill="none" stroke="#117733" stroke-width="2.1"/><g><title>N23 NS-A0330-M1_4_6_48-LC</title><polygon points="117.56,96.38 113.06,100.88 117.56,105.38 122.06,100.88" stroke="#332288" stroke-width="1.6" fill="#332288"/></g><g><title>N23 NS-A0330-M1_4_6_48-LC</title><polygon points="257.37,161.40 252.87,165.90 257.37,170.40 261.87,165.90" stroke="#332288" stroke-width="1.6" fill="#332288"/></g><g><title>N23 NS-A0330-M1_4_6_48-LC</title><polygon points="397.19,233.11 392.69,237.61 397.19,242.11 401.69,237.61" stroke="#332288" stroke-width="1.6" fill="#332288"/></g><g><title>N23 NS-A0330-M1_4_6_48-LC</title><polygon points="537.00,306.94 532.50,311.44 537.00,315.94 541.50,311.44" stroke="#332288" stroke-width="1.6" fill="#332288"/></g><g><title>N23 NS-A0330-M1_4_6_48-LC</title><polygon points="676.81,380.82 672.31,385.32 676.81,389.82 681.31,385.32" stroke="#332288" stroke-width="1.6" fill="#332288"/></g><g><title>N23 NS-A0330-M1_4_6_48-LC</title><polygon points="816.63,453.80 812.13,458.30 816.63,462.80 821.13,458.30" stroke="#332288" stroke-width="1.6" fill="#332288"/></g><g><title>N23 NS-A0330-M1_4_6_48-LC</title><polygon points="956.44,525.29 951.94,529.79 956.44,534.29 960.94,529.79" stroke="#332288" stroke-width="1.6" fill="#332288"/></g><polyline points="117.56,100.88 257.37,165.90 397.19,237.61 537.00,311.44 676.81,385.32 816.63,458.30 956.44,529.79" fill="none" stroke="#332288" stroke-width="2.1"/>
<line x1="1016" y1="74.00" x2="1034" y2="74.00" stroke="#0072B2" stroke-width="2" stroke-dasharray="5 3"/><g><title>C0</title><circle cx="1025.00" cy="74.00" r="4" stroke="#0072B2" stroke-width="1.6" fill="white"/></g><text x="1040" y="78.00" font-size="11">C0</text><line x1="1016" y1="92.00" x2="1034" y2="92.00" stroke="#D55E00" stroke-width="2" stroke-dasharray="5 3"/><g><title>C1</title><rect x="1021.20" y="88.20" width="7.6" height="7.6" stroke="#D55E00" stroke-width="1.6" fill="white"/></g><text x="1040" y="96.00" font-size="11">C1</text><line x1="1016" y1="110.00" x2="1034" y2="110.00" stroke="#009E73" stroke-width="2" stroke-dasharray="5 3"/><g><title>C2</title><polygon points="1025.00,105.40 1020.70,113.60 1029.30,113.60" stroke="#009E73" stroke-width="1.6" fill="white"/></g><text x="1040" y="114.00" font-size="11">C2</text><line x1="1016" y1="128.00" x2="1034" y2="128.00" stroke="#CC79A7" stroke-width="2" stroke-dasharray="5 3"/><g><title>C3</title><polygon points="1025.00,123.50 1020.50,128.00 1025.00,132.50 1029.50,128.00" stroke="#CC79A7" stroke-width="1.6" fill="white"/></g><text x="1040" y="132.00" font-size="11">C3</text><line x1="1016" y1="146.00" x2="1034" y2="146.00" stroke="#E69F00" stroke-width="2" stroke-dasharray="5 3"/><g><title>C4</title><polygon points="1020.70,142.40 1029.30,142.40 1025.00,150.60" stroke="#E69F00" stroke-width="1.6" fill="white"/></g><text x="1040" y="150.00" font-size="11">C4</text><line x1="1016" y1="164.00" x2="1034" y2="164.00" stroke="#56B4E9" stroke-width="2" stroke-dasharray="5 3"/><g><title>C5</title><path d="M 1021.00 164.00 H 1029.00 M 1025.00 160.00 V 168.00" stroke="#56B4E9" stroke-width="2" fill="none"/></g><text x="1040" y="168.00" font-size="11">C5</text><line x1="1016" y1="182.00" x2="1034" y2="182.00" stroke="#6F4E7C" stroke-width="2" stroke-dasharray="5 3"/><g><title>C6</title><path d="M 1021.50 178.50 L 1028.50 185.50 M 1028.50 178.50 L 1021.50 185.50" stroke="#6F4E7C" stroke-width="2" fill="none"/></g><text x="1040" y="186.00" font-size="11">C6</text><line x1="1016" y1="200.00" x2="1034" y2="200.00" stroke="#222222" stroke-width="2" stroke-dasharray="5 3"/><g><title>C7</title><polygon points="1020.80,200.00 1022.90,196.30 1027.10,196.30 1029.20,200.00 1027.10,203.70 1022.90,203.70" stroke="#222222" stroke-width="1.6" fill="white"/></g><text x="1040" y="204.00" font-size="11">C7</text><line x1="1016" y1="218.00" x2="1034" y2="218.00" stroke="#A0006D" stroke-width="2"/><g><title>N3</title><circle cx="1025.00" cy="218.00" r="4" stroke="#A0006D" stroke-width="1.6" fill="#A0006D"/></g><text x="1040" y="222.00" font-size="11">N3</text><line x1="1016" y1="236.00" x2="1034" y2="236.00" stroke="#7A3E00" stroke-width="2"/><g><title>N6</title><rect x="1021.20" y="232.20" width="7.6" height="7.6" stroke="#7A3E00" stroke-width="1.6" fill="#7A3E00"/></g><text x="1040" y="240.00" font-size="11">N6</text><line x1="1016" y1="254.00" x2="1034" y2="254.00" stroke="#117733" stroke-width="2"/><g><title>N8</title><polygon points="1025.00,249.40 1020.70,257.60 1029.30,257.60" stroke="#117733" stroke-width="1.6" fill="#117733"/></g><text x="1040" y="258.00" font-size="11">N8</text><line x1="1016" y1="272.00" x2="1034" y2="272.00" stroke="#332288" stroke-width="2"/><g><title>N23</title><polygon points="1025.00,267.50 1020.50,272.00 1025.00,276.50 1029.50,272.00" stroke="#332288" stroke-width="1.6" fill="#332288"/></g><text x="1040" y="276.00" font-size="11">N23</text>
<text x="537.0" y="694" text-anchor="middle" font-size="14">SNR (dB)</text>
<text x="22" y="347.0" text-anchor="middle" font-size="14" transform="rotate(-90 22 347.0)">NMSE (log scale)</text>
<text x="1016" y="692" font-size="11" fill="#555">dashed: CDD, solid: piecewise</text>
</svg>
