<svg xmlns="http://www.w3.org/2000/svg" width="1240" height="720" viewBox="0 0 1240 720">
<rect width="100%" height="100%" fill="white"/>
<text x="620.0" y="30" text-anchor="middle" font-size="18" font-family="Arial, sans-serif">All Pareto Alg1 NMSE</text>
<line x1="84" y1="638" x2="990" y2="638" stroke="#333" stroke-width="1.2"/>
<line x1="84" y1="56" x2="84" y2="638" stroke="#333" stroke-width="1.2"/>
<line x1="84.00" y1="56" x2="84.00" y2="638" stroke="#e6e8eb"/><text x="84.00" y="662" font-size="12" text-anchor="middle">9.6</text><line x1="265.20" y1="56" x2="265.20" y2="638" stroke="#e6e8eb"/><text x="265.20" y="662" font-size="12" text-anchor="middle">11.8</text><line x1="446.40" y1="56" x2="446.40" y2="638" stroke="#e6e8eb"/><text x="446.40" y="662" font-size="12" text-anchor="middle">13.9</text><line x1="627.60" y1="56" x2="627.60" y2="638" stroke="#e6e8eb"/><text x="627.60" y="662" font-size="12" text-anchor="middle">16.1</text><line x1="808.80" y1="56" x2="808.80" y2="638" stroke="#e6e8eb"/><text x="808.80" y="662" font-size="12" text-anchor="middle">18.2</text><line x1="990.00" y1="56" x2="990.00" y2="638" stroke="#e6e8eb"/><text x="990.00" y="662" font-size="12" text-anchor="middle">20.4</text><line x1="84" y1="638.00" x2="990" y2="638.00" stroke="#e6e8eb"/><text x="76" y="642.00" font-size="12" text-anchor="end">0.00145</text><line x1="84" y1="521.60" x2="990" y2="521.60" stroke="#e6e8eb"/><text x="76" y="525.60" font-size="12" text-anchor="end">0.00315</text><line x1="84" y1="405.20" x2="990" y2="405.20" stroke="#e6e8eb"/><text x="76" y="409.20" font-size="12" text-anchor="end">0.00684</text><line x1="84" y1="288.80" x2="990" y2="288.80" stroke="#e6e8eb"/><text x="76" y="292.80" font-size="12" text-anchor="end">0.0148</text><line x1="84" y1="172.40" x2="990" y2="172.40" stroke="#e6e8eb"/><text x="76" y="176.40" font-size="12" text-anchor="end">0.0322</text><line x1="84" y1="56.00" x2="990" y2="56.00" stroke="#e6e8eb"/><text x="76" y="60.00" font-size="12" text-anchor="end">0.07</text>
<circle cx="117.56" cy="271.81" r="3.2" fill="#0b3c5d"><title>C1 CDD step=2</title></circle><circle cx="285.33" cy="340.27" r="3.2" fill="#0b3c5d"><title>C1 CDD step=2</title></circle><circle cx="453.11" cy="415.69" r="3.2" fill="#0b3c5d"><title>C1 CDD step=2</title></circle><circle cx="537.00" cy="445.31" r="3.2" fill="#0b3c5d"><title>C1 CDD step=2</title></circle><circle cx="620.89" cy="467.13" r="3.2" fill="#0b3c5d"><title>C1 CDD step=2</title></circle><circle cx="704.78" cy="508.46" r="3.2" fill="#0b3c5d"><title>C1 CDD step=2</title></circle><circle cx="788.67" cy="525.30" r="3.2" fill="#0b3c5d"><title>C1 CDD step=2</title></circle><circle cx="956.44" cy="597.86" r="3.2" fill="#0b3c5d"><title>C1 CDD step=2</title></circle><polyline points="117.56,271.81 285.33,340.27 453.11,415.69 537.00,445.31 620.89,467.13 704.78,508.46 788.67,525.30 956.44,597.86" fill="none" stroke="#0b3c5d" stroke-width="1.7" stroke-dasharray="5 3"/><text x="961.44" y="601.86" font-size="10" fill="#0b3c5d" font-weight="700">C1</text><circle cx="117.56" cy="271.49" r="3.2" fill="#1d5f8a"><title>C2 CDD step=3</title></circle><circle cx="285.33" cy="329.64" r="3.2" fill="#1d5f8a"><title>C2 CDD step=3</title></circle><circle cx="453.11" cy="403.17" r="3.2" fill="#1d5f8a"><title>C2 CDD step=3</title></circle><circle cx="537.00" cy="440.16" r="3.2" fill="#1d5f8a"><title>C2 CDD step=3</title></circle><circle cx="620.89" cy="459.77" r="3.2" fill="#1d5f8a"><title>C2 CDD step=3</title></circle><circle cx="704.78" cy="491.73" r="3.2" fill="#1d5f8a"><title>C2 CDD step=3</title></circle><circle cx="788.67" cy="518.31" r="3.2" fill="#1d5f8a"><title>C2 CDD step=3</title></circle><circle cx="956.44" cy="585.17" r="3.2" fill="#1d5f8a"><title>C2 CDD step=3</title></circle><polyline points="117.56,271.49 285.33,329.64 453.11,403.17 537.00,440.16 620.89,459.77 704.78,491.73 788.67,518.31 956.44,585.17" fill="none" stroke="#1d5f8a" stroke-width="1.7" stroke-dasharray="5 3"/><text x="961.44" y="589.17" font-size="10" fill="#1d5f8a" font-weight="700">C2</text><circle cx="117.56" cy="257.97" r="3.2" fill="#2f7fb0"><title>C3 CDD step=4</title></circle><circle cx="285.33" cy="314.87" r="3.2" fill="#2f7fb0"><title>C3 CDD step=4</title></circle><circle cx="453.11" cy="391.96" r="3.2" fill="#2f7fb0"><title>C3 CDD step=4</title></circle><circle cx="537.00" cy="425.03" r="3.2" fill="#2f7fb0"><title>C3 CDD step=4</title></circle><circle cx="620.89" cy="444.64" r="3.2" fill="#2f7fb0"><title>C3 CDD step=4</title></circle><circle cx="704.78" cy="475.72" r="3.2" fill="#2f7fb0"><title>C3 CDD step=4</title></circle><circle cx="788.67" cy="507.80" r="3.2" fill="#2f7fb0"><title>C3 CDD step=4</title></circle><circle cx="956.44" cy="568.63" r="3.2" fill="#2f7fb0"><title>C3 CDD step=4</title></circle><polyline points="117.56,257.97 285.33,314.87 453.11,391.96 537.00,425.03 620.89,444.64 704.78,475.72 788.67,507.80 956.44,568.63" fill="none" stroke="#2f7fb0" stroke-width="1.7" stroke-dasharray="5 3"/><text x="961.44" y="572.63" font-size="10" fill="#2f7fb0" font-weight="700">C3</text><circle cx="117.56" cy="239.37" r="3.2" fill="#5398c6"><title>C4 CDD step=5</title></circle><circle cx="285.33" cy="303.02" r="3.2" fill="#5398c6"><title>C4 CDD step=5</title></circle><circle cx="453.11" cy="377.96" r="3.2" fill="#5398c6"><title>C4 CDD step=5</title></circle><circle cx="537.00" cy="408.07" r="3.2" fill="#5398c6"><title>C4 CDD step=5</title></circle><circle cx="620.89" cy="430.63" r="3.2" fill="#5398c6"><title>C4 CDD step=5</title></circle><circle cx="704.78" cy="457.87" r="3.2" fill="#5398c6"><title>C4 CDD step=5</title></circle><circle cx="788.67" cy="497.25" r="3.2" fill="#5398c6"><title>C4 CDD step=5</title></circle><circle cx="956.44" cy="552.97" r="3.2" fill="#5398c6"><title>C4 CDD step=5</title></circle><polyline points="117.56,239.37 285.33,303.02 453.11,377.96 537.00,408.07 620.89,430.63 704.78,457.87 788.67,497.25 956.44,552.97" fill="none" stroke="#5398c6" stroke-width="1.7" stroke-dasharray="5 3"/><text x="961.44" y="556.97" font-size="10" fill="#5398c6" font-weight="700">C4</text><circle cx="117.56" cy="227.80" r="3.2" fill="#83b7d8"><title>C5 CDD step=6</title></circle><circle cx="285.33" cy="289.91" r="3.2" fill="#83b7d8"><title>C5 CDD step=6</title></circle><circle cx="453.11" cy="364.75" r="3.2" fill="#83b7d8"><title>C5 CDD step=6</title></circle><circle cx="537.00" cy="395.43" r="3.2" fill="#83b7d8"><title>C5 CDD step=6</title></circle><circle cx="620.89" cy="419.80" r="3.2" fill="#83b7d8"><title>C5 CDD step=6</title></circle><circle cx="704.78" cy="448.29" r="3.2" fill="#83b7d8"><title>C5 CDD step=6</title></circle><circle cx="788.67" cy="483.43" r="3.2" fill="#83b7d8"><title>C5 CDD step=6</title></circle><circle cx="956.44" cy="541.16" r="3.2" fill="#83b7d8"><title>C5 CDD step=6</title></circle><polyline points="117.56,227.80 285.33,289.91 453.11,364.75 537.00,395.43 620.89,419.80 704.78,448.29 788.67,483.43 956.44,541.16" fill="none" stroke="#83b7d8" stroke-width="1.7" stroke-dasharray="5 3"/><text x="961.44" y="545.16" font-size="10" fill="#83b7d8" font-weight="700">C5</text><circle cx="117.56" cy="218.80" r="3.2" fill="#b6d3e8"><title>C6 CDD step=7</title></circle><circle cx="285.33" cy="278.74" r="3.2" fill="#b6d3e8"><title>C6 CDD step=7</title></circle><circle cx="453.11" cy="351.23" r="3.2" fill="#b6d3e8"><title>C6 CDD step=7</title></circle><circle cx="537.00" cy="382.22" r="3.2" fill="#b6d3e8"><title>C6 CDD step=7</title></circle><circle cx="620.89" cy="410.80" r="3.2" fill="#b6d3e8"><title>C6 CDD step=7</title></circle><circle cx="704.78" cy="435.86" r="3.2" fill="#b6d3e8"><title>C6 CDD step=7</title></circle><circle cx="788.67" cy="470.56" r="3.2" fill="#b6d3e8"><title>C6 CDD step=7</title></circle><circle cx="956.44" cy="526.35" r="3.2" fill="#b6d3e8"><title>C6 CDD step=7</title></circle><polyline points="117.56,218.80 285.33,278.74 453.11,351.23 537.00,382.22 620.89,410.80 704.78,435.86 788.67,470.56 956.44,526.35" fill="none" stroke="#b6d3e8" stroke-width="1.7" stroke-dasharray="5 3"/><text x="961.44" y="530.35" font-size="10" fill="#b6d3e8" font-weight="700">C6</text><circle cx="117.56" cy="134.90" r="3.2" fill="#5a6f82"><title>C7 CDD step=64</title></circle><circle cx="285.33" cy="186.97" r="3.2" fill="#5a6f82"><title>C7 CDD step=64</title></circle><circle cx="453.11" cy="252.66" r="3.2" fill="#5a6f82"><title>C7 CDD step=64</title></circle><circle cx="537.00" cy="276.24" r="3.2" fill="#5a6f82"><title>C7 CDD step=64</title></circle><circle cx="620.89" cy="296.13" r="3.2" fill="#5a6f82"><title>C7 CDD step=64</title></circle><circle cx="704.78" cy="318.02" r="3.2" fill="#5a6f82"><title>C7 CDD step=64</title></circle><circle cx="788.67" cy="349.39" r="3.2" fill="#5a6f82"><title>C7 CDD step=64</title></circle><circle cx="956.44" cy="399.98" r="3.2" fill="#5a6f82"><title>C7 CDD step=64</title></circle><polyline points="117.56,134.90 285.33,186.97 453.11,252.66 537.00,276.24 620.89,296.13 704.78,318.02 788.67,349.39 956.44,399.98" fill="none" stroke="#5a6f82" stroke-width="1.7" stroke-dasharray="5 3"/><text x="961.44" y="403.98" font-size="10" fill="#5a6f82" font-weight="700">C7</text><circle cx="117.56" cy="207.24" r="3.2" fill="#8a1c7c"><title>P1 PW cont random slope=4 #938</title></circle><circle cx="285.33" cy="258.65" r="3.2" fill="#8a1c7c"><title>P1 PW cont random slope=4 #938</title></circle><circle cx="453.11" cy="336.24" r="3.2" fill="#8a1c7c"><title>P1 PW cont random slope=4 #938</title></circle><circle cx="537.00" cy="365.72" r="3.2" fill="#8a1c7c"><title>P1 PW cont random slope=4 #938</title></circle><circle cx="620.89" cy="383.88" r="3.2" fill="#8a1c7c"><title>P1 PW cont random slope=4 #938</title></circle><circle cx="704.78" cy="420.70" r="3.2" fill="#8a1c7c"><title>P1 PW cont random slope=4 #938</title></circle><circle cx="788.67" cy="449.04" r="3.2" fill="#8a1c7c"><title>P1 PW cont random slope=4 #938</title></circle><circle cx="956.44" cy="512.75" r="3.2" fill="#8a1c7c"><title>P1 PW cont random slope=4 #938</title></circle><polyline points="117.56,207.24 285.33,258.65 453.11,336.24 537.00,365.72 620.89,383.88 704.78,420.70 788.67,449.04 956.44,512.75" fill="none" stroke="#8a1c7c" stroke-width="1.7"/><text x="961.44" y="516.75" font-size="10" fill="#8a1c7c" font-weight="700">P1</text><circle cx="117.56" cy="213.83" r="3.2" fill="#b12a90"><title>P2 PW cont random slope=4 #939</title></circle><circle cx="285.33" cy="280.05" r="3.2" fill="#b12a90"><title>P2 PW cont random slope=4 #939</title></circle><circle cx="453.11" cy="361.50" r="3.2" fill="#b12a90"><title>P2 PW cont random slope=4 #939</title></circle><circle cx="537.00" cy="384.49" r="3.2" fill="#b12a90"><title>P2 PW cont random slope=4 #939</title></circle><circle cx="620.89" cy="405.00" r="3.2" fill="#b12a90"><title>P2 PW cont random slope=4 #939</title></circle><circle cx="704.78" cy="433.10" r="3.2" fill="#b12a90"><title>P2 PW cont random slope=4 #939</title></circle><circle cx="788.67" cy="458.72" r="3.2" fill="#b12a90"><title>P2 PW cont random slope=4 #939</title></circle><circle cx="956.44" cy="531.26" r="3.2" fill="#b12a90"><title>P2 PW cont random slope=4 #939</title></circle><polyline points="117.56,213.83 285.33,280.05 453.11,361.50 537.00,384.49 620.89,405.00 704.78,433.10 788.67,458.72 956.44,531.26" fill="none" stroke="#b12a90" stroke-width="1.7"/><text x="961.44" y="535.26" font-size="10" fill="#b12a90" font-weight="700">P2</text><circle cx="117.56" cy="224.33" r="3.2" fill="#d34c8f"><title>P3 PW cont random slope=4 #940</title></circle><circle cx="285.33" cy="270.71" r="3.2" fill="#d34c8f"><title>P3 PW cont random slope=4 #940</title></circle><circle cx="453.11" cy="347.50" r="3.2" fill="#d34c8f"><title>P3 PW cont random slope=4 #940</title></circle><circle cx="537.00" cy="371.90" r="3.2" fill="#d34c8f"><title>P3 PW cont random slope=4 #940</title></circle><circle cx="620.89" cy="401.09" r="3.2" fill="#d34c8f"><title>P3 PW cont random slope=4 #940</title></circle><circle cx="704.78" cy="429.37" r="3.2" fill="#d34c8f"><title>P3 PW cont random slope=4 #940</title></circle><circle cx="788.67" cy="459.90" r="3.2" fill="#d34c8f"><title>P3 PW cont random slope=4 #940</title></circle><circle cx="956.44" cy="522.84" r="3.2" fill="#d34c8f"><title>P3 PW cont random slope=4 #940</title></circle><polyline points="117.56,224.33 285.33,270.71 453.11,347.50 537.00,371.90 620.89,401.09 704.78,429.37 788.67,459.90 956.44,522.84" fill="none" stroke="#d34c8f" stroke-width="1.7"/><text x="961.44" y="526.84" font-size="10" fill="#d34c8f" font-weight="700">P3</text><circle cx="117.56" cy="215.61" r="3.2" fill="#e76f51"><title>P4 PW cont cyclic slope=4</title></circle><circle cx="285.33" cy="282.49" r="3.2" fill="#e76f51"><title>P4 PW cont cyclic slope=4</title></circle><circle cx="453.11" cy="354.11" r="3.2" fill="#e76f51"><title>P4 PW cont cyclic slope=4</title></circle><circle cx="537.00" cy="388.05" r="3.2" fill="#e76f51"><title>P4 PW cont cyclic slope=4</title></circle><circle cx="620.89" cy="411.12" r="3.2" fill="#e76f51"><title>P4 PW cont cyclic slope=4</title></circle><circle cx="704.78" cy="442.99" r="3.2" fill="#e76f51"><title>P4 PW cont cyclic slope=4</title></circle><circle cx="788.67" cy="479.16" r="3.2" fill="#e76f51"><title>P4 PW cont cyclic slope=4</title></circle><circle cx="956.44" cy="526.19" r="3.2" fill="#e76f51"><title>P4 PW cont cyclic slope=4</title></circle><polyline points="117.56,215.61 285.33,282.49 453.11,354.11 537.00,388.05 620.89,411.12 704.78,442.99 788.67,479.16 956.44,526.19" fill="none" stroke="#e76f51" stroke-width="1.7"/><text x="961.44" y="530.19" font-size="10" fill="#e76f51" font-weight="700">P4</text><circle cx="117.56" cy="196.91" r="3.2" fill="#f4a261"><title>P5 PW cont random slope=6 #201</title></circle><circle cx="285.33" cy="267.59" r="3.2" fill="#f4a261"><title>P5 PW cont random slope=6 #201</title></circle><circle cx="453.11" cy="334.40" r="3.2" fill="#f4a261"><title>P5 PW cont random slope=6 #201</title></circle><circle cx="537.00" cy="359.71" r="3.2" fill="#f4a261"><title>P5 PW cont random slope=6 #201</title></circle><circle cx="620.89" cy="384.14" r="3.2" fill="#f4a261"><title>P5 PW cont random slope=6 #201</title></circle><circle cx="704.78" cy="406.71" r="3.2" fill="#f4a261"><title>P5 PW cont random slope=6 #201</title></circle><circle cx="788.67" cy="444.62" r="3.2" fill="#f4a261"><title>P5 PW cont random slope=6 #201</title></circle><circle cx="956.44" cy="489.65" r="3.2" fill="#f4a261"><title>P5 PW cont random slope=6 #201</title></circle><polyline points="117.56,196.91 285.33,267.59 453.11,334.40 537.00,359.71 620.89,384.14 704.78,406.71 788.67,444.62 956.44,489.65" fill="none" stroke="#f4a261" stroke-width="1.7"/><text x="961.44" y="493.65" font-size="10" fill="#f4a261" font-weight="700">P5</text><circle cx="117.56" cy="218.42" r="3.2" fill="#2a9d8f"><title>P6 PW cont cyclic slope=6</title></circle><circle cx="285.33" cy="277.78" r="3.2" fill="#2a9d8f"><title>P6 PW cont cyclic slope=6</title></circle><circle cx="453.11" cy="347.37" r="3.2" fill="#2a9d8f"><title>P6 PW cont cyclic slope=6</title></circle><circle cx="537.00" cy="376.67" r="3.2" fill="#2a9d8f"><title>P6 PW cont cyclic slope=6</title></circle><circle cx="620.89" cy="394.93" r="3.2" fill="#2a9d8f"><title>P6 PW cont cyclic slope=6</title></circle><circle cx="704.78" cy="422.74" r="3.2" fill="#2a9d8f"><title>P6 PW cont cyclic slope=6</title></circle><circle cx="788.67" cy="457.58" r="3.2" fill="#2a9d8f"><title>P6 PW cont cyclic slope=6</title></circle><circle cx="956.44" cy="508.39" r="3.2" fill="#2a9d8f"><title>P6 PW cont cyclic slope=6</title></circle><polyline points="117.56,218.42 285.33,277.78 453.11,347.37 537.00,376.67 620.89,394.93 704.78,422.74 788.67,457.58 956.44,508.39" fill="none" stroke="#2a9d8f" stroke-width="1.7"/><text x="961.44" y="512.39" font-size="10" fill="#2a9d8f" font-weight="700">P6</text><circle cx="117.56" cy="204.09" r="3.2" fill="#168aad"><title>P7 PW cont cyclic slope=8</title></circle><circle cx="285.33" cy="260.76" r="3.2" fill="#168aad"><title>P7 PW cont cyclic slope=8</title></circle><circle cx="453.11" cy="329.54" r="3.2" fill="#168aad"><title>P7 PW cont cyclic slope=8</title></circle><circle cx="537.00" cy="353.87" r="3.2" fill="#168aad"><title>P7 PW cont cyclic slope=8</title></circle><circle cx="620.89" cy="377.55" r="3.2" fill="#168aad"><title>P7 PW cont cyclic slope=8</title></circle><circle cx="704.78" cy="404.19" r="3.2" fill="#168aad"><title>P7 PW cont cyclic slope=8</title></circle><circle cx="788.67" cy="433.76" r="3.2" fill="#168aad"><title>P7 PW cont cyclic slope=8</title></circle><circle cx="956.44" cy="493.61" r="3.2" fill="#168aad"><title>P7 PW cont cyclic slope=8</title></circle><polyline points="117.56,204.09 285.33,260.76 453.11,329.54 537.00,353.87 620.89,377.55 704.78,404.19 788.67,433.76 956.44,493.61" fill="none" stroke="#168aad" stroke-width="1.7"/><text x="961.44" y="497.61" font-size="10" fill="#168aad" font-weight="700">P7</text><circle cx="117.56" cy="157.26" r="3.2" fill="#4361ee"><title>P8 PW cont cyclic slope=16</title></circle><circle cx="285.33" cy="215.61" r="3.2" fill="#4361ee"><title>P8 PW cont cyclic slope=16</title></circle><circle cx="453.11" cy="285.87" r="3.2" fill="#4361ee"><title>P8 PW cont cyclic slope=16</title></circle><circle cx="537.00" cy="310.57" r="3.2" fill="#4361ee"><title>P8 PW cont cyclic slope=16</title></circle><circle cx="620.89" cy="336.93" r="3.2" fill="#4361ee"><title>P8 PW cont cyclic slope=16</title></circle><circle cx="704.78" cy="364.76" r="3.2" fill="#4361ee"><title>P8 PW cont cyclic slope=16</title></circle><circle cx="788.67" cy="393.45" r="3.2" fill="#4361ee"><title>P8 PW cont cyclic slope=16</title></circle><circle cx="956.44" cy="452.08" r="3.2" fill="#4361ee"><title>P8 PW cont cyclic slope=16</title></circle><polyline points="117.56,157.26 285.33,215.61 453.11,285.87 537.00,310.57 620.89,336.93 704.78,364.76 788.67,393.45 956.44,452.08" fill="none" stroke="#4361ee" stroke-width="1.7"/><text x="961.44" y="456.08" font-size="10" fill="#4361ee" font-weight="700">P8</text><circle cx="117.56" cy="132.86" r="3.2" fill="#6a4c93"><title>P9 PW cont cyclic slope=24</title></circle><circle cx="285.33" cy="186.29" r="3.2" fill="#6a4c93"><title>P9 PW cont cyclic slope=24</title></circle><circle cx="453.11" cy="253.34" r="3.2" fill="#6a4c93"><title>P9 PW cont cyclic slope=24</title></circle><circle cx="537.00" cy="276.70" r="3.2" fill="#6a4c93"><title>P9 PW cont cyclic slope=24</title></circle><circle cx="620.89" cy="298.57" r="3.2" fill="#6a4c93"><title>P9 PW cont cyclic slope=24</title></circle><circle cx="704.78" cy="324.92" r="3.2" fill="#6a4c93"><title>P9 PW cont cyclic slope=24</title></circle><circle cx="788.67" cy="349.55" r="3.2" fill="#6a4c93"><title>P9 PW cont cyclic slope=24</title></circle><circle cx="956.44" cy="403.45" r="3.2" fill="#6a4c93"><title>P9 PW cont cyclic slope=24</title></circle><polyline points="117.56,132.86 285.33,186.29 453.11,253.34 537.00,276.70 620.89,298.57 704.78,324.92 788.67,349.55 956.44,403.45" fill="none" stroke="#6a4c93" stroke-width="1.7"/><text x="961.44" y="407.45" font-size="10" fill="#6a4c93" font-weight="700">P9</text><circle cx="117.56" cy="96.14" r="3.2" fill="#7cb342"><title>P10 PW cont cyclic slope=32</title></circle><circle cx="285.33" cy="138.96" r="3.2" fill="#7cb342"><title>P10 PW cont cyclic slope=32</title></circle><circle cx="453.11" cy="195.36" r="3.2" fill="#7cb342"><title>P10 PW cont cyclic slope=32</title></circle><circle cx="537.00" cy="217.04" r="3.2" fill="#7cb342"><title>P10 PW cont cyclic slope=32</title></circle><circle cx="620.89" cy="235.00" r="3.2" fill="#7cb342"><title>P10 PW cont cyclic slope=32</title></circle><circle cx="704.78" cy="260.09" r="3.2" fill="#7cb342"><title>P10 PW cont cyclic slope=32</title></circle><circle cx="788.67" cy="280.64" r="3.2" fill="#7cb342"><title>P10 PW cont cyclic slope=32</title></circle><circle cx="956.44" cy="323.90" r="3.2" fill="#7cb342"><title>P10 PW cont cyclic slope=32</title></circle><polyline points="117.56,96.14 285.33,138.96 453.11,195.36 537.00,217.04 620.89,235.00 704.78,260.09 788.67,280.64 956.44,323.90" fill="none" stroke="#7cb342" stroke-width="1.7"/><text x="961.44" y="327.90" font-size="10" fill="#7cb342" font-weight="700">P10</text><circle cx="117.56" cy="119.82" r="3.2" fill="#455a64"><title>P11 PW cont cyclic slope=48</title></circle><circle cx="285.33" cy="173.86" r="3.2" fill="#455a64"><title>P11 PW cont cyclic slope=48</title></circle><circle cx="453.11" cy="229.53" r="3.2" fill="#455a64"><title>P11 PW cont cyclic slope=48</title></circle><circle cx="537.00" cy="256.06" r="3.2" fill="#455a64"><title>P11 PW cont cyclic slope=48</title></circle><circle cx="620.89" cy="275.13" r="3.2" fill="#455a64"><title>P11 PW cont cyclic slope=48</title></circle><circle cx="704.78" cy="299.29" r="3.2" fill="#455a64"><title>P11 PW cont cyclic slope=48</title></circle><circle cx="788.67" cy="324.24" r="3.2" fill="#455a64"><title>P11 PW cont cyclic slope=48</title></circle><circle cx="956.44" cy="371.01" r="3.2" fill="#455a64"><title>P11 PW cont cyclic slope=48</title></circle><polyline points="117.56,119.82 285.33,173.86 453.11,229.53 537.00,256.06 620.89,275.13 704.78,299.29 788.67,324.24 956.44,371.01" fill="none" stroke="#455a64" stroke-width="1.7"/><text x="961.44" y="375.01" font-size="10" fill="#455a64" font-weight="700">P11</text><circle cx="117.56" cy="136.77" r="3.2" fill="#bf6f1d"><title>P12 PW cont cyclic slope=64</title></circle><circle cx="285.33" cy="188.25" r="3.2" fill="#bf6f1d"><title>P12 PW cont cyclic slope=64</title></circle><circle cx="453.11" cy="249.07" r="3.2" fill="#bf6f1d"><title>P12 PW cont cyclic slope=64</title></circle><circle cx="537.00" cy="272.84" r="3.2" fill="#bf6f1d"><title>P12 PW cont cyclic slope=64</title></circle><circle cx="620.89" cy="299.20" r="3.2" fill="#bf6f1d"><title>P12 PW cont cyclic slope=64</title></circle><circle cx="704.78" cy="320.65" r="3.2" fill="#bf6f1d"><title>P12 PW cont cyclic slope=64</title></circle><circle cx="788.67" cy="348.18" r="3.2" fill="#bf6f1d"><title>P12 PW cont cyclic slope=64</title></circle><circle cx="956.44" cy="401.44" r="3.2" fill="#bf6f1d"><title>P12 PW cont cyclic slope=64</title></circle><polyline points="117.56,136.77 285.33,188.25 453.11,249.07 537.00,272.84 620.89,299.20 704.78,320.65 788.67,348.18 956.44,401.44" fill="none" stroke="#bf6f1d" stroke-width="1.7"/><text x="961.44" y="405.44" font-size="10" fill="#bf6f1d" font-weight="700">P12</text>
<line x1="1016" y1="74.00" x2="1034" y2="74.00" stroke="#0b3c5d" stroke-width="2" stroke-dasharray="5 3"/><text x="1040" y="78.00" font-size="11">C1</text><line x1="1016" y1="92.00" x2="1034" y2="92.00" stroke="#1d5f8a" stroke-width="2" stroke-dasharray="5 3"/><text x="1040" y="96.00" font-size="11">C2</text><line x1="1016" y1="110.00" x2="1034" y2="110.00" stroke="#2f7fb0" stroke-width="2" stroke-dasharray="5 3"/><text x="1040" y="114.00" font-size="11">C3</text><line x1="1016" y1="128.00" x2="1034" y2="128.00" stroke="#5398c6" stroke-width="2" stroke-dasharray="5 3"/><text x="1040" y="132.00" font-size="11">C4</text><line x1="1016" y1="146.00" x2="1034" y2="146.00" stroke="#83b7d8" stroke-width="2" stroke-dasharray="5 3"/><text x="1040" y="150.00" font-size="11">C5</text><line x1="1016" y1="164.00" x2="1034" y2="164.00" stroke="#b6d3e8" stroke-width="2" stroke-dasharray="5 3"/><text x="1040" y="168.00" font-size="11">C6</text><line x1="1016" y1="182.00" x2="1034" y2="182.00" stroke="#5a6f82" stroke-width="2" stroke-dasharray="5 3"/><text x="1040" y="186.00" font-size="11">C7</text><line x1="1016" y1="200.00" x2="1034" y2="200.00" stroke="#8a1c7c" stroke-width="2"/><text x="1040" y="204.00" font-size="11">P1</text><line x1="1016" y1="218.00" x2="1034" y2="218.00" stroke="#b12a90" stroke-width="2"/><text x="1040" y="222.00" font-size="11">P2</text><line x1="1016" y1="236.00" x2="1034" y2="236.00" stroke="#d34c8f" stroke-width="2"/><text x="1040" y="240.00" font-size="11">P3</text><line x1="1016" y1="254.00" x2="1034" y2="254.00" stroke="#e76f51" stroke-width="2"/><text x="1040" y="258.00" font-size="11">P4</text><line x1="1016" y1="272.00" x2="1034" y2="272.00" stroke="#f4a261" stroke-width="2"/><text x="1040" y="276.00" font-size="11">P5</text><line x1="1016" y1="290.00" x2="1034" y2="290.00" stroke="#2a9d8f" stroke-width="2"/><text x="1040" y="294.00" font-size="11">P6</text><line x1="1016" y1="308.00" x2="1034" y2="308.00" stroke="#168aad" stroke-width="2"/><text x="1040" y="312.00" font-size="11">P7</text><line x1="1016" y1="326.00" x2="1034" y2="326.00" stroke="#4361ee" stroke-width="2"/><text x="1040" y="330.00" font-size="11">P8</text><line x1="1016" y1="344.00" x2="1034" y2="344.00" stroke="#6a4c93" stroke-width="2"/><text x="1040" y="348.00" font-size="11">P9</text><line x1="1016" y1="362.00" x2="1034" y2="362.00" stroke="#7cb342" stroke-width="2"/><text x="1040" y="366.00" font-size="11">P10</text><line x1="1016" y1="380.00" x2="1034" y2="380.00" stroke="#455a64" stroke-width="2"/><text x="1040" y="384.00" font-size="11">P11</text><line x1="1016" y1="398.00" x2="1034" y2="398.00" stroke="#bf6f1d" stroke-width="2"/><text x="1040" y="402.00" font-size="11">P12</text>
<text x="537.0" y="694" text-anchor="middle" font-size="14">SNR (dB)</text>
<text x="22" y="347.0" text-anchor="middle" font-size="14" transform="rotate(-90 22 347.0)">NMSE</text>
<text x="1016" y="692" font-size="11" fill="#555">dashed: CDD, solid: piecewise</text>
</svg>
