<svg xmlns="http://www.w3.org/2000/svg" width="1240" height="720" viewBox="0 0 1240 720">
<rect width="100%" height="100%" fill="white"/>
<text x="620.0" y="30" text-anchor="middle" font-size="18" font-family="Arial, sans-serif">Algorithm 1 estimated-CSI BLER, 48 PRB, full interleaver</text>
<line x1="84" y1="638" x2="990" y2="638" stroke="#333" stroke-width="1.2"/>
<line x1="84" y1="56" x2="84" y2="638" stroke="#333" stroke-width="1.2"/>
<line x1="117.56" y1="56" x2="117.56" y2="638" stroke="#e6e8eb"/><text x="117.56" y="662" font-size="12" text-anchor="middle">14</text><line x1="397.19" y1="56" x2="397.19" y2="638" stroke="#e6e8eb"/><text x="397.19" y="662" font-size="12" text-anchor="middle">16</text><line x1="676.81" y1="56" x2="676.81" y2="638" stroke="#e6e8eb"/><text x="676.81" y="662" font-size="12" text-anchor="middle">18</text><line x1="816.63" y1="56" x2="816.63" y2="638" stroke="#e6e8eb"/><text x="816.63" y="662" font-size="12" text-anchor="middle">19</text><line x1="956.44" y1="56" x2="956.44" y2="638" stroke="#e6e8eb"/><text x="956.44" y="662" font-size="12" text-anchor="middle">20</text><line x1="84" y1="618.35" x2="990" y2="618.35" stroke="#d9dde2"/><text x="76" y="622.35" font-size="12" text-anchor="end">1e-3</text><line x1="84" y1="406.91" x2="990" y2="406.91" stroke="#d9dde2"/><text x="76" y="410.91" font-size="12" text-anchor="end">1e-2</text><line x1="84" y1="195.48" x2="990" y2="195.48" stroke="#d9dde2"/><text x="76" y="199.48" font-size="12" text-anchor="end">1e-1</text><line x1="84" y1="554.70" x2="990" y2="554.70" stroke="#eef0f2"/><line x1="84" y1="470.56" x2="990" y2="470.56" stroke="#eef0f2"/><line x1="84" y1="343.27" x2="990" y2="343.27" stroke="#eef0f2"/><line x1="84" y1="259.13" x2="990" y2="259.13" stroke="#eef0f2"/><line x1="84" y1="131.83" x2="990" y2="131.83" stroke="#eef0f2"/>
<line x1="84" y1="195.48" x2="990" y2="195.48" stroke="#111" stroke-width="1" stroke-dasharray="5 4"/><text x="998" y="199.48" font-size="11" fill="#111">0.1</text><line x1="84" y1="406.91" x2="990" y2="406.91" stroke="#111" stroke-width="1" stroke-dasharray="5 4"/><text x="998" y="410.91" font-size="11" fill="#111">0.01</text><g><title>C4 CDD step=5</title><polygon points="113.26,125.96 121.86,125.96 117.56,134.16" stroke="#E69F00" stroke-width="1.6" fill="white"/></g><g><title>C4 CDD step=5</title><polygon points="392.89,238.78 401.49,238.78 397.19,246.98" stroke="#E69F00" stroke-width="1.6" fill="white"/></g><g><title>C4 CDD step=5</title><polygon points="672.51,466.96 681.11,466.96 676.81,475.16" stroke="#E69F00" stroke-width="1.6" fill="white"/></g><g><title>C4 CDD step=5</title><polygon points="812.33,530.61 820.93,530.61 816.63,538.81" stroke="#E69F00" stroke-width="1.6" fill="white"/></g><g><title>C4 CDD step=5</title><polygon points="952.14,530.61 960.74,530.61 956.44,538.81" stroke="#E69F00" stroke-width="1.6" fill="white"/></g><polyline points="117.56,129.56 397.19,242.38 676.81,470.56 816.63,534.21 956.44,534.21" fill="none" stroke="#E69F00" stroke-width="2.1" stroke-dasharray="5 3"/><g><title>C5 CDD step=6</title><path d="M 113.56 137.75 H 121.56 M 117.56 133.75 V 141.75" stroke="#56B4E9" stroke-width="2" fill="none"/></g><g><title>C5 CDD step=6</title><path d="M 393.19 263.84 H 401.19 M 397.19 259.84 V 267.84" stroke="#56B4E9" stroke-width="2" fill="none"/></g><g><title>C5 CDD step=6</title><path d="M 672.81 534.21 H 680.81 M 676.81 530.21 V 538.21" stroke="#56B4E9" stroke-width="2" fill="none"/></g><g><title>C5 CDD step=6</title><path d="M 812.63 534.21 H 820.63 M 816.63 530.21 V 538.21" stroke="#56B4E9" stroke-width="2" fill="none"/></g><g><title>C5 CDD step=6</title><path d="M 952.44 597.86 H 960.44 M 956.44 593.86 V 601.86" stroke="#56B4E9" stroke-width="2" fill="none"/></g><polyline points="117.56,137.75 397.19,263.84 676.81,534.21 816.63,534.21 956.44,597.86" fill="none" stroke="#56B4E9" stroke-width="2.1" stroke-dasharray="5 3"/><g><title>C6 CDD step=7</title><path d="M 114.06 139.29 L 121.06 146.29 M 121.06 139.29 L 114.06 146.29" stroke="#6F4E7C" stroke-width="2" fill="none"/></g><g><title>C6 CDD step=7</title><path d="M 393.69 276.12 L 400.69 283.12 M 400.69 276.12 L 393.69 283.12" stroke="#6F4E7C" stroke-width="2" fill="none"/></g><g><title>C6 CDD step=7</title><path d="M 673.31 530.71 L 680.31 537.71 M 680.31 530.71 L 673.31 537.71" stroke="#6F4E7C" stroke-width="2" fill="none"/></g><g><title>C6 CDD step=7</title><path d="M 813.13 530.71 L 820.13 537.71 M 820.13 530.71 L 813.13 537.71" stroke="#6F4E7C" stroke-width="2" fill="none"/></g><g><title>C6 CDD step=7</title><path d="M 952.94 594.36 L 959.94 601.36 M 959.94 594.36 L 952.94 601.36" stroke="#6F4E7C" stroke-width="2" fill="none"/></g><polyline points="117.56,142.79 397.19,279.62 676.81,534.21 816.63,534.21 956.44,597.86" fill="none" stroke="#6F4E7C" stroke-width="2.1" stroke-dasharray="5 3"/><g><title>C7 CDD step=64</title><polygon points="113.36,114.13 115.46,110.43 119.66,110.43 121.76,114.13 119.66,117.83 115.46,117.83" stroke="#222222" stroke-width="1.6" fill="white"/></g><g><title>C7 CDD step=64</title><polygon points="392.99,242.38 395.09,238.68 399.29,238.68 401.39,242.38 399.29,246.08 395.09,246.08" stroke="#222222" stroke-width="1.6" fill="white"/></g><g><title>C7 CDD step=64</title><polygon points="672.61,406.91 674.71,403.21 678.91,403.21 681.01,406.91 678.91,410.61 674.71,410.61" stroke="#222222" stroke-width="1.6" fill="white"/></g><g><title>C7 CDD step=64</title><polygon points="812.43,534.21 814.53,530.51 818.73,530.51 820.83,534.21 818.73,537.91 814.53,537.91" stroke="#222222" stroke-width="1.6" fill="white"/></g><g><title>C7 CDD step=64</title><polygon points="952.24,534.21 954.34,530.51 958.54,530.51 960.64,534.21 958.54,537.91 954.34,537.91" stroke="#222222" stroke-width="1.6" fill="white"/></g><polyline points="117.56,114.13 397.19,242.38 676.81,406.91 816.63,534.21 956.44,534.21" fill="none" stroke="#222222" stroke-width="2.1" stroke-dasharray="5 3"/><g><title>N3 NS-A0503-M1_2_3_64-LR00-S537649365</title><circle cx="117.56" cy="96.14" r="4" stroke="#A0006D" stroke-width="1.6" fill="#A0006D"/></g><g><title>N3 NS-A0503-M1_2_3_64-LR00-S537649365</title><circle cx="397.19" cy="180.67" r="4" stroke="#A0006D" stroke-width="1.6" fill="#A0006D"/></g><g><title>N3 NS-A0503-M1_2_3_64-LR00-S537649365</title><circle cx="676.81" cy="332.45" r="4" stroke="#A0006D" stroke-width="1.6" fill="#A0006D"/></g><g><title>N3 NS-A0503-M1_2_3_64-LR00-S537649365</title><circle cx="816.63" cy="406.91" r="4" stroke="#A0006D" stroke-width="1.6" fill="#A0006D"/></g><g><title>N3 NS-A0503-M1_2_3_64-LR00-S537649365</title><circle cx="956.44" cy="534.21" r="4" stroke="#A0006D" stroke-width="1.6" fill="#A0006D"/></g><polyline points="117.56,96.14 397.19,180.67 676.81,332.45 816.63,406.91 956.44,534.21" fill="none" stroke="#A0006D" stroke-width="2.1"/><g><title>N6 NS-A0501-M1_3_4_64-LR00-S537649103</title><rect x="113.76" y="92.34" width="7.6" height="7.6" stroke="#7A3E00" stroke-width="1.6" fill="#7A3E00"/></g><g><title>N6 NS-A0501-M1_3_4_64-LR00-S537649103</title><rect x="393.39" y="176.87" width="7.6" height="7.6" stroke="#7A3E00" stroke-width="1.6" fill="#7A3E00"/></g><g><title>N6 NS-A0501-M1_3_4_64-LR00-S537649103</title><rect x="673.01" y="339.47" width="7.6" height="7.6" stroke="#7A3E00" stroke-width="1.6" fill="#7A3E00"/></g><g><title>N6 NS-A0501-M1_3_4_64-LR00-S537649103</title><rect x="812.83" y="403.11" width="7.6" height="7.6" stroke="#7A3E00" stroke-width="1.6" fill="#7A3E00"/></g><g><title>N6 NS-A0501-M1_3_4_64-LR00-S537649103</title><rect x="952.64" y="530.41" width="7.6" height="7.6" stroke="#7A3E00" stroke-width="1.6" fill="#7A3E00"/></g><polyline points="117.56,96.14 397.19,180.67 676.81,343.27 816.63,406.91 956.44,534.21" fill="none" stroke="#7A3E00" stroke-width="2.1"/><g><title>N8 NS-A0494-M3_4_6_64-LR00-S535555854</title><polygon points="117.56,95.51 113.26,103.71 121.86,103.71" stroke="#117733" stroke-width="1.6" fill="#117733"/></g><g><title>N8 NS-A0494-M3_4_6_64-LR00-S535555854</title><polygon points="397.19,161.63 392.89,169.83 401.49,169.83" stroke="#117733" stroke-width="1.6" fill="#117733"/></g><g><title>N8 NS-A0494-M3_4_6_64-LR00-S535555854</title><polygon points="676.81,338.67 672.51,346.87 681.11,346.87" stroke="#117733" stroke-width="1.6" fill="#117733"/></g><g><title>N8 NS-A0494-M3_4_6_64-LR00-S535555854</title><polygon points="816.63,428.73 812.33,436.93 820.93,436.93" stroke="#117733" stroke-width="1.6" fill="#117733"/></g><g><title>N8 NS-A0494-M3_4_6_64-LR00-S535555854</title><polygon points="956.44,593.26 952.14,601.46 960.74,601.46" stroke="#117733" stroke-width="1.6" fill="#117733"/></g><polyline points="117.56,100.11 397.19,166.23 676.81,343.27 816.63,433.33 956.44,597.86" fill="none" stroke="#117733" stroke-width="2.1"/><g><title>N23 NS-A0330-M1_4_6_48-LC</title><polygon points="117.56,96.43 113.06,100.93 117.56,105.43 122.06,100.93" stroke="#332288" stroke-width="1.6" fill="#332288"/></g><g><title>N23 NS-A0330-M1_4_6_48-LC</title><polygon points="397.19,220.51 392.69,225.01 397.19,229.51 401.69,225.01" stroke="#332288" stroke-width="1.6" fill="#332288"/></g><g><title>N23 NS-A0330-M1_4_6_48-LC</title><polygon points="676.81,529.71 672.31,534.21 676.81,538.71 681.31,534.21" stroke="#332288" stroke-width="1.6" fill="#332288"/></g><g><title>N23 NS-A0330-M1_4_6_48-LC</title><polygon points="816.63,529.71 812.13,534.21 816.63,538.71 821.13,534.21" stroke="#332288" stroke-width="1.6" fill="#332288"/></g><g><title>N23 NS-A0330-M1_4_6_48-LC</title><polygon points="956.44,593.36 951.94,597.86 956.44,602.36 960.94,597.86" stroke="#332288" stroke-width="1.6" fill="#332288"/></g><polyline points="117.56,100.93 397.19,225.01 676.81,534.21 816.63,534.21 956.44,597.86" fill="none" stroke="#332288" stroke-width="2.1"/><line x1="397.19" y1="225.01" x2="443.20" y2="222.35" stroke="#332288" stroke-width="1.2"/><polygon points="449.19,222.01 443.37,225.35 443.02,219.36" fill="#332288"/><text x="455.19" y="225.01" font-size="11" fill="#332288" font-weight="700" paint-order="stroke" stroke="white" stroke-width="3">N23</text><line x1="397.19" y1="242.38" x2="443.20" y2="239.73" stroke="#E69F00" stroke-width="1.2"/><polygon points="449.19,239.38 443.37,242.72 443.02,236.73" fill="#E69F00"/><text x="455.19" y="242.38" font-size="11" fill="#E69F00" font-weight="700" paint-order="stroke" stroke="white" stroke-width="3">C4</text><line x1="397.19" y1="242.38" x2="443.34" y2="253.03" stroke="#222222" stroke-width="1.2"/><polygon points="449.19,254.38 442.66,255.96 444.01,250.11" fill="#222222"/><text x="455.19" y="257.38" font-size="11" fill="#222222" font-weight="700" paint-order="stroke" stroke="white" stroke-width="3">C7</text><line x1="397.19" y1="263.84" x2="443.22" y2="268.75" stroke="#56B4E9" stroke-width="1.2"/><polygon points="449.19,269.38 442.90,271.73 443.54,265.76" fill="#56B4E9"/><text x="455.19" y="272.38" font-size="11" fill="#56B4E9" font-weight="700" paint-order="stroke" stroke="white" stroke-width="3">C5</text><line x1="397.19" y1="279.62" x2="443.21" y2="283.84" stroke="#6F4E7C" stroke-width="1.2"/><polygon points="449.19,284.38 442.94,286.82 443.48,280.85" fill="#6F4E7C"/><text x="455.19" y="287.38" font-size="11" fill="#6F4E7C" font-weight="700" paint-order="stroke" stroke="white" stroke-width="3">C6</text><line x1="676.81" y1="332.45" x2="722.82" y2="329.80" stroke="#A0006D" stroke-width="1.2"/><polygon points="728.81,329.45 723.00,332.79 722.65,326.80" fill="#A0006D"/><text x="734.81" y="332.45" font-size="11" fill="#A0006D" font-weight="700" paint-order="stroke" stroke="white" stroke-width="3">N3</text><line x1="676.81" y1="343.27" x2="722.82" y2="344.31" stroke="#7A3E00" stroke-width="1.2"/><polygon points="728.81,344.45 722.75,347.31 722.88,341.31" fill="#7A3E00"/><text x="734.81" y="347.45" font-size="11" fill="#7A3E00" font-weight="700" paint-order="stroke" stroke="white" stroke-width="3">N6</text><line x1="676.81" y1="343.27" x2="723.09" y2="357.67" stroke="#117733" stroke-width="1.2"/><polygon points="728.81,359.45 722.19,360.53 723.98,354.80" fill="#117733"/><text x="734.81" y="362.45" font-size="11" fill="#117733" font-weight="700" paint-order="stroke" stroke="white" stroke-width="3">N8</text>
<line x1="1016" y1="74.00" x2="1034" y2="74.00" stroke="#E69F00" stroke-width="2" stroke-dasharray="5 3"/><g><title>C4</title><polygon points="1020.70,70.40 1029.30,70.40 1025.00,78.60" stroke="#E69F00" stroke-width="1.6" fill="white"/></g><text x="1040" y="78.00" font-size="11">C4</text><line x1="1016" y1="92.00" x2="1034" y2="92.00" stroke="#56B4E9" stroke-width="2" stroke-dasharray="5 3"/><g><title>C5</title><path d="M 1021.00 92.00 H 1029.00 M 1025.00 88.00 V 96.00" stroke="#56B4E9" stroke-width="2" fill="none"/></g><text x="1040" y="96.00" font-size="11">C5</text><line x1="1016" y1="110.00" x2="1034" y2="110.00" stroke="#6F4E7C" stroke-width="2" stroke-dasharray="5 3"/><g><title>C6</title><path d="M 1021.50 106.50 L 1028.50 113.50 M 1028.50 106.50 L 1021.50 113.50" stroke="#6F4E7C" stroke-width="2" fill="none"/></g><text x="1040" y="114.00" font-size="11">C6</text><line x1="1016" y1="128.00" x2="1034" y2="128.00" stroke="#222222" stroke-width="2" stroke-dasharray="5 3"/><g><title>C7</title><polygon points="1020.80,128.00 1022.90,124.30 1027.10,124.30 1029.20,128.00 1027.10,131.70 1022.90,131.70" stroke="#222222" stroke-width="1.6" fill="white"/></g><text x="1040" y="132.00" font-size="11">C7</text><line x1="1016" y1="146.00" x2="1034" y2="146.00" stroke="#A0006D" stroke-width="2"/><g><title>N3</title><circle cx="1025.00" cy="146.00" r="4" stroke="#A0006D" stroke-width="1.6" fill="#A0006D"/></g><text x="1040" y="150.00" font-size="11">N3</text><line x1="1016" y1="164.00" x2="1034" y2="164.00" stroke="#7A3E00" stroke-width="2"/><g><title>N6</title><rect x="1021.20" y="160.20" width="7.6" height="7.6" stroke="#7A3E00" stroke-width="1.6" fill="#7A3E00"/></g><text x="1040" y="168.00" font-size="11">N6</text><line x1="1016" y1="182.00" x2="1034" y2="182.00" stroke="#117733" stroke-width="2"/><g><title>N8</title><polygon points="1025.00,177.40 1020.70,185.60 1029.30,185.60" stroke="#117733" stroke-width="1.6" fill="#117733"/></g><text x="1040" y="186.00" font-size="11">N8</text><line x1="1016" y1="200.00" x2="1034" y2="200.00" stroke="#332288" stroke-width="2"/><g><title>N23</title><polygon points="1025.00,195.50 1020.50,200.00 1025.00,204.50 1029.50,200.00" stroke="#332288" stroke-width="1.6" fill="#332288"/></g><text x="1040" y="204.00" font-size="11">N23</text>
<text x="537.0" y="694" text-anchor="middle" font-size="14">SNR (dB)</text>
<text x="22" y="347.0" text-anchor="middle" font-size="14" transform="rotate(-90 22 347.0)">BLER</text>
<text x="1016" y="692" font-size="11" fill="#555">dashed: CDD, solid: piecewise</text>
</svg>
