<svg xmlns="http://www.w3.org/2000/svg" width="1060" height="660" viewBox="0 0 1060 660">
<rect width="100%" height="100%" fill="white"/>
<text x="530.0" y="28" text-anchor="middle" font-size="18" font-family="Arial, sans-serif">Piecewise-linear Pareto Alg1 NMSE</text>
<line x1="78" y1="582" x2="934" y2="582" stroke="#333" stroke-width="1.2"/>
<line x1="78" y1="54" x2="78" y2="582" stroke="#333" stroke-width="1.2"/>
<line x1="78.00" y1="54" x2="78.00" y2="582" stroke="#e6e8eb"/><text x="78.00" y="606" font-size="12" text-anchor="middle">9.76</text><line x1="249.20" y1="54" x2="249.20" y2="582" stroke="#e6e8eb"/><text x="249.20" y="606" font-size="12" text-anchor="middle">11.1</text><line x1="420.40" y1="54" x2="420.40" y2="582" stroke="#e6e8eb"/><text x="420.40" y="606" font-size="12" text-anchor="middle">12.4</text><line x1="591.60" y1="54" x2="591.60" y2="582" stroke="#e6e8eb"/><text x="591.60" y="606" font-size="12" text-anchor="middle">13.6</text><line x1="762.80" y1="54" x2="762.80" y2="582" stroke="#e6e8eb"/><text x="762.80" y="606" font-size="12" text-anchor="middle">14.9</text><line x1="934.00" y1="54" x2="934.00" y2="582" stroke="#e6e8eb"/><text x="934.00" y="606" font-size="12" text-anchor="middle">16.2</text><line x1="78" y1="582.00" x2="934" y2="582.00" stroke="#e6e8eb"/><text x="70" y="586.00" font-size="12" text-anchor="end">0.00556</text><line x1="78" y1="476.40" x2="934" y2="476.40" stroke="#e6e8eb"/><text x="70" y="480.40" font-size="12" text-anchor="end">0.00904</text><line x1="78" y1="370.80" x2="934" y2="370.80" stroke="#e6e8eb"/><text x="70" y="374.80" font-size="12" text-anchor="end">0.0147</text><line x1="78" y1="265.20" x2="934" y2="265.20" stroke="#e6e8eb"/><text x="70" y="269.20" font-size="12" text-anchor="end">0.0239</text><line x1="78" y1="159.60" x2="934" y2="159.60" stroke="#e6e8eb"/><text x="70" y="163.60" font-size="12" text-anchor="end">0.0389</text><line x1="78" y1="54.00" x2="934" y2="54.00" stroke="#e6e8eb"/><text x="70" y="58.00" font-size="12" text-anchor="end">0.0633</text>
<circle cx="109.70" cy="250.97" r="3.6" fill="#26547c"><title>P1 PW cont random slope=4 #938</title></circle><circle cx="373.90" cy="325.25" r="3.6" fill="#26547c"><title>P1 PW cont random slope=4 #938</title></circle><circle cx="638.10" cy="437.38" r="3.6" fill="#26547c"><title>P1 PW cont random slope=4 #938</title></circle><circle cx="770.20" cy="479.98" r="3.6" fill="#26547c"><title>P1 PW cont random slope=4 #938</title></circle><circle cx="902.30" cy="506.22" r="3.6" fill="#26547c"><title>P1 PW cont random slope=4 #938</title></circle><polyline points="109.70,250.97 373.90,325.25 638.10,437.38 770.20,479.98 902.30,506.22" fill="none" stroke="#26547c" stroke-width="1.7"/><text x="907.30" y="510.22" font-size="10" fill="#26547c" font-weight="700">P1</text><circle cx="109.70" cy="260.49" r="3.6" fill="#ef476f"><title>P2 PW cont random slope=4 #939</title></circle><circle cx="373.90" cy="356.18" r="3.6" fill="#ef476f"><title>P2 PW cont random slope=4 #939</title></circle><circle cx="638.10" cy="473.88" r="3.6" fill="#ef476f"><title>P2 PW cont random slope=4 #939</title></circle><circle cx="770.20" cy="507.10" r="3.6" fill="#ef476f"><title>P2 PW cont random slope=4 #939</title></circle><circle cx="902.30" cy="536.73" r="3.6" fill="#ef476f"><title>P2 PW cont random slope=4 #939</title></circle><polyline points="109.70,260.49 373.90,356.18 638.10,473.88 770.20,507.10 902.30,536.73" fill="none" stroke="#ef476f" stroke-width="1.7"/><text x="907.30" y="540.73" font-size="10" fill="#ef476f" font-weight="700">P2</text><circle cx="109.70" cy="275.65" r="3.6" fill="#06a77d"><title>P3 PW cont random slope=4 #940</title></circle><circle cx="373.90" cy="342.68" r="3.6" fill="#06a77d"><title>P3 PW cont random slope=4 #940</title></circle><circle cx="638.10" cy="453.64" r="3.6" fill="#06a77d"><title>P3 PW cont random slope=4 #940</title></circle><circle cx="770.20" cy="488.91" r="3.6" fill="#06a77d"><title>P3 PW cont random slope=4 #940</title></circle><circle cx="902.30" cy="531.09" r="3.6" fill="#06a77d"><title>P3 PW cont random slope=4 #940</title></circle><polyline points="109.70,275.65 373.90,342.68 638.10,453.64 770.20,488.91 902.30,531.09" fill="none" stroke="#06a77d" stroke-width="1.7"/><text x="907.30" y="535.09" font-size="10" fill="#06a77d" font-weight="700">P3</text><circle cx="109.70" cy="263.06" r="3.6" fill="#7b2cbf"><title>P4 PW cont cyclic slope=4</title></circle><circle cx="373.90" cy="359.70" r="3.6" fill="#7b2cbf"><title>P4 PW cont cyclic slope=4</title></circle><circle cx="638.10" cy="463.20" r="3.6" fill="#7b2cbf"><title>P4 PW cont cyclic slope=4</title></circle><circle cx="770.20" cy="512.25" r="3.6" fill="#7b2cbf"><title>P4 PW cont cyclic slope=4</title></circle><circle cx="902.30" cy="545.59" r="3.6" fill="#7b2cbf"><title>P4 PW cont cyclic slope=4</title></circle><polyline points="109.70,263.06 373.90,359.70 638.10,463.20 770.20,512.25 902.30,545.59" fill="none" stroke="#7b2cbf" stroke-width="1.7"/><text x="907.30" y="549.59" font-size="10" fill="#7b2cbf" font-weight="700">P4</text><circle cx="109.70" cy="236.03" r="3.6" fill="#f77f00"><title>P5 PW cont random slope=6 #201</title></circle><circle cx="373.90" cy="338.17" r="3.6" fill="#f77f00"><title>P5 PW cont random slope=6 #201</title></circle><circle cx="638.10" cy="434.72" r="3.6" fill="#f77f00"><title>P5 PW cont random slope=6 #201</title></circle><circle cx="770.20" cy="471.29" r="3.6" fill="#f77f00"><title>P5 PW cont random slope=6 #201</title></circle><circle cx="902.30" cy="506.60" r="3.6" fill="#f77f00"><title>P5 PW cont random slope=6 #201</title></circle><polyline points="109.70,236.03 373.90,338.17 638.10,434.72 770.20,471.29 902.30,506.60" fill="none" stroke="#f77f00" stroke-width="1.7"/><text x="907.30" y="510.60" font-size="10" fill="#f77f00" font-weight="700">P5</text><circle cx="109.70" cy="267.12" r="3.6" fill="#118ab2"><title>P6 PW cont cyclic slope=6</title></circle><circle cx="373.90" cy="352.89" r="3.6" fill="#118ab2"><title>P6 PW cont cyclic slope=6</title></circle><circle cx="638.10" cy="453.46" r="3.6" fill="#118ab2"><title>P6 PW cont cyclic slope=6</title></circle><circle cx="770.20" cy="495.80" r="3.6" fill="#118ab2"><title>P6 PW cont cyclic slope=6</title></circle><circle cx="902.30" cy="522.19" r="3.6" fill="#118ab2"><title>P6 PW cont cyclic slope=6</title></circle><polyline points="109.70,267.12 373.90,352.89 638.10,453.46 770.20,495.80 902.30,522.19" fill="none" stroke="#118ab2" stroke-width="1.7"/><text x="907.30" y="526.19" font-size="10" fill="#118ab2" font-weight="700">P6</text><circle cx="109.70" cy="246.40" r="3.6" fill="#9d4edd"><title>P7 PW cont cyclic slope=8</title></circle><circle cx="373.90" cy="328.30" r="3.6" fill="#9d4edd"><title>P7 PW cont cyclic slope=8</title></circle><circle cx="638.10" cy="427.70" r="3.6" fill="#9d4edd"><title>P7 PW cont cyclic slope=8</title></circle><circle cx="770.20" cy="462.85" r="3.6" fill="#9d4edd"><title>P7 PW cont cyclic slope=8</title></circle><circle cx="902.30" cy="497.07" r="3.6" fill="#9d4edd"><title>P7 PW cont cyclic slope=8</title></circle><polyline points="109.70,246.40 373.90,328.30 638.10,427.70 770.20,462.85 902.30,497.07" fill="none" stroke="#9d4edd" stroke-width="1.7"/><text x="907.30" y="501.07" font-size="10" fill="#9d4edd" font-weight="700">P7</text><circle cx="109.70" cy="178.73" r="3.6" fill="#2a9d8f"><title>P8 PW cont cyclic slope=16</title></circle><circle cx="373.90" cy="263.06" r="3.6" fill="#2a9d8f"><title>P8 PW cont cyclic slope=16</title></circle><circle cx="638.10" cy="364.59" r="3.6" fill="#2a9d8f"><title>P8 PW cont cyclic slope=16</title></circle><circle cx="770.20" cy="400.28" r="3.6" fill="#2a9d8f"><title>P8 PW cont cyclic slope=16</title></circle><circle cx="902.30" cy="438.37" r="3.6" fill="#2a9d8f"><title>P8 PW cont cyclic slope=16</title></circle><polyline points="109.70,178.73 373.90,263.06 638.10,364.59 770.20,400.28 902.30,438.37" fill="none" stroke="#2a9d8f" stroke-width="1.7"/><text x="907.30" y="442.37" font-size="10" fill="#2a9d8f" font-weight="700">P8</text><circle cx="109.70" cy="143.48" r="3.6" fill="#d62828"><title>P9 PW cont cyclic slope=24</title></circle><circle cx="373.90" cy="220.69" r="3.6" fill="#d62828"><title>P9 PW cont cyclic slope=24</title></circle><circle cx="638.10" cy="317.58" r="3.6" fill="#d62828"><title>P9 PW cont cyclic slope=24</title></circle><circle cx="770.20" cy="351.34" r="3.6" fill="#d62828"><title>P9 PW cont cyclic slope=24</title></circle><circle cx="902.30" cy="382.94" r="3.6" fill="#d62828"><title>P9 PW cont cyclic slope=24</title></circle><polyline points="109.70,143.48 373.90,220.69 638.10,317.58 770.20,351.34 902.30,382.94" fill="none" stroke="#d62828" stroke-width="1.7"/><text x="907.30" y="386.94" font-size="10" fill="#d62828" font-weight="700">P9</text><circle cx="109.70" cy="90.41" r="3.6" fill="#6a994e"><title>P10 PW cont cyclic slope=32</title></circle><circle cx="373.90" cy="152.29" r="3.6" fill="#6a994e"><title>P10 PW cont cyclic slope=32</title></circle><circle cx="638.10" cy="233.80" r="3.6" fill="#6a994e"><title>P10 PW cont cyclic slope=32</title></circle><circle cx="770.20" cy="265.13" r="3.6" fill="#6a994e"><title>P10 PW cont cyclic slope=32</title></circle><circle cx="902.30" cy="291.07" r="3.6" fill="#6a994e"><title>P10 PW cont cyclic slope=32</title></circle><polyline points="109.70,90.41 373.90,152.29 638.10,233.80 770.20,265.13 902.30,291.07" fill="none" stroke="#6a994e" stroke-width="1.7"/><text x="907.30" y="295.07" font-size="10" fill="#6a994e" font-weight="700">P10</text><circle cx="109.70" cy="124.63" r="3.6" fill="#003049"><title>P11 PW cont cyclic slope=48</title></circle><circle cx="373.90" cy="202.73" r="3.6" fill="#003049"><title>P11 PW cont cyclic slope=48</title></circle><circle cx="638.10" cy="283.17" r="3.6" fill="#003049"><title>P11 PW cont cyclic slope=48</title></circle><circle cx="770.20" cy="321.51" r="3.6" fill="#003049"><title>P11 PW cont cyclic slope=48</title></circle><circle cx="902.30" cy="349.07" r="3.6" fill="#003049"><title>P11 PW cont cyclic slope=48</title></circle><polyline points="109.70,124.63 373.90,202.73 638.10,283.17 770.20,321.51 902.30,349.07" fill="none" stroke="#003049" stroke-width="1.7"/><text x="907.30" y="353.07" font-size="10" fill="#003049" font-weight="700">P11</text><circle cx="109.70" cy="149.13" r="3.6" fill="#bc6c25"><title>P12 PW cont cyclic slope=64</title></circle><circle cx="373.90" cy="223.52" r="3.6" fill="#bc6c25"><title>P12 PW cont cyclic slope=64</title></circle><circle cx="638.10" cy="311.40" r="3.6" fill="#bc6c25"><title>P12 PW cont cyclic slope=64</title></circle><circle cx="770.20" cy="345.76" r="3.6" fill="#bc6c25"><title>P12 PW cont cyclic slope=64</title></circle><circle cx="902.30" cy="383.85" r="3.6" fill="#bc6c25"><title>P12 PW cont cyclic slope=64</title></circle><polyline points="109.70,149.13 373.90,223.52 638.10,311.40 770.20,345.76 902.30,383.85" fill="none" stroke="#bc6c25" stroke-width="1.7"/><text x="907.30" y="387.85" font-size="10" fill="#bc6c25" font-weight="700">P12</text>
<line x1="952" y1="72.00" x2="968" y2="72.00" stroke="#26547c" stroke-width="2"/><text x="972" y="76.00" font-size="11">P1</text><line x1="952" y1="90.00" x2="968" y2="90.00" stroke="#ef476f" stroke-width="2"/><text x="972" y="94.00" font-size="11">P2</text><line x1="952" y1="108.00" x2="968" y2="108.00" stroke="#06a77d" stroke-width="2"/><text x="972" y="112.00" font-size="11">P3</text><line x1="952" y1="126.00" x2="968" y2="126.00" stroke="#7b2cbf" stroke-width="2"/><text x="972" y="130.00" font-size="11">P4</text><line x1="952" y1="144.00" x2="968" y2="144.00" stroke="#f77f00" stroke-width="2"/><text x="972" y="148.00" font-size="11">P5</text><line x1="952" y1="162.00" x2="968" y2="162.00" stroke="#118ab2" stroke-width="2"/><text x="972" y="166.00" font-size="11">P6</text><line x1="952" y1="180.00" x2="968" y2="180.00" stroke="#9d4edd" stroke-width="2"/><text x="972" y="184.00" font-size="11">P7</text><line x1="952" y1="198.00" x2="968" y2="198.00" stroke="#2a9d8f" stroke-width="2"/><text x="972" y="202.00" font-size="11">P8</text><line x1="952" y1="216.00" x2="968" y2="216.00" stroke="#d62828" stroke-width="2"/><text x="972" y="220.00" font-size="11">P9</text><line x1="952" y1="234.00" x2="968" y2="234.00" stroke="#6a994e" stroke-width="2"/><text x="972" y="238.00" font-size="11">P10</text><line x1="952" y1="252.00" x2="968" y2="252.00" stroke="#003049" stroke-width="2"/><text x="972" y="256.00" font-size="11">P11</text><line x1="952" y1="270.00" x2="968" y2="270.00" stroke="#bc6c25" stroke-width="2"/><text x="972" y="274.00" font-size="11">P12</text>
<text x="506.0" y="636" text-anchor="middle" font-size="14">SNR (dB)</text>
<text x="20" y="318.0" text-anchor="middle" font-size="14" transform="rotate(-90 20 318.0)">NMSE</text>
</svg>
