<svg xmlns="http://www.w3.org/2000/svg" width="1060" height="660" viewBox="0 0 1060 660">
<rect width="100%" height="100%" fill="white"/>
<text x="530.0" y="28" text-anchor="middle" font-size="18" font-family="Arial, sans-serif">Piecewise-linear Pareto BLER</text>
<line x1="78" y1="582" x2="934" y2="582" stroke="#333" stroke-width="1.2"/>
<line x1="78" y1="54" x2="78" y2="582" stroke="#333" stroke-width="1.2"/>
<line x1="78.00" y1="54" x2="78.00" y2="582" stroke="#e6e8eb"/><text x="78.00" y="606" font-size="12" text-anchor="middle">9.76</text><line x1="249.20" y1="54" x2="249.20" y2="582" stroke="#e6e8eb"/><text x="249.20" y="606" font-size="12" text-anchor="middle">11.1</text><line x1="420.40" y1="54" x2="420.40" y2="582" stroke="#e6e8eb"/><text x="420.40" y="606" font-size="12" text-anchor="middle">12.4</text><line x1="591.60" y1="54" x2="591.60" y2="582" stroke="#e6e8eb"/><text x="591.60" y="606" font-size="12" text-anchor="middle">13.6</text><line x1="762.80" y1="54" x2="762.80" y2="582" stroke="#e6e8eb"/><text x="762.80" y="606" font-size="12" text-anchor="middle">14.9</text><line x1="934.00" y1="54" x2="934.00" y2="582" stroke="#e6e8eb"/><text x="934.00" y="606" font-size="12" text-anchor="middle">16.2</text><line x1="78" y1="582.00" x2="934" y2="582.00" stroke="#e6e8eb"/><text x="70" y="586.00" font-size="12" text-anchor="end">0.00692</text><line x1="78" y1="476.40" x2="934" y2="476.40" stroke="#e6e8eb"/><text x="70" y="480.40" font-size="12" text-anchor="end">0.0201</text><line x1="78" y1="370.80" x2="934" y2="370.80" stroke="#e6e8eb"/><text x="70" y="374.80" font-size="12" text-anchor="end">0.0585</text><line x1="78" y1="265.20" x2="934" y2="265.20" stroke="#e6e8eb"/><text x="70" y="269.20" font-size="12" text-anchor="end">0.17</text><line x1="78" y1="159.60" x2="934" y2="159.60" stroke="#e6e8eb"/><text x="70" y="163.60" font-size="12" text-anchor="end">0.494</text><line x1="78" y1="54.00" x2="934" y2="54.00" stroke="#e6e8eb"/><text x="70" y="58.00" font-size="12" text-anchor="end">1.44</text>
<line x1="78" y1="317.67" x2="934" y2="317.67" stroke="#111" stroke-width="1" stroke-dasharray="5 4"/><text x="940" y="321.67" font-size="11" fill="#111">0.1</text><line x1="78" y1="545.59" x2="934" y2="545.59" stroke="#111" stroke-width="1" stroke-dasharray="5 4"/><text x="940" y="549.59" font-size="11" fill="#111">0.01</text><circle cx="109.70" cy="119.11" r="3.6" fill="#26547c"><title>P1 PW cont random slope=4 #938</title></circle><circle cx="373.90" cy="145.97" r="3.6" fill="#26547c"><title>P1 PW cont random slope=4 #938</title></circle><circle cx="638.10" cy="212.28" r="3.6" fill="#26547c"><title>P1 PW cont random slope=4 #938</title></circle><circle cx="770.20" cy="233.80" r="3.6" fill="#26547c"><title>P1 PW cont random slope=4 #938</title></circle><circle cx="902.30" cy="269.11" r="3.6" fill="#26547c"><title>P1 PW cont random slope=4 #938</title></circle><polyline points="109.70,119.11 373.90,145.97 638.10,212.28 770.20,233.80 902.30,269.11" fill="none" stroke="#26547c" stroke-width="1.7"/><text x="907.30" y="273.11" font-size="10" fill="#26547c" font-weight="700">P1</text><circle cx="109.70" cy="111.02" r="3.6" fill="#ef476f"><title>P2 PW cont random slope=4 #939</title></circle><circle cx="373.90" cy="145.97" r="3.6" fill="#ef476f"><title>P2 PW cont random slope=4 #939</title></circle><circle cx="638.10" cy="226.97" r="3.6" fill="#ef476f"><title>P2 PW cont random slope=4 #939</title></circle><circle cx="770.20" cy="267.11" r="3.6" fill="#ef476f"><title>P2 PW cont random slope=4 #939</title></circle><circle cx="902.30" cy="296.91" r="3.6" fill="#ef476f"><title>P2 PW cont random slope=4 #939</title></circle><polyline points="109.70,111.02 373.90,145.97 638.10,226.97 770.20,267.11 902.30,296.91" fill="none" stroke="#ef476f" stroke-width="1.7"/><text x="907.30" y="300.91" font-size="10" fill="#ef476f" font-weight="700">P2</text><circle cx="109.70" cy="111.43" r="3.6" fill="#06a77d"><title>P3 PW cont random slope=4 #940</title></circle><circle cx="373.90" cy="140.31" r="3.6" fill="#06a77d"><title>P3 PW cont random slope=4 #940</title></circle><circle cx="638.10" cy="210.03" r="3.6" fill="#06a77d"><title>P3 PW cont random slope=4 #940</title></circle><circle cx="770.20" cy="249.06" r="3.6" fill="#06a77d"><title>P3 PW cont random slope=4 #940</title></circle><circle cx="902.30" cy="284.36" r="3.6" fill="#06a77d"><title>P3 PW cont random slope=4 #940</title></circle><polyline points="109.70,111.43 373.90,140.31 638.10,210.03 770.20,249.06 902.30,284.36" fill="none" stroke="#06a77d" stroke-width="1.7"/><text x="907.30" y="288.36" font-size="10" fill="#06a77d" font-weight="700">P3</text><circle cx="109.70" cy="111.43" r="3.6" fill="#7b2cbf"><title>P4 PW cont cyclic slope=4</title></circle><circle cx="373.90" cy="145.97" r="3.6" fill="#7b2cbf"><title>P4 PW cont cyclic slope=4</title></circle><circle cx="638.10" cy="226.97" r="3.6" fill="#7b2cbf"><title>P4 PW cont cyclic slope=4</title></circle><circle cx="770.20" cy="271.15" r="3.6" fill="#7b2cbf"><title>P4 PW cont cyclic slope=4</title></circle><circle cx="902.30" cy="305.28" r="3.6" fill="#7b2cbf"><title>P4 PW cont cyclic slope=4</title></circle><polyline points="109.70,111.43 373.90,145.97 638.10,226.97 770.20,271.15 902.30,305.28" fill="none" stroke="#7b2cbf" stroke-width="1.7"/><text x="907.30" y="309.28" font-size="10" fill="#7b2cbf" font-weight="700">P4</text><circle cx="109.70" cy="103.16" r="3.6" fill="#f77f00"><title>P5 PW cont random slope=6 #201</title></circle><circle cx="373.90" cy="144.24" r="3.6" fill="#f77f00"><title>P5 PW cont random slope=6 #201</title></circle><circle cx="638.10" cy="241.14" r="3.6" fill="#f77f00"><title>P5 PW cont random slope=6 #201</title></circle><circle cx="770.20" cy="271.15" r="3.6" fill="#f77f00"><title>P5 PW cont random slope=6 #201</title></circle><circle cx="902.30" cy="339.76" r="3.6" fill="#f77f00"><title>P5 PW cont random slope=6 #201</title></circle><polyline points="109.70,103.16 373.90,144.24 638.10,241.14 770.20,271.15 902.30,339.76" fill="none" stroke="#f77f00" stroke-width="1.7"/><text x="907.30" y="343.76" font-size="10" fill="#f77f00" font-weight="700">P5</text><circle cx="109.70" cy="102.78" r="3.6" fill="#118ab2"><title>P6 PW cont cyclic slope=6</title></circle><circle cx="373.90" cy="142.54" r="3.6" fill="#118ab2"><title>P6 PW cont cyclic slope=6</title></circle><circle cx="638.10" cy="231.01" r="3.6" fill="#118ab2"><title>P6 PW cont cyclic slope=6</title></circle><circle cx="770.20" cy="321.02" r="3.6" fill="#118ab2"><title>P6 PW cont cyclic slope=6</title></circle><circle cx="902.30" cy="308.23" r="3.6" fill="#118ab2"><title>P6 PW cont cyclic slope=6</title></circle><polyline points="109.70,102.78 373.90,142.54 638.10,231.01 770.20,321.02 902.30,308.23" fill="none" stroke="#118ab2" stroke-width="1.7"/><text x="907.30" y="312.23" font-size="10" fill="#118ab2" font-weight="700">P6</text><circle cx="109.70" cy="99.81" r="3.6" fill="#9d4edd"><title>P7 PW cont cyclic slope=8</title></circle><circle cx="373.90" cy="136.54" r="3.6" fill="#9d4edd"><title>P7 PW cont cyclic slope=8</title></circle><circle cx="638.10" cy="244.23" r="3.6" fill="#9d4edd"><title>P7 PW cont cyclic slope=8</title></circle><circle cx="770.20" cy="299.62" r="3.6" fill="#9d4edd"><title>P7 PW cont cyclic slope=8</title></circle><circle cx="902.30" cy="335.72" r="3.6" fill="#9d4edd"><title>P7 PW cont cyclic slope=8</title></circle><polyline points="109.70,99.81 373.90,136.54 638.10,244.23 770.20,299.62 902.30,335.72" fill="none" stroke="#9d4edd" stroke-width="1.7"/><text x="907.30" y="339.72" font-size="10" fill="#9d4edd" font-weight="700">P7</text><circle cx="109.70" cy="94.48" r="3.6" fill="#2a9d8f"><title>P8 PW cont cyclic slope=16</title></circle><circle cx="373.90" cy="128.90" r="3.6" fill="#2a9d8f"><title>P8 PW cont cyclic slope=16</title></circle><circle cx="638.10" cy="232.40" r="3.6" fill="#2a9d8f"><title>P8 PW cont cyclic slope=16</title></circle><circle cx="770.20" cy="289.19" r="3.6" fill="#2a9d8f"><title>P8 PW cont cyclic slope=16</title></circle><circle cx="902.30" cy="416.98" r="3.6" fill="#2a9d8f"><title>P8 PW cont cyclic slope=16</title></circle><polyline points="109.70,94.48 373.90,128.90 638.10,232.40 770.20,289.19 902.30,416.98" fill="none" stroke="#2a9d8f" stroke-width="1.7"/><text x="907.30" y="420.98" font-size="10" fill="#2a9d8f" font-weight="700">P8</text><circle cx="109.70" cy="91.08" r="3.6" fill="#d62828"><title>P9 PW cont cyclic slope=24</title></circle><circle cx="373.90" cy="116.92" r="3.6" fill="#d62828"><title>P9 PW cont cyclic slope=24</title></circle><circle cx="638.10" cy="223.09" r="3.6" fill="#d62828"><title>P9 PW cont cyclic slope=24</title></circle><circle cx="770.20" cy="286.75" r="3.6" fill="#d62828"><title>P9 PW cont cyclic slope=24</title></circle><circle cx="902.30" cy="362.88" r="3.6" fill="#d62828"><title>P9 PW cont cyclic slope=24</title></circle><polyline points="109.70,91.08 373.90,116.92 638.10,223.09 770.20,286.75 902.30,362.88" fill="none" stroke="#d62828" stroke-width="1.7"/><text x="907.30" y="366.88" font-size="10" fill="#d62828" font-weight="700">P9</text><circle cx="109.70" cy="90.41" r="3.6" fill="#6a994e"><title>P10 PW cont cyclic slope=32</title></circle><circle cx="373.90" cy="107.40" r="3.6" fill="#6a994e"><title>P10 PW cont cyclic slope=32</title></circle><circle cx="638.10" cy="184.66" r="3.6" fill="#6a994e"><title>P10 PW cont cyclic slope=32</title></circle><circle cx="770.20" cy="226.97" r="3.6" fill="#6a994e"><title>P10 PW cont cyclic slope=32</title></circle><circle cx="902.30" cy="279.76" r="3.6" fill="#6a994e"><title>P10 PW cont cyclic slope=32</title></circle><polyline points="109.70,90.41 373.90,107.40 638.10,184.66 770.20,226.97 902.30,279.76" fill="none" stroke="#6a994e" stroke-width="1.7"/><text x="907.30" y="283.76" font-size="10" fill="#6a994e" font-weight="700">P10</text><circle cx="109.70" cy="93.11" r="3.6" fill="#003049"><title>P11 PW cont cyclic slope=48</title></circle><circle cx="373.90" cy="111.84" r="3.6" fill="#003049"><title>P11 PW cont cyclic slope=48</title></circle><circle cx="638.10" cy="200.50" r="3.6" fill="#003049"><title>P11 PW cont cyclic slope=48</title></circle><circle cx="770.20" cy="257.67" r="3.6" fill="#003049"><title>P11 PW cont cyclic slope=48</title></circle><circle cx="902.30" cy="324.50" r="3.6" fill="#003049"><title>P11 PW cont cyclic slope=48</title></circle><polyline points="109.70,93.11 373.90,111.84 638.10,200.50 770.20,257.67 902.30,324.50" fill="none" stroke="#003049" stroke-width="1.7"/><text x="907.30" y="328.50" font-size="10" fill="#003049" font-weight="700">P11</text><circle cx="109.70" cy="91.75" r="3.6" fill="#bc6c25"><title>P12 PW cont cyclic slope=64</title></circle><circle cx="373.90" cy="120.45" r="3.6" fill="#bc6c25"><title>P12 PW cont cyclic slope=64</title></circle><circle cx="638.10" cy="224.37" r="3.6" fill="#bc6c25"><title>P12 PW cont cyclic slope=64</title></circle><circle cx="770.20" cy="284.36" r="3.6" fill="#bc6c25"><title>P12 PW cont cyclic slope=64</title></circle><circle cx="902.30" cy="321.02" r="3.6" fill="#bc6c25"><title>P12 PW cont cyclic slope=64</title></circle><polyline points="109.70,91.75 373.90,120.45 638.10,224.37 770.20,284.36 902.30,321.02" fill="none" stroke="#bc6c25" stroke-width="1.7"/><text x="907.30" y="325.02" font-size="10" fill="#bc6c25" font-weight="700">P12</text>
<line x1="952" y1="72.00" x2="968" y2="72.00" stroke="#26547c" stroke-width="2"/><text x="972" y="76.00" font-size="11">P1</text><line x1="952" y1="90.00" x2="968" y2="90.00" stroke="#ef476f" stroke-width="2"/><text x="972" y="94.00" font-size="11">P2</text><line x1="952" y1="108.00" x2="968" y2="108.00" stroke="#06a77d" stroke-width="2"/><text x="972" y="112.00" font-size="11">P3</text><line x1="952" y1="126.00" x2="968" y2="126.00" stroke="#7b2cbf" stroke-width="2"/><text x="972" y="130.00" font-size="11">P4</text><line x1="952" y1="144.00" x2="968" y2="144.00" stroke="#f77f00" stroke-width="2"/><text x="972" y="148.00" font-size="11">P5</text><line x1="952" y1="162.00" x2="968" y2="162.00" stroke="#118ab2" stroke-width="2"/><text x="972" y="166.00" font-size="11">P6</text><line x1="952" y1="180.00" x2="968" y2="180.00" stroke="#9d4edd" stroke-width="2"/><text x="972" y="184.00" font-size="11">P7</text><line x1="952" y1="198.00" x2="968" y2="198.00" stroke="#2a9d8f" stroke-width="2"/><text x="972" y="202.00" font-size="11">P8</text><line x1="952" y1="216.00" x2="968" y2="216.00" stroke="#d62828" stroke-width="2"/><text x="972" y="220.00" font-size="11">P9</text><line x1="952" y1="234.00" x2="968" y2="234.00" stroke="#6a994e" stroke-width="2"/><text x="972" y="238.00" font-size="11">P10</text><line x1="952" y1="252.00" x2="968" y2="252.00" stroke="#003049" stroke-width="2"/><text x="972" y="256.00" font-size="11">P11</text><line x1="952" y1="270.00" x2="968" y2="270.00" stroke="#bc6c25" stroke-width="2"/><text x="972" y="274.00" font-size="11">P12</text>
<text x="506.0" y="636" text-anchor="middle" font-size="14">SNR (dB)</text>
<text x="20" y="318.0" text-anchor="middle" font-size="14" transform="rotate(-90 20 318.0)">BLER</text>
</svg>
