<svg xmlns="http://www.w3.org/2000/svg" width="1060" height="660" viewBox="0 0 1060 660">
<rect width="100%" height="100%" fill="white"/>
<text x="530.0" y="28" text-anchor="middle" font-size="18" font-family="Arial, sans-serif">CDD Pareto BLER</text>
<line x1="78" y1="582" x2="934" y2="582" stroke="#333" stroke-width="1.2"/>
<line x1="78" y1="54" x2="78" y2="582" stroke="#333" stroke-width="1.2"/>
<line x1="78.00" y1="54" x2="78.00" y2="582" stroke="#e6e8eb"/><text x="78.00" y="606" font-size="12" text-anchor="middle">9.6</text><line x1="249.20" y1="54" x2="249.20" y2="582" stroke="#e6e8eb"/><text x="249.20" y="606" font-size="12" text-anchor="middle">11.8</text><line x1="420.40" y1="54" x2="420.40" y2="582" stroke="#e6e8eb"/><text x="420.40" y="606" font-size="12" text-anchor="middle">13.9</text><line x1="591.60" y1="54" x2="591.60" y2="582" stroke="#e6e8eb"/><text x="591.60" y="606" font-size="12" text-anchor="middle">16.1</text><line x1="762.80" y1="54" x2="762.80" y2="582" stroke="#e6e8eb"/><text x="762.80" y="606" font-size="12" text-anchor="middle">18.2</text><line x1="934.00" y1="54" x2="934.00" y2="582" stroke="#e6e8eb"/><text x="934.00" y="606" font-size="12" text-anchor="middle">20.4</text><line x1="78" y1="582.00" x2="934" y2="582.00" stroke="#e6e8eb"/><text x="70" y="586.00" font-size="12" text-anchor="end">0.00327</text><line x1="78" y1="476.40" x2="934" y2="476.40" stroke="#e6e8eb"/><text x="70" y="480.40" font-size="12" text-anchor="end">0.0112</text><line x1="78" y1="370.80" x2="934" y2="370.80" stroke="#e6e8eb"/><text x="70" y="374.80" font-size="12" text-anchor="end">0.0382</text><line x1="78" y1="265.20" x2="934" y2="265.20" stroke="#e6e8eb"/><text x="70" y="269.20" font-size="12" text-anchor="end">0.13</text><line x1="78" y1="159.60" x2="934" y2="159.60" stroke="#e6e8eb"/><text x="70" y="163.60" font-size="12" text-anchor="end">0.445</text><line x1="78" y1="54.00" x2="934" y2="54.00" stroke="#e6e8eb"/><text x="70" y="58.00" font-size="12" text-anchor="end">1.52</text>
<line x1="78" y1="287.98" x2="934" y2="287.98" stroke="#111" stroke-width="1" stroke-dasharray="5 4"/><text x="940" y="291.98" font-size="11" fill="#111">0.1</text><line x1="78" y1="485.98" x2="934" y2="485.98" stroke="#111" stroke-width="1" stroke-dasharray="5 4"/><text x="940" y="489.98" font-size="11" fill="#111">0.01</text><circle cx="109.70" cy="107.31" r="3.6" fill="#26547c"><title>C1 CDD step=2</title></circle><circle cx="268.22" cy="125.06" r="3.6" fill="#26547c"><title>C1 CDD step=2</title></circle><circle cx="426.74" cy="171.50" r="3.6" fill="#26547c"><title>C1 CDD step=2</title></circle><circle cx="506.00" cy="197.17" r="3.6" fill="#26547c"><title>C1 CDD step=2</title></circle><circle cx="585.26" cy="204.18" r="3.6" fill="#26547c"><title>C1 CDD step=2</title></circle><circle cx="664.52" cy="259.05" r="3.6" fill="#26547c"><title>C1 CDD step=2</title></circle><circle cx="743.78" cy="285.86" r="3.6" fill="#26547c"><title>C1 CDD step=2</title></circle><circle cx="902.30" cy="356.65" r="3.6" fill="#26547c"><title>C1 CDD step=2</title></circle><polyline points="109.70,107.31 268.22,125.06 426.74,171.50 506.00,197.17 585.26,204.18 664.52,259.05 743.78,285.86 902.30,356.65" fill="none" stroke="#26547c" stroke-width="1.7"/><text x="907.30" y="360.65" font-size="10" fill="#26547c" font-weight="700">C1</text><circle cx="109.70" cy="99.28" r="3.6" fill="#ef476f"><title>C2 CDD step=3</title></circle><circle cx="268.22" cy="120.96" r="3.6" fill="#ef476f"><title>C2 CDD step=3</title></circle><circle cx="426.74" cy="174.32" r="3.6" fill="#ef476f"><title>C2 CDD step=3</title></circle><circle cx="506.00" cy="200.99" r="3.6" fill="#ef476f"><title>C2 CDD step=3</title></circle><circle cx="585.26" cy="219.21" r="3.6" fill="#ef476f"><title>C2 CDD step=3</title></circle><circle cx="664.52" cy="267.09" r="3.6" fill="#ef476f"><title>C2 CDD step=3</title></circle><circle cx="743.78" cy="299.46" r="3.6" fill="#ef476f"><title>C2 CDD step=3</title></circle><circle cx="902.30" cy="366.77" r="3.6" fill="#ef476f"><title>C2 CDD step=3</title></circle><polyline points="109.70,99.28 268.22,120.96 426.74,174.32 506.00,200.99 585.26,219.21 664.52,267.09 743.78,299.46 902.30,366.77" fill="none" stroke="#ef476f" stroke-width="1.7"/><text x="907.30" y="370.77" font-size="10" fill="#ef476f" font-weight="700">C2</text><circle cx="109.70" cy="96.22" r="3.6" fill="#06a77d"><title>C3 CDD step=4</title></circle><circle cx="268.22" cy="113.58" r="3.6" fill="#06a77d"><title>C3 CDD step=4</title></circle><circle cx="426.74" cy="167.18" r="3.6" fill="#06a77d"><title>C3 CDD step=4</title></circle><circle cx="506.00" cy="209.19" r="3.6" fill="#06a77d"><title>C3 CDD step=4</title></circle><circle cx="585.26" cy="231.67" r="3.6" fill="#06a77d"><title>C3 CDD step=4</title></circle><circle cx="664.52" cy="292.39" r="3.6" fill="#06a77d"><title>C3 CDD step=4</title></circle><circle cx="743.78" cy="331.91" r="3.6" fill="#06a77d"><title>C3 CDD step=4</title></circle><circle cx="902.30" cy="416.25" r="3.6" fill="#06a77d"><title>C3 CDD step=4</title></circle><polyline points="109.70,96.22 268.22,113.58 426.74,167.18 506.00,209.19 585.26,231.67 664.52,292.39 743.78,331.91 902.30,416.25" fill="none" stroke="#06a77d" stroke-width="1.7"/><text x="907.30" y="420.25" font-size="10" fill="#06a77d" font-weight="700">C3</text><circle cx="109.70" cy="93.49" r="3.6" fill="#7b2cbf"><title>C4 CDD step=5</title></circle><circle cx="268.22" cy="109.98" r="3.6" fill="#7b2cbf"><title>C4 CDD step=5</title></circle><circle cx="426.74" cy="170.40" r="3.6" fill="#7b2cbf"><title>C4 CDD step=5</title></circle><circle cx="506.00" cy="215.43" r="3.6" fill="#7b2cbf"><title>C4 CDD step=5</title></circle><circle cx="585.26" cy="233.93" r="3.6" fill="#7b2cbf"><title>C4 CDD step=5</title></circle><circle cx="664.52" cy="285.86" r="3.6" fill="#7b2cbf"><title>C4 CDD step=5</title></circle><circle cx="743.78" cy="366.77" r="3.6" fill="#7b2cbf"><title>C4 CDD step=5</title></circle><circle cx="902.30" cy="416.25" r="3.6" fill="#7b2cbf"><title>C4 CDD step=5</title></circle><polyline points="109.70,93.49 268.22,109.98 426.74,170.40 506.00,215.43 585.26,233.93 664.52,285.86 743.78,366.77 902.30,416.25" fill="none" stroke="#7b2cbf" stroke-width="1.7"/><text x="907.30" y="420.25" font-size="10" fill="#7b2cbf" font-weight="700">C4</text><circle cx="109.70" cy="92.16" r="3.6" fill="#f77f00"><title>C5 CDD step=6</title></circle><circle cx="268.22" cy="110.80" r="3.6" fill="#f77f00"><title>C5 CDD step=6</title></circle><circle cx="426.74" cy="167.71" r="3.6" fill="#f77f00"><title>C5 CDD step=6</title></circle><circle cx="506.00" cy="215.43" r="3.6" fill="#f77f00"><title>C5 CDD step=6</title></circle><circle cx="585.26" cy="236.25" r="3.6" fill="#f77f00"><title>C5 CDD step=6</title></circle><circle cx="664.52" cy="304.52" r="3.6" fill="#f77f00"><title>C5 CDD step=6</title></circle><circle cx="743.78" cy="366.77" r="3.6" fill="#f77f00"><title>C5 CDD step=6</title></circle><circle cx="902.30" cy="451.12" r="3.6" fill="#f77f00"><title>C5 CDD step=6</title></circle><polyline points="109.70,92.16 268.22,110.80 426.74,167.71 506.00,215.43 585.26,236.25 664.52,304.52 743.78,366.77 902.30,451.12" fill="none" stroke="#f77f00" stroke-width="1.7"/><text x="907.30" y="455.12" font-size="10" fill="#f77f00" font-weight="700">C5</text><circle cx="109.70" cy="91.50" r="3.6" fill="#118ab2"><title>C6 CDD step=7</title></circle><circle cx="268.22" cy="105.23" r="3.6" fill="#118ab2"><title>C6 CDD step=7</title></circle><circle cx="426.74" cy="165.09" r="3.6" fill="#118ab2"><title>C6 CDD step=7</title></circle><circle cx="506.00" cy="201.78" r="3.6" fill="#118ab2"><title>C6 CDD step=7</title></circle><circle cx="585.26" cy="238.64" r="3.6" fill="#118ab2"><title>C6 CDD step=7</title></circle><circle cx="664.52" cy="309.90" r="3.6" fill="#118ab2"><title>C6 CDD step=7</title></circle><circle cx="743.78" cy="372.32" r="3.6" fill="#118ab2"><title>C6 CDD step=7</title></circle><circle cx="902.30" cy="545.59" r="3.6" fill="#118ab2"><title>C6 CDD step=7</title></circle><polyline points="109.70,91.50 268.22,105.23 426.74,165.09 506.00,201.78 585.26,238.64 664.52,309.90 743.78,372.32 902.30,545.59" fill="none" stroke="#118ab2" stroke-width="1.7"/><text x="907.30" y="549.59" font-size="10" fill="#118ab2" font-weight="700">C6</text><circle cx="109.70" cy="90.41" r="3.6" fill="#9d4edd"><title>C7 CDD step=64</title></circle><circle cx="268.22" cy="98.09" r="3.6" fill="#9d4edd"><title>C7 CDD step=64</title></circle><circle cx="426.74" cy="142.97" r="3.6" fill="#9d4edd"><title>C7 CDD step=64</title></circle><circle cx="506.00" cy="180.26" r="3.6" fill="#9d4edd"><title>C7 CDD step=64</title></circle><circle cx="585.26" cy="206.65" r="3.6" fill="#9d4edd"><title>C7 CDD step=64</title></circle><circle cx="664.52" cy="283.79" r="3.6" fill="#9d4edd"><title>C7 CDD step=64</title></circle><circle cx="743.78" cy="352.00" r="3.6" fill="#9d4edd"><title>C7 CDD step=64</title></circle><circle cx="902.30" cy="466.79" r="3.6" fill="#9d4edd"><title>C7 CDD step=64</title></circle><polyline points="109.70,90.41 268.22,98.09 426.74,142.97 506.00,180.26 585.26,206.65 664.52,283.79 743.78,352.00 902.30,466.79" fill="none" stroke="#9d4edd" stroke-width="1.7"/><text x="907.30" y="470.79" font-size="10" fill="#9d4edd" font-weight="700">C7</text>
<line x1="952" y1="72.00" x2="968" y2="72.00" stroke="#26547c" stroke-width="2"/><text x="972" y="76.00" font-size="11">C1</text><line x1="952" y1="90.00" x2="968" y2="90.00" stroke="#ef476f" stroke-width="2"/><text x="972" y="94.00" font-size="11">C2</text><line x1="952" y1="108.00" x2="968" y2="108.00" stroke="#06a77d" stroke-width="2"/><text x="972" y="112.00" font-size="11">C3</text><line x1="952" y1="126.00" x2="968" y2="126.00" stroke="#7b2cbf" stroke-width="2"/><text x="972" y="130.00" font-size="11">C4</text><line x1="952" y1="144.00" x2="968" y2="144.00" stroke="#f77f00" stroke-width="2"/><text x="972" y="148.00" font-size="11">C5</text><line x1="952" y1="162.00" x2="968" y2="162.00" stroke="#118ab2" stroke-width="2"/><text x="972" y="166.00" font-size="11">C6</text><line x1="952" y1="180.00" x2="968" y2="180.00" stroke="#9d4edd" stroke-width="2"/><text x="972" y="184.00" font-size="11">C7</text>
<text x="506.0" y="636" text-anchor="middle" font-size="14">SNR (dB)</text>
<text x="20" y="318.0" text-anchor="middle" font-size="14" transform="rotate(-90 20 318.0)">BLER</text>
</svg>
