<svg xmlns="http://www.w3.org/2000/svg" width="1060" height="660" viewBox="0 0 1060 660">
<rect width="100%" height="100%" fill="white"/>
<text x="530.0" y="28" text-anchor="middle" font-size="18" font-family="Arial, sans-serif">Piecewise-linear Pareto BLER</text>
<line x1="78" y1="582" x2="934" y2="582" stroke="#333" stroke-width="1.2"/>
<line x1="78" y1="54" x2="78" y2="582" stroke="#333" stroke-width="1.2"/>
<line x1="78.00" y1="54" x2="78.00" y2="582" stroke="#e6e8eb"/><text x="78.00" y="606" font-size="12" text-anchor="middle">9.6</text><line x1="249.20" y1="54" x2="249.20" y2="582" stroke="#e6e8eb"/><text x="249.20" y="606" font-size="12" text-anchor="middle">11.8</text><line x1="420.40" y1="54" x2="420.40" y2="582" stroke="#e6e8eb"/><text x="420.40" y="606" font-size="12" text-anchor="middle">13.9</text><line x1="591.60" y1="54" x2="591.60" y2="582" stroke="#e6e8eb"/><text x="591.60" y="606" font-size="12" text-anchor="middle">16.1</text><line x1="762.80" y1="54" x2="762.80" y2="582" stroke="#e6e8eb"/><text x="762.80" y="606" font-size="12" text-anchor="middle">18.2</text><line x1="934.00" y1="54" x2="934.00" y2="582" stroke="#e6e8eb"/><text x="934.00" y="606" font-size="12" text-anchor="middle">20.4</text><line x1="78" y1="582.00" x2="934" y2="582.00" stroke="#e6e8eb"/><text x="70" y="586.00" font-size="12" text-anchor="end">4.79e-05</text><line x1="78" y1="476.40" x2="934" y2="476.40" stroke="#e6e8eb"/><text x="70" y="480.40" font-size="12" text-anchor="end">0.000405</text><line x1="78" y1="370.80" x2="934" y2="370.80" stroke="#e6e8eb"/><text x="70" y="374.80" font-size="12" text-anchor="end">0.00343</text><line x1="78" y1="265.20" x2="934" y2="265.20" stroke="#e6e8eb"/><text x="70" y="269.20" font-size="12" text-anchor="end">0.029</text><line x1="78" y1="159.60" x2="934" y2="159.60" stroke="#e6e8eb"/><text x="70" y="163.60" font-size="12" text-anchor="end">0.245</text><line x1="78" y1="54.00" x2="934" y2="54.00" stroke="#e6e8eb"/><text x="70" y="58.00" font-size="12" text-anchor="end">2.07</text>
<line x1="78" y1="203.96" x2="934" y2="203.96" stroke="#111" stroke-width="1" stroke-dasharray="5 4"/><text x="940" y="207.96" font-size="11" fill="#111">0.1</text><line x1="78" y1="317.83" x2="934" y2="317.83" stroke="#111" stroke-width="1" stroke-dasharray="5 4"/><text x="940" y="321.83" font-size="11" fill="#111">0.01</text><circle cx="109.70" cy="104.75" r="3.6" fill="#26547c"><title>P1 PW cont random slope=4 #938</title></circle><circle cx="268.22" cy="118.17" r="3.6" fill="#26547c"><title>P1 PW cont random slope=4 #938</title></circle><circle cx="426.74" cy="151.30" r="3.6" fill="#26547c"><title>P1 PW cont random slope=4 #938</title></circle><circle cx="506.00" cy="162.06" r="3.6" fill="#26547c"><title>P1 PW cont random slope=4 #938</title></circle><circle cx="585.26" cy="179.69" r="3.6" fill="#26547c"><title>P1 PW cont random slope=4 #938</title></circle><circle cx="664.52" cy="219.30" r="3.6" fill="#26547c"><title>P1 PW cont random slope=4 #938</title></circle><circle cx="743.78" cy="226.55" r="3.6" fill="#26547c"><title>P1 PW cont random slope=4 #938</title></circle><circle cx="902.30" cy="317.83" r="3.6" fill="#26547c"><title>P1 PW cont random slope=4 #938</title></circle><polyline points="109.70,104.75 268.22,118.17 426.74,151.30 506.00,162.06 585.26,179.69 664.52,219.30 743.78,226.55 902.30,317.83" fill="none" stroke="#26547c" stroke-width="1.7"/><text x="907.30" y="321.83" font-size="10" fill="#26547c" font-weight="700">P1</text><circle cx="109.70" cy="100.71" r="3.6" fill="#ef476f"><title>P2 PW cont random slope=4 #939</title></circle><circle cx="268.22" cy="118.17" r="3.6" fill="#ef476f"><title>P2 PW cont random slope=4 #939</title></circle><circle cx="426.74" cy="158.64" r="3.6" fill="#ef476f"><title>P2 PW cont random slope=4 #939</title></circle><circle cx="506.00" cy="178.70" r="3.6" fill="#ef476f"><title>P2 PW cont random slope=4 #939</title></circle><circle cx="585.26" cy="193.59" r="3.6" fill="#ef476f"><title>P2 PW cont random slope=4 #939</title></circle><circle cx="664.52" cy="224.01" r="3.6" fill="#ef476f"><title>P2 PW cont random slope=4 #939</title></circle><circle cx="743.78" cy="249.27" r="3.6" fill="#ef476f"><title>P2 PW cont random slope=4 #939</title></circle><circle cx="902.30" cy="545.59" r="3.6" fill="#ef476f"><title>P2 PW cont random slope=4 #939</title></circle><polyline points="109.70,100.71 268.22,118.17 426.74,158.64 506.00,178.70 585.26,193.59 664.52,224.01 743.78,249.27 902.30,545.59" fill="none" stroke="#ef476f" stroke-width="1.7"/><text x="907.30" y="549.59" font-size="10" fill="#ef476f" font-weight="700">P2</text><circle cx="109.70" cy="100.91" r="3.6" fill="#06a77d"><title>P3 PW cont random slope=4 #940</title></circle><circle cx="268.22" cy="115.35" r="3.6" fill="#06a77d"><title>P3 PW cont random slope=4 #940</title></circle><circle cx="426.74" cy="150.18" r="3.6" fill="#06a77d"><title>P3 PW cont random slope=4 #940</title></circle><circle cx="506.00" cy="169.68" r="3.6" fill="#06a77d"><title>P3 PW cont random slope=4 #940</title></circle><circle cx="585.26" cy="187.32" r="3.6" fill="#06a77d"><title>P3 PW cont random slope=4 #940</title></circle><circle cx="664.52" cy="229.22" r="3.6" fill="#06a77d"><title>P3 PW cont random slope=4 #940</title></circle><circle cx="743.78" cy="238.24" r="3.6" fill="#06a77d"><title>P3 PW cont random slope=4 #940</title></circle><circle cx="902.30" cy="292.57" r="3.6" fill="#06a77d"><title>P3 PW cont random slope=4 #940</title></circle><polyline points="109.70,100.91 268.22,115.35 426.74,150.18 506.00,169.68 585.26,187.32 664.52,229.22 743.78,238.24 902.30,292.57" fill="none" stroke="#06a77d" stroke-width="1.7"/><text x="907.30" y="296.57" font-size="10" fill="#06a77d" font-weight="700">P3</text><circle cx="109.70" cy="100.91" r="3.6" fill="#7b2cbf"><title>P4 PW cont cyclic slope=4</title></circle><circle cx="268.22" cy="118.17" r="3.6" fill="#7b2cbf"><title>P4 PW cont cyclic slope=4</title></circle><circle cx="426.74" cy="158.64" r="3.6" fill="#7b2cbf"><title>P4 PW cont cyclic slope=4</title></circle><circle cx="506.00" cy="180.71" r="3.6" fill="#7b2cbf"><title>P4 PW cont cyclic slope=4</title></circle><circle cx="585.26" cy="197.77" r="3.6" fill="#7b2cbf"><title>P4 PW cont cyclic slope=4</title></circle><circle cx="664.52" cy="249.27" r="3.6" fill="#7b2cbf"><title>P4 PW cont cyclic slope=4</title></circle><circle cx="743.78" cy="241.65" r="3.6" fill="#7b2cbf"><title>P4 PW cont cyclic slope=4</title></circle><circle cx="902.30" cy="337.89" r="3.6" fill="#7b2cbf"><title>P4 PW cont cyclic slope=4</title></circle><polyline points="109.70,100.91 268.22,118.17 426.74,158.64 506.00,180.71 585.26,197.77 664.52,249.27 743.78,241.65 902.30,337.89" fill="none" stroke="#7b2cbf" stroke-width="1.7"/><text x="907.30" y="341.89" font-size="10" fill="#7b2cbf" font-weight="700">P4</text><circle cx="109.70" cy="96.78" r="3.6" fill="#f77f00"><title>P5 PW cont random slope=6 #201</title></circle><circle cx="268.22" cy="117.31" r="3.6" fill="#f77f00"><title>P5 PW cont random slope=6 #201</title></circle><circle cx="426.74" cy="165.72" r="3.6" fill="#f77f00"><title>P5 PW cont random slope=6 #201</title></circle><circle cx="506.00" cy="180.71" r="3.6" fill="#f77f00"><title>P5 PW cont random slope=6 #201</title></circle><circle cx="585.26" cy="214.99" r="3.6" fill="#f77f00"><title>P5 PW cont random slope=6 #201</title></circle><circle cx="664.52" cy="232.05" r="3.6" fill="#f77f00"><title>P5 PW cont random slope=6 #201</title></circle><circle cx="743.78" cy="249.27" r="3.6" fill="#f77f00"><title>P5 PW cont random slope=6 #201</title></circle><circle cx="902.30" cy="292.57" r="3.6" fill="#f77f00"><title>P5 PW cont random slope=6 #201</title></circle><polyline points="109.70,96.78 268.22,117.31 426.74,165.72 506.00,180.71 585.26,214.99 664.52,232.05 743.78,249.27 902.30,292.57" fill="none" stroke="#f77f00" stroke-width="1.7"/><text x="907.30" y="296.57" font-size="10" fill="#f77f00" font-weight="700">P5</text><circle cx="109.70" cy="96.59" r="3.6" fill="#118ab2"><title>P6 PW cont cyclic slope=6</title></circle><circle cx="268.22" cy="116.46" r="3.6" fill="#118ab2"><title>P6 PW cont cyclic slope=6</title></circle><circle cx="426.74" cy="160.66" r="3.6" fill="#118ab2"><title>P6 PW cont cyclic slope=6</title></circle><circle cx="506.00" cy="205.64" r="3.6" fill="#118ab2"><title>P6 PW cont cyclic slope=6</title></circle><circle cx="585.26" cy="199.25" r="3.6" fill="#118ab2"><title>P6 PW cont cyclic slope=6</title></circle><circle cx="664.52" cy="269.33" r="3.6" fill="#118ab2"><title>P6 PW cont cyclic slope=6</title></circle><circle cx="743.78" cy="317.83" r="3.6" fill="#118ab2"><title>P6 PW cont cyclic slope=6</title></circle><circle cx="902.30" cy="372.17" r="3.6" fill="#118ab2"><title>P6 PW cont cyclic slope=6</title></circle><polyline points="109.70,96.59 268.22,116.46 426.74,160.66 506.00,205.64 585.26,199.25 664.52,269.33 743.78,317.83 902.30,372.17" fill="none" stroke="#118ab2" stroke-width="1.7"/><text x="907.30" y="376.17" font-size="10" fill="#118ab2" font-weight="700">P6</text><circle cx="109.70" cy="95.11" r="3.6" fill="#9d4edd"><title>P7 PW cont cyclic slope=8</title></circle><circle cx="268.22" cy="113.46" r="3.6" fill="#9d4edd"><title>P7 PW cont cyclic slope=8</title></circle><circle cx="426.74" cy="167.27" r="3.6" fill="#9d4edd"><title>P7 PW cont cyclic slope=8</title></circle><circle cx="506.00" cy="194.94" r="3.6" fill="#9d4edd"><title>P7 PW cont cyclic slope=8</title></circle><circle cx="585.26" cy="212.98" r="3.6" fill="#9d4edd"><title>P7 PW cont cyclic slope=8</title></circle><circle cx="664.52" cy="275.93" r="3.6" fill="#9d4edd"><title>P7 PW cont cyclic slope=8</title></circle><circle cx="743.78" cy="292.57" r="3.6" fill="#9d4edd"><title>P7 PW cont cyclic slope=8</title></circle><circle cx="902.30" cy="545.59" r="3.6" fill="#9d4edd"><title>P7 PW cont cyclic slope=8</title></circle><polyline points="109.70,95.11 268.22,113.46 426.74,167.27 506.00,194.94 585.26,212.98 664.52,275.93 743.78,292.57 902.30,545.59" fill="none" stroke="#9d4edd" stroke-width="1.7"/><text x="907.30" y="549.59" font-size="10" fill="#9d4edd" font-weight="700">P7</text><circle cx="109.70" cy="92.45" r="3.6" fill="#2a9d8f"><title>P8 PW cont cyclic slope=16</title></circle><circle cx="268.22" cy="109.64" r="3.6" fill="#2a9d8f"><title>P8 PW cont cyclic slope=16</title></circle><circle cx="426.74" cy="161.35" r="3.6" fill="#2a9d8f"><title>P8 PW cont cyclic slope=16</title></circle><circle cx="506.00" cy="189.73" r="3.6" fill="#2a9d8f"><title>P8 PW cont cyclic slope=16</title></circle><circle cx="585.26" cy="253.58" r="3.6" fill="#2a9d8f"><title>P8 PW cont cyclic slope=16</title></circle><circle cx="664.52" cy="303.61" r="3.6" fill="#2a9d8f"><title>P8 PW cont cyclic slope=16</title></circle><circle cx="743.78" cy="337.89" r="3.6" fill="#2a9d8f"><title>P8 PW cont cyclic slope=16</title></circle><circle cx="902.30" cy="337.89" r="3.6" fill="#2a9d8f"><title>P8 PW cont cyclic slope=16</title></circle><polyline points="109.70,92.45 268.22,109.64 426.74,161.35 506.00,189.73 585.26,253.58 664.52,303.61 743.78,337.89 902.30,337.89" fill="none" stroke="#2a9d8f" stroke-width="1.7"/><text x="907.30" y="341.89" font-size="10" fill="#2a9d8f" font-weight="700">P8</text><circle cx="109.70" cy="90.75" r="3.6" fill="#d62828"><title>P9 PW cont cyclic slope=24</title></circle><circle cx="268.22" cy="103.66" r="3.6" fill="#d62828"><title>P9 PW cont cyclic slope=24</title></circle><circle cx="426.74" cy="156.70" r="3.6" fill="#d62828"><title>P9 PW cont cyclic slope=24</title></circle><circle cx="506.00" cy="188.51" r="3.6" fill="#d62828"><title>P9 PW cont cyclic slope=24</title></circle><circle cx="585.26" cy="226.55" r="3.6" fill="#d62828"><title>P9 PW cont cyclic slope=24</title></circle><circle cx="664.52" cy="263.50" r="3.6" fill="#d62828"><title>P9 PW cont cyclic slope=24</title></circle><circle cx="743.78" cy="337.89" r="3.6" fill="#d62828"><title>P9 PW cont cyclic slope=24</title></circle><circle cx="902.30" cy="372.17" r="3.6" fill="#d62828"><title>P9 PW cont cyclic slope=24</title></circle><polyline points="109.70,90.75 268.22,103.66 426.74,156.70 506.00,188.51 585.26,226.55 664.52,263.50 743.78,337.89 902.30,372.17" fill="none" stroke="#d62828" stroke-width="1.7"/><text x="907.30" y="376.17" font-size="10" fill="#d62828" font-weight="700">P9</text><circle cx="109.70" cy="90.41" r="3.6" fill="#6a994e"><title>P10 PW cont cyclic slope=32</title></circle><circle cx="268.22" cy="98.90" r="3.6" fill="#6a994e"><title>P10 PW cont cyclic slope=32</title></circle><circle cx="426.74" cy="137.50" r="3.6" fill="#6a994e"><title>P10 PW cont cyclic slope=32</title></circle><circle cx="506.00" cy="158.64" r="3.6" fill="#6a994e"><title>P10 PW cont cyclic slope=32</title></circle><circle cx="585.26" cy="185.02" r="3.6" fill="#6a994e"><title>P10 PW cont cyclic slope=32</title></circle><circle cx="664.52" cy="245.32" r="3.6" fill="#6a994e"><title>P10 PW cont cyclic slope=32</title></circle><circle cx="743.78" cy="263.50" r="3.6" fill="#6a994e"><title>P10 PW cont cyclic slope=32</title></circle><circle cx="902.30" cy="372.17" r="3.6" fill="#6a994e"><title>P10 PW cont cyclic slope=32</title></circle><polyline points="109.70,90.41 268.22,98.90 426.74,137.50 506.00,158.64 585.26,185.02 664.52,245.32 743.78,263.50 902.30,372.17" fill="none" stroke="#6a994e" stroke-width="1.7"/><text x="907.30" y="376.17" font-size="10" fill="#6a994e" font-weight="700">P10</text><circle cx="109.70" cy="91.76" r="3.6" fill="#003049"><title>P11 PW cont cyclic slope=48</title></circle><circle cx="268.22" cy="101.12" r="3.6" fill="#003049"><title>P11 PW cont cyclic slope=48</title></circle><circle cx="426.74" cy="145.41" r="3.6" fill="#003049"><title>P11 PW cont cyclic slope=48</title></circle><circle cx="506.00" cy="173.98" r="3.6" fill="#003049"><title>P11 PW cont cyclic slope=48</title></circle><circle cx="585.26" cy="207.37" r="3.6" fill="#003049"><title>P11 PW cont cyclic slope=48</title></circle><circle cx="664.52" cy="253.58" r="3.6" fill="#003049"><title>P11 PW cont cyclic slope=48</title></circle><circle cx="743.78" cy="317.83" r="3.6" fill="#003049"><title>P11 PW cont cyclic slope=48</title></circle><circle cx="902.30" cy="372.17" r="3.6" fill="#003049"><title>P11 PW cont cyclic slope=48</title></circle><polyline points="109.70,91.76 268.22,101.12 426.74,145.41 506.00,173.98 585.26,207.37 664.52,253.58 743.78,317.83 902.30,372.17" fill="none" stroke="#003049" stroke-width="1.7"/><text x="907.30" y="376.17" font-size="10" fill="#003049" font-weight="700">P11</text><circle cx="109.70" cy="91.08" r="3.6" fill="#bc6c25"><title>P12 PW cont cyclic slope=64</title></circle><circle cx="268.22" cy="105.42" r="3.6" fill="#bc6c25"><title>P12 PW cont cyclic slope=64</title></circle><circle cx="426.74" cy="157.34" r="3.6" fill="#bc6c25"><title>P12 PW cont cyclic slope=64</title></circle><circle cx="506.00" cy="187.32" r="3.6" fill="#bc6c25"><title>P12 PW cont cyclic slope=64</title></circle><circle cx="585.26" cy="205.64" r="3.6" fill="#bc6c25"><title>P12 PW cont cyclic slope=64</title></circle><circle cx="664.52" cy="283.55" r="3.6" fill="#bc6c25"><title>P12 PW cont cyclic slope=64</title></circle><circle cx="743.78" cy="337.89" r="3.6" fill="#bc6c25"><title>P12 PW cont cyclic slope=64</title></circle><circle cx="902.30" cy="337.89" r="3.6" fill="#bc6c25"><title>P12 PW cont cyclic slope=64</title></circle><polyline points="109.70,91.08 268.22,105.42 426.74,157.34 506.00,187.32 585.26,205.64 664.52,283.55 743.78,337.89 902.30,337.89" fill="none" stroke="#bc6c25" stroke-width="1.7"/><text x="907.30" y="341.89" font-size="10" fill="#bc6c25" font-weight="700">P12</text>
<line x1="952" y1="72.00" x2="968" y2="72.00" stroke="#26547c" stroke-width="2"/><text x="972" y="76.00" font-size="11">P1</text><line x1="952" y1="90.00" x2="968" y2="90.00" stroke="#ef476f" stroke-width="2"/><text x="972" y="94.00" font-size="11">P2</text><line x1="952" y1="108.00" x2="968" y2="108.00" stroke="#06a77d" stroke-width="2"/><text x="972" y="112.00" font-size="11">P3</text><line x1="952" y1="126.00" x2="968" y2="126.00" stroke="#7b2cbf" stroke-width="2"/><text x="972" y="130.00" font-size="11">P4</text><line x1="952" y1="144.00" x2="968" y2="144.00" stroke="#f77f00" stroke-width="2"/><text x="972" y="148.00" font-size="11">P5</text><line x1="952" y1="162.00" x2="968" y2="162.00" stroke="#118ab2" stroke-width="2"/><text x="972" y="166.00" font-size="11">P6</text><line x1="952" y1="180.00" x2="968" y2="180.00" stroke="#9d4edd" stroke-width="2"/><text x="972" y="184.00" font-size="11">P7</text><line x1="952" y1="198.00" x2="968" y2="198.00" stroke="#2a9d8f" stroke-width="2"/><text x="972" y="202.00" font-size="11">P8</text><line x1="952" y1="216.00" x2="968" y2="216.00" stroke="#d62828" stroke-width="2"/><text x="972" y="220.00" font-size="11">P9</text><line x1="952" y1="234.00" x2="968" y2="234.00" stroke="#6a994e" stroke-width="2"/><text x="972" y="238.00" font-size="11">P10</text><line x1="952" y1="252.00" x2="968" y2="252.00" stroke="#003049" stroke-width="2"/><text x="972" y="256.00" font-size="11">P11</text><line x1="952" y1="270.00" x2="968" y2="270.00" stroke="#bc6c25" stroke-width="2"/><text x="972" y="274.00" font-size="11">P12</text>
<text x="506.0" y="636" text-anchor="middle" font-size="14">SNR (dB)</text>
<text x="20" y="318.0" text-anchor="middle" font-size="14" transform="rotate(-90 20 318.0)">BLER</text>
</svg>
