<svg xmlns="http://www.w3.org/2000/svg" width="1240" height="720" viewBox="0 0 1240 720">
<rect width="100%" height="100%" fill="white"/>
<text x="620.0" y="30" text-anchor="middle" font-size="18" font-family="Arial, sans-serif">All Pareto Alg1 NMSE</text>
<line x1="84" y1="638" x2="990" y2="638" stroke="#333" stroke-width="1.2"/>
<line x1="84" y1="56" x2="84" y2="638" stroke="#333" stroke-width="1.2"/>
<line x1="84.00" y1="56" x2="84.00" y2="638" stroke="#e6e8eb"/><text x="84.00" y="662" font-size="12" text-anchor="middle">9.6</text><line x1="265.20" y1="56" x2="265.20" y2="638" stroke="#e6e8eb"/><text x="265.20" y="662" font-size="12" text-anchor="middle">11.8</text><line x1="446.40" y1="56" x2="446.40" y2="638" stroke="#e6e8eb"/><text x="446.40" y="662" font-size="12" text-anchor="middle">13.9</text><line x1="627.60" y1="56" x2="627.60" y2="638" stroke="#e6e8eb"/><text x="627.60" y="662" font-size="12" text-anchor="middle">16.1</text><line x1="808.80" y1="56" x2="808.80" y2="638" stroke="#e6e8eb"/><text x="808.80" y="662" font-size="12" text-anchor="middle">18.2</text><line x1="990.00" y1="56" x2="990.00" y2="638" stroke="#e6e8eb"/><text x="990.00" y="662" font-size="12" text-anchor="middle">20.4</text><line x1="84" y1="638.00" x2="990" y2="638.00" stroke="#e6e8eb"/><text x="76" y="642.00" font-size="12" text-anchor="end">0.00126</text><line x1="84" y1="521.60" x2="990" y2="521.60" stroke="#e6e8eb"/><text x="76" y="525.60" font-size="12" text-anchor="end">0.0028</text><line x1="84" y1="405.20" x2="990" y2="405.20" stroke="#e6e8eb"/><text x="76" y="409.20" font-size="12" text-anchor="end">0.00627</text><line x1="84" y1="288.80" x2="990" y2="288.80" stroke="#e6e8eb"/><text x="76" y="292.80" font-size="12" text-anchor="end">0.014</text><line x1="84" y1="172.40" x2="990" y2="172.40" stroke="#e6e8eb"/><text x="76" y="176.40" font-size="12" text-anchor="end">0.0313</text><line x1="84" y1="56.00" x2="990" y2="56.00" stroke="#e6e8eb"/><text x="76" y="60.00" font-size="12" text-anchor="end">0.0698</text>
<circle cx="117.56" cy="277.60" r="3.2" fill="#0b3c5d"><title>C1 CDD step=2</title></circle><circle cx="285.33" cy="334.57" r="3.2" fill="#0b3c5d"><title>C1 CDD step=2</title></circle><circle cx="453.11" cy="402.25" r="3.2" fill="#0b3c5d"><title>C1 CDD step=2</title></circle><circle cx="537.00" cy="436.06" r="3.2" fill="#0b3c5d"><title>C1 CDD step=2</title></circle><circle cx="620.89" cy="455.43" r="3.2" fill="#0b3c5d"><title>C1 CDD step=2</title></circle><circle cx="704.78" cy="496.43" r="3.2" fill="#0b3c5d"><title>C1 CDD step=2</title></circle><circle cx="788.67" cy="513.10" r="3.2" fill="#0b3c5d"><title>C1 CDD step=2</title></circle><circle cx="956.44" cy="597.86" r="3.2" fill="#0b3c5d"><title>C1 CDD step=2</title></circle><polyline points="117.56,277.60 285.33,334.57 453.11,402.25 537.00,436.06 620.89,455.43 704.78,496.43 788.67,513.10 956.44,597.86" fill="none" stroke="#0b3c5d" stroke-width="1.7" stroke-dasharray="5 3"/><text x="961.44" y="601.86" font-size="10" fill="#0b3c5d" font-weight="700">C1</text><circle cx="117.56" cy="263.23" r="3.2" fill="#1d5f8a"><title>C2 CDD step=3</title></circle><circle cx="285.33" cy="322.11" r="3.2" fill="#1d5f8a"><title>C2 CDD step=3</title></circle><circle cx="453.11" cy="389.77" r="3.2" fill="#1d5f8a"><title>C2 CDD step=3</title></circle><circle cx="537.00" cy="428.00" r="3.2" fill="#1d5f8a"><title>C2 CDD step=3</title></circle><circle cx="620.89" cy="447.57" r="3.2" fill="#1d5f8a"><title>C2 CDD step=3</title></circle><circle cx="704.78" cy="481.04" r="3.2" fill="#1d5f8a"><title>C2 CDD step=3</title></circle><circle cx="788.67" cy="505.01" r="3.2" fill="#1d5f8a"><title>C2 CDD step=3</title></circle><circle cx="956.44" cy="582.77" r="3.2" fill="#1d5f8a"><title>C2 CDD step=3</title></circle><polyline points="117.56,263.23 285.33,322.11 453.11,389.77 537.00,428.00 620.89,447.57 704.78,481.04 788.67,505.01 956.44,582.77" fill="none" stroke="#1d5f8a" stroke-width="1.7" stroke-dasharray="5 3"/><text x="961.44" y="586.77" font-size="10" fill="#1d5f8a" font-weight="700">C2</text><circle cx="117.56" cy="252.00" r="3.2" fill="#2f7fb0"><title>C3 CDD step=4</title></circle><circle cx="285.33" cy="314.13" r="3.2" fill="#2f7fb0"><title>C3 CDD step=4</title></circle><circle cx="453.11" cy="377.55" r="3.2" fill="#2f7fb0"><title>C3 CDD step=4</title></circle><circle cx="537.00" cy="417.02" r="3.2" fill="#2f7fb0"><title>C3 CDD step=4</title></circle><circle cx="620.89" cy="433.83" r="3.2" fill="#2f7fb0"><title>C3 CDD step=4</title></circle><circle cx="704.78" cy="464.20" r="3.2" fill="#2f7fb0"><title>C3 CDD step=4</title></circle><circle cx="788.67" cy="496.09" r="3.2" fill="#2f7fb0"><title>C3 CDD step=4</title></circle><circle cx="956.44" cy="560.80" r="3.2" fill="#2f7fb0"><title>C3 CDD step=4</title></circle><polyline points="117.56,252.00 285.33,314.13 453.11,377.55 537.00,417.02 620.89,433.83 704.78,464.20 788.67,496.09 956.44,560.80" fill="none" stroke="#2f7fb0" stroke-width="1.7" stroke-dasharray="5 3"/><text x="961.44" y="564.80" font-size="10" fill="#2f7fb0" font-weight="700">C3</text><circle cx="117.56" cy="238.69" r="3.2" fill="#5398c6"><title>C4 CDD step=5</title></circle><circle cx="285.33" cy="297.64" r="3.2" fill="#5398c6"><title>C4 CDD step=5</title></circle><circle cx="453.11" cy="360.44" r="3.2" fill="#5398c6"><title>C4 CDD step=5</title></circle><circle cx="537.00" cy="401.86" r="3.2" fill="#5398c6"><title>C4 CDD step=5</title></circle><circle cx="620.89" cy="419.04" r="3.2" fill="#5398c6"><title>C4 CDD step=5</title></circle><circle cx="704.78" cy="452.05" r="3.2" fill="#5398c6"><title>C4 CDD step=5</title></circle><circle cx="788.67" cy="485.65" r="3.2" fill="#5398c6"><title>C4 CDD step=5</title></circle><circle cx="956.44" cy="545.47" r="3.2" fill="#5398c6"><title>C4 CDD step=5</title></circle><polyline points="117.56,238.69 285.33,297.64 453.11,360.44 537.00,401.86 620.89,419.04 704.78,452.05 788.67,485.65 956.44,545.47" fill="none" stroke="#5398c6" stroke-width="1.7" stroke-dasharray="5 3"/><text x="961.44" y="549.47" font-size="10" fill="#5398c6" font-weight="700">C4</text><circle cx="117.56" cy="225.06" r="3.2" fill="#83b7d8"><title>C5 CDD step=6</title></circle><circle cx="285.33" cy="286.63" r="3.2" fill="#83b7d8"><title>C5 CDD step=6</title></circle><circle cx="453.11" cy="349.03" r="3.2" fill="#83b7d8"><title>C5 CDD step=6</title></circle><circle cx="537.00" cy="387.31" r="3.2" fill="#83b7d8"><title>C5 CDD step=6</title></circle><circle cx="620.89" cy="407.57" r="3.2" fill="#83b7d8"><title>C5 CDD step=6</title></circle><circle cx="704.78" cy="441.33" r="3.2" fill="#83b7d8"><title>C5 CDD step=6</title></circle><circle cx="788.67" cy="470.46" r="3.2" fill="#83b7d8"><title>C5 CDD step=6</title></circle><circle cx="956.44" cy="535.05" r="3.2" fill="#83b7d8"><title>C5 CDD step=6</title></circle><polyline points="117.56,225.06 285.33,286.63 453.11,349.03 537.00,387.31 620.89,407.57 704.78,441.33 788.67,470.46 956.44,535.05" fill="none" stroke="#83b7d8" stroke-width="1.7" stroke-dasharray="5 3"/><text x="961.44" y="539.05" font-size="10" fill="#83b7d8" font-weight="700">C5</text><circle cx="117.56" cy="214.63" r="3.2" fill="#b6d3e8"><title>C6 CDD step=7</title></circle><circle cx="285.33" cy="272.79" r="3.2" fill="#b6d3e8"><title>C6 CDD step=7</title></circle><circle cx="453.11" cy="340.54" r="3.2" fill="#b6d3e8"><title>C6 CDD step=7</title></circle><circle cx="537.00" cy="372.99" r="3.2" fill="#b6d3e8"><title>C6 CDD step=7</title></circle><circle cx="620.89" cy="395.36" r="3.2" fill="#b6d3e8"><title>C6 CDD step=7</title></circle><circle cx="704.78" cy="429.90" r="3.2" fill="#b6d3e8"><title>C6 CDD step=7</title></circle><circle cx="788.67" cy="455.44" r="3.2" fill="#b6d3e8"><title>C6 CDD step=7</title></circle><circle cx="956.44" cy="520.83" r="3.2" fill="#b6d3e8"><title>C6 CDD step=7</title></circle><polyline points="117.56,214.63 285.33,272.79 453.11,340.54 537.00,372.99 620.89,395.36 704.78,429.90 788.67,455.44 956.44,520.83" fill="none" stroke="#b6d3e8" stroke-width="1.7" stroke-dasharray="5 3"/><text x="961.44" y="524.83" font-size="10" fill="#b6d3e8" font-weight="700">C6</text><circle cx="117.56" cy="132.20" r="3.2" fill="#5a6f82"><title>C7 CDD step=64</title></circle><circle cx="285.33" cy="185.34" r="3.2" fill="#5a6f82"><title>C7 CDD step=64</title></circle><circle cx="453.11" cy="242.30" r="3.2" fill="#5a6f82"><title>C7 CDD step=64</title></circle><circle cx="537.00" cy="270.70" r="3.2" fill="#5a6f82"><title>C7 CDD step=64</title></circle><circle cx="620.89" cy="287.01" r="3.2" fill="#5a6f82"><title>C7 CDD step=64</title></circle><circle cx="704.78" cy="316.64" r="3.2" fill="#5a6f82"><title>C7 CDD step=64</title></circle><circle cx="788.67" cy="338.04" r="3.2" fill="#5a6f82"><title>C7 CDD step=64</title></circle><circle cx="956.44" cy="388.63" r="3.2" fill="#5a6f82"><title>C7 CDD step=64</title></circle><polyline points="117.56,132.20 285.33,185.34 453.11,242.30 537.00,270.70 620.89,287.01 704.78,316.64 788.67,338.04 956.44,388.63" fill="none" stroke="#5a6f82" stroke-width="1.7" stroke-dasharray="5 3"/><text x="961.44" y="392.63" font-size="10" fill="#5a6f82" font-weight="700">C7</text><circle cx="117.56" cy="208.62" r="3.2" fill="#8a1c7c"><title>P1 PW cont random slope=4 #938</title></circle><circle cx="285.33" cy="260.30" r="3.2" fill="#8a1c7c"><title>P1 PW cont random slope=4 #938</title></circle><circle cx="453.11" cy="321.69" r="3.2" fill="#8a1c7c"><title>P1 PW cont random slope=4 #938</title></circle><circle cx="537.00" cy="359.10" r="3.2" fill="#8a1c7c"><title>P1 PW cont random slope=4 #938</title></circle><circle cx="620.89" cy="377.62" r="3.2" fill="#8a1c7c"><title>P1 PW cont random slope=4 #938</title></circle><circle cx="704.78" cy="414.99" r="3.2" fill="#8a1c7c"><title>P1 PW cont random slope=4 #938</title></circle><circle cx="788.67" cy="435.23" r="3.2" fill="#8a1c7c"><title>P1 PW cont random slope=4 #938</title></circle><circle cx="956.44" cy="506.63" r="3.2" fill="#8a1c7c"><title>P1 PW cont random slope=4 #938</title></circle><polyline points="117.56,208.62 285.33,260.30 453.11,321.69 537.00,359.10 620.89,377.62 704.78,414.99 788.67,435.23 956.44,506.63" fill="none" stroke="#8a1c7c" stroke-width="1.7"/><text x="961.44" y="510.63" font-size="10" fill="#8a1c7c" font-weight="700">P1</text><circle cx="117.56" cy="219.38" r="3.2" fill="#b12a90"><title>P2 PW cont random slope=4 #939</title></circle><circle cx="285.33" cy="280.07" r="3.2" fill="#b12a90"><title>P2 PW cont random slope=4 #939</title></circle><circle cx="453.11" cy="344.38" r="3.2" fill="#b12a90"><title>P2 PW cont random slope=4 #939</title></circle><circle cx="537.00" cy="376.37" r="3.2" fill="#b12a90"><title>P2 PW cont random slope=4 #939</title></circle><circle cx="620.89" cy="393.65" r="3.2" fill="#b12a90"><title>P2 PW cont random slope=4 #939</title></circle><circle cx="704.78" cy="426.68" r="3.2" fill="#b12a90"><title>P2 PW cont random slope=4 #939</title></circle><circle cx="788.67" cy="452.15" r="3.2" fill="#b12a90"><title>P2 PW cont random slope=4 #939</title></circle><circle cx="956.44" cy="515.50" r="3.2" fill="#b12a90"><title>P2 PW cont random slope=4 #939</title></circle><polyline points="117.56,219.38 285.33,280.07 453.11,344.38 537.00,376.37 620.89,393.65 704.78,426.68 788.67,452.15 956.44,515.50" fill="none" stroke="#b12a90" stroke-width="1.7"/><text x="961.44" y="519.50" font-size="10" fill="#b12a90" font-weight="700">P2</text><circle cx="117.56" cy="221.22" r="3.2" fill="#d34c8f"><title>P3 PW cont random slope=4 #940</title></circle><circle cx="285.33" cy="271.06" r="3.2" fill="#d34c8f"><title>P3 PW cont random slope=4 #940</title></circle><circle cx="453.11" cy="326.65" r="3.2" fill="#d34c8f"><title>P3 PW cont random slope=4 #940</title></circle><circle cx="537.00" cy="368.45" r="3.2" fill="#d34c8f"><title>P3 PW cont random slope=4 #940</title></circle><circle cx="620.89" cy="391.99" r="3.2" fill="#d34c8f"><title>P3 PW cont random slope=4 #940</title></circle><circle cx="704.78" cy="422.49" r="3.2" fill="#d34c8f"><title>P3 PW cont random slope=4 #940</title></circle><circle cx="788.67" cy="449.40" r="3.2" fill="#d34c8f"><title>P3 PW cont random slope=4 #940</title></circle><circle cx="956.44" cy="508.84" r="3.2" fill="#d34c8f"><title>P3 PW cont random slope=4 #940</title></circle><polyline points="117.56,221.22 285.33,271.06 453.11,326.65 537.00,368.45 620.89,391.99 704.78,422.49 788.67,449.40 956.44,508.84" fill="none" stroke="#d34c8f" stroke-width="1.7"/><text x="961.44" y="512.84" font-size="10" fill="#d34c8f" font-weight="700">P3</text><circle cx="117.56" cy="220.37" r="3.2" fill="#e76f51"><title>P4 PW cont cyclic slope=4</title></circle><circle cx="285.33" cy="278.97" r="3.2" fill="#e76f51"><title>P4 PW cont cyclic slope=4</title></circle><circle cx="453.11" cy="338.70" r="3.2" fill="#e76f51"><title>P4 PW cont cyclic slope=4</title></circle><circle cx="537.00" cy="380.75" r="3.2" fill="#e76f51"><title>P4 PW cont cyclic slope=4</title></circle><circle cx="620.89" cy="403.32" r="3.2" fill="#e76f51"><title>P4 PW cont cyclic slope=4</title></circle><circle cx="704.78" cy="435.29" r="3.2" fill="#e76f51"><title>P4 PW cont cyclic slope=4</title></circle><circle cx="788.67" cy="456.70" r="3.2" fill="#e76f51"><title>P4 PW cont cyclic slope=4</title></circle><circle cx="956.44" cy="520.08" r="3.2" fill="#e76f51"><title>P4 PW cont cyclic slope=4</title></circle><polyline points="117.56,220.37 285.33,278.97 453.11,338.70 537.00,380.75 620.89,403.32 704.78,435.29 788.67,456.70 956.44,520.08" fill="none" stroke="#e76f51" stroke-width="1.7"/><text x="961.44" y="524.08" font-size="10" fill="#e76f51" font-weight="700">P4</text><circle cx="117.56" cy="196.00" r="3.2" fill="#f4a261"><title>P5 PW cont random slope=6 #201</title></circle><circle cx="285.33" cy="259.45" r="3.2" fill="#f4a261"><title>P5 PW cont random slope=6 #201</title></circle><circle cx="453.11" cy="324.19" r="3.2" fill="#f4a261"><title>P5 PW cont random slope=6 #201</title></circle><circle cx="537.00" cy="356.42" r="3.2" fill="#f4a261"><title>P5 PW cont random slope=6 #201</title></circle><circle cx="620.89" cy="371.36" r="3.2" fill="#f4a261"><title>P5 PW cont random slope=6 #201</title></circle><circle cx="704.78" cy="402.19" r="3.2" fill="#f4a261"><title>P5 PW cont random slope=6 #201</title></circle><circle cx="788.67" cy="432.33" r="3.2" fill="#f4a261"><title>P5 PW cont random slope=6 #201</title></circle><circle cx="956.44" cy="484.79" r="3.2" fill="#f4a261"><title>P5 PW cont random slope=6 #201</title></circle><polyline points="117.56,196.00 285.33,259.45 453.11,324.19 537.00,356.42 620.89,371.36 704.78,402.19 788.67,432.33 956.44,484.79" fill="none" stroke="#f4a261" stroke-width="1.7"/><text x="961.44" y="488.79" font-size="10" fill="#f4a261" font-weight="700">P5</text><circle cx="117.56" cy="216.27" r="3.2" fill="#2a9d8f"><title>P6 PW cont cyclic slope=6</title></circle><circle cx="285.33" cy="271.59" r="3.2" fill="#2a9d8f"><title>P6 PW cont cyclic slope=6</title></circle><circle cx="453.11" cy="330.92" r="3.2" fill="#2a9d8f"><title>P6 PW cont cyclic slope=6</title></circle><circle cx="537.00" cy="365.62" r="3.2" fill="#2a9d8f"><title>P6 PW cont cyclic slope=6</title></circle><circle cx="620.89" cy="386.29" r="3.2" fill="#2a9d8f"><title>P6 PW cont cyclic slope=6</title></circle><circle cx="704.78" cy="415.53" r="3.2" fill="#2a9d8f"><title>P6 PW cont cyclic slope=6</title></circle><circle cx="788.67" cy="442.23" r="3.2" fill="#2a9d8f"><title>P6 PW cont cyclic slope=6</title></circle><circle cx="956.44" cy="497.68" r="3.2" fill="#2a9d8f"><title>P6 PW cont cyclic slope=6</title></circle><polyline points="117.56,216.27 285.33,271.59 453.11,330.92 537.00,365.62 620.89,386.29 704.78,415.53 788.67,442.23 956.44,497.68" fill="none" stroke="#2a9d8f" stroke-width="1.7"/><text x="961.44" y="501.68" font-size="10" fill="#2a9d8f" font-weight="700">P6</text><circle cx="117.56" cy="202.34" r="3.2" fill="#168aad"><title>P7 PW cont cyclic slope=8</title></circle><circle cx="285.33" cy="254.09" r="3.2" fill="#168aad"><title>P7 PW cont cyclic slope=8</title></circle><circle cx="453.11" cy="316.52" r="3.2" fill="#168aad"><title>P7 PW cont cyclic slope=8</title></circle><circle cx="537.00" cy="345.27" r="3.2" fill="#168aad"><title>P7 PW cont cyclic slope=8</title></circle><circle cx="620.89" cy="365.50" r="3.2" fill="#168aad"><title>P7 PW cont cyclic slope=8</title></circle><circle cx="704.78" cy="398.46" r="3.2" fill="#168aad"><title>P7 PW cont cyclic slope=8</title></circle><circle cx="788.67" cy="422.12" r="3.2" fill="#168aad"><title>P7 PW cont cyclic slope=8</title></circle><circle cx="956.44" cy="482.82" r="3.2" fill="#168aad"><title>P7 PW cont cyclic slope=8</title></circle><polyline points="117.56,202.34 285.33,254.09 453.11,316.52 537.00,345.27 620.89,365.50 704.78,398.46 788.67,422.12 956.44,482.82" fill="none" stroke="#168aad" stroke-width="1.7"/><text x="961.44" y="486.82" font-size="10" fill="#168aad" font-weight="700">P7</text><circle cx="117.56" cy="152.28" r="3.2" fill="#4361ee"><title>P8 PW cont cyclic slope=16</title></circle><circle cx="285.33" cy="210.85" r="3.2" fill="#4361ee"><title>P8 PW cont cyclic slope=16</title></circle><circle cx="453.11" cy="273.21" r="3.2" fill="#4361ee"><title>P8 PW cont cyclic slope=16</title></circle><circle cx="537.00" cy="304.82" r="3.2" fill="#4361ee"><title>P8 PW cont cyclic slope=16</title></circle><circle cx="620.89" cy="324.97" r="3.2" fill="#4361ee"><title>P8 PW cont cyclic slope=16</title></circle><circle cx="704.78" cy="356.32" r="3.2" fill="#4361ee"><title>P8 PW cont cyclic slope=16</title></circle><circle cx="788.67" cy="382.44" r="3.2" fill="#4361ee"><title>P8 PW cont cyclic slope=16</title></circle><circle cx="956.44" cy="442.79" r="3.2" fill="#4361ee"><title>P8 PW cont cyclic slope=16</title></circle><polyline points="117.56,152.28 285.33,210.85 453.11,273.21 537.00,304.82 620.89,324.97 704.78,356.32 788.67,382.44 956.44,442.79" fill="none" stroke="#4361ee" stroke-width="1.7"/><text x="961.44" y="446.79" font-size="10" fill="#4361ee" font-weight="700">P8</text><circle cx="117.56" cy="133.56" r="3.2" fill="#6a4c93"><title>P9 PW cont cyclic slope=24</title></circle><circle cx="285.33" cy="185.92" r="3.2" fill="#6a4c93"><title>P9 PW cont cyclic slope=24</title></circle><circle cx="453.11" cy="241.89" r="3.2" fill="#6a4c93"><title>P9 PW cont cyclic slope=24</title></circle><circle cx="537.00" cy="271.18" r="3.2" fill="#6a4c93"><title>P9 PW cont cyclic slope=24</title></circle><circle cx="620.89" cy="290.07" r="3.2" fill="#6a4c93"><title>P9 PW cont cyclic slope=24</title></circle><circle cx="704.78" cy="318.97" r="3.2" fill="#6a4c93"><title>P9 PW cont cyclic slope=24</title></circle><circle cx="788.67" cy="344.02" r="3.2" fill="#6a4c93"><title>P9 PW cont cyclic slope=24</title></circle><circle cx="956.44" cy="392.86" r="3.2" fill="#6a4c93"><title>P9 PW cont cyclic slope=24</title></circle><polyline points="117.56,133.56 285.33,185.92 453.11,241.89 537.00,271.18 620.89,290.07 704.78,318.97 788.67,344.02 956.44,392.86" fill="none" stroke="#6a4c93" stroke-width="1.7"/><text x="961.44" y="396.86" font-size="10" fill="#6a4c93" font-weight="700">P9</text><circle cx="117.56" cy="96.14" r="3.2" fill="#7cb342"><title>P10 PW cont cyclic slope=32</title></circle><circle cx="285.33" cy="137.25" r="3.2" fill="#7cb342"><title>P10 PW cont cyclic slope=32</title></circle><circle cx="453.11" cy="187.15" r="3.2" fill="#7cb342"><title>P10 PW cont cyclic slope=32</title></circle><circle cx="537.00" cy="212.66" r="3.2" fill="#7cb342"><title>P10 PW cont cyclic slope=32</title></circle><circle cx="620.89" cy="225.36" r="3.2" fill="#7cb342"><title>P10 PW cont cyclic slope=32</title></circle><circle cx="704.78" cy="249.26" r="3.2" fill="#7cb342"><title>P10 PW cont cyclic slope=32</title></circle><circle cx="788.67" cy="270.28" r="3.2" fill="#7cb342"><title>P10 PW cont cyclic slope=32</title></circle><circle cx="956.44" cy="311.09" r="3.2" fill="#7cb342"><title>P10 PW cont cyclic slope=32</title></circle><polyline points="117.56,96.14 285.33,137.25 453.11,187.15 537.00,212.66 620.89,225.36 704.78,249.26 788.67,270.28 956.44,311.09" fill="none" stroke="#7cb342" stroke-width="1.7"/><text x="961.44" y="315.09" font-size="10" fill="#7cb342" font-weight="700">P10</text><circle cx="117.56" cy="119.20" r="3.2" fill="#455a64"><title>P11 PW cont cyclic slope=48</title></circle><circle cx="285.33" cy="170.38" r="3.2" fill="#455a64"><title>P11 PW cont cyclic slope=48</title></circle><circle cx="453.11" cy="224.40" r="3.2" fill="#455a64"><title>P11 PW cont cyclic slope=48</title></circle><circle cx="537.00" cy="251.55" r="3.2" fill="#455a64"><title>P11 PW cont cyclic slope=48</title></circle><circle cx="620.89" cy="269.53" r="3.2" fill="#455a64"><title>P11 PW cont cyclic slope=48</title></circle><circle cx="704.78" cy="294.12" r="3.2" fill="#455a64"><title>P11 PW cont cyclic slope=48</title></circle><circle cx="788.67" cy="316.70" r="3.2" fill="#455a64"><title>P11 PW cont cyclic slope=48</title></circle><circle cx="956.44" cy="361.72" r="3.2" fill="#455a64"><title>P11 PW cont cyclic slope=48</title></circle><polyline points="117.56,119.20 285.33,170.38 453.11,224.40 537.00,251.55 620.89,269.53 704.78,294.12 788.67,316.70 956.44,361.72" fill="none" stroke="#455a64" stroke-width="1.7"/><text x="961.44" y="365.72" font-size="10" fill="#455a64" font-weight="700">P11</text><circle cx="117.56" cy="135.22" r="3.2" fill="#bf6f1d"><title>P12 PW cont cyclic slope=64</title></circle><circle cx="285.33" cy="184.62" r="3.2" fill="#bf6f1d"><title>P12 PW cont cyclic slope=64</title></circle><circle cx="453.11" cy="243.03" r="3.2" fill="#bf6f1d"><title>P12 PW cont cyclic slope=64</title></circle><circle cx="537.00" cy="268.52" r="3.2" fill="#bf6f1d"><title>P12 PW cont cyclic slope=64</title></circle><circle cx="620.89" cy="287.69" r="3.2" fill="#bf6f1d"><title>P12 PW cont cyclic slope=64</title></circle><circle cx="704.78" cy="313.37" r="3.2" fill="#bf6f1d"><title>P12 PW cont cyclic slope=64</title></circle><circle cx="788.67" cy="338.90" r="3.2" fill="#bf6f1d"><title>P12 PW cont cyclic slope=64</title></circle><circle cx="956.44" cy="388.80" r="3.2" fill="#bf6f1d"><title>P12 PW cont cyclic slope=64</title></circle><polyline points="117.56,135.22 285.33,184.62 453.11,243.03 537.00,268.52 620.89,287.69 704.78,313.37 788.67,338.90 956.44,388.80" fill="none" stroke="#bf6f1d" stroke-width="1.7"/><text x="961.44" y="392.80" font-size="10" fill="#bf6f1d" font-weight="700">P12</text>
<line x1="1016" y1="74.00" x2="1034" y2="74.00" stroke="#0b3c5d" stroke-width="2" stroke-dasharray="5 3"/><text x="1040" y="78.00" font-size="11">C1</text><line x1="1016" y1="92.00" x2="1034" y2="92.00" stroke="#1d5f8a" stroke-width="2" stroke-dasharray="5 3"/><text x="1040" y="96.00" font-size="11">C2</text><line x1="1016" y1="110.00" x2="1034" y2="110.00" stroke="#2f7fb0" stroke-width="2" stroke-dasharray="5 3"/><text x="1040" y="114.00" font-size="11">C3</text><line x1="1016" y1="128.00" x2="1034" y2="128.00" stroke="#5398c6" stroke-width="2" stroke-dasharray="5 3"/><text x="1040" y="132.00" font-size="11">C4</text><line x1="1016" y1="146.00" x2="1034" y2="146.00" stroke="#83b7d8" stroke-width="2" stroke-dasharray="5 3"/><text x="1040" y="150.00" font-size="11">C5</text><line x1="1016" y1="164.00" x2="1034" y2="164.00" stroke="#b6d3e8" stroke-width="2" stroke-dasharray="5 3"/><text x="1040" y="168.00" font-size="11">C6</text><line x1="1016" y1="182.00" x2="1034" y2="182.00" stroke="#5a6f82" stroke-width="2" stroke-dasharray="5 3"/><text x="1040" y="186.00" font-size="11">C7</text><line x1="1016" y1="200.00" x2="1034" y2="200.00" stroke="#8a1c7c" stroke-width="2"/><text x="1040" y="204.00" font-size="11">P1</text><line x1="1016" y1="218.00" x2="1034" y2="218.00" stroke="#b12a90" stroke-width="2"/><text x="1040" y="222.00" font-size="11">P2</text><line x1="1016" y1="236.00" x2="1034" y2="236.00" stroke="#d34c8f" stroke-width="2"/><text x="1040" y="240.00" font-size="11">P3</text><line x1="1016" y1="254.00" x2="1034" y2="254.00" stroke="#e76f51" stroke-width="2"/><text x="1040" y="258.00" font-size="11">P4</text><line x1="1016" y1="272.00" x2="1034" y2="272.00" stroke="#f4a261" stroke-width="2"/><text x="1040" y="276.00" font-size="11">P5</text><line x1="1016" y1="290.00" x2="1034" y2="290.00" stroke="#2a9d8f" stroke-width="2"/><text x="1040" y="294.00" font-size="11">P6</text><line x1="1016" y1="308.00" x2="1034" y2="308.00" stroke="#168aad" stroke-width="2"/><text x="1040" y="312.00" font-size="11">P7</text><line x1="1016" y1="326.00" x2="1034" y2="326.00" stroke="#4361ee" stroke-width="2"/><text x="1040" y="330.00" font-size="11">P8</text><line x1="1016" y1="344.00" x2="1034" y2="344.00" stroke="#6a4c93" stroke-width="2"/><text x="1040" y="348.00" font-size="11">P9</text><line x1="1016" y1="362.00" x2="1034" y2="362.00" stroke="#7cb342" stroke-width="2"/><text x="1040" y="366.00" font-size="11">P10</text><line x1="1016" y1="380.00" x2="1034" y2="380.00" stroke="#455a64" stroke-width="2"/><text x="1040" y="384.00" font-size="11">P11</text><line x1="1016" y1="398.00" x2="1034" y2="398.00" stroke="#bf6f1d" stroke-width="2"/><text x="1040" y="402.00" font-size="11">P12</text>
<text x="537.0" y="694" text-anchor="middle" font-size="14">SNR (dB)</text>
<text x="22" y="347.0" text-anchor="middle" font-size="14" transform="rotate(-90 22 347.0)">NMSE</text>
<text x="1016" y="692" font-size="11" fill="#555">dashed: CDD, solid: piecewise</text>
</svg>
