<svg xmlns="http://www.w3.org/2000/svg" width="1060" height="660" viewBox="0 0 1060 660">
<rect width="100%" height="100%" fill="white"/>
<text x="530.0" y="28" text-anchor="middle" font-size="18" font-family="Arial, sans-serif">CDD Pareto BLER</text>
<line x1="78" y1="582" x2="934" y2="582" stroke="#333" stroke-width="1.2"/>
<line x1="78" y1="54" x2="78" y2="582" stroke="#333" stroke-width="1.2"/>
<line x1="78.00" y1="54" x2="78.00" y2="582" stroke="#e6e8eb"/><text x="78.00" y="606" font-size="12" text-anchor="middle">9.6</text><line x1="249.20" y1="54" x2="249.20" y2="582" stroke="#e6e8eb"/><text x="249.20" y="606" font-size="12" text-anchor="middle">11.8</text><line x1="420.40" y1="54" x2="420.40" y2="582" stroke="#e6e8eb"/><text x="420.40" y="606" font-size="12" text-anchor="middle">13.9</text><line x1="591.60" y1="54" x2="591.60" y2="582" stroke="#e6e8eb"/><text x="591.60" y="606" font-size="12" text-anchor="middle">16.1</text><line x1="762.80" y1="54" x2="762.80" y2="582" stroke="#e6e8eb"/><text x="762.80" y="606" font-size="12" text-anchor="middle">18.2</text><line x1="934.00" y1="54" x2="934.00" y2="582" stroke="#e6e8eb"/><text x="934.00" y="606" font-size="12" text-anchor="middle">20.4</text><line x1="78" y1="582.00" x2="934" y2="582.00" stroke="#e6e8eb"/><text x="70" y="586.00" font-size="12" text-anchor="end">0.00212</text><line x1="78" y1="476.40" x2="934" y2="476.40" stroke="#e6e8eb"/><text x="70" y="480.40" font-size="12" text-anchor="end">0.0079</text><line x1="78" y1="370.80" x2="934" y2="370.80" stroke="#e6e8eb"/><text x="70" y="374.80" font-size="12" text-anchor="end">0.0294</text><line x1="78" y1="265.20" x2="934" y2="265.20" stroke="#e6e8eb"/><text x="70" y="269.20" font-size="12" text-anchor="end">0.11</text><line x1="78" y1="159.60" x2="934" y2="159.60" stroke="#e6e8eb"/><text x="70" y="163.60" font-size="12" text-anchor="end">0.41</text><line x1="78" y1="54.00" x2="934" y2="54.00" stroke="#e6e8eb"/><text x="70" y="58.00" font-size="12" text-anchor="end">1.53</text>
<line x1="78" y1="272.71" x2="934" y2="272.71" stroke="#111" stroke-width="1" stroke-dasharray="5 4"/><text x="940" y="276.71" font-size="11" fill="#111">0.1</text><line x1="78" y1="457.44" x2="934" y2="457.44" stroke="#111" stroke-width="1" stroke-dasharray="5 4"/><text x="940" y="461.44" font-size="11" fill="#111">0.01</text><circle cx="109.70" cy="111.41" r="3.6" fill="#26547c"><title>C1 CDD step=2</title></circle><circle cx="268.22" cy="137.41" r="3.6" fill="#26547c"><title>C1 CDD step=2</title></circle><circle cx="426.74" cy="198.13" r="3.6" fill="#26547c"><title>C1 CDD step=2</title></circle><circle cx="506.00" cy="213.18" r="3.6" fill="#26547c"><title>C1 CDD step=2</title></circle><circle cx="585.26" cy="225.55" r="3.6" fill="#26547c"><title>C1 CDD step=2</title></circle><circle cx="664.52" cy="281.16" r="3.6" fill="#26547c"><title>C1 CDD step=2</title></circle><circle cx="743.78" cy="301.32" r="3.6" fill="#26547c"><title>C1 CDD step=2</title></circle><circle cx="902.30" cy="378.75" r="3.6" fill="#26547c"><title>C1 CDD step=2</title></circle><polyline points="109.70,111.41 268.22,137.41 426.74,198.13 506.00,213.18 585.26,225.55 664.52,281.16 743.78,301.32 902.30,378.75" fill="none" stroke="#26547c" stroke-width="1.7"/><text x="907.30" y="382.75" font-size="10" fill="#26547c" font-weight="700">C1</text><circle cx="109.70" cy="104.22" r="3.6" fill="#ef476f"><title>C2 CDD step=3</title></circle><circle cx="268.22" cy="136.42" r="3.6" fill="#ef476f"><title>C2 CDD step=3</title></circle><circle cx="426.74" cy="196.05" r="3.6" fill="#ef476f"><title>C2 CDD step=3</title></circle><circle cx="506.00" cy="225.55" r="3.6" fill="#ef476f"><title>C2 CDD step=3</title></circle><circle cx="585.26" cy="251.66" r="3.6" fill="#ef476f"><title>C2 CDD step=3</title></circle><circle cx="664.52" cy="309.35" r="3.6" fill="#ef476f"><title>C2 CDD step=3</title></circle><circle cx="743.78" cy="328.32" r="3.6" fill="#ef476f"><title>C2 CDD step=3</title></circle><circle cx="902.30" cy="434.36" r="3.6" fill="#ef476f"><title>C2 CDD step=3</title></circle><polyline points="109.70,104.22 268.22,136.42 426.74,196.05 506.00,225.55 585.26,251.66 664.52,309.35 743.78,328.32 902.30,434.36" fill="none" stroke="#ef476f" stroke-width="1.7"/><text x="907.30" y="438.36" font-size="10" fill="#ef476f" font-weight="700">C2</text><circle cx="109.70" cy="101.01" r="3.6" fill="#06a77d"><title>C3 CDD step=4</title></circle><circle cx="268.22" cy="131.21" r="3.6" fill="#06a77d"><title>C3 CDD step=4</title></circle><circle cx="426.74" cy="203.59" r="3.6" fill="#06a77d"><title>C3 CDD step=4</title></circle><circle cx="506.00" cy="243.82" r="3.6" fill="#06a77d"><title>C3 CDD step=4</title></circle><circle cx="585.26" cy="267.53" r="3.6" fill="#06a77d"><title>C3 CDD step=4</title></circle><circle cx="664.52" cy="328.32" r="3.6" fill="#06a77d"><title>C3 CDD step=4</title></circle><circle cx="743.78" cy="369.30" r="3.6" fill="#06a77d"><title>C3 CDD step=4</title></circle><circle cx="902.30" cy="434.36" r="3.6" fill="#06a77d"><title>C3 CDD step=4</title></circle><polyline points="109.70,101.01 268.22,131.21 426.74,203.59 506.00,243.82 585.26,267.53 664.52,328.32 743.78,369.30 902.30,434.36" fill="none" stroke="#06a77d" stroke-width="1.7"/><text x="907.30" y="438.36" font-size="10" fill="#06a77d" font-weight="700">C3</text><circle cx="109.70" cy="99.76" r="3.6" fill="#7b2cbf"><title>C4 CDD step=5</title></circle><circle cx="268.22" cy="127.19" r="3.6" fill="#7b2cbf"><title>C4 CDD step=5</title></circle><circle cx="426.74" cy="203.59" r="3.6" fill="#7b2cbf"><title>C4 CDD step=5</title></circle><circle cx="506.00" cy="255.88" r="3.6" fill="#7b2cbf"><title>C4 CDD step=5</title></circle><circle cx="585.26" cy="284.19" r="3.6" fill="#7b2cbf"><title>C4 CDD step=5</title></circle><circle cx="664.52" cy="360.85" r="3.6" fill="#7b2cbf"><title>C4 CDD step=5</title></circle><circle cx="743.78" cy="401.83" r="3.6" fill="#7b2cbf"><title>C4 CDD step=5</title></circle><circle cx="902.30" cy="457.44" r="3.6" fill="#7b2cbf"><title>C4 CDD step=5</title></circle><polyline points="109.70,99.76 268.22,127.19 426.74,203.59 506.00,255.88 585.26,284.19 664.52,360.85 743.78,401.83 902.30,457.44" fill="none" stroke="#7b2cbf" stroke-width="1.7"/><text x="907.30" y="461.44" font-size="10" fill="#7b2cbf" font-weight="700">C4</text><circle cx="109.70" cy="95.24" r="3.6" fill="#f77f00"><title>C5 CDD step=6</title></circle><circle cx="268.22" cy="127.19" r="3.6" fill="#f77f00"><title>C5 CDD step=6</title></circle><circle cx="426.74" cy="218.44" r="3.6" fill="#f77f00"><title>C5 CDD step=6</title></circle><circle cx="506.00" cy="253.74" r="3.6" fill="#f77f00"><title>C5 CDD step=6</title></circle><circle cx="585.26" cy="301.32" r="3.6" fill="#f77f00"><title>C5 CDD step=6</title></circle><circle cx="664.52" cy="434.36" r="3.6" fill="#f77f00"><title>C5 CDD step=6</title></circle><circle cx="743.78" cy="416.46" r="3.6" fill="#f77f00"><title>C5 CDD step=6</title></circle><circle cx="902.30" cy="545.59" r="3.6" fill="#f77f00"><title>C5 CDD step=6</title></circle><polyline points="109.70,95.24 268.22,127.19 426.74,218.44 506.00,253.74 585.26,301.32 664.52,434.36 743.78,416.46 902.30,545.59" fill="none" stroke="#f77f00" stroke-width="1.7"/><text x="907.30" y="549.59" font-size="10" fill="#f77f00" font-weight="700">C5</text><circle cx="109.70" cy="94.66" r="3.6" fill="#118ab2"><title>C6 CDD step=7</title></circle><circle cx="268.22" cy="125.04" r="3.6" fill="#118ab2"><title>C6 CDD step=7</title></circle><circle cx="426.74" cy="210.67" r="3.6" fill="#118ab2"><title>C6 CDD step=7</title></circle><circle cx="506.00" cy="265.06" r="3.6" fill="#118ab2"><title>C6 CDD step=7</title></circle><circle cx="585.26" cy="294.02" r="3.6" fill="#118ab2"><title>C6 CDD step=7</title></circle><circle cx="664.52" cy="434.36" r="3.6" fill="#118ab2"><title>C6 CDD step=7</title></circle><circle cx="743.78" cy="434.36" r="3.6" fill="#118ab2"><title>C6 CDD step=7</title></circle><circle cx="902.30" cy="545.59" r="3.6" fill="#118ab2"><title>C6 CDD step=7</title></circle><polyline points="109.70,94.66 268.22,125.04 426.74,210.67 506.00,265.06 585.26,294.02 664.52,434.36 743.78,434.36 902.30,545.59" fill="none" stroke="#118ab2" stroke-width="1.7"/><text x="907.30" y="549.59" font-size="10" fill="#118ab2" font-weight="700">C6</text><circle cx="109.70" cy="90.41" r="3.6" fill="#9d4edd"><title>C7 CDD step=64</title></circle><circle cx="268.22" cy="110.34" r="3.6" fill="#9d4edd"><title>C7 CDD step=64</title></circle><circle cx="426.74" cy="183.68" r="3.6" fill="#9d4edd"><title>C7 CDD step=64</title></circle><circle cx="506.00" cy="230.13" r="3.6" fill="#9d4edd"><title>C7 CDD step=64</title></circle><circle cx="585.26" cy="278.24" r="3.6" fill="#9d4edd"><title>C7 CDD step=64</title></circle><circle cx="664.52" cy="389.47" r="3.6" fill="#9d4edd"><title>C7 CDD step=64</title></circle><circle cx="743.78" cy="434.36" r="3.6" fill="#9d4edd"><title>C7 CDD step=64</title></circle><circle cx="902.30" cy="545.59" r="3.6" fill="#9d4edd"><title>C7 CDD step=64</title></circle><polyline points="109.70,90.41 268.22,110.34 426.74,183.68 506.00,230.13 585.26,278.24 664.52,389.47 743.78,434.36 902.30,545.59" fill="none" stroke="#9d4edd" stroke-width="1.7"/><text x="907.30" y="549.59" font-size="10" fill="#9d4edd" font-weight="700">C7</text>
<line x1="952" y1="72.00" x2="968" y2="72.00" stroke="#26547c" stroke-width="2"/><text x="972" y="76.00" font-size="11">C1</text><line x1="952" y1="90.00" x2="968" y2="90.00" stroke="#ef476f" stroke-width="2"/><text x="972" y="94.00" font-size="11">C2</text><line x1="952" y1="108.00" x2="968" y2="108.00" stroke="#06a77d" stroke-width="2"/><text x="972" y="112.00" font-size="11">C3</text><line x1="952" y1="126.00" x2="968" y2="126.00" stroke="#7b2cbf" stroke-width="2"/><text x="972" y="130.00" font-size="11">C4</text><line x1="952" y1="144.00" x2="968" y2="144.00" stroke="#f77f00" stroke-width="2"/><text x="972" y="148.00" font-size="11">C5</text><line x1="952" y1="162.00" x2="968" y2="162.00" stroke="#118ab2" stroke-width="2"/><text x="972" y="166.00" font-size="11">C6</text><line x1="952" y1="180.00" x2="968" y2="180.00" stroke="#9d4edd" stroke-width="2"/><text x="972" y="184.00" font-size="11">C7</text>
<text x="506.0" y="636" text-anchor="middle" font-size="14">SNR (dB)</text>
<text x="20" y="318.0" text-anchor="middle" font-size="14" transform="rotate(-90 20 318.0)">BLER</text>
</svg>
