<svg xmlns="http://www.w3.org/2000/svg" width="1060" height="660" viewBox="0 0 1060 660">
<rect width="100%" height="100%" fill="white"/>
<text x="530.0" y="28" text-anchor="middle" font-size="18" font-family="Arial, sans-serif">CDD Pareto Alg1 NMSE</text>
<line x1="78" y1="582" x2="934" y2="582" stroke="#333" stroke-width="1.2"/>
<line x1="78" y1="54" x2="78" y2="582" stroke="#333" stroke-width="1.2"/>
<line x1="78.00" y1="54" x2="78.00" y2="582" stroke="#e6e8eb"/><text x="78.00" y="606" font-size="12" text-anchor="middle">9.6</text><line x1="249.20" y1="54" x2="249.20" y2="582" stroke="#e6e8eb"/><text x="249.20" y="606" font-size="12" text-anchor="middle">11.8</text><line x1="420.40" y1="54" x2="420.40" y2="582" stroke="#e6e8eb"/><text x="420.40" y="606" font-size="12" text-anchor="middle">13.9</text><line x1="591.60" y1="54" x2="591.60" y2="582" stroke="#e6e8eb"/><text x="591.60" y="606" font-size="12" text-anchor="middle">16.1</text><line x1="762.80" y1="54" x2="762.80" y2="582" stroke="#e6e8eb"/><text x="762.80" y="606" font-size="12" text-anchor="middle">18.2</text><line x1="934.00" y1="54" x2="934.00" y2="582" stroke="#e6e8eb"/><text x="934.00" y="606" font-size="12" text-anchor="middle">20.4</text><line x1="78" y1="582.00" x2="934" y2="582.00" stroke="#e6e8eb"/><text x="70" y="586.00" font-size="12" text-anchor="end">0.00128</text><line x1="78" y1="476.40" x2="934" y2="476.40" stroke="#e6e8eb"/><text x="70" y="480.40" font-size="12" text-anchor="end">0.0027</text><line x1="78" y1="370.80" x2="934" y2="370.80" stroke="#e6e8eb"/><text x="70" y="374.80" font-size="12" text-anchor="end">0.00569</text><line x1="78" y1="265.20" x2="934" y2="265.20" stroke="#e6e8eb"/><text x="70" y="269.20" font-size="12" text-anchor="end">0.012</text><line x1="78" y1="159.60" x2="934" y2="159.60" stroke="#e6e8eb"/><text x="70" y="163.60" font-size="12" text-anchor="end">0.0253</text><line x1="78" y1="54.00" x2="934" y2="54.00" stroke="#e6e8eb"/><text x="70" y="58.00" font-size="12" text-anchor="end">0.0534</text>
<circle cx="109.70" cy="232.54" r="3.6" fill="#26547c"><title>C1 CDD step=2</title></circle><circle cx="268.22" cy="288.23" r="3.6" fill="#26547c"><title>C1 CDD step=2</title></circle><circle cx="426.74" cy="354.38" r="3.6" fill="#26547c"><title>C1 CDD step=2</title></circle><circle cx="506.00" cy="387.43" r="3.6" fill="#26547c"><title>C1 CDD step=2</title></circle><circle cx="585.26" cy="406.36" r="3.6" fill="#26547c"><title>C1 CDD step=2</title></circle><circle cx="664.52" cy="446.44" r="3.6" fill="#26547c"><title>C1 CDD step=2</title></circle><circle cx="743.78" cy="462.74" r="3.6" fill="#26547c"><title>C1 CDD step=2</title></circle><circle cx="902.30" cy="545.59" r="3.6" fill="#26547c"><title>C1 CDD step=2</title></circle><polyline points="109.70,232.54 268.22,288.23 426.74,354.38 506.00,387.43 585.26,406.36 664.52,446.44 743.78,462.74 902.30,545.59" fill="none" stroke="#26547c" stroke-width="1.7"/><text x="907.30" y="549.59" font-size="10" fill="#26547c" font-weight="700">C1</text><circle cx="109.70" cy="218.49" r="3.6" fill="#ef476f"><title>C2 CDD step=3</title></circle><circle cx="268.22" cy="276.04" r="3.6" fill="#ef476f"><title>C2 CDD step=3</title></circle><circle cx="426.74" cy="342.18" r="3.6" fill="#ef476f"><title>C2 CDD step=3</title></circle><circle cx="506.00" cy="379.55" r="3.6" fill="#ef476f"><title>C2 CDD step=3</title></circle><circle cx="585.26" cy="398.68" r="3.6" fill="#ef476f"><title>C2 CDD step=3</title></circle><circle cx="664.52" cy="431.40" r="3.6" fill="#ef476f"><title>C2 CDD step=3</title></circle><circle cx="743.78" cy="454.83" r="3.6" fill="#ef476f"><title>C2 CDD step=3</title></circle><circle cx="902.30" cy="530.83" r="3.6" fill="#ef476f"><title>C2 CDD step=3</title></circle><polyline points="109.70,218.49 268.22,276.04 426.74,342.18 506.00,379.55 585.26,398.68 664.52,431.40 743.78,454.83 902.30,530.83" fill="none" stroke="#ef476f" stroke-width="1.7"/><text x="907.30" y="534.83" font-size="10" fill="#ef476f" font-weight="700">C2</text><circle cx="109.70" cy="207.52" r="3.6" fill="#06a77d"><title>C3 CDD step=4</title></circle><circle cx="268.22" cy="268.25" r="3.6" fill="#06a77d"><title>C3 CDD step=4</title></circle><circle cx="426.74" cy="330.24" r="3.6" fill="#06a77d"><title>C3 CDD step=4</title></circle><circle cx="506.00" cy="368.82" r="3.6" fill="#06a77d"><title>C3 CDD step=4</title></circle><circle cx="585.26" cy="385.25" r="3.6" fill="#06a77d"><title>C3 CDD step=4</title></circle><circle cx="664.52" cy="414.93" r="3.6" fill="#06a77d"><title>C3 CDD step=4</title></circle><circle cx="743.78" cy="446.11" r="3.6" fill="#06a77d"><title>C3 CDD step=4</title></circle><circle cx="902.30" cy="509.36" r="3.6" fill="#06a77d"><title>C3 CDD step=4</title></circle><polyline points="109.70,207.52 268.22,268.25 426.74,330.24 506.00,368.82 585.26,385.25 664.52,414.93 743.78,446.11 902.30,509.36" fill="none" stroke="#06a77d" stroke-width="1.7"/><text x="907.30" y="513.36" font-size="10" fill="#06a77d" font-weight="700">C3</text><circle cx="109.70" cy="194.51" r="3.6" fill="#7b2cbf"><title>C4 CDD step=5</title></circle><circle cx="268.22" cy="252.13" r="3.6" fill="#7b2cbf"><title>C4 CDD step=5</title></circle><circle cx="426.74" cy="313.51" r="3.6" fill="#7b2cbf"><title>C4 CDD step=5</title></circle><circle cx="506.00" cy="354.00" r="3.6" fill="#7b2cbf"><title>C4 CDD step=5</title></circle><circle cx="585.26" cy="370.79" r="3.6" fill="#7b2cbf"><title>C4 CDD step=5</title></circle><circle cx="664.52" cy="403.06" r="3.6" fill="#7b2cbf"><title>C4 CDD step=5</title></circle><circle cx="743.78" cy="435.90" r="3.6" fill="#7b2cbf"><title>C4 CDD step=5</title></circle><circle cx="902.30" cy="494.37" r="3.6" fill="#7b2cbf"><title>C4 CDD step=5</title></circle><polyline points="109.70,194.51 268.22,252.13 426.74,313.51 506.00,354.00 585.26,370.79 664.52,403.06 743.78,435.90 902.30,494.37" fill="none" stroke="#7b2cbf" stroke-width="1.7"/><text x="907.30" y="498.37" font-size="10" fill="#7b2cbf" font-weight="700">C4</text><circle cx="109.70" cy="181.18" r="3.6" fill="#f77f00"><title>C5 CDD step=6</title></circle><circle cx="268.22" cy="241.36" r="3.6" fill="#f77f00"><title>C5 CDD step=6</title></circle><circle cx="426.74" cy="302.36" r="3.6" fill="#f77f00"><title>C5 CDD step=6</title></circle><circle cx="506.00" cy="339.78" r="3.6" fill="#f77f00"><title>C5 CDD step=6</title></circle><circle cx="585.26" cy="359.58" r="3.6" fill="#f77f00"><title>C5 CDD step=6</title></circle><circle cx="664.52" cy="392.58" r="3.6" fill="#f77f00"><title>C5 CDD step=6</title></circle><circle cx="743.78" cy="421.06" r="3.6" fill="#f77f00"><title>C5 CDD step=6</title></circle><circle cx="902.30" cy="484.19" r="3.6" fill="#f77f00"><title>C5 CDD step=6</title></circle><polyline points="109.70,181.18 268.22,241.36 426.74,302.36 506.00,339.78 585.26,359.58 664.52,392.58 743.78,421.06 902.30,484.19" fill="none" stroke="#f77f00" stroke-width="1.7"/><text x="907.30" y="488.19" font-size="10" fill="#f77f00" font-weight="700">C5</text><circle cx="109.70" cy="170.99" r="3.6" fill="#118ab2"><title>C6 CDD step=7</title></circle><circle cx="268.22" cy="227.84" r="3.6" fill="#118ab2"><title>C6 CDD step=7</title></circle><circle cx="426.74" cy="294.06" r="3.6" fill="#118ab2"><title>C6 CDD step=7</title></circle><circle cx="506.00" cy="325.78" r="3.6" fill="#118ab2"><title>C6 CDD step=7</title></circle><circle cx="585.26" cy="347.64" r="3.6" fill="#118ab2"><title>C6 CDD step=7</title></circle><circle cx="664.52" cy="381.41" r="3.6" fill="#118ab2"><title>C6 CDD step=7</title></circle><circle cx="743.78" cy="406.37" r="3.6" fill="#118ab2"><title>C6 CDD step=7</title></circle><circle cx="902.30" cy="470.29" r="3.6" fill="#118ab2"><title>C6 CDD step=7</title></circle><polyline points="109.70,170.99 268.22,227.84 426.74,294.06 506.00,325.78 585.26,347.64 664.52,381.41 743.78,406.37 902.30,470.29" fill="none" stroke="#118ab2" stroke-width="1.7"/><text x="907.30" y="474.29" font-size="10" fill="#118ab2" font-weight="700">C6</text><circle cx="109.70" cy="90.41" r="3.6" fill="#9d4edd"><title>C7 CDD step=64</title></circle><circle cx="268.22" cy="142.36" r="3.6" fill="#9d4edd"><title>C7 CDD step=64</title></circle><circle cx="426.74" cy="198.04" r="3.6" fill="#9d4edd"><title>C7 CDD step=64</title></circle><circle cx="506.00" cy="225.79" r="3.6" fill="#9d4edd"><title>C7 CDD step=64</title></circle><circle cx="585.26" cy="241.74" r="3.6" fill="#9d4edd"><title>C7 CDD step=64</title></circle><circle cx="664.52" cy="270.70" r="3.6" fill="#9d4edd"><title>C7 CDD step=64</title></circle><circle cx="743.78" cy="291.62" r="3.6" fill="#9d4edd"><title>C7 CDD step=64</title></circle><circle cx="902.30" cy="341.07" r="3.6" fill="#9d4edd"><title>C7 CDD step=64</title></circle><polyline points="109.70,90.41 268.22,142.36 426.74,198.04 506.00,225.79 585.26,241.74 664.52,270.70 743.78,291.62 902.30,341.07" fill="none" stroke="#9d4edd" stroke-width="1.7"/><text x="907.30" y="345.07" font-size="10" fill="#9d4edd" font-weight="700">C7</text>
<line x1="952" y1="72.00" x2="968" y2="72.00" stroke="#26547c" stroke-width="2"/><text x="972" y="76.00" font-size="11">C1</text><line x1="952" y1="90.00" x2="968" y2="90.00" stroke="#ef476f" stroke-width="2"/><text x="972" y="94.00" font-size="11">C2</text><line x1="952" y1="108.00" x2="968" y2="108.00" stroke="#06a77d" stroke-width="2"/><text x="972" y="112.00" font-size="11">C3</text><line x1="952" y1="126.00" x2="968" y2="126.00" stroke="#7b2cbf" stroke-width="2"/><text x="972" y="130.00" font-size="11">C4</text><line x1="952" y1="144.00" x2="968" y2="144.00" stroke="#f77f00" stroke-width="2"/><text x="972" y="148.00" font-size="11">C5</text><line x1="952" y1="162.00" x2="968" y2="162.00" stroke="#118ab2" stroke-width="2"/><text x="972" y="166.00" font-size="11">C6</text><line x1="952" y1="180.00" x2="968" y2="180.00" stroke="#9d4edd" stroke-width="2"/><text x="972" y="184.00" font-size="11">C7</text>
<text x="506.0" y="636" text-anchor="middle" font-size="14">SNR (dB)</text>
<text x="20" y="318.0" text-anchor="middle" font-size="14" transform="rotate(-90 20 318.0)">NMSE</text>
</svg>
