<svg xmlns="http://www.w3.org/2000/svg" width="1120" height="680" viewBox="0 0 1120 680">
<rect width="100%" height="100%" fill="white"/>
<text x="560.0" y="30" text-anchor="middle" font-size="18" font-family="Arial, sans-serif">Active-band effective PDP spectrum</text>
<line x1="84" y1="602" x2="930" y2="602" stroke="#333" stroke-width="1.2"/>
<line x1="84" y1="54" x2="84" y2="602" stroke="#333" stroke-width="1.2"/>
<line x1="84.00" y1="54" x2="84.00" y2="602" stroke="#e6e8eb"/><text x="84.00" y="626" font-size="12" text-anchor="middle">-220</text><line x1="225.00" y1="54" x2="225.00" y2="602" stroke="#e6e8eb"/><text x="225.00" y="626" font-size="12" text-anchor="middle">-147</text><line x1="366.00" y1="54" x2="366.00" y2="602" stroke="#e6e8eb"/><text x="366.00" y="626" font-size="12" text-anchor="middle">-73</text><line x1="507.00" y1="54" x2="507.00" y2="602" stroke="#e6e8eb"/><text x="507.00" y="626" font-size="12" text-anchor="middle">0</text><line x1="648.00" y1="54" x2="648.00" y2="602" stroke="#e6e8eb"/><text x="648.00" y="626" font-size="12" text-anchor="middle">73</text><line x1="789.00" y1="54" x2="789.00" y2="602" stroke="#e6e8eb"/><text x="789.00" y="626" font-size="12" text-anchor="middle">147</text><line x1="930.00" y1="54" x2="930.00" y2="602" stroke="#e6e8eb"/><text x="930.00" y="626" font-size="12" text-anchor="middle">220</text><line x1="84" y1="602.00" x2="930" y2="602.00" stroke="#e6e8eb"/><text x="76" y="606.00" font-size="12" text-anchor="end">-60</text><line x1="84" y1="510.67" x2="930" y2="510.67" stroke="#e6e8eb"/><text x="76" y="514.67" font-size="12" text-anchor="end">-50</text><line x1="84" y1="419.33" x2="930" y2="419.33" stroke="#e6e8eb"/><text x="76" y="423.33" font-size="12" text-anchor="end">-40</text><line x1="84" y1="328.00" x2="930" y2="328.00" stroke="#e6e8eb"/><text x="76" y="332.00" font-size="12" text-anchor="end">-30</text><line x1="84" y1="236.67" x2="930" y2="236.67" stroke="#e6e8eb"/><text x="76" y="240.67" font-size="12" text-anchor="end">-20</text><line x1="84" y1="145.33" x2="930" y2="145.33" stroke="#e6e8eb"/><text x="76" y="149.33" font-size="12" text-anchor="end">-10</text><line x1="84" y1="54.00" x2="930" y2="54.00" stroke="#e6e8eb"/><text x="76" y="58.00" font-size="12" text-anchor="end">0</text>
<polyline points="507.00,77.22 508.92,109.50 510.85,141.78 512.77,174.06 514.69,206.34 516.61,238.62 518.54,270.90 520.46,303.18 522.38,335.46 524.30,367.74 526.23,400.02" fill="none" stroke="#222222" stroke-width="2"/><polyline points="84.00,573.00 85.92,542.75 87.85,518.80 89.77,508.75 91.69,511.54 93.61,527.63 95.54,556.97 97.46,572.46 99.38,543.92 101.30,518.41 103.23,506.86 105.15,508.21 107.07,522.73 109.00,550.92 110.92,571.10 112.84,545.14 114.76,518.12 116.69,505.05 118.61,504.97 120.53,517.93 122.45,544.80 124.38,568.83 126.30,546.36 128.22,517.95 130.15,503.32 132.07,501.81 133.99,513.24 135.91,538.65 137.84,565.63 139.76,547.53 141.68,517.87 143.60,501.67 145.53,498.72 147.45,508.64 149.37,532.51 151.30,561.55 153.22,548.57 155.14,517.89 157.06,500.10 158.99,495.71 160.91,504.12 162.83,526.40 164.75,556.68 166.68,549.38 168.60,518.01 170.52,498.61 172.45,492.75 174.37,499.68 176.29,520.35 178.21,551.14 180.14,549.84 182.06,518.20 183.98,497.18 185.90,489.85 187.83,495.30 189.75,514.36 191.67,545.05 193.60,549.82 195.52,518.47 197.44,495.81 199.36,486.99 201.29,490.98 203.21,508.42 205.13,538.55 207.05,549.16 208.98,518.78 210.90,494.50 212.82,484.18 214.75,486.71 216.67,502.54 218.59,531.75 220.51,547.70 222.44,519.11 224.36,493.24 226.28,481.39 228.20,482.47 230.13,496.71 232.05,524.73 233.97,545.34 235.90,519.42 237.82,492.03 239.74,478.62 241.66,478.24 243.59,490.91 245.51,517.55 247.43,541.97 249.35,519.67 251.28,490.85 253.20,475.86 255.12,474.02 257.05,485.12 258.97,510.27 260.89,537.58 262.81,519.78 264.74,489.69 266.66,473.09 268.58,469.78 270.50,479.34 272.43,502.91 274.35,532.19 276.27,519.66 278.20,488.54 280.12,470.30 282.04,465.51 283.96,473.54 285.89,495.48 287.81,525.89 289.73,519.20 291.65,487.38 293.58,467.47 295.50,461.18 297.42,467.69 299.35,487.98 301.27,518.79 303.19,518.25 305.11,486.17 307.04,464.59 308.96,456.77 310.88,461.77 312.80,480.39 314.73,511.00 316.65,516.64 318.57,484.90 320.50,461.62 322.42,452.26 324.34,455.74 326.26,472.69 328.19,502.63 330.11,514.19 332.03,483.52 333.95,458.53 335.88,447.60 337.80,449.56 339.72,464.84 341.65,493.75 343.57,510.70 345.49,481.96 347.41,455.29 349.34,442.75 351.26,443.18 353.18,456.80 355.10,484.41 357.03,505.99 358.95,480.16 360.87,451.86 362.80,437.65 364.72,436.55 366.64,448.51 368.56,474.62 370.49,499.93 372.41,478.00 374.33,448.16 376.25,432.24 378.18,429.57 380.10,439.87 382.02,464.35 383.95,492.41 385.87,475.35 387.79,444.11 389.71,426.43 391.64,422.16 393.56,430.79 395.48,453.54 397.40,483.38 399.33,472.02 401.25,439.61 403.17,420.09 405.10,414.16 407.02,421.11 408.94,442.05 410.86,472.77 412.79,467.74 414.71,434.49 416.63,413.04 418.55,405.40 420.48,410.61 422.40,429.68 424.32,460.49 426.25,462.15 428.17,428.53 430.09,405.03 432.01,395.56 433.94,398.98 435.86,416.09 437.78,446.34 439.70,454.72 441.63,421.34 443.55,395.65 445.47,384.20 447.40,385.70 449.32,400.73 451.24,429.84 453.16,444.68 455.09,412.32 457.01,384.15 458.93,370.46 460.85,369.83 462.78,382.58 464.70,410.01 466.62,430.72 468.55,400.22 470.47,369.07 472.39,352.62 474.31,349.38 476.24,359.39 478.16,384.49 480.08,410.22 482.00,382.04 483.93,346.50 485.85,325.94 487.77,318.70 489.70,324.48 491.62,345.77 493.54,375.44 495.46,345.95 497.39,299.00 499.31,266.63 501.23,244.96 503.15,230.72 505.08,222.01 507.00,217.48 508.92,215.97 510.85,216.23 512.77,216.99 514.69,217.26 516.61,216.71 518.54,215.71 520.46,214.87 522.38,214.60 524.30,214.88 526.23,215.35 528.15,215.61 530.07,215.43 532.00,214.97 533.92,214.55 535.84,214.43 537.76,214.64 539.69,214.97 541.61,215.14 543.53,215.02 545.45,214.71 547.38,214.44 549.30,214.40 551.22,214.62 553.15,214.90 555.07,215.02 556.99,214.89 558.91,214.60 560.84,214.39 562.76,214.43 564.68,214.71 566.60,215.03 568.53,215.14 570.45,214.95 572.37,214.61 574.30,214.39 576.22,214.52 578.14,214.95 580.06,215.43 581.99,215.60 583.91,215.32 585.83,214.80 587.75,214.48 589.68,214.73 591.60,215.58 593.52,216.63 595.45,217.17 597.37,216.77 599.29,215.67 601.21,214.86 603.14,215.61 605.06,219.14 606.98,226.49 608.90,238.69 610.83,256.89 612.75,282.33 614.67,314.10 616.60,337.72 618.52,333.15 620.44,321.25 622.36,317.61 624.29,324.64 626.21,343.20 628.13,373.14 630.05,395.72 631.98,379.22 633.90,358.21 635.82,349.12 637.75,352.18 639.67,367.49 641.59,395.44 643.51,421.20 645.44,405.87 647.36,381.64 649.28,369.66 651.20,370.22 653.13,383.18 655.05,409.23 656.97,437.64 658.90,426.13 660.82,399.87 662.74,385.55 664.66,384.04 666.59,394.98 668.51,419.17 670.43,449.27 672.35,442.83 674.28,415.24 676.20,398.84 678.12,395.46 680.05,404.55 681.97,426.91 683.89,457.84 685.81,457.09 687.74,428.82 689.66,410.46 691.58,405.32 693.50,412.68 695.43,433.26 697.35,464.29 699.27,469.44 701.20,441.17 703.12,420.95 705.04,414.11 706.96,419.81 708.89,438.64 710.81,469.24 712.73,480.11 714.65,452.62 716.58,430.63 718.50,422.12 720.42,426.22 722.35,443.34 724.27,473.09 726.19,489.24 728.11,463.37 730.04,439.70 731.96,429.54 733.88,432.08 735.80,447.54 737.73,476.15 739.65,496.89 741.57,473.57 743.50,448.32 745.42,436.52 747.34,437.52 749.26,451.35 751.19,478.63 753.11,503.13 755.03,483.28 756.95,456.59 758.88,443.16 760.80,442.65 762.72,454.88 764.65,480.69 766.57,508.05 768.49,492.53 770.41,464.61 772.34,449.54 774.26,447.52 776.18,458.19 778.10,482.46 780.03,511.78 781.95,501.31 783.87,472.43 785.80,455.72 787.72,452.20 789.64,461.33 791.56,484.02 793.49,514.48 795.41,509.59 797.33,480.09 799.25,461.75 801.18,456.73 803.10,464.35 805.02,485.43 806.95,516.34 808.87,517.28 810.79,487.65 812.71,467.66 814.64,461.15 816.56,467.28 818.48,486.74 820.40,517.52 822.33,524.29 824.25,495.11 826.17,473.51 828.10,465.49 830.02,470.14 831.94,488.00 833.86,518.20 835.79,530.52 837.71,502.49 839.63,479.30 841.55,469.77 843.48,472.96 845.40,489.23 847.32,518.51 849.25,535.87 851.17,509.80 853.09,485.07 855.01,474.01 856.94,475.75 858.86,490.46 860.78,518.57 862.70,540.25 864.63,517.02 866.55,490.84 868.47,478.24 870.40,478.53 872.32,491.69 874.24,518.47 876.16,543.65 878.09,524.12 880.01,496.63 881.93,482.47 883.85,481.32 885.78,492.96 887.70,518.29 889.62,546.08 891.55,531.06 893.47,502.45 895.39,486.72 897.31,484.13 899.24,494.26 901.16,518.07 903.08,547.63 905.00,537.78 906.93,508.31 908.85,491.00 910.77,486.96 912.70,495.60 914.62,517.85 916.54,548.41 918.46,544.19 920.39,514.22 922.31,495.32 924.23,489.82 926.15,497.00 928.08,517.67 930.00,548.55" fill="none" stroke="#26547c" stroke-width="2"/><polyline points="84.00,575.31 85.92,543.92 87.85,519.52 89.77,509.50 91.69,512.65 93.61,529.50 95.54,559.44 97.46,569.87 99.38,538.32 101.30,513.02 103.23,501.64 105.15,502.79 107.07,516.62 109.00,543.89 110.92,567.66 112.84,546.50 114.76,519.54 116.69,506.23 118.61,506.25 120.53,519.75 122.45,547.37 124.38,567.79 126.30,540.92 128.22,512.70 130.15,498.55 132.07,497.33 133.99,508.93 135.91,534.65 137.84,562.82 139.76,544.86 141.68,514.46 143.60,497.72 145.53,494.25 147.45,503.54 149.37,526.71 151.30,557.17 153.22,548.20 155.14,517.02 157.06,498.24 158.99,492.98 160.91,500.51 162.83,521.80 164.75,552.72 166.68,550.06 168.60,518.67 170.52,498.29 172.45,491.60 174.37,497.73 176.29,517.56 178.21,548.76 180.14,552.06 182.06,520.77 183.98,499.02 185.90,491.27 187.83,496.60 189.75,515.89 191.67,547.28 193.60,551.27 195.52,518.92 197.44,496.27 199.36,487.82 201.29,492.48 203.21,510.90 205.13,540.46 207.05,542.46 208.98,510.22 210.90,486.97 212.82,477.15 214.75,479.51 216.67,494.37 218.59,521.89 220.51,542.02 222.44,519.64 224.36,494.53 226.28,482.79 228.20,484.24 230.13,499.22 232.05,527.29 233.97,540.35 235.90,510.77 237.82,484.69 239.74,472.32 241.66,472.55 243.59,485.58 245.51,512.46 247.43,537.02 249.35,514.61 251.28,485.62 253.20,470.36 255.12,468.08 257.05,478.45 258.97,502.47 260.89,530.76 262.81,517.52 264.74,487.56 266.66,470.19 268.58,466.01 270.50,474.47 272.43,496.48 274.35,525.69 276.27,518.68 278.20,488.43 280.12,469.54 282.04,463.97 283.96,471.08 285.89,491.77 287.81,521.99 289.73,520.57 291.65,490.04 293.58,469.91 295.50,463.52 297.42,470.23 299.35,491.04 301.27,521.68 303.19,517.63 305.11,485.30 307.04,464.55 308.96,457.69 310.88,463.78 312.80,483.22 314.73,509.23 316.65,501.31 318.57,470.49 320.50,449.79 322.42,441.55 324.34,444.88 326.26,460.05 328.19,486.18 330.11,502.21 332.03,481.53 333.95,459.11 335.88,449.05 337.80,451.80 339.72,467.69 341.65,493.45 343.57,496.02 345.49,466.60 347.41,443.54 349.34,433.16 351.26,434.80 353.18,448.93 355.10,475.80 357.03,494.53 358.95,469.76 360.87,442.78 362.80,428.89 364.72,427.41 366.64,438.12 368.56,461.41 370.49,485.22 372.41,470.46 374.33,442.93 376.25,426.88 378.18,423.28 380.10,431.76 382.02,452.59 383.95,477.29 385.87,468.99 387.79,441.90 389.71,424.61 391.64,419.74 393.56,427.03 395.48,447.01 397.40,473.71 399.33,470.27 401.25,442.83 403.17,424.66 405.10,419.63 407.02,427.67 408.94,449.50 410.86,475.05 412.79,460.04 414.71,429.27 416.63,410.84 418.55,405.30 420.48,411.46 422.40,427.03 424.32,437.34 426.25,420.70 428.17,396.30 430.09,379.91 432.01,373.34 433.94,376.28 435.86,388.35 437.78,406.41 439.70,415.69 441.63,403.93 443.55,388.30 445.47,380.61 447.40,382.85 449.32,393.62 451.24,403.40 453.16,393.84 455.09,372.36 457.01,355.44 458.93,347.41 460.85,348.76 462.78,359.27 464.70,375.33 466.62,379.91 468.55,362.01 470.47,341.35 472.39,328.34 474.31,324.09 476.24,327.81 478.16,336.77 480.08,342.31 482.00,334.01 483.93,317.60 485.85,303.65 487.77,295.81 489.70,294.08 491.62,296.53 493.54,298.48 495.46,293.86 497.39,282.35 499.31,269.56 501.23,259.66 503.15,253.90 505.08,251.68 507.00,250.98 508.92,248.68 510.85,242.48 512.77,233.22 514.69,223.66 516.61,215.98 518.54,211.04 520.46,208.69 522.38,207.98 524.30,207.44 526.23,205.62 528.15,202.04 530.07,197.55 532.00,193.57 533.92,191.26 535.84,191.28 537.76,193.81 539.69,198.64 541.61,205.23 543.53,212.62 545.45,219.45 547.38,224.08 549.30,225.07 551.22,221.99 553.15,215.75 555.07,208.13 556.99,200.88 558.91,195.26 560.84,191.96 562.76,191.24 564.68,192.93 566.60,196.43 568.53,200.60 570.45,204.07 572.37,205.92 574.30,206.47 576.22,207.04 578.14,209.08 580.06,213.50 581.99,220.52 583.91,229.38 585.83,238.21 587.75,244.56 589.68,247.49 591.60,248.76 593.52,251.16 595.45,256.64 597.37,265.83 599.29,277.67 601.21,288.60 603.14,293.86 605.06,293.21 606.98,291.62 608.90,293.50 610.83,300.86 612.75,313.74 614.67,328.89 616.60,337.43 618.52,333.84 620.44,326.23 622.36,322.83 624.29,326.68 626.21,338.59 628.13,357.38 630.05,374.22 631.98,372.49 633.90,358.94 635.82,349.15 637.75,347.64 639.67,354.81 641.59,369.88 643.51,388.23 645.44,396.51 647.36,389.51 649.28,381.18 651.20,380.28 653.13,388.80 655.05,405.12 656.97,417.32 658.90,407.59 660.82,388.98 662.74,376.51 664.66,373.12 666.59,378.96 668.51,393.85 670.43,415.10 672.35,428.74 674.28,420.89 676.20,408.02 678.12,403.01 680.05,408.74 681.97,426.43 683.89,454.77 685.81,468.83 687.74,447.10 689.66,426.85 691.58,419.30 693.50,424.45 695.43,442.52 697.35,469.71 699.27,473.45 701.20,447.12 703.12,427.16 705.04,419.77 706.96,424.43 708.89,441.32 710.81,467.71 712.73,476.17 714.65,452.34 716.58,431.69 718.50,423.11 720.42,426.45 722.35,442.01 724.27,468.74 726.19,483.88 728.11,461.50 730.04,438.42 731.96,427.51 733.88,428.60 735.80,441.80 737.73,467.53 739.65,491.94 741.57,476.17 743.50,450.18 745.42,436.03 747.34,434.12 749.26,443.92 751.19,465.51 753.11,491.38 755.03,488.70 756.95,465.85 758.88,451.36 760.80,449.35 762.72,460.03 764.65,483.41 766.57,505.07 768.49,487.69 770.41,460.61 772.34,445.07 774.26,441.47 776.18,449.25 778.10,468.83 780.03,496.56 781.95,502.74 783.87,479.71 785.80,461.76 787.72,456.16 789.64,463.01 791.56,483.20 793.49,514.13 795.41,519.08 797.33,490.32 799.25,469.97 801.18,463.31 803.10,469.61 805.02,489.53 806.95,519.81 808.87,521.89 810.79,492.01 812.71,471.26 814.64,464.00 816.56,469.38 818.48,487.95 820.40,517.70 822.33,525.09 824.25,496.49 826.17,474.51 828.10,465.91 830.02,469.85 831.94,486.84 833.86,516.26 835.79,530.24 837.71,502.91 839.63,478.85 841.55,468.24 843.48,470.16 845.40,484.85 847.32,512.87 849.25,535.70 851.17,513.46 853.09,486.94 855.01,473.80 856.94,473.34 858.86,485.28 860.78,510.13 862.70,536.58 864.63,524.20 866.55,498.15 868.47,484.06 870.40,483.12 872.32,495.34 874.24,521.26 876.16,544.38 878.09,522.88 880.01,494.67 881.93,479.59 883.85,477.05 885.78,486.56 887.70,508.90 889.62,538.36 891.55,535.72 893.47,508.34 895.39,490.83 897.31,486.44 899.24,494.80 901.16,516.95 903.08,548.41 905.00,545.91 906.93,515.61 908.85,496.46 910.77,491.07 912.70,498.67 914.62,520.18 916.54,551.31 918.46,548.84 920.39,517.86 922.31,497.92 924.23,491.64 926.15,498.13 928.08,518.21 930.00,549.22" fill="none" stroke="#06a77d" stroke-width="2"/><polyline points="84.00,568.80 85.92,541.84 87.85,525.98 89.77,523.46 91.69,534.27 93.61,558.76 95.54,580.17 97.46,557.56 99.38,528.49 101.30,512.44 103.23,508.87 105.15,517.23 107.07,537.92 109.00,563.57 110.92,557.33 112.84,529.89 114.76,511.63 116.69,505.46 118.61,510.67 120.53,526.86 122.45,548.60 124.38,550.66 126.30,529.68 128.22,512.44 130.15,506.14 132.07,511.37 133.99,528.84 135.91,555.87 137.84,562.80 139.76,537.32 141.68,516.62 143.60,508.68 145.53,513.38 147.45,531.28 149.37,558.51 151.30,558.45 153.22,528.04 155.14,505.66 157.06,495.91 158.99,497.78 160.91,511.32 162.83,536.20 164.75,556.19 166.68,539.60 168.60,516.13 170.52,504.20 172.45,504.81 174.37,518.40 176.29,545.38 178.21,565.65 180.14,541.11 182.06,513.78 183.98,499.84 185.90,498.42 187.83,509.12 189.75,532.03 191.67,556.22 193.60,545.50 195.52,520.67 197.44,506.79 199.36,505.93 201.29,518.29 203.21,542.88 205.13,555.80 207.05,529.25 208.98,502.79 210.90,488.86 212.82,486.77 214.75,496.11 216.67,516.55 218.59,537.32 220.51,526.88 222.44,501.96 224.36,485.79 226.28,480.72 228.20,486.11 230.13,500.91 232.05,518.25 233.97,518.01 235.90,500.80 237.82,486.63 239.74,482.11 241.66,488.36 243.59,505.92 245.51,530.27 247.43,533.12 249.35,510.04 251.28,491.87 253.20,485.62 255.12,491.55 257.05,509.89 258.97,533.14 260.89,525.77 262.81,497.25 264.74,477.26 266.66,468.94 268.58,471.54 270.50,485.02 272.43,508.00 274.35,524.02 276.27,509.45 278.20,489.15 280.12,479.08 282.04,480.96 283.96,495.50 285.89,522.15 287.81,536.69 289.73,510.94 291.65,485.64 293.58,473.11 295.50,472.57 297.42,483.62 299.35,505.47 301.27,525.19 303.19,513.96 305.11,492.41 307.04,480.86 308.96,481.72 310.88,495.02 312.80,516.19 314.73,516.33 316.65,489.18 318.57,466.46 320.50,454.95 322.42,454.12 324.34,463.46 326.26,480.90 328.19,493.17 330.11,480.96 332.03,460.42 333.95,446.87 335.88,442.55 337.80,446.89 339.72,457.92 341.65,468.82 343.57,467.81 345.49,456.42 347.41,446.61 349.34,444.18 351.26,450.80 353.18,466.46 355.10,485.07 357.03,485.95 358.95,468.55 360.87,454.09 362.80,449.53 364.72,455.71 366.64,471.60 368.56,485.91 370.49,474.40 372.41,450.63 374.33,433.72 376.25,426.57 378.18,428.92 380.10,440.29 382.02,457.99 383.95,469.40 385.87,460.91 387.79,446.47 389.71,439.10 391.64,442.06 393.56,456.35 395.48,479.64 397.40,488.01 399.33,465.05 401.25,442.84 403.17,431.70 405.10,431.49 407.02,441.54 408.94,459.30 410.86,471.27 412.79,461.12 414.71,444.70 416.63,436.04 418.55,437.37 420.48,446.24 422.40,451.06 424.32,437.07 426.25,415.09 428.17,398.21 430.09,389.24 432.01,387.82 433.94,392.33 435.86,398.31 437.78,397.58 439.70,387.15 441.63,374.00 443.55,364.14 445.47,359.37 447.40,359.22 449.32,361.65 451.24,363.20 453.16,361.03 455.09,355.95 457.01,351.39 458.93,350.06 460.85,352.88 462.78,358.70 464.70,363.59 466.62,362.55 468.55,355.63 470.47,347.96 472.39,343.43 474.31,342.93 476.24,344.58 478.16,343.84 480.08,336.71 482.00,325.00 483.93,313.54 485.85,305.26 487.77,300.89 489.70,299.79 491.62,300.20 493.54,299.61 495.46,296.27 497.39,290.79 499.31,285.38 501.23,281.87 503.15,280.88 505.08,281.68 507.00,282.27 508.92,280.22 510.85,274.70 512.77,267.32 514.69,260.34 516.61,255.15 518.54,251.98 520.46,250.23 522.38,248.85 524.30,246.83 526.23,243.92 528.15,240.70 530.07,238.13 532.00,236.91 533.92,237.20 535.84,238.52 537.76,239.83 539.69,239.98 541.61,238.50 543.53,235.91 545.45,233.36 547.38,231.87 549.30,232.01 551.22,233.84 553.15,237.03 555.07,240.91 556.99,244.71 558.91,247.83 560.84,250.10 562.76,251.77 564.68,253.22 566.60,254.74 568.53,256.35 570.45,257.79 572.37,258.54 574.30,257.97 576.22,255.61 578.14,251.53 580.06,246.41 581.99,241.25 583.91,237.00 585.83,234.34 587.75,233.64 589.68,234.99 591.60,238.24 593.52,242.95 595.45,248.36 597.37,253.51 599.29,257.35 601.21,259.10 603.14,258.48 605.06,255.72 606.98,251.46 608.90,246.56 610.83,241.90 612.75,238.24 614.67,236.09 616.60,235.71 618.52,237.13 620.44,240.14 622.36,244.32 624.29,249.08 626.21,253.69 628.13,257.35 630.05,259.26 631.98,258.78 633.90,255.78 635.82,250.88 637.75,245.20 639.67,239.94 641.59,235.99 643.51,233.89 645.44,233.85 647.36,235.81 649.28,239.45 651.20,244.20 653.13,249.23 655.05,253.63 656.97,256.62 658.90,257.91 660.82,257.75 662.74,256.70 664.66,255.34 666.59,254.04 668.51,252.87 670.43,251.57 672.35,249.63 674.28,246.68 676.20,242.78 678.12,238.56 680.05,234.88 681.97,232.52 683.89,231.91 685.81,233.02 687.74,235.35 689.66,237.90 691.58,239.52 693.50,239.54 695.43,238.35 697.35,237.01 699.27,236.58 701.20,237.60 703.12,239.95 705.04,242.95 706.96,245.67 708.89,247.49 710.81,248.65 712.73,250.09 714.65,252.88 716.58,257.64 718.50,264.21 720.42,271.43 722.35,277.25 724.27,280.01 726.19,280.14 728.11,279.77 730.04,280.84 731.96,284.18 733.88,289.29 735.80,294.50 737.73,297.75 739.65,298.38 741.57,297.95 743.50,298.81 745.42,302.65 747.34,310.11 749.26,320.56 751.19,331.57 753.11,339.16 755.03,341.45 756.95,341.21 758.88,342.47 760.80,347.18 762.72,354.69 764.65,361.53 766.57,363.06 768.49,358.99 770.41,353.84 772.34,351.35 774.26,352.69 776.18,356.87 778.10,361.11 780.03,362.20 781.95,359.80 783.87,356.91 785.80,356.77 787.72,361.19 789.64,370.50 791.56,383.00 793.49,393.28 795.41,394.94 797.33,390.05 799.25,386.02 801.18,387.30 803.10,395.47 805.02,410.53 806.95,429.25 808.87,441.09 810.79,438.76 812.71,432.87 814.64,433.27 816.56,442.95 818.48,460.32 820.40,471.50 822.33,459.53 824.25,441.22 826.17,430.65 828.10,430.27 830.02,440.55 831.94,461.44 833.86,483.99 835.79,479.08 837.71,457.53 839.63,443.52 841.55,440.63 843.48,448.21 845.40,463.27 847.32,472.43 849.25,460.36 851.17,441.65 853.09,429.50 855.01,426.42 856.94,432.61 858.86,447.96 860.78,469.35 862.70,480.85 864.63,470.07 866.55,456.11 868.47,450.59 870.40,455.36 872.32,469.85 874.24,487.41 876.16,487.23 878.09,469.18 880.01,453.87 881.93,447.61 883.85,450.47 885.78,460.50 887.70,470.74 889.62,468.73 891.55,455.79 893.47,444.21 895.39,439.76 897.31,443.92 899.24,457.07 901.16,477.04 903.08,489.83 905.00,479.36 906.93,462.63 908.85,453.31 910.77,453.78 912.70,464.44 914.62,485.13 916.54,508.40 918.46,508.70 920.39,491.08 922.31,479.51 924.23,479.46 926.15,491.62 928.08,514.26 930.00,526.90" fill="none" stroke="#7b2cbf" stroke-width="2"/><polyline points="84.00,495.10 85.92,504.25 87.85,515.01 89.77,526.59 91.69,539.87 93.61,556.65 95.54,573.54 97.46,570.21 99.38,543.65 101.30,516.73 103.23,496.27 105.15,481.65 107.07,471.23 109.00,463.31 110.92,456.40 112.84,449.52 114.76,442.47 116.69,435.64 118.61,429.55 120.53,424.51 122.45,420.53 124.38,417.36 126.30,414.69 128.22,412.26 130.15,410.00 132.07,407.99 133.99,406.35 135.91,405.16 137.84,404.45 139.76,404.18 141.68,404.35 143.60,404.96 145.53,406.02 147.45,407.52 149.37,409.35 151.30,411.42 153.22,413.70 155.14,416.36 157.06,419.73 158.99,424.22 160.91,430.07 162.83,437.16 164.75,444.87 166.68,452.25 168.60,458.75 170.52,465.06 172.45,473.21 174.37,486.00 176.29,506.70 178.21,537.49 180.14,557.86 182.06,530.65 183.98,499.81 185.90,480.04 187.83,469.36 189.75,465.74 191.67,467.76 193.60,474.13 195.52,483.37 197.44,493.95 199.36,505.26 201.29,518.46 203.21,535.40 205.13,551.42 207.05,544.82 208.98,517.05 210.90,490.52 212.82,470.64 214.75,456.48 216.67,446.36 218.59,438.57 220.51,431.60 222.44,424.54 224.36,417.29 226.28,410.31 228.20,404.13 230.13,399.06 232.05,395.03 233.97,391.80 235.90,389.00 237.82,386.41 239.74,383.97 241.66,381.77 243.59,379.96 245.51,378.63 247.43,377.79 249.35,377.41 251.28,377.44 253.20,377.90 255.12,378.78 257.05,380.08 258.97,381.70 260.89,383.57 262.81,385.69 264.74,388.23 266.66,391.53 268.58,395.96 270.50,401.71 272.43,408.61 274.35,416.04 276.27,423.12 278.20,429.45 280.12,435.86 282.04,444.44 283.96,457.98 285.89,479.78 287.81,511.36 289.73,526.90 291.65,496.72 293.58,466.96 295.50,448.24 297.42,438.37 299.35,435.39 301.27,437.89 303.19,444.50 305.11,453.61 307.04,463.66 308.96,474.28 310.88,487.07 312.80,503.96 314.73,519.01 316.65,509.20 318.57,480.22 320.50,453.92 322.42,434.46 324.34,420.68 326.26,410.80 328.19,403.05 330.11,395.89 332.03,388.46 333.95,380.78 335.88,373.41 337.80,366.94 339.72,361.63 341.65,357.40 343.57,353.92 345.49,350.80 347.41,347.81 349.34,344.91 351.26,342.25 353.18,340.01 355.10,338.30 357.03,337.11 358.95,336.37 360.87,336.02 362.80,336.03 364.72,336.40 366.64,337.13 368.56,338.19 370.49,339.56 372.41,341.24 374.33,343.41 376.25,346.36 378.18,350.36 380.10,355.57 382.02,361.79 383.95,368.47 385.87,374.92 387.79,380.96 389.71,387.52 391.64,396.62 393.56,410.98 395.48,433.91 397.40,466.04 399.33,475.95 401.25,443.40 403.17,414.62 405.10,396.84 407.02,387.70 408.94,385.32 410.86,388.19 412.79,394.69 414.71,402.76 416.63,410.69 418.55,418.77 420.48,429.63 422.40,445.80 424.32,460.53 426.25,447.86 428.17,416.59 430.09,389.54 432.01,369.95 433.94,356.27 435.86,346.50 437.78,338.56 439.70,330.64 441.63,321.85 443.55,312.48 445.47,303.48 447.40,295.62 449.32,289.16 451.24,283.88 453.16,279.22 455.09,274.58 457.01,269.67 458.93,264.58 460.85,259.67 462.78,255.30 464.70,251.62 466.62,248.53 468.55,245.72 470.47,242.89 472.39,239.90 474.31,236.84 476.24,233.93 478.16,231.42 480.08,229.37 482.00,227.70 483.93,226.19 485.85,224.63 487.77,222.94 489.70,221.24 491.62,219.70 493.54,218.51 495.46,217.71 497.39,217.19 499.31,216.76 501.23,216.25 503.15,215.63 505.08,215.02 507.00,214.61 508.92,214.58 510.85,214.94 512.77,215.57 514.69,216.22 516.61,216.64 518.54,216.72 520.46,216.47 522.38,216.06 524.30,215.63 526.23,215.28 528.15,215.00 530.07,214.77 532.00,214.59 533.92,214.52 535.84,214.63 537.76,214.99 539.69,215.59 541.61,216.33 543.53,217.11 545.45,217.86 547.38,218.63 549.30,219.52 551.22,220.68 553.15,222.17 555.07,223.95 556.99,225.88 558.91,227.79 560.84,229.62 562.76,231.45 564.68,233.48 566.60,235.91 568.53,238.82 570.45,242.10 572.37,245.50 574.30,248.81 576.22,251.94 578.14,255.09 580.06,258.62 581.99,262.85 583.91,267.88 585.83,273.50 587.75,279.21 589.68,284.57 591.60,289.49 593.52,294.47 595.45,300.37 597.37,307.96 599.29,317.55 601.21,328.63 603.14,339.58 605.06,348.37 606.98,354.52 608.90,360.26 610.83,369.12 612.75,384.54 614.67,409.74 616.60,441.87 618.52,441.02 620.44,408.78 622.36,384.11 624.29,369.74 626.21,363.37 628.13,363.38 630.05,368.67 631.98,378.30 633.90,391.33 635.82,406.79 637.75,424.23 639.67,443.86 641.59,463.98 643.51,471.42 645.44,453.95 647.36,428.86 649.28,407.97 651.20,392.55 653.13,381.52 655.05,373.54 656.97,367.32 658.90,361.92 660.82,356.83 662.74,352.01 664.66,347.70 666.59,344.11 668.51,341.35 670.43,339.33 672.35,337.91 674.28,336.94 676.20,336.36 678.12,336.12 680.05,336.23 681.97,336.64 683.89,337.33 685.81,338.31 687.74,339.65 689.66,341.50 691.58,343.97 693.50,347.05 695.43,350.59 697.35,354.30 699.27,357.96 701.20,361.64 703.12,365.74 705.04,370.85 706.96,377.49 708.89,385.81 710.81,395.27 712.73,404.59 714.65,412.40 716.58,418.61 718.50,425.14 720.42,435.02 722.35,451.56 724.27,477.97 726.19,509.29 728.11,501.91 730.04,468.80 731.96,444.78 733.88,430.89 735.80,424.81 737.73,424.97 739.65,430.22 741.57,439.53 743.50,451.74 745.42,465.83 747.34,481.59 749.26,499.79 751.19,518.78 753.11,523.75 755.03,503.40 756.95,477.21 758.88,456.04 760.80,440.59 762.72,429.56 764.65,421.48 766.57,415.01 768.49,409.15 770.41,403.43 772.34,397.94 774.26,392.99 776.18,388.87 778.10,385.65 780.03,383.23 781.95,381.41 783.87,380.01 785.80,378.94 787.72,378.18 789.64,377.76 791.56,377.68 793.49,377.94 795.41,378.55 797.33,379.56 799.25,381.09 801.18,383.20 803.10,385.88 805.02,388.96 806.95,392.22 808.87,395.51 810.79,398.91 812.71,402.83 814.64,407.82 816.56,414.31 818.48,422.38 820.40,431.44 822.33,440.27 824.25,447.70 826.17,453.86 828.10,460.75 830.02,471.33 831.94,488.86 833.86,516.46 835.79,546.29 837.71,533.05 839.63,500.10 841.55,477.18 843.48,464.12 845.40,458.68 847.32,459.32 849.25,464.92 851.17,474.36 853.09,486.41 855.01,500.07 856.94,515.37 858.86,533.31 860.78,551.67 862.70,553.88 864.63,531.44 866.55,505.13 868.47,484.33 870.40,469.24 872.32,458.48 874.24,450.53 876.16,444.03 878.09,437.99 880.01,432.03 881.93,426.30 883.85,421.16 885.78,416.90 887.70,413.57 889.62,411.04 891.55,409.10 893.47,407.54 895.39,406.28 897.31,405.32 899.24,404.70 901.16,404.44 903.08,404.55 905.00,405.02 906.93,405.93 908.85,407.34 910.77,409.32 912.70,411.84 914.62,414.75 916.54,417.82 918.46,420.94 920.39,424.24 922.31,428.13 924.23,433.14 926.15,439.65 928.08,447.67 930.00,456.56" fill="none" stroke="#d62828" stroke-width="2"/>
<line x1="952" y1="74.00" x2="970" y2="74.00" stroke="#222222" stroke-width="2.5"/><text x="976" y="78.00" font-size="12">Original input PDP</text><line x1="952" y1="96.00" x2="970" y2="96.00" stroke="#26547c" stroke-width="2.5"/><text x="976" y="100.00" font-size="12">CDD C6 step=7</text><line x1="952" y1="118.00" x2="970" y2="118.00" stroke="#06a77d" stroke-width="2.5"/><text x="976" y="122.00" font-size="12">PW P6 cyclic slope=6</text><line x1="952" y1="140.00" x2="970" y2="140.00" stroke="#7b2cbf" stroke-width="2.5"/><text x="976" y="144.00" font-size="12">PW P8 cyclic slope=16</text><line x1="952" y1="162.00" x2="970" y2="162.00" stroke="#d62828" stroke-width="2.5"/><text x="976" y="166.00" font-size="12">PW reset R1 slope=2</text>
<text x="507.0" y="656" text-anchor="middle" font-size="14">Signed delay bin on nFFT grid (8.138 ns/bin)</text>
<text x="22" y="328.0" text-anchor="middle" font-size="14" transform="rotate(-90 22 328.0)">Normalized delay power (dB)</text>
</svg>
