<svg xmlns="http://www.w3.org/2000/svg" width="1240" height="720" viewBox="0 0 1240 720">
<rect width="100%" height="100%" fill="white"/>
<text x="620.0" y="30" text-anchor="middle" font-size="18" font-family="Arial, sans-serif">Ideal-CSI BLER, 36 PRB, full interleaver</text>
<line x1="84" y1="638" x2="990" y2="638" stroke="#333" stroke-width="1.2"/>
<line x1="84" y1="56" x2="84" y2="638" stroke="#333" stroke-width="1.2"/>
<line x1="84.00" y1="56" x2="84.00" y2="638" stroke="#e6e8eb"/><text x="84.00" y="662" font-size="12" text-anchor="middle">11.4</text><line x1="265.20" y1="56" x2="265.20" y2="638" stroke="#e6e8eb"/><text x="265.20" y="662" font-size="12" text-anchor="middle">14.8</text><line x1="446.40" y1="56" x2="446.40" y2="638" stroke="#e6e8eb"/><text x="446.40" y="662" font-size="12" text-anchor="middle">18.3</text><line x1="627.60" y1="56" x2="627.60" y2="638" stroke="#e6e8eb"/><text x="627.60" y="662" font-size="12" text-anchor="middle">21.7</text><line x1="808.80" y1="56" x2="808.80" y2="638" stroke="#e6e8eb"/><text x="808.80" y="662" font-size="12" text-anchor="middle">25.2</text><line x1="990.00" y1="56" x2="990.00" y2="638" stroke="#e6e8eb"/><text x="990.00" y="662" font-size="12" text-anchor="middle">28.6</text><line x1="84" y1="616.79" x2="990" y2="616.79" stroke="#d9dde2"/><text x="76" y="620.79" font-size="12" text-anchor="end">1e-3</text><line x1="84" y1="421.43" x2="990" y2="421.43" stroke="#d9dde2"/><text x="76" y="425.43" font-size="12" text-anchor="end">1e-2</text><line x1="84" y1="226.07" x2="990" y2="226.07" stroke="#d9dde2"/><text x="76" y="230.07" font-size="12" text-anchor="end">1e-1</text><line x1="84" y1="557.99" x2="990" y2="557.99" stroke="#eef0f2"/><line x1="84" y1="480.24" x2="990" y2="480.24" stroke="#eef0f2"/><line x1="84" y1="362.63" x2="990" y2="362.63" stroke="#eef0f2"/><line x1="84" y1="284.88" x2="990" y2="284.88" stroke="#eef0f2"/><line x1="84" y1="167.26" x2="990" y2="167.26" stroke="#eef0f2"/><line x1="84" y1="89.52" x2="990" y2="89.52" stroke="#eef0f2"/>
<line x1="84" y1="226.07" x2="990" y2="226.07" stroke="#111" stroke-width="1" stroke-dasharray="5 4"/><text x="998" y="230.07" font-size="11" fill="#111">0.1</text><line x1="84" y1="421.43" x2="990" y2="421.43" stroke="#111" stroke-width="1" stroke-dasharray="5 4"/><text x="998" y="425.43" font-size="11" fill="#111">0.01</text><g><title>C0 CDD step=1</title><circle cx="117.56" cy="106.88" r="4" stroke="#0072B2" stroke-width="1.6" fill="white"/></g><g><title>C0 CDD step=1</title><circle cx="222.42" cy="145.82" r="4" stroke="#0072B2" stroke-width="1.6" fill="white"/></g><g><title>C0 CDD step=1</title><circle cx="274.85" cy="167.26" r="4" stroke="#0072B2" stroke-width="1.6" fill="white"/></g><g><title>C0 CDD step=1</title><circle cx="327.28" cy="187.53" r="4" stroke="#0072B2" stroke-width="1.6" fill="white"/></g><g><title>C0 CDD step=1</title><circle cx="379.71" cy="208.86" r="4" stroke="#0072B2" stroke-width="1.6" fill="white"/></g><g><title>C0 CDD step=1</title><circle cx="432.14" cy="235.01" r="4" stroke="#0072B2" stroke-width="1.6" fill="white"/></g><g><title>C0 CDD step=1</title><circle cx="537.00" cy="276.80" r="4" stroke="#0072B2" stroke-width="1.6" fill="white"/></g><g><title>C0 CDD step=1</title><circle cx="641.86" cy="352.63" r="4" stroke="#0072B2" stroke-width="1.6" fill="white"/></g><g><title>C0 CDD step=1</title><circle cx="746.72" cy="387.03" r="4" stroke="#0072B2" stroke-width="1.6" fill="white"/></g><g><title>C0 CDD step=1</title><circle cx="851.58" cy="597.86" r="4" stroke="#0072B2" stroke-width="1.6" fill="white"/></g><g><title>C0 CDD step=1</title><circle cx="956.44" cy="597.86" r="4" stroke="#0072B2" stroke-width="1.6" fill="white"/></g><polyline points="117.56,106.88 222.42,145.82 274.85,167.26 327.28,187.53 379.71,208.86 432.14,235.01 537.00,276.80 641.86,352.63 746.72,387.03 851.58,597.86 956.44,597.86" fill="none" stroke="#0072B2" stroke-width="2.1" stroke-dasharray="5 3"/><g><title>C1 CDD step=2</title><rect x="113.76" y="99.01" width="7.6" height="7.6" stroke="#D55E00" stroke-width="1.6" fill="white"/></g><g><title>C1 CDD step=2</title><rect x="218.62" y="148.88" width="7.6" height="7.6" stroke="#D55E00" stroke-width="1.6" fill="white"/></g><g><title>C1 CDD step=2</title><rect x="271.05" y="178.51" width="7.6" height="7.6" stroke="#D55E00" stroke-width="1.6" fill="white"/></g><g><title>C1 CDD step=2</title><rect x="323.48" y="200.01" width="7.6" height="7.6" stroke="#D55E00" stroke-width="1.6" fill="white"/></g><g><title>C1 CDD step=2</title><rect x="375.91" y="226.63" width="7.6" height="7.6" stroke="#D55E00" stroke-width="1.6" fill="white"/></g><g><title>C1 CDD step=2</title><rect x="428.34" y="252.54" width="7.6" height="7.6" stroke="#D55E00" stroke-width="1.6" fill="white"/></g><g><title>C1 CDD step=2</title><rect x="533.20" y="305.49" width="7.6" height="7.6" stroke="#D55E00" stroke-width="1.6" fill="white"/></g><g><title>C1 CDD step=2</title><rect x="638.06" y="358.83" width="7.6" height="7.6" stroke="#D55E00" stroke-width="1.6" fill="white"/></g><g><title>C1 CDD step=2</title><rect x="742.92" y="535.25" width="7.6" height="7.6" stroke="#D55E00" stroke-width="1.6" fill="white"/></g><g><title>C1 CDD step=2</title><rect x="847.78" y="594.06" width="7.6" height="7.6" stroke="#D55E00" stroke-width="1.6" fill="white"/></g><g><title>C1 CDD step=2</title><rect x="952.64" y="594.06" width="7.6" height="7.6" stroke="#D55E00" stroke-width="1.6" fill="white"/></g><polyline points="117.56,102.81 222.42,152.68 274.85,182.31 327.28,203.81 379.71,230.43 432.14,256.34 537.00,309.29 641.86,362.63 746.72,539.05 851.58,597.86 956.44,597.86" fill="none" stroke="#D55E00" stroke-width="2.1" stroke-dasharray="5 3"/><g><title>C2 CDD step=3</title><polygon points="117.56,95.29 113.26,103.49 121.86,103.49" stroke="#009E73" stroke-width="1.6" fill="white"/></g><g><title>C2 CDD step=3</title><polygon points="222.42,151.73 218.12,159.93 226.72,159.93" stroke="#009E73" stroke-width="1.6" fill="white"/></g><g><title>C2 CDD step=3</title><polygon points="274.85,189.95 270.55,198.15 279.15,198.15" stroke="#009E73" stroke-width="1.6" fill="white"/></g><g><title>C2 CDD step=3</title><polygon points="327.28,219.38 322.98,227.58 331.58,227.58" stroke="#009E73" stroke-width="1.6" fill="white"/></g><g><title>C2 CDD step=3</title><polygon points="379.71,261.35 375.41,269.55 384.01,269.55" stroke="#009E73" stroke-width="1.6" fill="white"/></g><g><title>C2 CDD step=3</title><polygon points="432.14,304.69 427.84,312.89 436.44,312.89" stroke="#009E73" stroke-width="1.6" fill="white"/></g><g><title>C2 CDD step=3</title><polygon points="537.00,358.03 532.70,366.23 541.30,366.23" stroke="#009E73" stroke-width="1.6" fill="white"/></g><g><title>C2 CDD step=3</title><polygon points="641.86,475.64 637.56,483.84 646.16,483.84" stroke="#009E73" stroke-width="1.6" fill="white"/></g><g><title>C2 CDD step=3</title><polygon points="746.72,593.26 742.42,601.46 751.02,601.46" stroke="#009E73" stroke-width="1.6" fill="white"/></g><g><title>C2 CDD step=3</title><polygon points="851.58,593.26 847.28,601.46 855.88,601.46" stroke="#009E73" stroke-width="1.6" fill="white"/></g><g><title>C2 CDD step=3</title><polygon points="956.44,593.26 952.14,601.46 960.74,601.46" stroke="#009E73" stroke-width="1.6" fill="white"/></g><polyline points="117.56,99.89 222.42,156.33 274.85,194.55 327.28,223.98 379.71,265.95 432.14,309.29 537.00,362.63 641.86,480.24 746.72,597.86 851.58,597.86 956.44,597.86" fill="none" stroke="#009E73" stroke-width="2.1" stroke-dasharray="5 3"/><g><title>C3 CDD step=4</title><polygon points="117.56,99.31 113.06,103.81 117.56,108.31 122.06,103.81" stroke="#CC79A7" stroke-width="1.6" fill="white"/></g><g><title>C3 CDD step=4</title><polygon points="222.42,166.01 217.92,170.51 222.42,175.01 226.92,170.51" stroke="#CC79A7" stroke-width="1.6" fill="white"/></g><g><title>C3 CDD step=4</title><polygon points="274.85,211.58 270.35,216.08 274.85,220.58 279.35,216.08" stroke="#CC79A7" stroke-width="1.6" fill="white"/></g><g><title>C3 CDD step=4</title><polygon points="327.28,258.12 322.78,262.62 327.28,267.12 331.78,262.62" stroke="#CC79A7" stroke-width="1.6" fill="white"/></g><g><title>C3 CDD step=4</title><polygon points="379.71,304.79 375.21,309.29 379.71,313.79 384.21,309.29" stroke="#CC79A7" stroke-width="1.6" fill="white"/></g><g><title>C3 CDD step=4</title><polygon points="432.14,339.19 427.64,343.69 432.14,348.19 436.64,343.69" stroke="#CC79A7" stroke-width="1.6" fill="white"/></g><g><title>C3 CDD step=4</title><polygon points="537.00,441.34 532.50,445.84 537.00,450.34 541.50,445.84" stroke="#CC79A7" stroke-width="1.6" fill="white"/></g><g><title>C3 CDD step=4</title><polygon points="641.86,593.36 637.36,597.86 641.86,602.36 646.36,597.86" stroke="#CC79A7" stroke-width="1.6" fill="white"/></g><g><title>C3 CDD step=4</title><polygon points="746.72,593.36 742.22,597.86 746.72,602.36 751.22,597.86" stroke="#CC79A7" stroke-width="1.6" fill="white"/></g><polyline points="117.56,103.81 222.42,170.51 274.85,216.08 327.28,262.62 379.71,309.29 432.14,343.69 537.00,445.84 641.86,597.86 746.72,597.86" fill="none" stroke="#CC79A7" stroke-width="2.1" stroke-dasharray="5 3"/><g><title>C4 CDD step=5</title><polygon points="113.26,99.71 121.86,99.71 117.56,107.91" stroke="#E69F00" stroke-width="1.6" fill="white"/></g><g><title>C4 CDD step=5</title><polygon points="218.12,181.28 226.72,181.28 222.42,189.48" stroke="#E69F00" stroke-width="1.6" fill="white"/></g><g><title>C4 CDD step=5</title><polygon points="270.55,220.38 279.15,220.38 274.85,228.58" stroke="#E69F00" stroke-width="1.6" fill="white"/></g><g><title>C4 CDD step=5</title><polygon points="322.98,300.22 331.58,300.22 327.28,308.42" stroke="#E69F00" stroke-width="1.6" fill="white"/></g><g><title>C4 CDD step=5</title><polygon points="375.41,349.03 384.01,349.03 379.71,357.23" stroke="#E69F00" stroke-width="1.6" fill="white"/></g><g><title>C4 CDD step=5</title><polygon points="427.84,417.83 436.44,417.83 432.14,426.03" stroke="#E69F00" stroke-width="1.6" fill="white"/></g><g><title>C4 CDD step=5</title><polygon points="532.70,535.45 541.30,535.45 537.00,543.65" stroke="#E69F00" stroke-width="1.6" fill="white"/></g><g><title>C4 CDD step=5</title><polygon points="637.56,594.26 646.16,594.26 641.86,602.46" stroke="#E69F00" stroke-width="1.6" fill="white"/></g><g><title>C4 CDD step=5</title><polygon points="742.42,594.26 751.02,594.26 746.72,602.46" stroke="#E69F00" stroke-width="1.6" fill="white"/></g><polyline points="117.56,103.31 222.42,184.88 274.85,223.98 327.28,303.82 379.71,352.63 432.14,421.43 537.00,539.05 641.86,597.86 746.72,597.86" fill="none" stroke="#E69F00" stroke-width="2.1" stroke-dasharray="5 3"/><g><title>C5 CDD step=6</title><path d="M 113.56 106.36 H 121.56 M 117.56 102.36 V 110.36" stroke="#56B4E9" stroke-width="2" fill="none"/></g><g><title>C5 CDD step=6</title><path d="M 218.42 194.55 H 226.42 M 222.42 190.55 V 198.55" stroke="#56B4E9" stroke-width="2" fill="none"/></g><g><title>C5 CDD step=6</title><path d="M 270.85 239.86 H 278.85 M 274.85 235.86 V 243.86" stroke="#56B4E9" stroke-width="2" fill="none"/></g><g><title>C5 CDD step=6</title><path d="M 323.28 328.22 H 331.28 M 327.28 324.22 V 332.22" stroke="#56B4E9" stroke-width="2" fill="none"/></g><g><title>C5 CDD step=6</title><path d="M 375.71 387.03 H 383.71 M 379.71 383.03 V 391.03" stroke="#56B4E9" stroke-width="2" fill="none"/></g><g><title>C5 CDD step=6</title><path d="M 428.14 421.43 H 436.14 M 432.14 417.43 V 425.43" stroke="#56B4E9" stroke-width="2" fill="none"/></g><g><title>C5 CDD step=6</title><path d="M 533.00 539.05 H 541.00 M 537.00 535.05 V 543.05" stroke="#56B4E9" stroke-width="2" fill="none"/></g><g><title>C5 CDD step=6</title><path d="M 637.86 597.86 H 645.86 M 641.86 593.86 V 601.86" stroke="#56B4E9" stroke-width="2" fill="none"/></g><g><title>C5 CDD step=6</title><path d="M 742.72 597.86 H 750.72 M 746.72 593.86 V 601.86" stroke="#56B4E9" stroke-width="2" fill="none"/></g><polyline points="117.56,106.36 222.42,194.55 274.85,239.86 327.28,328.22 379.71,387.03 432.14,421.43 537.00,539.05 641.86,597.86 746.72,597.86" fill="none" stroke="#56B4E9" stroke-width="2.1" stroke-dasharray="5 3"/><g><title>C6 CDD step=7</title><path d="M 114.06 107.10 L 121.06 114.10 M 121.06 107.10 L 114.06 114.10" stroke="#6F4E7C" stroke-width="2" fill="none"/></g><g><title>C6 CDD step=7</title><path d="M 218.92 205.36 L 225.92 212.36 M 225.92 205.36 L 218.92 212.36" stroke="#6F4E7C" stroke-width="2" fill="none"/></g><g><title>C6 CDD step=7</title><path d="M 271.35 255.92 L 278.35 262.92 M 278.35 255.92 L 271.35 262.92" stroke="#6F4E7C" stroke-width="2" fill="none"/></g><g><title>C6 CDD step=7</title><path d="M 323.78 340.19 L 330.78 347.19 M 330.78 340.19 L 323.78 347.19" stroke="#6F4E7C" stroke-width="2" fill="none"/></g><g><title>C6 CDD step=7</title><path d="M 376.21 442.34 L 383.21 449.34 M 383.21 442.34 L 376.21 449.34" stroke="#6F4E7C" stroke-width="2" fill="none"/></g><g><title>C6 CDD step=7</title><path d="M 428.64 535.55 L 435.64 542.55 M 435.64 535.55 L 428.64 542.55" stroke="#6F4E7C" stroke-width="2" fill="none"/></g><g><title>C6 CDD step=7</title><path d="M 533.50 594.36 L 540.50 601.36 M 540.50 594.36 L 533.50 601.36" stroke="#6F4E7C" stroke-width="2" fill="none"/></g><g><title>C6 CDD step=7</title><path d="M 638.36 594.36 L 645.36 601.36 M 645.36 594.36 L 638.36 601.36" stroke="#6F4E7C" stroke-width="2" fill="none"/></g><g><title>C6 CDD step=7</title><path d="M 743.22 594.36 L 750.22 601.36 M 750.22 594.36 L 743.22 601.36" stroke="#6F4E7C" stroke-width="2" fill="none"/></g><polyline points="117.56,110.60 222.42,208.86 274.85,259.42 327.28,343.69 379.71,445.84 432.14,539.05 537.00,597.86 641.86,597.86 746.72,597.86" fill="none" stroke="#6F4E7C" stroke-width="2.1" stroke-dasharray="5 3"/><g><title>C7 CDD step=64</title><polygon points="113.36,109.52 115.46,105.82 119.66,105.82 121.76,109.52 119.66,113.22 115.46,113.22" stroke="#222222" stroke-width="1.6" fill="white"/></g><g><title>C7 CDD step=64</title><polygon points="218.22,239.86 220.32,236.16 224.52,236.16 226.62,239.86 224.52,243.56 220.32,243.56" stroke="#222222" stroke-width="1.6" fill="white"/></g><g><title>C7 CDD step=64</title><polygon points="270.65,303.82 272.75,300.12 276.95,300.12 279.05,303.82 276.95,307.52 272.75,307.52" stroke="#222222" stroke-width="1.6" fill="white"/></g><g><title>C7 CDD step=64</title><polygon points="323.08,402.50 325.18,398.80 329.38,398.80 331.48,402.50 329.38,406.20 325.18,406.20" stroke="#222222" stroke-width="1.6" fill="white"/></g><g><title>C7 CDD step=64</title><polygon points="375.51,539.05 377.61,535.35 381.81,535.35 383.91,539.05 381.81,542.75 377.61,542.75" stroke="#222222" stroke-width="1.6" fill="white"/></g><g><title>C7 CDD step=64</title><polygon points="427.94,597.86 430.04,594.16 434.24,594.16 436.34,597.86 434.24,601.56 430.04,601.56" stroke="#222222" stroke-width="1.6" fill="white"/></g><polyline points="117.56,109.52 222.42,239.86 274.85,303.82 327.28,402.50 379.71,539.05 432.14,597.86" fill="none" stroke="#222222" stroke-width="2.1" stroke-dasharray="5 3"/><g><title>N3 NS-A0503-M1_2_3_64-LR00-S537649365</title><circle cx="117.56" cy="96.14" r="4" stroke="#A0006D" stroke-width="1.6" fill="#A0006D"/></g><g><title>N3 NS-A0503-M1_2_3_64-LR00-S537649365</title><circle cx="222.42" cy="175.03" r="4" stroke="#A0006D" stroke-width="1.6" fill="#A0006D"/></g><g><title>N3 NS-A0503-M1_2_3_64-LR00-S537649365</title><circle cx="274.85" cy="250.48" r="4" stroke="#A0006D" stroke-width="1.6" fill="#A0006D"/></g><g><title>N3 NS-A0503-M1_2_3_64-LR00-S537649365</title><circle cx="327.28" cy="343.69" r="4" stroke="#A0006D" stroke-width="1.6" fill="#A0006D"/></g><g><title>N3 NS-A0503-M1_2_3_64-LR00-S537649365</title><circle cx="379.71" cy="421.43" r="4" stroke="#A0006D" stroke-width="1.6" fill="#A0006D"/></g><g><title>N3 NS-A0503-M1_2_3_64-LR00-S537649365</title><circle cx="432.14" cy="597.86" r="4" stroke="#A0006D" stroke-width="1.6" fill="#A0006D"/></g><g><title>N3 NS-A0503-M1_2_3_64-LR00-S537649365</title><circle cx="537.00" cy="597.86" r="4" stroke="#A0006D" stroke-width="1.6" fill="#A0006D"/></g><g><title>N3 NS-A0503-M1_2_3_64-LR00-S537649365</title><circle cx="641.86" cy="597.86" r="4" stroke="#A0006D" stroke-width="1.6" fill="#A0006D"/></g><g><title>N3 NS-A0503-M1_2_3_64-LR00-S537649365</title><circle cx="746.72" cy="597.86" r="4" stroke="#A0006D" stroke-width="1.6" fill="#A0006D"/></g><g><title>N3 NS-A0503-M1_2_3_64-LR00-S537649365</title><circle cx="851.58" cy="597.86" r="4" stroke="#A0006D" stroke-width="1.6" fill="#A0006D"/></g><g><title>N3 NS-A0503-M1_2_3_64-LR00-S537649365</title><circle cx="956.44" cy="597.86" r="4" stroke="#A0006D" stroke-width="1.6" fill="#A0006D"/></g><polyline points="117.56,96.14 222.42,175.03 274.85,250.48 327.28,343.69 379.71,421.43 432.14,597.86 537.00,597.86 641.86,597.86 746.72,597.86 851.58,597.86 956.44,597.86" fill="none" stroke="#A0006D" stroke-width="2.1"/><g><title>N6 NS-A0501-M1_3_4_64-LR00-S537649103</title><rect x="113.76" y="99.01" width="7.6" height="7.6" stroke="#7A3E00" stroke-width="1.6" fill="#7A3E00"/></g><g><title>N6 NS-A0501-M1_3_4_64-LR00-S537649103</title><rect x="218.62" y="174.79" width="7.6" height="7.6" stroke="#7A3E00" stroke-width="1.6" fill="#7A3E00"/></g><g><title>N6 NS-A0501-M1_3_4_64-LR00-S537649103</title><rect x="271.05" y="231.21" width="7.6" height="7.6" stroke="#7A3E00" stroke-width="1.6" fill="#7A3E00"/></g><g><title>N6 NS-A0501-M1_3_4_64-LR00-S537649103</title><rect x="323.48" y="305.49" width="7.6" height="7.6" stroke="#7A3E00" stroke-width="1.6" fill="#7A3E00"/></g><g><title>N6 NS-A0501-M1_3_4_64-LR00-S537649103</title><rect x="375.91" y="442.04" width="7.6" height="7.6" stroke="#7A3E00" stroke-width="1.6" fill="#7A3E00"/></g><g><title>N6 NS-A0501-M1_3_4_64-LR00-S537649103</title><rect x="428.34" y="594.06" width="7.6" height="7.6" stroke="#7A3E00" stroke-width="1.6" fill="#7A3E00"/></g><g><title>N6 NS-A0501-M1_3_4_64-LR00-S537649103</title><rect x="533.20" y="594.06" width="7.6" height="7.6" stroke="#7A3E00" stroke-width="1.6" fill="#7A3E00"/></g><g><title>N6 NS-A0501-M1_3_4_64-LR00-S537649103</title><rect x="638.06" y="594.06" width="7.6" height="7.6" stroke="#7A3E00" stroke-width="1.6" fill="#7A3E00"/></g><g><title>N6 NS-A0501-M1_3_4_64-LR00-S537649103</title><rect x="742.92" y="594.06" width="7.6" height="7.6" stroke="#7A3E00" stroke-width="1.6" fill="#7A3E00"/></g><g><title>N6 NS-A0501-M1_3_4_64-LR00-S537649103</title><rect x="847.78" y="594.06" width="7.6" height="7.6" stroke="#7A3E00" stroke-width="1.6" fill="#7A3E00"/></g><g><title>N6 NS-A0501-M1_3_4_64-LR00-S537649103</title><rect x="952.64" y="594.06" width="7.6" height="7.6" stroke="#7A3E00" stroke-width="1.6" fill="#7A3E00"/></g><polyline points="117.56,102.81 222.42,178.59 274.85,235.01 327.28,309.29 379.71,445.84 432.14,597.86 537.00,597.86 641.86,597.86 746.72,597.86 851.58,597.86 956.44,597.86" fill="none" stroke="#7A3E00" stroke-width="2.1"/><g><title>N8 NS-A0494-M3_4_6_64-LR00-S535555854</title><polygon points="117.56,108.77 113.26,116.97 121.86,116.97" stroke="#117733" stroke-width="1.6" fill="#117733"/></g><g><title>N8 NS-A0494-M3_4_6_64-LR00-S535555854</title><polygon points="222.42,209.62 218.12,217.82 226.72,217.82" stroke="#117733" stroke-width="1.6" fill="#117733"/></g><g><title>N8 NS-A0494-M3_4_6_64-LR00-S535555854</title><polygon points="274.85,276.14 270.55,284.34 279.15,284.34" stroke="#117733" stroke-width="1.6" fill="#117733"/></g><g><title>N8 NS-A0494-M3_4_6_64-LR00-S535555854</title><polygon points="327.28,358.03 322.98,366.23 331.58,366.23" stroke="#117733" stroke-width="1.6" fill="#117733"/></g><g><title>N8 NS-A0494-M3_4_6_64-LR00-S535555854</title><polygon points="379.71,416.83 375.41,425.03 384.01,425.03" stroke="#117733" stroke-width="1.6" fill="#117733"/></g><g><title>N8 NS-A0494-M3_4_6_64-LR00-S535555854</title><polygon points="432.14,475.64 427.84,483.84 436.44,483.84" stroke="#117733" stroke-width="1.6" fill="#117733"/></g><g><title>N8 NS-A0494-M3_4_6_64-LR00-S535555854</title><polygon points="537.00,593.26 532.70,601.46 541.30,601.46" stroke="#117733" stroke-width="1.6" fill="#117733"/></g><g><title>N8 NS-A0494-M3_4_6_64-LR00-S535555854</title><polygon points="641.86,593.26 637.56,601.46 646.16,601.46" stroke="#117733" stroke-width="1.6" fill="#117733"/></g><g><title>N8 NS-A0494-M3_4_6_64-LR00-S535555854</title><polygon points="746.72,593.26 742.42,601.46 751.02,601.46" stroke="#117733" stroke-width="1.6" fill="#117733"/></g><g><title>N8 NS-A0494-M3_4_6_64-LR00-S535555854</title><polygon points="851.58,593.26 847.28,601.46 855.88,601.46" stroke="#117733" stroke-width="1.6" fill="#117733"/></g><g><title>N8 NS-A0494-M3_4_6_64-LR00-S535555854</title><polygon points="956.44,593.26 952.14,601.46 960.74,601.46" stroke="#117733" stroke-width="1.6" fill="#117733"/></g><polyline points="117.56,113.37 222.42,214.22 274.85,280.74 327.28,362.63 379.71,421.43 432.14,480.24 537.00,597.86 641.86,597.86 746.72,597.86 851.58,597.86 956.44,597.86" fill="none" stroke="#117733" stroke-width="2.1"/><g><title>N23 NS-A0330-M1_4_6_48-LC</title><polygon points="117.56,101.34 113.06,105.84 117.56,110.34 122.06,105.84" stroke="#332288" stroke-width="1.6" fill="#332288"/></g><g><title>N23 NS-A0330-M1_4_6_48-LC</title><polygon points="222.42,199.31 217.92,203.81 222.42,208.31 226.92,203.81" stroke="#332288" stroke-width="1.6" fill="#332288"/></g><g><title>N23 NS-A0330-M1_4_6_48-LC</title><polygon points="274.85,258.12 270.35,262.62 274.85,267.12 279.35,262.62" stroke="#332288" stroke-width="1.6" fill="#332288"/></g><g><title>N23 NS-A0330-M1_4_6_48-LC</title><polygon points="327.28,339.19 322.78,343.69 327.28,348.19 331.78,343.69" stroke="#332288" stroke-width="1.6" fill="#332288"/></g><g><title>N23 NS-A0330-M1_4_6_48-LC</title><polygon points="379.71,398.00 375.21,402.50 379.71,407.00 384.21,402.50" stroke="#332288" stroke-width="1.6" fill="#332288"/></g><g><title>N23 NS-A0330-M1_4_6_48-LC</title><polygon points="432.14,593.36 427.64,597.86 432.14,602.36 436.64,597.86" stroke="#332288" stroke-width="1.6" fill="#332288"/></g><g><title>N23 NS-A0330-M1_4_6_48-LC</title><polygon points="537.00,593.36 532.50,597.86 537.00,602.36 541.50,597.86" stroke="#332288" stroke-width="1.6" fill="#332288"/></g><g><title>N23 NS-A0330-M1_4_6_48-LC</title><polygon points="641.86,593.36 637.36,597.86 641.86,602.36 646.36,597.86" stroke="#332288" stroke-width="1.6" fill="#332288"/></g><g><title>N23 NS-A0330-M1_4_6_48-LC</title><polygon points="746.72,593.36 742.22,597.86 746.72,602.36 751.22,597.86" stroke="#332288" stroke-width="1.6" fill="#332288"/></g><g><title>N23 NS-A0330-M1_4_6_48-LC</title><polygon points="851.58,593.36 847.08,597.86 851.58,602.36 856.08,597.86" stroke="#332288" stroke-width="1.6" fill="#332288"/></g><g><title>N23 NS-A0330-M1_4_6_48-LC</title><polygon points="956.44,593.36 951.94,597.86 956.44,602.36 960.94,597.86" stroke="#332288" stroke-width="1.6" fill="#332288"/></g><polyline points="117.56,105.84 222.42,203.81 274.85,262.62 327.28,343.69 379.71,402.50 432.14,597.86 537.00,597.86 641.86,597.86 746.72,597.86 851.58,597.86 956.44,597.86" fill="none" stroke="#332288" stroke-width="2.1"/><line x1="274.85" y1="303.82" x2="320.86" y2="301.16" stroke="#222222" stroke-width="1.2"/><polygon points="326.85,300.82 321.03,304.16 320.68,298.17" fill="#222222"/><text x="332.85" y="303.82" font-size="11" fill="#222222" font-weight="700" paint-order="stroke" stroke="white" stroke-width="3">C7</text><line x1="537.00" y1="309.29" x2="583.05" y2="315.07" stroke="#D55E00" stroke-width="1.2"/><polygon points="589.00,315.82 582.67,318.05 583.42,312.09" fill="#D55E00"/><text x="595.00" y="318.82" font-size="11" fill="#D55E00" font-weight="700" paint-order="stroke" stroke="white" stroke-width="3">C1</text><line x1="432.14" y1="309.29" x2="478.60" y2="328.52" stroke="#009E73" stroke-width="1.2"/><polygon points="484.14,330.82 477.45,331.29 479.74,325.75" fill="#009E73"/><text x="490.14" y="333.82" font-size="11" fill="#009E73" font-weight="700" paint-order="stroke" stroke="white" stroke-width="3">C2</text><line x1="327.28" y1="309.29" x2="374.37" y2="342.37" stroke="#7A3E00" stroke-width="1.2"/><polygon points="379.28,345.82 372.64,344.82 376.09,339.91" fill="#7A3E00"/><text x="385.28" y="348.82" font-size="11" fill="#7A3E00" font-weight="700" paint-order="stroke" stroke="white" stroke-width="3">N6</text><line x1="327.28" y1="328.22" x2="374.19" y2="357.63" stroke="#56B4E9" stroke-width="1.2"/><polygon points="379.28,360.82 372.60,360.17 375.79,355.09" fill="#56B4E9"/><text x="385.28" y="363.82" font-size="11" fill="#56B4E9" font-weight="700" paint-order="stroke" stroke="white" stroke-width="3">C5</text><line x1="432.14" y1="343.69" x2="479.03" y2="372.66" stroke="#CC79A7" stroke-width="1.2"/><polygon points="484.14,375.82 477.46,375.21 480.61,370.11" fill="#CC79A7"/><text x="490.14" y="378.82" font-size="11" fill="#CC79A7" font-weight="700" paint-order="stroke" stroke="white" stroke-width="3">C3</text><line x1="327.28" y1="343.69" x2="374.83" y2="386.79" stroke="#6F4E7C" stroke-width="1.2"/><polygon points="379.28,390.82 372.82,389.01 376.85,384.56" fill="#6F4E7C"/><text x="385.28" y="393.82" font-size="11" fill="#6F4E7C" font-weight="700" paint-order="stroke" stroke="white" stroke-width="3">C6</text><line x1="327.28" y1="343.69" x2="375.43" y2="401.21" stroke="#A0006D" stroke-width="1.2"/><polygon points="379.28,405.82 373.13,403.14 377.73,399.29" fill="#A0006D"/><text x="385.28" y="408.82" font-size="11" fill="#A0006D" font-weight="700" paint-order="stroke" stroke="white" stroke-width="3">N3</text><line x1="327.28" y1="343.69" x2="375.92" y2="415.84" stroke="#332288" stroke-width="1.2"/><polygon points="379.28,420.82 373.44,417.52 378.41,414.16" fill="#332288"/><text x="385.28" y="423.82" font-size="11" fill="#332288" font-weight="700" paint-order="stroke" stroke="white" stroke-width="3">N23</text><line x1="641.86" y1="352.63" x2="690.68" y2="430.73" stroke="#0072B2" stroke-width="1.2"/><polygon points="693.86,435.82 688.14,432.32 693.22,429.14" fill="#0072B2"/><text x="699.86" y="438.82" font-size="11" fill="#0072B2" font-weight="700" paint-order="stroke" stroke="white" stroke-width="3">C0</text><line x1="379.71" y1="352.63" x2="428.90" y2="445.51" stroke="#E69F00" stroke-width="1.2"/><polygon points="431.71,450.82 426.25,446.92 431.55,444.11" fill="#E69F00"/><text x="437.71" y="453.82" font-size="11" fill="#E69F00" font-weight="700" paint-order="stroke" stroke="white" stroke-width="3">C4</text><line x1="327.28" y1="362.63" x2="376.58" y2="460.46" stroke="#117733" stroke-width="1.2"/><polygon points="379.28,465.82 373.90,461.81 379.26,459.11" fill="#117733"/><text x="385.28" y="468.82" font-size="11" fill="#117733" font-weight="700" paint-order="stroke" stroke="white" stroke-width="3">N8</text>
<line x1="1016" y1="74.00" x2="1034" y2="74.00" stroke="#0072B2" stroke-width="2" stroke-dasharray="5 3"/><g><title>C0</title><circle cx="1025.00" cy="74.00" r="4" stroke="#0072B2" stroke-width="1.6" fill="white"/></g><text x="1040" y="78.00" font-size="11">C0</text><line x1="1016" y1="92.00" x2="1034" y2="92.00" stroke="#D55E00" stroke-width="2" stroke-dasharray="5 3"/><g><title>C1</title><rect x="1021.20" y="88.20" width="7.6" height="7.6" stroke="#D55E00" stroke-width="1.6" fill="white"/></g><text x="1040" y="96.00" font-size="11">C1</text><line x1="1016" y1="110.00" x2="1034" y2="110.00" stroke="#009E73" stroke-width="2" stroke-dasharray="5 3"/><g><title>C2</title><polygon points="1025.00,105.40 1020.70,113.60 1029.30,113.60" stroke="#009E73" stroke-width="1.6" fill="white"/></g><text x="1040" y="114.00" font-size="11">C2</text><line x1="1016" y1="128.00" x2="1034" y2="128.00" stroke="#CC79A7" stroke-width="2" stroke-dasharray="5 3"/><g><title>C3</title><polygon points="1025.00,123.50 1020.50,128.00 1025.00,132.50 1029.50,128.00" stroke="#CC79A7" stroke-width="1.6" fill="white"/></g><text x="1040" y="132.00" font-size="11">C3</text><line x1="1016" y1="146.00" x2="1034" y2="146.00" stroke="#E69F00" stroke-width="2" stroke-dasharray="5 3"/><g><title>C4</title><polygon points="1020.70,142.40 1029.30,142.40 1025.00,150.60" stroke="#E69F00" stroke-width="1.6" fill="white"/></g><text x="1040" y="150.00" font-size="11">C4</text><line x1="1016" y1="164.00" x2="1034" y2="164.00" stroke="#56B4E9" stroke-width="2" stroke-dasharray="5 3"/><g><title>C5</title><path d="M 1021.00 164.00 H 1029.00 M 1025.00 160.00 V 168.00" stroke="#56B4E9" stroke-width="2" fill="none"/></g><text x="1040" y="168.00" font-size="11">C5</text><line x1="1016" y1="182.00" x2="1034" y2="182.00" stroke="#6F4E7C" stroke-width="2" stroke-dasharray="5 3"/><g><title>C6</title><path d="M 1021.50 178.50 L 1028.50 185.50 M 1028.50 178.50 L 1021.50 185.50" stroke="#6F4E7C" stroke-width="2" fill="none"/></g><text x="1040" y="186.00" font-size="11">C6</text><line x1="1016" y1="200.00" x2="1034" y2="200.00" stroke="#222222" stroke-width="2" stroke-dasharray="5 3"/><g><title>C7</title><polygon points="1020.80,200.00 1022.90,196.30 1027.10,196.30 1029.20,200.00 1027.10,203.70 1022.90,203.70" stroke="#222222" stroke-width="1.6" fill="white"/></g><text x="1040" y="204.00" font-size="11">C7</text><line x1="1016" y1="218.00" x2="1034" y2="218.00" stroke="#A0006D" stroke-width="2"/><g><title>N3</title><circle cx="1025.00" cy="218.00" r="4" stroke="#A0006D" stroke-width="1.6" fill="#A0006D"/></g><text x="1040" y="222.00" font-size="11">N3</text><line x1="1016" y1="236.00" x2="1034" y2="236.00" stroke="#7A3E00" stroke-width="2"/><g><title>N6</title><rect x="1021.20" y="232.20" width="7.6" height="7.6" stroke="#7A3E00" stroke-width="1.6" fill="#7A3E00"/></g><text x="1040" y="240.00" font-size="11">N6</text><line x1="1016" y1="254.00" x2="1034" y2="254.00" stroke="#117733" stroke-width="2"/><g><title>N8</title><polygon points="1025.00,249.40 1020.70,257.60 1029.30,257.60" stroke="#117733" stroke-width="1.6" fill="#117733"/></g><text x="1040" y="258.00" font-size="11">N8</text><line x1="1016" y1="272.00" x2="1034" y2="272.00" stroke="#332288" stroke-width="2"/><g><title>N23</title><polygon points="1025.00,267.50 1020.50,272.00 1025.00,276.50 1029.50,272.00" stroke="#332288" stroke-width="1.6" fill="#332288"/></g><text x="1040" y="276.00" font-size="11">N23</text>
<text x="537.0" y="694" text-anchor="middle" font-size="14">SNR (dB)</text>
<text x="22" y="347.0" text-anchor="middle" font-size="14" transform="rotate(-90 22 347.0)">BLER</text>
<text x="1016" y="692" font-size="11" fill="#555">dashed: CDD, solid: piecewise</text>
</svg>
