<svg xmlns="http://www.w3.org/2000/svg" width="1240" height="720" viewBox="0 0 1240 720">
<rect width="100%" height="100%" fill="white"/>
<text x="620.0" y="30" text-anchor="middle" font-size="18" font-family="Arial, sans-serif">All Pareto BLER</text>
<line x1="84" y1="638" x2="990" y2="638" stroke="#333" stroke-width="1.2"/>
<line x1="84" y1="56" x2="84" y2="638" stroke="#333" stroke-width="1.2"/>
<line x1="84.00" y1="56" x2="84.00" y2="638" stroke="#e6e8eb"/><text x="84.00" y="662" font-size="12" text-anchor="middle">9.6</text><line x1="265.20" y1="56" x2="265.20" y2="638" stroke="#e6e8eb"/><text x="265.20" y="662" font-size="12" text-anchor="middle">11.8</text><line x1="446.40" y1="56" x2="446.40" y2="638" stroke="#e6e8eb"/><text x="446.40" y="662" font-size="12" text-anchor="middle">13.9</text><line x1="627.60" y1="56" x2="627.60" y2="638" stroke="#e6e8eb"/><text x="627.60" y="662" font-size="12" text-anchor="middle">16.1</text><line x1="808.80" y1="56" x2="808.80" y2="638" stroke="#e6e8eb"/><text x="808.80" y="662" font-size="12" text-anchor="middle">18.2</text><line x1="990.00" y1="56" x2="990.00" y2="638" stroke="#e6e8eb"/><text x="990.00" y="662" font-size="12" text-anchor="middle">20.4</text><line x1="84" y1="638.00" x2="990" y2="638.00" stroke="#e6e8eb"/><text x="76" y="642.00" font-size="12" text-anchor="end">0.00327</text><line x1="84" y1="521.60" x2="990" y2="521.60" stroke="#e6e8eb"/><text x="76" y="525.60" font-size="12" text-anchor="end">0.0112</text><line x1="84" y1="405.20" x2="990" y2="405.20" stroke="#e6e8eb"/><text x="76" y="409.20" font-size="12" text-anchor="end">0.0382</text><line x1="84" y1="288.80" x2="990" y2="288.80" stroke="#e6e8eb"/><text x="76" y="292.80" font-size="12" text-anchor="end">0.131</text><line x1="84" y1="172.40" x2="990" y2="172.40" stroke="#e6e8eb"/><text x="76" y="176.40" font-size="12" text-anchor="end">0.446</text><line x1="84" y1="56.00" x2="990" y2="56.00" stroke="#e6e8eb"/><text x="76" y="60.00" font-size="12" text-anchor="end">1.52</text>
<line x1="84" y1="314.05" x2="990" y2="314.05" stroke="#111" stroke-width="1" stroke-dasharray="5 4"/><text x="998" y="318.05" font-size="11" fill="#111">0.1</text><line x1="84" y1="532.19" x2="990" y2="532.19" stroke="#111" stroke-width="1" stroke-dasharray="5 4"/><text x="998" y="536.19" font-size="11" fill="#111">0.01</text><circle cx="117.56" cy="114.99" r="3.2" fill="#0b3c5d"><title>C1 CDD step=2</title></circle><circle cx="285.33" cy="134.55" r="3.2" fill="#0b3c5d"><title>C1 CDD step=2</title></circle><circle cx="453.11" cy="185.72" r="3.2" fill="#0b3c5d"><title>C1 CDD step=2</title></circle><circle cx="537.00" cy="214.00" r="3.2" fill="#0b3c5d"><title>C1 CDD step=2</title></circle><circle cx="620.89" cy="221.72" r="3.2" fill="#0b3c5d"><title>C1 CDD step=2</title></circle><circle cx="704.78" cy="282.17" r="3.2" fill="#0b3c5d"><title>C1 CDD step=2</title></circle><circle cx="788.67" cy="311.71" r="3.2" fill="#0b3c5d"><title>C1 CDD step=2</title></circle><circle cx="956.44" cy="389.70" r="3.2" fill="#0b3c5d"><title>C1 CDD step=2</title></circle><polyline points="117.56,114.99 285.33,134.55 453.11,185.72 537.00,214.00 620.89,221.72 704.78,282.17 788.67,311.71 956.44,389.70" fill="none" stroke="#0b3c5d" stroke-width="1.7" stroke-dasharray="5 3"/><text x="961.44" y="393.70" font-size="10" fill="#0b3c5d" font-weight="700">C1</text><circle cx="117.56" cy="106.15" r="3.2" fill="#1d5f8a"><title>C2 CDD step=3</title></circle><circle cx="285.33" cy="130.03" r="3.2" fill="#1d5f8a"><title>C2 CDD step=3</title></circle><circle cx="453.11" cy="188.82" r="3.2" fill="#1d5f8a"><title>C2 CDD step=3</title></circle><circle cx="537.00" cy="218.21" r="3.2" fill="#1d5f8a"><title>C2 CDD step=3</title></circle><circle cx="620.89" cy="238.28" r="3.2" fill="#1d5f8a"><title>C2 CDD step=3</title></circle><circle cx="704.78" cy="291.03" r="3.2" fill="#1d5f8a"><title>C2 CDD step=3</title></circle><circle cx="788.67" cy="326.70" r="3.2" fill="#1d5f8a"><title>C2 CDD step=3</title></circle><circle cx="956.44" cy="400.86" r="3.2" fill="#1d5f8a"><title>C2 CDD step=3</title></circle><polyline points="117.56,106.15 285.33,130.03 453.11,188.82 537.00,218.21 620.89,238.28 704.78,291.03 788.67,326.70 956.44,400.86" fill="none" stroke="#1d5f8a" stroke-width="1.7" stroke-dasharray="5 3"/><text x="961.44" y="404.86" font-size="10" fill="#1d5f8a" font-weight="700">C2</text><circle cx="117.56" cy="102.78" r="3.2" fill="#2f7fb0"><title>C3 CDD step=4</title></circle><circle cx="285.33" cy="121.90" r="3.2" fill="#2f7fb0"><title>C3 CDD step=4</title></circle><circle cx="453.11" cy="180.95" r="3.2" fill="#2f7fb0"><title>C3 CDD step=4</title></circle><circle cx="537.00" cy="227.24" r="3.2" fill="#2f7fb0"><title>C3 CDD step=4</title></circle><circle cx="620.89" cy="252.00" r="3.2" fill="#2f7fb0"><title>C3 CDD step=4</title></circle><circle cx="704.78" cy="318.91" r="3.2" fill="#2f7fb0"><title>C3 CDD step=4</title></circle><circle cx="788.67" cy="362.44" r="3.2" fill="#2f7fb0"><title>C3 CDD step=4</title></circle><circle cx="956.44" cy="455.37" r="3.2" fill="#2f7fb0"><title>C3 CDD step=4</title></circle><polyline points="117.56,102.78 285.33,121.90 453.11,180.95 537.00,227.24 620.89,252.00 704.78,318.91 788.67,362.44 956.44,455.37" fill="none" stroke="#2f7fb0" stroke-width="1.7" stroke-dasharray="5 3"/><text x="961.44" y="459.37" font-size="10" fill="#2f7fb0" font-weight="700">C3</text><circle cx="117.56" cy="99.77" r="3.2" fill="#5398c6"><title>C4 CDD step=5</title></circle><circle cx="285.33" cy="117.93" r="3.2" fill="#5398c6"><title>C4 CDD step=5</title></circle><circle cx="453.11" cy="184.50" r="3.2" fill="#5398c6"><title>C4 CDD step=5</title></circle><circle cx="537.00" cy="234.11" r="3.2" fill="#5398c6"><title>C4 CDD step=5</title></circle><circle cx="620.89" cy="254.49" r="3.2" fill="#5398c6"><title>C4 CDD step=5</title></circle><circle cx="704.78" cy="311.71" r="3.2" fill="#5398c6"><title>C4 CDD step=5</title></circle><circle cx="788.67" cy="400.86" r="3.2" fill="#5398c6"><title>C4 CDD step=5</title></circle><circle cx="956.44" cy="455.37" r="3.2" fill="#5398c6"><title>C4 CDD step=5</title></circle><polyline points="117.56,99.77 285.33,117.93 453.11,184.50 537.00,234.11 620.89,254.49 704.78,311.71 788.67,400.86 956.44,455.37" fill="none" stroke="#5398c6" stroke-width="1.7" stroke-dasharray="5 3"/><text x="961.44" y="459.37" font-size="10" fill="#5398c6" font-weight="700">C4</text><circle cx="117.56" cy="98.30" r="3.2" fill="#83b7d8"><title>C5 CDD step=6</title></circle><circle cx="285.33" cy="118.83" r="3.2" fill="#83b7d8"><title>C5 CDD step=6</title></circle><circle cx="453.11" cy="181.53" r="3.2" fill="#83b7d8"><title>C5 CDD step=6</title></circle><circle cx="537.00" cy="234.11" r="3.2" fill="#83b7d8"><title>C5 CDD step=6</title></circle><circle cx="620.89" cy="257.05" r="3.2" fill="#83b7d8"><title>C5 CDD step=6</title></circle><circle cx="704.78" cy="332.27" r="3.2" fill="#83b7d8"><title>C5 CDD step=6</title></circle><circle cx="788.67" cy="400.86" r="3.2" fill="#83b7d8"><title>C5 CDD step=6</title></circle><circle cx="956.44" cy="493.78" r="3.2" fill="#83b7d8"><title>C5 CDD step=6</title></circle><polyline points="117.56,98.30 285.33,118.83 453.11,181.53 537.00,234.11 620.89,257.05 704.78,332.27 788.67,400.86 956.44,493.78" fill="none" stroke="#83b7d8" stroke-width="1.7" stroke-dasharray="5 3"/><text x="961.44" y="497.78" font-size="10" fill="#83b7d8" font-weight="700">C5</text><circle cx="117.56" cy="97.57" r="3.2" fill="#b6d3e8"><title>C6 CDD step=7</title></circle><circle cx="285.33" cy="112.70" r="3.2" fill="#b6d3e8"><title>C6 CDD step=7</title></circle><circle cx="453.11" cy="178.65" r="3.2" fill="#b6d3e8"><title>C6 CDD step=7</title></circle><circle cx="537.00" cy="219.07" r="3.2" fill="#b6d3e8"><title>C6 CDD step=7</title></circle><circle cx="620.89" cy="259.69" r="3.2" fill="#b6d3e8"><title>C6 CDD step=7</title></circle><circle cx="704.78" cy="338.20" r="3.2" fill="#b6d3e8"><title>C6 CDD step=7</title></circle><circle cx="788.67" cy="406.97" r="3.2" fill="#b6d3e8"><title>C6 CDD step=7</title></circle><circle cx="956.44" cy="597.86" r="3.2" fill="#b6d3e8"><title>C6 CDD step=7</title></circle><polyline points="117.56,97.57 285.33,112.70 453.11,178.65 537.00,219.07 620.89,259.69 704.78,338.20 788.67,406.97 956.44,597.86" fill="none" stroke="#b6d3e8" stroke-width="1.7" stroke-dasharray="5 3"/><text x="961.44" y="601.86" font-size="10" fill="#b6d3e8" font-weight="700">C6</text><circle cx="117.56" cy="96.38" r="3.2" fill="#5a6f82"><title>C7 CDD step=64</title></circle><circle cx="285.33" cy="104.84" r="3.2" fill="#5a6f82"><title>C7 CDD step=64</title></circle><circle cx="453.11" cy="154.28" r="3.2" fill="#5a6f82"><title>C7 CDD step=64</title></circle><circle cx="537.00" cy="195.36" r="3.2" fill="#5a6f82"><title>C7 CDD step=64</title></circle><circle cx="620.89" cy="224.44" r="3.2" fill="#5a6f82"><title>C7 CDD step=64</title></circle><circle cx="704.78" cy="309.42" r="3.2" fill="#5a6f82"><title>C7 CDD step=64</title></circle><circle cx="788.67" cy="384.58" r="3.2" fill="#5a6f82"><title>C7 CDD step=64</title></circle><circle cx="956.44" cy="511.05" r="3.2" fill="#5a6f82"><title>C7 CDD step=64</title></circle><polyline points="117.56,96.38 285.33,104.84 453.11,154.28 537.00,195.36 620.89,224.44 704.78,309.42 788.67,384.58 956.44,511.05" fill="none" stroke="#5a6f82" stroke-width="1.7" stroke-dasharray="5 3"/><text x="961.44" y="515.05" font-size="10" fill="#5a6f82" font-weight="700">C7</text><circle cx="117.56" cy="108.55" r="3.2" fill="#8a1c7c"><title>P1 PW cont random slope=4 #938</title></circle><circle cx="285.33" cy="131.06" r="3.2" fill="#8a1c7c"><title>P1 PW cont random slope=4 #938</title></circle><circle cx="453.11" cy="177.53" r="3.2" fill="#8a1c7c"><title>P1 PW cont random slope=4 #938</title></circle><circle cx="537.00" cy="196.72" r="3.2" fill="#8a1c7c"><title>P1 PW cont random slope=4 #938</title></circle><circle cx="620.89" cy="222.62" r="3.2" fill="#8a1c7c"><title>P1 PW cont random slope=4 #938</title></circle><circle cx="704.78" cy="285.62" r="3.2" fill="#8a1c7c"><title>P1 PW cont random slope=4 #938</title></circle><circle cx="788.67" cy="305.02" r="3.2" fill="#8a1c7c"><title>P1 PW cont random slope=4 #938</title></circle><circle cx="956.44" cy="384.58" r="3.2" fill="#8a1c7c"><title>P1 PW cont random slope=4 #938</title></circle><polyline points="117.56,108.55 285.33,131.06 453.11,177.53 537.00,196.72 620.89,222.62 704.78,285.62 788.67,305.02 956.44,384.58" fill="none" stroke="#8a1c7c" stroke-width="1.7"/><text x="961.44" y="388.58" font-size="10" fill="#8a1c7c" font-weight="700">P1</text><circle cx="117.56" cy="106.15" r="3.2" fill="#b12a90"><title>P2 PW cont random slope=4 #939</title></circle><circle cx="285.33" cy="132.79" r="3.2" fill="#b12a90"><title>P2 PW cont random slope=4 #939</title></circle><circle cx="453.11" cy="178.65" r="3.2" fill="#b12a90"><title>P2 PW cont random slope=4 #939</title></circle><circle cx="537.00" cy="214.82" r="3.2" fill="#b12a90"><title>P2 PW cont random slope=4 #939</title></circle><circle cx="620.89" cy="235.14" r="3.2" fill="#b12a90"><title>P2 PW cont random slope=4 #939</title></circle><circle cx="704.78" cy="280.49" r="3.2" fill="#b12a90"><title>P2 PW cont random slope=4 #939</title></circle><circle cx="788.67" cy="326.70" r="3.2" fill="#b12a90"><title>P2 PW cont random slope=4 #939</title></circle><circle cx="956.44" cy="445.38" r="3.2" fill="#b12a90"><title>P2 PW cont random slope=4 #939</title></circle><polyline points="117.56,106.15 285.33,132.79 453.11,178.65 537.00,214.82 620.89,235.14 704.78,280.49 788.67,326.70 956.44,445.38" fill="none" stroke="#b12a90" stroke-width="1.7"/><text x="961.44" y="449.38" font-size="10" fill="#b12a90" font-weight="700">P2</text><circle cx="117.56" cy="108.01" r="3.2" fill="#d34c8f"><title>P3 PW cont random slope=4 #940</title></circle><circle cx="285.33" cy="129.69" r="3.2" fill="#d34c8f"><title>P3 PW cont random slope=4 #940</title></circle><circle cx="453.11" cy="174.22" r="3.2" fill="#d34c8f"><title>P3 PW cont random slope=4 #940</title></circle><circle cx="537.00" cy="215.66" r="3.2" fill="#d34c8f"><title>P3 PW cont random slope=4 #940</title></circle><circle cx="620.89" cy="225.36" r="3.2" fill="#d34c8f"><title>P3 PW cont random slope=4 #940</title></circle><circle cx="704.78" cy="277.23" r="3.2" fill="#d34c8f"><title>P3 PW cont random slope=4 #940</title></circle><circle cx="788.67" cy="309.42" r="3.2" fill="#d34c8f"><title>P3 PW cont random slope=4 #940</title></circle><circle cx="956.44" cy="413.51" r="3.2" fill="#d34c8f"><title>P3 PW cont random slope=4 #940</title></circle><polyline points="117.56,108.01 285.33,129.69 453.11,174.22 537.00,215.66 620.89,225.36 704.78,277.23 788.67,309.42 956.44,413.51" fill="none" stroke="#d34c8f" stroke-width="1.7"/><text x="961.44" y="417.51" font-size="10" fill="#d34c8f" font-weight="700">P3</text><circle cx="117.56" cy="103.80" r="3.2" fill="#e76f51"><title>P4 PW cont cyclic slope=4</title></circle><circle cx="285.33" cy="124.11" r="3.2" fill="#e76f51"><title>P4 PW cont cyclic slope=4</title></circle><circle cx="453.11" cy="172.61" r="3.2" fill="#e76f51"><title>P4 PW cont cyclic slope=4</title></circle><circle cx="537.00" cy="209.18" r="3.2" fill="#e76f51"><title>P4 PW cont cyclic slope=4</title></circle><circle cx="620.89" cy="241.53" r="3.2" fill="#e76f51"><title>P4 PW cont cyclic slope=4</title></circle><circle cx="704.78" cy="292.91" r="3.2" fill="#e76f51"><title>P4 PW cont cyclic slope=4</title></circle><circle cx="788.67" cy="309.42" r="3.2" fill="#e76f51"><title>P4 PW cont cyclic slope=4</title></circle><circle cx="956.44" cy="420.53" r="3.2" fill="#e76f51"><title>P4 PW cont cyclic slope=4</title></circle><polyline points="117.56,103.80 285.33,124.11 453.11,172.61 537.00,209.18 620.89,241.53 704.78,292.91 788.67,309.42 956.44,420.53" fill="none" stroke="#e76f51" stroke-width="1.7"/><text x="961.44" y="424.53" font-size="10" fill="#e76f51" font-weight="700">P4</text><circle cx="117.56" cy="101.01" r="3.2" fill="#f4a261"><title>P5 PW cont random slope=6 #201</title></circle><circle cx="285.33" cy="123.16" r="3.2" fill="#f4a261"><title>P5 PW cont random slope=6 #201</title></circle><circle cx="453.11" cy="179.79" r="3.2" fill="#f4a261"><title>P5 PW cont random slope=6 #201</title></circle><circle cx="537.00" cy="221.72" r="3.2" fill="#f4a261"><title>P5 PW cont random slope=6 #201</title></circle><circle cx="620.89" cy="234.11" r="3.2" fill="#f4a261"><title>P5 PW cont random slope=6 #201</title></circle><circle cx="704.78" cy="291.03" r="3.2" fill="#f4a261"><title>P5 PW cont random slope=6 #201</title></circle><circle cx="788.67" cy="341.30" r="3.2" fill="#f4a261"><title>P5 PW cont random slope=6 #201</title></circle><circle cx="956.44" cy="455.37" r="3.2" fill="#f4a261"><title>P5 PW cont random slope=6 #201</title></circle><polyline points="117.56,101.01 285.33,123.16 453.11,179.79 537.00,221.72 620.89,234.11 704.78,291.03 788.67,341.30 956.44,455.37" fill="none" stroke="#f4a261" stroke-width="1.7"/><text x="961.44" y="459.37" font-size="10" fill="#f4a261" font-weight="700">P5</text><circle cx="117.56" cy="99.52" r="3.2" fill="#2a9d8f"><title>P6 PW cont cyclic slope=6</title></circle><circle cx="285.33" cy="120.05" r="3.2" fill="#2a9d8f"><title>P6 PW cont cyclic slope=6</title></circle><circle cx="453.11" cy="175.31" r="3.2" fill="#2a9d8f"><title>P6 PW cont cyclic slope=6</title></circle><circle cx="537.00" cy="222.62" r="3.2" fill="#2a9d8f"><title>P6 PW cont cyclic slope=6</title></circle><circle cx="620.89" cy="244.89" r="3.2" fill="#2a9d8f"><title>P6 PW cont cyclic slope=6</title></circle><circle cx="704.78" cy="309.42" r="3.2" fill="#2a9d8f"><title>P6 PW cont cyclic slope=6</title></circle><circle cx="788.67" cy="351.28" r="3.2" fill="#2a9d8f"><title>P6 PW cont cyclic slope=6</title></circle><circle cx="956.44" cy="455.37" r="3.2" fill="#2a9d8f"><title>P6 PW cont cyclic slope=6</title></circle><polyline points="117.56,99.52 285.33,120.05 453.11,175.31 537.00,222.62 620.89,244.89 704.78,309.42 788.67,351.28 956.44,455.37" fill="none" stroke="#2a9d8f" stroke-width="1.7"/><text x="961.44" y="459.37" font-size="10" fill="#2a9d8f" font-weight="700">P6</text><circle cx="117.56" cy="97.09" r="3.2" fill="#168aad"><title>P7 PW cont cyclic slope=8</title></circle><circle cx="285.33" cy="114.13" r="3.2" fill="#168aad"><title>P7 PW cont cyclic slope=8</title></circle><circle cx="453.11" cy="166.93" r="3.2" fill="#168aad"><title>P7 PW cont cyclic slope=8</title></circle><circle cx="537.00" cy="217.35" r="3.2" fill="#168aad"><title>P7 PW cont cyclic slope=8</title></circle><circle cx="620.89" cy="246.04" r="3.2" fill="#168aad"><title>P7 PW cont cyclic slope=8</title></circle><circle cx="704.78" cy="341.30" r="3.2" fill="#168aad"><title>P7 PW cont cyclic slope=8</title></circle><circle cx="788.67" cy="420.53" r="3.2" fill="#168aad"><title>P7 PW cont cyclic slope=8</title></circle><circle cx="956.44" cy="493.78" r="3.2" fill="#168aad"><title>P7 PW cont cyclic slope=8</title></circle><polyline points="117.56,97.09 285.33,114.13 453.11,166.93 537.00,217.35 620.89,246.04 704.78,341.30 788.67,420.53 956.44,493.78" fill="none" stroke="#168aad" stroke-width="1.7"/><text x="961.44" y="497.78" font-size="10" fill="#168aad" font-weight="700">P7</text><circle cx="117.56" cy="96.14" r="3.2" fill="#4361ee"><title>P8 PW cont cyclic slope=16</title></circle><circle cx="285.33" cy="107.21" r="3.2" fill="#4361ee"><title>P8 PW cont cyclic slope=16</title></circle><circle cx="453.11" cy="159.69" r="3.2" fill="#4361ee"><title>P8 PW cont cyclic slope=16</title></circle><circle cx="537.00" cy="209.18" r="3.2" fill="#4361ee"><title>P8 PW cont cyclic slope=16</title></circle><circle cx="620.89" cy="242.63" r="3.2" fill="#4361ee"><title>P8 PW cont cyclic slope=16</title></circle><circle cx="704.78" cy="324.03" r="3.2" fill="#4361ee"><title>P8 PW cont cyclic slope=16</title></circle><circle cx="788.67" cy="436.35" r="3.2" fill="#4361ee"><title>P8 PW cont cyclic slope=16</title></circle><circle cx="956.44" cy="559.45" r="3.2" fill="#4361ee"><title>P8 PW cont cyclic slope=16</title></circle><polyline points="117.56,96.14 285.33,107.21 453.11,159.69 537.00,209.18 620.89,242.63 704.78,324.03 788.67,436.35 956.44,559.45" fill="none" stroke="#4361ee" stroke-width="1.7"/><text x="961.44" y="563.45" font-size="10" fill="#4361ee" font-weight="700">P8</text><circle cx="117.56" cy="96.38" r="3.2" fill="#6a4c93"><title>P9 PW cont cyclic slope=24</title></circle><circle cx="285.33" cy="104.58" r="3.2" fill="#6a4c93"><title>P9 PW cont cyclic slope=24</title></circle><circle cx="453.11" cy="143.90" r="3.2" fill="#6a4c93"><title>P9 PW cont cyclic slope=24</title></circle><circle cx="537.00" cy="201.66" r="3.2" fill="#6a4c93"><title>P9 PW cont cyclic slope=24</title></circle><circle cx="620.89" cy="238.28" r="3.2" fill="#6a4c93"><title>P9 PW cont cyclic slope=24</title></circle><circle cx="704.78" cy="305.02" r="3.2" fill="#6a4c93"><title>P9 PW cont cyclic slope=24</title></circle><circle cx="788.67" cy="395.11" r="3.2" fill="#6a4c93"><title>P9 PW cont cyclic slope=24</title></circle><circle cx="956.44" cy="559.45" r="3.2" fill="#6a4c93"><title>P9 PW cont cyclic slope=24</title></circle><polyline points="117.56,96.38 285.33,104.58 453.11,143.90 537.00,201.66 620.89,238.28 704.78,305.02 788.67,395.11 956.44,559.45" fill="none" stroke="#6a4c93" stroke-width="1.7"/><text x="961.44" y="563.45" font-size="10" fill="#6a4c93" font-weight="700">P9</text><circle cx="117.56" cy="96.38" r="3.2" fill="#7cb342"><title>P10 PW cont cyclic slope=32</title></circle><circle cx="285.33" cy="100.51" r="3.2" fill="#7cb342"><title>P10 PW cont cyclic slope=32</title></circle><circle cx="453.11" cy="128.68" r="3.2" fill="#7cb342"><title>P10 PW cont cyclic slope=32</title></circle><circle cx="537.00" cy="166.93" r="3.2" fill="#7cb342"><title>P10 PW cont cyclic slope=32</title></circle><circle cx="620.89" cy="194.02" r="3.2" fill="#7cb342"><title>P10 PW cont cyclic slope=32</title></circle><circle cx="704.78" cy="255.76" r="3.2" fill="#7cb342"><title>P10 PW cont cyclic slope=32</title></circle><circle cx="788.67" cy="292.91" r="3.2" fill="#7cb342"><title>P10 PW cont cyclic slope=32</title></circle><circle cx="956.44" cy="436.35" r="3.2" fill="#7cb342"><title>P10 PW cont cyclic slope=32</title></circle><polyline points="117.56,96.38 285.33,100.51 453.11,128.68 537.00,166.93 620.89,194.02 704.78,255.76 788.67,292.91 956.44,436.35" fill="none" stroke="#7cb342" stroke-width="1.7"/><text x="961.44" y="440.35" font-size="10" fill="#7cb342" font-weight="700">P10</text><circle cx="117.56" cy="96.14" r="3.2" fill="#455a64"><title>P11 PW cont cyclic slope=48</title></circle><circle cx="285.33" cy="101.26" r="3.2" fill="#455a64"><title>P11 PW cont cyclic slope=48</title></circle><circle cx="453.11" cy="146.29" r="3.2" fill="#455a64"><title>P11 PW cont cyclic slope=48</title></circle><circle cx="537.00" cy="180.95" r="3.2" fill="#455a64"><title>P11 PW cont cyclic slope=48</title></circle><circle cx="620.89" cy="227.24" r="3.2" fill="#455a64"><title>P11 PW cont cyclic slope=48</title></circle><circle cx="704.78" cy="289.19" r="3.2" fill="#455a64"><title>P11 PW cont cyclic slope=48</title></circle><circle cx="788.67" cy="384.58" r="3.2" fill="#455a64"><title>P11 PW cont cyclic slope=48</title></circle><circle cx="956.44" cy="466.52" r="3.2" fill="#455a64"><title>P11 PW cont cyclic slope=48</title></circle><polyline points="117.56,96.14 285.33,101.26 453.11,146.29 537.00,180.95 620.89,227.24 704.78,289.19 788.67,384.58 956.44,466.52" fill="none" stroke="#455a64" stroke-width="1.7"/><text x="961.44" y="470.52" font-size="10" fill="#455a64" font-weight="700">P11</text><circle cx="117.56" cy="96.14" r="3.2" fill="#bf6f1d"><title>P12 PW cont cyclic slope=64</title></circle><circle cx="285.33" cy="104.06" r="3.2" fill="#bf6f1d"><title>P12 PW cont cyclic slope=64</title></circle><circle cx="453.11" cy="149.16" r="3.2" fill="#bf6f1d"><title>P12 PW cont cyclic slope=64</title></circle><circle cx="537.00" cy="200.22" r="3.2" fill="#bf6f1d"><title>P12 PW cont cyclic slope=64</title></circle><circle cx="620.89" cy="228.19" r="3.2" fill="#bf6f1d"><title>P12 PW cont cyclic slope=64</title></circle><circle cx="704.78" cy="298.77" r="3.2" fill="#bf6f1d"><title>P12 PW cont cyclic slope=64</title></circle><circle cx="788.67" cy="400.86" r="3.2" fill="#bf6f1d"><title>P12 PW cont cyclic slope=64</title></circle><circle cx="956.44" cy="493.78" r="3.2" fill="#bf6f1d"><title>P12 PW cont cyclic slope=64</title></circle><polyline points="117.56,96.14 285.33,104.06 453.11,149.16 537.00,200.22 620.89,228.19 704.78,298.77 788.67,400.86 956.44,493.78" fill="none" stroke="#bf6f1d" stroke-width="1.7"/><text x="961.44" y="497.78" font-size="10" fill="#bf6f1d" font-weight="700">P12</text>
<line x1="1016" y1="74.00" x2="1034" y2="74.00" stroke="#0b3c5d" stroke-width="2" stroke-dasharray="5 3"/><text x="1040" y="78.00" font-size="11">C1</text><line x1="1016" y1="92.00" x2="1034" y2="92.00" stroke="#1d5f8a" stroke-width="2" stroke-dasharray="5 3"/><text x="1040" y="96.00" font-size="11">C2</text><line x1="1016" y1="110.00" x2="1034" y2="110.00" stroke="#2f7fb0" stroke-width="2" stroke-dasharray="5 3"/><text x="1040" y="114.00" font-size="11">C3</text><line x1="1016" y1="128.00" x2="1034" y2="128.00" stroke="#5398c6" stroke-width="2" stroke-dasharray="5 3"/><text x="1040" y="132.00" font-size="11">C4</text><line x1="1016" y1="146.00" x2="1034" y2="146.00" stroke="#83b7d8" stroke-width="2" stroke-dasharray="5 3"/><text x="1040" y="150.00" font-size="11">C5</text><line x1="1016" y1="164.00" x2="1034" y2="164.00" stroke="#b6d3e8" stroke-width="2" stroke-dasharray="5 3"/><text x="1040" y="168.00" font-size="11">C6</text><line x1="1016" y1="182.00" x2="1034" y2="182.00" stroke="#5a6f82" stroke-width="2" stroke-dasharray="5 3"/><text x="1040" y="186.00" font-size="11">C7</text><line x1="1016" y1="200.00" x2="1034" y2="200.00" stroke="#8a1c7c" stroke-width="2"/><text x="1040" y="204.00" font-size="11">P1</text><line x1="1016" y1="218.00" x2="1034" y2="218.00" stroke="#b12a90" stroke-width="2"/><text x="1040" y="222.00" font-size="11">P2</text><line x1="1016" y1="236.00" x2="1034" y2="236.00" stroke="#d34c8f" stroke-width="2"/><text x="1040" y="240.00" font-size="11">P3</text><line x1="1016" y1="254.00" x2="1034" y2="254.00" stroke="#e76f51" stroke-width="2"/><text x="1040" y="258.00" font-size="11">P4</text><line x1="1016" y1="272.00" x2="1034" y2="272.00" stroke="#f4a261" stroke-width="2"/><text x="1040" y="276.00" font-size="11">P5</text><line x1="1016" y1="290.00" x2="1034" y2="290.00" stroke="#2a9d8f" stroke-width="2"/><text x="1040" y="294.00" font-size="11">P6</text><line x1="1016" y1="308.00" x2="1034" y2="308.00" stroke="#168aad" stroke-width="2"/><text x="1040" y="312.00" font-size="11">P7</text><line x1="1016" y1="326.00" x2="1034" y2="326.00" stroke="#4361ee" stroke-width="2"/><text x="1040" y="330.00" font-size="11">P8</text><line x1="1016" y1="344.00" x2="1034" y2="344.00" stroke="#6a4c93" stroke-width="2"/><text x="1040" y="348.00" font-size="11">P9</text><line x1="1016" y1="362.00" x2="1034" y2="362.00" stroke="#7cb342" stroke-width="2"/><text x="1040" y="366.00" font-size="11">P10</text><line x1="1016" y1="380.00" x2="1034" y2="380.00" stroke="#455a64" stroke-width="2"/><text x="1040" y="384.00" font-size="11">P11</text><line x1="1016" y1="398.00" x2="1034" y2="398.00" stroke="#bf6f1d" stroke-width="2"/><text x="1040" y="402.00" font-size="11">P12</text>
<text x="537.0" y="694" text-anchor="middle" font-size="14">SNR (dB)</text>
<text x="22" y="347.0" text-anchor="middle" font-size="14" transform="rotate(-90 22 347.0)">BLER</text>
<text x="1016" y="692" font-size="11" fill="#555">dashed: CDD, solid: piecewise</text>
</svg>
