<svg xmlns="http://www.w3.org/2000/svg" width="1060" height="660" viewBox="0 0 1060 660">
<rect width="100%" height="100%" fill="white"/>
<text x="530.0" y="28" text-anchor="middle" font-size="18" font-family="Arial, sans-serif">Piecewise-linear Pareto BLER</text>
<line x1="78" y1="582" x2="934" y2="582" stroke="#333" stroke-width="1.2"/>
<line x1="78" y1="54" x2="78" y2="582" stroke="#333" stroke-width="1.2"/>
<line x1="78.00" y1="54" x2="78.00" y2="582" stroke="#e6e8eb"/><text x="78.00" y="606" font-size="12" text-anchor="middle">9.6</text><line x1="249.20" y1="54" x2="249.20" y2="582" stroke="#e6e8eb"/><text x="249.20" y="606" font-size="12" text-anchor="middle">11.8</text><line x1="420.40" y1="54" x2="420.40" y2="582" stroke="#e6e8eb"/><text x="420.40" y="606" font-size="12" text-anchor="middle">13.9</text><line x1="591.60" y1="54" x2="591.60" y2="582" stroke="#e6e8eb"/><text x="591.60" y="606" font-size="12" text-anchor="middle">16.1</text><line x1="762.80" y1="54" x2="762.80" y2="582" stroke="#e6e8eb"/><text x="762.80" y="606" font-size="12" text-anchor="middle">18.2</text><line x1="934.00" y1="54" x2="934.00" y2="582" stroke="#e6e8eb"/><text x="934.00" y="606" font-size="12" text-anchor="middle">20.4</text><line x1="78" y1="582.00" x2="934" y2="582.00" stroke="#e6e8eb"/><text x="70" y="586.00" font-size="12" text-anchor="end">0.00507</text><line x1="78" y1="476.40" x2="934" y2="476.40" stroke="#e6e8eb"/><text x="70" y="480.40" font-size="12" text-anchor="end">0.0158</text><line x1="78" y1="370.80" x2="934" y2="370.80" stroke="#e6e8eb"/><text x="70" y="374.80" font-size="12" text-anchor="end">0.049</text><line x1="78" y1="265.20" x2="934" y2="265.20" stroke="#e6e8eb"/><text x="70" y="269.20" font-size="12" text-anchor="end">0.153</text><line x1="78" y1="159.60" x2="934" y2="159.60" stroke="#e6e8eb"/><text x="70" y="163.60" font-size="12" text-anchor="end">0.474</text><line x1="78" y1="54.00" x2="934" y2="54.00" stroke="#e6e8eb"/><text x="70" y="58.00" font-size="12" text-anchor="end">1.48</text>
<line x1="78" y1="304.50" x2="934" y2="304.50" stroke="#111" stroke-width="1" stroke-dasharray="5 4"/><text x="940" y="308.50" font-size="11" fill="#111">0.1</text><line x1="78" y1="518.81" x2="934" y2="518.81" stroke="#111" stroke-width="1" stroke-dasharray="5 4"/><text x="940" y="522.81" font-size="11" fill="#111">0.01</text><circle cx="109.70" cy="102.61" r="3.6" fill="#26547c"><title>P1 PW cont random slope=4 #938</title></circle><circle cx="268.22" cy="124.72" r="3.6" fill="#26547c"><title>P1 PW cont random slope=4 #938</title></circle><circle cx="426.74" cy="170.37" r="3.6" fill="#26547c"><title>P1 PW cont random slope=4 #938</title></circle><circle cx="506.00" cy="189.23" r="3.6" fill="#26547c"><title>P1 PW cont random slope=4 #938</title></circle><circle cx="585.26" cy="214.67" r="3.6" fill="#26547c"><title>P1 PW cont random slope=4 #938</title></circle><circle cx="664.52" cy="276.56" r="3.6" fill="#26547c"><title>P1 PW cont random slope=4 #938</title></circle><circle cx="743.78" cy="295.62" r="3.6" fill="#26547c"><title>P1 PW cont random slope=4 #938</title></circle><circle cx="902.30" cy="373.78" r="3.6" fill="#26547c"><title>P1 PW cont random slope=4 #938</title></circle><polyline points="109.70,102.61 268.22,124.72 426.74,170.37 506.00,189.23 585.26,214.67 664.52,276.56 743.78,295.62 902.30,373.78" fill="none" stroke="#26547c" stroke-width="1.7"/><text x="907.30" y="377.78" font-size="10" fill="#26547c" font-weight="700">P1</text><circle cx="109.70" cy="100.25" r="3.6" fill="#ef476f"><title>P2 PW cont random slope=4 #939</title></circle><circle cx="268.22" cy="126.42" r="3.6" fill="#ef476f"><title>P2 PW cont random slope=4 #939</title></circle><circle cx="426.74" cy="171.48" r="3.6" fill="#ef476f"><title>P2 PW cont random slope=4 #939</title></circle><circle cx="506.00" cy="207.02" r="3.6" fill="#ef476f"><title>P2 PW cont random slope=4 #939</title></circle><circle cx="585.26" cy="226.97" r="3.6" fill="#ef476f"><title>P2 PW cont random slope=4 #939</title></circle><circle cx="664.52" cy="271.53" r="3.6" fill="#ef476f"><title>P2 PW cont random slope=4 #939</title></circle><circle cx="743.78" cy="316.92" r="3.6" fill="#ef476f"><title>P2 PW cont random slope=4 #939</title></circle><circle cx="902.30" cy="433.53" r="3.6" fill="#ef476f"><title>P2 PW cont random slope=4 #939</title></circle><polyline points="109.70,100.25 268.22,126.42 426.74,171.48 506.00,207.02 585.26,226.97 664.52,271.53 743.78,316.92 902.30,433.53" fill="none" stroke="#ef476f" stroke-width="1.7"/><text x="907.30" y="437.53" font-size="10" fill="#ef476f" font-weight="700">P2</text><circle cx="109.70" cy="102.08" r="3.6" fill="#06a77d"><title>P3 PW cont random slope=4 #940</title></circle><circle cx="268.22" cy="123.38" r="3.6" fill="#06a77d"><title>P3 PW cont random slope=4 #940</title></circle><circle cx="426.74" cy="167.12" r="3.6" fill="#06a77d"><title>P3 PW cont random slope=4 #940</title></circle><circle cx="506.00" cy="207.84" r="3.6" fill="#06a77d"><title>P3 PW cont random slope=4 #940</title></circle><circle cx="585.26" cy="217.37" r="3.6" fill="#06a77d"><title>P3 PW cont random slope=4 #940</title></circle><circle cx="664.52" cy="268.32" r="3.6" fill="#06a77d"><title>P3 PW cont random slope=4 #940</title></circle><circle cx="743.78" cy="299.95" r="3.6" fill="#06a77d"><title>P3 PW cont random slope=4 #940</title></circle><circle cx="902.30" cy="402.21" r="3.6" fill="#06a77d"><title>P3 PW cont random slope=4 #940</title></circle><polyline points="109.70,102.08 268.22,123.38 426.74,167.12 506.00,207.84 585.26,217.37 664.52,268.32 743.78,299.95 902.30,402.21" fill="none" stroke="#06a77d" stroke-width="1.7"/><text x="907.30" y="406.21" font-size="10" fill="#06a77d" font-weight="700">P3</text><circle cx="109.70" cy="97.94" r="3.6" fill="#7b2cbf"><title>P4 PW cont cyclic slope=4</title></circle><circle cx="268.22" cy="117.89" r="3.6" fill="#7b2cbf"><title>P4 PW cont cyclic slope=4</title></circle><circle cx="426.74" cy="165.54" r="3.6" fill="#7b2cbf"><title>P4 PW cont cyclic slope=4</title></circle><circle cx="506.00" cy="201.47" r="3.6" fill="#7b2cbf"><title>P4 PW cont cyclic slope=4</title></circle><circle cx="585.26" cy="233.25" r="3.6" fill="#7b2cbf"><title>P4 PW cont cyclic slope=4</title></circle><circle cx="664.52" cy="283.73" r="3.6" fill="#7b2cbf"><title>P4 PW cont cyclic slope=4</title></circle><circle cx="743.78" cy="299.95" r="3.6" fill="#7b2cbf"><title>P4 PW cont cyclic slope=4</title></circle><circle cx="902.30" cy="409.11" r="3.6" fill="#7b2cbf"><title>P4 PW cont cyclic slope=4</title></circle><polyline points="109.70,97.94 268.22,117.89 426.74,165.54 506.00,201.47 585.26,233.25 664.52,283.73 743.78,299.95 902.30,409.11" fill="none" stroke="#7b2cbf" stroke-width="1.7"/><text x="907.30" y="413.11" font-size="10" fill="#7b2cbf" font-weight="700">P4</text><circle cx="109.70" cy="95.20" r="3.6" fill="#f77f00"><title>P5 PW cont random slope=6 #201</title></circle><circle cx="268.22" cy="116.96" r="3.6" fill="#f77f00"><title>P5 PW cont random slope=6 #201</title></circle><circle cx="426.74" cy="172.60" r="3.6" fill="#f77f00"><title>P5 PW cont random slope=6 #201</title></circle><circle cx="506.00" cy="213.79" r="3.6" fill="#f77f00"><title>P5 PW cont random slope=6 #201</title></circle><circle cx="585.26" cy="225.97" r="3.6" fill="#f77f00"><title>P5 PW cont random slope=6 #201</title></circle><circle cx="664.52" cy="281.88" r="3.6" fill="#f77f00"><title>P5 PW cont random slope=6 #201</title></circle><circle cx="743.78" cy="331.27" r="3.6" fill="#f77f00"><title>P5 PW cont random slope=6 #201</title></circle><circle cx="902.30" cy="443.33" r="3.6" fill="#f77f00"><title>P5 PW cont random slope=6 #201</title></circle><polyline points="109.70,95.20 268.22,116.96 426.74,172.60 506.00,213.79 585.26,225.97 664.52,281.88 743.78,331.27 902.30,443.33" fill="none" stroke="#f77f00" stroke-width="1.7"/><text x="907.30" y="447.33" font-size="10" fill="#f77f00" font-weight="700">P5</text><circle cx="109.70" cy="93.74" r="3.6" fill="#118ab2"><title>P6 PW cont cyclic slope=6</title></circle><circle cx="268.22" cy="113.91" r="3.6" fill="#118ab2"><title>P6 PW cont cyclic slope=6</title></circle><circle cx="426.74" cy="168.19" r="3.6" fill="#118ab2"><title>P6 PW cont cyclic slope=6</title></circle><circle cx="506.00" cy="214.67" r="3.6" fill="#118ab2"><title>P6 PW cont cyclic slope=6</title></circle><circle cx="585.26" cy="236.55" r="3.6" fill="#118ab2"><title>P6 PW cont cyclic slope=6</title></circle><circle cx="664.52" cy="299.95" r="3.6" fill="#118ab2"><title>P6 PW cont cyclic slope=6</title></circle><circle cx="743.78" cy="341.08" r="3.6" fill="#118ab2"><title>P6 PW cont cyclic slope=6</title></circle><circle cx="902.30" cy="443.33" r="3.6" fill="#118ab2"><title>P6 PW cont cyclic slope=6</title></circle><polyline points="109.70,93.74 268.22,113.91 426.74,168.19 506.00,214.67 585.26,236.55 664.52,299.95 743.78,341.08 902.30,443.33" fill="none" stroke="#118ab2" stroke-width="1.7"/><text x="907.30" y="447.33" font-size="10" fill="#118ab2" font-weight="700">P6</text><circle cx="109.70" cy="91.35" r="3.6" fill="#9d4edd"><title>P7 PW cont cyclic slope=8</title></circle><circle cx="268.22" cy="108.09" r="3.6" fill="#9d4edd"><title>P7 PW cont cyclic slope=8</title></circle><circle cx="426.74" cy="159.96" r="3.6" fill="#9d4edd"><title>P7 PW cont cyclic slope=8</title></circle><circle cx="506.00" cy="209.50" r="3.6" fill="#9d4edd"><title>P7 PW cont cyclic slope=8</title></circle><circle cx="585.26" cy="237.68" r="3.6" fill="#9d4edd"><title>P7 PW cont cyclic slope=8</title></circle><circle cx="664.52" cy="331.27" r="3.6" fill="#9d4edd"><title>P7 PW cont cyclic slope=8</title></circle><circle cx="743.78" cy="409.11" r="3.6" fill="#9d4edd"><title>P7 PW cont cyclic slope=8</title></circle><circle cx="902.30" cy="481.07" r="3.6" fill="#9d4edd"><title>P7 PW cont cyclic slope=8</title></circle><polyline points="109.70,91.35 268.22,108.09 426.74,159.96 506.00,209.50 585.26,237.68 664.52,331.27 743.78,409.11 902.30,481.07" fill="none" stroke="#9d4edd" stroke-width="1.7"/><text x="907.30" y="485.07" font-size="10" fill="#9d4edd" font-weight="700">P7</text><circle cx="109.70" cy="90.41" r="3.6" fill="#2a9d8f"><title>P8 PW cont cyclic slope=16</title></circle><circle cx="268.22" cy="101.29" r="3.6" fill="#2a9d8f"><title>P8 PW cont cyclic slope=16</title></circle><circle cx="426.74" cy="152.85" r="3.6" fill="#2a9d8f"><title>P8 PW cont cyclic slope=16</title></circle><circle cx="506.00" cy="201.47" r="3.6" fill="#2a9d8f"><title>P8 PW cont cyclic slope=16</title></circle><circle cx="585.26" cy="234.34" r="3.6" fill="#2a9d8f"><title>P8 PW cont cyclic slope=16</title></circle><circle cx="664.52" cy="314.30" r="3.6" fill="#2a9d8f"><title>P8 PW cont cyclic slope=16</title></circle><circle cx="743.78" cy="424.65" r="3.6" fill="#2a9d8f"><title>P8 PW cont cyclic slope=16</title></circle><circle cx="902.30" cy="545.59" r="3.6" fill="#2a9d8f"><title>P8 PW cont cyclic slope=16</title></circle><polyline points="109.70,90.41 268.22,101.29 426.74,152.85 506.00,201.47 585.26,234.34 664.52,314.30 743.78,424.65 902.30,545.59" fill="none" stroke="#2a9d8f" stroke-width="1.7"/><text x="907.30" y="549.59" font-size="10" fill="#2a9d8f" font-weight="700">P8</text><circle cx="109.70" cy="90.65" r="3.6" fill="#d62828"><title>P9 PW cont cyclic slope=24</title></circle><circle cx="268.22" cy="98.70" r="3.6" fill="#d62828"><title>P9 PW cont cyclic slope=24</title></circle><circle cx="426.74" cy="137.34" r="3.6" fill="#d62828"><title>P9 PW cont cyclic slope=24</title></circle><circle cx="506.00" cy="194.08" r="3.6" fill="#d62828"><title>P9 PW cont cyclic slope=24</title></circle><circle cx="585.26" cy="230.06" r="3.6" fill="#d62828"><title>P9 PW cont cyclic slope=24</title></circle><circle cx="664.52" cy="295.62" r="3.6" fill="#d62828"><title>P9 PW cont cyclic slope=24</title></circle><circle cx="743.78" cy="384.14" r="3.6" fill="#d62828"><title>P9 PW cont cyclic slope=24</title></circle><circle cx="902.30" cy="545.59" r="3.6" fill="#d62828"><title>P9 PW cont cyclic slope=24</title></circle><polyline points="109.70,90.65 268.22,98.70 426.74,137.34 506.00,194.08 585.26,230.06 664.52,295.62 743.78,384.14 902.30,545.59" fill="none" stroke="#d62828" stroke-width="1.7"/><text x="907.30" y="549.59" font-size="10" fill="#d62828" font-weight="700">P9</text><circle cx="109.70" cy="90.65" r="3.6" fill="#6a994e"><title>P10 PW cont cyclic slope=32</title></circle><circle cx="268.22" cy="94.71" r="3.6" fill="#6a994e"><title>P10 PW cont cyclic slope=32</title></circle><circle cx="426.74" cy="122.39" r="3.6" fill="#6a994e"><title>P10 PW cont cyclic slope=32</title></circle><circle cx="506.00" cy="159.96" r="3.6" fill="#6a994e"><title>P10 PW cont cyclic slope=32</title></circle><circle cx="585.26" cy="186.57" r="3.6" fill="#6a994e"><title>P10 PW cont cyclic slope=32</title></circle><circle cx="664.52" cy="247.24" r="3.6" fill="#6a994e"><title>P10 PW cont cyclic slope=32</title></circle><circle cx="743.78" cy="283.73" r="3.6" fill="#6a994e"><title>P10 PW cont cyclic slope=32</title></circle><circle cx="902.30" cy="424.65" r="3.6" fill="#6a994e"><title>P10 PW cont cyclic slope=32</title></circle><polyline points="109.70,90.65 268.22,94.71 426.74,122.39 506.00,159.96 585.26,186.57 664.52,247.24 743.78,283.73 902.30,424.65" fill="none" stroke="#6a994e" stroke-width="1.7"/><text x="907.30" y="428.65" font-size="10" fill="#6a994e" font-weight="700">P10</text><circle cx="109.70" cy="90.41" r="3.6" fill="#003049"><title>P11 PW cont cyclic slope=48</title></circle><circle cx="268.22" cy="95.45" r="3.6" fill="#003049"><title>P11 PW cont cyclic slope=48</title></circle><circle cx="426.74" cy="139.69" r="3.6" fill="#003049"><title>P11 PW cont cyclic slope=48</title></circle><circle cx="506.00" cy="173.74" r="3.6" fill="#003049"><title>P11 PW cont cyclic slope=48</title></circle><circle cx="585.26" cy="219.21" r="3.6" fill="#003049"><title>P11 PW cont cyclic slope=48</title></circle><circle cx="664.52" cy="280.08" r="3.6" fill="#003049"><title>P11 PW cont cyclic slope=48</title></circle><circle cx="743.78" cy="373.78" r="3.6" fill="#003049"><title>P11 PW cont cyclic slope=48</title></circle><circle cx="902.30" cy="454.29" r="3.6" fill="#003049"><title>P11 PW cont cyclic slope=48</title></circle><polyline points="109.70,90.41 268.22,95.45 426.74,139.69 506.00,173.74 585.26,219.21 664.52,280.08 743.78,373.78 902.30,454.29" fill="none" stroke="#003049" stroke-width="1.7"/><text x="907.30" y="458.29" font-size="10" fill="#003049" font-weight="700">P11</text><circle cx="109.70" cy="90.41" r="3.6" fill="#bc6c25"><title>P12 PW cont cyclic slope=64</title></circle><circle cx="268.22" cy="98.19" r="3.6" fill="#bc6c25"><title>P12 PW cont cyclic slope=64</title></circle><circle cx="426.74" cy="142.50" r="3.6" fill="#bc6c25"><title>P12 PW cont cyclic slope=64</title></circle><circle cx="506.00" cy="192.67" r="3.6" fill="#bc6c25"><title>P12 PW cont cyclic slope=64</title></circle><circle cx="585.26" cy="220.15" r="3.6" fill="#bc6c25"><title>P12 PW cont cyclic slope=64</title></circle><circle cx="664.52" cy="289.49" r="3.6" fill="#bc6c25"><title>P12 PW cont cyclic slope=64</title></circle><circle cx="743.78" cy="389.78" r="3.6" fill="#bc6c25"><title>P12 PW cont cyclic slope=64</title></circle><circle cx="902.30" cy="481.07" r="3.6" fill="#bc6c25"><title>P12 PW cont cyclic slope=64</title></circle><polyline points="109.70,90.41 268.22,98.19 426.74,142.50 506.00,192.67 585.26,220.15 664.52,289.49 743.78,389.78 902.30,481.07" fill="none" stroke="#bc6c25" stroke-width="1.7"/><text x="907.30" y="485.07" font-size="10" fill="#bc6c25" font-weight="700">P12</text>
<line x1="952" y1="72.00" x2="968" y2="72.00" stroke="#26547c" stroke-width="2"/><text x="972" y="76.00" font-size="11">P1</text><line x1="952" y1="90.00" x2="968" y2="90.00" stroke="#ef476f" stroke-width="2"/><text x="972" y="94.00" font-size="11">P2</text><line x1="952" y1="108.00" x2="968" y2="108.00" stroke="#06a77d" stroke-width="2"/><text x="972" y="112.00" font-size="11">P3</text><line x1="952" y1="126.00" x2="968" y2="126.00" stroke="#7b2cbf" stroke-width="2"/><text x="972" y="130.00" font-size="11">P4</text><line x1="952" y1="144.00" x2="968" y2="144.00" stroke="#f77f00" stroke-width="2"/><text x="972" y="148.00" font-size="11">P5</text><line x1="952" y1="162.00" x2="968" y2="162.00" stroke="#118ab2" stroke-width="2"/><text x="972" y="166.00" font-size="11">P6</text><line x1="952" y1="180.00" x2="968" y2="180.00" stroke="#9d4edd" stroke-width="2"/><text x="972" y="184.00" font-size="11">P7</text><line x1="952" y1="198.00" x2="968" y2="198.00" stroke="#2a9d8f" stroke-width="2"/><text x="972" y="202.00" font-size="11">P8</text><line x1="952" y1="216.00" x2="968" y2="216.00" stroke="#d62828" stroke-width="2"/><text x="972" y="220.00" font-size="11">P9</text><line x1="952" y1="234.00" x2="968" y2="234.00" stroke="#6a994e" stroke-width="2"/><text x="972" y="238.00" font-size="11">P10</text><line x1="952" y1="252.00" x2="968" y2="252.00" stroke="#003049" stroke-width="2"/><text x="972" y="256.00" font-size="11">P11</text><line x1="952" y1="270.00" x2="968" y2="270.00" stroke="#bc6c25" stroke-width="2"/><text x="972" y="274.00" font-size="11">P12</text>
<text x="506.0" y="636" text-anchor="middle" font-size="14">SNR (dB)</text>
<text x="20" y="318.0" text-anchor="middle" font-size="14" transform="rotate(-90 20 318.0)">BLER</text>
</svg>
