<svg xmlns="http://www.w3.org/2000/svg" width="1240" height="720" viewBox="0 0 1240 720">
<rect width="100%" height="100%" fill="white"/>
<text x="620.0" y="30" text-anchor="middle" font-size="18" font-family="Arial, sans-serif">Ideal-CSI BLER, 48 PRB, none interleaver</text>
<line x1="84" y1="638" x2="990" y2="638" stroke="#333" stroke-width="1.2"/>
<line x1="84" y1="56" x2="84" y2="638" stroke="#333" stroke-width="1.2"/>
<line x1="84.00" y1="56" x2="84.00" y2="638" stroke="#e6e8eb"/><text x="84.00" y="662" font-size="12" text-anchor="middle">11.5</text><line x1="265.20" y1="56" x2="265.20" y2="638" stroke="#e6e8eb"/><text x="265.20" y="662" font-size="12" text-anchor="middle">14.1</text><line x1="446.40" y1="56" x2="446.40" y2="638" stroke="#e6e8eb"/><text x="446.40" y="662" font-size="12" text-anchor="middle">16.7</text><line x1="627.60" y1="56" x2="627.60" y2="638" stroke="#e6e8eb"/><text x="627.60" y="662" font-size="12" text-anchor="middle">19.3</text><line x1="808.80" y1="56" x2="808.80" y2="638" stroke="#e6e8eb"/><text x="808.80" y="662" font-size="12" text-anchor="middle">21.9</text><line x1="990.00" y1="56" x2="990.00" y2="638" stroke="#e6e8eb"/><text x="990.00" y="662" font-size="12" text-anchor="middle">24.5</text><line x1="84" y1="616.81" x2="990" y2="616.81" stroke="#d9dde2"/><text x="76" y="620.81" font-size="12" text-anchor="end">1e-3</text><line x1="84" y1="421.27" x2="990" y2="421.27" stroke="#d9dde2"/><text x="76" y="425.27" font-size="12" text-anchor="end">1e-2</text><line x1="84" y1="225.73" x2="990" y2="225.73" stroke="#d9dde2"/><text x="76" y="229.73" font-size="12" text-anchor="end">1e-1</text><line x1="84" y1="557.95" x2="990" y2="557.95" stroke="#eef0f2"/><line x1="84" y1="480.14" x2="990" y2="480.14" stroke="#eef0f2"/><line x1="84" y1="362.41" x2="990" y2="362.41" stroke="#eef0f2"/><line x1="84" y1="284.60" x2="990" y2="284.60" stroke="#eef0f2"/><line x1="84" y1="166.87" x2="990" y2="166.87" stroke="#eef0f2"/><line x1="84" y1="89.06" x2="990" y2="89.06" stroke="#eef0f2"/>
<line x1="84" y1="225.73" x2="990" y2="225.73" stroke="#111" stroke-width="1" stroke-dasharray="5 4"/><text x="998" y="229.73" font-size="11" fill="#111">0.1</text><line x1="84" y1="421.27" x2="990" y2="421.27" stroke="#111" stroke-width="1" stroke-dasharray="5 4"/><text x="998" y="425.27" font-size="11" fill="#111">0.01</text><g><title>C0 CDD step=1</title><circle cx="117.56" cy="98.95" r="4" stroke="#0072B2" stroke-width="1.6" fill="white"/></g><g><title>C0 CDD step=1</title><circle cx="257.37" cy="136.79" r="4" stroke="#0072B2" stroke-width="1.6" fill="white"/></g><g><title>C0 CDD step=1</title><circle cx="327.28" cy="166.87" r="4" stroke="#0072B2" stroke-width="1.6" fill="white"/></g><g><title>C0 CDD step=1</title><circle cx="397.19" cy="192.73" r="4" stroke="#0072B2" stroke-width="1.6" fill="white"/></g><g><title>C0 CDD step=1</title><circle cx="467.09" cy="219.59" r="4" stroke="#0072B2" stroke-width="1.6" fill="white"/></g><g><title>C0 CDD step=1</title><circle cx="537.00" cy="253.04" r="4" stroke="#0072B2" stroke-width="1.6" fill="white"/></g><g><title>C0 CDD step=1</title><circle cx="676.81" cy="314.89" r="4" stroke="#0072B2" stroke-width="1.6" fill="white"/></g><g><title>C0 CDD step=1</title><circle cx="816.63" cy="480.14" r="4" stroke="#0072B2" stroke-width="1.6" fill="white"/></g><g><title>C0 CDD step=1</title><circle cx="956.44" cy="539.00" r="4" stroke="#0072B2" stroke-width="1.6" fill="white"/></g><polyline points="117.56,98.95 257.37,136.79 327.28,166.87 397.19,192.73 467.09,219.59 537.00,253.04 676.81,314.89 816.63,480.14 956.44,539.00" fill="none" stroke="#0072B2" stroke-width="2.1" stroke-dasharray="5 3"/><g><title>C1 CDD step=2</title><rect x="113.76" y="94.68" width="7.6" height="7.6" stroke="#D55E00" stroke-width="1.6" fill="white"/></g><g><title>C1 CDD step=2</title><rect x="253.57" y="146.71" width="7.6" height="7.6" stroke="#D55E00" stroke-width="1.6" fill="white"/></g><g><title>C1 CDD step=2</title><rect x="323.48" y="169.69" width="7.6" height="7.6" stroke="#D55E00" stroke-width="1.6" fill="white"/></g><g><title>C1 CDD step=2</title><rect x="393.39" y="226.29" width="7.6" height="7.6" stroke="#D55E00" stroke-width="1.6" fill="white"/></g><g><title>C1 CDD step=2</title><rect x="463.29" y="265.31" width="7.6" height="7.6" stroke="#D55E00" stroke-width="1.6" fill="white"/></g><g><title>C1 CDD step=2</title><rect x="533.20" y="311.09" width="7.6" height="7.6" stroke="#D55E00" stroke-width="1.6" fill="white"/></g><g><title>C1 CDD step=2</title><rect x="673.01" y="476.34" width="7.6" height="7.6" stroke="#D55E00" stroke-width="1.6" fill="white"/></g><g><title>C1 CDD step=2</title><rect x="812.83" y="594.06" width="7.6" height="7.6" stroke="#D55E00" stroke-width="1.6" fill="white"/></g><g><title>C1 CDD step=2</title><rect x="952.64" y="594.06" width="7.6" height="7.6" stroke="#D55E00" stroke-width="1.6" fill="white"/></g><polyline points="117.56,98.48 257.37,150.51 327.28,173.49 397.19,230.09 467.09,269.11 537.00,314.89 676.81,480.14 816.63,597.86 956.44,597.86" fill="none" stroke="#D55E00" stroke-width="2.1" stroke-dasharray="5 3"/><g><title>C2 CDD step=3</title><polygon points="117.56,92.00 113.26,100.20 121.86,100.20" stroke="#009E73" stroke-width="1.6" fill="white"/></g><g><title>C2 CDD step=3</title><polygon points="257.37,163.34 253.07,171.54 261.67,171.54" stroke="#009E73" stroke-width="1.6" fill="white"/></g><g><title>C2 CDD step=3</title><polygon points="327.28,194.09 322.98,202.29 331.58,202.29" stroke="#009E73" stroke-width="1.6" fill="white"/></g><g><title>C2 CDD step=3</title><polygon points="397.19,234.93 392.89,243.13 401.49,243.13" stroke="#009E73" stroke-width="1.6" fill="white"/></g><g><title>C2 CDD step=3</title><polygon points="467.09,284.35 462.79,292.55 471.39,292.55" stroke="#009E73" stroke-width="1.6" fill="white"/></g><g><title>C2 CDD step=3</title><polygon points="537.00,369.15 532.70,377.35 541.30,377.35" stroke="#009E73" stroke-width="1.6" fill="white"/></g><g><title>C2 CDD step=3</title><polygon points="676.81,475.54 672.51,483.74 681.11,483.74" stroke="#009E73" stroke-width="1.6" fill="white"/></g><g><title>C2 CDD step=3</title><polygon points="816.63,534.40 812.33,542.60 820.93,542.60" stroke="#009E73" stroke-width="1.6" fill="white"/></g><g><title>C2 CDD step=3</title><polygon points="956.44,593.26 952.14,601.46 960.74,601.46" stroke="#009E73" stroke-width="1.6" fill="white"/></g><polyline points="117.56,96.60 257.37,167.94 327.28,198.69 397.19,239.53 467.09,288.95 537.00,373.75 676.81,480.14 816.63,539.00 956.44,597.86" fill="none" stroke="#009E73" stroke-width="2.1" stroke-dasharray="5 3"/><g><title>C4 CDD step=5</title><polygon points="113.26,103.88 121.86,103.88 117.56,112.08" stroke="#E69F00" stroke-width="1.6" fill="white"/></g><g><title>C4 CDD step=5</title><polygon points="253.07,183.56 261.67,183.56 257.37,191.76" stroke="#E69F00" stroke-width="1.6" fill="white"/></g><g><title>C4 CDD step=5</title><polygon points="322.98,249.44 331.58,249.44 327.28,257.64" stroke="#E69F00" stroke-width="1.6" fill="white"/></g><g><title>C4 CDD step=5</title><polygon points="392.89,317.58 401.49,317.58 397.19,325.78" stroke="#E69F00" stroke-width="1.6" fill="white"/></g><g><title>C4 CDD step=5</title><polygon points="462.79,442.10 471.39,442.10 467.09,450.30" stroke="#E69F00" stroke-width="1.6" fill="white"/></g><g><title>C4 CDD step=5</title><polygon points="532.70,442.10 541.30,442.10 537.00,450.30" stroke="#E69F00" stroke-width="1.6" fill="white"/></g><polyline points="117.56,107.48 257.37,187.16 327.28,253.04 397.19,321.18 467.09,445.70 537.00,445.70" fill="none" stroke="#E69F00" stroke-width="2.1" stroke-dasharray="5 3"/><g><title>C5 CDD step=6</title><path d="M 113.56 104.88 H 121.56 M 117.56 100.88 V 108.88" stroke="#56B4E9" stroke-width="2" fill="none"/></g><g><title>C5 CDD step=6</title><path d="M 253.37 197.16 H 261.37 M 257.37 193.16 V 201.16" stroke="#56B4E9" stroke-width="2" fill="none"/></g><g><title>C5 CDD step=6</title><path d="M 323.28 265.65 H 331.28 M 327.28 261.65 V 269.65" stroke="#56B4E9" stroke-width="2" fill="none"/></g><g><title>C5 CDD step=6</title><path d="M 393.19 343.46 H 401.19 M 397.19 339.46 V 347.46" stroke="#56B4E9" stroke-width="2" fill="none"/></g><g><title>C5 CDD step=6</title><path d="M 463.09 445.70 H 471.09 M 467.09 441.70 V 449.70" stroke="#56B4E9" stroke-width="2" fill="none"/></g><g><title>C5 CDD step=6</title><path d="M 533.00 480.14 H 541.00 M 537.00 476.14 V 484.14" stroke="#56B4E9" stroke-width="2" fill="none"/></g><polyline points="117.56,104.88 257.37,197.16 327.28,265.65 397.19,343.46 467.09,445.70 537.00,480.14" fill="none" stroke="#56B4E9" stroke-width="2.1" stroke-dasharray="5 3"/><g><title>C6 CDD step=7</title><path d="M 114.06 100.36 L 121.06 107.36 M 121.06 100.36 L 114.06 107.36" stroke="#6F4E7C" stroke-width="2" fill="none"/></g><g><title>C6 CDD step=7</title><path d="M 253.87 216.09 L 260.87 223.09 M 260.87 216.09 L 253.87 223.09" stroke="#6F4E7C" stroke-width="2" fill="none"/></g><g><title>C6 CDD step=7</title><path d="M 323.78 290.04 L 330.78 297.04 M 330.78 290.04 L 323.78 297.04" stroke="#6F4E7C" stroke-width="2" fill="none"/></g><g><title>C6 CDD step=7</title><path d="M 393.69 383.34 L 400.69 390.34 M 400.69 383.34 L 393.69 390.34" stroke="#6F4E7C" stroke-width="2" fill="none"/></g><g><title>C6 CDD step=7</title><path d="M 463.59 417.77 L 470.59 424.77 M 470.59 417.77 L 463.59 424.77" stroke="#6F4E7C" stroke-width="2" fill="none"/></g><g><title>C6 CDD step=7</title><path d="M 533.50 535.50 L 540.50 542.50 M 540.50 535.50 L 533.50 542.50" stroke="#6F4E7C" stroke-width="2" fill="none"/></g><polyline points="117.56,103.86 257.37,219.59 327.28,293.54 397.19,386.84 467.09,421.27 537.00,539.00" fill="none" stroke="#6F4E7C" stroke-width="2.1" stroke-dasharray="5 3"/><g><title>C7 CDD step=64</title><polygon points="113.36,108.01 115.46,104.31 119.66,104.31 121.76,108.01 119.66,111.71 115.46,111.71" stroke="#222222" stroke-width="1.6" fill="white"/></g><g><title>C7 CDD step=64</title><polygon points="253.17,227.88 255.27,224.18 259.47,224.18 261.57,227.88 259.47,231.58 255.27,231.58" stroke="#222222" stroke-width="1.6" fill="white"/></g><g><title>C7 CDD step=64</title><polygon points="323.08,352.41 325.18,348.71 329.38,348.71 331.48,352.41 329.38,356.11 325.18,356.11" stroke="#222222" stroke-width="1.6" fill="white"/></g><g><title>C7 CDD step=64</title><polygon points="392.99,421.27 395.09,417.57 399.29,417.57 401.39,421.27 399.29,424.97 395.09,424.97" stroke="#222222" stroke-width="1.6" fill="white"/></g><g><title>C7 CDD step=64</title><polygon points="462.89,480.14 464.99,476.44 469.19,476.44 471.29,480.14 469.19,483.84 464.99,483.84" stroke="#222222" stroke-width="1.6" fill="white"/></g><g><title>C7 CDD step=64</title><polygon points="532.80,539.00 534.90,535.30 539.10,535.30 541.20,539.00 539.10,542.70 534.90,542.70" stroke="#222222" stroke-width="1.6" fill="white"/></g><polyline points="117.56,108.01 257.37,227.88 327.28,352.41 397.19,421.27 467.09,480.14 537.00,539.00" fill="none" stroke="#222222" stroke-width="2.1" stroke-dasharray="5 3"/><g><title>N3 NS-A0503-M1_2_3_64-LR00-S537649365</title><circle cx="117.56" cy="101.37" r="4" stroke="#A0006D" stroke-width="1.6" fill="#A0006D"/></g><g><title>N3 NS-A0503-M1_2_3_64-LR00-S537649365</title><circle cx="257.37" cy="164.77" r="4" stroke="#A0006D" stroke-width="1.6" fill="#A0006D"/></g><g><title>N3 NS-A0503-M1_2_3_64-LR00-S537649365</title><circle cx="327.28" cy="194.18" r="4" stroke="#A0006D" stroke-width="1.6" fill="#A0006D"/></g><g><title>N3 NS-A0503-M1_2_3_64-LR00-S537649365</title><circle cx="397.19" cy="276.50" r="4" stroke="#A0006D" stroke-width="1.6" fill="#A0006D"/></g><g><title>N3 NS-A0503-M1_2_3_64-LR00-S537649365</title><circle cx="467.09" cy="373.75" r="4" stroke="#A0006D" stroke-width="1.6" fill="#A0006D"/></g><g><title>N3 NS-A0503-M1_2_3_64-LR00-S537649365</title><circle cx="537.00" cy="539.00" r="4" stroke="#A0006D" stroke-width="1.6" fill="#A0006D"/></g><g><title>N3 NS-A0503-M1_2_3_64-LR00-S537649365</title><circle cx="676.81" cy="597.86" r="4" stroke="#A0006D" stroke-width="1.6" fill="#A0006D"/></g><g><title>N3 NS-A0503-M1_2_3_64-LR00-S537649365</title><circle cx="816.63" cy="597.86" r="4" stroke="#A0006D" stroke-width="1.6" fill="#A0006D"/></g><g><title>N3 NS-A0503-M1_2_3_64-LR00-S537649365</title><circle cx="956.44" cy="597.86" r="4" stroke="#A0006D" stroke-width="1.6" fill="#A0006D"/></g><polyline points="117.56,101.37 257.37,164.77 327.28,194.18 397.19,276.50 467.09,373.75 537.00,539.00 676.81,597.86 816.63,597.86 956.44,597.86" fill="none" stroke="#A0006D" stroke-width="2.1"/><g><title>N6 NS-A0501-M1_3_4_64-LR00-S537649103</title><rect x="113.76" y="94.20" width="7.6" height="7.6" stroke="#7A3E00" stroke-width="1.6" fill="#7A3E00"/></g><g><title>N6 NS-A0501-M1_3_4_64-LR00-S537649103</title><rect x="253.57" y="167.43" width="7.6" height="7.6" stroke="#7A3E00" stroke-width="1.6" fill="#7A3E00"/></g><g><title>N6 NS-A0501-M1_3_4_64-LR00-S537649103</title><rect x="323.48" y="219.84" width="7.6" height="7.6" stroke="#7A3E00" stroke-width="1.6" fill="#7A3E00"/></g><g><title>N6 NS-A0501-M1_3_4_64-LR00-S537649103</title><rect x="393.39" y="294.60" width="7.6" height="7.6" stroke="#7A3E00" stroke-width="1.6" fill="#7A3E00"/></g><g><title>N6 NS-A0501-M1_3_4_64-LR00-S537649103</title><rect x="463.29" y="348.61" width="7.6" height="7.6" stroke="#7A3E00" stroke-width="1.6" fill="#7A3E00"/></g><g><title>N6 NS-A0501-M1_3_4_64-LR00-S537649103</title><rect x="533.20" y="398.52" width="7.6" height="7.6" stroke="#7A3E00" stroke-width="1.6" fill="#7A3E00"/></g><g><title>N6 NS-A0501-M1_3_4_64-LR00-S537649103</title><rect x="673.01" y="594.06" width="7.6" height="7.6" stroke="#7A3E00" stroke-width="1.6" fill="#7A3E00"/></g><g><title>N6 NS-A0501-M1_3_4_64-LR00-S537649103</title><rect x="812.83" y="594.06" width="7.6" height="7.6" stroke="#7A3E00" stroke-width="1.6" fill="#7A3E00"/></g><g><title>N6 NS-A0501-M1_3_4_64-LR00-S537649103</title><rect x="952.64" y="594.06" width="7.6" height="7.6" stroke="#7A3E00" stroke-width="1.6" fill="#7A3E00"/></g><polyline points="117.56,98.00 257.37,171.23 327.28,223.64 397.19,298.40 467.09,352.41 537.00,402.32 676.81,597.86 816.63,597.86 956.44,597.86" fill="none" stroke="#7A3E00" stroke-width="2.1"/><g><title>N8 NS-A0494-M3_4_6_64-LR00-S535555854</title><polygon points="117.56,92.93 113.26,101.13 121.86,101.13" stroke="#117733" stroke-width="1.6" fill="#117733"/></g><g><title>N8 NS-A0494-M3_4_6_64-LR00-S535555854</title><polygon points="257.37,145.91 253.07,154.11 261.67,154.11" stroke="#117733" stroke-width="1.6" fill="#117733"/></g><g><title>N8 NS-A0494-M3_4_6_64-LR00-S535555854</title><polygon points="327.28,195.65 322.98,203.85 331.58,203.85" stroke="#117733" stroke-width="1.6" fill="#117733"/></g><g><title>N8 NS-A0494-M3_4_6_64-LR00-S535555854</title><polygon points="397.19,261.05 392.89,269.25 401.49,269.25" stroke="#117733" stroke-width="1.6" fill="#117733"/></g><g><title>N8 NS-A0494-M3_4_6_64-LR00-S535555854</title><polygon points="467.09,330.77 462.79,338.97 471.39,338.97" stroke="#117733" stroke-width="1.6" fill="#117733"/></g><g><title>N8 NS-A0494-M3_4_6_64-LR00-S535555854</title><polygon points="537.00,397.72 532.70,405.92 541.30,405.92" stroke="#117733" stroke-width="1.6" fill="#117733"/></g><g><title>N8 NS-A0494-M3_4_6_64-LR00-S535555854</title><polygon points="676.81,593.26 672.51,601.46 681.11,601.46" stroke="#117733" stroke-width="1.6" fill="#117733"/></g><g><title>N8 NS-A0494-M3_4_6_64-LR00-S535555854</title><polygon points="816.63,593.26 812.33,601.46 820.93,601.46" stroke="#117733" stroke-width="1.6" fill="#117733"/></g><g><title>N8 NS-A0494-M3_4_6_64-LR00-S535555854</title><polygon points="956.44,593.26 952.14,601.46 960.74,601.46" stroke="#117733" stroke-width="1.6" fill="#117733"/></g><polyline points="117.56,97.53 257.37,150.51 327.28,200.25 397.19,265.65 467.09,335.37 537.00,402.32 676.81,597.86 816.63,597.86 956.44,597.86" fill="none" stroke="#117733" stroke-width="2.1"/><g><title>N23 NS-A0330-M1_4_6_48-LC</title><polygon points="117.56,91.64 113.06,96.14 117.56,100.64 122.06,96.14" stroke="#332288" stroke-width="1.6" fill="#332288"/></g><g><title>N23 NS-A0330-M1_4_6_48-LC</title><polygon points="257.37,185.40 252.87,189.90 257.37,194.40 261.87,189.90" stroke="#332288" stroke-width="1.6" fill="#332288"/></g><g><title>N23 NS-A0330-M1_4_6_48-LC</title><polygon points="327.28,245.66 322.78,250.16 327.28,254.66 331.78,250.16" stroke="#332288" stroke-width="1.6" fill="#332288"/></g><g><title>N23 NS-A0330-M1_4_6_48-LC</title><polygon points="397.19,310.39 392.69,314.89 397.19,319.39 401.69,314.89" stroke="#332288" stroke-width="1.6" fill="#332288"/></g><g><title>N23 NS-A0330-M1_4_6_48-LC</title><polygon points="467.09,369.25 462.59,373.75 467.09,378.25 471.59,373.75" stroke="#332288" stroke-width="1.6" fill="#332288"/></g><g><title>N23 NS-A0330-M1_4_6_48-LC</title><polygon points="537.00,441.20 532.50,445.70 537.00,450.20 541.50,445.70" stroke="#332288" stroke-width="1.6" fill="#332288"/></g><g><title>N23 NS-A0330-M1_4_6_48-LC</title><polygon points="676.81,593.36 672.31,597.86 676.81,602.36 681.31,597.86" stroke="#332288" stroke-width="1.6" fill="#332288"/></g><g><title>N23 NS-A0330-M1_4_6_48-LC</title><polygon points="816.63,593.36 812.13,597.86 816.63,602.36 821.13,597.86" stroke="#332288" stroke-width="1.6" fill="#332288"/></g><g><title>N23 NS-A0330-M1_4_6_48-LC</title><polygon points="956.44,593.36 951.94,597.86 956.44,602.36 960.94,597.86" stroke="#332288" stroke-width="1.6" fill="#332288"/></g><polyline points="117.56,96.14 257.37,189.90 327.28,250.16 397.19,314.89 467.09,373.75 537.00,445.70 676.81,597.86 816.63,597.86 956.44,597.86" fill="none" stroke="#332288" stroke-width="2.1"/><line x1="467.09" y1="288.95" x2="513.10" y2="286.30" stroke="#009E73" stroke-width="1.2"/><polygon points="519.09,285.95 513.28,289.29 512.93,283.30" fill="#009E73"/><text x="525.09" y="288.95" font-size="11" fill="#009E73" font-weight="700" paint-order="stroke" stroke="white" stroke-width="3">C2</text><line x1="327.28" y1="293.54" x2="373.34" y2="300.11" stroke="#6F4E7C" stroke-width="1.2"/><polygon points="379.28,300.95 372.91,303.08 373.76,297.14" fill="#6F4E7C"/><text x="385.28" y="303.95" font-size="11" fill="#6F4E7C" font-weight="700" paint-order="stroke" stroke="white" stroke-width="3">C6</text><line x1="676.81" y1="314.89" x2="722.82" y2="315.83" stroke="#0072B2" stroke-width="1.2"/><polygon points="728.81,315.95 722.75,318.83 722.88,312.83" fill="#0072B2"/><text x="734.81" y="318.95" font-size="11" fill="#0072B2" font-weight="700" paint-order="stroke" stroke="white" stroke-width="3">C0</text><line x1="537.00" y1="314.89" x2="583.27" y2="329.18" stroke="#D55E00" stroke-width="1.2"/><polygon points="589.00,330.95 582.38,332.05 584.15,326.31" fill="#D55E00"/><text x="595.00" y="333.95" font-size="11" fill="#D55E00" font-weight="700" paint-order="stroke" stroke="white" stroke-width="3">C1</text><line x1="397.19" y1="314.89" x2="444.03" y2="342.88" stroke="#332288" stroke-width="1.2"/><polygon points="449.19,345.95 442.50,345.45 445.57,340.30" fill="#332288"/><text x="455.19" y="348.95" font-size="11" fill="#332288" font-weight="700" paint-order="stroke" stroke="white" stroke-width="3">N23</text><line x1="397.19" y1="321.18" x2="444.42" y2="357.31" stroke="#E69F00" stroke-width="1.2"/><polygon points="449.19,360.95 442.60,359.69 446.24,354.92" fill="#E69F00"/><text x="455.19" y="363.95" font-size="11" fill="#E69F00" font-weight="700" paint-order="stroke" stroke="white" stroke-width="3">C4</text><line x1="467.09" y1="335.37" x2="514.36" y2="372.26" stroke="#117733" stroke-width="1.2"/><polygon points="519.09,375.95 512.52,374.63 516.21,369.90" fill="#117733"/><text x="525.09" y="378.95" font-size="11" fill="#117733" font-weight="700" paint-order="stroke" stroke="white" stroke-width="3">N8</text><line x1="397.19" y1="343.46" x2="444.75" y2="386.91" stroke="#56B4E9" stroke-width="1.2"/><polygon points="449.19,390.95 442.73,389.12 446.78,384.69" fill="#56B4E9"/><text x="455.19" y="393.95" font-size="11" fill="#56B4E9" font-weight="700" paint-order="stroke" stroke="white" stroke-width="3">C5</text><line x1="327.28" y1="352.41" x2="375.10" y2="401.65" stroke="#222222" stroke-width="1.2"/><polygon points="379.28,405.95 372.95,403.74 377.25,399.56" fill="#222222"/><text x="385.28" y="408.95" font-size="11" fill="#222222" font-weight="700" paint-order="stroke" stroke="white" stroke-width="3">C7</text><line x1="467.09" y1="352.41" x2="515.47" y2="416.17" stroke="#7A3E00" stroke-width="1.2"/><polygon points="519.09,420.95 513.08,417.99 517.86,414.36" fill="#7A3E00"/><text x="525.09" y="423.95" font-size="11" fill="#7A3E00" font-weight="700" paint-order="stroke" stroke="white" stroke-width="3">N6</text><line x1="467.09" y1="373.75" x2="515.24" y2="431.35" stroke="#A0006D" stroke-width="1.2"/><polygon points="519.09,435.95 512.94,433.27 517.55,429.42" fill="#A0006D"/><text x="525.09" y="438.95" font-size="11" fill="#A0006D" font-weight="700" paint-order="stroke" stroke="white" stroke-width="3">N3</text>
<line x1="1016" y1="74.00" x2="1034" y2="74.00" stroke="#0072B2" stroke-width="2" stroke-dasharray="5 3"/><g><title>C0</title><circle cx="1025.00" cy="74.00" r="4" stroke="#0072B2" stroke-width="1.6" fill="white"/></g><text x="1040" y="78.00" font-size="11">C0</text><line x1="1016" y1="92.00" x2="1034" y2="92.00" stroke="#D55E00" stroke-width="2" stroke-dasharray="5 3"/><g><title>C1</title><rect x="1021.20" y="88.20" width="7.6" height="7.6" stroke="#D55E00" stroke-width="1.6" fill="white"/></g><text x="1040" y="96.00" font-size="11">C1</text><line x1="1016" y1="110.00" x2="1034" y2="110.00" stroke="#009E73" stroke-width="2" stroke-dasharray="5 3"/><g><title>C2</title><polygon points="1025.00,105.40 1020.70,113.60 1029.30,113.60" stroke="#009E73" stroke-width="1.6" fill="white"/></g><text x="1040" y="114.00" font-size="11">C2</text><line x1="1016" y1="128.00" x2="1034" y2="128.00" stroke="#E69F00" stroke-width="2" stroke-dasharray="5 3"/><g><title>C4</title><polygon points="1020.70,124.40 1029.30,124.40 1025.00,132.60" stroke="#E69F00" stroke-width="1.6" fill="white"/></g><text x="1040" y="132.00" font-size="11">C4</text><line x1="1016" y1="146.00" x2="1034" y2="146.00" stroke="#56B4E9" stroke-width="2" stroke-dasharray="5 3"/><g><title>C5</title><path d="M 1021.00 146.00 H 1029.00 M 1025.00 142.00 V 150.00" stroke="#56B4E9" stroke-width="2" fill="none"/></g><text x="1040" y="150.00" font-size="11">C5</text><line x1="1016" y1="164.00" x2="1034" y2="164.00" stroke="#6F4E7C" stroke-width="2" stroke-dasharray="5 3"/><g><title>C6</title><path d="M 1021.50 160.50 L 1028.50 167.50 M 1028.50 160.50 L 1021.50 167.50" stroke="#6F4E7C" stroke-width="2" fill="none"/></g><text x="1040" y="168.00" font-size="11">C6</text><line x1="1016" y1="182.00" x2="1034" y2="182.00" stroke="#222222" stroke-width="2" stroke-dasharray="5 3"/><g><title>C7</title><polygon points="1020.80,182.00 1022.90,178.30 1027.10,178.30 1029.20,182.00 1027.10,185.70 1022.90,185.70" stroke="#222222" stroke-width="1.6" fill="white"/></g><text x="1040" y="186.00" font-size="11">C7</text><line x1="1016" y1="200.00" x2="1034" y2="200.00" stroke="#A0006D" stroke-width="2"/><g><title>N3</title><circle cx="1025.00" cy="200.00" r="4" stroke="#A0006D" stroke-width="1.6" fill="#A0006D"/></g><text x="1040" y="204.00" font-size="11">N3</text><line x1="1016" y1="218.00" x2="1034" y2="218.00" stroke="#7A3E00" stroke-width="2"/><g><title>N6</title><rect x="1021.20" y="214.20" width="7.6" height="7.6" stroke="#7A3E00" stroke-width="1.6" fill="#7A3E00"/></g><text x="1040" y="222.00" font-size="11">N6</text><line x1="1016" y1="236.00" x2="1034" y2="236.00" stroke="#117733" stroke-width="2"/><g><title>N8</title><polygon points="1025.00,231.40 1020.70,239.60 1029.30,239.60" stroke="#117733" stroke-width="1.6" fill="#117733"/></g><text x="1040" y="240.00" font-size="11">N8</text><line x1="1016" y1="254.00" x2="1034" y2="254.00" stroke="#332288" stroke-width="2"/><g><title>N23</title><polygon points="1025.00,249.50 1020.50,254.00 1025.00,258.50 1029.50,254.00" stroke="#332288" stroke-width="1.6" fill="#332288"/></g><text x="1040" y="258.00" font-size="11">N23</text>
<text x="537.0" y="694" text-anchor="middle" font-size="14">SNR (dB)</text>
<text x="22" y="347.0" text-anchor="middle" font-size="14" transform="rotate(-90 22 347.0)">BLER</text>
<text x="1016" y="692" font-size="11" fill="#555">dashed: CDD, solid: piecewise</text>
</svg>
