<svg xmlns="http://www.w3.org/2000/svg" width="1240" height="720" viewBox="0 0 1240 720">
<rect width="100%" height="100%" fill="white"/>
<text x="620.0" y="30" text-anchor="middle" font-size="18" font-family="Arial, sans-serif">Algorithm 1 estimated-CSI BLER, 36 PRB, full interleaver</text>
<line x1="84" y1="638" x2="990" y2="638" stroke="#333" stroke-width="1.2"/>
<line x1="84" y1="56" x2="84" y2="638" stroke="#333" stroke-width="1.2"/>
<line x1="117.56" y1="56" x2="117.56" y2="638" stroke="#e6e8eb"/><text x="117.56" y="662" font-size="12" text-anchor="middle">14</text><line x1="397.19" y1="56" x2="397.19" y2="638" stroke="#e6e8eb"/><text x="397.19" y="662" font-size="12" text-anchor="middle">16</text><line x1="676.81" y1="56" x2="676.81" y2="638" stroke="#e6e8eb"/><text x="676.81" y="662" font-size="12" text-anchor="middle">18</text><line x1="816.63" y1="56" x2="816.63" y2="638" stroke="#e6e8eb"/><text x="816.63" y="662" font-size="12" text-anchor="middle">19</text><line x1="956.44" y1="56" x2="956.44" y2="638" stroke="#e6e8eb"/><text x="956.44" y="662" font-size="12" text-anchor="middle">20</text><line x1="84" y1="618.52" x2="990" y2="618.52" stroke="#d9dde2"/><text x="76" y="622.52" font-size="12" text-anchor="end">1e-3</text><line x1="84" y1="405.39" x2="990" y2="405.39" stroke="#d9dde2"/><text x="76" y="409.39" font-size="12" text-anchor="end">1e-2</text><line x1="84" y1="192.26" x2="990" y2="192.26" stroke="#d9dde2"/><text x="76" y="196.26" font-size="12" text-anchor="end">1e-1</text><line x1="84" y1="554.36" x2="990" y2="554.36" stroke="#eef0f2"/><line x1="84" y1="469.55" x2="990" y2="469.55" stroke="#eef0f2"/><line x1="84" y1="341.23" x2="990" y2="341.23" stroke="#eef0f2"/><line x1="84" y1="256.42" x2="990" y2="256.42" stroke="#eef0f2"/><line x1="84" y1="128.10" x2="990" y2="128.10" stroke="#eef0f2"/>
<line x1="84" y1="192.26" x2="990" y2="192.26" stroke="#111" stroke-width="1" stroke-dasharray="5 4"/><text x="998" y="196.26" font-size="11" fill="#111">0.1</text><line x1="84" y1="405.39" x2="990" y2="405.39" stroke="#111" stroke-width="1" stroke-dasharray="5 4"/><text x="998" y="409.39" font-size="11" fill="#111">0.01</text><g><title>C4 CDD step=5</title><polygon points="113.26,109.58 121.86,109.58 117.56,117.78" stroke="#E69F00" stroke-width="1.6" fill="white"/></g><g><title>C4 CDD step=5</title><polygon points="392.89,218.43 401.49,218.43 397.19,226.63" stroke="#E69F00" stroke-width="1.6" fill="white"/></g><g><title>C4 CDD step=5</title><polygon points="672.51,316.98 681.11,316.98 676.81,325.18" stroke="#E69F00" stroke-width="1.6" fill="white"/></g><g><title>C4 CDD step=5</title><polygon points="812.33,364.26 820.93,364.26 816.63,372.46" stroke="#E69F00" stroke-width="1.6" fill="white"/></g><g><title>C4 CDD step=5</title><polygon points="952.14,428.42 960.74,428.42 956.44,436.62" stroke="#E69F00" stroke-width="1.6" fill="white"/></g><polyline points="117.56,113.18 397.19,222.03 676.81,320.58 816.63,367.86 956.44,432.02" fill="none" stroke="#E69F00" stroke-width="2.1" stroke-dasharray="5 3"/><g><title>C5 CDD step=6</title><path d="M 113.56 119.28 H 121.56 M 117.56 115.28 V 123.28" stroke="#56B4E9" stroke-width="2" fill="none"/></g><g><title>C5 CDD step=6</title><path d="M 393.19 225.28 H 401.19 M 397.19 221.28 V 229.28" stroke="#56B4E9" stroke-width="2" fill="none"/></g><g><title>C5 CDD step=6</title><path d="M 672.81 353.59 H 680.81 M 676.81 349.59 V 357.59" stroke="#56B4E9" stroke-width="2" fill="none"/></g><g><title>C5 CDD step=6</title><path d="M 812.63 432.02 H 820.63 M 816.63 428.02 V 436.02" stroke="#56B4E9" stroke-width="2" fill="none"/></g><g><title>C5 CDD step=6</title><path d="M 952.44 533.70 H 960.44 M 956.44 529.70 V 537.70" stroke="#56B4E9" stroke-width="2" fill="none"/></g><polyline points="117.56,119.28 397.19,225.28 676.81,353.59 816.63,432.02 956.44,533.70" fill="none" stroke="#56B4E9" stroke-width="2.1" stroke-dasharray="5 3"/><g><title>C6 CDD step=7</title><path d="M 114.06 109.68 L 121.06 116.68 M 121.06 109.68 L 114.06 116.68" stroke="#6F4E7C" stroke-width="2" fill="none"/></g><g><title>C6 CDD step=7</title><path d="M 393.69 221.78 L 400.69 228.78 M 400.69 221.78 L 393.69 228.78" stroke="#6F4E7C" stroke-width="2" fill="none"/></g><g><title>C6 CDD step=7</title><path d="M 673.31 428.52 L 680.31 435.52 M 680.31 428.52 L 673.31 435.52" stroke="#6F4E7C" stroke-width="2" fill="none"/></g><g><title>C6 CDD step=7</title><path d="M 813.13 428.52 L 820.13 435.52 M 820.13 428.52 L 813.13 435.52" stroke="#6F4E7C" stroke-width="2" fill="none"/></g><g><title>C6 CDD step=7</title><path d="M 952.94 530.20 L 959.94 537.20 M 959.94 530.20 L 952.94 537.20" stroke="#6F4E7C" stroke-width="2" fill="none"/></g><polyline points="117.56,113.18 397.19,225.28 676.81,432.02 816.63,432.02 956.44,533.70" fill="none" stroke="#6F4E7C" stroke-width="2.1" stroke-dasharray="5 3"/><g><title>C7 CDD step=64</title><polygon points="113.36,104.71 115.46,101.01 119.66,101.01 121.76,104.71 119.66,108.41 115.46,108.41" stroke="#222222" stroke-width="1.6" fill="white"/></g><g><title>C7 CDD step=64</title><polygon points="392.99,222.03 395.09,218.33 399.29,218.33 401.39,222.03 399.29,225.73 395.09,225.73" stroke="#222222" stroke-width="1.6" fill="white"/></g><g><title>C7 CDD step=64</title><polygon points="672.61,384.74 674.71,381.04 678.91,381.04 681.01,384.74 678.91,388.44 674.71,388.44" stroke="#222222" stroke-width="1.6" fill="white"/></g><g><title>C7 CDD step=64</title><polygon points="812.43,469.55 814.53,465.85 818.73,465.85 820.83,469.55 818.73,473.25 814.53,473.25" stroke="#222222" stroke-width="1.6" fill="white"/></g><g><title>C7 CDD step=64</title><polygon points="952.24,597.86 954.34,594.16 958.54,594.16 960.64,597.86 958.54,601.56 954.34,601.56" stroke="#222222" stroke-width="1.6" fill="white"/></g><polyline points="117.56,104.71 397.19,222.03 676.81,384.74 816.63,469.55 956.44,597.86" fill="none" stroke="#222222" stroke-width="2.1" stroke-dasharray="5 3"/><g><title>N3 NS-A0503-M1_2_3_64-LR00-S537649365</title><circle cx="117.56" cy="96.14" r="4" stroke="#A0006D" stroke-width="1.6" fill="#A0006D"/></g><g><title>N3 NS-A0503-M1_2_3_64-LR00-S537649365</title><circle cx="397.19" cy="212.92" r="4" stroke="#A0006D" stroke-width="1.6" fill="#A0006D"/></g><g><title>N3 NS-A0503-M1_2_3_64-LR00-S537649365</title><circle cx="676.81" cy="353.59" r="4" stroke="#A0006D" stroke-width="1.6" fill="#A0006D"/></g><g><title>N3 NS-A0503-M1_2_3_64-LR00-S537649365</title><circle cx="816.63" cy="533.70" r="4" stroke="#A0006D" stroke-width="1.6" fill="#A0006D"/></g><g><title>N3 NS-A0503-M1_2_3_64-LR00-S537649365</title><circle cx="956.44" cy="597.86" r="4" stroke="#A0006D" stroke-width="1.6" fill="#A0006D"/></g><polyline points="117.56,96.14 397.19,212.92 676.81,353.59 816.63,533.70 956.44,597.86" fill="none" stroke="#A0006D" stroke-width="2.1"/><g><title>N6 NS-A0501-M1_3_4_64-LR00-S537649103</title><rect x="113.76" y="95.67" width="7.6" height="7.6" stroke="#7A3E00" stroke-width="1.6" fill="#7A3E00"/></g><g><title>N6 NS-A0501-M1_3_4_64-LR00-S537649103</title><rect x="393.39" y="198.21" width="7.6" height="7.6" stroke="#7A3E00" stroke-width="1.6" fill="#7A3E00"/></g><g><title>N6 NS-A0501-M1_3_4_64-LR00-S537649103</title><rect x="673.01" y="326.53" width="7.6" height="7.6" stroke="#7A3E00" stroke-width="1.6" fill="#7A3E00"/></g><g><title>N6 NS-A0501-M1_3_4_64-LR00-S537649103</title><rect x="812.83" y="428.22" width="7.6" height="7.6" stroke="#7A3E00" stroke-width="1.6" fill="#7A3E00"/></g><g><title>N6 NS-A0501-M1_3_4_64-LR00-S537649103</title><rect x="952.64" y="465.75" width="7.6" height="7.6" stroke="#7A3E00" stroke-width="1.6" fill="#7A3E00"/></g><polyline points="117.56,99.47 397.19,202.01 676.81,330.33 816.63,432.02 956.44,469.55" fill="none" stroke="#7A3E00" stroke-width="2.1"/><g><title>N8 NS-A0494-M3_4_6_64-LR00-S535555854</title><polygon points="117.56,110.57 113.26,118.77 121.86,118.77" stroke="#117733" stroke-width="1.6" fill="#117733"/></g><g><title>N8 NS-A0494-M3_4_6_64-LR00-S535555854</title><polygon points="397.19,231.17 392.89,239.37 401.49,239.37" stroke="#117733" stroke-width="1.6" fill="#117733"/></g><g><title>N8 NS-A0494-M3_4_6_64-LR00-S535555854</title><polygon points="676.81,400.79 672.51,408.99 681.11,408.99" stroke="#117733" stroke-width="1.6" fill="#117733"/></g><g><title>N8 NS-A0494-M3_4_6_64-LR00-S535555854</title><polygon points="816.63,529.10 812.33,537.30 820.93,537.30" stroke="#117733" stroke-width="1.6" fill="#117733"/></g><g><title>N8 NS-A0494-M3_4_6_64-LR00-S535555854</title><polygon points="956.44,593.26 952.14,601.46 960.74,601.46" stroke="#117733" stroke-width="1.6" fill="#117733"/></g><polyline points="117.56,115.17 397.19,235.77 676.81,405.39 816.63,533.70 956.44,597.86" fill="none" stroke="#117733" stroke-width="2.1"/><g><title>N23 NS-A0330-M1_4_6_48-LC</title><polygon points="117.56,106.73 113.06,111.23 117.56,115.73 122.06,111.23" stroke="#332288" stroke-width="1.6" fill="#332288"/></g><g><title>N23 NS-A0330-M1_4_6_48-LC</title><polygon points="397.19,202.80 392.69,207.30 397.19,211.80 401.69,207.30" stroke="#332288" stroke-width="1.6" fill="#332288"/></g><g><title>N23 NS-A0330-M1_4_6_48-LC</title><polygon points="676.81,349.09 672.31,353.59 676.81,358.09 681.31,353.59" stroke="#332288" stroke-width="1.6" fill="#332288"/></g><g><title>N23 NS-A0330-M1_4_6_48-LC</title><polygon points="816.63,427.52 812.13,432.02 816.63,436.52 821.13,432.02" stroke="#332288" stroke-width="1.6" fill="#332288"/></g><g><title>N23 NS-A0330-M1_4_6_48-LC</title><polygon points="956.44,593.36 951.94,597.86 956.44,602.36 960.94,597.86" stroke="#332288" stroke-width="1.6" fill="#332288"/></g><polyline points="117.56,111.23 397.19,207.30 676.81,353.59 816.63,432.02 956.44,597.86" fill="none" stroke="#332288" stroke-width="2.1"/><line x1="397.19" y1="225.28" x2="443.20" y2="222.62" stroke="#6F4E7C" stroke-width="1.2"/><polygon points="449.19,222.28 443.37,225.62 443.02,219.63" fill="#6F4E7C"/><text x="455.19" y="225.28" font-size="11" fill="#6F4E7C" font-weight="700" paint-order="stroke" stroke="white" stroke-width="3">C6</text><line x1="397.19" y1="235.77" x2="443.19" y2="237.10" stroke="#117733" stroke-width="1.2"/><polygon points="449.19,237.28 443.10,240.10 443.27,234.10" fill="#117733"/><text x="455.19" y="240.28" font-size="11" fill="#117733" font-weight="700" paint-order="stroke" stroke="white" stroke-width="3">N8</text><line x1="676.81" y1="320.58" x2="722.82" y2="317.92" stroke="#E69F00" stroke-width="1.2"/><polygon points="728.81,317.58 723.00,320.92 722.65,314.93" fill="#E69F00"/><text x="734.81" y="320.58" font-size="11" fill="#E69F00" font-weight="700" paint-order="stroke" stroke="white" stroke-width="3">C4</text><line x1="676.81" y1="330.33" x2="722.82" y2="332.32" stroke="#7A3E00" stroke-width="1.2"/><polygon points="728.81,332.58 722.69,335.32 722.95,329.32" fill="#7A3E00"/><text x="734.81" y="335.58" font-size="11" fill="#7A3E00" font-weight="700" paint-order="stroke" stroke="white" stroke-width="3">N6</text><line x1="676.81" y1="353.59" x2="722.82" y2="350.94" stroke="#56B4E9" stroke-width="1.2"/><polygon points="728.81,350.59 723.00,353.93 722.65,347.94" fill="#56B4E9"/><text x="734.81" y="353.59" font-size="11" fill="#56B4E9" font-weight="700" paint-order="stroke" stroke="white" stroke-width="3">C5</text><line x1="676.81" y1="353.59" x2="722.97" y2="364.24" stroke="#A0006D" stroke-width="1.2"/><polygon points="728.81,365.59 722.29,367.17 723.64,361.32" fill="#A0006D"/><text x="734.81" y="368.59" font-size="11" fill="#A0006D" font-weight="700" paint-order="stroke" stroke="white" stroke-width="3">N3</text><line x1="676.81" y1="353.59" x2="723.49" y2="377.83" stroke="#332288" stroke-width="1.2"/><polygon points="728.81,380.59 722.11,380.49 724.87,375.16" fill="#332288"/><text x="734.81" y="383.59" font-size="11" fill="#332288" font-weight="700" paint-order="stroke" stroke="white" stroke-width="3">N23</text><line x1="676.81" y1="384.74" x2="722.94" y2="394.37" stroke="#222222" stroke-width="1.2"/><polygon points="728.81,395.59 722.33,397.30 723.55,391.43" fill="#222222"/><text x="734.81" y="398.59" font-size="11" fill="#222222" font-weight="700" paint-order="stroke" stroke="white" stroke-width="3">C7</text>
<line x1="1016" y1="74.00" x2="1034" y2="74.00" stroke="#E69F00" stroke-width="2" stroke-dasharray="5 3"/><g><title>C4</title><polygon points="1020.70,70.40 1029.30,70.40 1025.00,78.60" stroke="#E69F00" stroke-width="1.6" fill="white"/></g><text x="1040" y="78.00" font-size="11">C4</text><line x1="1016" y1="92.00" x2="1034" y2="92.00" stroke="#56B4E9" stroke-width="2" stroke-dasharray="5 3"/><g><title>C5</title><path d="M 1021.00 92.00 H 1029.00 M 1025.00 88.00 V 96.00" stroke="#56B4E9" stroke-width="2" fill="none"/></g><text x="1040" y="96.00" font-size="11">C5</text><line x1="1016" y1="110.00" x2="1034" y2="110.00" stroke="#6F4E7C" stroke-width="2" stroke-dasharray="5 3"/><g><title>C6</title><path d="M 1021.50 106.50 L 1028.50 113.50 M 1028.50 106.50 L 1021.50 113.50" stroke="#6F4E7C" stroke-width="2" fill="none"/></g><text x="1040" y="114.00" font-size="11">C6</text><line x1="1016" y1="128.00" x2="1034" y2="128.00" stroke="#222222" stroke-width="2" stroke-dasharray="5 3"/><g><title>C7</title><polygon points="1020.80,128.00 1022.90,124.30 1027.10,124.30 1029.20,128.00 1027.10,131.70 1022.90,131.70" stroke="#222222" stroke-width="1.6" fill="white"/></g><text x="1040" y="132.00" font-size="11">C7</text><line x1="1016" y1="146.00" x2="1034" y2="146.00" stroke="#A0006D" stroke-width="2"/><g><title>N3</title><circle cx="1025.00" cy="146.00" r="4" stroke="#A0006D" stroke-width="1.6" fill="#A0006D"/></g><text x="1040" y="150.00" font-size="11">N3</text><line x1="1016" y1="164.00" x2="1034" y2="164.00" stroke="#7A3E00" stroke-width="2"/><g><title>N6</title><rect x="1021.20" y="160.20" width="7.6" height="7.6" stroke="#7A3E00" stroke-width="1.6" fill="#7A3E00"/></g><text x="1040" y="168.00" font-size="11">N6</text><line x1="1016" y1="182.00" x2="1034" y2="182.00" stroke="#117733" stroke-width="2"/><g><title>N8</title><polygon points="1025.00,177.40 1020.70,185.60 1029.30,185.60" stroke="#117733" stroke-width="1.6" fill="#117733"/></g><text x="1040" y="186.00" font-size="11">N8</text><line x1="1016" y1="200.00" x2="1034" y2="200.00" stroke="#332288" stroke-width="2"/><g><title>N23</title><polygon points="1025.00,195.50 1020.50,200.00 1025.00,204.50 1029.50,200.00" stroke="#332288" stroke-width="1.6" fill="#332288"/></g><text x="1040" y="204.00" font-size="11">N23</text>
<text x="537.0" y="694" text-anchor="middle" font-size="14">SNR (dB)</text>
<text x="22" y="347.0" text-anchor="middle" font-size="14" transform="rotate(-90 22 347.0)">BLER</text>
<text x="1016" y="692" font-size="11" fill="#555">dashed: CDD, solid: piecewise</text>
</svg>
