<svg xmlns="http://www.w3.org/2000/svg" width="1240" height="720" viewBox="0 0 1240 720">
<rect width="100%" height="100%" fill="white"/>
<text x="620.0" y="30" text-anchor="middle" font-size="18" font-family="Arial, sans-serif">Algorithm 1 estimated-CSI BLER, 24 PRB, full interleaver</text>
<line x1="84" y1="638" x2="990" y2="638" stroke="#333" stroke-width="1.2"/>
<line x1="84" y1="56" x2="84" y2="638" stroke="#333" stroke-width="1.2"/>
<line x1="84.00" y1="56" x2="84.00" y2="638" stroke="#e6e8eb"/><text x="84.00" y="662" font-size="12" text-anchor="middle">13.1</text><line x1="265.20" y1="56" x2="265.20" y2="638" stroke="#e6e8eb"/><text x="265.20" y="662" font-size="12" text-anchor="middle">17.9</text><line x1="446.40" y1="56" x2="446.40" y2="638" stroke="#e6e8eb"/><text x="446.40" y="662" font-size="12" text-anchor="middle">22.6</text><line x1="627.60" y1="56" x2="627.60" y2="638" stroke="#e6e8eb"/><text x="627.60" y="662" font-size="12" text-anchor="middle">27.4</text><line x1="808.80" y1="56" x2="808.80" y2="638" stroke="#e6e8eb"/><text x="808.80" y="662" font-size="12" text-anchor="middle">32.1</text><line x1="990.00" y1="56" x2="990.00" y2="638" stroke="#e6e8eb"/><text x="990.00" y="662" font-size="12" text-anchor="middle">36.9</text><line x1="84" y1="617.17" x2="990" y2="617.17" stroke="#d9dde2"/><text x="76" y="621.17" font-size="12" text-anchor="end">1e-3</text><line x1="84" y1="417.95" x2="990" y2="417.95" stroke="#d9dde2"/><text x="76" y="421.95" font-size="12" text-anchor="end">1e-2</text><line x1="84" y1="218.74" x2="990" y2="218.74" stroke="#d9dde2"/><text x="76" y="222.74" font-size="12" text-anchor="end">1e-1</text><line x1="84" y1="557.20" x2="990" y2="557.20" stroke="#eef0f2"/><line x1="84" y1="477.92" x2="990" y2="477.92" stroke="#eef0f2"/><line x1="84" y1="357.98" x2="990" y2="357.98" stroke="#eef0f2"/><line x1="84" y1="278.71" x2="990" y2="278.71" stroke="#eef0f2"/><line x1="84" y1="158.77" x2="990" y2="158.77" stroke="#eef0f2"/><line x1="84" y1="79.49" x2="990" y2="79.49" stroke="#eef0f2"/>
<line x1="84" y1="218.74" x2="990" y2="218.74" stroke="#111" stroke-width="1" stroke-dasharray="5 4"/><text x="998" y="222.74" font-size="11" fill="#111">0.1</text><line x1="84" y1="417.95" x2="990" y2="417.95" stroke="#111" stroke-width="1" stroke-dasharray="5 4"/><text x="998" y="421.95" font-size="11" fill="#111">0.01</text><g><title>C4 CDD step=5</title><polygon points="113.26,125.29 121.86,125.29 117.56,133.49" stroke="#E69F00" stroke-width="1.6" fill="white"/></g><g><title>C4 CDD step=5</title><polygon points="189.52,190.79 198.12,190.79 193.82,198.99" stroke="#E69F00" stroke-width="1.6" fill="white"/></g><g><title>C4 CDD step=5</title><polygon points="265.78,279.55 274.38,279.55 270.08,287.75" stroke="#E69F00" stroke-width="1.6" fill="white"/></g><g><title>C4 CDD step=5</title><polygon points="342.04,379.27 350.64,379.27 346.34,387.47" stroke="#E69F00" stroke-width="1.6" fill="white"/></g><g><title>C4 CDD step=5</title><polygon points="418.31,534.29 426.91,534.29 422.61,542.49" stroke="#E69F00" stroke-width="1.6" fill="white"/></g><g><title>C4 CDD step=5</title><polygon points="494.57,594.26 503.17,594.26 498.87,602.46" stroke="#E69F00" stroke-width="1.6" fill="white"/></g><g><title>C4 CDD step=5</title><polygon points="570.83,594.26 579.43,594.26 575.13,602.46" stroke="#E69F00" stroke-width="1.6" fill="white"/></g><g><title>C4 CDD step=5</title><polygon points="647.09,594.26 655.69,594.26 651.39,602.46" stroke="#E69F00" stroke-width="1.6" fill="white"/></g><g><title>C4 CDD step=5</title><polygon points="723.36,594.26 731.96,594.26 727.66,602.46" stroke="#E69F00" stroke-width="1.6" fill="white"/></g><g><title>C4 CDD step=5</title><polygon points="799.62,594.26 808.22,594.26 803.92,602.46" stroke="#E69F00" stroke-width="1.6" fill="white"/></g><g><title>C4 CDD step=5</title><polygon points="875.88,594.26 884.48,594.26 880.18,602.46" stroke="#E69F00" stroke-width="1.6" fill="white"/></g><g><title>C4 CDD step=5</title><polygon points="952.14,594.26 960.74,594.26 956.44,602.46" stroke="#E69F00" stroke-width="1.6" fill="white"/></g><polyline points="117.56,128.89 193.82,194.39 270.08,283.15 346.34,382.87 422.61,537.89 498.87,597.86 575.13,597.86 651.39,597.86 727.66,597.86 803.92,597.86 880.18,597.86 956.44,597.86" fill="none" stroke="#E69F00" stroke-width="2.1" stroke-dasharray="5 3"/><g><title>C5 CDD step=6</title><path d="M 113.56 132.81 H 121.56 M 117.56 128.81 V 136.81" stroke="#56B4E9" stroke-width="2" fill="none"/></g><g><title>C5 CDD step=6</title><path d="M 189.82 218.74 H 197.82 M 193.82 214.74 V 222.74" stroke="#56B4E9" stroke-width="2" fill="none"/></g><g><title>C5 CDD step=6</title><path d="M 266.08 287.82 H 274.08 M 270.08 283.82 V 291.82" stroke="#56B4E9" stroke-width="2" fill="none"/></g><g><title>C5 CDD step=6</title><path d="M 342.34 442.84 H 350.34 M 346.34 438.84 V 446.84" stroke="#56B4E9" stroke-width="2" fill="none"/></g><g><title>C5 CDD step=6</title><path d="M 418.61 537.89 H 426.61 M 422.61 533.89 V 541.89" stroke="#56B4E9" stroke-width="2" fill="none"/></g><g><title>C5 CDD step=6</title><path d="M 494.87 597.86 H 502.87 M 498.87 593.86 V 601.86" stroke="#56B4E9" stroke-width="2" fill="none"/></g><g><title>C5 CDD step=6</title><path d="M 571.13 597.86 H 579.13 M 575.13 593.86 V 601.86" stroke="#56B4E9" stroke-width="2" fill="none"/></g><g><title>C5 CDD step=6</title><path d="M 647.39 597.86 H 655.39 M 651.39 593.86 V 601.86" stroke="#56B4E9" stroke-width="2" fill="none"/></g><g><title>C5 CDD step=6</title><path d="M 723.66 597.86 H 731.66 M 727.66 593.86 V 601.86" stroke="#56B4E9" stroke-width="2" fill="none"/></g><g><title>C5 CDD step=6</title><path d="M 799.92 597.86 H 807.92 M 803.92 593.86 V 601.86" stroke="#56B4E9" stroke-width="2" fill="none"/></g><g><title>C5 CDD step=6</title><path d="M 876.18 597.86 H 884.18 M 880.18 593.86 V 601.86" stroke="#56B4E9" stroke-width="2" fill="none"/></g><g><title>C5 CDD step=6</title><path d="M 952.44 597.86 H 960.44 M 956.44 593.86 V 601.86" stroke="#56B4E9" stroke-width="2" fill="none"/></g><polyline points="117.56,132.81 193.82,218.74 270.08,287.82 346.34,442.84 422.61,537.89 498.87,597.86 575.13,597.86 651.39,597.86 727.66,597.86 803.92,597.86 880.18,597.86 956.44,597.86" fill="none" stroke="#56B4E9" stroke-width="2.1" stroke-dasharray="5 3"/><g><title>C6 CDD step=7</title><path d="M 114.06 127.72 L 121.06 134.72 M 121.06 127.72 L 114.06 134.72" stroke="#6F4E7C" stroke-width="2" fill="none"/></g><g><title>C6 CDD step=7</title><path d="M 190.32 215.24 L 197.32 222.24 M 197.32 215.24 L 190.32 222.24" stroke="#6F4E7C" stroke-width="2" fill="none"/></g><g><title>C6 CDD step=7</title><path d="M 266.58 312.48 L 273.58 319.48 M 273.58 312.48 L 266.58 319.48" stroke="#6F4E7C" stroke-width="2" fill="none"/></g><g><title>C6 CDD step=7</title><path d="M 342.84 594.36 L 349.84 601.36 M 349.84 594.36 L 342.84 601.36" stroke="#6F4E7C" stroke-width="2" fill="none"/></g><g><title>C6 CDD step=7</title><path d="M 419.11 594.36 L 426.11 601.36 M 426.11 594.36 L 419.11 601.36" stroke="#6F4E7C" stroke-width="2" fill="none"/></g><g><title>C6 CDD step=7</title><path d="M 495.37 594.36 L 502.37 601.36 M 502.37 594.36 L 495.37 601.36" stroke="#6F4E7C" stroke-width="2" fill="none"/></g><g><title>C6 CDD step=7</title><path d="M 571.63 594.36 L 578.63 601.36 M 578.63 594.36 L 571.63 601.36" stroke="#6F4E7C" stroke-width="2" fill="none"/></g><g><title>C6 CDD step=7</title><path d="M 647.89 594.36 L 654.89 601.36 M 654.89 594.36 L 647.89 601.36" stroke="#6F4E7C" stroke-width="2" fill="none"/></g><g><title>C6 CDD step=7</title><path d="M 724.16 594.36 L 731.16 601.36 M 731.16 594.36 L 724.16 601.36" stroke="#6F4E7C" stroke-width="2" fill="none"/></g><g><title>C6 CDD step=7</title><path d="M 800.42 594.36 L 807.42 601.36 M 807.42 594.36 L 800.42 601.36" stroke="#6F4E7C" stroke-width="2" fill="none"/></g><g><title>C6 CDD step=7</title><path d="M 876.68 594.36 L 883.68 601.36 M 883.68 594.36 L 876.68 601.36" stroke="#6F4E7C" stroke-width="2" fill="none"/></g><g><title>C6 CDD step=7</title><path d="M 952.94 594.36 L 959.94 601.36 M 959.94 594.36 L 952.94 601.36" stroke="#6F4E7C" stroke-width="2" fill="none"/></g><polyline points="117.56,131.22 193.82,218.74 270.08,315.98 346.34,597.86 422.61,597.86 498.87,597.86 575.13,597.86 651.39,597.86 727.66,597.86 803.92,597.86 880.18,597.86 956.44,597.86" fill="none" stroke="#6F4E7C" stroke-width="2.1" stroke-dasharray="5 3"/><g><title>C7 CDD step=64</title><polygon points="113.36,132.01 115.46,128.31 119.66,128.31 121.76,132.01 119.66,135.71 115.46,135.71" stroke="#222222" stroke-width="1.6" fill="white"/></g><g><title>C7 CDD step=64</title><polygon points="189.62,240.79 191.72,237.09 195.92,237.09 198.02,240.79 195.92,244.49 191.72,244.49" stroke="#222222" stroke-width="1.6" fill="white"/></g><g><title>C7 CDD step=64</title><polygon points="265.88,347.79 267.98,344.09 272.18,344.09 274.28,347.79 272.18,351.49 267.98,351.49" stroke="#222222" stroke-width="1.6" fill="white"/></g><g><title>C7 CDD step=64</title><polygon points="342.14,597.86 344.24,594.16 348.44,594.16 350.54,597.86 348.44,601.56 344.24,601.56" stroke="#222222" stroke-width="1.6" fill="white"/></g><g><title>C7 CDD step=64</title><polygon points="418.41,597.86 420.51,594.16 424.71,594.16 426.81,597.86 424.71,601.56 420.51,601.56" stroke="#222222" stroke-width="1.6" fill="white"/></g><g><title>C7 CDD step=64</title><polygon points="494.67,597.86 496.77,594.16 500.97,594.16 503.07,597.86 500.97,601.56 496.77,601.56" stroke="#222222" stroke-width="1.6" fill="white"/></g><g><title>C7 CDD step=64</title><polygon points="570.93,597.86 573.03,594.16 577.23,594.16 579.33,597.86 577.23,601.56 573.03,601.56" stroke="#222222" stroke-width="1.6" fill="white"/></g><g><title>C7 CDD step=64</title><polygon points="647.19,597.86 649.29,594.16 653.49,594.16 655.59,597.86 653.49,601.56 649.29,601.56" stroke="#222222" stroke-width="1.6" fill="white"/></g><g><title>C7 CDD step=64</title><polygon points="723.46,597.86 725.56,594.16 729.76,594.16 731.86,597.86 729.76,601.56 725.56,601.56" stroke="#222222" stroke-width="1.6" fill="white"/></g><g><title>C7 CDD step=64</title><polygon points="799.72,597.86 801.82,594.16 806.02,594.16 808.12,597.86 806.02,601.56 801.82,601.56" stroke="#222222" stroke-width="1.6" fill="white"/></g><g><title>C7 CDD step=64</title><polygon points="875.98,597.86 878.08,594.16 882.28,594.16 884.38,597.86 882.28,601.56 878.08,601.56" stroke="#222222" stroke-width="1.6" fill="white"/></g><g><title>C7 CDD step=64</title><polygon points="952.24,597.86 954.34,594.16 958.54,594.16 960.64,597.86 958.54,601.56 954.34,601.56" stroke="#222222" stroke-width="1.6" fill="white"/></g><polyline points="117.56,132.01 193.82,240.79 270.08,347.79 346.34,597.86 422.61,597.86 498.87,597.86 575.13,597.86 651.39,597.86 727.66,597.86 803.92,597.86 880.18,597.86 956.44,597.86" fill="none" stroke="#222222" stroke-width="2.1" stroke-dasharray="5 3"/><g><title>N3 NS-A0503-M1_2_3_64-LR00-S537649365</title><circle cx="117.56" cy="132.81" r="4" stroke="#A0006D" stroke-width="1.6" fill="#A0006D"/></g><g><title>N3 NS-A0503-M1_2_3_64-LR00-S537649365</title><circle cx="193.82" cy="220.93" r="4" stroke="#A0006D" stroke-width="1.6" fill="#A0006D"/></g><g><title>N3 NS-A0503-M1_2_3_64-LR00-S537649365</title><circle cx="270.08" cy="330.43" r="4" stroke="#A0006D" stroke-width="1.6" fill="#A0006D"/></g><g><title>N3 NS-A0503-M1_2_3_64-LR00-S537649365</title><circle cx="346.34" cy="537.89" r="4" stroke="#A0006D" stroke-width="1.6" fill="#A0006D"/></g><g><title>N3 NS-A0503-M1_2_3_64-LR00-S537649365</title><circle cx="422.61" cy="597.86" r="4" stroke="#A0006D" stroke-width="1.6" fill="#A0006D"/></g><g><title>N3 NS-A0503-M1_2_3_64-LR00-S537649365</title><circle cx="498.87" cy="597.86" r="4" stroke="#A0006D" stroke-width="1.6" fill="#A0006D"/></g><g><title>N3 NS-A0503-M1_2_3_64-LR00-S537649365</title><circle cx="575.13" cy="597.86" r="4" stroke="#A0006D" stroke-width="1.6" fill="#A0006D"/></g><g><title>N3 NS-A0503-M1_2_3_64-LR00-S537649365</title><circle cx="651.39" cy="597.86" r="4" stroke="#A0006D" stroke-width="1.6" fill="#A0006D"/></g><g><title>N3 NS-A0503-M1_2_3_64-LR00-S537649365</title><circle cx="727.66" cy="597.86" r="4" stroke="#A0006D" stroke-width="1.6" fill="#A0006D"/></g><g><title>N3 NS-A0503-M1_2_3_64-LR00-S537649365</title><circle cx="803.92" cy="597.86" r="4" stroke="#A0006D" stroke-width="1.6" fill="#A0006D"/></g><g><title>N3 NS-A0503-M1_2_3_64-LR00-S537649365</title><circle cx="880.18" cy="597.86" r="4" stroke="#A0006D" stroke-width="1.6" fill="#A0006D"/></g><g><title>N3 NS-A0503-M1_2_3_64-LR00-S537649365</title><circle cx="956.44" cy="597.86" r="4" stroke="#A0006D" stroke-width="1.6" fill="#A0006D"/></g><polyline points="117.56,132.81 193.82,220.93 270.08,330.43 346.34,537.89 422.61,597.86 498.87,597.86 575.13,597.86 651.39,597.86 727.66,597.86 803.92,597.86 880.18,597.86 956.44,597.86" fill="none" stroke="#A0006D" stroke-width="2.1"/><g><title>N6 NS-A0501-M1_3_4_64-LR00-S537649103</title><rect x="113.76" y="120.61" width="7.6" height="7.6" stroke="#7A3E00" stroke-width="1.6" fill="#7A3E00"/></g><g><title>N6 NS-A0501-M1_3_4_64-LR00-S537649103</title><rect x="190.02" y="206.69" width="7.6" height="7.6" stroke="#7A3E00" stroke-width="1.6" fill="#7A3E00"/></g><g><title>N6 NS-A0501-M1_3_4_64-LR00-S537649103</title><rect x="266.28" y="354.18" width="7.6" height="7.6" stroke="#7A3E00" stroke-width="1.6" fill="#7A3E00"/></g><g><title>N6 NS-A0501-M1_3_4_64-LR00-S537649103</title><rect x="342.54" y="534.09" width="7.6" height="7.6" stroke="#7A3E00" stroke-width="1.6" fill="#7A3E00"/></g><g><title>N6 NS-A0501-M1_3_4_64-LR00-S537649103</title><rect x="418.81" y="534.09" width="7.6" height="7.6" stroke="#7A3E00" stroke-width="1.6" fill="#7A3E00"/></g><g><title>N6 NS-A0501-M1_3_4_64-LR00-S537649103</title><rect x="495.07" y="594.06" width="7.6" height="7.6" stroke="#7A3E00" stroke-width="1.6" fill="#7A3E00"/></g><g><title>N6 NS-A0501-M1_3_4_64-LR00-S537649103</title><rect x="571.33" y="594.06" width="7.6" height="7.6" stroke="#7A3E00" stroke-width="1.6" fill="#7A3E00"/></g><g><title>N6 NS-A0501-M1_3_4_64-LR00-S537649103</title><rect x="647.59" y="594.06" width="7.6" height="7.6" stroke="#7A3E00" stroke-width="1.6" fill="#7A3E00"/></g><g><title>N6 NS-A0501-M1_3_4_64-LR00-S537649103</title><rect x="723.86" y="594.06" width="7.6" height="7.6" stroke="#7A3E00" stroke-width="1.6" fill="#7A3E00"/></g><g><title>N6 NS-A0501-M1_3_4_64-LR00-S537649103</title><rect x="800.12" y="594.06" width="7.6" height="7.6" stroke="#7A3E00" stroke-width="1.6" fill="#7A3E00"/></g><g><title>N6 NS-A0501-M1_3_4_64-LR00-S537649103</title><rect x="876.38" y="594.06" width="7.6" height="7.6" stroke="#7A3E00" stroke-width="1.6" fill="#7A3E00"/></g><g><title>N6 NS-A0501-M1_3_4_64-LR00-S537649103</title><rect x="952.64" y="594.06" width="7.6" height="7.6" stroke="#7A3E00" stroke-width="1.6" fill="#7A3E00"/></g><polyline points="117.56,124.41 193.82,210.49 270.08,357.98 346.34,537.89 422.61,537.89 498.87,597.86 575.13,597.86 651.39,597.86 727.66,597.86 803.92,597.86 880.18,597.86 956.44,597.86" fill="none" stroke="#7A3E00" stroke-width="2.1"/><g><title>N8 NS-A0494-M3_4_6_64-LR00-S535555854</title><polygon points="117.56,91.54 113.26,99.74 121.86,99.74" stroke="#117733" stroke-width="1.6" fill="#117733"/></g><g><title>N8 NS-A0494-M3_4_6_64-LR00-S535555854</title><polygon points="193.82,135.73 189.52,143.93 198.12,143.93" stroke="#117733" stroke-width="1.6" fill="#117733"/></g><g><title>N8 NS-A0494-M3_4_6_64-LR00-S535555854</title><polygon points="270.08,173.48 265.78,181.68 274.38,181.68" stroke="#117733" stroke-width="1.6" fill="#117733"/></g><g><title>N8 NS-A0494-M3_4_6_64-LR00-S535555854</title><polygon points="346.34,196.58 342.04,204.78 350.64,204.78" stroke="#117733" stroke-width="1.6" fill="#117733"/></g><g><title>N8 NS-A0494-M3_4_6_64-LR00-S535555854</title><polygon points="422.61,203.95 418.31,212.15 426.91,212.15" stroke="#117733" stroke-width="1.6" fill="#117733"/></g><g><title>N8 NS-A0494-M3_4_6_64-LR00-S535555854</title><polygon points="498.87,200.19 494.57,208.39 503.17,208.39" stroke="#117733" stroke-width="1.6" fill="#117733"/></g><g><title>N8 NS-A0494-M3_4_6_64-LR00-S535555854</title><polygon points="575.13,183.50 570.83,191.70 579.43,191.70" stroke="#117733" stroke-width="1.6" fill="#117733"/></g><g><title>N8 NS-A0494-M3_4_6_64-LR00-S535555854</title><polygon points="651.39,183.50 647.09,191.70 655.69,191.70" stroke="#117733" stroke-width="1.6" fill="#117733"/></g><g><title>N8 NS-A0494-M3_4_6_64-LR00-S535555854</title><polygon points="727.66,177.63 723.36,185.83 731.96,185.83" stroke="#117733" stroke-width="1.6" fill="#117733"/></g><g><title>N8 NS-A0494-M3_4_6_64-LR00-S535555854</title><polygon points="803.92,181.99 799.62,190.19 808.22,190.19" stroke="#117733" stroke-width="1.6" fill="#117733"/></g><g><title>N8 NS-A0494-M3_4_6_64-LR00-S535555854</title><polygon points="880.18,180.51 875.88,188.71 884.48,188.71" stroke="#117733" stroke-width="1.6" fill="#117733"/></g><g><title>N8 NS-A0494-M3_4_6_64-LR00-S535555854</title><polygon points="956.44,188.17 952.14,196.37 960.74,196.37" stroke="#117733" stroke-width="1.6" fill="#117733"/></g><polyline points="117.56,96.14 193.82,140.33 270.08,178.08 346.34,201.18 422.61,208.55 498.87,204.79 575.13,188.10 651.39,188.10 727.66,182.23 803.92,186.59 880.18,185.11 956.44,192.77" fill="none" stroke="#117733" stroke-width="2.1"/><g><title>N23 NS-A0330-M1_4_6_48-LC</title><polygon points="117.56,101.05 113.06,105.55 117.56,110.05 122.06,105.55" stroke="#332288" stroke-width="1.6" fill="#332288"/></g><g><title>N23 NS-A0330-M1_4_6_48-LC</title><polygon points="193.82,177.73 189.32,182.23 193.82,186.73 198.32,182.23" stroke="#332288" stroke-width="1.6" fill="#332288"/></g><g><title>N23 NS-A0330-M1_4_6_48-LC</title><polygon points="270.08,311.48 265.58,315.98 270.08,320.48 274.58,315.98" stroke="#332288" stroke-width="1.6" fill="#332288"/></g><g><title>N23 NS-A0330-M1_4_6_48-LC</title><polygon points="346.34,473.42 341.84,477.92 346.34,482.42 350.84,477.92" stroke="#332288" stroke-width="1.6" fill="#332288"/></g><g><title>N23 NS-A0330-M1_4_6_48-LC</title><polygon points="422.61,593.36 418.11,597.86 422.61,602.36 427.11,597.86" stroke="#332288" stroke-width="1.6" fill="#332288"/></g><g><title>N23 NS-A0330-M1_4_6_48-LC</title><polygon points="498.87,593.36 494.37,597.86 498.87,602.36 503.37,597.86" stroke="#332288" stroke-width="1.6" fill="#332288"/></g><g><title>N23 NS-A0330-M1_4_6_48-LC</title><polygon points="575.13,593.36 570.63,597.86 575.13,602.36 579.63,597.86" stroke="#332288" stroke-width="1.6" fill="#332288"/></g><g><title>N23 NS-A0330-M1_4_6_48-LC</title><polygon points="651.39,593.36 646.89,597.86 651.39,602.36 655.89,597.86" stroke="#332288" stroke-width="1.6" fill="#332288"/></g><g><title>N23 NS-A0330-M1_4_6_48-LC</title><polygon points="727.66,593.36 723.16,597.86 727.66,602.36 732.16,597.86" stroke="#332288" stroke-width="1.6" fill="#332288"/></g><g><title>N23 NS-A0330-M1_4_6_48-LC</title><polygon points="803.92,593.36 799.42,597.86 803.92,602.36 808.42,597.86" stroke="#332288" stroke-width="1.6" fill="#332288"/></g><g><title>N23 NS-A0330-M1_4_6_48-LC</title><polygon points="880.18,593.36 875.68,597.86 880.18,602.36 884.68,597.86" stroke="#332288" stroke-width="1.6" fill="#332288"/></g><g><title>N23 NS-A0330-M1_4_6_48-LC</title><polygon points="956.44,593.36 951.94,597.86 956.44,602.36 960.94,597.86" stroke="#332288" stroke-width="1.6" fill="#332288"/></g><polyline points="117.56,105.55 193.82,182.23 270.08,315.98 346.34,477.92 422.61,597.86 498.87,597.86 575.13,597.86 651.39,597.86 727.66,597.86 803.92,597.86 880.18,597.86 956.44,597.86" fill="none" stroke="#332288" stroke-width="2.1"/><line x1="422.61" y1="208.55" x2="468.62" y2="205.89" stroke="#117733" stroke-width="1.2"/><polygon points="474.61,205.55 468.79,208.89 468.44,202.90" fill="#117733"/><text x="480.61" y="208.55" font-size="11" fill="#117733" font-weight="700" paint-order="stroke" stroke="white" stroke-width="3">N8</text><line x1="270.08" y1="283.15" x2="316.09" y2="280.49" stroke="#E69F00" stroke-width="1.2"/><polygon points="322.08,280.15 316.26,283.49 315.92,277.50" fill="#E69F00"/><text x="328.08" y="283.15" font-size="11" fill="#E69F00" font-weight="700" paint-order="stroke" stroke="white" stroke-width="3">C4</text><line x1="270.08" y1="287.82" x2="316.14" y2="294.31" stroke="#56B4E9" stroke-width="1.2"/><polygon points="322.08,295.15 315.72,297.28 316.56,291.34" fill="#56B4E9"/><text x="328.08" y="298.15" font-size="11" fill="#56B4E9" font-weight="700" paint-order="stroke" stroke="white" stroke-width="3">C5</text><line x1="270.08" y1="315.98" x2="316.09" y2="313.32" stroke="#6F4E7C" stroke-width="1.2"/><polygon points="322.08,312.98 316.26,316.32 315.92,310.33" fill="#6F4E7C"/><text x="328.08" y="315.98" font-size="11" fill="#6F4E7C" font-weight="700" paint-order="stroke" stroke="white" stroke-width="3">C6</text><line x1="270.08" y1="315.98" x2="316.23" y2="326.63" stroke="#332288" stroke-width="1.2"/><polygon points="322.08,327.98 315.56,329.55 316.91,323.71" fill="#332288"/><text x="328.08" y="330.98" font-size="11" fill="#332288" font-weight="700" paint-order="stroke" stroke="white" stroke-width="3">N23</text><line x1="270.08" y1="330.43" x2="316.25" y2="341.57" stroke="#A0006D" stroke-width="1.2"/><polygon points="322.08,342.98 315.54,344.49 316.95,338.66" fill="#A0006D"/><text x="328.08" y="345.98" font-size="11" fill="#A0006D" font-weight="700" paint-order="stroke" stroke="white" stroke-width="3">N3</text><line x1="270.08" y1="347.79" x2="316.19" y2="356.83" stroke="#222222" stroke-width="1.2"/><polygon points="322.08,357.98 315.62,359.77 316.77,353.88" fill="#222222"/><text x="328.08" y="360.98" font-size="11" fill="#222222" font-weight="700" paint-order="stroke" stroke="white" stroke-width="3">C7</text><line x1="270.08" y1="357.98" x2="316.32" y2="371.32" stroke="#7A3E00" stroke-width="1.2"/><polygon points="322.08,372.98 315.48,374.20 317.15,368.43" fill="#7A3E00"/><text x="328.08" y="375.98" font-size="11" fill="#7A3E00" font-weight="700" paint-order="stroke" stroke="white" stroke-width="3">N6</text>
<line x1="1016" y1="74.00" x2="1034" y2="74.00" stroke="#E69F00" stroke-width="2" stroke-dasharray="5 3"/><g><title>C4</title><polygon points="1020.70,70.40 1029.30,70.40 1025.00,78.60" stroke="#E69F00" stroke-width="1.6" fill="white"/></g><text x="1040" y="78.00" font-size="11">C4</text><line x1="1016" y1="92.00" x2="1034" y2="92.00" stroke="#56B4E9" stroke-width="2" stroke-dasharray="5 3"/><g><title>C5</title><path d="M 1021.00 92.00 H 1029.00 M 1025.00 88.00 V 96.00" stroke="#56B4E9" stroke-width="2" fill="none"/></g><text x="1040" y="96.00" font-size="11">C5</text><line x1="1016" y1="110.00" x2="1034" y2="110.00" stroke="#6F4E7C" stroke-width="2" stroke-dasharray="5 3"/><g><title>C6</title><path d="M 1021.50 106.50 L 1028.50 113.50 M 1028.50 106.50 L 1021.50 113.50" stroke="#6F4E7C" stroke-width="2" fill="none"/></g><text x="1040" y="114.00" font-size="11">C6</text><line x1="1016" y1="128.00" x2="1034" y2="128.00" stroke="#222222" stroke-width="2" stroke-dasharray="5 3"/><g><title>C7</title><polygon points="1020.80,128.00 1022.90,124.30 1027.10,124.30 1029.20,128.00 1027.10,131.70 1022.90,131.70" stroke="#222222" stroke-width="1.6" fill="white"/></g><text x="1040" y="132.00" font-size="11">C7</text><line x1="1016" y1="146.00" x2="1034" y2="146.00" stroke="#A0006D" stroke-width="2"/><g><title>N3</title><circle cx="1025.00" cy="146.00" r="4" stroke="#A0006D" stroke-width="1.6" fill="#A0006D"/></g><text x="1040" y="150.00" font-size="11">N3</text><line x1="1016" y1="164.00" x2="1034" y2="164.00" stroke="#7A3E00" stroke-width="2"/><g><title>N6</title><rect x="1021.20" y="160.20" width="7.6" height="7.6" stroke="#7A3E00" stroke-width="1.6" fill="#7A3E00"/></g><text x="1040" y="168.00" font-size="11">N6</text><line x1="1016" y1="182.00" x2="1034" y2="182.00" stroke="#117733" stroke-width="2"/><g><title>N8</title><polygon points="1025.00,177.40 1020.70,185.60 1029.30,185.60" stroke="#117733" stroke-width="1.6" fill="#117733"/></g><text x="1040" y="186.00" font-size="11">N8</text><line x1="1016" y1="200.00" x2="1034" y2="200.00" stroke="#332288" stroke-width="2"/><g><title>N23</title><polygon points="1025.00,195.50 1020.50,200.00 1025.00,204.50 1029.50,200.00" stroke="#332288" stroke-width="1.6" fill="#332288"/></g><text x="1040" y="204.00" font-size="11">N23</text>
<text x="537.0" y="694" text-anchor="middle" font-size="14">SNR (dB)</text>
<text x="22" y="347.0" text-anchor="middle" font-size="14" transform="rotate(-90 22 347.0)">BLER</text>
<text x="1016" y="692" font-size="11" fill="#555">dashed: CDD, solid: piecewise</text>
</svg>
