<svg xmlns="http://www.w3.org/2000/svg" width="1240" height="720" viewBox="0 0 1240 720">
<rect width="100%" height="100%" fill="white"/>
<text x="620.0" y="30" text-anchor="middle" font-size="18" font-family="Arial, sans-serif">Ideal-CSI BLER, 24 PRB, interleaver=full</text>
<line x1="84" y1="638" x2="990" y2="638" stroke="#333" stroke-width="1.2"/>
<line x1="84" y1="56" x2="84" y2="638" stroke="#333" stroke-width="1.2"/>
<line x1="117.56" y1="56" x2="117.56" y2="638" stroke="#e6e8eb"/><text x="117.56" y="662" font-size="12" text-anchor="middle">12</text><line x1="327.28" y1="56" x2="327.28" y2="638" stroke="#e6e8eb"/><text x="327.28" y="662" font-size="12" text-anchor="middle">14</text><line x1="432.14" y1="56" x2="432.14" y2="638" stroke="#e6e8eb"/><text x="432.14" y="662" font-size="12" text-anchor="middle">15</text><line x1="537.00" y1="56" x2="537.00" y2="638" stroke="#e6e8eb"/><text x="537.00" y="662" font-size="12" text-anchor="middle">16</text><line x1="641.86" y1="56" x2="641.86" y2="638" stroke="#e6e8eb"/><text x="641.86" y="662" font-size="12" text-anchor="middle">17</text><line x1="746.72" y1="56" x2="746.72" y2="638" stroke="#e6e8eb"/><text x="746.72" y="662" font-size="12" text-anchor="middle">18</text><line x1="956.44" y1="56" x2="956.44" y2="638" stroke="#e6e8eb"/><text x="956.44" y="662" font-size="12" text-anchor="middle">20</text><line x1="84" y1="616.94" x2="990" y2="616.94" stroke="#d9dde2"/><text x="76" y="620.94" font-size="12" text-anchor="end">1e-3</text><line x1="84" y1="420.11" x2="990" y2="420.11" stroke="#d9dde2"/><text x="76" y="424.11" font-size="12" text-anchor="end">1e-2</text><line x1="84" y1="223.27" x2="990" y2="223.27" stroke="#d9dde2"/><text x="76" y="227.27" font-size="12" text-anchor="end">1e-1</text><line x1="84" y1="557.68" x2="990" y2="557.68" stroke="#eef0f2"/><line x1="84" y1="479.36" x2="990" y2="479.36" stroke="#eef0f2"/><line x1="84" y1="360.85" x2="990" y2="360.85" stroke="#eef0f2"/><line x1="84" y1="282.53" x2="990" y2="282.53" stroke="#eef0f2"/><line x1="84" y1="164.02" x2="990" y2="164.02" stroke="#eef0f2"/><line x1="84" y1="85.69" x2="990" y2="85.69" stroke="#eef0f2"/>
<line x1="84" y1="223.27" x2="990" y2="223.27" stroke="#111" stroke-width="1" stroke-dasharray="5 4"/><text x="998" y="227.27" font-size="11" fill="#111">0.1</text><line x1="84" y1="420.11" x2="990" y2="420.11" stroke="#111" stroke-width="1" stroke-dasharray="5 4"/><text x="998" y="424.11" font-size="11" fill="#111">0.01</text><g><title>C0 CDD step=1</title><circle cx="117.56" cy="100.60" r="4" stroke="#0072B2" stroke-width="1.6" fill="white"/></g><g><title>C0 CDD step=1</title><circle cx="327.28" cy="127.95" r="4" stroke="#0072B2" stroke-width="1.6" fill="white"/></g><g><title>C0 CDD step=1</title><circle cx="432.14" cy="144.95" r="4" stroke="#0072B2" stroke-width="1.6" fill="white"/></g><g><title>C0 CDD step=1</title><circle cx="537.00" cy="162.96" r="4" stroke="#0072B2" stroke-width="1.6" fill="white"/></g><g><title>C0 CDD step=1</title><circle cx="641.86" cy="194.51" r="4" stroke="#0072B2" stroke-width="1.6" fill="white"/></g><g><title>C0 CDD step=1</title><circle cx="746.72" cy="215.13" r="4" stroke="#0072B2" stroke-width="1.6" fill="white"/></g><g><title>C0 CDD step=1</title><circle cx="956.44" cy="274.38" r="4" stroke="#0072B2" stroke-width="1.6" fill="white"/></g><polyline points="117.56,100.60 327.28,127.95 432.14,144.95 537.00,162.96 641.86,194.51 746.72,215.13 956.44,274.38" fill="none" stroke="#0072B2" stroke-width="2.1" stroke-dasharray="5 3"/><g><title>C1 CDD step=2</title><rect x="113.76" y="92.34" width="7.6" height="7.6" stroke="#D55E00" stroke-width="1.6" fill="white"/></g><g><title>C1 CDD step=2</title><rect x="323.48" y="143.75" width="7.6" height="7.6" stroke="#D55E00" stroke-width="1.6" fill="white"/></g><g><title>C1 CDD step=2</title><rect x="428.34" y="172.87" width="7.6" height="7.6" stroke="#D55E00" stroke-width="1.6" fill="white"/></g><g><title>C1 CDD step=2</title><rect x="533.20" y="198.71" width="7.6" height="7.6" stroke="#D55E00" stroke-width="1.6" fill="white"/></g><g><title>C1 CDD step=2</title><rect x="638.06" y="233.37" width="7.6" height="7.6" stroke="#D55E00" stroke-width="1.6" fill="white"/></g><g><title>C1 CDD step=2</title><rect x="742.92" y="263.14" width="7.6" height="7.6" stroke="#D55E00" stroke-width="1.6" fill="white"/></g><g><title>C1 CDD step=2</title><rect x="952.64" y="322.39" width="7.6" height="7.6" stroke="#D55E00" stroke-width="1.6" fill="white"/></g><polyline points="117.56,96.14 327.28,147.55 432.14,176.67 537.00,202.51 641.86,237.17 746.72,266.94 956.44,326.19" fill="none" stroke="#D55E00" stroke-width="2.1" stroke-dasharray="5 3"/><g><title>C2 CDD step=3</title><polygon points="117.56,97.54 113.26,105.74 121.86,105.74" stroke="#009E73" stroke-width="1.6" fill="white"/></g><g><title>C2 CDD step=3</title><polygon points="327.28,157.31 322.98,165.51 331.58,165.51" stroke="#009E73" stroke-width="1.6" fill="white"/></g><g><title>C2 CDD step=3</title><polygon points="432.14,189.91 427.84,198.11 436.44,198.11" stroke="#009E73" stroke-width="1.6" fill="white"/></g><g><title>C2 CDD step=3</title><polygon points="537.00,230.09 532.70,238.29 541.30,238.29" stroke="#009E73" stroke-width="1.6" fill="white"/></g><g><title>C2 CDD step=3</title><polygon points="641.86,258.85 637.56,267.05 646.16,267.05" stroke="#009E73" stroke-width="1.6" fill="white"/></g><g><title>C2 CDD step=3</title><polygon points="746.72,286.93 742.42,295.13 751.02,295.13" stroke="#009E73" stroke-width="1.6" fill="white"/></g><g><title>C2 CDD step=3</title><polygon points="956.44,346.18 952.14,354.38 960.74,354.38" stroke="#009E73" stroke-width="1.6" fill="white"/></g><polyline points="117.56,102.14 327.28,161.91 432.14,194.51 537.00,234.69 641.86,263.45 746.72,291.53 956.44,350.78" fill="none" stroke="#009E73" stroke-width="2.1" stroke-dasharray="5 3"/><g><title>C3 CDD step=4</title><polygon points="117.56,99.74 113.06,104.24 117.56,108.74 122.06,104.24" stroke="#CC79A7" stroke-width="1.6" fill="white"/></g><g><title>C3 CDD step=4</title><polygon points="327.28,158.46 322.78,162.96 327.28,167.46 331.78,162.96" stroke="#CC79A7" stroke-width="1.6" fill="white"/></g><g><title>C3 CDD step=4</title><polygon points="432.14,193.12 427.64,197.62 432.14,202.12 436.64,197.62" stroke="#CC79A7" stroke-width="1.6" fill="white"/></g><g><title>C3 CDD step=4</title><polygon points="537.00,237.85 532.50,242.35 537.00,246.85 541.50,242.35" stroke="#CC79A7" stroke-width="1.6" fill="white"/></g><g><title>C3 CDD step=4</title><polygon points="641.86,282.41 637.36,286.91 641.86,291.41 646.36,286.91" stroke="#CC79A7" stroke-width="1.6" fill="white"/></g><g><title>C3 CDD step=4</title><polygon points="746.72,314.85 742.22,319.35 746.72,323.85 751.22,319.35" stroke="#CC79A7" stroke-width="1.6" fill="white"/></g><g><title>C3 CDD step=4</title><polygon points="956.44,367.77 951.94,372.27 956.44,376.77 960.94,372.27" stroke="#CC79A7" stroke-width="1.6" fill="white"/></g><polyline points="117.56,104.24 327.28,162.96 432.14,197.62 537.00,242.35 641.86,286.91 746.72,319.35 956.44,372.27" fill="none" stroke="#CC79A7" stroke-width="2.1" stroke-dasharray="5 3"/><g><title>C4 CDD step=5</title><polygon points="113.26,102.79 121.86,102.79 117.56,110.99" stroke="#E69F00" stroke-width="1.6" fill="white"/></g><g><title>C4 CDD step=5</title><polygon points="322.98,164.81 331.58,164.81 327.28,173.01" stroke="#E69F00" stroke-width="1.6" fill="white"/></g><g><title>C4 CDD step=5</title><polygon points="427.84,215.50 436.44,215.50 432.14,223.70" stroke="#E69F00" stroke-width="1.6" fill="white"/></g><g><title>C4 CDD step=5</title><polygon points="532.70,250.16 541.30,250.16 537.00,258.36" stroke="#E69F00" stroke-width="1.6" fill="white"/></g><g><title>C4 CDD step=5</title><polygon points="637.56,303.52 646.16,303.52 641.86,311.72" stroke="#E69F00" stroke-width="1.6" fill="white"/></g><g><title>C4 CDD step=5</title><polygon points="742.42,368.67 751.02,368.67 746.72,376.87" stroke="#E69F00" stroke-width="1.6" fill="white"/></g><g><title>C4 CDD step=5</title><polygon points="952.14,441.10 960.74,441.10 956.44,449.30" stroke="#E69F00" stroke-width="1.6" fill="white"/></g><polyline points="117.56,106.39 327.28,168.41 432.14,219.10 537.00,253.76 641.86,307.12 746.72,372.27 956.44,444.70" fill="none" stroke="#E69F00" stroke-width="2.1" stroke-dasharray="5 3"/><g><title>C5 CDD step=6</title><path d="M 113.56 108.59 H 121.56 M 117.56 104.59 V 112.59" stroke="#56B4E9" stroke-width="2" fill="none"/></g><g><title>C5 CDD step=6</title><path d="M 323.28 183.10 H 331.28 M 327.28 179.10 V 187.10" stroke="#56B4E9" stroke-width="2" fill="none"/></g><g><title>C5 CDD step=6</title><path d="M 428.14 215.13 H 436.14 M 432.14 211.13 V 219.13" stroke="#56B4E9" stroke-width="2" fill="none"/></g><g><title>C5 CDD step=6</title><path d="M 533.00 278.36 H 541.00 M 537.00 274.36 V 282.36" stroke="#56B4E9" stroke-width="2" fill="none"/></g><g><title>C5 CDD step=6</title><path d="M 637.86 350.78 H 645.86 M 641.86 346.78 V 354.78" stroke="#56B4E9" stroke-width="2" fill="none"/></g><g><title>C5 CDD step=6</title><path d="M 742.72 444.70 H 750.72 M 746.72 440.70 V 448.70" stroke="#56B4E9" stroke-width="2" fill="none"/></g><g><title>C5 CDD step=6</title><path d="M 952.44 538.61 H 960.44 M 956.44 534.61 V 542.61" stroke="#56B4E9" stroke-width="2" fill="none"/></g><polyline points="117.56,108.59 327.28,183.10 432.14,215.13 537.00,278.36 641.86,350.78 746.72,444.70 956.44,538.61" fill="none" stroke="#56B4E9" stroke-width="2.1" stroke-dasharray="5 3"/><g><title>C6 CDD step=7</title><path d="M 114.06 110.87 L 121.06 117.87 M 121.06 110.87 L 114.06 117.87" stroke="#6F4E7C" stroke-width="2" fill="none"/></g><g><title>C6 CDD step=7</title><path d="M 323.78 182.31 L 330.78 189.31 M 330.78 182.31 L 323.78 189.31" stroke="#6F4E7C" stroke-width="2" fill="none"/></g><g><title>C6 CDD step=7</title><path d="M 428.64 241.56 L 435.64 248.56 M 435.64 241.56 L 428.64 248.56" stroke="#6F4E7C" stroke-width="2" fill="none"/></g><g><title>C6 CDD step=7</title><path d="M 533.50 309.52 L 540.50 316.52 M 540.50 309.52 L 533.50 316.52" stroke="#6F4E7C" stroke-width="2" fill="none"/></g><g><title>C6 CDD step=7</title><path d="M 638.36 381.95 L 645.36 388.95 M 645.36 381.95 L 638.36 388.95" stroke="#6F4E7C" stroke-width="2" fill="none"/></g><g><title>C6 CDD step=7</title><path d="M 743.22 416.61 L 750.22 423.61 M 750.22 416.61 L 743.22 423.61" stroke="#6F4E7C" stroke-width="2" fill="none"/></g><g><title>C6 CDD step=7</title><path d="M 952.94 594.36 L 959.94 601.36 M 959.94 594.36 L 952.94 601.36" stroke="#6F4E7C" stroke-width="2" fill="none"/></g><polyline points="117.56,114.37 327.28,185.81 432.14,245.06 537.00,313.02 641.86,385.45 746.72,420.11 956.44,597.86" fill="none" stroke="#6F4E7C" stroke-width="2.1" stroke-dasharray="5 3"/><g><title>C7 CDD step=64</title><polygon points="113.36,114.97 115.46,111.27 119.66,111.27 121.76,114.97 119.66,118.67 115.46,118.67" stroke="#222222" stroke-width="1.6" fill="white"/></g><g><title>C7 CDD step=64</title><polygon points="323.08,219.10 325.18,215.40 329.38,215.40 331.48,219.10 329.38,222.80 325.18,222.80" stroke="#222222" stroke-width="1.6" fill="white"/></g><g><title>C7 CDD step=64</title><polygon points="427.94,296.42 430.04,292.72 434.24,292.72 436.34,296.42 434.24,300.12 430.04,300.12" stroke="#222222" stroke-width="1.6" fill="white"/></g><g><title>C7 CDD step=64</title><polygon points="532.80,401.03 534.90,397.33 539.10,397.33 541.20,401.03 539.10,404.73 534.90,404.73" stroke="#222222" stroke-width="1.6" fill="white"/></g><g><title>C7 CDD step=64</title><polygon points="637.66,597.86 639.76,594.16 643.96,594.16 646.06,597.86 643.96,601.56 639.76,601.56" stroke="#222222" stroke-width="1.6" fill="white"/></g><g><title>C7 CDD step=64</title><polygon points="742.52,597.86 744.62,594.16 748.82,594.16 750.92,597.86 748.82,601.56 744.62,601.56" stroke="#222222" stroke-width="1.6" fill="white"/></g><g><title>C7 CDD step=64</title><polygon points="952.24,597.86 954.34,594.16 958.54,594.16 960.64,597.86 958.54,601.56 954.34,601.56" stroke="#222222" stroke-width="1.6" fill="white"/></g><polyline points="117.56,114.97 327.28,219.10 432.14,296.42 537.00,401.03 641.86,597.86 746.72,597.86 956.44,597.86" fill="none" stroke="#222222" stroke-width="2.1" stroke-dasharray="5 3"/><g><title>N3 NS-A0503-M1_2_3_64-LR00-S537649365</title><circle cx="117.56" cy="107.48" r="4" stroke="#A0006D" stroke-width="1.6" fill="#A0006D"/></g><g><title>N3 NS-A0503-M1_2_3_64-LR00-S537649365</title><circle cx="327.28" cy="197.62" r="4" stroke="#A0006D" stroke-width="1.6" fill="#A0006D"/></g><g><title>N3 NS-A0503-M1_2_3_64-LR00-S537649365</title><circle cx="432.14" cy="237.17" r="4" stroke="#A0006D" stroke-width="1.6" fill="#A0006D"/></g><g><title>N3 NS-A0503-M1_2_3_64-LR00-S537649365</title><circle cx="537.00" cy="319.35" r="4" stroke="#A0006D" stroke-width="1.6" fill="#A0006D"/></g><g><title>N3 NS-A0503-M1_2_3_64-LR00-S537649365</title><circle cx="641.86" cy="444.70" r="4" stroke="#A0006D" stroke-width="1.6" fill="#A0006D"/></g><g><title>N3 NS-A0503-M1_2_3_64-LR00-S537649365</title><circle cx="746.72" cy="597.86" r="4" stroke="#A0006D" stroke-width="1.6" fill="#A0006D"/></g><g><title>N3 NS-A0503-M1_2_3_64-LR00-S537649365</title><circle cx="956.44" cy="597.86" r="4" stroke="#A0006D" stroke-width="1.6" fill="#A0006D"/></g><polyline points="117.56,107.48 327.28,197.62 432.14,237.17 537.00,319.35 641.86,444.70 746.72,597.86 956.44,597.86" fill="none" stroke="#A0006D" stroke-width="2.1"/><g><title>N6 NS-A0501-M1_3_4_64-LR00-S537649103</title><rect x="113.76" y="102.59" width="7.6" height="7.6" stroke="#7A3E00" stroke-width="1.6" fill="#7A3E00"/></g><g><title>N6 NS-A0501-M1_3_4_64-LR00-S537649103</title><rect x="323.48" y="197.05" width="7.6" height="7.6" stroke="#7A3E00" stroke-width="1.6" fill="#7A3E00"/></g><g><title>N6 NS-A0501-M1_3_4_64-LR00-S537649103</title><rect x="428.34" y="241.26" width="7.6" height="7.6" stroke="#7A3E00" stroke-width="1.6" fill="#7A3E00"/></g><g><title>N6 NS-A0501-M1_3_4_64-LR00-S537649103</title><rect x="533.20" y="309.22" width="7.6" height="7.6" stroke="#7A3E00" stroke-width="1.6" fill="#7A3E00"/></g><g><title>N6 NS-A0501-M1_3_4_64-LR00-S537649103</title><rect x="638.06" y="368.47" width="7.6" height="7.6" stroke="#7A3E00" stroke-width="1.6" fill="#7A3E00"/></g><g><title>N6 NS-A0501-M1_3_4_64-LR00-S537649103</title><rect x="742.92" y="416.31" width="7.6" height="7.6" stroke="#7A3E00" stroke-width="1.6" fill="#7A3E00"/></g><g><title>N6 NS-A0501-M1_3_4_64-LR00-S537649103</title><rect x="952.64" y="534.81" width="7.6" height="7.6" stroke="#7A3E00" stroke-width="1.6" fill="#7A3E00"/></g><polyline points="117.56,106.39 327.28,200.85 432.14,245.06 537.00,313.02 641.86,372.27 746.72,420.11 956.44,538.61" fill="none" stroke="#7A3E00" stroke-width="2.1"/><g><title>N8 NS-A0494-M3_4_6_64-LR00-S535555854</title><polygon points="117.56,112.81 113.26,121.01 121.86,121.01" stroke="#117733" stroke-width="1.6" fill="#117733"/></g><g><title>N8 NS-A0494-M3_4_6_64-LR00-S535555854</title><polygon points="327.28,191.45 322.98,199.65 331.58,199.65" stroke="#117733" stroke-width="1.6" fill="#117733"/></g><g><title>N8 NS-A0494-M3_4_6_64-LR00-S535555854</title><polygon points="432.14,232.57 427.84,240.77 436.44,240.77" stroke="#117733" stroke-width="1.6" fill="#117733"/></g><g><title>N8 NS-A0494-M3_4_6_64-LR00-S535555854</title><polygon points="537.00,291.82 532.70,300.02 541.30,300.02" stroke="#117733" stroke-width="1.6" fill="#117733"/></g><g><title>N8 NS-A0494-M3_4_6_64-LR00-S535555854</title><polygon points="641.86,380.85 637.56,389.05 646.16,389.05" stroke="#117733" stroke-width="1.6" fill="#117733"/></g><g><title>N8 NS-A0494-M3_4_6_64-LR00-S535555854</title><polygon points="746.72,440.10 742.42,448.30 751.02,448.30" stroke="#117733" stroke-width="1.6" fill="#117733"/></g><g><title>N8 NS-A0494-M3_4_6_64-LR00-S535555854</title><polygon points="956.44,593.26 952.14,601.46 960.74,601.46" stroke="#117733" stroke-width="1.6" fill="#117733"/></g><polyline points="117.56,117.41 327.28,196.05 432.14,237.17 537.00,296.42 641.86,385.45 746.72,444.70 956.44,597.86" fill="none" stroke="#117733" stroke-width="2.1"/><g><title>N23 NS-A0330-M1_4_6_48-LC</title><polygon points="117.56,96.61 113.06,101.11 117.56,105.61 122.06,101.11" stroke="#332288" stroke-width="1.6" fill="#332288"/></g><g><title>N23 NS-A0330-M1_4_6_48-LC</title><polygon points="327.28,172.17 322.78,176.67 327.28,181.17 331.78,176.67" stroke="#332288" stroke-width="1.6" fill="#332288"/></g><g><title>N23 NS-A0330-M1_4_6_48-LC</title><polygon points="432.14,230.19 427.64,234.69 432.14,239.19 436.64,234.69" stroke="#332288" stroke-width="1.6" fill="#332288"/></g><g><title>N23 NS-A0330-M1_4_6_48-LC</title><polygon points="537.00,297.10 532.50,301.60 537.00,306.10 541.50,301.60" stroke="#332288" stroke-width="1.6" fill="#332288"/></g><g><title>N23 NS-A0330-M1_4_6_48-LC</title><polygon points="641.86,396.53 637.36,401.03 641.86,405.53 646.36,401.03" stroke="#332288" stroke-width="1.6" fill="#332288"/></g><g><title>N23 NS-A0330-M1_4_6_48-LC</title><polygon points="746.72,534.11 742.22,538.61 746.72,543.11 751.22,538.61" stroke="#332288" stroke-width="1.6" fill="#332288"/></g><g><title>N23 NS-A0330-M1_4_6_48-LC</title><polygon points="956.44,593.36 951.94,597.86 956.44,602.36 960.94,597.86" stroke="#332288" stroke-width="1.6" fill="#332288"/></g><polyline points="117.56,101.11 327.28,176.67 432.14,234.69 537.00,301.60 641.86,401.03 746.72,538.61 956.44,597.86" fill="none" stroke="#332288" stroke-width="2.1"/><line x1="956.44" y1="274.38" x2="957.79" y2="276.03" stroke="#0072B2" stroke-width="1.2"/><polygon points="954.00,271.38 960.12,274.14 955.46,277.93" fill="#0072B2"/><text x="960.00" y="274.38" font-size="11" fill="#0072B2" font-weight="700" paint-order="stroke" stroke="white" stroke-width="3">C0</text><line x1="432.14" y1="296.42" x2="478.15" y2="293.76" stroke="#222222" stroke-width="1.2"/><polygon points="484.14,293.42 478.32,296.76 477.98,290.77" fill="#222222"/><text x="490.14" y="296.42" font-size="11" fill="#222222" font-weight="700" paint-order="stroke" stroke="white" stroke-width="3">C7</text><line x1="537.00" y1="296.42" x2="583.15" y2="307.07" stroke="#117733" stroke-width="1.2"/><polygon points="589.00,308.42 582.48,309.99 583.83,304.15" fill="#117733"/><text x="595.00" y="311.42" font-size="11" fill="#117733" font-weight="700" paint-order="stroke" stroke="white" stroke-width="3">N8</text><line x1="537.00" y1="301.60" x2="583.47" y2="321.10" stroke="#332288" stroke-width="1.2"/><polygon points="589.00,323.42 582.31,323.86 584.63,318.33" fill="#332288"/><text x="595.00" y="326.42" font-size="11" fill="#332288" font-weight="700" paint-order="stroke" stroke="white" stroke-width="3">N23</text><line x1="641.86" y1="307.12" x2="688.72" y2="335.32" stroke="#E69F00" stroke-width="1.2"/><polygon points="693.86,338.42 687.17,337.89 690.27,332.75" fill="#E69F00"/><text x="699.86" y="341.42" font-size="11" fill="#E69F00" font-weight="700" paint-order="stroke" stroke="white" stroke-width="3">C4</text><line x1="537.00" y1="313.02" x2="584.26" y2="349.74" stroke="#6F4E7C" stroke-width="1.2"/><polygon points="589.00,353.42 582.42,352.11 586.10,347.37" fill="#6F4E7C"/><text x="595.00" y="356.42" font-size="11" fill="#6F4E7C" font-weight="700" paint-order="stroke" stroke="white" stroke-width="3">C6</text><line x1="537.00" y1="313.02" x2="584.89" y2="364.04" stroke="#7A3E00" stroke-width="1.2"/><polygon points="589.00,368.42 582.71,366.10 587.08,361.99" fill="#7A3E00"/><text x="595.00" y="371.42" font-size="11" fill="#7A3E00" font-weight="700" paint-order="stroke" stroke="white" stroke-width="3">N6</text><line x1="746.72" y1="319.35" x2="794.94" y2="378.76" stroke="#CC79A7" stroke-width="1.2"/><polygon points="798.72,383.42 792.61,380.65 797.27,376.87" fill="#CC79A7"/><text x="804.72" y="386.42" font-size="11" fill="#CC79A7" font-weight="700" paint-order="stroke" stroke="white" stroke-width="3">C3</text><line x1="537.00" y1="319.35" x2="585.70" y2="393.41" stroke="#A0006D" stroke-width="1.2"/><polygon points="589.00,398.42 583.20,395.05 588.21,391.76" fill="#A0006D"/><text x="595.00" y="401.42" font-size="11" fill="#A0006D" font-weight="700" paint-order="stroke" stroke="white" stroke-width="3">N3</text><line x1="956.44" y1="326.19" x2="954.17" y2="407.42" stroke="#D55E00" stroke-width="1.2"/><polygon points="954.00,413.42 951.17,407.34 957.17,407.51" fill="#D55E00"/><text x="960.00" y="416.42" font-size="11" fill="#D55E00" font-weight="700" paint-order="stroke" stroke="white" stroke-width="3">C1</text><line x1="956.44" y1="350.78" x2="954.19" y2="422.42" stroke="#009E73" stroke-width="1.2"/><polygon points="954.00,428.42 951.19,422.33 957.19,422.52" fill="#009E73"/><text x="960.00" y="431.42" font-size="11" fill="#009E73" font-weight="700" paint-order="stroke" stroke="white" stroke-width="3">C2</text><line x1="641.86" y1="350.78" x2="690.92" y2="438.19" stroke="#56B4E9" stroke-width="1.2"/><polygon points="693.86,443.42 688.31,439.66 693.54,436.72" fill="#56B4E9"/><text x="699.86" y="446.42" font-size="11" fill="#56B4E9" font-weight="700" paint-order="stroke" stroke="white" stroke-width="3">C5</text>
<line x1="1016" y1="74.00" x2="1034" y2="74.00" stroke="#0072B2" stroke-width="2" stroke-dasharray="5 3"/><g><title>C0</title><circle cx="1025.00" cy="74.00" r="4" stroke="#0072B2" stroke-width="1.6" fill="white"/></g><text x="1040" y="78.00" font-size="11">C0</text><line x1="1016" y1="92.00" x2="1034" y2="92.00" stroke="#D55E00" stroke-width="2" stroke-dasharray="5 3"/><g><title>C1</title><rect x="1021.20" y="88.20" width="7.6" height="7.6" stroke="#D55E00" stroke-width="1.6" fill="white"/></g><text x="1040" y="96.00" font-size="11">C1</text><line x1="1016" y1="110.00" x2="1034" y2="110.00" stroke="#009E73" stroke-width="2" stroke-dasharray="5 3"/><g><title>C2</title><polygon points="1025.00,105.40 1020.70,113.60 1029.30,113.60" stroke="#009E73" stroke-width="1.6" fill="white"/></g><text x="1040" y="114.00" font-size="11">C2</text><line x1="1016" y1="128.00" x2="1034" y2="128.00" stroke="#CC79A7" stroke-width="2" stroke-dasharray="5 3"/><g><title>C3</title><polygon points="1025.00,123.50 1020.50,128.00 1025.00,132.50 1029.50,128.00" stroke="#CC79A7" stroke-width="1.6" fill="white"/></g><text x="1040" y="132.00" font-size="11">C3</text><line x1="1016" y1="146.00" x2="1034" y2="146.00" stroke="#E69F00" stroke-width="2" stroke-dasharray="5 3"/><g><title>C4</title><polygon points="1020.70,142.40 1029.30,142.40 1025.00,150.60" stroke="#E69F00" stroke-width="1.6" fill="white"/></g><text x="1040" y="150.00" font-size="11">C4</text><line x1="1016" y1="164.00" x2="1034" y2="164.00" stroke="#56B4E9" stroke-width="2" stroke-dasharray="5 3"/><g><title>C5</title><path d="M 1021.00 164.00 H 1029.00 M 1025.00 160.00 V 168.00" stroke="#56B4E9" stroke-width="2" fill="none"/></g><text x="1040" y="168.00" font-size="11">C5</text><line x1="1016" y1="182.00" x2="1034" y2="182.00" stroke="#6F4E7C" stroke-width="2" stroke-dasharray="5 3"/><g><title>C6</title><path d="M 1021.50 178.50 L 1028.50 185.50 M 1028.50 178.50 L 1021.50 185.50" stroke="#6F4E7C" stroke-width="2" fill="none"/></g><text x="1040" y="186.00" font-size="11">C6</text><line x1="1016" y1="200.00" x2="1034" y2="200.00" stroke="#222222" stroke-width="2" stroke-dasharray="5 3"/><g><title>C7</title><polygon points="1020.80,200.00 1022.90,196.30 1027.10,196.30 1029.20,200.00 1027.10,203.70 1022.90,203.70" stroke="#222222" stroke-width="1.6" fill="white"/></g><text x="1040" y="204.00" font-size="11">C7</text><line x1="1016" y1="218.00" x2="1034" y2="218.00" stroke="#A0006D" stroke-width="2"/><g><title>N3</title><circle cx="1025.00" cy="218.00" r="4" stroke="#A0006D" stroke-width="1.6" fill="#A0006D"/></g><text x="1040" y="222.00" font-size="11">N3</text><line x1="1016" y1="236.00" x2="1034" y2="236.00" stroke="#7A3E00" stroke-width="2"/><g><title>N6</title><rect x="1021.20" y="232.20" width="7.6" height="7.6" stroke="#7A3E00" stroke-width="1.6" fill="#7A3E00"/></g><text x="1040" y="240.00" font-size="11">N6</text><line x1="1016" y1="254.00" x2="1034" y2="254.00" stroke="#117733" stroke-width="2"/><g><title>N8</title><polygon points="1025.00,249.40 1020.70,257.60 1029.30,257.60" stroke="#117733" stroke-width="1.6" fill="#117733"/></g><text x="1040" y="258.00" font-size="11">N8</text><line x1="1016" y1="272.00" x2="1034" y2="272.00" stroke="#332288" stroke-width="2"/><g><title>N23</title><polygon points="1025.00,267.50 1020.50,272.00 1025.00,276.50 1029.50,272.00" stroke="#332288" stroke-width="1.6" fill="#332288"/></g><text x="1040" y="276.00" font-size="11">N23</text>
<text x="537.0" y="694" text-anchor="middle" font-size="14">SNR (dB)</text>
<text x="22" y="347.0" text-anchor="middle" font-size="14" transform="rotate(-90 22 347.0)">BLER</text>
<text x="1016" y="692" font-size="11" fill="#555">dashed: CDD, solid: piecewise</text>
</svg>
