<svg xmlns="http://www.w3.org/2000/svg" width="1240" height="720" viewBox="0 0 1240 720">
<rect width="100%" height="100%" fill="white"/>
<text x="620.0" y="30" text-anchor="middle" font-size="18" font-family="Arial, sans-serif">Ideal-CSI BLER, 24 PRB, interleaver=none</text>
<line x1="84" y1="638" x2="990" y2="638" stroke="#333" stroke-width="1.2"/>
<line x1="84" y1="56" x2="84" y2="638" stroke="#333" stroke-width="1.2"/>
<line x1="117.56" y1="56" x2="117.56" y2="638" stroke="#e6e8eb"/><text x="117.56" y="662" font-size="12" text-anchor="middle">12</text><line x1="327.28" y1="56" x2="327.28" y2="638" stroke="#e6e8eb"/><text x="327.28" y="662" font-size="12" text-anchor="middle">14</text><line x1="432.14" y1="56" x2="432.14" y2="638" stroke="#e6e8eb"/><text x="432.14" y="662" font-size="12" text-anchor="middle">15</text><line x1="537.00" y1="56" x2="537.00" y2="638" stroke="#e6e8eb"/><text x="537.00" y="662" font-size="12" text-anchor="middle">16</text><line x1="641.86" y1="56" x2="641.86" y2="638" stroke="#e6e8eb"/><text x="641.86" y="662" font-size="12" text-anchor="middle">17</text><line x1="746.72" y1="56" x2="746.72" y2="638" stroke="#e6e8eb"/><text x="746.72" y="662" font-size="12" text-anchor="middle">18</text><line x1="956.44" y1="56" x2="956.44" y2="638" stroke="#e6e8eb"/><text x="956.44" y="662" font-size="12" text-anchor="middle">20</text><line x1="84" y1="616.97" x2="990" y2="616.97" stroke="#d9dde2"/><text x="76" y="620.97" font-size="12" text-anchor="end">1e-3</text><line x1="84" y1="419.76" x2="990" y2="419.76" stroke="#d9dde2"/><text x="76" y="423.76" font-size="12" text-anchor="end">1e-2</text><line x1="84" y1="222.55" x2="990" y2="222.55" stroke="#d9dde2"/><text x="76" y="226.55" font-size="12" text-anchor="end">1e-1</text><line x1="84" y1="557.61" x2="990" y2="557.61" stroke="#eef0f2"/><line x1="84" y1="479.13" x2="990" y2="479.13" stroke="#eef0f2"/><line x1="84" y1="360.39" x2="990" y2="360.39" stroke="#eef0f2"/><line x1="84" y1="281.91" x2="990" y2="281.91" stroke="#eef0f2"/><line x1="84" y1="163.18" x2="990" y2="163.18" stroke="#eef0f2"/><line x1="84" y1="84.70" x2="990" y2="84.70" stroke="#eef0f2"/>
<line x1="84" y1="222.55" x2="990" y2="222.55" stroke="#111" stroke-width="1" stroke-dasharray="5 4"/><text x="998" y="226.55" font-size="11" fill="#111">0.1</text><line x1="84" y1="419.76" x2="990" y2="419.76" stroke="#111" stroke-width="1" stroke-dasharray="5 4"/><text x="998" y="423.76" font-size="11" fill="#111">0.01</text><g><title>C0 CDD step=1</title><circle cx="117.56" cy="100.15" r="4" stroke="#0072B2" stroke-width="1.6" fill="white"/></g><g><title>C0 CDD step=1</title><circle cx="327.28" cy="129.17" r="4" stroke="#0072B2" stroke-width="1.6" fill="white"/></g><g><title>C0 CDD step=1</title><circle cx="432.14" cy="143.22" r="4" stroke="#0072B2" stroke-width="1.6" fill="white"/></g><g><title>C0 CDD step=1</title><circle cx="537.00" cy="163.18" r="4" stroke="#0072B2" stroke-width="1.6" fill="white"/></g><g><title>C0 CDD step=1</title><circle cx="641.86" cy="187.82" r="4" stroke="#0072B2" stroke-width="1.6" fill="white"/></g><g><title>C0 CDD step=1</title><circle cx="746.72" cy="220.43" r="4" stroke="#0072B2" stroke-width="1.6" fill="white"/></g><g><title>C0 CDD step=1</title><circle cx="956.44" cy="281.91" r="4" stroke="#0072B2" stroke-width="1.6" fill="white"/></g><polyline points="117.56,100.15 327.28,129.17 432.14,143.22 537.00,163.18 641.86,187.82 746.72,220.43 956.44,281.91" fill="none" stroke="#0072B2" stroke-width="2.1" stroke-dasharray="5 3"/><g><title>C1 CDD step=2</title><rect x="113.76" y="92.34" width="7.6" height="7.6" stroke="#D55E00" stroke-width="1.6" fill="white"/></g><g><title>C1 CDD step=2</title><rect x="323.48" y="144.66" width="7.6" height="7.6" stroke="#D55E00" stroke-width="1.6" fill="white"/></g><g><title>C1 CDD step=2</title><rect x="428.34" y="166.06" width="7.6" height="7.6" stroke="#D55E00" stroke-width="1.6" fill="white"/></g><g><title>C1 CDD step=2</title><rect x="533.20" y="196.28" width="7.6" height="7.6" stroke="#D55E00" stroke-width="1.6" fill="white"/></g><g><title>C1 CDD step=2</title><rect x="638.06" y="232.67" width="7.6" height="7.6" stroke="#D55E00" stroke-width="1.6" fill="white"/></g><g><title>C1 CDD step=2</title><rect x="742.92" y="269.95" width="7.6" height="7.6" stroke="#D55E00" stroke-width="1.6" fill="white"/></g><g><title>C1 CDD step=2</title><rect x="952.64" y="321.87" width="7.6" height="7.6" stroke="#D55E00" stroke-width="1.6" fill="white"/></g><polyline points="117.56,96.14 327.28,148.46 432.14,169.86 537.00,200.08 641.86,236.47 746.72,273.75 956.44,325.67" fill="none" stroke="#D55E00" stroke-width="2.1" stroke-dasharray="5 3"/><g><title>C2 CDD step=3</title><polygon points="117.56,98.15 113.26,106.35 121.86,106.35" stroke="#009E73" stroke-width="1.6" fill="white"/></g><g><title>C2 CDD step=3</title><polygon points="327.28,148.49 322.98,156.69 331.58,156.69" stroke="#009E73" stroke-width="1.6" fill="white"/></g><g><title>C2 CDD step=3</title><polygon points="432.14,184.66 427.84,192.86 436.44,192.86" stroke="#009E73" stroke-width="1.6" fill="white"/></g><g><title>C2 CDD step=3</title><polygon points="537.00,229.38 532.70,237.58 541.30,237.58" stroke="#009E73" stroke-width="1.6" fill="white"/></g><g><title>C2 CDD step=3</title><polygon points="641.86,261.70 637.56,269.90 646.16,269.90" stroke="#009E73" stroke-width="1.6" fill="white"/></g><g><title>C2 CDD step=3</title><polygon points="746.72,291.23 742.42,299.43 751.02,299.43" stroke="#009E73" stroke-width="1.6" fill="white"/></g><g><title>C2 CDD step=3</title><polygon points="956.44,345.71 952.14,353.91 960.74,353.91" stroke="#009E73" stroke-width="1.6" fill="white"/></g><polyline points="117.56,102.75 327.28,153.09 432.14,189.26 537.00,233.98 641.86,266.30 746.72,295.83 956.44,350.31" fill="none" stroke="#009E73" stroke-width="2.1" stroke-dasharray="5 3"/><g><title>C3 CDD step=4</title><polygon points="117.56,96.16 113.06,100.66 117.56,105.16 122.06,100.66" stroke="#CC79A7" stroke-width="1.6" fill="white"/></g><g><title>C3 CDD step=4</title><polygon points="327.28,160.85 322.78,165.35 327.28,169.85 331.78,165.35" stroke="#CC79A7" stroke-width="1.6" fill="white"/></g><g><title>C3 CDD step=4</title><polygon points="432.14,195.58 427.64,200.08 432.14,204.58 436.64,200.08" stroke="#CC79A7" stroke-width="1.6" fill="white"/></g><g><title>C3 CDD step=4</title><polygon points="537.00,234.52 532.50,239.02 537.00,243.52 541.50,239.02" stroke="#CC79A7" stroke-width="1.6" fill="white"/></g><g><title>C3 CDD step=4</title><polygon points="641.86,269.25 637.36,273.75 641.86,278.25 646.36,273.75" stroke="#CC79A7" stroke-width="1.6" fill="white"/></g><g><title>C3 CDD step=4</title><polygon points="746.72,321.17 742.22,325.67 746.72,330.17 751.22,325.67" stroke="#CC79A7" stroke-width="1.6" fill="white"/></g><g><title>C3 CDD step=4</title><polygon points="956.44,396.15 951.94,400.65 956.44,405.15 960.94,400.65" stroke="#CC79A7" stroke-width="1.6" fill="white"/></g><polyline points="117.56,100.66 327.28,165.35 432.14,200.08 537.00,239.02 641.86,273.75 746.72,325.67 956.44,400.65" fill="none" stroke="#CC79A7" stroke-width="2.1" stroke-dasharray="5 3"/><g><title>C4 CDD step=5</title><polygon points="113.26,102.93 121.86,102.93 117.56,111.13" stroke="#E69F00" stroke-width="1.6" fill="white"/></g><g><title>C4 CDD step=5</title><polygon points="322.98,163.97 331.58,163.97 327.28,172.17" stroke="#E69F00" stroke-width="1.6" fill="white"/></g><g><title>C4 CDD step=5</title><polygon points="427.84,210.78 436.44,210.78 432.14,218.98" stroke="#E69F00" stroke-width="1.6" fill="white"/></g><g><title>C4 CDD step=5</title><polygon points="532.70,252.61 541.30,252.61 537.00,260.81" stroke="#E69F00" stroke-width="1.6" fill="white"/></g><g><title>C4 CDD step=5</title><polygon points="637.56,297.43 646.16,297.43 641.86,305.63" stroke="#E69F00" stroke-width="1.6" fill="white"/></g><g><title>C4 CDD step=5</title><polygon points="742.42,346.71 751.02,346.71 746.72,354.91" stroke="#E69F00" stroke-width="1.6" fill="white"/></g><g><title>C4 CDD step=5</title><polygon points="952.14,440.80 960.74,440.80 956.44,449.00" stroke="#E69F00" stroke-width="1.6" fill="white"/></g><polyline points="117.56,106.53 327.28,167.57 432.14,214.38 537.00,256.21 641.86,301.03 746.72,350.31 956.44,444.40" fill="none" stroke="#E69F00" stroke-width="2.1" stroke-dasharray="5 3"/><g><title>C5 CDD step=6</title><path d="M 113.56 109.34 H 121.56 M 117.56 105.34 V 113.34" stroke="#56B4E9" stroke-width="2" fill="none"/></g><g><title>C5 CDD step=6</title><path d="M 323.28 172.20 H 331.28 M 327.28 168.20 V 176.20" stroke="#56B4E9" stroke-width="2" fill="none"/></g><g><title>C5 CDD step=6</title><path d="M 428.14 226.94 H 436.14 M 432.14 222.94 V 230.94" stroke="#56B4E9" stroke-width="2" fill="none"/></g><g><title>C5 CDD step=6</title><path d="M 533.00 277.74 H 541.00 M 537.00 273.74 V 281.74" stroke="#56B4E9" stroke-width="2" fill="none"/></g><g><title>C5 CDD step=6</title><path d="M 637.86 360.39 H 645.86 M 641.86 356.39 V 364.39" stroke="#56B4E9" stroke-width="2" fill="none"/></g><g><title>C5 CDD step=6</title><path d="M 742.72 419.76 H 750.72 M 746.72 415.76 V 423.76" stroke="#56B4E9" stroke-width="2" fill="none"/></g><g><title>C5 CDD step=6</title><path d="M 952.44 597.86 H 960.44 M 956.44 593.86 V 601.86" stroke="#56B4E9" stroke-width="2" fill="none"/></g><polyline points="117.56,109.34 327.28,172.20 432.14,226.94 537.00,277.74 641.86,360.39 746.72,419.76 956.44,597.86" fill="none" stroke="#56B4E9" stroke-width="2.1" stroke-dasharray="5 3"/><g><title>C6 CDD step=7</title><path d="M 114.06 108.74 L 121.06 115.74 M 121.06 108.74 L 114.06 115.74" stroke="#6F4E7C" stroke-width="2" fill="none"/></g><g><title>C6 CDD step=7</title><path d="M 323.78 180.14 L 330.78 187.14 M 330.78 180.14 L 323.78 187.14" stroke="#6F4E7C" stroke-width="2" fill="none"/></g><g><title>C6 CDD step=7</title><path d="M 428.64 228.07 L 435.64 235.07 M 435.64 228.07 L 428.64 235.07" stroke="#6F4E7C" stroke-width="2" fill="none"/></g><g><title>C6 CDD step=7</title><path d="M 533.50 297.53 L 540.50 304.53 M 540.50 297.53 L 533.50 304.53" stroke="#6F4E7C" stroke-width="2" fill="none"/></g><g><title>C6 CDD step=7</title><path d="M 638.36 381.53 L 645.36 388.53 M 645.36 381.53 L 638.36 388.53" stroke="#6F4E7C" stroke-width="2" fill="none"/></g><g><title>C6 CDD step=7</title><path d="M 743.22 416.26 L 750.22 423.26 M 750.22 416.26 L 743.22 423.26" stroke="#6F4E7C" stroke-width="2" fill="none"/></g><g><title>C6 CDD step=7</title><path d="M 952.94 594.36 L 959.94 601.36 M 959.94 594.36 L 952.94 601.36" stroke="#6F4E7C" stroke-width="2" fill="none"/></g><polyline points="117.56,112.24 327.28,183.64 432.14,231.57 537.00,301.03 641.86,385.03 746.72,419.76 956.44,597.86" fill="none" stroke="#6F4E7C" stroke-width="2.1" stroke-dasharray="5 3"/><g><title>C7 CDD step=64</title><polygon points="113.36,118.36 115.46,114.66 119.66,114.66 121.76,118.36 119.66,122.06 115.46,122.06" stroke="#222222" stroke-width="1.6" fill="white"/></g><g><title>C7 CDD step=64</title><polygon points="323.08,222.55 325.18,218.85 329.38,218.85 331.48,222.55 329.38,226.25 325.18,226.25" stroke="#222222" stroke-width="1.6" fill="white"/></g><g><title>C7 CDD step=64</title><polygon points="427.94,312.46 430.04,308.76 434.24,308.76 436.34,312.46 434.24,316.16 430.04,316.16" stroke="#222222" stroke-width="1.6" fill="white"/></g><g><title>C7 CDD step=64</title><polygon points="532.80,444.40 534.90,440.70 539.10,440.70 541.20,444.40 539.10,448.10 534.90,448.10" stroke="#222222" stroke-width="1.6" fill="white"/></g><g><title>C7 CDD step=64</title><polygon points="637.66,538.49 639.76,534.79 643.96,534.79 646.06,538.49 643.96,542.19 639.76,542.19" stroke="#222222" stroke-width="1.6" fill="white"/></g><g><title>C7 CDD step=64</title><polygon points="742.52,597.86 744.62,594.16 748.82,594.16 750.92,597.86 748.82,601.56 744.62,601.56" stroke="#222222" stroke-width="1.6" fill="white"/></g><g><title>C7 CDD step=64</title><polygon points="952.24,597.86 954.34,594.16 958.54,594.16 960.64,597.86 958.54,601.56 954.34,601.56" stroke="#222222" stroke-width="1.6" fill="white"/></g><polyline points="117.56,118.36 327.28,222.55 432.14,312.46 537.00,444.40 641.86,538.49 746.72,597.86 956.44,597.86" fill="none" stroke="#222222" stroke-width="2.1" stroke-dasharray="5 3"/><g><title>N3 NS-A0503-M1_2_3_64-LR00-S537649365</title><circle cx="117.56" cy="104.89" r="4" stroke="#A0006D" stroke-width="1.6" fill="#A0006D"/></g><g><title>N3 NS-A0503-M1_2_3_64-LR00-S537649365</title><circle cx="327.28" cy="187.82" r="4" stroke="#A0006D" stroke-width="1.6" fill="#A0006D"/></g><g><title>N3 NS-A0503-M1_2_3_64-LR00-S537649365</title><circle cx="432.14" cy="250.09" r="4" stroke="#A0006D" stroke-width="1.6" fill="#A0006D"/></g><g><title>N3 NS-A0503-M1_2_3_64-LR00-S537649365</title><circle cx="537.00" cy="318.81" r="4" stroke="#A0006D" stroke-width="1.6" fill="#A0006D"/></g><g><title>N3 NS-A0503-M1_2_3_64-LR00-S537649365</title><circle cx="641.86" cy="479.13" r="4" stroke="#A0006D" stroke-width="1.6" fill="#A0006D"/></g><g><title>N3 NS-A0503-M1_2_3_64-LR00-S537649365</title><circle cx="746.72" cy="597.86" r="4" stroke="#A0006D" stroke-width="1.6" fill="#A0006D"/></g><g><title>N3 NS-A0503-M1_2_3_64-LR00-S537649365</title><circle cx="956.44" cy="597.86" r="4" stroke="#A0006D" stroke-width="1.6" fill="#A0006D"/></g><polyline points="117.56,104.89 327.28,187.82 432.14,250.09 537.00,318.81 641.86,479.13 746.72,597.86 956.44,597.86" fill="none" stroke="#A0006D" stroke-width="2.1"/><g><title>N6 NS-A0501-M1_3_4_64-LR00-S537649103</title><rect x="113.76" y="101.63" width="7.6" height="7.6" stroke="#7A3E00" stroke-width="1.6" fill="#7A3E00"/></g><g><title>N6 NS-A0501-M1_3_4_64-LR00-S537649103</title><rect x="323.48" y="191.47" width="7.6" height="7.6" stroke="#7A3E00" stroke-width="1.6" fill="#7A3E00"/></g><g><title>N6 NS-A0501-M1_3_4_64-LR00-S537649103</title><rect x="428.34" y="252.41" width="7.6" height="7.6" stroke="#7A3E00" stroke-width="1.6" fill="#7A3E00"/></g><g><title>N6 NS-A0501-M1_3_4_64-LR00-S537649103</title><rect x="533.20" y="302.75" width="7.6" height="7.6" stroke="#7A3E00" stroke-width="1.6" fill="#7A3E00"/></g><g><title>N6 NS-A0501-M1_3_4_64-LR00-S537649103</title><rect x="638.06" y="368.03" width="7.6" height="7.6" stroke="#7A3E00" stroke-width="1.6" fill="#7A3E00"/></g><g><title>N6 NS-A0501-M1_3_4_64-LR00-S537649103</title><rect x="742.92" y="415.96" width="7.6" height="7.6" stroke="#7A3E00" stroke-width="1.6" fill="#7A3E00"/></g><g><title>N6 NS-A0501-M1_3_4_64-LR00-S537649103</title><rect x="952.64" y="594.06" width="7.6" height="7.6" stroke="#7A3E00" stroke-width="1.6" fill="#7A3E00"/></g><polyline points="117.56,105.43 327.28,195.27 432.14,256.21 537.00,306.55 641.86,371.83 746.72,419.76 956.44,597.86" fill="none" stroke="#7A3E00" stroke-width="2.1"/><g><title>N8 NS-A0494-M3_4_6_64-LR00-S535555854</title><polygon points="117.56,108.83 113.26,117.03 121.86,117.03" stroke="#117733" stroke-width="1.6" fill="#117733"/></g><g><title>N8 NS-A0494-M3_4_6_64-LR00-S535555854</title><polygon points="327.28,189.13 322.98,197.33 331.58,197.33" stroke="#117733" stroke-width="1.6" fill="#117733"/></g><g><title>N8 NS-A0494-M3_4_6_64-LR00-S535555854</title><polygon points="432.14,226.97 427.84,235.17 436.44,235.17" stroke="#117733" stroke-width="1.6" fill="#117733"/></g><g><title>N8 NS-A0494-M3_4_6_64-LR00-S535555854</title><polygon points="537.00,286.34 532.70,294.54 541.30,294.54" stroke="#117733" stroke-width="1.6" fill="#117733"/></g><g><title>N8 NS-A0494-M3_4_6_64-LR00-S535555854</title><polygon points="641.86,367.23 637.56,375.43 646.16,375.43" stroke="#117733" stroke-width="1.6" fill="#117733"/></g><g><title>N8 NS-A0494-M3_4_6_64-LR00-S535555854</title><polygon points="746.72,474.53 742.42,482.73 751.02,482.73" stroke="#117733" stroke-width="1.6" fill="#117733"/></g><g><title>N8 NS-A0494-M3_4_6_64-LR00-S535555854</title><polygon points="956.44,593.26 952.14,601.46 960.74,601.46" stroke="#117733" stroke-width="1.6" fill="#117733"/></g><polyline points="117.56,113.43 327.28,193.73 432.14,231.57 537.00,290.94 641.86,371.83 746.72,479.13 956.44,597.86" fill="none" stroke="#117733" stroke-width="2.1"/><g><title>N23 NS-A0330-M1_4_6_48-LC</title><polygon points="117.56,94.12 113.06,98.62 117.56,103.12 122.06,98.62" stroke="#332288" stroke-width="1.6" fill="#332288"/></g><g><title>N23 NS-A0330-M1_4_6_48-LC</title><polygon points="327.28,166.52 322.78,171.02 327.28,175.52 331.78,171.02" stroke="#332288" stroke-width="1.6" fill="#332288"/></g><g><title>N23 NS-A0330-M1_4_6_48-LC</title><polygon points="432.14,229.48 427.64,233.98 432.14,238.48 436.64,233.98" stroke="#332288" stroke-width="1.6" fill="#332288"/></g><g><title>N23 NS-A0330-M1_4_6_48-LC</title><polygon points="537.00,296.53 532.50,301.03 537.00,305.53 541.50,301.03" stroke="#332288" stroke-width="1.6" fill="#332288"/></g><g><title>N23 NS-A0330-M1_4_6_48-LC</title><polygon points="641.86,396.15 637.36,400.65 641.86,405.15 646.36,400.65" stroke="#332288" stroke-width="1.6" fill="#332288"/></g><g><title>N23 NS-A0330-M1_4_6_48-LC</title><polygon points="746.72,533.99 742.22,538.49 746.72,542.99 751.22,538.49" stroke="#332288" stroke-width="1.6" fill="#332288"/></g><g><title>N23 NS-A0330-M1_4_6_48-LC</title><polygon points="956.44,593.36 951.94,597.86 956.44,602.36 960.94,597.86" stroke="#332288" stroke-width="1.6" fill="#332288"/></g><polyline points="117.56,98.62 327.28,171.02 432.14,233.98 537.00,301.03 641.86,400.65 746.72,538.49 956.44,597.86" fill="none" stroke="#332288" stroke-width="2.1"/><line x1="956.44" y1="281.91" x2="957.79" y2="283.57" stroke="#0072B2" stroke-width="1.2"/><polygon points="954.00,278.91 960.12,281.67 955.46,285.46" fill="#0072B2"/><text x="960.00" y="281.91" font-size="11" fill="#0072B2" font-weight="700" paint-order="stroke" stroke="white" stroke-width="3">C0</text><line x1="537.00" y1="290.94" x2="583.01" y2="293.57" stroke="#117733" stroke-width="1.2"/><polygon points="589.00,293.91 582.84,296.57 583.18,290.58" fill="#117733"/><text x="595.00" y="296.91" font-size="11" fill="#117733" font-weight="700" paint-order="stroke" stroke="white" stroke-width="3">N8</text><line x1="537.00" y1="301.03" x2="583.07" y2="308.01" stroke="#6F4E7C" stroke-width="1.2"/><polygon points="589.00,308.91 582.62,310.98 583.52,305.05" fill="#6F4E7C"/><text x="595.00" y="311.91" font-size="11" fill="#6F4E7C" font-weight="700" paint-order="stroke" stroke="white" stroke-width="3">C6</text><line x1="537.00" y1="301.03" x2="583.51" y2="321.50" stroke="#332288" stroke-width="1.2"/><polygon points="589.00,323.91 582.30,324.24 584.72,318.75" fill="#332288"/><text x="595.00" y="326.91" font-size="11" fill="#332288" font-weight="700" paint-order="stroke" stroke="white" stroke-width="3">N23</text><line x1="537.00" y1="306.55" x2="583.91" y2="335.74" stroke="#7A3E00" stroke-width="1.2"/><polygon points="589.00,338.91 582.32,338.29 585.49,333.20" fill="#7A3E00"/><text x="595.00" y="341.91" font-size="11" fill="#7A3E00" font-weight="700" paint-order="stroke" stroke="white" stroke-width="3">N6</text><line x1="432.14" y1="312.46" x2="479.45" y2="350.17" stroke="#222222" stroke-width="1.2"/><polygon points="484.14,353.91 477.58,352.52 481.32,347.83" fill="#222222"/><text x="490.14" y="356.91" font-size="11" fill="#222222" font-weight="700" paint-order="stroke" stroke="white" stroke-width="3">C7</text><line x1="537.00" y1="318.81" x2="584.68" y2="364.75" stroke="#A0006D" stroke-width="1.2"/><polygon points="589.00,368.91 582.60,366.91 586.76,362.59" fill="#A0006D"/><text x="595.00" y="371.91" font-size="11" fill="#A0006D" font-weight="700" paint-order="stroke" stroke="white" stroke-width="3">N3</text><line x1="956.44" y1="325.67" x2="954.25" y2="377.92" stroke="#D55E00" stroke-width="1.2"/><polygon points="954.00,383.91 951.25,377.79 957.25,378.05" fill="#D55E00"/><text x="960.00" y="386.91" font-size="11" fill="#D55E00" font-weight="700" paint-order="stroke" stroke="white" stroke-width="3">C1</text><line x1="746.72" y1="325.67" x2="795.25" y2="394.02" stroke="#CC79A7" stroke-width="1.2"/><polygon points="798.72,398.91 792.80,395.76 797.70,392.29" fill="#CC79A7"/><text x="804.72" y="401.91" font-size="11" fill="#CC79A7" font-weight="700" paint-order="stroke" stroke="white" stroke-width="3">C3</text><line x1="956.44" y1="350.31" x2="954.23" y2="407.92" stroke="#009E73" stroke-width="1.2"/><polygon points="954.00,413.91 951.23,407.80 957.23,408.03" fill="#009E73"/><text x="960.00" y="416.91" font-size="11" fill="#009E73" font-weight="700" paint-order="stroke" stroke="white" stroke-width="3">C2</text><line x1="746.72" y1="350.31" x2="795.41" y2="423.91" stroke="#E69F00" stroke-width="1.2"/><polygon points="798.72,428.91 792.91,425.57 797.91,422.26" fill="#E69F00"/><text x="804.72" y="431.91" font-size="11" fill="#E69F00" font-weight="700" paint-order="stroke" stroke="white" stroke-width="3">C4</text><line x1="641.86" y1="360.39" x2="690.69" y2="438.82" stroke="#56B4E9" stroke-width="1.2"/><polygon points="693.86,443.91 688.14,440.41 693.24,437.24" fill="#56B4E9"/><text x="699.86" y="446.91" font-size="11" fill="#56B4E9" font-weight="700" paint-order="stroke" stroke="white" stroke-width="3">C5</text>
<line x1="1016" y1="74.00" x2="1034" y2="74.00" stroke="#0072B2" stroke-width="2" stroke-dasharray="5 3"/><g><title>C0</title><circle cx="1025.00" cy="74.00" r="4" stroke="#0072B2" stroke-width="1.6" fill="white"/></g><text x="1040" y="78.00" font-size="11">C0</text><line x1="1016" y1="92.00" x2="1034" y2="92.00" stroke="#D55E00" stroke-width="2" stroke-dasharray="5 3"/><g><title>C1</title><rect x="1021.20" y="88.20" width="7.6" height="7.6" stroke="#D55E00" stroke-width="1.6" fill="white"/></g><text x="1040" y="96.00" font-size="11">C1</text><line x1="1016" y1="110.00" x2="1034" y2="110.00" stroke="#009E73" stroke-width="2" stroke-dasharray="5 3"/><g><title>C2</title><polygon points="1025.00,105.40 1020.70,113.60 1029.30,113.60" stroke="#009E73" stroke-width="1.6" fill="white"/></g><text x="1040" y="114.00" font-size="11">C2</text><line x1="1016" y1="128.00" x2="1034" y2="128.00" stroke="#CC79A7" stroke-width="2" stroke-dasharray="5 3"/><g><title>C3</title><polygon points="1025.00,123.50 1020.50,128.00 1025.00,132.50 1029.50,128.00" stroke="#CC79A7" stroke-width="1.6" fill="white"/></g><text x="1040" y="132.00" font-size="11">C3</text><line x1="1016" y1="146.00" x2="1034" y2="146.00" stroke="#E69F00" stroke-width="2" stroke-dasharray="5 3"/><g><title>C4</title><polygon points="1020.70,142.40 1029.30,142.40 1025.00,150.60" stroke="#E69F00" stroke-width="1.6" fill="white"/></g><text x="1040" y="150.00" font-size="11">C4</text><line x1="1016" y1="164.00" x2="1034" y2="164.00" stroke="#56B4E9" stroke-width="2" stroke-dasharray="5 3"/><g><title>C5</title><path d="M 1021.00 164.00 H 1029.00 M 1025.00 160.00 V 168.00" stroke="#56B4E9" stroke-width="2" fill="none"/></g><text x="1040" y="168.00" font-size="11">C5</text><line x1="1016" y1="182.00" x2="1034" y2="182.00" stroke="#6F4E7C" stroke-width="2" stroke-dasharray="5 3"/><g><title>C6</title><path d="M 1021.50 178.50 L 1028.50 185.50 M 1028.50 178.50 L 1021.50 185.50" stroke="#6F4E7C" stroke-width="2" fill="none"/></g><text x="1040" y="186.00" font-size="11">C6</text><line x1="1016" y1="200.00" x2="1034" y2="200.00" stroke="#222222" stroke-width="2" stroke-dasharray="5 3"/><g><title>C7</title><polygon points="1020.80,200.00 1022.90,196.30 1027.10,196.30 1029.20,200.00 1027.10,203.70 1022.90,203.70" stroke="#222222" stroke-width="1.6" fill="white"/></g><text x="1040" y="204.00" font-size="11">C7</text><line x1="1016" y1="218.00" x2="1034" y2="218.00" stroke="#A0006D" stroke-width="2"/><g><title>N3</title><circle cx="1025.00" cy="218.00" r="4" stroke="#A0006D" stroke-width="1.6" fill="#A0006D"/></g><text x="1040" y="222.00" font-size="11">N3</text><line x1="1016" y1="236.00" x2="1034" y2="236.00" stroke="#7A3E00" stroke-width="2"/><g><title>N6</title><rect x="1021.20" y="232.20" width="7.6" height="7.6" stroke="#7A3E00" stroke-width="1.6" fill="#7A3E00"/></g><text x="1040" y="240.00" font-size="11">N6</text><line x1="1016" y1="254.00" x2="1034" y2="254.00" stroke="#117733" stroke-width="2"/><g><title>N8</title><polygon points="1025.00,249.40 1020.70,257.60 1029.30,257.60" stroke="#117733" stroke-width="1.6" fill="#117733"/></g><text x="1040" y="258.00" font-size="11">N8</text><line x1="1016" y1="272.00" x2="1034" y2="272.00" stroke="#332288" stroke-width="2"/><g><title>N23</title><polygon points="1025.00,267.50 1020.50,272.00 1025.00,276.50 1029.50,272.00" stroke="#332288" stroke-width="1.6" fill="#332288"/></g><text x="1040" y="276.00" font-size="11">N23</text>
<text x="537.0" y="694" text-anchor="middle" font-size="14">SNR (dB)</text>
<text x="22" y="347.0" text-anchor="middle" font-size="14" transform="rotate(-90 22 347.0)">BLER</text>
<text x="1016" y="692" font-size="11" fill="#555">dashed: CDD, solid: piecewise</text>
</svg>
