<svg xmlns="http://www.w3.org/2000/svg" width="1240" height="720" viewBox="0 0 1240 720">
<rect width="100%" height="100%" fill="white"/>
<text x="620.0" y="30" text-anchor="middle" font-size="18" font-family="Arial, sans-serif">Matched RMMSE NMSE, 48 PRB</text>
<line x1="84" y1="638" x2="990" y2="638" stroke="#333" stroke-width="1.2"/>
<line x1="84" y1="56" x2="84" y2="638" stroke="#333" stroke-width="1.2"/>
<line x1="84.00" y1="56" x2="84.00" y2="638" stroke="#e6e8eb"/><text x="84.00" y="662" font-size="12" text-anchor="middle">-0.96</text><line x1="265.20" y1="56" x2="265.20" y2="638" stroke="#e6e8eb"/><text x="265.20" y="662" font-size="12" text-anchor="middle">4.22</text><line x1="446.40" y1="56" x2="446.40" y2="638" stroke="#e6e8eb"/><text x="446.40" y="662" font-size="12" text-anchor="middle">9.41</text><line x1="627.60" y1="56" x2="627.60" y2="638" stroke="#e6e8eb"/><text x="627.60" y="662" font-size="12" text-anchor="middle">14.6</text><line x1="808.80" y1="56" x2="808.80" y2="638" stroke="#e6e8eb"/><text x="808.80" y="662" font-size="12" text-anchor="middle">19.8</text><line x1="990.00" y1="56" x2="990.00" y2="638" stroke="#e6e8eb"/><text x="990.00" y="662" font-size="12" text-anchor="middle">25</text><line x1="84" y1="594.50" x2="990" y2="594.50" stroke="#d9dde2"/><text x="76" y="598.50" font-size="12" text-anchor="end">1e-3</text><line x1="84" y1="372.84" x2="990" y2="372.84" stroke="#d9dde2"/><text x="76" y="376.84" font-size="12" text-anchor="end">1e-2</text><line x1="84" y1="151.18" x2="990" y2="151.18" stroke="#d9dde2"/><text x="76" y="155.18" font-size="12" text-anchor="end">1e-1</text><line x1="84" y1="527.77" x2="990" y2="527.77" stroke="#eef0f2"/><line x1="84" y1="439.56" x2="990" y2="439.56" stroke="#eef0f2"/><line x1="84" y1="306.11" x2="990" y2="306.11" stroke="#eef0f2"/><line x1="84" y1="217.90" x2="990" y2="217.90" stroke="#eef0f2"/><line x1="84" y1="84.45" x2="990" y2="84.45" stroke="#eef0f2"/>
<circle cx="117.56" cy="112.30" r="3.2" fill="#0b3c5d"><title>C4 CDD step=5</title></circle><circle cx="257.37" cy="187.56" r="3.2" fill="#0b3c5d"><title>C4 CDD step=5</title></circle><circle cx="397.19" cy="267.55" r="3.2" fill="#0b3c5d"><title>C4 CDD step=5</title></circle><circle cx="537.00" cy="349.46" r="3.2" fill="#0b3c5d"><title>C4 CDD step=5</title></circle><circle cx="676.81" cy="432.21" r="3.2" fill="#0b3c5d"><title>C4 CDD step=5</title></circle><circle cx="816.63" cy="515.21" r="3.2" fill="#0b3c5d"><title>C4 CDD step=5</title></circle><circle cx="956.44" cy="597.86" r="3.2" fill="#0b3c5d"><title>C4 CDD step=5</title></circle><polyline points="117.56,112.30 257.37,187.56 397.19,267.55 537.00,349.46 676.81,432.21 816.63,515.21 956.44,597.86" fill="none" stroke="#0b3c5d" stroke-width="1.7" stroke-dasharray="5 3"/><circle cx="117.56" cy="103.73" r="3.2" fill="#1d5f8a"><title>C5 CDD step=6</title></circle><circle cx="257.37" cy="179.97" r="3.2" fill="#1d5f8a"><title>C5 CDD step=6</title></circle><circle cx="397.19" cy="261.28" r="3.2" fill="#1d5f8a"><title>C5 CDD step=6</title></circle><circle cx="537.00" cy="344.47" r="3.2" fill="#1d5f8a"><title>C5 CDD step=6</title></circle><circle cx="676.81" cy="427.81" r="3.2" fill="#1d5f8a"><title>C5 CDD step=6</title></circle><circle cx="816.63" cy="510.67" r="3.2" fill="#1d5f8a"><title>C5 CDD step=6</title></circle><circle cx="956.44" cy="592.79" r="3.2" fill="#1d5f8a"><title>C5 CDD step=6</title></circle><polyline points="117.56,103.73 257.37,179.97 397.19,261.28 537.00,344.47 676.81,427.81 816.63,510.67 956.44,592.79" fill="none" stroke="#1d5f8a" stroke-width="1.7" stroke-dasharray="5 3"/><circle cx="117.56" cy="102.25" r="3.2" fill="#2f7fb0"><title>C6 CDD step=7</title></circle><circle cx="257.37" cy="178.45" r="3.2" fill="#2f7fb0"><title>C6 CDD step=7</title></circle><circle cx="397.19" cy="258.77" r="3.2" fill="#2f7fb0"><title>C6 CDD step=7</title></circle><circle cx="537.00" cy="340.29" r="3.2" fill="#2f7fb0"><title>C6 CDD step=7</title></circle><circle cx="676.81" cy="421.86" r="3.2" fill="#2f7fb0"><title>C6 CDD step=7</title></circle><circle cx="816.63" cy="503.19" r="3.2" fill="#2f7fb0"><title>C6 CDD step=7</title></circle><circle cx="956.44" cy="584.11" r="3.2" fill="#2f7fb0"><title>C6 CDD step=7</title></circle><polyline points="117.56,102.25 257.37,178.45 397.19,258.77 537.00,340.29 676.81,421.86 816.63,503.19 956.44,584.11" fill="none" stroke="#2f7fb0" stroke-width="1.7" stroke-dasharray="5 3"/><circle cx="117.56" cy="96.14" r="3.2" fill="#5398c6"><title>C7 CDD step=64</title></circle><circle cx="257.37" cy="164.15" r="3.2" fill="#5398c6"><title>C7 CDD step=64</title></circle><circle cx="397.19" cy="232.13" r="3.2" fill="#5398c6"><title>C7 CDD step=64</title></circle><circle cx="537.00" cy="301.25" r="3.2" fill="#5398c6"><title>C7 CDD step=64</title></circle><circle cx="676.81" cy="374.75" r="3.2" fill="#5398c6"><title>C7 CDD step=64</title></circle><circle cx="816.63" cy="451.38" r="3.2" fill="#5398c6"><title>C7 CDD step=64</title></circle><circle cx="956.44" cy="526.68" r="3.2" fill="#5398c6"><title>C7 CDD step=64</title></circle><polyline points="117.56,96.14 257.37,164.15 397.19,232.13 537.00,301.25 676.81,374.75 816.63,451.38 956.44,526.68" fill="none" stroke="#5398c6" stroke-width="1.7" stroke-dasharray="5 3"/>
<line x1="1016" y1="74.00" x2="1034" y2="74.00" stroke="#0b3c5d" stroke-width="2" stroke-dasharray="5 3"/><text x="1040" y="78.00" font-size="11">C4</text><line x1="1016" y1="92.00" x2="1034" y2="92.00" stroke="#1d5f8a" stroke-width="2" stroke-dasharray="5 3"/><text x="1040" y="96.00" font-size="11">C5</text><line x1="1016" y1="110.00" x2="1034" y2="110.00" stroke="#2f7fb0" stroke-width="2" stroke-dasharray="5 3"/><text x="1040" y="114.00" font-size="11">C6</text><line x1="1016" y1="128.00" x2="1034" y2="128.00" stroke="#5398c6" stroke-width="2" stroke-dasharray="5 3"/><text x="1040" y="132.00" font-size="11">C7</text>
<text x="537.0" y="694" text-anchor="middle" font-size="14">SNR (dB)</text>
<text x="22" y="347.0" text-anchor="middle" font-size="14" transform="rotate(-90 22 347.0)">NMSE (log scale)</text>
<text x="1016" y="692" font-size="11" fill="#555">dashed: CDD, solid: piecewise</text>
</svg>
