<svg xmlns="http://www.w3.org/2000/svg" width="1240" height="720" viewBox="0 0 1240 720">
<rect width="100%" height="100%" fill="white"/>
<text x="620.0" y="30" text-anchor="middle" font-size="18" font-family="Arial, sans-serif">Ideal-CSI BLER, 36 PRB, interleaver=full</text>
<line x1="84" y1="638" x2="990" y2="638" stroke="#333" stroke-width="1.2"/>
<line x1="84" y1="56" x2="84" y2="638" stroke="#333" stroke-width="1.2"/>
<line x1="84.00" y1="56" x2="84.00" y2="638" stroke="#e6e8eb"/><text x="84.00" y="662" font-size="12" text-anchor="middle">11.8</text><line x1="265.20" y1="56" x2="265.20" y2="638" stroke="#e6e8eb"/><text x="265.20" y="662" font-size="12" text-anchor="middle">13.1</text><line x1="446.40" y1="56" x2="446.40" y2="638" stroke="#e6e8eb"/><text x="446.40" y="662" font-size="12" text-anchor="middle">14.4</text><line x1="627.60" y1="56" x2="627.60" y2="638" stroke="#e6e8eb"/><text x="627.60" y="662" font-size="12" text-anchor="middle">15.6</text><line x1="808.80" y1="56" x2="808.80" y2="638" stroke="#e6e8eb"/><text x="808.80" y="662" font-size="12" text-anchor="middle">16.9</text><line x1="990.00" y1="56" x2="990.00" y2="638" stroke="#e6e8eb"/><text x="990.00" y="662" font-size="12" text-anchor="middle">18.2</text><line x1="84" y1="617.31" x2="990" y2="617.31" stroke="#d9dde2"/><text x="76" y="621.31" font-size="12" text-anchor="end">1e-3</text><line x1="84" y1="416.60" x2="990" y2="416.60" stroke="#d9dde2"/><text x="76" y="420.60" font-size="12" text-anchor="end">1e-2</text><line x1="84" y1="215.88" x2="990" y2="215.88" stroke="#d9dde2"/><text x="76" y="219.88" font-size="12" text-anchor="end">1e-1</text><line x1="84" y1="556.89" x2="990" y2="556.89" stroke="#eef0f2"/><line x1="84" y1="477.02" x2="990" y2="477.02" stroke="#eef0f2"/><line x1="84" y1="356.18" x2="990" y2="356.18" stroke="#eef0f2"/><line x1="84" y1="276.30" x2="990" y2="276.30" stroke="#eef0f2"/><line x1="84" y1="155.46" x2="990" y2="155.46" stroke="#eef0f2"/><line x1="84" y1="75.59" x2="990" y2="75.59" stroke="#eef0f2"/>
<line x1="84" y1="215.88" x2="990" y2="215.88" stroke="#111" stroke-width="1" stroke-dasharray="5 4"/><text x="998" y="219.88" font-size="11" fill="#111">0.1</text><line x1="84" y1="416.60" x2="990" y2="416.60" stroke="#111" stroke-width="1" stroke-dasharray="5 4"/><text x="998" y="420.60" font-size="11" fill="#111">0.01</text><circle cx="117.56" cy="96.14" r="3.2" fill="#0b3c5d"><title>C7 CDD step=64</title></circle><circle cx="397.19" cy="230.05" r="3.2" fill="#0b3c5d"><title>C7 CDD step=64</title></circle><circle cx="537.00" cy="295.76" r="3.2" fill="#0b3c5d"><title>C7 CDD step=64</title></circle><circle cx="676.81" cy="397.15" r="3.2" fill="#0b3c5d"><title>C7 CDD step=64</title></circle><circle cx="816.63" cy="537.44" r="3.2" fill="#0b3c5d"><title>C7 CDD step=64</title></circle><circle cx="956.44" cy="597.86" r="3.2" fill="#0b3c5d"><title>C7 CDD step=64</title></circle><polyline points="117.56,96.14 397.19,230.05 537.00,295.76 676.81,397.15 816.63,537.44 956.44,597.86" fill="none" stroke="#0b3c5d" stroke-width="1.7" stroke-dasharray="5 3"/>
<line x1="1016" y1="74.00" x2="1034" y2="74.00" stroke="#0b3c5d" stroke-width="2" stroke-dasharray="5 3"/><text x="1040" y="78.00" font-size="11">C7</text>
<text x="537.0" y="694" text-anchor="middle" font-size="14">SNR (dB)</text>
<text x="22" y="347.0" text-anchor="middle" font-size="14" transform="rotate(-90 22 347.0)">BLER</text>
<text x="1016" y="692" font-size="11" fill="#555">dashed: CDD, solid: piecewise</text>
</svg>
