<svg xmlns="http://www.w3.org/2000/svg" width="1240" height="720" viewBox="0 0 1240 720">
<rect width="100%" height="100%" fill="white"/>
<text x="620.0" y="30" text-anchor="middle" font-size="18" font-family="Arial, sans-serif">Ideal-CSI BLER, 24 PRB, full interleaver</text>
<line x1="84" y1="638" x2="990" y2="638" stroke="#333" stroke-width="1.2"/>
<line x1="84" y1="56" x2="84" y2="638" stroke="#333" stroke-width="1.2"/>
<line x1="84.00" y1="56" x2="84.00" y2="638" stroke="#e6e8eb"/><text x="84.00" y="662" font-size="12" text-anchor="middle">11.2</text><line x1="265.20" y1="56" x2="265.20" y2="638" stroke="#e6e8eb"/><text x="265.20" y="662" font-size="12" text-anchor="middle">15.5</text><line x1="446.40" y1="56" x2="446.40" y2="638" stroke="#e6e8eb"/><text x="446.40" y="662" font-size="12" text-anchor="middle">19.8</text><line x1="627.60" y1="56" x2="627.60" y2="638" stroke="#e6e8eb"/><text x="627.60" y="662" font-size="12" text-anchor="middle">24.2</text><line x1="808.80" y1="56" x2="808.80" y2="638" stroke="#e6e8eb"/><text x="808.80" y="662" font-size="12" text-anchor="middle">28.5</text><line x1="990.00" y1="56" x2="990.00" y2="638" stroke="#e6e8eb"/><text x="990.00" y="662" font-size="12" text-anchor="middle">32.8</text><line x1="84" y1="616.94" x2="990" y2="616.94" stroke="#d9dde2"/><text x="76" y="620.94" font-size="12" text-anchor="end">1e-3</text><line x1="84" y1="420.11" x2="990" y2="420.11" stroke="#d9dde2"/><text x="76" y="424.11" font-size="12" text-anchor="end">1e-2</text><line x1="84" y1="223.27" x2="990" y2="223.27" stroke="#d9dde2"/><text x="76" y="227.27" font-size="12" text-anchor="end">1e-1</text><line x1="84" y1="557.68" x2="990" y2="557.68" stroke="#eef0f2"/><line x1="84" y1="479.36" x2="990" y2="479.36" stroke="#eef0f2"/><line x1="84" y1="360.85" x2="990" y2="360.85" stroke="#eef0f2"/><line x1="84" y1="282.53" x2="990" y2="282.53" stroke="#eef0f2"/><line x1="84" y1="164.02" x2="990" y2="164.02" stroke="#eef0f2"/><line x1="84" y1="85.69" x2="990" y2="85.69" stroke="#eef0f2"/>
<line x1="84" y1="223.27" x2="990" y2="223.27" stroke="#111" stroke-width="1" stroke-dasharray="5 4"/><text x="998" y="227.27" font-size="11" fill="#111">0.1</text><line x1="84" y1="420.11" x2="990" y2="420.11" stroke="#111" stroke-width="1" stroke-dasharray="5 4"/><text x="998" y="424.11" font-size="11" fill="#111">0.01</text><g><title>C0 CDD step=1</title><circle cx="117.56" cy="100.60" r="4" stroke="#0072B2" stroke-width="1.6" fill="white"/></g><g><title>C0 CDD step=1</title><circle cx="201.44" cy="127.95" r="4" stroke="#0072B2" stroke-width="1.6" fill="white"/></g><g><title>C0 CDD step=1</title><circle cx="243.39" cy="144.95" r="4" stroke="#0072B2" stroke-width="1.6" fill="white"/></g><g><title>C0 CDD step=1</title><circle cx="285.33" cy="162.96" r="4" stroke="#0072B2" stroke-width="1.6" fill="white"/></g><g><title>C0 CDD step=1</title><circle cx="327.28" cy="194.51" r="4" stroke="#0072B2" stroke-width="1.6" fill="white"/></g><g><title>C0 CDD step=1</title><circle cx="369.22" cy="215.13" r="4" stroke="#0072B2" stroke-width="1.6" fill="white"/></g><g><title>C0 CDD step=1</title><circle cx="453.11" cy="274.38" r="4" stroke="#0072B2" stroke-width="1.6" fill="white"/></g><g><title>C0 CDD step=1</title><circle cx="537.00" cy="341.78" r="4" stroke="#0072B2" stroke-width="1.6" fill="white"/></g><g><title>C0 CDD step=1</title><circle cx="620.89" cy="420.11" r="4" stroke="#0072B2" stroke-width="1.6" fill="white"/></g><g><title>C0 CDD step=1</title><circle cx="704.78" cy="538.61" r="4" stroke="#0072B2" stroke-width="1.6" fill="white"/></g><g><title>C0 CDD step=1</title><circle cx="788.67" cy="538.61" r="4" stroke="#0072B2" stroke-width="1.6" fill="white"/></g><g><title>C0 CDD step=1</title><circle cx="872.56" cy="538.61" r="4" stroke="#0072B2" stroke-width="1.6" fill="white"/></g><g><title>C0 CDD step=1</title><circle cx="956.44" cy="597.86" r="4" stroke="#0072B2" stroke-width="1.6" fill="white"/></g><polyline points="117.56,100.60 201.44,127.95 243.39,144.95 285.33,162.96 327.28,194.51 369.22,215.13 453.11,274.38 537.00,341.78 620.89,420.11 704.78,538.61 788.67,538.61 872.56,538.61 956.44,597.86" fill="none" stroke="#0072B2" stroke-width="2.1" stroke-dasharray="5 3"/><g><title>C1 CDD step=2</title><rect x="113.76" y="92.34" width="7.6" height="7.6" stroke="#D55E00" stroke-width="1.6" fill="white"/></g><g><title>C1 CDD step=2</title><rect x="197.64" y="143.75" width="7.6" height="7.6" stroke="#D55E00" stroke-width="1.6" fill="white"/></g><g><title>C1 CDD step=2</title><rect x="239.59" y="172.87" width="7.6" height="7.6" stroke="#D55E00" stroke-width="1.6" fill="white"/></g><g><title>C1 CDD step=2</title><rect x="281.53" y="198.71" width="7.6" height="7.6" stroke="#D55E00" stroke-width="1.6" fill="white"/></g><g><title>C1 CDD step=2</title><rect x="323.48" y="233.37" width="7.6" height="7.6" stroke="#D55E00" stroke-width="1.6" fill="white"/></g><g><title>C1 CDD step=2</title><rect x="365.42" y="263.14" width="7.6" height="7.6" stroke="#D55E00" stroke-width="1.6" fill="white"/></g><g><title>C1 CDD step=2</title><rect x="449.31" y="322.39" width="7.6" height="7.6" stroke="#D55E00" stroke-width="1.6" fill="white"/></g><g><title>C1 CDD step=2</title><rect x="533.20" y="368.47" width="7.6" height="7.6" stroke="#D55E00" stroke-width="1.6" fill="white"/></g><g><title>C1 CDD step=2</title><rect x="617.09" y="416.31" width="7.6" height="7.6" stroke="#D55E00" stroke-width="1.6" fill="white"/></g><g><title>C1 CDD step=2</title><rect x="700.98" y="534.81" width="7.6" height="7.6" stroke="#D55E00" stroke-width="1.6" fill="white"/></g><g><title>C1 CDD step=2</title><rect x="784.87" y="534.81" width="7.6" height="7.6" stroke="#D55E00" stroke-width="1.6" fill="white"/></g><g><title>C1 CDD step=2</title><rect x="868.76" y="594.06" width="7.6" height="7.6" stroke="#D55E00" stroke-width="1.6" fill="white"/></g><g><title>C1 CDD step=2</title><rect x="952.64" y="594.06" width="7.6" height="7.6" stroke="#D55E00" stroke-width="1.6" fill="white"/></g><polyline points="117.56,96.14 201.44,147.55 243.39,176.67 285.33,202.51 327.28,237.17 369.22,266.94 453.11,326.19 537.00,372.27 620.89,420.11 704.78,538.61 788.67,538.61 872.56,597.86 956.44,597.86" fill="none" stroke="#D55E00" stroke-width="2.1" stroke-dasharray="5 3"/><g><title>C2 CDD step=3</title><polygon points="117.56,97.54 113.26,105.74 121.86,105.74" stroke="#009E73" stroke-width="1.6" fill="white"/></g><g><title>C2 CDD step=3</title><polygon points="201.44,157.31 197.14,165.51 205.74,165.51" stroke="#009E73" stroke-width="1.6" fill="white"/></g><g><title>C2 CDD step=3</title><polygon points="243.39,189.91 239.09,198.11 247.69,198.11" stroke="#009E73" stroke-width="1.6" fill="white"/></g><g><title>C2 CDD step=3</title><polygon points="285.33,230.09 281.03,238.29 289.63,238.29" stroke="#009E73" stroke-width="1.6" fill="white"/></g><g><title>C2 CDD step=3</title><polygon points="327.28,258.85 322.98,267.05 331.58,267.05" stroke="#009E73" stroke-width="1.6" fill="white"/></g><g><title>C2 CDD step=3</title><polygon points="369.22,286.93 364.92,295.13 373.52,295.13" stroke="#009E73" stroke-width="1.6" fill="white"/></g><g><title>C2 CDD step=3</title><polygon points="453.11,346.18 448.81,354.38 457.41,354.38" stroke="#009E73" stroke-width="1.6" fill="white"/></g><g><title>C2 CDD step=3</title><polygon points="537.00,367.67 532.70,375.87 541.30,375.87" stroke="#009E73" stroke-width="1.6" fill="white"/></g><g><title>C2 CDD step=3</title><polygon points="620.89,534.01 616.59,542.21 625.19,542.21" stroke="#009E73" stroke-width="1.6" fill="white"/></g><g><title>C2 CDD step=3</title><polygon points="704.78,593.26 700.48,601.46 709.08,601.46" stroke="#009E73" stroke-width="1.6" fill="white"/></g><g><title>C2 CDD step=3</title><polygon points="788.67,593.26 784.37,601.46 792.97,601.46" stroke="#009E73" stroke-width="1.6" fill="white"/></g><g><title>C2 CDD step=3</title><polygon points="872.56,593.26 868.26,601.46 876.86,601.46" stroke="#009E73" stroke-width="1.6" fill="white"/></g><g><title>C2 CDD step=3</title><polygon points="956.44,593.26 952.14,601.46 960.74,601.46" stroke="#009E73" stroke-width="1.6" fill="white"/></g><polyline points="117.56,102.14 201.44,161.91 243.39,194.51 285.33,234.69 327.28,263.45 369.22,291.53 453.11,350.78 537.00,372.27 620.89,538.61 704.78,597.86 788.67,597.86 872.56,597.86 956.44,597.86" fill="none" stroke="#009E73" stroke-width="2.1" stroke-dasharray="5 3"/><g><title>C3 CDD step=4</title><polygon points="117.56,99.74 113.06,104.24 117.56,108.74 122.06,104.24" stroke="#CC79A7" stroke-width="1.6" fill="white"/></g><g><title>C3 CDD step=4</title><polygon points="201.44,158.46 196.94,162.96 201.44,167.46 205.94,162.96" stroke="#CC79A7" stroke-width="1.6" fill="white"/></g><g><title>C3 CDD step=4</title><polygon points="243.39,193.12 238.89,197.62 243.39,202.12 247.89,197.62" stroke="#CC79A7" stroke-width="1.6" fill="white"/></g><g><title>C3 CDD step=4</title><polygon points="285.33,237.85 280.83,242.35 285.33,246.85 289.83,242.35" stroke="#CC79A7" stroke-width="1.6" fill="white"/></g><g><title>C3 CDD step=4</title><polygon points="327.28,282.41 322.78,286.91 327.28,291.41 331.78,286.91" stroke="#CC79A7" stroke-width="1.6" fill="white"/></g><g><title>C3 CDD step=4</title><polygon points="369.22,314.85 364.72,319.35 369.22,323.85 373.72,319.35" stroke="#CC79A7" stroke-width="1.6" fill="white"/></g><g><title>C3 CDD step=4</title><polygon points="453.11,367.77 448.61,372.27 453.11,376.77 457.61,372.27" stroke="#CC79A7" stroke-width="1.6" fill="white"/></g><g><title>C3 CDD step=4</title><polygon points="537.00,474.86 532.50,479.36 537.00,483.86 541.50,479.36" stroke="#CC79A7" stroke-width="1.6" fill="white"/></g><g><title>C3 CDD step=4</title><polygon points="620.89,593.36 616.39,597.86 620.89,602.36 625.39,597.86" stroke="#CC79A7" stroke-width="1.6" fill="white"/></g><g><title>C3 CDD step=4</title><polygon points="704.78,593.36 700.28,597.86 704.78,602.36 709.28,597.86" stroke="#CC79A7" stroke-width="1.6" fill="white"/></g><g><title>C3 CDD step=4</title><polygon points="788.67,593.36 784.17,597.86 788.67,602.36 793.17,597.86" stroke="#CC79A7" stroke-width="1.6" fill="white"/></g><g><title>C3 CDD step=4</title><polygon points="872.56,593.36 868.06,597.86 872.56,602.36 877.06,597.86" stroke="#CC79A7" stroke-width="1.6" fill="white"/></g><g><title>C3 CDD step=4</title><polygon points="956.44,593.36 951.94,597.86 956.44,602.36 960.94,597.86" stroke="#CC79A7" stroke-width="1.6" fill="white"/></g><polyline points="117.56,104.24 201.44,162.96 243.39,197.62 285.33,242.35 327.28,286.91 369.22,319.35 453.11,372.27 537.00,479.36 620.89,597.86 704.78,597.86 788.67,597.86 872.56,597.86 956.44,597.86" fill="none" stroke="#CC79A7" stroke-width="2.1" stroke-dasharray="5 3"/><g><title>C4 CDD step=5</title><polygon points="113.26,102.79 121.86,102.79 117.56,110.99" stroke="#E69F00" stroke-width="1.6" fill="white"/></g><g><title>C4 CDD step=5</title><polygon points="197.14,164.81 205.74,164.81 201.44,173.01" stroke="#E69F00" stroke-width="1.6" fill="white"/></g><g><title>C4 CDD step=5</title><polygon points="239.09,215.50 247.69,215.50 243.39,223.70" stroke="#E69F00" stroke-width="1.6" fill="white"/></g><g><title>C4 CDD step=5</title><polygon points="281.03,250.16 289.63,250.16 285.33,258.36" stroke="#E69F00" stroke-width="1.6" fill="white"/></g><g><title>C4 CDD step=5</title><polygon points="322.98,303.52 331.58,303.52 327.28,311.72" stroke="#E69F00" stroke-width="1.6" fill="white"/></g><g><title>C4 CDD step=5</title><polygon points="364.92,368.67 373.52,368.67 369.22,376.87" stroke="#E69F00" stroke-width="1.6" fill="white"/></g><g><title>C4 CDD step=5</title><polygon points="448.81,441.10 457.41,441.10 453.11,449.30" stroke="#E69F00" stroke-width="1.6" fill="white"/></g><g><title>C4 CDD step=5</title><polygon points="532.70,594.26 541.30,594.26 537.00,602.46" stroke="#E69F00" stroke-width="1.6" fill="white"/></g><g><title>C4 CDD step=5</title><polygon points="616.59,594.26 625.19,594.26 620.89,602.46" stroke="#E69F00" stroke-width="1.6" fill="white"/></g><g><title>C4 CDD step=5</title><polygon points="700.48,594.26 709.08,594.26 704.78,602.46" stroke="#E69F00" stroke-width="1.6" fill="white"/></g><g><title>C4 CDD step=5</title><polygon points="784.37,594.26 792.97,594.26 788.67,602.46" stroke="#E69F00" stroke-width="1.6" fill="white"/></g><g><title>C4 CDD step=5</title><polygon points="868.26,594.26 876.86,594.26 872.56,602.46" stroke="#E69F00" stroke-width="1.6" fill="white"/></g><g><title>C4 CDD step=5</title><polygon points="952.14,594.26 960.74,594.26 956.44,602.46" stroke="#E69F00" stroke-width="1.6" fill="white"/></g><polyline points="117.56,106.39 201.44,168.41 243.39,219.10 285.33,253.76 327.28,307.12 369.22,372.27 453.11,444.70 537.00,597.86 620.89,597.86 704.78,597.86 788.67,597.86 872.56,597.86 956.44,597.86" fill="none" stroke="#E69F00" stroke-width="2.1" stroke-dasharray="5 3"/><g><title>C5 CDD step=6</title><path d="M 113.56 108.59 H 121.56 M 117.56 104.59 V 112.59" stroke="#56B4E9" stroke-width="2" fill="none"/></g><g><title>C5 CDD step=6</title><path d="M 197.44 183.10 H 205.44 M 201.44 179.10 V 187.10" stroke="#56B4E9" stroke-width="2" fill="none"/></g><g><title>C5 CDD step=6</title><path d="M 239.39 215.13 H 247.39 M 243.39 211.13 V 219.13" stroke="#56B4E9" stroke-width="2" fill="none"/></g><g><title>C5 CDD step=6</title><path d="M 281.33 278.36 H 289.33 M 285.33 274.36 V 282.36" stroke="#56B4E9" stroke-width="2" fill="none"/></g><g><title>C5 CDD step=6</title><path d="M 323.28 350.78 H 331.28 M 327.28 346.78 V 354.78" stroke="#56B4E9" stroke-width="2" fill="none"/></g><g><title>C5 CDD step=6</title><path d="M 365.22 444.70 H 373.22 M 369.22 440.70 V 448.70" stroke="#56B4E9" stroke-width="2" fill="none"/></g><g><title>C5 CDD step=6</title><path d="M 449.11 538.61 H 457.11 M 453.11 534.61 V 542.61" stroke="#56B4E9" stroke-width="2" fill="none"/></g><polyline points="117.56,108.59 201.44,183.10 243.39,215.13 285.33,278.36 327.28,350.78 369.22,444.70 453.11,538.61" fill="none" stroke="#56B4E9" stroke-width="2.1" stroke-dasharray="5 3"/><g><title>C6 CDD step=7</title><path d="M 114.06 110.87 L 121.06 117.87 M 121.06 110.87 L 114.06 117.87" stroke="#6F4E7C" stroke-width="2" fill="none"/></g><g><title>C6 CDD step=7</title><path d="M 197.94 182.31 L 204.94 189.31 M 204.94 182.31 L 197.94 189.31" stroke="#6F4E7C" stroke-width="2" fill="none"/></g><g><title>C6 CDD step=7</title><path d="M 239.89 241.56 L 246.89 248.56 M 246.89 241.56 L 239.89 248.56" stroke="#6F4E7C" stroke-width="2" fill="none"/></g><g><title>C6 CDD step=7</title><path d="M 281.83 309.52 L 288.83 316.52 M 288.83 309.52 L 281.83 316.52" stroke="#6F4E7C" stroke-width="2" fill="none"/></g><g><title>C6 CDD step=7</title><path d="M 323.78 381.95 L 330.78 388.95 M 330.78 381.95 L 323.78 388.95" stroke="#6F4E7C" stroke-width="2" fill="none"/></g><g><title>C6 CDD step=7</title><path d="M 365.72 416.61 L 372.72 423.61 M 372.72 416.61 L 365.72 423.61" stroke="#6F4E7C" stroke-width="2" fill="none"/></g><g><title>C6 CDD step=7</title><path d="M 449.61 594.36 L 456.61 601.36 M 456.61 594.36 L 449.61 601.36" stroke="#6F4E7C" stroke-width="2" fill="none"/></g><polyline points="117.56,114.37 201.44,185.81 243.39,245.06 285.33,313.02 327.28,385.45 369.22,420.11 453.11,597.86" fill="none" stroke="#6F4E7C" stroke-width="2.1" stroke-dasharray="5 3"/><g><title>C7 CDD step=64</title><polygon points="113.36,114.97 115.46,111.27 119.66,111.27 121.76,114.97 119.66,118.67 115.46,118.67" stroke="#222222" stroke-width="1.6" fill="white"/></g><g><title>C7 CDD step=64</title><polygon points="197.24,219.10 199.34,215.40 203.54,215.40 205.64,219.10 203.54,222.80 199.34,222.80" stroke="#222222" stroke-width="1.6" fill="white"/></g><g><title>C7 CDD step=64</title><polygon points="239.19,296.42 241.29,292.72 245.49,292.72 247.59,296.42 245.49,300.12 241.29,300.12" stroke="#222222" stroke-width="1.6" fill="white"/></g><g><title>C7 CDD step=64</title><polygon points="281.13,401.03 283.23,397.33 287.43,397.33 289.53,401.03 287.43,404.73 283.23,404.73" stroke="#222222" stroke-width="1.6" fill="white"/></g><g><title>C7 CDD step=64</title><polygon points="323.08,597.86 325.18,594.16 329.38,594.16 331.48,597.86 329.38,601.56 325.18,601.56" stroke="#222222" stroke-width="1.6" fill="white"/></g><g><title>C7 CDD step=64</title><polygon points="365.02,597.86 367.12,594.16 371.32,594.16 373.42,597.86 371.32,601.56 367.12,601.56" stroke="#222222" stroke-width="1.6" fill="white"/></g><g><title>C7 CDD step=64</title><polygon points="448.91,597.86 451.01,594.16 455.21,594.16 457.31,597.86 455.21,601.56 451.01,601.56" stroke="#222222" stroke-width="1.6" fill="white"/></g><polyline points="117.56,114.97 201.44,219.10 243.39,296.42 285.33,401.03 327.28,597.86 369.22,597.86 453.11,597.86" fill="none" stroke="#222222" stroke-width="2.1" stroke-dasharray="5 3"/><g><title>N3 NS-A0503-M1_2_3_64-LR00-S537649365</title><circle cx="117.56" cy="107.48" r="4" stroke="#A0006D" stroke-width="1.6" fill="#A0006D"/></g><g><title>N3 NS-A0503-M1_2_3_64-LR00-S537649365</title><circle cx="201.44" cy="197.62" r="4" stroke="#A0006D" stroke-width="1.6" fill="#A0006D"/></g><g><title>N3 NS-A0503-M1_2_3_64-LR00-S537649365</title><circle cx="243.39" cy="237.17" r="4" stroke="#A0006D" stroke-width="1.6" fill="#A0006D"/></g><g><title>N3 NS-A0503-M1_2_3_64-LR00-S537649365</title><circle cx="285.33" cy="319.35" r="4" stroke="#A0006D" stroke-width="1.6" fill="#A0006D"/></g><g><title>N3 NS-A0503-M1_2_3_64-LR00-S537649365</title><circle cx="327.28" cy="444.70" r="4" stroke="#A0006D" stroke-width="1.6" fill="#A0006D"/></g><g><title>N3 NS-A0503-M1_2_3_64-LR00-S537649365</title><circle cx="369.22" cy="597.86" r="4" stroke="#A0006D" stroke-width="1.6" fill="#A0006D"/></g><g><title>N3 NS-A0503-M1_2_3_64-LR00-S537649365</title><circle cx="453.11" cy="597.86" r="4" stroke="#A0006D" stroke-width="1.6" fill="#A0006D"/></g><polyline points="117.56,107.48 201.44,197.62 243.39,237.17 285.33,319.35 327.28,444.70 369.22,597.86 453.11,597.86" fill="none" stroke="#A0006D" stroke-width="2.1"/><g><title>N6 NS-A0501-M1_3_4_64-LR00-S537649103</title><rect x="113.76" y="102.59" width="7.6" height="7.6" stroke="#7A3E00" stroke-width="1.6" fill="#7A3E00"/></g><g><title>N6 NS-A0501-M1_3_4_64-LR00-S537649103</title><rect x="197.64" y="197.05" width="7.6" height="7.6" stroke="#7A3E00" stroke-width="1.6" fill="#7A3E00"/></g><g><title>N6 NS-A0501-M1_3_4_64-LR00-S537649103</title><rect x="239.59" y="241.26" width="7.6" height="7.6" stroke="#7A3E00" stroke-width="1.6" fill="#7A3E00"/></g><g><title>N6 NS-A0501-M1_3_4_64-LR00-S537649103</title><rect x="281.53" y="309.22" width="7.6" height="7.6" stroke="#7A3E00" stroke-width="1.6" fill="#7A3E00"/></g><g><title>N6 NS-A0501-M1_3_4_64-LR00-S537649103</title><rect x="323.48" y="368.47" width="7.6" height="7.6" stroke="#7A3E00" stroke-width="1.6" fill="#7A3E00"/></g><g><title>N6 NS-A0501-M1_3_4_64-LR00-S537649103</title><rect x="365.42" y="416.31" width="7.6" height="7.6" stroke="#7A3E00" stroke-width="1.6" fill="#7A3E00"/></g><g><title>N6 NS-A0501-M1_3_4_64-LR00-S537649103</title><rect x="449.31" y="534.81" width="7.6" height="7.6" stroke="#7A3E00" stroke-width="1.6" fill="#7A3E00"/></g><polyline points="117.56,106.39 201.44,200.85 243.39,245.06 285.33,313.02 327.28,372.27 369.22,420.11 453.11,538.61" fill="none" stroke="#7A3E00" stroke-width="2.1"/><g><title>N8 NS-A0494-M3_4_6_64-LR00-S535555854</title><polygon points="117.56,112.81 113.26,121.01 121.86,121.01" stroke="#117733" stroke-width="1.6" fill="#117733"/></g><g><title>N8 NS-A0494-M3_4_6_64-LR00-S535555854</title><polygon points="201.44,191.45 197.14,199.65 205.74,199.65" stroke="#117733" stroke-width="1.6" fill="#117733"/></g><g><title>N8 NS-A0494-M3_4_6_64-LR00-S535555854</title><polygon points="243.39,232.57 239.09,240.77 247.69,240.77" stroke="#117733" stroke-width="1.6" fill="#117733"/></g><g><title>N8 NS-A0494-M3_4_6_64-LR00-S535555854</title><polygon points="285.33,291.82 281.03,300.02 289.63,300.02" stroke="#117733" stroke-width="1.6" fill="#117733"/></g><g><title>N8 NS-A0494-M3_4_6_64-LR00-S535555854</title><polygon points="327.28,380.85 322.98,389.05 331.58,389.05" stroke="#117733" stroke-width="1.6" fill="#117733"/></g><g><title>N8 NS-A0494-M3_4_6_64-LR00-S535555854</title><polygon points="369.22,440.10 364.92,448.30 373.52,448.30" stroke="#117733" stroke-width="1.6" fill="#117733"/></g><g><title>N8 NS-A0494-M3_4_6_64-LR00-S535555854</title><polygon points="453.11,593.26 448.81,601.46 457.41,601.46" stroke="#117733" stroke-width="1.6" fill="#117733"/></g><polyline points="117.56,117.41 201.44,196.05 243.39,237.17 285.33,296.42 327.28,385.45 369.22,444.70 453.11,597.86" fill="none" stroke="#117733" stroke-width="2.1"/><g><title>N23 NS-A0330-M1_4_6_48-LC</title><polygon points="117.56,96.61 113.06,101.11 117.56,105.61 122.06,101.11" stroke="#332288" stroke-width="1.6" fill="#332288"/></g><g><title>N23 NS-A0330-M1_4_6_48-LC</title><polygon points="201.44,172.17 196.94,176.67 201.44,181.17 205.94,176.67" stroke="#332288" stroke-width="1.6" fill="#332288"/></g><g><title>N23 NS-A0330-M1_4_6_48-LC</title><polygon points="243.39,230.19 238.89,234.69 243.39,239.19 247.89,234.69" stroke="#332288" stroke-width="1.6" fill="#332288"/></g><g><title>N23 NS-A0330-M1_4_6_48-LC</title><polygon points="285.33,297.10 280.83,301.60 285.33,306.10 289.83,301.60" stroke="#332288" stroke-width="1.6" fill="#332288"/></g><g><title>N23 NS-A0330-M1_4_6_48-LC</title><polygon points="327.28,396.53 322.78,401.03 327.28,405.53 331.78,401.03" stroke="#332288" stroke-width="1.6" fill="#332288"/></g><g><title>N23 NS-A0330-M1_4_6_48-LC</title><polygon points="369.22,534.11 364.72,538.61 369.22,543.11 373.72,538.61" stroke="#332288" stroke-width="1.6" fill="#332288"/></g><g><title>N23 NS-A0330-M1_4_6_48-LC</title><polygon points="453.11,593.36 448.61,597.86 453.11,602.36 457.61,597.86" stroke="#332288" stroke-width="1.6" fill="#332288"/></g><polyline points="117.56,101.11 201.44,176.67 243.39,234.69 285.33,301.60 327.28,401.03 369.22,538.61 453.11,597.86" fill="none" stroke="#332288" stroke-width="2.1"/><line x1="243.39" y1="296.42" x2="289.40" y2="293.76" stroke="#222222" stroke-width="1.2"/><polygon points="295.39,293.42 289.57,296.76 289.23,290.77" fill="#222222"/><text x="301.39" y="296.42" font-size="11" fill="#222222" font-weight="700" paint-order="stroke" stroke="white" stroke-width="3">C7</text><line x1="285.33" y1="296.42" x2="331.49" y2="307.07" stroke="#117733" stroke-width="1.2"/><polygon points="337.33,308.42 330.81,309.99 332.16,304.15" fill="#117733"/><text x="343.33" y="311.42" font-size="11" fill="#117733" font-weight="700" paint-order="stroke" stroke="white" stroke-width="3">N8</text><line x1="285.33" y1="301.60" x2="331.80" y2="321.10" stroke="#332288" stroke-width="1.2"/><polygon points="337.33,323.42 330.64,323.86 332.96,318.33" fill="#332288"/><text x="343.33" y="326.42" font-size="11" fill="#332288" font-weight="700" paint-order="stroke" stroke="white" stroke-width="3">N23</text><line x1="327.28" y1="307.12" x2="374.14" y2="335.32" stroke="#E69F00" stroke-width="1.2"/><polygon points="379.28,338.42 372.59,337.89 375.68,332.75" fill="#E69F00"/><text x="385.28" y="341.42" font-size="11" fill="#E69F00" font-weight="700" paint-order="stroke" stroke="white" stroke-width="3">C4</text><line x1="285.33" y1="313.02" x2="332.60" y2="349.74" stroke="#6F4E7C" stroke-width="1.2"/><polygon points="337.33,353.42 330.75,352.11 334.44,347.37" fill="#6F4E7C"/><text x="343.33" y="356.42" font-size="11" fill="#6F4E7C" font-weight="700" paint-order="stroke" stroke="white" stroke-width="3">C6</text><line x1="285.33" y1="313.02" x2="333.23" y2="364.04" stroke="#7A3E00" stroke-width="1.2"/><polygon points="337.33,368.42 331.04,366.10 335.41,361.99" fill="#7A3E00"/><text x="343.33" y="371.42" font-size="11" fill="#7A3E00" font-weight="700" paint-order="stroke" stroke="white" stroke-width="3">N6</text><line x1="369.22" y1="319.35" x2="417.44" y2="378.76" stroke="#CC79A7" stroke-width="1.2"/><polygon points="421.22,383.42 415.11,380.65 419.77,376.87" fill="#CC79A7"/><text x="427.22" y="386.42" font-size="11" fill="#CC79A7" font-weight="700" paint-order="stroke" stroke="white" stroke-width="3">C3</text><line x1="285.33" y1="319.35" x2="334.04" y2="393.41" stroke="#A0006D" stroke-width="1.2"/><polygon points="337.33,398.42 331.53,395.05 336.54,391.76" fill="#A0006D"/><text x="343.33" y="401.42" font-size="11" fill="#A0006D" font-weight="700" paint-order="stroke" stroke="white" stroke-width="3">N3</text><line x1="453.11" y1="326.19" x2="502.04" y2="408.27" stroke="#D55E00" stroke-width="1.2"/><polygon points="505.11,413.42 499.46,409.80 504.62,406.73" fill="#D55E00"/><text x="511.11" y="416.42" font-size="11" fill="#D55E00" font-weight="700" paint-order="stroke" stroke="white" stroke-width="3">C1</text><line x1="537.00" y1="341.78" x2="585.91" y2="423.27" stroke="#0072B2" stroke-width="1.2"/><polygon points="589.00,428.42 583.34,424.82 588.48,421.73" fill="#0072B2"/><text x="595.00" y="431.42" font-size="11" fill="#0072B2" font-weight="700" paint-order="stroke" stroke="white" stroke-width="3">C0</text><line x1="453.11" y1="350.78" x2="502.17" y2="438.19" stroke="#009E73" stroke-width="1.2"/><polygon points="505.11,443.42 499.56,439.66 504.79,436.72" fill="#009E73"/><text x="511.11" y="446.42" font-size="11" fill="#009E73" font-weight="700" paint-order="stroke" stroke="white" stroke-width="3">C2</text><line x1="327.28" y1="350.78" x2="376.67" y2="453.02" stroke="#56B4E9" stroke-width="1.2"/><polygon points="379.28,458.42 373.97,454.32 379.37,451.71" fill="#56B4E9"/><text x="385.28" y="461.42" font-size="11" fill="#56B4E9" font-weight="700" paint-order="stroke" stroke="white" stroke-width="3">C5</text>
<line x1="1016" y1="74.00" x2="1034" y2="74.00" stroke="#0072B2" stroke-width="2" stroke-dasharray="5 3"/><g><title>C0</title><circle cx="1025.00" cy="74.00" r="4" stroke="#0072B2" stroke-width="1.6" fill="white"/></g><text x="1040" y="78.00" font-size="11">C0</text><line x1="1016" y1="92.00" x2="1034" y2="92.00" stroke="#D55E00" stroke-width="2" stroke-dasharray="5 3"/><g><title>C1</title><rect x="1021.20" y="88.20" width="7.6" height="7.6" stroke="#D55E00" stroke-width="1.6" fill="white"/></g><text x="1040" y="96.00" font-size="11">C1</text><line x1="1016" y1="110.00" x2="1034" y2="110.00" stroke="#009E73" stroke-width="2" stroke-dasharray="5 3"/><g><title>C2</title><polygon points="1025.00,105.40 1020.70,113.60 1029.30,113.60" stroke="#009E73" stroke-width="1.6" fill="white"/></g><text x="1040" y="114.00" font-size="11">C2</text><line x1="1016" y1="128.00" x2="1034" y2="128.00" stroke="#CC79A7" stroke-width="2" stroke-dasharray="5 3"/><g><title>C3</title><polygon points="1025.00,123.50 1020.50,128.00 1025.00,132.50 1029.50,128.00" stroke="#CC79A7" stroke-width="1.6" fill="white"/></g><text x="1040" y="132.00" font-size="11">C3</text><line x1="1016" y1="146.00" x2="1034" y2="146.00" stroke="#E69F00" stroke-width="2" stroke-dasharray="5 3"/><g><title>C4</title><polygon points="1020.70,142.40 1029.30,142.40 1025.00,150.60" stroke="#E69F00" stroke-width="1.6" fill="white"/></g><text x="1040" y="150.00" font-size="11">C4</text><line x1="1016" y1="164.00" x2="1034" y2="164.00" stroke="#56B4E9" stroke-width="2" stroke-dasharray="5 3"/><g><title>C5</title><path d="M 1021.00 164.00 H 1029.00 M 1025.00 160.00 V 168.00" stroke="#56B4E9" stroke-width="2" fill="none"/></g><text x="1040" y="168.00" font-size="11">C5</text><line x1="1016" y1="182.00" x2="1034" y2="182.00" stroke="#6F4E7C" stroke-width="2" stroke-dasharray="5 3"/><g><title>C6</title><path d="M 1021.50 178.50 L 1028.50 185.50 M 1028.50 178.50 L 1021.50 185.50" stroke="#6F4E7C" stroke-width="2" fill="none"/></g><text x="1040" y="186.00" font-size="11">C6</text><line x1="1016" y1="200.00" x2="1034" y2="200.00" stroke="#222222" stroke-width="2" stroke-dasharray="5 3"/><g><title>C7</title><polygon points="1020.80,200.00 1022.90,196.30 1027.10,196.30 1029.20,200.00 1027.10,203.70 1022.90,203.70" stroke="#222222" stroke-width="1.6" fill="white"/></g><text x="1040" y="204.00" font-size="11">C7</text><line x1="1016" y1="218.00" x2="1034" y2="218.00" stroke="#A0006D" stroke-width="2"/><g><title>N3</title><circle cx="1025.00" cy="218.00" r="4" stroke="#A0006D" stroke-width="1.6" fill="#A0006D"/></g><text x="1040" y="222.00" font-size="11">N3</text><line x1="1016" y1="236.00" x2="1034" y2="236.00" stroke="#7A3E00" stroke-width="2"/><g><title>N6</title><rect x="1021.20" y="232.20" width="7.6" height="7.6" stroke="#7A3E00" stroke-width="1.6" fill="#7A3E00"/></g><text x="1040" y="240.00" font-size="11">N6</text><line x1="1016" y1="254.00" x2="1034" y2="254.00" stroke="#117733" stroke-width="2"/><g><title>N8</title><polygon points="1025.00,249.40 1020.70,257.60 1029.30,257.60" stroke="#117733" stroke-width="1.6" fill="#117733"/></g><text x="1040" y="258.00" font-size="11">N8</text><line x1="1016" y1="272.00" x2="1034" y2="272.00" stroke="#332288" stroke-width="2"/><g><title>N23</title><polygon points="1025.00,267.50 1020.50,272.00 1025.00,276.50 1029.50,272.00" stroke="#332288" stroke-width="1.6" fill="#332288"/></g><text x="1040" y="276.00" font-size="11">N23</text>
<text x="537.0" y="694" text-anchor="middle" font-size="14">SNR (dB)</text>
<text x="22" y="347.0" text-anchor="middle" font-size="14" transform="rotate(-90 22 347.0)">BLER</text>
<text x="1016" y="692" font-size="11" fill="#555">dashed: CDD, solid: piecewise</text>
</svg>
