<svg xmlns="http://www.w3.org/2000/svg" width="1060" height="660" viewBox="0 0 1060 660">
<rect width="100%" height="100%" fill="white"/>
<text x="530.0" y="28" text-anchor="middle" font-size="18" font-family="Arial, sans-serif">Piecewise-linear Pareto Alg1 NMSE</text>
<line x1="78" y1="582" x2="934" y2="582" stroke="#333" stroke-width="1.2"/>
<line x1="78" y1="54" x2="78" y2="582" stroke="#333" stroke-width="1.2"/>
<line x1="78.00" y1="54" x2="78.00" y2="582" stroke="#e6e8eb"/><text x="78.00" y="606" font-size="12" text-anchor="middle">13.4</text><line x1="249.20" y1="54" x2="249.20" y2="582" stroke="#e6e8eb"/><text x="249.20" y="606" font-size="12" text-anchor="middle">16.8</text><line x1="420.40" y1="54" x2="420.40" y2="582" stroke="#e6e8eb"/><text x="420.40" y="606" font-size="12" text-anchor="middle">20.3</text><line x1="591.60" y1="54" x2="591.60" y2="582" stroke="#e6e8eb"/><text x="591.60" y="606" font-size="12" text-anchor="middle">23.7</text><line x1="762.80" y1="54" x2="762.80" y2="582" stroke="#e6e8eb"/><text x="762.80" y="606" font-size="12" text-anchor="middle">27.2</text><line x1="934.00" y1="54" x2="934.00" y2="582" stroke="#e6e8eb"/><text x="934.00" y="606" font-size="12" text-anchor="middle">30.6</text><line x1="78" y1="582.00" x2="934" y2="582.00" stroke="#e6e8eb"/><text x="70" y="586.00" font-size="12" text-anchor="end">0.000213</text><line x1="78" y1="476.40" x2="934" y2="476.40" stroke="#e6e8eb"/><text x="70" y="480.40" font-size="12" text-anchor="end">0.000606</text><line x1="78" y1="370.80" x2="934" y2="370.80" stroke="#e6e8eb"/><text x="70" y="374.80" font-size="12" text-anchor="end">0.00172</text><line x1="78" y1="265.20" x2="934" y2="265.20" stroke="#e6e8eb"/><text x="70" y="269.20" font-size="12" text-anchor="end">0.00489</text><line x1="78" y1="159.60" x2="934" y2="159.60" stroke="#e6e8eb"/><text x="70" y="163.60" font-size="12" text-anchor="end">0.0139</text><line x1="78" y1="54.00" x2="934" y2="54.00" stroke="#e6e8eb"/><text x="70" y="58.00" font-size="12" text-anchor="end">0.0394</text>
<circle cx="109.70" cy="150.24" r="3.6" fill="#26547c"><title>P1 PW cont random slope=4 #938</title></circle><circle cx="307.85" cy="301.37" r="3.6" fill="#26547c"><title>P1 PW cont random slope=4 #938</title></circle><circle cx="506.00" cy="410.12" r="3.6" fill="#26547c"><title>P1 PW cont random slope=4 #938</title></circle><circle cx="704.15" cy="454.18" r="3.6" fill="#26547c"><title>P1 PW cont random slope=4 #938</title></circle><circle cx="902.30" cy="529.85" r="3.6" fill="#26547c"><title>P1 PW cont random slope=4 #938</title></circle><polyline points="109.70,150.24 307.85,301.37 506.00,410.12 704.15,454.18 902.30,529.85" fill="none" stroke="#26547c" stroke-width="1.7"/><text x="907.30" y="533.85" font-size="10" fill="#26547c" font-weight="700">P1</text><circle cx="109.70" cy="227.67" r="3.6" fill="#ef476f"><title>P2 PW cont random slope=4 #939</title></circle><circle cx="307.85" cy="234.85" r="3.6" fill="#ef476f"><title>P2 PW cont random slope=4 #939</title></circle><circle cx="506.00" cy="354.73" r="3.6" fill="#ef476f"><title>P2 PW cont random slope=4 #939</title></circle><circle cx="704.15" cy="448.85" r="3.6" fill="#ef476f"><title>P2 PW cont random slope=4 #939</title></circle><circle cx="902.30" cy="545.59" r="3.6" fill="#ef476f"><title>P2 PW cont random slope=4 #939</title></circle><polyline points="109.70,227.67 307.85,234.85 506.00,354.73 704.15,448.85 902.30,545.59" fill="none" stroke="#ef476f" stroke-width="1.7"/><text x="907.30" y="549.59" font-size="10" fill="#ef476f" font-weight="700">P2</text><circle cx="109.70" cy="206.62" r="3.6" fill="#06a77d"><title>P3 PW cont random slope=4 #940</title></circle><circle cx="307.85" cy="275.31" r="3.6" fill="#06a77d"><title>P3 PW cont random slope=4 #940</title></circle><circle cx="506.00" cy="355.52" r="3.6" fill="#06a77d"><title>P3 PW cont random slope=4 #940</title></circle><circle cx="704.15" cy="482.58" r="3.6" fill="#06a77d"><title>P3 PW cont random slope=4 #940</title></circle><circle cx="902.30" cy="530.67" r="3.6" fill="#06a77d"><title>P3 PW cont random slope=4 #940</title></circle><polyline points="109.70,206.62 307.85,275.31 506.00,355.52 704.15,482.58 902.30,530.67" fill="none" stroke="#06a77d" stroke-width="1.7"/><text x="907.30" y="534.67" font-size="10" fill="#06a77d" font-weight="700">P3</text><circle cx="109.70" cy="188.98" r="3.6" fill="#7b2cbf"><title>P4 PW cont cyclic slope=4</title></circle><circle cx="307.85" cy="278.65" r="3.6" fill="#7b2cbf"><title>P4 PW cont cyclic slope=4</title></circle><circle cx="506.00" cy="345.59" r="3.6" fill="#7b2cbf"><title>P4 PW cont cyclic slope=4</title></circle><circle cx="704.15" cy="441.47" r="3.6" fill="#7b2cbf"><title>P4 PW cont cyclic slope=4</title></circle><circle cx="902.30" cy="534.71" r="3.6" fill="#7b2cbf"><title>P4 PW cont cyclic slope=4</title></circle><polyline points="109.70,188.98 307.85,278.65 506.00,345.59 704.15,441.47 902.30,534.71" fill="none" stroke="#7b2cbf" stroke-width="1.7"/><text x="907.30" y="538.71" font-size="10" fill="#7b2cbf" font-weight="700">P4</text><circle cx="109.70" cy="194.08" r="3.6" fill="#f77f00"><title>P5 PW cont random slope=6 #201</title></circle><circle cx="307.85" cy="276.23" r="3.6" fill="#f77f00"><title>P5 PW cont random slope=6 #201</title></circle><circle cx="506.00" cy="334.54" r="3.6" fill="#f77f00"><title>P5 PW cont random slope=6 #201</title></circle><circle cx="704.15" cy="472.98" r="3.6" fill="#f77f00"><title>P5 PW cont random slope=6 #201</title></circle><circle cx="902.30" cy="504.99" r="3.6" fill="#f77f00"><title>P5 PW cont random slope=6 #201</title></circle><polyline points="109.70,194.08 307.85,276.23 506.00,334.54 704.15,472.98 902.30,504.99" fill="none" stroke="#f77f00" stroke-width="1.7"/><text x="907.30" y="508.99" font-size="10" fill="#f77f00" font-weight="700">P5</text><circle cx="109.70" cy="183.80" r="3.6" fill="#118ab2"><title>P6 PW cont cyclic slope=6</title></circle><circle cx="307.85" cy="249.50" r="3.6" fill="#118ab2"><title>P6 PW cont cyclic slope=6</title></circle><circle cx="506.00" cy="345.30" r="3.6" fill="#118ab2"><title>P6 PW cont cyclic slope=6</title></circle><circle cx="704.15" cy="469.57" r="3.6" fill="#118ab2"><title>P6 PW cont cyclic slope=6</title></circle><circle cx="902.30" cy="520.58" r="3.6" fill="#118ab2"><title>P6 PW cont cyclic slope=6</title></circle><polyline points="109.70,183.80 307.85,249.50 506.00,345.30 704.15,469.57 902.30,520.58" fill="none" stroke="#118ab2" stroke-width="1.7"/><text x="907.30" y="524.58" font-size="10" fill="#118ab2" font-weight="700">P6</text><circle cx="109.70" cy="177.01" r="3.6" fill="#9d4edd"><title>P7 PW cont cyclic slope=8</title></circle><circle cx="307.85" cy="231.89" r="3.6" fill="#9d4edd"><title>P7 PW cont cyclic slope=8</title></circle><circle cx="506.00" cy="338.18" r="3.6" fill="#9d4edd"><title>P7 PW cont cyclic slope=8</title></circle><circle cx="704.15" cy="449.99" r="3.6" fill="#9d4edd"><title>P7 PW cont cyclic slope=8</title></circle><circle cx="902.30" cy="507.67" r="3.6" fill="#9d4edd"><title>P7 PW cont cyclic slope=8</title></circle><polyline points="109.70,177.01 307.85,231.89 506.00,338.18 704.15,449.99 902.30,507.67" fill="none" stroke="#9d4edd" stroke-width="1.7"/><text x="907.30" y="511.67" font-size="10" fill="#9d4edd" font-weight="700">P7</text><circle cx="109.70" cy="132.14" r="3.6" fill="#2a9d8f"><title>P8 PW cont cyclic slope=16</title></circle><circle cx="307.85" cy="217.69" r="3.6" fill="#2a9d8f"><title>P8 PW cont cyclic slope=16</title></circle><circle cx="506.00" cy="295.26" r="3.6" fill="#2a9d8f"><title>P8 PW cont cyclic slope=16</title></circle><circle cx="704.15" cy="420.07" r="3.6" fill="#2a9d8f"><title>P8 PW cont cyclic slope=16</title></circle><circle cx="902.30" cy="452.44" r="3.6" fill="#2a9d8f"><title>P8 PW cont cyclic slope=16</title></circle><polyline points="109.70,132.14 307.85,217.69 506.00,295.26 704.15,420.07 902.30,452.44" fill="none" stroke="#2a9d8f" stroke-width="1.7"/><text x="907.30" y="456.44" font-size="10" fill="#2a9d8f" font-weight="700">P8</text><circle cx="109.70" cy="131.49" r="3.6" fill="#d62828"><title>P9 PW cont cyclic slope=24</title></circle><circle cx="307.85" cy="209.08" r="3.6" fill="#d62828"><title>P9 PW cont cyclic slope=24</title></circle><circle cx="506.00" cy="260.51" r="3.6" fill="#d62828"><title>P9 PW cont cyclic slope=24</title></circle><circle cx="704.15" cy="357.86" r="3.6" fill="#d62828"><title>P9 PW cont cyclic slope=24</title></circle><circle cx="902.30" cy="410.67" r="3.6" fill="#d62828"><title>P9 PW cont cyclic slope=24</title></circle><polyline points="109.70,131.49 307.85,209.08 506.00,260.51 704.15,357.86 902.30,410.67" fill="none" stroke="#d62828" stroke-width="1.7"/><text x="907.30" y="414.67" font-size="10" fill="#d62828" font-weight="700">P9</text><circle cx="109.70" cy="90.41" r="3.6" fill="#6a994e"><title>P10 PW cont cyclic slope=32</title></circle><circle cx="307.85" cy="149.58" r="3.6" fill="#6a994e"><title>P10 PW cont cyclic slope=32</title></circle><circle cx="506.00" cy="174.05" r="3.6" fill="#6a994e"><title>P10 PW cont cyclic slope=32</title></circle><circle cx="704.15" cy="285.30" r="3.6" fill="#6a994e"><title>P10 PW cont cyclic slope=32</title></circle><circle cx="902.30" cy="343.35" r="3.6" fill="#6a994e"><title>P10 PW cont cyclic slope=32</title></circle><polyline points="109.70,90.41 307.85,149.58 506.00,174.05 704.15,285.30 902.30,343.35" fill="none" stroke="#6a994e" stroke-width="1.7"/><text x="907.30" y="347.35" font-size="10" fill="#6a994e" font-weight="700">P10</text><circle cx="109.70" cy="105.86" r="3.6" fill="#003049"><title>P11 PW cont cyclic slope=48</title></circle><circle cx="307.85" cy="179.59" r="3.6" fill="#003049"><title>P11 PW cont cyclic slope=48</title></circle><circle cx="506.00" cy="234.68" r="3.6" fill="#003049"><title>P11 PW cont cyclic slope=48</title></circle><circle cx="704.15" cy="337.49" r="3.6" fill="#003049"><title>P11 PW cont cyclic slope=48</title></circle><circle cx="902.30" cy="342.41" r="3.6" fill="#003049"><title>P11 PW cont cyclic slope=48</title></circle><polyline points="109.70,105.86 307.85,179.59 506.00,234.68 704.15,337.49 902.30,342.41" fill="none" stroke="#003049" stroke-width="1.7"/><text x="907.30" y="346.41" font-size="10" fill="#003049" font-weight="700">P11</text><circle cx="109.70" cy="117.27" r="3.6" fill="#bc6c25"><title>P12 PW cont cyclic slope=64</title></circle><circle cx="307.85" cy="201.61" r="3.6" fill="#bc6c25"><title>P12 PW cont cyclic slope=64</title></circle><circle cx="506.00" cy="267.84" r="3.6" fill="#bc6c25"><title>P12 PW cont cyclic slope=64</title></circle><circle cx="704.15" cy="368.77" r="3.6" fill="#bc6c25"><title>P12 PW cont cyclic slope=64</title></circle><circle cx="902.30" cy="390.51" r="3.6" fill="#bc6c25"><title>P12 PW cont cyclic slope=64</title></circle><polyline points="109.70,117.27 307.85,201.61 506.00,267.84 704.15,368.77 902.30,390.51" fill="none" stroke="#bc6c25" stroke-width="1.7"/><text x="907.30" y="394.51" font-size="10" fill="#bc6c25" font-weight="700">P12</text>
<line x1="952" y1="72.00" x2="968" y2="72.00" stroke="#26547c" stroke-width="2"/><text x="972" y="76.00" font-size="11">P1</text><line x1="952" y1="90.00" x2="968" y2="90.00" stroke="#ef476f" stroke-width="2"/><text x="972" y="94.00" font-size="11">P2</text><line x1="952" y1="108.00" x2="968" y2="108.00" stroke="#06a77d" stroke-width="2"/><text x="972" y="112.00" font-size="11">P3</text><line x1="952" y1="126.00" x2="968" y2="126.00" stroke="#7b2cbf" stroke-width="2"/><text x="972" y="130.00" font-size="11">P4</text><line x1="952" y1="144.00" x2="968" y2="144.00" stroke="#f77f00" stroke-width="2"/><text x="972" y="148.00" font-size="11">P5</text><line x1="952" y1="162.00" x2="968" y2="162.00" stroke="#118ab2" stroke-width="2"/><text x="972" y="166.00" font-size="11">P6</text><line x1="952" y1="180.00" x2="968" y2="180.00" stroke="#9d4edd" stroke-width="2"/><text x="972" y="184.00" font-size="11">P7</text><line x1="952" y1="198.00" x2="968" y2="198.00" stroke="#2a9d8f" stroke-width="2"/><text x="972" y="202.00" font-size="11">P8</text><line x1="952" y1="216.00" x2="968" y2="216.00" stroke="#d62828" stroke-width="2"/><text x="972" y="220.00" font-size="11">P9</text><line x1="952" y1="234.00" x2="968" y2="234.00" stroke="#6a994e" stroke-width="2"/><text x="972" y="238.00" font-size="11">P10</text><line x1="952" y1="252.00" x2="968" y2="252.00" stroke="#003049" stroke-width="2"/><text x="972" y="256.00" font-size="11">P11</text><line x1="952" y1="270.00" x2="968" y2="270.00" stroke="#bc6c25" stroke-width="2"/><text x="972" y="274.00" font-size="11">P12</text>
<text x="506.0" y="636" text-anchor="middle" font-size="14">SNR (dB)</text>
<text x="20" y="318.0" text-anchor="middle" font-size="14" transform="rotate(-90 20 318.0)">NMSE</text>
</svg>
